%FSLAX25Y25*%
%MOIN*%
G70*
G01*
G75*
G04 Layer_Color=8421504*
%ADD10R,0.02362X0.01969*%
%ADD11R,0.01969X0.02362*%
%ADD12R,0.03937X0.03937*%
%ADD13R,0.02756X0.05118*%
%ADD14O,0.09843X0.02756*%
%ADD15O,0.00984X0.08709*%
%ADD16R,0.02165X0.05709*%
%ADD17R,0.02165X0.05709*%
%ADD18R,0.05709X0.02165*%
%ADD19R,0.05709X0.02165*%
%ADD20R,0.05500X0.05500*%
%ADD21C,0.00600*%
%ADD22C,0.01000*%
%ADD23R,0.04016X0.47795*%
%ADD24R,0.19930X0.02835*%
%ADD25R,0.05709X0.11535*%
%ADD26R,0.11693X0.05748*%
%ADD27R,0.09685X0.11614*%
%ADD28R,0.10354X0.24724*%
%ADD29R,0.03976X0.38622*%
%ADD30R,0.07756X0.05591*%
%ADD31R,0.02795X0.25433*%
%ADD32R,0.11102X0.04685*%
%ADD33R,0.22165X0.17244*%
%ADD34R,0.18858X0.15748*%
%ADD35R,0.03150X0.09449*%
%ADD36R,0.06299X0.06299*%
%ADD37R,0.04331X0.03937*%
%ADD38R,0.14756X0.04150*%
%ADD39C,0.04000*%
%ADD40C,0.05906*%
%ADD41R,0.05906X0.05906*%
%ADD42R,0.06000X0.06000*%
%ADD43C,0.06000*%
%ADD44C,0.02400*%
%ADD45C,0.01181*%
%ADD46C,0.03600*%
%ADD47R,0.06102X0.05512*%
%ADD48C,0.01969*%
%ADD49R,0.06732X0.10591*%
%ADD50R,0.03740X0.01811*%
%ADD51R,0.01614X0.03150*%
%ADD52R,0.01811X0.06772*%
%ADD53R,0.04134X0.15748*%
%ADD54R,0.05118X0.03150*%
%ADD55R,0.10827X0.05079*%
%ADD56R,0.04764X0.03898*%
%ADD57R,0.07559X0.05039*%
%ADD58R,0.07323X0.08110*%
%ADD59R,0.08425X0.10433*%
%ADD60R,0.04882X0.04803*%
%ADD61R,0.07008X0.05315*%
%ADD62R,0.03701X0.18425*%
%ADD63R,0.06299X0.10630*%
%ADD64R,0.04724X0.02362*%
%ADD65R,0.06299X0.01969*%
%ADD66R,0.12165X0.03661*%
%ADD67R,0.14488X0.02402*%
%ADD68R,0.05236X0.01969*%
%ADD69R,0.14724X0.11417*%
%ADD70C,0.00984*%
%ADD71C,0.02362*%
%ADD72C,0.00394*%
%ADD73C,0.00787*%
%ADD74C,0.00100*%
%ADD75C,0.00800*%
%ADD76C,0.00500*%
D10*
X140079Y93386D02*
D03*
X136142D02*
D03*
X232166Y198414D02*
D03*
X236103D02*
D03*
X203416Y162031D02*
D03*
X199479D02*
D03*
X178613Y161638D02*
D03*
X174676D02*
D03*
X156172Y162819D02*
D03*
X152235D02*
D03*
X82156Y149299D02*
D03*
X86093D02*
D03*
X231772Y203138D02*
D03*
X235709D02*
D03*
X164961Y119409D02*
D03*
X168898D02*
D03*
X164685Y115512D02*
D03*
X168622D02*
D03*
X164606Y107520D02*
D03*
X168543D02*
D03*
X164803Y111535D02*
D03*
X168740D02*
D03*
X164331Y103622D02*
D03*
X168268D02*
D03*
X193347Y100118D02*
D03*
X189409D02*
D03*
X193377Y104709D02*
D03*
X189440D02*
D03*
X178150Y121417D02*
D03*
X174213D02*
D03*
D11*
X193858Y111969D02*
D03*
Y115905D02*
D03*
X195158Y188965D02*
D03*
Y192902D02*
D03*
X202244Y177154D02*
D03*
Y181091D02*
D03*
X175984Y175433D02*
D03*
Y171496D02*
D03*
X164606Y184449D02*
D03*
Y180512D02*
D03*
X187008Y184331D02*
D03*
Y180394D02*
D03*
X209322Y151008D02*
D03*
Y147071D02*
D03*
X188900Y146531D02*
D03*
Y150469D02*
D03*
X184912Y150614D02*
D03*
Y146677D02*
D03*
X190030Y138409D02*
D03*
Y134472D02*
D03*
X193574Y138409D02*
D03*
Y134472D02*
D03*
X169558Y138409D02*
D03*
Y134472D02*
D03*
X160897Y83685D02*
D03*
Y79748D02*
D03*
X157353Y83685D02*
D03*
Y79748D02*
D03*
X123367Y39654D02*
D03*
Y43591D02*
D03*
X151772Y133307D02*
D03*
Y137244D02*
D03*
X197117Y134472D02*
D03*
Y138409D02*
D03*
X165621Y138409D02*
D03*
Y134472D02*
D03*
X156172Y60063D02*
D03*
Y64000D02*
D03*
X187126Y124094D02*
D03*
Y120158D02*
D03*
X183425Y124173D02*
D03*
Y120236D02*
D03*
X171920Y99827D02*
D03*
Y103764D02*
D03*
X176693Y99882D02*
D03*
Y103819D02*
D03*
X198071Y111850D02*
D03*
Y115787D02*
D03*
D12*
X209922Y218454D02*
D03*
Y212154D02*
D03*
X202059Y218390D02*
D03*
Y212091D02*
D03*
D13*
X179724Y193858D02*
D03*
X175984D02*
D03*
X172244D02*
D03*
Y184409D02*
D03*
X175984D02*
D03*
X179724D02*
D03*
D14*
X203228Y203158D02*
D03*
Y198158D02*
D03*
Y193158D02*
D03*
Y188158D02*
D03*
X222520Y203158D02*
D03*
Y198158D02*
D03*
Y193158D02*
D03*
Y188158D02*
D03*
X105581Y111858D02*
D03*
Y116858D02*
D03*
Y121858D02*
D03*
Y126858D02*
D03*
Y131858D02*
D03*
Y136858D02*
D03*
Y141858D02*
D03*
X86290Y111858D02*
D03*
Y116858D02*
D03*
Y121858D02*
D03*
Y126858D02*
D03*
Y131858D02*
D03*
Y136858D02*
D03*
Y141858D02*
D03*
D15*
X164833Y40559D02*
D03*
X166802D02*
D03*
X168771D02*
D03*
X170739D02*
D03*
X172707D02*
D03*
X174676D02*
D03*
X176645D02*
D03*
X178613D02*
D03*
X180581D02*
D03*
X182550D02*
D03*
X184519D02*
D03*
X186487D02*
D03*
X188456D02*
D03*
X190424D02*
D03*
X192393D02*
D03*
X194361D02*
D03*
X196330D02*
D03*
X198298D02*
D03*
X200267D02*
D03*
X202235D02*
D03*
X204204D02*
D03*
X206172D02*
D03*
X208141D02*
D03*
X210109D02*
D03*
X164833Y70224D02*
D03*
X166802D02*
D03*
X168771D02*
D03*
X170739D02*
D03*
X172707D02*
D03*
X174676D02*
D03*
X176645D02*
D03*
X178613D02*
D03*
X180581D02*
D03*
X182550D02*
D03*
X184519D02*
D03*
X186487D02*
D03*
X188456D02*
D03*
X190424D02*
D03*
X192393D02*
D03*
X194361D02*
D03*
X196330D02*
D03*
X198298D02*
D03*
X200267D02*
D03*
X202235D02*
D03*
X204204D02*
D03*
X206172D02*
D03*
X208141D02*
D03*
X210109D02*
D03*
D16*
X203219Y155634D02*
D03*
X178416Y153799D02*
D03*
X155975Y155634D02*
D03*
D17*
X199479Y155634D02*
D03*
X195739D02*
D03*
Y147169D02*
D03*
X203219D02*
D03*
X174676Y153799D02*
D03*
X170936D02*
D03*
Y145335D02*
D03*
X178416D02*
D03*
X152235Y155634D02*
D03*
X148495D02*
D03*
Y147169D02*
D03*
X155975D02*
D03*
D18*
X108426Y47544D02*
D03*
D19*
X108426Y43804D02*
D03*
Y40064D02*
D03*
X116891D02*
D03*
Y47544D02*
D03*
D20*
X114887Y73690D02*
D03*
X135387D02*
D03*
X114887Y87690D02*
D03*
X135387D02*
D03*
M02*
