%FSLAX25Y25*%
%MOIN*%
G70*
G01*
G75*
G04 Layer_Physical_Order=2*
G04 Layer_Color=16711680*
%ADD10R,0.02362X0.01969*%
%ADD11R,0.01969X0.02362*%
%ADD12R,0.03937X0.03937*%
%ADD13R,0.02756X0.05118*%
%ADD14O,0.09843X0.02756*%
%ADD15O,0.00984X0.08709*%
%ADD16R,0.02165X0.05709*%
%ADD17R,0.02165X0.05709*%
%ADD18R,0.05709X0.02165*%
%ADD19R,0.05709X0.02165*%
%ADD20R,0.05500X0.05500*%
%ADD21C,0.00600*%
%ADD22C,0.01000*%
%ADD23R,0.04016X0.47795*%
%ADD24R,0.19930X0.02835*%
%ADD25R,0.05709X0.11535*%
%ADD26R,0.11693X0.05748*%
%ADD27R,0.09685X0.11614*%
%ADD28R,0.10354X0.24724*%
%ADD29R,0.03976X0.38622*%
%ADD30R,0.07756X0.05591*%
%ADD31R,0.02795X0.25433*%
%ADD32R,0.11102X0.04685*%
%ADD33R,0.22165X0.17244*%
%ADD34R,0.18858X0.15748*%
%ADD35R,0.03150X0.09449*%
%ADD36R,0.06299X0.06299*%
%ADD37R,0.04331X0.03937*%
%ADD38R,0.14756X0.04150*%
%ADD39C,0.04000*%
%ADD40C,0.05906*%
%ADD41R,0.05906X0.05906*%
%ADD42R,0.06000X0.06000*%
%ADD43C,0.06000*%
%ADD44C,0.02400*%
%ADD45C,0.01181*%
%ADD46C,0.03600*%
%ADD47R,0.06102X0.05512*%
%ADD48C,0.01969*%
%ADD49R,0.06732X0.10591*%
%ADD50R,0.03740X0.01811*%
%ADD51R,0.01614X0.03150*%
%ADD52R,0.01811X0.06772*%
%ADD53R,0.04134X0.15748*%
%ADD54R,0.05118X0.03150*%
%ADD55R,0.10827X0.05079*%
%ADD56R,0.04764X0.03898*%
%ADD57R,0.07559X0.05039*%
%ADD58R,0.07323X0.08110*%
%ADD59R,0.08425X0.10433*%
%ADD60R,0.04882X0.04803*%
%ADD61R,0.07008X0.05315*%
%ADD62R,0.03701X0.18425*%
%ADD63R,0.06299X0.10630*%
%ADD64R,0.04724X0.02362*%
%ADD65R,0.06299X0.01969*%
%ADD66R,0.12165X0.03661*%
%ADD67R,0.14488X0.02402*%
%ADD68R,0.05236X0.01969*%
%ADD69R,0.14724X0.11417*%
G36*
X243047Y988D02*
X847D01*
Y59346D01*
X19617D01*
X19969Y59416D01*
X20266Y59615D01*
X20372Y59721D01*
X20571Y60018D01*
X20583Y60077D01*
X20641Y60370D01*
Y160284D01*
X20571Y160635D01*
X20372Y160933D01*
X19835Y161470D01*
X19537Y161669D01*
X19186Y161739D01*
X953D01*
Y222042D01*
X243047D01*
Y988D01*
D02*
G37*
%LPC*%
G36*
X172931Y46587D02*
X171287D01*
Y44943D01*
X171646Y45014D01*
X172373Y45500D01*
X172860Y46228D01*
X172931Y46587D01*
D02*
G37*
G36*
X182050Y47404D02*
X180406D01*
X180478Y47046D01*
X180964Y46318D01*
X181692Y45832D01*
X182050Y45761D01*
Y47404D01*
D02*
G37*
G36*
X170287Y46587D02*
X168644D01*
X168715Y46228D01*
X169201Y45500D01*
X169929Y45014D01*
X170287Y44943D01*
Y46587D01*
D02*
G37*
G36*
X99539Y46238D02*
X99181Y46167D01*
X98453Y45681D01*
X97967Y44953D01*
X97896Y44594D01*
X99539D01*
Y46238D01*
D02*
G37*
G36*
X100539D02*
Y44594D01*
X102183D01*
X102112Y44953D01*
X101626Y45681D01*
X100898Y46167D01*
X100539Y46238D01*
D02*
G37*
G36*
X184694Y47404D02*
X183050D01*
Y45761D01*
X183408Y45832D01*
X184136Y46318D01*
X184622Y47046D01*
X184694Y47404D01*
D02*
G37*
G36*
X203594Y48083D02*
X201951D01*
X202022Y47724D01*
X202508Y46997D01*
X203236Y46510D01*
X203594Y46439D01*
Y48083D01*
D02*
G37*
G36*
X170287Y49230D02*
X169929Y49159D01*
X169201Y48673D01*
X168715Y47945D01*
X168644Y47587D01*
X170287D01*
Y49230D01*
D02*
G37*
G36*
X194536Y47737D02*
X192893D01*
Y46094D01*
X193251Y46165D01*
X193979Y46651D01*
X194465Y47379D01*
X194536Y47737D01*
D02*
G37*
G36*
X124563Y63030D02*
X123626Y62844D01*
X122832Y62313D01*
X122302Y61519D01*
X122116Y60583D01*
X122302Y59646D01*
X122832Y58852D01*
X123441Y58446D01*
Y50854D01*
X123389Y50811D01*
X122452Y50625D01*
X121658Y50094D01*
X121128Y49300D01*
X120942Y48364D01*
X121128Y47428D01*
X121658Y46634D01*
X122452Y46103D01*
X123389Y45917D01*
X124325Y46103D01*
X125119Y46634D01*
X125649Y47428D01*
X125836Y48364D01*
X125649Y49300D01*
X125427Y49633D01*
X125599Y49890D01*
X125684Y50320D01*
Y58446D01*
X126293Y58852D01*
X126823Y59646D01*
X127010Y60583D01*
X126823Y61519D01*
X126293Y62313D01*
X125499Y62844D01*
X124563Y63030D01*
D02*
G37*
G36*
X191893Y47737D02*
X190249D01*
X190320Y47379D01*
X190806Y46651D01*
X191534Y46165D01*
X191893Y46094D01*
Y47737D01*
D02*
G37*
G36*
X212000Y24928D02*
X211061Y24804D01*
X210185Y24442D01*
X209433Y23865D01*
X208856Y23112D01*
X208493Y22237D01*
X208369Y21297D01*
X208493Y20357D01*
X208856Y19481D01*
X209433Y18729D01*
X210185Y18152D01*
X211061Y17790D01*
X212000Y17666D01*
X212940Y17790D01*
X213816Y18152D01*
X214568Y18729D01*
X215145Y19481D01*
X215508Y20357D01*
X215632Y21297D01*
X215508Y22237D01*
X215145Y23112D01*
X214568Y23865D01*
X213816Y24442D01*
X212940Y24804D01*
X212000Y24928D01*
D02*
G37*
G36*
X222001D02*
X221061Y24804D01*
X220185Y24442D01*
X219433Y23865D01*
X218856Y23112D01*
X218493Y22237D01*
X218369Y21297D01*
X218493Y20357D01*
X218856Y19481D01*
X219433Y18729D01*
X220185Y18152D01*
X221061Y17790D01*
X222001Y17666D01*
X222940Y17790D01*
X223816Y18152D01*
X224568Y18729D01*
X225145Y19481D01*
X225508Y20357D01*
X225631Y21297D01*
X225508Y22237D01*
X225145Y23112D01*
X224568Y23865D01*
X223816Y24442D01*
X222940Y24804D01*
X222001Y24928D01*
D02*
G37*
G36*
X202000D02*
X201061Y24804D01*
X200185Y24442D01*
X199433Y23865D01*
X198856Y23112D01*
X198493Y22237D01*
X198369Y21297D01*
X198493Y20357D01*
X198856Y19481D01*
X199433Y18729D01*
X200185Y18152D01*
X201061Y17790D01*
X202000Y17666D01*
X202940Y17790D01*
X203816Y18152D01*
X204568Y18729D01*
X205145Y19481D01*
X205508Y20357D01*
X205631Y21297D01*
X205508Y22237D01*
X205145Y23112D01*
X204568Y23865D01*
X203816Y24442D01*
X202940Y24804D01*
X202000Y24928D01*
D02*
G37*
G36*
X182001D02*
X181061Y24804D01*
X180185Y24442D01*
X179433Y23865D01*
X178856Y23112D01*
X178493Y22237D01*
X178369Y21297D01*
X178493Y20357D01*
X178856Y19481D01*
X179433Y18729D01*
X180185Y18152D01*
X181061Y17790D01*
X182001Y17666D01*
X182940Y17790D01*
X183816Y18152D01*
X184568Y18729D01*
X185145Y19481D01*
X185508Y20357D01*
X185632Y21297D01*
X185508Y22237D01*
X185145Y23112D01*
X184568Y23865D01*
X183816Y24442D01*
X182940Y24804D01*
X182001Y24928D01*
D02*
G37*
G36*
X192000D02*
X191061Y24804D01*
X190185Y24442D01*
X189433Y23865D01*
X188856Y23112D01*
X188493Y22237D01*
X188369Y21297D01*
X188493Y20357D01*
X188856Y19481D01*
X189433Y18729D01*
X190185Y18152D01*
X191061Y17790D01*
X192000Y17666D01*
X192940Y17790D01*
X193816Y18152D01*
X194568Y18729D01*
X195145Y19481D01*
X195508Y20357D01*
X195632Y21297D01*
X195508Y22237D01*
X195145Y23112D01*
X194568Y23865D01*
X193816Y24442D01*
X192940Y24804D01*
X192000Y24928D01*
D02*
G37*
G36*
X232000D02*
X231061Y24804D01*
X230185Y24442D01*
X229433Y23865D01*
X228856Y23112D01*
X228493Y22237D01*
X228369Y21297D01*
X228493Y20357D01*
X228856Y19481D01*
X229433Y18729D01*
X230185Y18152D01*
X231061Y17790D01*
X232000Y17666D01*
X232940Y17790D01*
X233816Y18152D01*
X234568Y18729D01*
X235145Y19481D01*
X235508Y20357D01*
X235631Y21297D01*
X235508Y22237D01*
X235145Y23112D01*
X234568Y23865D01*
X233816Y24442D01*
X232940Y24804D01*
X232000Y24928D01*
D02*
G37*
G36*
X99539Y43595D02*
X97896D01*
X97967Y43236D01*
X98453Y42508D01*
X99181Y42022D01*
X99539Y41951D01*
Y43595D01*
D02*
G37*
G36*
X102183D02*
X100539D01*
Y41951D01*
X100898Y42022D01*
X101626Y42508D01*
X102112Y43236D01*
X102183Y43595D01*
D02*
G37*
G36*
X84744Y157448D02*
Y154690D01*
Y151932D01*
X84975Y151962D01*
X85656Y152244D01*
X86241Y152693D01*
X86690Y153278D01*
X86819Y153590D01*
X87317Y153541D01*
X87464Y152804D01*
X87994Y152010D01*
X88788Y151479D01*
X88807Y151476D01*
Y34059D01*
X88079Y33914D01*
X87286Y33384D01*
X86755Y32590D01*
X86569Y31653D01*
X86755Y30717D01*
X87286Y29923D01*
X88079Y29393D01*
X89016Y29206D01*
X89952Y29393D01*
X90746Y29923D01*
X91277Y30717D01*
X91463Y31653D01*
X91277Y32590D01*
X90746Y33384D01*
X90642Y33453D01*
Y151476D01*
X90661Y151479D01*
X91455Y152010D01*
X91985Y152804D01*
X92171Y153740D01*
X91985Y154677D01*
X91455Y155471D01*
X90661Y156001D01*
X89724Y156187D01*
X88788Y156001D01*
X87994Y155471D01*
X87715Y155052D01*
X87215Y155053D01*
X86972Y155421D01*
Y155421D01*
X86972Y155421D01*
X86690Y156102D01*
X86241Y156687D01*
X85656Y157136D01*
X84975Y157418D01*
X84744Y157448D01*
D02*
G37*
G36*
X11501Y25297D02*
X8000D01*
Y21797D01*
X11501D01*
Y25297D01*
D02*
G37*
G36*
X16001D02*
X12501D01*
Y21797D01*
X16001D01*
Y25297D01*
D02*
G37*
G36*
X197907Y80258D02*
X197204Y80118D01*
X196609Y79721D01*
X196211Y79125D01*
X196072Y78423D01*
X196211Y77721D01*
X196609Y77125D01*
X196668Y77086D01*
X196717Y76588D01*
X188782Y68653D01*
X179130D01*
X178701Y68568D01*
X178337Y68325D01*
X178337Y68325D01*
X173837Y63825D01*
X173630Y63867D01*
X172927Y63727D01*
X172332Y63329D01*
X171934Y62734D01*
X171794Y62031D01*
X171934Y61329D01*
X172332Y60734D01*
X172927Y60336D01*
X173630Y60196D01*
X174332Y60336D01*
X174927Y60734D01*
X175325Y61329D01*
X175465Y62031D01*
X175424Y62239D01*
X179594Y66410D01*
X189246D01*
X189246Y66410D01*
X189676Y66495D01*
X190040Y66738D01*
X198700Y75399D01*
X198700Y75399D01*
X198943Y75763D01*
X199028Y76192D01*
X199028Y76192D01*
Y77007D01*
X199205Y77125D01*
X199602Y77721D01*
X199742Y78423D01*
X199602Y79125D01*
X199205Y79721D01*
X198609Y80118D01*
X197907Y80258D01*
D02*
G37*
G36*
X152129Y72161D02*
X149871D01*
X149901Y71930D01*
X150183Y71249D01*
X150632Y70664D01*
X151217Y70215D01*
X151898Y69933D01*
X152129Y69903D01*
Y72161D01*
D02*
G37*
G36*
X135815Y67340D02*
Y65697D01*
X137459D01*
X137387Y66055D01*
X136901Y66783D01*
X136173Y67269D01*
X135815Y67340D01*
D02*
G37*
G36*
X137459Y64697D02*
X135815D01*
Y63053D01*
X136173Y63125D01*
X136901Y63611D01*
X137387Y64338D01*
X137459Y64697D01*
D02*
G37*
G36*
X134815Y67340D02*
X134457Y67269D01*
X133729Y66783D01*
X133243Y66055D01*
X133171Y65697D01*
X134815D01*
Y67340D01*
D02*
G37*
G36*
X155387Y72161D02*
X153129D01*
Y69903D01*
X153360Y69933D01*
X154041Y70215D01*
X154626Y70664D01*
X155075Y71249D01*
X155357Y71930D01*
X155387Y72161D01*
D02*
G37*
G36*
X194547Y76902D02*
X192903D01*
Y75258D01*
X193262Y75330D01*
X193989Y75816D01*
X194476Y76543D01*
X194547Y76902D01*
D02*
G37*
G36*
X204106Y77138D02*
X202463D01*
X202534Y76779D01*
X203020Y76052D01*
X203748Y75565D01*
X204106Y75494D01*
Y77138D01*
D02*
G37*
G36*
X191903Y76902D02*
X190260D01*
X190331Y76543D01*
X190817Y75816D01*
X191545Y75330D01*
X191903Y75258D01*
Y76902D01*
D02*
G37*
G36*
X152129Y75420D02*
X151898Y75389D01*
X151217Y75107D01*
X150632Y74658D01*
X150183Y74073D01*
X149901Y73392D01*
X149871Y73161D01*
X152129D01*
Y75420D01*
D02*
G37*
G36*
X153129D02*
Y73161D01*
X155387D01*
X155357Y73392D01*
X155075Y74073D01*
X154626Y74658D01*
X154041Y75107D01*
X153360Y75389D01*
X153129Y75420D01*
D02*
G37*
G36*
X191893Y50381D02*
X191534Y50310D01*
X190806Y49823D01*
X190320Y49096D01*
X190249Y48737D01*
X191893D01*
Y50381D01*
D02*
G37*
G36*
X192893D02*
Y48737D01*
X194536D01*
X194465Y49096D01*
X193979Y49823D01*
X193251Y50310D01*
X192893Y50381D01*
D02*
G37*
G36*
X183050Y50048D02*
Y48404D01*
X184694D01*
X184622Y48763D01*
X184136Y49490D01*
X183408Y49977D01*
X183050Y50048D01*
D02*
G37*
G36*
X171287Y49230D02*
Y47587D01*
X172931D01*
X172860Y47945D01*
X172373Y48673D01*
X171646Y49159D01*
X171287Y49230D01*
D02*
G37*
G36*
X182050Y50048D02*
X181692Y49977D01*
X180964Y49490D01*
X180478Y48763D01*
X180406Y48404D01*
X182050D01*
Y50048D01*
D02*
G37*
G36*
X155602Y55917D02*
X153344D01*
X153374Y55686D01*
X153657Y55005D01*
X154105Y54420D01*
X154690Y53971D01*
X155371Y53689D01*
X155602Y53659D01*
Y55917D01*
D02*
G37*
G36*
X156602Y59176D02*
Y56917D01*
X158861D01*
X158830Y57148D01*
X158548Y57829D01*
X158099Y58414D01*
X157514Y58863D01*
X156833Y59145D01*
X156602Y59176D01*
D02*
G37*
G36*
X134815Y64697D02*
X133171D01*
X133243Y64338D01*
X133729Y63611D01*
X134457Y63125D01*
X134815Y63053D01*
Y64697D01*
D02*
G37*
G36*
X155602Y59176D02*
X155371Y59145D01*
X154690Y58863D01*
X154105Y58414D01*
X153657Y57829D01*
X153374Y57148D01*
X153344Y56917D01*
X155602D01*
Y59176D01*
D02*
G37*
G36*
X158861Y55917D02*
X156602D01*
Y53659D01*
X156833Y53689D01*
X157514Y53971D01*
X158099Y54420D01*
X158548Y55005D01*
X158830Y55686D01*
X158861Y55917D01*
D02*
G37*
G36*
X200997Y56123D02*
X200997Y56123D01*
X168827D01*
X168827Y56123D01*
X168398Y56038D01*
X168034Y55794D01*
X155199Y42959D01*
X154991Y43000D01*
X154289Y42861D01*
X153693Y42463D01*
X153295Y41868D01*
X153156Y41165D01*
X153295Y40463D01*
X153693Y39867D01*
X154289Y39470D01*
X154991Y39330D01*
X155693Y39470D01*
X156289Y39867D01*
X156687Y40463D01*
X156826Y41165D01*
X156785Y41373D01*
X169292Y53880D01*
X200533D01*
X203270Y51143D01*
X203221Y50645D01*
X202508Y50169D01*
X202022Y49441D01*
X201951Y49083D01*
X204095D01*
Y48583D01*
X204594D01*
Y46439D01*
X204953Y46510D01*
X205681Y46997D01*
X206157Y47709D01*
X206654Y47758D01*
X213040Y41373D01*
X212998Y41165D01*
X213138Y40463D01*
X213536Y39867D01*
X214131Y39470D01*
X214833Y39330D01*
X215536Y39470D01*
X216131Y39867D01*
X216529Y40463D01*
X216669Y41165D01*
X216529Y41868D01*
X216131Y42463D01*
X215536Y42861D01*
X214833Y43000D01*
X214626Y42959D01*
X201790Y55794D01*
X201427Y56038D01*
X200997Y56123D01*
D02*
G37*
G36*
X142000Y14928D02*
X141061Y14804D01*
X140185Y14442D01*
X139433Y13864D01*
X138856Y13113D01*
X138493Y12237D01*
X138369Y11297D01*
X138493Y10357D01*
X138856Y9481D01*
X139433Y8729D01*
X140185Y8152D01*
X141061Y7790D01*
X142000Y7666D01*
X142940Y7790D01*
X143816Y8152D01*
X144568Y8729D01*
X145145Y9481D01*
X145508Y10357D01*
X145632Y11297D01*
X145508Y12237D01*
X145145Y13113D01*
X144568Y13864D01*
X143816Y14442D01*
X142940Y14804D01*
X142000Y14928D01*
D02*
G37*
G36*
X152000D02*
X151061Y14804D01*
X150185Y14442D01*
X149433Y13864D01*
X148856Y13113D01*
X148493Y12237D01*
X148369Y11297D01*
X148493Y10357D01*
X148856Y9481D01*
X149433Y8729D01*
X150185Y8152D01*
X151061Y7790D01*
X152000Y7666D01*
X152940Y7790D01*
X153816Y8152D01*
X154568Y8729D01*
X155145Y9481D01*
X155508Y10357D01*
X155631Y11297D01*
X155508Y12237D01*
X155145Y13113D01*
X154568Y13864D01*
X153816Y14442D01*
X152940Y14804D01*
X152000Y14928D01*
D02*
G37*
G36*
X132001D02*
X131061Y14804D01*
X130185Y14442D01*
X129433Y13864D01*
X128856Y13113D01*
X128493Y12237D01*
X128369Y11297D01*
X128493Y10357D01*
X128856Y9481D01*
X129433Y8729D01*
X130185Y8152D01*
X131061Y7790D01*
X132001Y7666D01*
X132940Y7790D01*
X133816Y8152D01*
X134568Y8729D01*
X135145Y9481D01*
X135508Y10357D01*
X135632Y11297D01*
X135508Y12237D01*
X135145Y13113D01*
X134568Y13864D01*
X133816Y14442D01*
X132940Y14804D01*
X132001Y14928D01*
D02*
G37*
G36*
X112001D02*
X111061Y14804D01*
X110185Y14442D01*
X109433Y13864D01*
X108856Y13113D01*
X108493Y12237D01*
X108369Y11297D01*
X108493Y10357D01*
X108856Y9481D01*
X109433Y8729D01*
X110185Y8152D01*
X111061Y7790D01*
X112001Y7666D01*
X112940Y7790D01*
X113816Y8152D01*
X114568Y8729D01*
X115145Y9481D01*
X115508Y10357D01*
X115631Y11297D01*
X115508Y12237D01*
X115145Y13113D01*
X114568Y13864D01*
X113816Y14442D01*
X112940Y14804D01*
X112001Y14928D01*
D02*
G37*
G36*
X122001D02*
X121061Y14804D01*
X120185Y14442D01*
X119433Y13864D01*
X118856Y13113D01*
X118493Y12237D01*
X118369Y11297D01*
X118493Y10357D01*
X118856Y9481D01*
X119433Y8729D01*
X120185Y8152D01*
X121061Y7790D01*
X122001Y7666D01*
X122940Y7790D01*
X123816Y8152D01*
X124568Y8729D01*
X125145Y9481D01*
X125508Y10357D01*
X125631Y11297D01*
X125508Y12237D01*
X125145Y13113D01*
X124568Y13864D01*
X123816Y14442D01*
X122940Y14804D01*
X122001Y14928D01*
D02*
G37*
G36*
X162001D02*
X161061Y14804D01*
X160185Y14442D01*
X159433Y13864D01*
X158856Y13113D01*
X158493Y12237D01*
X158369Y11297D01*
X158493Y10357D01*
X158856Y9481D01*
X159433Y8729D01*
X160185Y8152D01*
X161061Y7790D01*
X162001Y7666D01*
X162940Y7790D01*
X163816Y8152D01*
X164568Y8729D01*
X165145Y9481D01*
X165508Y10357D01*
X165631Y11297D01*
X165508Y12237D01*
X165145Y13113D01*
X164568Y13864D01*
X163816Y14442D01*
X162940Y14804D01*
X162001Y14928D01*
D02*
G37*
G36*
X202000D02*
X201061Y14804D01*
X200185Y14442D01*
X199433Y13864D01*
X198856Y13113D01*
X198493Y12237D01*
X198369Y11297D01*
X198493Y10357D01*
X198856Y9481D01*
X199433Y8729D01*
X200185Y8152D01*
X201061Y7790D01*
X202000Y7666D01*
X202940Y7790D01*
X203816Y8152D01*
X204568Y8729D01*
X205145Y9481D01*
X205508Y10357D01*
X205631Y11297D01*
X205508Y12237D01*
X205145Y13113D01*
X204568Y13864D01*
X203816Y14442D01*
X202940Y14804D01*
X202000Y14928D01*
D02*
G37*
G36*
X212000D02*
X211061Y14804D01*
X210185Y14442D01*
X209433Y13864D01*
X208856Y13113D01*
X208493Y12237D01*
X208369Y11297D01*
X208493Y10357D01*
X208856Y9481D01*
X209433Y8729D01*
X210185Y8152D01*
X211061Y7790D01*
X212000Y7666D01*
X212940Y7790D01*
X213816Y8152D01*
X214568Y8729D01*
X215145Y9481D01*
X215508Y10357D01*
X215632Y11297D01*
X215508Y12237D01*
X215145Y13113D01*
X214568Y13864D01*
X213816Y14442D01*
X212940Y14804D01*
X212000Y14928D01*
D02*
G37*
G36*
X192000D02*
X191061Y14804D01*
X190185Y14442D01*
X189433Y13864D01*
X188856Y13113D01*
X188493Y12237D01*
X188369Y11297D01*
X188493Y10357D01*
X188856Y9481D01*
X189433Y8729D01*
X190185Y8152D01*
X191061Y7790D01*
X192000Y7666D01*
X192940Y7790D01*
X193816Y8152D01*
X194568Y8729D01*
X195145Y9481D01*
X195508Y10357D01*
X195632Y11297D01*
X195508Y12237D01*
X195145Y13113D01*
X194568Y13864D01*
X193816Y14442D01*
X192940Y14804D01*
X192000Y14928D01*
D02*
G37*
G36*
X172001D02*
X171061Y14804D01*
X170185Y14442D01*
X169433Y13864D01*
X168856Y13113D01*
X168493Y12237D01*
X168369Y11297D01*
X168493Y10357D01*
X168856Y9481D01*
X169433Y8729D01*
X170185Y8152D01*
X171061Y7790D01*
X172001Y7666D01*
X172940Y7790D01*
X173816Y8152D01*
X174568Y8729D01*
X175145Y9481D01*
X175508Y10357D01*
X175631Y11297D01*
X175508Y12237D01*
X175145Y13113D01*
X174568Y13864D01*
X173816Y14442D01*
X172940Y14804D01*
X172001Y14928D01*
D02*
G37*
G36*
X182001D02*
X181061Y14804D01*
X180185Y14442D01*
X179433Y13864D01*
X178856Y13113D01*
X178493Y12237D01*
X178369Y11297D01*
X178493Y10357D01*
X178856Y9481D01*
X179433Y8729D01*
X180185Y8152D01*
X181061Y7790D01*
X182001Y7666D01*
X182940Y7790D01*
X183816Y8152D01*
X184568Y8729D01*
X185145Y9481D01*
X185508Y10357D01*
X185632Y11297D01*
X185508Y12237D01*
X185145Y13113D01*
X184568Y13864D01*
X183816Y14442D01*
X182940Y14804D01*
X182001Y14928D01*
D02*
G37*
G36*
X32000D02*
X31061Y14804D01*
X30185Y14442D01*
X29433Y13864D01*
X28856Y13113D01*
X28493Y12237D01*
X28369Y11297D01*
X28493Y10357D01*
X28856Y9481D01*
X29433Y8729D01*
X30185Y8152D01*
X31061Y7790D01*
X32000Y7666D01*
X32940Y7790D01*
X33816Y8152D01*
X34568Y8729D01*
X35145Y9481D01*
X35508Y10357D01*
X35631Y11297D01*
X35508Y12237D01*
X35145Y13113D01*
X34568Y13864D01*
X33816Y14442D01*
X32940Y14804D01*
X32000Y14928D01*
D02*
G37*
G36*
X42000D02*
X41061Y14804D01*
X40185Y14442D01*
X39433Y13864D01*
X38856Y13113D01*
X38493Y12237D01*
X38369Y11297D01*
X38493Y10357D01*
X38856Y9481D01*
X39433Y8729D01*
X40185Y8152D01*
X41061Y7790D01*
X42000Y7666D01*
X42940Y7790D01*
X43816Y8152D01*
X44568Y8729D01*
X45145Y9481D01*
X45508Y10357D01*
X45632Y11297D01*
X45508Y12237D01*
X45145Y13113D01*
X44568Y13864D01*
X43816Y14442D01*
X42940Y14804D01*
X42000Y14928D01*
D02*
G37*
G36*
X22001D02*
X21061Y14804D01*
X20185Y14442D01*
X19433Y13864D01*
X18856Y13113D01*
X18493Y12237D01*
X18369Y11297D01*
X18493Y10357D01*
X18856Y9481D01*
X19433Y8729D01*
X20185Y8152D01*
X21061Y7790D01*
X22001Y7666D01*
X22940Y7790D01*
X23816Y8152D01*
X24568Y8729D01*
X25145Y9481D01*
X25508Y10357D01*
X25631Y11297D01*
X25508Y12237D01*
X25145Y13113D01*
X24568Y13864D01*
X23816Y14442D01*
X22940Y14804D01*
X22001Y14928D01*
D02*
G37*
G36*
X11501Y10797D02*
X8032D01*
X8103Y10253D01*
X8506Y9280D01*
X9148Y8444D01*
X9983Y7803D01*
X10956Y7400D01*
X11501Y7328D01*
Y10797D01*
D02*
G37*
G36*
X15969D02*
X12501D01*
Y7328D01*
X13045Y7400D01*
X14018Y7803D01*
X14853Y8444D01*
X15495Y9280D01*
X15898Y10253D01*
X15969Y10797D01*
D02*
G37*
G36*
X52000Y14928D02*
X51061Y14804D01*
X50185Y14442D01*
X49433Y13864D01*
X48856Y13113D01*
X48493Y12237D01*
X48369Y11297D01*
X48493Y10357D01*
X48856Y9481D01*
X49433Y8729D01*
X50185Y8152D01*
X51061Y7790D01*
X52000Y7666D01*
X52940Y7790D01*
X53816Y8152D01*
X54568Y8729D01*
X55145Y9481D01*
X55508Y10357D01*
X55632Y11297D01*
X55508Y12237D01*
X55145Y13113D01*
X54568Y13864D01*
X53816Y14442D01*
X52940Y14804D01*
X52000Y14928D01*
D02*
G37*
G36*
X92001D02*
X91061Y14804D01*
X90185Y14442D01*
X89433Y13864D01*
X88856Y13113D01*
X88493Y12237D01*
X88369Y11297D01*
X88493Y10357D01*
X88856Y9481D01*
X89433Y8729D01*
X90185Y8152D01*
X91061Y7790D01*
X92001Y7666D01*
X92940Y7790D01*
X93816Y8152D01*
X94568Y8729D01*
X95145Y9481D01*
X95508Y10357D01*
X95631Y11297D01*
X95508Y12237D01*
X95145Y13113D01*
X94568Y13864D01*
X93816Y14442D01*
X92940Y14804D01*
X92001Y14928D01*
D02*
G37*
G36*
X102000D02*
X101061Y14804D01*
X100185Y14442D01*
X99433Y13864D01*
X98856Y13113D01*
X98493Y12237D01*
X98369Y11297D01*
X98493Y10357D01*
X98856Y9481D01*
X99433Y8729D01*
X100185Y8152D01*
X101061Y7790D01*
X102000Y7666D01*
X102940Y7790D01*
X103816Y8152D01*
X104568Y8729D01*
X105145Y9481D01*
X105508Y10357D01*
X105631Y11297D01*
X105508Y12237D01*
X105145Y13113D01*
X104568Y13864D01*
X103816Y14442D01*
X102940Y14804D01*
X102000Y14928D01*
D02*
G37*
G36*
X82000D02*
X81061Y14804D01*
X80185Y14442D01*
X79433Y13864D01*
X78856Y13113D01*
X78493Y12237D01*
X78369Y11297D01*
X78493Y10357D01*
X78856Y9481D01*
X79433Y8729D01*
X80185Y8152D01*
X81061Y7790D01*
X82000Y7666D01*
X82940Y7790D01*
X83816Y8152D01*
X84568Y8729D01*
X85145Y9481D01*
X85508Y10357D01*
X85632Y11297D01*
X85508Y12237D01*
X85145Y13113D01*
X84568Y13864D01*
X83816Y14442D01*
X82940Y14804D01*
X82000Y14928D01*
D02*
G37*
G36*
X62001D02*
X61061Y14804D01*
X60185Y14442D01*
X59433Y13864D01*
X58856Y13113D01*
X58493Y12237D01*
X58369Y11297D01*
X58493Y10357D01*
X58856Y9481D01*
X59433Y8729D01*
X60185Y8152D01*
X61061Y7790D01*
X62001Y7666D01*
X62940Y7790D01*
X63816Y8152D01*
X64568Y8729D01*
X65145Y9481D01*
X65508Y10357D01*
X65632Y11297D01*
X65508Y12237D01*
X65145Y13113D01*
X64568Y13864D01*
X63816Y14442D01*
X62940Y14804D01*
X62001Y14928D01*
D02*
G37*
G36*
X72000D02*
X71061Y14804D01*
X70185Y14442D01*
X69433Y13864D01*
X68856Y13113D01*
X68493Y12237D01*
X68369Y11297D01*
X68493Y10357D01*
X68856Y9481D01*
X69433Y8729D01*
X70185Y8152D01*
X71061Y7790D01*
X72000Y7666D01*
X72940Y7790D01*
X73816Y8152D01*
X74568Y8729D01*
X75145Y9481D01*
X75508Y10357D01*
X75631Y11297D01*
X75508Y12237D01*
X75145Y13113D01*
X74568Y13864D01*
X73816Y14442D01*
X72940Y14804D01*
X72000Y14928D01*
D02*
G37*
G36*
X102000Y24928D02*
X101061Y24804D01*
X100185Y24442D01*
X99433Y23865D01*
X98856Y23112D01*
X98493Y22237D01*
X98369Y21297D01*
X98493Y20357D01*
X98856Y19481D01*
X99433Y18729D01*
X100185Y18152D01*
X101061Y17790D01*
X102000Y17666D01*
X102940Y17790D01*
X103816Y18152D01*
X104568Y18729D01*
X105145Y19481D01*
X105508Y20357D01*
X105631Y21297D01*
X105508Y22237D01*
X105145Y23112D01*
X104568Y23865D01*
X103816Y24442D01*
X102940Y24804D01*
X102000Y24928D01*
D02*
G37*
G36*
X112001D02*
X111061Y24804D01*
X110185Y24442D01*
X109433Y23865D01*
X108856Y23112D01*
X108493Y22237D01*
X108369Y21297D01*
X108493Y20357D01*
X108856Y19481D01*
X109433Y18729D01*
X110185Y18152D01*
X111061Y17790D01*
X112001Y17666D01*
X112940Y17790D01*
X113816Y18152D01*
X114568Y18729D01*
X115145Y19481D01*
X115508Y20357D01*
X115631Y21297D01*
X115508Y22237D01*
X115145Y23112D01*
X114568Y23865D01*
X113816Y24442D01*
X112940Y24804D01*
X112001Y24928D01*
D02*
G37*
G36*
X92001D02*
X91061Y24804D01*
X90185Y24442D01*
X89433Y23865D01*
X88856Y23112D01*
X88493Y22237D01*
X88369Y21297D01*
X88493Y20357D01*
X88856Y19481D01*
X89433Y18729D01*
X90185Y18152D01*
X91061Y17790D01*
X92001Y17666D01*
X92940Y17790D01*
X93816Y18152D01*
X94568Y18729D01*
X95145Y19481D01*
X95508Y20357D01*
X95631Y21297D01*
X95508Y22237D01*
X95145Y23112D01*
X94568Y23865D01*
X93816Y24442D01*
X92940Y24804D01*
X92001Y24928D01*
D02*
G37*
G36*
X72000D02*
X71061Y24804D01*
X70185Y24442D01*
X69433Y23865D01*
X68856Y23112D01*
X68493Y22237D01*
X68369Y21297D01*
X68493Y20357D01*
X68856Y19481D01*
X69433Y18729D01*
X70185Y18152D01*
X71061Y17790D01*
X72000Y17666D01*
X72940Y17790D01*
X73816Y18152D01*
X74568Y18729D01*
X75145Y19481D01*
X75508Y20357D01*
X75631Y21297D01*
X75508Y22237D01*
X75145Y23112D01*
X74568Y23865D01*
X73816Y24442D01*
X72940Y24804D01*
X72000Y24928D01*
D02*
G37*
G36*
X82000D02*
X81061Y24804D01*
X80185Y24442D01*
X79433Y23865D01*
X78856Y23112D01*
X78493Y22237D01*
X78369Y21297D01*
X78493Y20357D01*
X78856Y19481D01*
X79433Y18729D01*
X80185Y18152D01*
X81061Y17790D01*
X82000Y17666D01*
X82940Y17790D01*
X83816Y18152D01*
X84568Y18729D01*
X85145Y19481D01*
X85508Y20357D01*
X85632Y21297D01*
X85508Y22237D01*
X85145Y23112D01*
X84568Y23865D01*
X83816Y24442D01*
X82940Y24804D01*
X82000Y24928D01*
D02*
G37*
G36*
X122001D02*
X121061Y24804D01*
X120185Y24442D01*
X119433Y23865D01*
X118856Y23112D01*
X118493Y22237D01*
X118369Y21297D01*
X118493Y20357D01*
X118856Y19481D01*
X119433Y18729D01*
X120185Y18152D01*
X121061Y17790D01*
X122001Y17666D01*
X122940Y17790D01*
X123816Y18152D01*
X124568Y18729D01*
X125145Y19481D01*
X125508Y20357D01*
X125631Y21297D01*
X125508Y22237D01*
X125145Y23112D01*
X124568Y23865D01*
X123816Y24442D01*
X122940Y24804D01*
X122001Y24928D01*
D02*
G37*
G36*
X162001D02*
X161061Y24804D01*
X160185Y24442D01*
X159433Y23865D01*
X158856Y23112D01*
X158493Y22237D01*
X158369Y21297D01*
X158493Y20357D01*
X158856Y19481D01*
X159433Y18729D01*
X160185Y18152D01*
X161061Y17790D01*
X162001Y17666D01*
X162940Y17790D01*
X163816Y18152D01*
X164568Y18729D01*
X165145Y19481D01*
X165508Y20357D01*
X165631Y21297D01*
X165508Y22237D01*
X165145Y23112D01*
X164568Y23865D01*
X163816Y24442D01*
X162940Y24804D01*
X162001Y24928D01*
D02*
G37*
G36*
X172001D02*
X171061Y24804D01*
X170185Y24442D01*
X169433Y23865D01*
X168856Y23112D01*
X168493Y22237D01*
X168369Y21297D01*
X168493Y20357D01*
X168856Y19481D01*
X169433Y18729D01*
X170185Y18152D01*
X171061Y17790D01*
X172001Y17666D01*
X172940Y17790D01*
X173816Y18152D01*
X174568Y18729D01*
X175145Y19481D01*
X175508Y20357D01*
X175631Y21297D01*
X175508Y22237D01*
X175145Y23112D01*
X174568Y23865D01*
X173816Y24442D01*
X172940Y24804D01*
X172001Y24928D01*
D02*
G37*
G36*
X152000D02*
X151061Y24804D01*
X150185Y24442D01*
X149433Y23865D01*
X148856Y23112D01*
X148493Y22237D01*
X148369Y21297D01*
X148493Y20357D01*
X148856Y19481D01*
X149433Y18729D01*
X150185Y18152D01*
X151061Y17790D01*
X152000Y17666D01*
X152940Y17790D01*
X153816Y18152D01*
X154568Y18729D01*
X155145Y19481D01*
X155508Y20357D01*
X155631Y21297D01*
X155508Y22237D01*
X155145Y23112D01*
X154568Y23865D01*
X153816Y24442D01*
X152940Y24804D01*
X152000Y24928D01*
D02*
G37*
G36*
X132001D02*
X131061Y24804D01*
X130185Y24442D01*
X129433Y23865D01*
X128856Y23112D01*
X128493Y22237D01*
X128369Y21297D01*
X128493Y20357D01*
X128856Y19481D01*
X129433Y18729D01*
X130185Y18152D01*
X131061Y17790D01*
X132001Y17666D01*
X132940Y17790D01*
X133816Y18152D01*
X134568Y18729D01*
X135145Y19481D01*
X135508Y20357D01*
X135632Y21297D01*
X135508Y22237D01*
X135145Y23112D01*
X134568Y23865D01*
X133816Y24442D01*
X132940Y24804D01*
X132001Y24928D01*
D02*
G37*
G36*
X142000D02*
X141061Y24804D01*
X140185Y24442D01*
X139433Y23865D01*
X138856Y23112D01*
X138493Y22237D01*
X138369Y21297D01*
X138493Y20357D01*
X138856Y19481D01*
X139433Y18729D01*
X140185Y18152D01*
X141061Y17790D01*
X142000Y17666D01*
X142940Y17790D01*
X143816Y18152D01*
X144568Y18729D01*
X145145Y19481D01*
X145508Y20357D01*
X145632Y21297D01*
X145508Y22237D01*
X145145Y23112D01*
X144568Y23865D01*
X143816Y24442D01*
X142940Y24804D01*
X142000Y24928D01*
D02*
G37*
G36*
X12501Y15266D02*
Y11797D01*
X15969D01*
X15898Y12341D01*
X15495Y13314D01*
X14853Y14150D01*
X14018Y14791D01*
X13045Y15194D01*
X12501Y15266D01*
D02*
G37*
G36*
X11501Y20797D02*
X8000D01*
Y17297D01*
X11501D01*
Y20797D01*
D02*
G37*
G36*
Y15266D02*
X10956Y15194D01*
X9983Y14791D01*
X9148Y14150D01*
X8506Y13314D01*
X8103Y12341D01*
X8032Y11797D01*
X11501D01*
Y15266D01*
D02*
G37*
G36*
X222001Y14928D02*
X221061Y14804D01*
X220185Y14442D01*
X219433Y13864D01*
X218856Y13113D01*
X218493Y12237D01*
X218369Y11297D01*
X218493Y10357D01*
X218856Y9481D01*
X219433Y8729D01*
X220185Y8152D01*
X221061Y7790D01*
X222001Y7666D01*
X222940Y7790D01*
X223816Y8152D01*
X224568Y8729D01*
X225145Y9481D01*
X225508Y10357D01*
X225631Y11297D01*
X225508Y12237D01*
X225145Y13113D01*
X224568Y13864D01*
X223816Y14442D01*
X222940Y14804D01*
X222001Y14928D01*
D02*
G37*
G36*
X232000D02*
X231061Y14804D01*
X230185Y14442D01*
X229433Y13864D01*
X228856Y13113D01*
X228493Y12237D01*
X228369Y11297D01*
X228493Y10357D01*
X228856Y9481D01*
X229433Y8729D01*
X230185Y8152D01*
X231061Y7790D01*
X232000Y7666D01*
X232940Y7790D01*
X233816Y8152D01*
X234568Y8729D01*
X235145Y9481D01*
X235508Y10357D01*
X235631Y11297D01*
X235508Y12237D01*
X235145Y13113D01*
X234568Y13864D01*
X233816Y14442D01*
X232940Y14804D01*
X232000Y14928D01*
D02*
G37*
G36*
X16001Y20797D02*
X12501D01*
Y17297D01*
X16001D01*
Y20797D01*
D02*
G37*
G36*
X52000Y24928D02*
X51061Y24804D01*
X50185Y24442D01*
X49433Y23865D01*
X48856Y23112D01*
X48493Y22237D01*
X48369Y21297D01*
X48493Y20357D01*
X48856Y19481D01*
X49433Y18729D01*
X50185Y18152D01*
X51061Y17790D01*
X52000Y17666D01*
X52940Y17790D01*
X53816Y18152D01*
X54568Y18729D01*
X55145Y19481D01*
X55508Y20357D01*
X55632Y21297D01*
X55508Y22237D01*
X55145Y23112D01*
X54568Y23865D01*
X53816Y24442D01*
X52940Y24804D01*
X52000Y24928D01*
D02*
G37*
G36*
X62001D02*
X61061Y24804D01*
X60185Y24442D01*
X59433Y23865D01*
X58856Y23112D01*
X58493Y22237D01*
X58369Y21297D01*
X58493Y20357D01*
X58856Y19481D01*
X59433Y18729D01*
X60185Y18152D01*
X61061Y17790D01*
X62001Y17666D01*
X62940Y17790D01*
X63816Y18152D01*
X64568Y18729D01*
X65145Y19481D01*
X65508Y20357D01*
X65632Y21297D01*
X65508Y22237D01*
X65145Y23112D01*
X64568Y23865D01*
X63816Y24442D01*
X62940Y24804D01*
X62001Y24928D01*
D02*
G37*
G36*
X42000D02*
X41061Y24804D01*
X40185Y24442D01*
X39433Y23865D01*
X38856Y23112D01*
X38493Y22237D01*
X38369Y21297D01*
X38493Y20357D01*
X38856Y19481D01*
X39433Y18729D01*
X40185Y18152D01*
X41061Y17790D01*
X42000Y17666D01*
X42940Y17790D01*
X43816Y18152D01*
X44568Y18729D01*
X45145Y19481D01*
X45508Y20357D01*
X45632Y21297D01*
X45508Y22237D01*
X45145Y23112D01*
X44568Y23865D01*
X43816Y24442D01*
X42940Y24804D01*
X42000Y24928D01*
D02*
G37*
G36*
X22001D02*
X21061Y24804D01*
X20185Y24442D01*
X19433Y23865D01*
X18856Y23112D01*
X18493Y22237D01*
X18369Y21297D01*
X18493Y20357D01*
X18856Y19481D01*
X19433Y18729D01*
X20185Y18152D01*
X21061Y17790D01*
X22001Y17666D01*
X22940Y17790D01*
X23816Y18152D01*
X24568Y18729D01*
X25145Y19481D01*
X25508Y20357D01*
X25631Y21297D01*
X25508Y22237D01*
X25145Y23112D01*
X24568Y23865D01*
X23816Y24442D01*
X22940Y24804D01*
X22001Y24928D01*
D02*
G37*
G36*
X32000D02*
X31061Y24804D01*
X30185Y24442D01*
X29433Y23865D01*
X28856Y23112D01*
X28493Y22237D01*
X28369Y21297D01*
X28493Y20357D01*
X28856Y19481D01*
X29433Y18729D01*
X30185Y18152D01*
X31061Y17790D01*
X32000Y17666D01*
X32940Y17790D01*
X33816Y18152D01*
X34568Y18729D01*
X35145Y19481D01*
X35508Y20357D01*
X35631Y21297D01*
X35508Y22237D01*
X35145Y23112D01*
X34568Y23865D01*
X33816Y24442D01*
X32940Y24804D01*
X32000Y24928D01*
D02*
G37*
G36*
X206750Y77138D02*
X205106D01*
Y75494D01*
X205465Y75565D01*
X206192Y76052D01*
X206679Y76779D01*
X206750Y77138D01*
D02*
G37*
G36*
X112000Y204880D02*
X111073Y204758D01*
X110209Y204400D01*
X109467Y203831D01*
X108897Y203089D01*
X108539Y202224D01*
X108417Y201297D01*
X108539Y200370D01*
X108897Y199505D01*
X109467Y198763D01*
X110209Y198194D01*
X111073Y197836D01*
X112000Y197714D01*
X112928Y197836D01*
X113792Y198194D01*
X114534Y198763D01*
X115104Y199505D01*
X115462Y200370D01*
X115584Y201297D01*
X115462Y202224D01*
X115104Y203089D01*
X114534Y203831D01*
X113792Y204400D01*
X112928Y204758D01*
X112000Y204880D01*
D02*
G37*
G36*
X122000D02*
X121073Y204758D01*
X120209Y204400D01*
X119467Y203831D01*
X118897Y203089D01*
X118539Y202224D01*
X118417Y201297D01*
X118539Y200370D01*
X118897Y199505D01*
X119467Y198763D01*
X120209Y198194D01*
X121073Y197836D01*
X122000Y197714D01*
X122928Y197836D01*
X123792Y198194D01*
X124534Y198763D01*
X125104Y199505D01*
X125462Y200370D01*
X125584Y201297D01*
X125462Y202224D01*
X125104Y203089D01*
X124534Y203831D01*
X123792Y204400D01*
X122928Y204758D01*
X122000Y204880D01*
D02*
G37*
G36*
X102000D02*
X101073Y204758D01*
X100209Y204400D01*
X99467Y203831D01*
X98897Y203089D01*
X98539Y202224D01*
X98417Y201297D01*
X98539Y200370D01*
X98897Y199505D01*
X99467Y198763D01*
X100209Y198194D01*
X101073Y197836D01*
X102000Y197714D01*
X102928Y197836D01*
X103792Y198194D01*
X104534Y198763D01*
X105104Y199505D01*
X105462Y200370D01*
X105584Y201297D01*
X105462Y202224D01*
X105104Y203089D01*
X104534Y203831D01*
X103792Y204400D01*
X102928Y204758D01*
X102000Y204880D01*
D02*
G37*
G36*
X82000D02*
X81073Y204758D01*
X80209Y204400D01*
X79467Y203831D01*
X78897Y203089D01*
X78539Y202224D01*
X78417Y201297D01*
X78539Y200370D01*
X78897Y199505D01*
X79467Y198763D01*
X80209Y198194D01*
X81073Y197836D01*
X82000Y197714D01*
X82928Y197836D01*
X83792Y198194D01*
X84534Y198763D01*
X85104Y199505D01*
X85462Y200370D01*
X85584Y201297D01*
X85462Y202224D01*
X85104Y203089D01*
X84534Y203831D01*
X83792Y204400D01*
X82928Y204758D01*
X82000Y204880D01*
D02*
G37*
G36*
X92000D02*
X91073Y204758D01*
X90209Y204400D01*
X89467Y203831D01*
X88897Y203089D01*
X88539Y202224D01*
X88417Y201297D01*
X88539Y200370D01*
X88897Y199505D01*
X89467Y198763D01*
X90209Y198194D01*
X91073Y197836D01*
X92000Y197714D01*
X92928Y197836D01*
X93792Y198194D01*
X94534Y198763D01*
X95104Y199505D01*
X95462Y200370D01*
X95584Y201297D01*
X95462Y202224D01*
X95104Y203089D01*
X94534Y203831D01*
X93792Y204400D01*
X92928Y204758D01*
X92000Y204880D01*
D02*
G37*
G36*
X132000D02*
X131073Y204758D01*
X130209Y204400D01*
X129467Y203831D01*
X128897Y203089D01*
X128539Y202224D01*
X128417Y201297D01*
X128539Y200370D01*
X128897Y199505D01*
X129467Y198763D01*
X130209Y198194D01*
X131073Y197836D01*
X132000Y197714D01*
X132928Y197836D01*
X133792Y198194D01*
X134534Y198763D01*
X135104Y199505D01*
X135462Y200370D01*
X135584Y201297D01*
X135462Y202224D01*
X135104Y203089D01*
X134534Y203831D01*
X133792Y204400D01*
X132928Y204758D01*
X132000Y204880D01*
D02*
G37*
G36*
X178128Y200524D02*
X176484D01*
Y198880D01*
X176843Y198951D01*
X177570Y199437D01*
X178057Y200165D01*
X178128Y200524D01*
D02*
G37*
G36*
X175484Y203167D02*
X175126Y203096D01*
X174398Y202610D01*
X173912Y201882D01*
X173841Y201524D01*
X175484D01*
Y203167D01*
D02*
G37*
G36*
Y200524D02*
X173841D01*
X173912Y200165D01*
X174398Y199437D01*
X175126Y198951D01*
X175484Y198880D01*
Y200524D01*
D02*
G37*
G36*
X152000Y204880D02*
X151073Y204758D01*
X150209Y204400D01*
X149467Y203831D01*
X148897Y203089D01*
X148539Y202224D01*
X148417Y201297D01*
X148539Y200370D01*
X148897Y199505D01*
X149467Y198763D01*
X150209Y198194D01*
X151073Y197836D01*
X152000Y197714D01*
X152928Y197836D01*
X153792Y198194D01*
X154534Y198763D01*
X155104Y199505D01*
X155462Y200370D01*
X155584Y201297D01*
X155462Y202224D01*
X155104Y203089D01*
X154534Y203831D01*
X153792Y204400D01*
X152928Y204758D01*
X152000Y204880D01*
D02*
G37*
G36*
X162000D02*
X161073Y204758D01*
X160209Y204400D01*
X159467Y203831D01*
X158897Y203089D01*
X158539Y202224D01*
X158417Y201297D01*
X158539Y200370D01*
X158897Y199505D01*
X159467Y198763D01*
X160209Y198194D01*
X161073Y197836D01*
X162000Y197714D01*
X162928Y197836D01*
X163792Y198194D01*
X164534Y198763D01*
X165104Y199505D01*
X165462Y200370D01*
X165584Y201297D01*
X165462Y202224D01*
X165104Y203089D01*
X164534Y203831D01*
X163792Y204400D01*
X162928Y204758D01*
X162000Y204880D01*
D02*
G37*
G36*
X11500Y200797D02*
X8079D01*
X8149Y200265D01*
X8548Y199303D01*
X9181Y198478D01*
X10007Y197844D01*
X10968Y197446D01*
X11500Y197376D01*
Y200797D01*
D02*
G37*
G36*
X15921D02*
X12500D01*
Y197376D01*
X13032Y197446D01*
X13994Y197844D01*
X14820Y198478D01*
X15453Y199303D01*
X15851Y200265D01*
X15921Y200797D01*
D02*
G37*
G36*
X195028Y186159D02*
Y184516D01*
X196671D01*
X196600Y184874D01*
X196114Y185602D01*
X195386Y186088D01*
X195028Y186159D01*
D02*
G37*
G36*
X196671Y183516D02*
X195028D01*
Y181872D01*
X195386Y181943D01*
X196114Y182430D01*
X196600Y183157D01*
X196671Y183516D01*
D02*
G37*
G36*
X194028Y186159D02*
X193669Y186088D01*
X192941Y185602D01*
X192455Y184874D01*
X192384Y184516D01*
X194028D01*
Y186159D01*
D02*
G37*
G36*
X22000Y204880D02*
X21073Y204758D01*
X20209Y204400D01*
X19467Y203831D01*
X18897Y203089D01*
X18539Y202224D01*
X18417Y201297D01*
X18539Y200370D01*
X18897Y199505D01*
X19467Y198763D01*
X20209Y198194D01*
X21073Y197836D01*
X22000Y197714D01*
X22928Y197836D01*
X23792Y198194D01*
X24534Y198763D01*
X25104Y199505D01*
X25462Y200370D01*
X25584Y201297D01*
X25462Y202224D01*
X25104Y203089D01*
X24534Y203831D01*
X23792Y204400D01*
X22928Y204758D01*
X22000Y204880D01*
D02*
G37*
G36*
X62000D02*
X61073Y204758D01*
X60209Y204400D01*
X59467Y203831D01*
X58897Y203089D01*
X58539Y202224D01*
X58417Y201297D01*
X58539Y200370D01*
X58897Y199505D01*
X59467Y198763D01*
X60209Y198194D01*
X61073Y197836D01*
X62000Y197714D01*
X62928Y197836D01*
X63792Y198194D01*
X64534Y198763D01*
X65104Y199505D01*
X65462Y200370D01*
X65584Y201297D01*
X65462Y202224D01*
X65104Y203089D01*
X64534Y203831D01*
X63792Y204400D01*
X62928Y204758D01*
X62000Y204880D01*
D02*
G37*
G36*
X72000D02*
X71073Y204758D01*
X70209Y204400D01*
X69467Y203831D01*
X68897Y203089D01*
X68539Y202224D01*
X68417Y201297D01*
X68539Y200370D01*
X68897Y199505D01*
X69467Y198763D01*
X70209Y198194D01*
X71073Y197836D01*
X72000Y197714D01*
X72928Y197836D01*
X73792Y198194D01*
X74534Y198763D01*
X75104Y199505D01*
X75462Y200370D01*
X75584Y201297D01*
X75462Y202224D01*
X75104Y203089D01*
X74534Y203831D01*
X73792Y204400D01*
X72928Y204758D01*
X72000Y204880D01*
D02*
G37*
G36*
X52000D02*
X51073Y204758D01*
X50209Y204400D01*
X49467Y203831D01*
X48897Y203089D01*
X48539Y202224D01*
X48417Y201297D01*
X48539Y200370D01*
X48897Y199505D01*
X49467Y198763D01*
X50209Y198194D01*
X51073Y197836D01*
X52000Y197714D01*
X52928Y197836D01*
X53792Y198194D01*
X54534Y198763D01*
X55104Y199505D01*
X55462Y200370D01*
X55584Y201297D01*
X55462Y202224D01*
X55104Y203089D01*
X54534Y203831D01*
X53792Y204400D01*
X52928Y204758D01*
X52000Y204880D01*
D02*
G37*
G36*
X32000D02*
X31073Y204758D01*
X30209Y204400D01*
X29467Y203831D01*
X28897Y203089D01*
X28539Y202224D01*
X28417Y201297D01*
X28539Y200370D01*
X28897Y199505D01*
X29467Y198763D01*
X30209Y198194D01*
X31073Y197836D01*
X32000Y197714D01*
X32928Y197836D01*
X33792Y198194D01*
X34534Y198763D01*
X35104Y199505D01*
X35462Y200370D01*
X35584Y201297D01*
X35462Y202224D01*
X35104Y203089D01*
X34534Y203831D01*
X33792Y204400D01*
X32928Y204758D01*
X32000Y204880D01*
D02*
G37*
G36*
X42000D02*
X41073Y204758D01*
X40209Y204400D01*
X39467Y203831D01*
X38897Y203089D01*
X38539Y202224D01*
X38417Y201297D01*
X38539Y200370D01*
X38897Y199505D01*
X39467Y198763D01*
X40209Y198194D01*
X41073Y197836D01*
X42000Y197714D01*
X42928Y197836D01*
X43792Y198194D01*
X44534Y198763D01*
X45104Y199505D01*
X45462Y200370D01*
X45584Y201297D01*
X45462Y202224D01*
X45104Y203089D01*
X44534Y203831D01*
X43792Y204400D01*
X42928Y204758D01*
X42000Y204880D01*
D02*
G37*
G36*
X112000Y214880D02*
X111073Y214758D01*
X110209Y214400D01*
X109467Y213831D01*
X108897Y213089D01*
X108539Y212224D01*
X108417Y211297D01*
X108539Y210369D01*
X108897Y209505D01*
X109467Y208763D01*
X110209Y208194D01*
X111073Y207836D01*
X112000Y207714D01*
X112928Y207836D01*
X113792Y208194D01*
X114534Y208763D01*
X115104Y209505D01*
X115462Y210369D01*
X115584Y211297D01*
X115462Y212224D01*
X115104Y213089D01*
X114534Y213831D01*
X113792Y214400D01*
X112928Y214758D01*
X112000Y214880D01*
D02*
G37*
G36*
X122000D02*
X121073Y214758D01*
X120209Y214400D01*
X119467Y213831D01*
X118897Y213089D01*
X118539Y212224D01*
X118417Y211297D01*
X118539Y210369D01*
X118897Y209505D01*
X119467Y208763D01*
X120209Y208194D01*
X121073Y207836D01*
X122000Y207714D01*
X122928Y207836D01*
X123792Y208194D01*
X124534Y208763D01*
X125104Y209505D01*
X125462Y210369D01*
X125584Y211297D01*
X125462Y212224D01*
X125104Y213089D01*
X124534Y213831D01*
X123792Y214400D01*
X122928Y214758D01*
X122000Y214880D01*
D02*
G37*
G36*
X102000D02*
X101073Y214758D01*
X100209Y214400D01*
X99467Y213831D01*
X98897Y213089D01*
X98539Y212224D01*
X98417Y211297D01*
X98539Y210369D01*
X98897Y209505D01*
X99467Y208763D01*
X100209Y208194D01*
X101073Y207836D01*
X102000Y207714D01*
X102928Y207836D01*
X103792Y208194D01*
X104534Y208763D01*
X105104Y209505D01*
X105462Y210369D01*
X105584Y211297D01*
X105462Y212224D01*
X105104Y213089D01*
X104534Y213831D01*
X103792Y214400D01*
X102928Y214758D01*
X102000Y214880D01*
D02*
G37*
G36*
X82000D02*
X81073Y214758D01*
X80209Y214400D01*
X79467Y213831D01*
X78897Y213089D01*
X78539Y212224D01*
X78417Y211297D01*
X78539Y210369D01*
X78897Y209505D01*
X79467Y208763D01*
X80209Y208194D01*
X81073Y207836D01*
X82000Y207714D01*
X82928Y207836D01*
X83792Y208194D01*
X84534Y208763D01*
X85104Y209505D01*
X85462Y210369D01*
X85584Y211297D01*
X85462Y212224D01*
X85104Y213089D01*
X84534Y213831D01*
X83792Y214400D01*
X82928Y214758D01*
X82000Y214880D01*
D02*
G37*
G36*
X92000D02*
X91073Y214758D01*
X90209Y214400D01*
X89467Y213831D01*
X88897Y213089D01*
X88539Y212224D01*
X88417Y211297D01*
X88539Y210369D01*
X88897Y209505D01*
X89467Y208763D01*
X90209Y208194D01*
X91073Y207836D01*
X92000Y207714D01*
X92928Y207836D01*
X93792Y208194D01*
X94534Y208763D01*
X95104Y209505D01*
X95462Y210369D01*
X95584Y211297D01*
X95462Y212224D01*
X95104Y213089D01*
X94534Y213831D01*
X93792Y214400D01*
X92928Y214758D01*
X92000Y214880D01*
D02*
G37*
G36*
X132000D02*
X131073Y214758D01*
X130209Y214400D01*
X129467Y213831D01*
X128897Y213089D01*
X128539Y212224D01*
X128417Y211297D01*
X128539Y210369D01*
X128897Y209505D01*
X129467Y208763D01*
X130209Y208194D01*
X131073Y207836D01*
X132000Y207714D01*
X132928Y207836D01*
X133792Y208194D01*
X134534Y208763D01*
X135104Y209505D01*
X135462Y210369D01*
X135584Y211297D01*
X135462Y212224D01*
X135104Y213089D01*
X134534Y213831D01*
X133792Y214400D01*
X132928Y214758D01*
X132000Y214880D01*
D02*
G37*
G36*
X11500Y215250D02*
X8048D01*
Y211797D01*
X11500D01*
Y215250D01*
D02*
G37*
G36*
X15953D02*
X12500D01*
Y211797D01*
X15953D01*
Y215250D01*
D02*
G37*
G36*
X162000Y214880D02*
X161073Y214758D01*
X160209Y214400D01*
X159467Y213831D01*
X158897Y213089D01*
X158539Y212224D01*
X158417Y211297D01*
X158539Y210369D01*
X158897Y209505D01*
X159467Y208763D01*
X160209Y208194D01*
X161073Y207836D01*
X162000Y207714D01*
X162928Y207836D01*
X163792Y208194D01*
X164534Y208763D01*
X165104Y209505D01*
X165462Y210369D01*
X165584Y211297D01*
X165462Y212224D01*
X165104Y213089D01*
X164534Y213831D01*
X163792Y214400D01*
X162928Y214758D01*
X162000Y214880D01*
D02*
G37*
G36*
X142000D02*
X141073Y214758D01*
X140209Y214400D01*
X139467Y213831D01*
X138897Y213089D01*
X138539Y212224D01*
X138417Y211297D01*
X138539Y210369D01*
X138897Y209505D01*
X138903Y209497D01*
X136477Y207071D01*
X136278Y206774D01*
X136208Y206422D01*
Y193057D01*
X106960Y163809D01*
X106761Y163511D01*
X106691Y163160D01*
Y99268D01*
X106673Y99264D01*
X105879Y98734D01*
X105348Y97940D01*
X105162Y97004D01*
X105348Y96067D01*
X105879Y95273D01*
X106673Y94743D01*
X107609Y94556D01*
X108545Y94743D01*
X109339Y95273D01*
X109870Y96067D01*
X110056Y97004D01*
X109870Y97940D01*
X109339Y98734D01*
X108545Y99264D01*
X108527Y99268D01*
Y162780D01*
X111075Y165328D01*
X111516Y165092D01*
X111372Y164370D01*
X111558Y163434D01*
X112089Y162640D01*
X112882Y162109D01*
X113819Y161923D01*
X114755Y162109D01*
X115549Y162640D01*
X116080Y163434D01*
X116083Y163452D01*
X147402D01*
X147753Y163522D01*
X148050Y163721D01*
X160565Y176236D01*
X195559D01*
X195562Y176217D01*
X196093Y175424D01*
X196887Y174893D01*
X197823Y174707D01*
X198480Y174838D01*
X198716Y174397D01*
X172118Y147799D01*
X162410D01*
X162293Y147975D01*
X161697Y148372D01*
X160995Y148512D01*
X160293Y148372D01*
X159697Y147975D01*
X159299Y147379D01*
X159160Y146677D01*
X159299Y145975D01*
X159697Y145379D01*
X160293Y144981D01*
X160995Y144842D01*
X161697Y144981D01*
X162293Y145379D01*
X162410Y145555D01*
X172582D01*
X172582Y145555D01*
X173012Y145641D01*
X173376Y145884D01*
X186487Y158996D01*
X186928Y158760D01*
X186796Y158094D01*
X186982Y157158D01*
X187513Y156364D01*
X188306Y155833D01*
X189243Y155647D01*
X190179Y155833D01*
X190973Y156364D01*
X191504Y157158D01*
X191690Y158094D01*
X191547Y158812D01*
X201491Y168756D01*
X202077Y168364D01*
X203013Y168178D01*
X203949Y168364D01*
X204743Y168895D01*
X205274Y169689D01*
X205460Y170625D01*
X205274Y171562D01*
X204743Y172355D01*
X203949Y172886D01*
X203013Y173072D01*
X202077Y172886D01*
X201283Y172355D01*
X200752Y171562D01*
X200660Y171097D01*
X189961Y160398D01*
X189243Y160541D01*
X188577Y160409D01*
X188341Y160850D01*
X208811Y181319D01*
X230869D01*
X230908Y181262D01*
X231701Y180731D01*
X232638Y180545D01*
X233574Y180731D01*
X234368Y181262D01*
X234898Y182056D01*
X235085Y182992D01*
X234898Y183929D01*
X234368Y184722D01*
X233574Y185253D01*
X232638Y185439D01*
X231701Y185253D01*
X230908Y184722D01*
X230377Y183929D01*
X230304Y183563D01*
X208347D01*
X208347Y183563D01*
X207917Y183477D01*
X207553Y183234D01*
X207553Y183234D01*
X200580Y176261D01*
X200139Y176497D01*
X200270Y177154D01*
X200084Y178090D01*
X199553Y178884D01*
X198759Y179415D01*
X197823Y179601D01*
X196887Y179415D01*
X196093Y178884D01*
X195562Y178090D01*
X195559Y178071D01*
X160185D01*
X159892Y178013D01*
X159834Y178002D01*
X159537Y177803D01*
X147021Y165288D01*
X116083D01*
X116080Y165306D01*
X115549Y166100D01*
X114755Y166631D01*
X113819Y166817D01*
X113097Y166673D01*
X112861Y167114D01*
X137775Y192028D01*
X137974Y192326D01*
X138044Y192677D01*
Y200304D01*
X138539Y200370D01*
X138897Y199505D01*
X139467Y198763D01*
X140209Y198194D01*
X141073Y197836D01*
X142000Y197714D01*
X142928Y197836D01*
X143792Y198194D01*
X144534Y198763D01*
X145104Y199505D01*
X145462Y200370D01*
X145584Y201297D01*
X145462Y202224D01*
X145104Y203089D01*
X144534Y203831D01*
X143792Y204400D01*
X142928Y204758D01*
X142000Y204880D01*
X141073Y204758D01*
X140209Y204400D01*
X139467Y203831D01*
X138897Y203089D01*
X138539Y202224D01*
X138044Y202290D01*
Y206043D01*
X140201Y208200D01*
X140209Y208194D01*
X141073Y207836D01*
X142000Y207714D01*
X142928Y207836D01*
X143792Y208194D01*
X144534Y208763D01*
X145104Y209505D01*
X145462Y210369D01*
X145584Y211297D01*
X145462Y212224D01*
X145104Y213089D01*
X144534Y213831D01*
X143792Y214400D01*
X142928Y214758D01*
X142000Y214880D01*
D02*
G37*
G36*
X152000D02*
X151073Y214758D01*
X150209Y214400D01*
X149467Y213831D01*
X148897Y213089D01*
X148539Y212224D01*
X148417Y211297D01*
X148539Y210369D01*
X148897Y209505D01*
X149467Y208763D01*
X150209Y208194D01*
X151073Y207836D01*
X152000Y207714D01*
X152928Y207836D01*
X153792Y208194D01*
X154534Y208763D01*
X155104Y209505D01*
X155462Y210369D01*
X155584Y211297D01*
X155462Y212224D01*
X155104Y213089D01*
X154534Y213831D01*
X153792Y214400D01*
X152928Y214758D01*
X152000Y214880D01*
D02*
G37*
G36*
X11500Y210797D02*
X8048D01*
Y207344D01*
X11500D01*
Y210797D01*
D02*
G37*
G36*
X15953D02*
X12500D01*
Y207344D01*
X15953D01*
Y210797D01*
D02*
G37*
G36*
X12500Y205218D02*
Y201797D01*
X15921D01*
X15851Y202329D01*
X15453Y203290D01*
X14820Y204116D01*
X13994Y204750D01*
X13032Y205148D01*
X12500Y205218D01*
D02*
G37*
G36*
X176484Y203167D02*
Y201524D01*
X178128D01*
X178057Y201882D01*
X177570Y202610D01*
X176843Y203096D01*
X176484Y203167D01*
D02*
G37*
G36*
X11500Y205218D02*
X10968Y205148D01*
X10007Y204750D01*
X9181Y204116D01*
X8548Y203290D01*
X8149Y202329D01*
X8079Y201797D01*
X11500D01*
Y205218D01*
D02*
G37*
G36*
X22000Y214880D02*
X21073Y214758D01*
X20209Y214400D01*
X19467Y213831D01*
X18897Y213089D01*
X18539Y212224D01*
X18417Y211297D01*
X18539Y210369D01*
X18897Y209505D01*
X19467Y208763D01*
X20209Y208194D01*
X21073Y207836D01*
X22000Y207714D01*
X22928Y207836D01*
X23792Y208194D01*
X24534Y208763D01*
X25104Y209505D01*
X25462Y210369D01*
X25584Y211297D01*
X25462Y212224D01*
X25104Y213089D01*
X24534Y213831D01*
X23792Y214400D01*
X22928Y214758D01*
X22000Y214880D01*
D02*
G37*
G36*
X62000D02*
X61073Y214758D01*
X60209Y214400D01*
X59467Y213831D01*
X58897Y213089D01*
X58539Y212224D01*
X58417Y211297D01*
X58539Y210369D01*
X58897Y209505D01*
X59467Y208763D01*
X60209Y208194D01*
X61073Y207836D01*
X62000Y207714D01*
X62928Y207836D01*
X63792Y208194D01*
X64534Y208763D01*
X65104Y209505D01*
X65462Y210369D01*
X65584Y211297D01*
X65462Y212224D01*
X65104Y213089D01*
X64534Y213831D01*
X63792Y214400D01*
X62928Y214758D01*
X62000Y214880D01*
D02*
G37*
G36*
X72000D02*
X71073Y214758D01*
X70209Y214400D01*
X69467Y213831D01*
X68897Y213089D01*
X68539Y212224D01*
X68417Y211297D01*
X68539Y210369D01*
X68897Y209505D01*
X69467Y208763D01*
X70209Y208194D01*
X71073Y207836D01*
X72000Y207714D01*
X72928Y207836D01*
X73792Y208194D01*
X74534Y208763D01*
X75104Y209505D01*
X75462Y210369D01*
X75584Y211297D01*
X75462Y212224D01*
X75104Y213089D01*
X74534Y213831D01*
X73792Y214400D01*
X72928Y214758D01*
X72000Y214880D01*
D02*
G37*
G36*
X52000D02*
X51073Y214758D01*
X50209Y214400D01*
X49467Y213831D01*
X48897Y213089D01*
X48539Y212224D01*
X48417Y211297D01*
X48539Y210369D01*
X48897Y209505D01*
X49467Y208763D01*
X50209Y208194D01*
X51073Y207836D01*
X52000Y207714D01*
X52928Y207836D01*
X53792Y208194D01*
X54534Y208763D01*
X55104Y209505D01*
X55462Y210369D01*
X55584Y211297D01*
X55462Y212224D01*
X55104Y213089D01*
X54534Y213831D01*
X53792Y214400D01*
X52928Y214758D01*
X52000Y214880D01*
D02*
G37*
G36*
X32000D02*
X31073Y214758D01*
X30209Y214400D01*
X29467Y213831D01*
X28897Y213089D01*
X28539Y212224D01*
X28417Y211297D01*
X28539Y210369D01*
X28897Y209505D01*
X29467Y208763D01*
X30209Y208194D01*
X31073Y207836D01*
X32000Y207714D01*
X32928Y207836D01*
X33792Y208194D01*
X34534Y208763D01*
X35104Y209505D01*
X35462Y210369D01*
X35584Y211297D01*
X35462Y212224D01*
X35104Y213089D01*
X34534Y213831D01*
X33792Y214400D01*
X32928Y214758D01*
X32000Y214880D01*
D02*
G37*
G36*
X42000D02*
X41073Y214758D01*
X40209Y214400D01*
X39467Y213831D01*
X38897Y213089D01*
X38539Y212224D01*
X38417Y211297D01*
X38539Y210369D01*
X38897Y209505D01*
X39467Y208763D01*
X40209Y208194D01*
X41073Y207836D01*
X42000Y207714D01*
X42928Y207836D01*
X43792Y208194D01*
X44534Y208763D01*
X45104Y209505D01*
X45462Y210369D01*
X45584Y211297D01*
X45462Y212224D01*
X45104Y213089D01*
X44534Y213831D01*
X43792Y214400D01*
X42928Y214758D01*
X42000Y214880D01*
D02*
G37*
G36*
X194028Y183516D02*
X192384D01*
X192455Y183157D01*
X192941Y182430D01*
X193669Y181943D01*
X194028Y181872D01*
Y183516D01*
D02*
G37*
G36*
X221705Y96429D02*
X220061D01*
Y94785D01*
X220420Y94857D01*
X221147Y95343D01*
X221634Y96071D01*
X221705Y96429D01*
D02*
G37*
G36*
X192903Y79545D02*
Y77902D01*
X194547D01*
X194476Y78260D01*
X193989Y78988D01*
X193262Y79474D01*
X192903Y79545D01*
D02*
G37*
G36*
X160858Y95799D02*
X157307D01*
Y92543D01*
X160858D01*
Y95799D01*
D02*
G37*
G36*
X153916Y96094D02*
Y93634D01*
X156376D01*
X156339Y93917D01*
X156037Y94647D01*
X155556Y95273D01*
X154929Y95754D01*
X154199Y96056D01*
X153916Y96094D01*
D02*
G37*
G36*
X84912Y107651D02*
X83976Y107465D01*
X83182Y106935D01*
X82652Y106141D01*
X82465Y105204D01*
X82652Y104268D01*
X83182Y103474D01*
X83976Y102944D01*
X84912Y102757D01*
X85849Y102944D01*
X86643Y103474D01*
X87173Y104268D01*
X87359Y105204D01*
X87173Y106141D01*
X86643Y106935D01*
X85849Y107465D01*
X84912Y107651D01*
D02*
G37*
G36*
X115227Y133418D02*
X114525Y133278D01*
X113929Y132880D01*
X113532Y132285D01*
X113392Y131582D01*
X113532Y130880D01*
X113929Y130285D01*
X114525Y129887D01*
X115227Y129747D01*
X115929Y129887D01*
X116525Y130285D01*
X116779Y130665D01*
X138864D01*
X143529Y125999D01*
X143440Y125551D01*
X143580Y124849D01*
X143752Y124592D01*
X143693Y124452D01*
X143203Y124355D01*
X140051Y127507D01*
X139753Y127706D01*
X139402Y127776D01*
X121110D01*
X120856Y128156D01*
X120260Y128553D01*
X119558Y128693D01*
X118856Y128553D01*
X118260Y128156D01*
X117862Y127560D01*
X117723Y126858D01*
X117862Y126156D01*
X118260Y125560D01*
X118856Y125162D01*
X119558Y125023D01*
X120260Y125162D01*
X120856Y125560D01*
X121110Y125940D01*
X139022D01*
X142152Y122810D01*
X142062Y122362D01*
X142202Y121660D01*
X142600Y121064D01*
X143195Y120667D01*
X143898Y120527D01*
X144600Y120667D01*
X145195Y121064D01*
X145593Y121660D01*
X145733Y122362D01*
X145593Y123064D01*
X145422Y123321D01*
X145613Y123783D01*
X145978Y123856D01*
X146573Y124253D01*
X146971Y124849D01*
X147111Y125551D01*
X146971Y126253D01*
X146573Y126849D01*
X145978Y127247D01*
X145276Y127386D01*
X144827Y127297D01*
X139893Y132231D01*
X139595Y132430D01*
X139244Y132500D01*
X116779D01*
X116525Y132880D01*
X115929Y133278D01*
X115227Y133418D01*
D02*
G37*
G36*
X163831Y78831D02*
X162187D01*
X162258Y78472D01*
X162745Y77745D01*
X163472Y77258D01*
X163831Y77187D01*
Y78831D01*
D02*
G37*
G36*
X191903Y79545D02*
X191545Y79474D01*
X190817Y78988D01*
X190331Y78260D01*
X190260Y77902D01*
X191903D01*
Y79545D01*
D02*
G37*
G36*
X166474Y78831D02*
X164831D01*
Y77187D01*
X165189Y77258D01*
X165917Y77745D01*
X166403Y78472D01*
X166474Y78831D01*
D02*
G37*
G36*
X204189Y95799D02*
X200638D01*
Y92543D01*
X204189D01*
Y95799D01*
D02*
G37*
G36*
X209579Y80215D02*
X209220Y80143D01*
X208493Y79657D01*
X208006Y78929D01*
X207935Y78571D01*
X209579D01*
Y80215D01*
D02*
G37*
G36*
X210579D02*
Y78571D01*
X212222D01*
X212151Y78929D01*
X211665Y79657D01*
X210937Y80143D01*
X210579Y80215D01*
D02*
G37*
G36*
X204106Y79781D02*
X203748Y79710D01*
X203020Y79224D01*
X202534Y78496D01*
X202463Y78138D01*
X204106D01*
Y79781D01*
D02*
G37*
G36*
X205106D02*
Y78138D01*
X206750D01*
X206679Y78496D01*
X206192Y79224D01*
X205465Y79710D01*
X205106Y79781D01*
D02*
G37*
G36*
X163831Y81474D02*
X163472Y81403D01*
X162745Y80917D01*
X162258Y80189D01*
X162187Y79831D01*
X163831D01*
Y81474D01*
D02*
G37*
G36*
X207453Y93122D02*
X205809D01*
X205880Y92764D01*
X206367Y92036D01*
X207094Y91550D01*
X207453Y91478D01*
Y93122D01*
D02*
G37*
G36*
X210096D02*
X208453D01*
Y91478D01*
X208811Y91550D01*
X209539Y92036D01*
X210025Y92764D01*
X210096Y93122D01*
D02*
G37*
G36*
X164831Y81474D02*
Y79831D01*
X166474D01*
X166403Y80189D01*
X165917Y80917D01*
X165189Y81403D01*
X164831Y81474D01*
D02*
G37*
G36*
X227753Y89892D02*
X220647D01*
Y82787D01*
X227753D01*
Y89892D01*
D02*
G37*
G36*
X187277Y166256D02*
X185019D01*
Y163997D01*
X185249Y164028D01*
X185931Y164310D01*
X186515Y164759D01*
X186964Y165344D01*
X187247Y166025D01*
X187277Y166256D01*
D02*
G37*
G36*
X184019Y169514D02*
X183788Y169484D01*
X183107Y169202D01*
X182522Y168753D01*
X182073Y168168D01*
X181791Y167487D01*
X181760Y167256D01*
X184019D01*
Y169514D01*
D02*
G37*
G36*
X83744Y157448D02*
X83513Y157418D01*
X82832Y157136D01*
X82247Y156687D01*
X81798Y156102D01*
X81516Y155421D01*
X81486Y155190D01*
X83744D01*
Y157448D01*
D02*
G37*
G36*
X184019Y166256D02*
X181760D01*
X181791Y166025D01*
X182073Y165344D01*
X182522Y164759D01*
X183107Y164310D01*
X183788Y164028D01*
X184019Y163997D01*
Y166256D01*
D02*
G37*
G36*
X185019Y169514D02*
Y167256D01*
X187277D01*
X187247Y167487D01*
X186964Y168168D01*
X186515Y168753D01*
X185931Y169202D01*
X185249Y169484D01*
X185019Y169514D01*
D02*
G37*
G36*
X222020Y180675D02*
X221661Y180604D01*
X220934Y180118D01*
X220447Y179390D01*
X220376Y179032D01*
X222020D01*
Y180675D01*
D02*
G37*
G36*
X223020D02*
Y179032D01*
X224663D01*
X224592Y179390D01*
X224106Y180118D01*
X223378Y180604D01*
X223020Y180675D01*
D02*
G37*
G36*
X222020Y178032D02*
X220376D01*
X220447Y177673D01*
X220934Y176946D01*
X221661Y176459D01*
X222020Y176388D01*
Y178032D01*
D02*
G37*
G36*
X224663D02*
X223020D01*
Y176388D01*
X223378Y176459D01*
X224106Y176946D01*
X224592Y177673D01*
X224663Y178032D01*
D02*
G37*
G36*
X142499Y154947D02*
Y152689D01*
X144757D01*
X144727Y152920D01*
X144445Y153601D01*
X143996Y154186D01*
X143411Y154635D01*
X142730Y154917D01*
X142499Y154947D01*
D02*
G37*
G36*
X209579Y77571D02*
X207935D01*
X208006Y77213D01*
X208493Y76485D01*
X209220Y75999D01*
X209579Y75927D01*
Y77571D01*
D02*
G37*
G36*
X211741Y180086D02*
X210805Y179900D01*
X210011Y179369D01*
X209481Y178576D01*
X209295Y177639D01*
X209481Y176703D01*
X210011Y175909D01*
X210805Y175378D01*
X210824Y175375D01*
Y168222D01*
X178831Y136229D01*
X178800Y136235D01*
X178098Y136096D01*
X177502Y135698D01*
X177104Y135102D01*
X176965Y134400D01*
X177104Y133698D01*
X177226Y133515D01*
X176840Y133198D01*
X175114Y134924D01*
X174816Y135123D01*
X174465Y135193D01*
X156474D01*
X142678Y148989D01*
X142775Y149480D01*
X143411Y149743D01*
X143996Y150192D01*
X144445Y150777D01*
X144727Y151458D01*
X144757Y151689D01*
X141999D01*
Y152189D01*
X141499D01*
Y154947D01*
X141268Y154917D01*
X140587Y154635D01*
X140002Y154186D01*
X139600Y153662D01*
X139101Y153629D01*
X136658Y156071D01*
X136748Y156519D01*
X136608Y157222D01*
X136210Y157817D01*
X135615Y158215D01*
X134912Y158355D01*
X134210Y158215D01*
X133615Y157817D01*
X133217Y157222D01*
X133077Y156519D01*
X133217Y155817D01*
X133615Y155222D01*
X134210Y154824D01*
X134912Y154684D01*
X135361Y154773D01*
X138381Y151753D01*
Y151070D01*
X138451Y150719D01*
X138650Y150422D01*
X155445Y133626D01*
X155743Y133428D01*
X155801Y133416D01*
X156094Y133358D01*
X157588D01*
X157779Y132896D01*
X149902Y125019D01*
X149703Y124721D01*
X149634Y124370D01*
Y97427D01*
X147737Y95531D01*
X147538Y95233D01*
X147468Y94882D01*
Y93740D01*
X147522Y93468D01*
X147331Y93365D01*
X146902Y93622D01*
Y108685D01*
X147282Y108939D01*
X147680Y109534D01*
X147819Y110236D01*
X147680Y110939D01*
X147282Y111534D01*
X146687Y111932D01*
X145984Y112072D01*
X145282Y111932D01*
X144686Y111534D01*
X144289Y110939D01*
X144149Y110236D01*
X144289Y109534D01*
X144686Y108939D01*
X145067Y108685D01*
Y104560D01*
X138446D01*
Y97455D01*
X145067D01*
Y93032D01*
X145136Y92680D01*
X145335Y92383D01*
X154115Y83603D01*
X154413Y83404D01*
X154764Y83334D01*
X162621D01*
X162875Y82954D01*
X163471Y82556D01*
X164173Y82417D01*
X164875Y82556D01*
X165471Y82954D01*
X165869Y83550D01*
X166008Y84252D01*
X165869Y84954D01*
X165843Y84993D01*
X166024Y85332D01*
X166523Y85356D01*
X166734Y85041D01*
X167329Y84643D01*
X168032Y84503D01*
X168734Y84643D01*
X169329Y85041D01*
X169727Y85636D01*
X169867Y86339D01*
X169727Y87041D01*
X169329Y87636D01*
X168734Y88034D01*
X168032Y88174D01*
X167329Y88034D01*
X166734Y87636D01*
X166489Y87270D01*
X156154D01*
X153727Y89696D01*
X153888Y90170D01*
X154199Y90211D01*
X154929Y90513D01*
X155556Y90994D01*
X156037Y91621D01*
X156339Y92351D01*
X156376Y92634D01*
X153416D01*
Y93134D01*
X152916D01*
Y96094D01*
X152633Y96056D01*
X151903Y95754D01*
X151277Y95273D01*
X150796Y94647D01*
X150493Y93917D01*
X150452Y93606D01*
X149979Y93445D01*
X149303Y94120D01*
Y94502D01*
X151200Y96398D01*
X151399Y96696D01*
X151469Y97047D01*
Y100460D01*
X151947Y100605D01*
X152246Y100159D01*
X152841Y99761D01*
X153543Y99621D01*
X154246Y99761D01*
X154751Y100099D01*
X157307D01*
Y100055D01*
X157307D01*
Y96799D01*
X161358D01*
Y96299D01*
X161858D01*
Y92543D01*
X164214D01*
X164352Y92338D01*
X164478Y92102D01*
X164095Y91531D01*
X163956Y90828D01*
X164095Y90126D01*
X164493Y89530D01*
X165089Y89133D01*
X165791Y88993D01*
X166493Y89133D01*
X167089Y89530D01*
X167487Y90126D01*
X167626Y90828D01*
X167487Y91531D01*
X167089Y92126D01*
X166912Y92244D01*
Y93373D01*
X167193Y93429D01*
X167717Y93779D01*
X167900Y94052D01*
X168400D01*
X168582Y93779D01*
X169106Y93429D01*
X169724Y93306D01*
X170343Y93429D01*
X170867Y93779D01*
X170992Y93967D01*
X171471Y93822D01*
Y87691D01*
X171540Y87339D01*
X171720Y87071D01*
X171629Y86614D01*
X171769Y85912D01*
X172167Y85316D01*
X172762Y84919D01*
X173465Y84779D01*
X174167Y84919D01*
X174762Y85316D01*
X175160Y85912D01*
X175300Y86614D01*
X175160Y87317D01*
X174762Y87912D01*
X174724Y87937D01*
X174821Y88428D01*
X175190Y88501D01*
X175786Y88899D01*
X176184Y89495D01*
X176323Y90197D01*
X176184Y90899D01*
X175786Y91495D01*
X175406Y91748D01*
Y93006D01*
X175759Y93359D01*
X176024Y93306D01*
X176642Y93429D01*
X177166Y93779D01*
X177348Y94052D01*
X177848D01*
X178031Y93779D01*
X178256Y93629D01*
Y89803D01*
X178321Y89475D01*
X178241Y89395D01*
X177863Y89142D01*
X177667Y89181D01*
X176965Y89041D01*
X176370Y88643D01*
X175972Y88048D01*
X175832Y87346D01*
X175972Y86643D01*
X176370Y86048D01*
X176965Y85650D01*
X177667Y85510D01*
X178370Y85650D01*
X178965Y86048D01*
X179363Y86643D01*
X179706Y86786D01*
X179967Y86611D01*
X180669Y86472D01*
X181371Y86611D01*
X181967Y87009D01*
X182364Y87605D01*
X182504Y88307D01*
X182364Y89009D01*
X181967Y89605D01*
X181371Y90003D01*
X180669Y90142D01*
X180477Y90104D01*
X180091Y90421D01*
Y93629D01*
X180315Y93779D01*
X180498Y94052D01*
X180998D01*
X181181Y93779D01*
X181705Y93429D01*
X182323Y93306D01*
X182941Y93429D01*
X183465Y93779D01*
X183648Y94052D01*
X184148D01*
X184330Y93779D01*
X184555Y93629D01*
Y91337D01*
X184179Y91262D01*
X183584Y90864D01*
X183186Y90269D01*
X183046Y89567D01*
X183186Y88864D01*
X183584Y88269D01*
X184179Y87871D01*
X184881Y87731D01*
X185584Y87871D01*
X186179Y88269D01*
X186577Y88864D01*
X186717Y89567D01*
X186577Y90269D01*
X186390Y90549D01*
Y93629D01*
X186615Y93779D01*
X186797Y94052D01*
X187297D01*
X187480Y93779D01*
X187704Y93629D01*
Y90000D01*
X187774Y89649D01*
X187869Y89507D01*
X187771Y89016D01*
X187911Y88313D01*
X188309Y87718D01*
X188904Y87320D01*
X189606Y87181D01*
X190309Y87320D01*
X190904Y87718D01*
X191302Y88313D01*
X191442Y89016D01*
X191302Y89718D01*
X190904Y90314D01*
X190309Y90711D01*
X189606Y90851D01*
X189540Y90906D01*
Y93629D01*
X189764Y93779D01*
X189947Y94052D01*
X190447D01*
X190629Y93779D01*
X191154Y93429D01*
X191772Y93306D01*
X192036Y93359D01*
X193666Y91729D01*
X193623Y91298D01*
X193226Y90702D01*
X193086Y90000D01*
X193226Y89298D01*
X193296Y89193D01*
X186146Y82043D01*
X175659D01*
X175378Y82231D01*
X174676Y82371D01*
X173974Y82231D01*
X173378Y81833D01*
X172980Y81238D01*
X172841Y80535D01*
X172980Y79833D01*
X173378Y79238D01*
X173974Y78840D01*
X174676Y78700D01*
X175378Y78840D01*
X175974Y79238D01*
X176372Y79833D01*
X176446Y80208D01*
X186526D01*
X186878Y80278D01*
X187175Y80477D01*
X194820Y88121D01*
X195315Y88048D01*
X195456Y87783D01*
X186055Y78382D01*
X182488D01*
X182234Y78762D01*
X181638Y79160D01*
X180936Y79300D01*
X180234Y79160D01*
X179638Y78762D01*
X179240Y78167D01*
X179101Y77464D01*
X179240Y76762D01*
X179638Y76167D01*
X180234Y75769D01*
X180936Y75629D01*
X181638Y75769D01*
X182234Y76167D01*
X182488Y76547D01*
X186435D01*
X186786Y76617D01*
X187084Y76815D01*
X196594Y86325D01*
X196607Y86324D01*
X197202Y85926D01*
X197904Y85787D01*
X198607Y85926D01*
X199202Y86324D01*
X199600Y86919D01*
X199740Y87622D01*
X199600Y88324D01*
X199202Y88920D01*
X198822Y89174D01*
Y89987D01*
X198764Y90280D01*
X198752Y90338D01*
X198553Y90636D01*
X197108Y92081D01*
X197299Y92543D01*
X199638D01*
Y96299D01*
X200138D01*
Y96799D01*
X204189D01*
Y98926D01*
X204651Y99117D01*
X207536Y96232D01*
X207403Y95794D01*
X207374Y95750D01*
X207094Y95694D01*
X206367Y95208D01*
X205880Y94480D01*
X205809Y94122D01*
X210096D01*
X210025Y94480D01*
X209539Y95208D01*
X209358Y95329D01*
X209503Y95808D01*
X210187D01*
Y95345D01*
X213724D01*
Y94945D01*
X215406D01*
Y96929D01*
X216406D01*
Y94945D01*
X218087D01*
X218087Y94945D01*
Y94945D01*
X218356Y95089D01*
X218703Y94857D01*
X219061Y94785D01*
Y96929D01*
X219561D01*
Y97429D01*
X221705D01*
X221634Y97787D01*
X221147Y98515D01*
Y98886D01*
X221634Y99614D01*
X221705Y99972D01*
X219561D01*
Y100972D01*
X221705D01*
X221634Y101331D01*
X221147Y102058D01*
Y102430D01*
X221634Y103157D01*
X221705Y103516D01*
X219561D01*
Y104516D01*
X221705D01*
X221634Y104874D01*
X221147Y105602D01*
Y105973D01*
X221634Y106701D01*
X221705Y107059D01*
X219561D01*
Y108059D01*
X221705D01*
X221634Y108417D01*
X221147Y109145D01*
Y109516D01*
X221634Y110244D01*
X221705Y110602D01*
X219561D01*
Y111602D01*
X221705D01*
X221634Y111961D01*
X221147Y112689D01*
Y113060D01*
X221634Y113787D01*
X221705Y114146D01*
X219561D01*
Y115146D01*
X221705D01*
X221634Y115504D01*
X221147Y116232D01*
Y116603D01*
X221634Y117331D01*
X221705Y117689D01*
X219561D01*
Y118689D01*
X221705D01*
X221634Y119047D01*
X221147Y119775D01*
Y120146D01*
X221634Y120874D01*
X221705Y121232D01*
X219561D01*
Y122232D01*
X221705D01*
X221634Y122591D01*
X221147Y123318D01*
Y123689D01*
X221634Y124417D01*
X221705Y124776D01*
X219561D01*
Y125776D01*
X221705D01*
X221634Y126134D01*
X221147Y126862D01*
Y127233D01*
X221634Y127961D01*
X221705Y128319D01*
X219561D01*
Y129319D01*
X221705D01*
X221634Y129677D01*
X221147Y130405D01*
Y130776D01*
X221634Y131504D01*
X221705Y131862D01*
X219561D01*
Y132362D01*
X219061D01*
Y134506D01*
X218703Y134434D01*
X218356Y134203D01*
X218087Y134346D01*
Y134346D01*
X218087Y134346D01*
X216406D01*
Y132362D01*
X215406D01*
Y134346D01*
X213724D01*
Y133946D01*
X210187D01*
Y133658D01*
X210027Y133609D01*
X209626Y133907D01*
Y134872D01*
X209744Y135158D01*
Y136728D01*
X209846Y136807D01*
X210263Y137350D01*
X210525Y137983D01*
X210615Y138661D01*
X210525Y139340D01*
X210263Y139973D01*
X209846Y140516D01*
X209670Y140651D01*
X209554Y140932D01*
X209095Y141122D01*
X208846D01*
X208671Y141194D01*
X207992Y141284D01*
X207313Y141194D01*
X207138Y141122D01*
X202087D01*
X201627Y140932D01*
X201437Y140472D01*
Y135158D01*
X201487Y135037D01*
X201296Y134574D01*
X200722Y134337D01*
X200096Y133856D01*
X199615Y133229D01*
X199312Y132500D01*
X199275Y132216D01*
X202235D01*
Y131216D01*
X199275D01*
X199312Y130933D01*
X199615Y130203D01*
X200096Y129577D01*
X200497Y129269D01*
X200336Y128795D01*
X196795D01*
X196477Y129182D01*
X196590Y129748D01*
X196450Y130450D01*
X196053Y131046D01*
X195457Y131443D01*
X194755Y131583D01*
X194052Y131443D01*
X193457Y131046D01*
X193430Y131005D01*
X192930D01*
X192903Y131046D01*
X192307Y131443D01*
X191605Y131583D01*
X190903Y131443D01*
X190307Y131046D01*
X189910Y130450D01*
X189770Y129748D01*
X189910Y129045D01*
X190307Y128450D01*
X190761Y128147D01*
Y127647D01*
X190629Y127559D01*
X190447Y127286D01*
X189947D01*
X189764Y127559D01*
X189240Y127910D01*
X188622Y128033D01*
X188004Y127910D01*
X187480Y127559D01*
X187096D01*
X186903Y127848D01*
X186247Y128286D01*
X185972Y128341D01*
Y126417D01*
X184972D01*
Y128341D01*
X184698Y128286D01*
X184042Y127848D01*
X183849Y127559D01*
X183465D01*
X182941Y127910D01*
X182323Y128033D01*
X182058Y127980D01*
X177598Y132440D01*
X177915Y132826D01*
X178098Y132704D01*
X178800Y132565D01*
X179502Y132704D01*
X179701Y132837D01*
X180117Y132560D01*
X180015Y132047D01*
X180155Y131345D01*
X180553Y130749D01*
X181148Y130352D01*
X181850Y130212D01*
X182553Y130352D01*
X183148Y130749D01*
X183546Y131345D01*
X183686Y132047D01*
X183597Y132496D01*
X217534Y166433D01*
X217733Y166731D01*
X217803Y167082D01*
Y175219D01*
X217822Y175223D01*
X218616Y175753D01*
X219146Y176547D01*
X219332Y177483D01*
X219146Y178420D01*
X218616Y179214D01*
X217822Y179744D01*
X216885Y179930D01*
X215949Y179744D01*
X215155Y179214D01*
X214624Y178420D01*
X214579Y178191D01*
X214079D01*
X214002Y178576D01*
X213472Y179369D01*
X212678Y179900D01*
X211741Y180086D01*
D02*
G37*
G36*
X212222Y77571D02*
X210579D01*
Y75927D01*
X210937Y75999D01*
X211665Y76485D01*
X212151Y77213D01*
X212222Y77571D01*
D02*
G37*
G36*
X220061Y134506D02*
Y132862D01*
X221705D01*
X221634Y133221D01*
X221147Y133948D01*
X220420Y134434D01*
X220061Y134506D01*
D02*
G37*
G36*
X116696Y140925D02*
X114437D01*
X114468Y140694D01*
X114750Y140013D01*
X115199Y139428D01*
X115784Y138979D01*
X116465Y138697D01*
X116696Y138667D01*
Y140925D01*
D02*
G37*
G36*
X117696Y144183D02*
Y141925D01*
X119954D01*
X119924Y142156D01*
X119641Y142837D01*
X119193Y143422D01*
X118608Y143871D01*
X117927Y144153D01*
X117696Y144183D01*
D02*
G37*
G36*
X83744Y154190D02*
X81486D01*
X81516Y153959D01*
X81798Y153278D01*
X82247Y152693D01*
X82832Y152244D01*
X83513Y151962D01*
X83744Y151932D01*
Y154190D01*
D02*
G37*
G36*
X119954Y140925D02*
X117696D01*
Y138667D01*
X117927Y138697D01*
X118608Y138979D01*
X119193Y139428D01*
X119641Y140013D01*
X119924Y140694D01*
X119954Y140925D01*
D02*
G37*
G36*
X116696Y144183D02*
X116465Y144153D01*
X115784Y143871D01*
X115199Y143422D01*
X114750Y142837D01*
X114468Y142156D01*
X114437Y141925D01*
X116696D01*
Y144183D01*
D02*
G37*
%LPD*%
G36*
X164872Y131082D02*
X164713Y130844D01*
X164573Y130141D01*
X164713Y129439D01*
X164848Y129236D01*
X164613Y128795D01*
X162493D01*
X162227Y128848D01*
Y126705D01*
X161858D01*
Y125039D01*
X161358D01*
Y124539D01*
X157307D01*
Y121283D01*
X158619D01*
X158854Y120843D01*
X158783Y120736D01*
X158660Y120118D01*
X158783Y119500D01*
X159133Y118976D01*
X159407Y118793D01*
Y118293D01*
X159133Y118111D01*
X158783Y117587D01*
X158660Y116969D01*
X158783Y116350D01*
X159133Y115826D01*
X159407Y115644D01*
Y115144D01*
X159133Y114961D01*
X158783Y114437D01*
X158660Y113819D01*
X158783Y113201D01*
X159133Y112677D01*
X159407Y112494D01*
Y111994D01*
X159133Y111811D01*
X158783Y111287D01*
X158660Y110669D01*
X158783Y110051D01*
X159133Y109527D01*
X159407Y109344D01*
Y108844D01*
X159133Y108662D01*
X158783Y108138D01*
X158660Y107520D01*
X158783Y106902D01*
X159133Y106377D01*
Y105993D01*
X158845Y105801D01*
X158406Y105144D01*
X158352Y104870D01*
X160276D01*
Y103870D01*
X158352D01*
X158406Y103596D01*
X158845Y102939D01*
X159023Y102821D01*
X158878Y102342D01*
X155117D01*
X154841Y102754D01*
X154246Y103152D01*
X153543Y103292D01*
X152841Y103152D01*
X152246Y102754D01*
X151947Y102308D01*
X151469Y102453D01*
Y123990D01*
X159002Y131523D01*
X164636D01*
X164872Y131082D01*
D02*
G37*
G36*
X214624Y176547D02*
X215155Y175753D01*
X215949Y175223D01*
X215967Y175219D01*
Y167462D01*
X182299Y133793D01*
X181850Y133882D01*
X181148Y133743D01*
X180949Y133610D01*
X180533Y133888D01*
X180635Y134400D01*
X180496Y135102D01*
X180417Y135220D01*
X212390Y167193D01*
X212589Y167490D01*
X212659Y167841D01*
Y175375D01*
X212678Y175378D01*
X213472Y175909D01*
X214002Y176703D01*
X214048Y176932D01*
X214548D01*
X214624Y176547D01*
D02*
G37*
G36*
X178031Y122125D02*
X178555Y121775D01*
X179133Y121660D01*
X179250Y121072D01*
X179601Y120546D01*
X180127Y120195D01*
X180248Y120171D01*
Y121693D01*
X181248D01*
Y120171D01*
X181369Y120195D01*
X181895Y120546D01*
X182246Y121072D01*
X182363Y121660D01*
X182941Y121775D01*
X183465Y122125D01*
X183648Y122399D01*
X184148D01*
X184330Y122125D01*
X184854Y121775D01*
X185472Y121652D01*
X186091Y121775D01*
X186615Y122125D01*
X186838D01*
X187191Y121772D01*
Y121549D01*
X186753Y120892D01*
X186599Y120118D01*
X186665Y119788D01*
X186583Y119665D01*
X186583D01*
X186583Y119665D01*
X186189Y119402D01*
X185926Y119008D01*
X185833Y118543D01*
X185817Y118524D01*
X174725D01*
X174490Y118964D01*
X174743Y119344D01*
X174798Y119618D01*
X172874D01*
Y120618D01*
X174798D01*
X174743Y120892D01*
X174305Y121549D01*
X174016Y121741D01*
Y122125D01*
X174199Y122399D01*
X174699D01*
X174881Y122125D01*
X175406Y121775D01*
X176024Y121652D01*
X176642Y121775D01*
X177166Y122125D01*
X177348Y122399D01*
X177848D01*
X178031Y122125D01*
D02*
G37*
G36*
X186730Y101877D02*
X186698Y101720D01*
X188622D01*
Y100721D01*
X186698D01*
X186753Y100446D01*
X187191Y99790D01*
X187480Y99597D01*
Y99213D01*
X187297Y98940D01*
X186797D01*
X186615Y99213D01*
X186091Y99563D01*
X185472Y99686D01*
X184854Y99563D01*
X184330Y99213D01*
X184148Y98940D01*
X183648D01*
X183465Y99213D01*
X182941Y99563D01*
X182323Y99686D01*
X181705Y99563D01*
X181181Y99213D01*
X180998Y98940D01*
X180498D01*
X180315Y99213D01*
X179791Y99563D01*
X179173Y99686D01*
X178555Y99563D01*
X178031Y99213D01*
X177848Y98940D01*
X177348D01*
X177166Y99213D01*
X176642Y99563D01*
X176024Y99686D01*
X175406Y99563D01*
X174881Y99213D01*
X174699Y98940D01*
X174199D01*
X174016Y99213D01*
Y99597D01*
X174305Y99790D01*
X174743Y100446D01*
X174798Y100721D01*
X172874D01*
Y101720D01*
X174798D01*
X174767Y101877D01*
X175008Y102172D01*
X175146Y102264D01*
X186412D01*
X186730Y101877D01*
D02*
G37*
G36*
X207441Y109843D02*
Y105118D01*
X202717D01*
Y105234D01*
X202578Y105373D01*
X203620Y106415D01*
Y108344D01*
X202323Y109641D01*
Y110236D01*
X207047D01*
X207441Y109843D01*
D02*
G37*
%LPC*%
G36*
X160858Y128795D02*
X157307D01*
Y125539D01*
X160858D01*
Y128795D01*
D02*
G37*
%LPD*%
D10*
X215905Y132362D02*
D03*
X211968D02*
D03*
X215905Y128819D02*
D03*
X211968D02*
D03*
X215905Y125276D02*
D03*
X211968D02*
D03*
X215905Y121732D02*
D03*
X211968D02*
D03*
X211968Y96929D02*
D03*
X215905D02*
D03*
X215905Y100472D02*
D03*
X211968D02*
D03*
X211968Y118189D02*
D03*
X215905D02*
D03*
X211968Y114646D02*
D03*
X215905D02*
D03*
X215905Y111102D02*
D03*
X211968D02*
D03*
X215905Y107559D02*
D03*
X211968D02*
D03*
X215905Y104016D02*
D03*
X211968D02*
D03*
D21*
X211741Y167841D02*
Y177639D01*
X179184Y135284D02*
X211741Y167841D01*
X179184Y134016D02*
Y135284D01*
X178800Y134400D02*
X179184Y134016D01*
X169724Y123268D02*
X171299Y121693D01*
X89016Y31653D02*
X89724Y32362D01*
Y153740D01*
X147402Y164370D02*
X160185Y177154D01*
X197823D01*
X113819Y164370D02*
X147402D01*
X107609Y163160D02*
X137126Y192677D01*
X107609Y97004D02*
Y163160D01*
X137126Y192677D02*
Y206422D01*
X145984Y93032D02*
Y110236D01*
X148386Y94882D02*
X150551Y97047D01*
X148386Y93740D02*
Y94882D01*
Y93740D02*
X155774Y86352D01*
X168018D01*
X154764Y84252D02*
X164173D01*
X145984Y93032D02*
X154764Y84252D01*
X150551Y124370D02*
X158622Y132441D01*
X150551Y97047D02*
Y124370D01*
X208313Y100472D02*
X208313Y100472D01*
X208313Y107559D02*
X208313Y107559D01*
X208313Y114646D02*
X208313Y114646D01*
X208313Y118189D02*
X208313Y118189D01*
X208313Y121732D02*
X208313Y121732D01*
X208313Y128819D02*
X208313Y128819D01*
X219561D02*
X219561Y128819D01*
X215905Y128819D02*
X219561D01*
X215905Y125276D02*
X219561D01*
X215905Y121732D02*
X219561D01*
X219561Y121732D01*
X215905Y96929D02*
X219561D01*
X215905Y96929D02*
X215905Y96929D01*
X215905Y118189D02*
X219561D01*
X219561Y118189D01*
X215905Y114646D02*
X219561D01*
X219561Y114646D01*
X215905Y111102D02*
X219561D01*
X215905Y111102D02*
X215905Y111102D01*
Y104016D02*
X219561D01*
X215905Y104016D02*
X215905Y104016D01*
X215905Y107559D02*
X219561D01*
X219561Y107559D01*
X215905Y100472D02*
X219561D01*
X219561Y100472D01*
X171299Y109095D02*
X172874Y110669D01*
X199646Y109095D02*
X201220Y107520D01*
X196496Y109095D02*
X198071Y107520D01*
X171299Y112244D02*
X172874Y113819D01*
X188622Y104370D02*
X190197Y102795D01*
X187047Y118543D02*
X188622Y116969D01*
X172874Y107520D02*
X174449Y105945D01*
X171299Y118543D02*
X172874Y116969D01*
X191605Y129748D02*
X191772Y129581D01*
Y126417D02*
Y129581D01*
X166408Y126584D02*
X166575Y126417D01*
X166408Y126584D02*
Y130141D01*
X173150Y132441D02*
X179173Y126417D01*
X158622Y132441D02*
X173150D01*
X156094Y134275D02*
X174465D01*
X182323Y126417D01*
X139299Y151070D02*
X156094Y134275D01*
X168018Y86352D02*
X168032Y86339D01*
X137126Y206422D02*
X142000Y211297D01*
X115227Y131582D02*
X139244D01*
X145276Y125551D01*
X139402Y126858D02*
X143898Y122362D01*
X119558Y126858D02*
X139402D01*
X171299Y124843D02*
X172874Y123268D01*
X174449Y124843D02*
X176024Y123268D01*
X134912Y156519D02*
X139299Y152133D01*
Y151070D02*
Y152133D01*
X216885Y167082D02*
Y177483D01*
X181850Y132047D02*
X216885Y167082D01*
X180748Y124843D02*
X182323Y123268D01*
X177598Y124843D02*
X179173Y123268D01*
X182323Y98071D02*
X183898Y96496D01*
X179173Y89803D02*
Y94921D01*
Y89803D02*
X180669Y88307D01*
X185472Y90158D02*
Y94921D01*
X184881Y89567D02*
X185472Y90158D01*
X174488Y90197D02*
Y93386D01*
X172388Y87691D02*
Y94435D01*
X172874Y94921D01*
X172388Y87691D02*
X172874Y87205D01*
X174488Y93386D02*
X176024Y94921D01*
X171259Y96496D02*
X171299D01*
X172874Y98071D01*
X188622Y90000D02*
X189606Y89016D01*
X188622Y90000D02*
Y94921D01*
X197904Y87622D02*
Y89987D01*
X195791Y92100D02*
X197904Y89987D01*
X194593Y92100D02*
X195791D01*
X191772Y94921D02*
X194593Y92100D01*
X191772Y98071D02*
X193347Y96496D01*
X188622Y98071D02*
X190197Y96496D01*
X185472Y98071D02*
X187047Y96496D01*
X176024Y98071D02*
X177598Y96496D01*
X179173Y98071D02*
X180748Y96496D01*
X174676Y80535D02*
X175267Y81126D01*
X180936Y77464D02*
X186435D01*
X196592Y87622D02*
X197904D01*
X175267Y81126D02*
X186526D01*
X194597Y89197D01*
X186435Y77464D02*
X196592Y87622D01*
D22*
X181142Y120234D02*
X188506D01*
X172990D02*
X181142D01*
X180748Y120627D02*
X181142Y120234D01*
X180748Y120627D02*
Y121693D01*
X166575Y120118D02*
X169724D01*
X185472Y126417D02*
X188622Y123268D01*
X188506Y120234D02*
X188622Y120118D01*
X172874D02*
X172990Y120234D01*
X166575Y120118D02*
Y123268D01*
X169724Y126417D01*
X169724D01*
X188622Y101221D02*
X188738Y101105D01*
X191656D01*
X191772Y101221D01*
X168827Y55001D02*
X200997D01*
X154991Y41165D02*
X168827Y55001D01*
X200997D02*
X214833Y41165D01*
X232047Y182441D02*
X232441Y182047D01*
X208347Y182441D02*
X232047D01*
X172582Y146677D02*
X208347Y182441D01*
X160995Y146677D02*
X172582D01*
X165791Y94137D02*
X166575Y94921D01*
X165791Y90828D02*
Y94137D01*
X153543Y101457D02*
X153779Y101221D01*
X160276D01*
X208425Y128622D02*
Y134188D01*
X203219Y139393D02*
X208425Y134188D01*
Y128622D02*
X209213Y127835D01*
X208425Y128622D02*
X211968Y132165D01*
X209213Y126850D02*
Y127835D01*
Y123701D02*
Y126850D01*
X210000D01*
X210394Y123701D02*
X211968Y125276D01*
X215905Y132362D02*
X219561D01*
X211968Y132165D02*
Y132362D01*
X210000Y126850D02*
X211968Y128819D01*
X211575Y121339D02*
X211968Y121732D01*
X209213Y121339D02*
X211575D01*
X215905Y132362D02*
X215905Y132362D01*
X209213Y123701D02*
X210394D01*
X209213Y121339D02*
Y123701D01*
Y120157D02*
Y121339D01*
X204095Y101260D02*
X208425Y96929D01*
X201812Y94783D02*
X214724D01*
X208425Y96929D02*
X211968D01*
X215905Y95964D02*
Y96929D01*
X214724Y94783D02*
X215905Y95964D01*
X205142Y94307D02*
X208434D01*
X210394Y116614D02*
X211968Y118189D01*
X210000Y100472D02*
X211968D01*
X201339Y101260D02*
X204095D01*
X201339Y117008D02*
X206063D01*
X201339Y120158D02*
X205276D01*
X211181Y113858D02*
X211968Y114646D01*
X201339Y113858D02*
X208425D01*
X207244Y111102D02*
X211968D01*
X201339Y110709D02*
X206457D01*
X209606Y107559D02*
X211968D01*
X201339Y104409D02*
X206063D01*
X207244Y103228D02*
X211575D01*
X208425Y115433D02*
X209606Y116614D01*
X210394D01*
X206850Y110315D02*
X209606Y107559D01*
X206063Y117008D02*
X209213Y120157D01*
X207244Y103228D02*
X210000Y100472D01*
X201339Y113858D02*
Y117008D01*
Y110507D02*
X203423Y108422D01*
X201339Y117008D02*
Y120158D01*
X208425Y113858D02*
Y115433D01*
Y113858D02*
X211181D01*
X206457Y110709D02*
X207244Y111496D01*
X206063Y104409D02*
X207244Y103228D01*
X201339Y110709D02*
Y113858D01*
Y110507D02*
Y110709D01*
X203423Y106494D02*
Y108422D01*
X201339Y104409D02*
X203423Y106494D01*
X194755Y126584D02*
X194921Y126417D01*
X194755Y126584D02*
Y129748D01*
X172874Y87205D02*
X173465Y86614D01*
X123680Y49437D02*
X123731Y49385D01*
X179130Y67532D02*
X189246D01*
X123680Y49437D02*
X124563Y50320D01*
X197907Y76192D02*
Y78423D01*
X173630Y62031D02*
X179130Y67532D01*
X189243Y158094D02*
X202235Y171086D01*
X189246Y67532D02*
X197907Y76192D01*
X124563Y50320D02*
Y60583D01*
D39*
X207992Y138661D02*
D03*
X153416Y93134D02*
D03*
X202235Y131716D02*
D03*
D40*
X162000Y201297D02*
D03*
Y211297D02*
D03*
X152000Y201297D02*
D03*
Y211297D02*
D03*
X142000Y201297D02*
D03*
Y211297D02*
D03*
X132000Y201297D02*
D03*
Y211297D02*
D03*
X122000Y201297D02*
D03*
Y211297D02*
D03*
X112000Y201297D02*
D03*
Y211297D02*
D03*
X102000Y201297D02*
D03*
Y211297D02*
D03*
X92000Y201297D02*
D03*
Y211297D02*
D03*
X82000Y201297D02*
D03*
Y211297D02*
D03*
X72000Y201297D02*
D03*
Y211297D02*
D03*
X62000Y201297D02*
D03*
Y211297D02*
D03*
X52000Y201297D02*
D03*
Y211297D02*
D03*
X42000Y201297D02*
D03*
Y211297D02*
D03*
X32000Y201297D02*
D03*
Y211297D02*
D03*
X22000Y201297D02*
D03*
Y211297D02*
D03*
X12000Y201297D02*
D03*
D41*
Y211297D02*
D03*
X141999Y101008D02*
D03*
X224200Y86339D02*
D03*
D42*
X12000Y21297D02*
D03*
D43*
Y11297D02*
D03*
X92001Y21297D02*
D03*
X82000Y11297D02*
D03*
Y21297D02*
D03*
X62001D02*
D03*
X72000Y11297D02*
D03*
X62001D02*
D03*
X102000Y21297D02*
D03*
X72000D02*
D03*
X92001Y11297D02*
D03*
X132001D02*
D03*
X52000Y21297D02*
D03*
X42000D02*
D03*
Y11297D02*
D03*
X52000D02*
D03*
X142000D02*
D03*
Y21297D02*
D03*
X152000D02*
D03*
Y11297D02*
D03*
X232000Y21297D02*
D03*
X222001Y11297D02*
D03*
X212000Y21297D02*
D03*
Y11297D02*
D03*
X202000Y21297D02*
D03*
Y11297D02*
D03*
X192000D02*
D03*
X182001D02*
D03*
X172001D02*
D03*
X182001Y21297D02*
D03*
X172001D02*
D03*
X162001D02*
D03*
Y11297D02*
D03*
X32000Y21297D02*
D03*
Y11297D02*
D03*
X102000D02*
D03*
X132001Y21297D02*
D03*
X122001Y11297D02*
D03*
X192000Y21297D02*
D03*
X232000Y11297D02*
D03*
X222001Y21297D02*
D03*
X112001D02*
D03*
X122001D02*
D03*
X112001Y11297D02*
D03*
X22001Y21297D02*
D03*
Y11297D02*
D03*
D44*
X178800Y134400D02*
D03*
X207953Y93622D02*
D03*
X175984Y201024D02*
D03*
X164331Y79331D02*
D03*
X192393Y48237D02*
D03*
X182550Y47904D02*
D03*
X170787Y47087D02*
D03*
X204095Y48583D02*
D03*
X100039Y44094D02*
D03*
X135315Y65197D02*
D03*
X194528Y184016D02*
D03*
X222520Y178532D02*
D03*
X165791Y90828D02*
D03*
X153543Y101457D02*
D03*
X145984Y110236D02*
D03*
X208313Y114646D02*
D03*
Y132362D02*
D03*
Y128819D02*
D03*
Y100472D02*
D03*
Y107559D02*
D03*
Y104016D02*
D03*
Y125276D02*
D03*
Y111102D02*
D03*
Y118189D02*
D03*
Y121732D02*
D03*
X191605Y129748D02*
D03*
X194755D02*
D03*
X166408Y130141D02*
D03*
X164173Y84252D02*
D03*
X168032Y86339D02*
D03*
X145276Y125551D02*
D03*
X143898Y122362D02*
D03*
X181850Y132047D02*
D03*
X210079Y78071D02*
D03*
X204606Y77638D02*
D03*
X184881Y89567D02*
D03*
X180669Y88307D02*
D03*
X177667Y87346D02*
D03*
X173465Y86614D02*
D03*
X174488Y90197D02*
D03*
X189606Y89016D02*
D03*
X194921Y90000D02*
D03*
X160995Y146677D02*
D03*
X119558Y126858D02*
D03*
X115227Y131582D02*
D03*
X134912Y156519D02*
D03*
X197904Y87622D02*
D03*
X174676Y80535D02*
D03*
X219561Y121732D02*
D03*
Y118189D02*
D03*
Y111102D02*
D03*
X161727Y126705D02*
D03*
X180936Y77464D02*
D03*
X219561Y125276D02*
D03*
X173630Y62031D02*
D03*
X219561Y104016D02*
D03*
Y107559D02*
D03*
Y96929D02*
D03*
Y100472D02*
D03*
X192403Y77402D02*
D03*
X197907Y78423D02*
D03*
X219561Y128819D02*
D03*
Y132362D02*
D03*
Y114646D02*
D03*
X214833Y41165D02*
D03*
X154991Y41165D02*
D03*
D45*
X180748Y121693D02*
D03*
X171299D02*
D03*
Y109095D02*
D03*
X199646D02*
D03*
X196496D02*
D03*
X171299Y112244D02*
D03*
X190197Y102795D02*
D03*
X187047Y118543D02*
D03*
X174449Y105945D02*
D03*
X171299Y118543D02*
D03*
Y124843D02*
D03*
X174449D02*
D03*
X180748D02*
D03*
X177598D02*
D03*
X183898Y96496D02*
D03*
X171259Y96496D02*
D03*
X193347Y96496D02*
D03*
X190197D02*
D03*
X187047D02*
D03*
X177598D02*
D03*
X180748D02*
D03*
D46*
X156102Y56417D02*
D03*
X89724Y153740D02*
D03*
X89016Y31653D02*
D03*
X232638Y182992D02*
D03*
X197823Y177154D02*
D03*
X113819Y164370D02*
D03*
X107609Y97004D02*
D03*
X152629Y72661D02*
D03*
X189243Y158094D02*
D03*
X141999Y152189D02*
D03*
X184519Y166756D02*
D03*
X117196Y141425D02*
D03*
X84912Y105204D02*
D03*
X124563Y60583D02*
D03*
X84244Y154690D02*
D03*
X123389Y48364D02*
D03*
X203013Y170625D02*
D03*
X211741Y177639D02*
D03*
X216885Y177483D02*
D03*
D47*
X161358Y96299D02*
D03*
X161358Y125039D02*
D03*
X200138Y96299D02*
D03*
Y125039D02*
D03*
D48*
X172874Y94921D02*
D03*
Y110669D02*
D03*
X163425D02*
D03*
X172874Y126417D02*
D03*
X188622Y94921D02*
D03*
X198071Y110669D02*
D03*
X188622D02*
D03*
Y126417D02*
D03*
X172874Y98071D02*
D03*
Y101221D02*
D03*
X163425D02*
D03*
X172874Y104370D02*
D03*
X163425D02*
D03*
X172874Y107520D02*
D03*
X163425D02*
D03*
X172874Y113819D02*
D03*
X163425D02*
D03*
X172874Y116969D02*
D03*
X163425D02*
D03*
X172874Y120118D02*
D03*
X163425D02*
D03*
X172874Y123268D02*
D03*
X188622Y98071D02*
D03*
X198071Y101221D02*
D03*
X188622D02*
D03*
X198071Y104370D02*
D03*
X188622D02*
D03*
X198071Y107520D02*
D03*
X188622D02*
D03*
X198071Y113819D02*
D03*
X188622D02*
D03*
X198071Y116969D02*
D03*
X188622D02*
D03*
X198071Y120118D02*
D03*
X188622D02*
D03*
Y123268D02*
D03*
X160276Y110669D02*
D03*
X169724Y94921D02*
D03*
X166575D02*
D03*
X169724Y110669D02*
D03*
X166575D02*
D03*
X169724Y126417D02*
D03*
X166575D02*
D03*
X179173Y94921D02*
D03*
X176024D02*
D03*
X179173Y126417D02*
D03*
X176024D02*
D03*
X185472Y94921D02*
D03*
X182323D02*
D03*
X185472Y126417D02*
D03*
X182323D02*
D03*
X191772Y94921D02*
D03*
X194921Y110669D02*
D03*
X191772D02*
D03*
X194921Y94921D02*
D03*
Y126417D02*
D03*
X191772D02*
D03*
X201220Y110669D02*
D03*
X160276Y101221D02*
D03*
Y104370D02*
D03*
Y107520D02*
D03*
Y113819D02*
D03*
Y116969D02*
D03*
Y120118D02*
D03*
X169724Y98071D02*
D03*
X166575D02*
D03*
X169724Y101221D02*
D03*
X166575D02*
D03*
X169724Y104370D02*
D03*
X166575D02*
D03*
X169724Y107520D02*
D03*
X166575D02*
D03*
X169724Y113819D02*
D03*
X166575D02*
D03*
X169724Y116969D02*
D03*
X166575D02*
D03*
X169724Y120118D02*
D03*
X166575D02*
D03*
X169724Y123268D02*
D03*
X166575D02*
D03*
X179173Y98071D02*
D03*
X176024D02*
D03*
X179173Y123268D02*
D03*
X176024D02*
D03*
X185472Y98071D02*
D03*
X182323D02*
D03*
X185472Y123268D02*
D03*
X182323D02*
D03*
X194921Y98071D02*
D03*
X191772D02*
D03*
X194921Y101221D02*
D03*
X191772D02*
D03*
X194921Y104370D02*
D03*
X191772D02*
D03*
X194921Y107520D02*
D03*
X191772D02*
D03*
X194921Y113819D02*
D03*
X191772D02*
D03*
X194921Y116969D02*
D03*
X191772D02*
D03*
X194921Y120118D02*
D03*
X191772D02*
D03*
X194921Y123268D02*
D03*
X191772D02*
D03*
X201220Y101221D02*
D03*
Y104370D02*
D03*
Y107520D02*
D03*
Y113819D02*
D03*
Y116969D02*
D03*
Y120118D02*
D03*
D49*
X200807Y128091D02*
D03*
D50*
X165453Y123386D02*
D03*
D51*
X197933Y99606D02*
D03*
D52*
X198307Y123268D02*
D03*
D53*
X167657Y112244D02*
D03*
D54*
X164961Y99646D02*
D03*
D55*
X167776Y102854D02*
D03*
D56*
X193248Y106319D02*
D03*
D57*
X195197Y102756D02*
D03*
D58*
X191260Y110709D02*
D03*
D59*
X195039Y115886D02*
D03*
D60*
X190315Y121850D02*
D03*
D61*
X205591Y137815D02*
D03*
D62*
X207126Y129370D02*
D03*
D63*
X203898Y115551D02*
D03*
D64*
X210787Y100866D02*
D03*
D65*
X204291Y104134D02*
D03*
D66*
X180728Y105689D02*
D03*
D67*
X181890Y104114D02*
D03*
D68*
X187146Y116890D02*
D03*
D69*
X179409Y112165D02*
D03*
M02*
