M48
;Layer_Color=9474304
;FILE_FORMAT=2:5
INCH,LZ
;TYPE=PLATED
T1F00S00C0.00787
T2F00S00C0.01200
T3F00S00C0.01800
T4F00S00C0.02000
T5F00S00C0.03000
T6F00S00C0.03543
%
T01
X0171259Y0096496
X0177598Y0096496
X0180748
X0183898
X0187047
X0190197
X0193347
X0190197Y0102795
X0196496Y0109095
X0199646
X0174449Y0105945
X0171299Y0109095
Y0112244
Y0118543
Y0121693
Y0124843
X0174449
X0177598
X0180748
Y0121693
X0187047Y0118543
T02
X0154991Y0041165
X0170787Y0047087
X018255Y0047904
X0192393Y0048237
X0204095Y0048583
X0214833Y0041165
X0210079Y0078071
X0204606Y0077638
X0197907Y0078423
X0192403Y0077402
X0180936Y0077464
X0174676Y0080535
X0173465Y0086614
X0174488Y0090197
X0177667Y0087346
X0180669Y0088307
X0184881Y0089567
X0189606Y0089016
X0194921Y009
X0197904Y0087622
X0207953Y0093622
X0208313Y0100472
Y0104016
Y0107559
X0219561
Y0104016
Y0100472
Y0096929
X0165791Y0090828
X0168032Y0086339
X0164173Y0084252
X0164331Y0079331
X017363Y0062031
X0153543Y0101457
X0135315Y0065197
X0100039Y0044094
X0119558Y0126858
X0115227Y0131582
X0143898Y0122362
X0134912Y0156519
X0160995Y0146677
X0161727Y0126705
X0166408Y0130141
X01788Y01344
X018185Y0132047
X0191605Y0129748
X0194755
X0208313Y0128819
Y0125276
Y0121732
Y0118189
Y0114646
Y0111102
X0219561
Y0114646
Y0118189
Y0121732
Y0125276
Y0128819
Y0132362
X0208313
X022252Y0178532
X0194528Y0184016
X0175984Y0201024
X0145276Y0125551
X0145984Y0110236
T03
X0156102Y0056417
X0152629Y0072661
X0124563Y0060583
X0123389Y0048364
X0089016Y0031653
X0084912Y0105204
X0107609Y0097004
X0117196Y0141425
X0113819Y016437
X0089724Y015374
X0084244Y015469
X0141999Y0152189
X0189243Y0158094
X0184519Y0166756
X0203013Y0170625
X0197823Y0177154
X0211741Y0177639
X0216885Y0177483
X0232638Y0182992
T04
X0153416Y0093134
X0202235Y0131716
X0207992Y0138661
T05
X0152Y0011297
X0162001
Y0021297
X0172001
X0182001
X0192
Y0011297
X0182001
X0172001
X0202
Y0021297
X0212
X0222001
Y0011297
X0232
Y0021297
X0212Y0011297
X0152Y0021297
X0142
X0132001
X0122001
X0112001
Y0011297
X0122001
X0132001
X0142
X0102
X0092001
X0082
X0072
Y0021297
X0062001
X0052
Y0011297
X0042
X0032
X0022001
Y0021297
X0032
X0042
X0062001Y0011297
X0082Y0021297
X0092001
X0102
X0012
Y0011297
T06
X02242Y0086339
X0141999Y0101008
X0142Y0201297
X0132
X0122
X0112
X0102
X0092
X0082
X0072
X0062
X0052
X0042
X0032
X0022
X0012
Y0211297
X0022
X0032
X0042
X0052
X0062
X0072
X0082
X0092
X0102
X0112
X0122
X0132
X0142
X0152
Y0201297
X0162
Y0211297
M30
