%FSLAX25Y25*%
%MOIN*%
G70*
G01*
G75*
G04 Layer_Color=65535*
%ADD10R,0.02362X0.01969*%
%ADD11R,0.01969X0.02362*%
%ADD12R,0.03937X0.03937*%
%ADD13R,0.02756X0.05118*%
%ADD14O,0.09843X0.02756*%
%ADD15O,0.00984X0.08709*%
%ADD16R,0.02165X0.05709*%
%ADD17R,0.02165X0.05709*%
%ADD18R,0.05709X0.02165*%
%ADD19R,0.05709X0.02165*%
%ADD20R,0.05500X0.05500*%
%ADD21C,0.00600*%
%ADD22C,0.01000*%
%ADD23R,0.04016X0.47795*%
%ADD24R,0.19930X0.02835*%
%ADD25R,0.05709X0.11535*%
%ADD26R,0.11693X0.05748*%
%ADD27R,0.09685X0.11614*%
%ADD28R,0.10354X0.24724*%
%ADD29R,0.03976X0.38622*%
%ADD30R,0.07756X0.05591*%
%ADD31R,0.02795X0.25433*%
%ADD32R,0.11102X0.04685*%
%ADD33R,0.22165X0.17244*%
%ADD34R,0.18858X0.15748*%
%ADD35R,0.03150X0.09449*%
%ADD36R,0.06299X0.06299*%
%ADD37R,0.04331X0.03937*%
%ADD38R,0.14756X0.04150*%
%ADD39C,0.04000*%
%ADD40C,0.05906*%
%ADD41R,0.05906X0.05906*%
%ADD42R,0.06000X0.06000*%
%ADD43C,0.06000*%
%ADD44C,0.02400*%
%ADD45C,0.01181*%
%ADD46C,0.03600*%
%ADD47R,0.06102X0.05512*%
%ADD48C,0.01969*%
%ADD49R,0.06732X0.10591*%
%ADD50R,0.03740X0.01811*%
%ADD51R,0.01614X0.03150*%
%ADD52R,0.01811X0.06772*%
%ADD53R,0.04134X0.15748*%
%ADD54R,0.05118X0.03150*%
%ADD55R,0.10827X0.05079*%
%ADD56R,0.04764X0.03898*%
%ADD57R,0.07559X0.05039*%
%ADD58R,0.07323X0.08110*%
%ADD59R,0.08425X0.10433*%
%ADD60R,0.04882X0.04803*%
%ADD61R,0.07008X0.05315*%
%ADD62R,0.03701X0.18425*%
%ADD63R,0.06299X0.10630*%
%ADD64R,0.04724X0.02362*%
%ADD65R,0.06299X0.01969*%
%ADD66R,0.12165X0.03661*%
%ADD67R,0.14488X0.02402*%
%ADD68R,0.05236X0.01969*%
%ADD69R,0.14724X0.11417*%
%ADD70C,0.00984*%
%ADD71C,0.02362*%
%ADD72C,0.00394*%
%ADD73C,0.00787*%
%ADD74C,0.00100*%
%ADD75C,0.00800*%
%ADD76C,0.00500*%
D21*
X182200Y151100D02*
Y153000D01*
X182600Y153400D01*
X191000D01*
X191500Y152900D01*
Y151200D02*
Y152900D01*
X194300Y132000D02*
X199376D01*
X199479Y132103D01*
Y138409D01*
X199800Y135200D02*
X210200D01*
X228900Y154200D02*
Y161638D01*
X220700Y154200D02*
X228900D01*
X209500Y171500D02*
Y172800D01*
X220000D01*
Y171500D02*
Y172800D01*
X210180Y135220D02*
X228900Y153939D01*
X160782Y71965D02*
X160366Y71549D01*
Y70716D01*
X160782Y70299D01*
X162449D01*
X162865Y70716D01*
Y71549D01*
X162449Y71965D01*
X160782Y72798D02*
X160366Y73215D01*
Y74048D01*
X160782Y74464D01*
X161199D01*
X161615Y74048D01*
Y73631D01*
Y74048D01*
X162032Y74464D01*
X162449D01*
X162865Y74048D01*
Y73215D01*
X162449Y72798D01*
X162865Y76547D02*
X160366D01*
X161615Y75297D01*
Y76964D01*
D70*
X183760Y193858D02*
G03*
X183760Y193858I-492J0D01*
G01*
X223012Y184615D02*
G03*
X223012Y184615I-492J0D01*
G01*
X106074Y108315D02*
G03*
X106074Y108315I-492J0D01*
G01*
X213259Y68724D02*
G03*
X213259Y68724I-492J0D01*
G01*
X142491Y109079D02*
G03*
X142491Y109079I-492J0D01*
G01*
X224692Y78269D02*
G03*
X224692Y78269I-492J0D01*
G01*
X109880Y69190D02*
G03*
X109880Y69190I-492J0D01*
G01*
D71*
X208534Y60358D02*
G03*
X208534Y60358I-1181J0D01*
G01*
D72*
X205680Y156519D02*
G03*
X205680Y156519I-197J0D01*
G01*
X180877Y154685D02*
G03*
X180877Y154685I-197J0D01*
G01*
X158436Y156519D02*
G03*
X158436Y156519I-197J0D01*
G01*
X107737Y49808D02*
G03*
X107737Y49808I-197J0D01*
G01*
D73*
X7000Y216297D02*
X167000D01*
X7000Y196297D02*
X167000D01*
X7000D02*
Y216297D01*
X167000Y196297D02*
Y216297D01*
X211496Y214910D02*
Y215698D01*
X208347Y214910D02*
Y215698D01*
X203633Y214847D02*
Y215634D01*
X200484Y214847D02*
Y215634D01*
X182087Y188543D02*
Y189724D01*
X169882Y188543D02*
Y189724D01*
X182087D01*
X169882Y188543D02*
X182087D01*
X209725Y205500D02*
X216024D01*
X209725Y185815D02*
X216024D01*
X209725D02*
Y205500D01*
X216024Y185815D02*
Y205500D01*
X99085Y109535D02*
Y144181D01*
X92786Y109535D02*
Y144181D01*
Y109535D02*
X99085D01*
X92786Y144181D02*
X99085D01*
X163652Y46224D02*
Y64295D01*
X211290Y46224D02*
Y64295D01*
X163652Y46224D02*
X211290D01*
X163652Y64295D02*
X211290D01*
X193377Y154945D02*
X193574D01*
X193377Y147858D02*
X193574D01*
X205385Y154945D02*
X205581D01*
X205385Y147858D02*
X205581D01*
Y154945D01*
X193377Y147858D02*
Y154945D01*
X168574Y153110D02*
X168771D01*
X168574Y146024D02*
X168771D01*
X180581Y153110D02*
X180778D01*
X180581Y146024D02*
X180778D01*
Y153110D01*
X168574Y146024D02*
Y153110D01*
X146133Y154945D02*
X146330D01*
X146133Y147858D02*
X146330D01*
X158141Y154945D02*
X158337D01*
X158141Y147858D02*
X158337D01*
Y154945D01*
X146133Y147858D02*
Y154945D01*
X136487Y95496D02*
Y106519D01*
X136487Y95496D02*
X147511D01*
Y106519D01*
X136487Y106519D02*
X147511D01*
X109115Y37701D02*
Y37898D01*
X116202Y37701D02*
Y37898D01*
X109115Y49709D02*
Y49906D01*
X116202Y49709D02*
Y49906D01*
X109115D02*
X116202D01*
X109115Y37701D02*
X116202D01*
X229712Y80828D02*
Y91851D01*
X218688Y91851D02*
X229712D01*
X218688Y80828D02*
Y91851D01*
X218688Y80828D02*
X229712D01*
D74*
X7000Y26297D02*
X17000D01*
X7000Y6297D02*
Y26297D01*
Y6297D02*
X17000D01*
X237000D01*
Y26297D01*
X17000D02*
X237000D01*
D75*
X176272Y118972D02*
X175856Y119389D01*
X175023D01*
X174606Y118972D01*
Y117306D01*
X175023Y116890D01*
X175856D01*
X176272Y117306D01*
X177105Y118972D02*
X177522Y119389D01*
X178355D01*
X178772Y118972D01*
Y118556D01*
X178355Y118139D01*
X177939D01*
X178355D01*
X178772Y117723D01*
Y117306D01*
X178355Y116890D01*
X177522D01*
X177105Y117306D01*
X179605Y118972D02*
X180021Y119389D01*
X180854D01*
X181271Y118972D01*
Y117306D01*
X180854Y116890D01*
X180021D01*
X179605Y117306D01*
Y118972D01*
X190317Y190366D02*
X189901Y189950D01*
Y189117D01*
X190317Y188700D01*
X191983D01*
X192400Y189117D01*
Y189950D01*
X191983Y190366D01*
X192400Y192449D02*
X189901D01*
X191150Y191199D01*
Y192865D01*
X192400Y193698D02*
Y194531D01*
Y194115D01*
X189901D01*
X190317Y193698D01*
X216400Y211299D02*
Y209216D01*
X216816Y208800D01*
X217650D01*
X218066Y209216D01*
Y211299D01*
X220565D02*
X218899D01*
Y210050D01*
X219732Y210466D01*
X220149D01*
X220565Y210050D01*
Y209216D01*
X220149Y208800D01*
X219316D01*
X218899Y209216D01*
X201448Y143664D02*
Y141582D01*
X201031Y141165D01*
X200198D01*
X199782Y141582D01*
Y143664D01*
X198949Y143248D02*
X198532Y143664D01*
X197699D01*
X197282Y143248D01*
Y142831D01*
X197699Y142415D01*
X198115D01*
X197699D01*
X197282Y141998D01*
Y141582D01*
X197699Y141165D01*
X198532D01*
X198949Y141582D01*
X172800Y171000D02*
X170301D01*
Y172250D01*
X170717Y172666D01*
X171550D01*
X171967Y172250D01*
Y171000D01*
Y171833D02*
X172800Y172666D01*
Y175165D02*
Y173499D01*
X171134Y175165D01*
X170717D01*
X170301Y174749D01*
Y173916D01*
X170717Y173499D01*
X153901Y168283D02*
X153485Y168699D01*
X152652D01*
X152235Y168283D01*
Y166616D01*
X152652Y166200D01*
X153485D01*
X153901Y166616D01*
X154734Y168699D02*
X156400D01*
Y168283D01*
X154734Y166616D01*
Y166200D01*
X145817Y134966D02*
X145401Y134550D01*
Y133716D01*
X145817Y133300D01*
X147484D01*
X147900Y133716D01*
Y134550D01*
X147484Y134966D01*
X145401Y137465D02*
X145817Y136632D01*
X146650Y135799D01*
X147484D01*
X147900Y136216D01*
Y137049D01*
X147484Y137465D01*
X147067D01*
X146650Y137049D01*
Y135799D01*
X211617Y167966D02*
X211201Y167550D01*
Y166717D01*
X211617Y166300D01*
X213283D01*
X213700Y166717D01*
Y167550D01*
X213283Y167966D01*
X211201Y170465D02*
Y168799D01*
X212450D01*
X212034Y169632D01*
Y170049D01*
X212450Y170465D01*
X213283D01*
X213700Y170049D01*
Y169216D01*
X213283Y168799D01*
X175366Y166383D02*
X174950Y166799D01*
X174117D01*
X173700Y166383D01*
Y164716D01*
X174117Y164300D01*
X174950D01*
X175366Y164716D01*
X177449Y164300D02*
Y166799D01*
X176199Y165550D01*
X177865D01*
X214554Y149735D02*
X214970Y150152D01*
Y150985D01*
X214554Y151401D01*
X212888D01*
X212471Y150985D01*
Y150152D01*
X212888Y149735D01*
X214554Y148902D02*
X214970Y148486D01*
Y147653D01*
X214554Y147236D01*
X214137D01*
X213721Y147653D01*
Y148069D01*
Y147653D01*
X213304Y147236D01*
X212888D01*
X212471Y147653D01*
Y148486D01*
X212888Y148902D01*
X200966Y166683D02*
X200550Y167099D01*
X199716D01*
X199300Y166683D01*
Y165016D01*
X199716Y164600D01*
X200550D01*
X200966Y165016D01*
X203465Y164600D02*
X201799D01*
X203465Y166266D01*
Y166683D01*
X203049Y167099D01*
X202216D01*
X201799Y166683D01*
X216017Y168166D02*
X215601Y167750D01*
Y166917D01*
X216017Y166500D01*
X217684D01*
X218100Y166917D01*
Y167750D01*
X217684Y168166D01*
X218100Y168999D02*
Y169832D01*
Y169416D01*
X215601D01*
X216017Y168999D01*
X72600Y148200D02*
Y150699D01*
X73850D01*
X74266Y150283D01*
Y149450D01*
X73850Y149033D01*
X72600D01*
X73433D02*
X74266Y148200D01*
X75099D02*
X75932D01*
X75516D01*
Y150699D01*
X75099Y150283D01*
X77182D02*
X77598Y150699D01*
X78431D01*
X78848Y150283D01*
Y149866D01*
X78431Y149450D01*
X78015D01*
X78431D01*
X78848Y149033D01*
Y148617D01*
X78431Y148200D01*
X77598D01*
X77182Y148617D01*
X129400Y38500D02*
X126901D01*
Y39750D01*
X127317Y40166D01*
X128150D01*
X128567Y39750D01*
Y38500D01*
Y39333D02*
X129400Y40166D01*
Y40999D02*
Y41832D01*
Y41416D01*
X126901D01*
X127317Y40999D01*
X129400Y44748D02*
Y43082D01*
X127734Y44748D01*
X127317D01*
X126901Y44331D01*
Y43498D01*
X127317Y43082D01*
X141000Y87200D02*
Y89699D01*
X142250D01*
X142666Y89283D01*
Y88450D01*
X142250Y88033D01*
X141000D01*
X141833D02*
X142666Y87200D01*
X143499D02*
X144332D01*
X143916D01*
Y89699D01*
X143499Y89283D01*
X145582Y87200D02*
X146415D01*
X145998D01*
Y89699D01*
X145582Y89283D01*
X224917Y158066D02*
X224501Y157650D01*
Y156816D01*
X224917Y156400D01*
X226584D01*
X227000Y156816D01*
Y157650D01*
X226584Y158066D01*
X227000Y160149D02*
X224501D01*
X225750Y158899D01*
Y160565D01*
X224917Y161398D02*
X224501Y161815D01*
Y162648D01*
X224917Y163065D01*
X226584D01*
X227000Y162648D01*
Y161815D01*
X226584Y161398D01*
X224917D01*
X196917Y120666D02*
X196501Y120250D01*
Y119416D01*
X196917Y119000D01*
X198583D01*
X199000Y119416D01*
Y120250D01*
X198583Y120666D01*
X196917Y121499D02*
X196501Y121916D01*
Y122749D01*
X196917Y123165D01*
X197334D01*
X197750Y122749D01*
Y122332D01*
Y122749D01*
X198167Y123165D01*
X198583D01*
X199000Y122749D01*
Y121916D01*
X198583Y121499D01*
Y123998D02*
X199000Y124415D01*
Y125248D01*
X198583Y125664D01*
X196917D01*
X196501Y125248D01*
Y124415D01*
X196917Y123998D01*
X197334D01*
X197750Y124415D01*
Y125664D01*
X192839Y120666D02*
X192422Y120250D01*
Y119416D01*
X192839Y119000D01*
X194505D01*
X194921Y119416D01*
Y120250D01*
X194505Y120666D01*
X192839Y121499D02*
X192422Y121916D01*
Y122749D01*
X192839Y123165D01*
X193255D01*
X193672Y122749D01*
Y122332D01*
Y122749D01*
X194088Y123165D01*
X194505D01*
X194921Y122749D01*
Y121916D01*
X194505Y121499D01*
X192839Y123998D02*
X192422Y124415D01*
Y125248D01*
X192839Y125664D01*
X193255D01*
X193672Y125248D01*
X194088Y125664D01*
X194505D01*
X194921Y125248D01*
Y124415D01*
X194505Y123998D01*
X194088D01*
X193672Y124415D01*
X193255Y123998D01*
X192839D01*
X193672Y124415D02*
Y125248D01*
X150417Y60266D02*
X150001Y59850D01*
Y59017D01*
X150417Y58600D01*
X152084D01*
X152500Y59017D01*
Y59850D01*
X152084Y60266D01*
X150417Y61099D02*
X150001Y61516D01*
Y62349D01*
X150417Y62765D01*
X150834D01*
X151250Y62349D01*
Y61932D01*
Y62349D01*
X151667Y62765D01*
X152084D01*
X152500Y62349D01*
Y61516D01*
X152084Y61099D01*
X150001Y65264D02*
X150417Y64431D01*
X151250Y63598D01*
X152084D01*
X152500Y64015D01*
Y64848D01*
X152084Y65264D01*
X151667D01*
X151250Y64848D01*
Y63598D01*
X156845Y71965D02*
X156429Y71549D01*
Y70716D01*
X156845Y70299D01*
X158511D01*
X158928Y70716D01*
Y71549D01*
X158511Y71965D01*
X156845Y72798D02*
X156429Y73215D01*
Y74048D01*
X156845Y74464D01*
X157262D01*
X157678Y74048D01*
Y73631D01*
Y74048D01*
X158095Y74464D01*
X158511D01*
X158928Y74048D01*
Y73215D01*
X158511Y72798D01*
X156429Y76964D02*
Y75297D01*
X157678D01*
X157262Y76130D01*
Y76547D01*
X157678Y76964D01*
X158511D01*
X158928Y76547D01*
Y75714D01*
X158511Y75297D01*
X156837Y134451D02*
X156420Y134035D01*
Y133202D01*
X156837Y132785D01*
X158503D01*
X158920Y133202D01*
Y134035D01*
X158503Y134451D01*
X156837Y135284D02*
X156420Y135701D01*
Y136534D01*
X156837Y136951D01*
X157253D01*
X157670Y136534D01*
Y136117D01*
Y136534D01*
X158087Y136951D01*
X158503D01*
X158920Y136534D01*
Y135701D01*
X158503Y135284D01*
X156837Y137784D02*
X156420Y138200D01*
Y139033D01*
X156837Y139450D01*
X157253D01*
X157670Y139033D01*
Y138617D01*
Y139033D01*
X158087Y139450D01*
X158503D01*
X158920Y139033D01*
Y138200D01*
X158503Y137784D01*
X160717Y134366D02*
X160301Y133950D01*
Y133116D01*
X160717Y132700D01*
X162383D01*
X162800Y133116D01*
Y133950D01*
X162383Y134366D01*
X160717Y135199D02*
X160301Y135616D01*
Y136449D01*
X160717Y136865D01*
X161134D01*
X161550Y136449D01*
Y136032D01*
Y136449D01*
X161967Y136865D01*
X162383D01*
X162800Y136449D01*
Y135616D01*
X162383Y135199D01*
X162800Y139365D02*
Y137698D01*
X161134Y139365D01*
X160717D01*
X160301Y138948D01*
Y138115D01*
X160717Y137698D01*
X157366Y120272D02*
X156950Y120688D01*
X156116D01*
X155700Y120272D01*
Y118605D01*
X156116Y118189D01*
X156950D01*
X157366Y118605D01*
X158199Y120272D02*
X158616Y120688D01*
X159449D01*
X159865Y120272D01*
Y119855D01*
X159449Y119439D01*
X159032D01*
X159449D01*
X159865Y119022D01*
Y118605D01*
X159449Y118189D01*
X158616D01*
X158199Y118605D01*
X160698Y118189D02*
X161531D01*
X161115D01*
Y120688D01*
X160698Y120272D01*
X177445Y110166D02*
X177028Y109750D01*
Y108916D01*
X177445Y108500D01*
X179111D01*
X179527Y108916D01*
Y109750D01*
X179111Y110166D01*
X179527Y112665D02*
Y110999D01*
X177861Y112665D01*
X177445D01*
X177028Y112249D01*
Y111416D01*
X177445Y110999D01*
X179111Y113498D02*
X179527Y113915D01*
Y114748D01*
X179111Y115164D01*
X177445D01*
X177028Y114748D01*
Y113915D01*
X177445Y113498D01*
X177861D01*
X178278Y113915D01*
Y115164D01*
X173417Y110166D02*
X173001Y109750D01*
Y108916D01*
X173417Y108500D01*
X175083D01*
X175500Y108916D01*
Y109750D01*
X175083Y110166D01*
X175500Y112665D02*
Y110999D01*
X173834Y112665D01*
X173417D01*
X173001Y112249D01*
Y111416D01*
X173417Y110999D01*
Y113498D02*
X173001Y113915D01*
Y114748D01*
X173417Y115164D01*
X173834D01*
X174250Y114748D01*
X174667Y115164D01*
X175083D01*
X175500Y114748D01*
Y113915D01*
X175083Y113498D01*
X174667D01*
X174250Y113915D01*
X173834Y113498D01*
X173417D01*
X174250Y113915D02*
Y114748D01*
X182799Y113266D02*
X182382Y112850D01*
Y112016D01*
X182799Y111600D01*
X184465D01*
X184881Y112016D01*
Y112850D01*
X184465Y113266D01*
X184881Y115765D02*
Y114099D01*
X183215Y115765D01*
X182799D01*
X182382Y115349D01*
Y114516D01*
X182799Y114099D01*
X182382Y116598D02*
Y118264D01*
X182799D01*
X184465Y116598D01*
X184881D01*
X185417Y128166D02*
X185001Y127750D01*
Y126917D01*
X185417Y126500D01*
X187083D01*
X187500Y126917D01*
Y127750D01*
X187083Y128166D01*
X187500Y130665D02*
Y128999D01*
X185834Y130665D01*
X185417D01*
X185001Y130249D01*
Y129416D01*
X185417Y128999D01*
X185001Y133165D02*
X185417Y132331D01*
X186250Y131498D01*
X187083D01*
X187500Y131915D01*
Y132748D01*
X187083Y133165D01*
X186667D01*
X186250Y132748D01*
Y131498D01*
X197996Y105583D02*
X197579Y105999D01*
X196746D01*
X196330Y105583D01*
Y103917D01*
X196746Y103500D01*
X197579D01*
X197996Y103917D01*
X200495Y103500D02*
X198829D01*
X200495Y105166D01*
Y105583D01*
X200078Y105999D01*
X199245D01*
X198829Y105583D01*
X202994Y105999D02*
X201328D01*
Y104750D01*
X202161Y105166D01*
X202578D01*
X202994Y104750D01*
Y103917D01*
X202578Y103500D01*
X201745D01*
X201328Y103917D01*
X197996Y101083D02*
X197579Y101499D01*
X196746D01*
X196330Y101083D01*
Y99417D01*
X196746Y99000D01*
X197579D01*
X197996Y99417D01*
X200495Y99000D02*
X198829D01*
X200495Y100666D01*
Y101083D01*
X200078Y101499D01*
X199245D01*
X198829Y101083D01*
X202578Y99000D02*
Y101499D01*
X201328Y100250D01*
X202994D01*
X221417Y158066D02*
X221001Y157650D01*
Y156816D01*
X221417Y156400D01*
X223083D01*
X223500Y156816D01*
Y157650D01*
X223083Y158066D01*
X223500Y160565D02*
Y158899D01*
X221834Y160565D01*
X221417D01*
X221001Y160149D01*
Y159316D01*
X221417Y158899D01*
Y161398D02*
X221001Y161815D01*
Y162648D01*
X221417Y163065D01*
X221834D01*
X222250Y162648D01*
Y162231D01*
Y162648D01*
X222667Y163065D01*
X223083D01*
X223500Y162648D01*
Y161815D01*
X223083Y161398D01*
X217017Y158566D02*
X216601Y158150D01*
Y157317D01*
X217017Y156900D01*
X218684D01*
X219100Y157317D01*
Y158150D01*
X218684Y158566D01*
X219100Y161065D02*
Y159399D01*
X217434Y161065D01*
X217017D01*
X216601Y160649D01*
Y159816D01*
X217017Y159399D01*
X219100Y163565D02*
Y161898D01*
X217434Y163565D01*
X217017D01*
X216601Y163148D01*
Y162315D01*
X217017Y161898D01*
X157466Y112483D02*
X157050Y112899D01*
X156217D01*
X155800Y112483D01*
Y110817D01*
X156217Y110400D01*
X157050D01*
X157466Y110817D01*
X159965Y110400D02*
X158299D01*
X159965Y112066D01*
Y112483D01*
X159549Y112899D01*
X158716D01*
X158299Y112483D01*
X160798Y110400D02*
X161631D01*
X161215D01*
Y112899D01*
X160798Y112483D01*
X157366Y116383D02*
X156950Y116799D01*
X156116D01*
X155700Y116383D01*
Y114716D01*
X156116Y114300D01*
X156950D01*
X157366Y114716D01*
X159865Y114300D02*
X158199D01*
X159865Y115966D01*
Y116383D01*
X159449Y116799D01*
X158616D01*
X158199Y116383D01*
X160698D02*
X161115Y116799D01*
X161948D01*
X162364Y116383D01*
Y114716D01*
X161948Y114300D01*
X161115D01*
X160698Y114716D01*
Y116383D01*
X157366Y108483D02*
X156950Y108899D01*
X156116D01*
X155700Y108483D01*
Y106816D01*
X156116Y106400D01*
X156950D01*
X157366Y106816D01*
X158199Y106400D02*
X159032D01*
X158616D01*
Y108899D01*
X158199Y108483D01*
X160282Y106816D02*
X160698Y106400D01*
X161531D01*
X161948Y106816D01*
Y108483D01*
X161531Y108899D01*
X160698D01*
X160282Y108483D01*
Y108066D01*
X160698Y107650D01*
X161948D01*
X157266Y104583D02*
X156850Y104999D01*
X156017D01*
X155600Y104583D01*
Y102917D01*
X156017Y102500D01*
X156850D01*
X157266Y102917D01*
X158099Y102500D02*
X158932D01*
X158516D01*
Y104999D01*
X158099Y104583D01*
X160182D02*
X160598Y104999D01*
X161431D01*
X161848Y104583D01*
Y104166D01*
X161431Y103750D01*
X161848Y103333D01*
Y102917D01*
X161431Y102500D01*
X160598D01*
X160182Y102917D01*
Y103333D01*
X160598Y103750D01*
X160182Y104166D01*
Y104583D01*
X160598Y103750D02*
X161431D01*
X108800Y34999D02*
Y32917D01*
X109216Y32500D01*
X110050D01*
X110466Y32917D01*
Y34999D01*
X111299Y32500D02*
X112132D01*
X111716D01*
Y34999D01*
X111299Y34583D01*
X113382D02*
X113798Y34999D01*
X114631D01*
X115048Y34583D01*
Y32917D01*
X114631Y32500D01*
X113798D01*
X113382Y32917D01*
Y34583D01*
X93400Y105295D02*
Y103212D01*
X93817Y102795D01*
X94650D01*
X95066Y103212D01*
Y105295D01*
X95899Y103212D02*
X96316Y102795D01*
X97149D01*
X97565Y103212D01*
Y104878D01*
X97149Y105295D01*
X96316D01*
X95899Y104878D01*
Y104461D01*
X96316Y104045D01*
X97565D01*
X122800Y68799D02*
Y66716D01*
X123216Y66300D01*
X124050D01*
X124466Y66716D01*
Y68799D01*
X125299Y68383D02*
X125716Y68799D01*
X126549D01*
X126965Y68383D01*
Y67966D01*
X126549Y67550D01*
X126965Y67133D01*
Y66716D01*
X126549Y66300D01*
X125716D01*
X125299Y66716D01*
Y67133D01*
X125716Y67550D01*
X125299Y67966D01*
Y68383D01*
X125716Y67550D02*
X126549D01*
X150300Y142899D02*
Y140816D01*
X150716Y140400D01*
X151550D01*
X151966Y140816D01*
Y142899D01*
X152799D02*
X154465D01*
Y142483D01*
X152799Y140816D01*
Y140400D01*
X164700Y34499D02*
Y32416D01*
X165117Y32000D01*
X165950D01*
X166366Y32416D01*
Y34499D01*
X168865D02*
X168032Y34083D01*
X167199Y33250D01*
Y32416D01*
X167616Y32000D01*
X168449D01*
X168865Y32416D01*
Y32833D01*
X168449Y33250D01*
X167199D01*
X197200Y212400D02*
X194701D01*
Y213650D01*
X195117Y214066D01*
X195950D01*
X196367Y213650D01*
Y212400D01*
Y213233D02*
X197200Y214066D01*
X195117Y214899D02*
X194701Y215316D01*
Y216149D01*
X195117Y216565D01*
X195534D01*
X195950Y216149D01*
X196367Y216565D01*
X196783D01*
X197200Y216149D01*
Y215316D01*
X196783Y214899D01*
X196367D01*
X195950Y215316D01*
X195534Y214899D01*
X195117D01*
X195950Y215316D02*
Y216149D01*
X217100Y212700D02*
X214601D01*
Y213950D01*
X215017Y214366D01*
X215850D01*
X216267Y213950D01*
Y212700D01*
Y213533D02*
X217100Y214366D01*
X214601Y215199D02*
Y216865D01*
X215017D01*
X216684Y215199D01*
X217100D01*
X238700Y197300D02*
Y199799D01*
X239950D01*
X240366Y199383D01*
Y198550D01*
X239950Y198133D01*
X238700D01*
X239533D02*
X240366Y197300D01*
X242865Y199799D02*
X242032Y199383D01*
X241199Y198550D01*
Y197716D01*
X241616Y197300D01*
X242449D01*
X242865Y197716D01*
Y198133D01*
X242449Y198550D01*
X241199D01*
X238600Y201900D02*
Y204399D01*
X239850D01*
X240266Y203983D01*
Y203150D01*
X239850Y202733D01*
X238600D01*
X239433D02*
X240266Y201900D01*
X242765Y204399D02*
X241099D01*
Y203150D01*
X241932Y203566D01*
X242349D01*
X242765Y203150D01*
Y202316D01*
X242349Y201900D01*
X241516D01*
X241099Y202316D01*
X136578Y111199D02*
X135745D01*
X136162D01*
Y109116D01*
X135745Y108700D01*
X135329D01*
X134912Y109116D01*
X137411D02*
X137828Y108700D01*
X138661D01*
X139078Y109116D01*
Y110783D01*
X138661Y111199D01*
X137828D01*
X137411Y110783D01*
Y110366D01*
X137828Y109950D01*
X139078D01*
X218766Y78399D02*
X217933D01*
X218350D01*
Y76316D01*
X217933Y75900D01*
X217516D01*
X217100Y76316D01*
X219599Y77983D02*
X220016Y78399D01*
X220849D01*
X221265Y77983D01*
Y77566D01*
X220849Y77150D01*
X221265Y76733D01*
Y76316D01*
X220849Y75900D01*
X220016D01*
X219599Y76316D01*
Y76733D01*
X220016Y77150D01*
X219599Y77566D01*
Y77983D01*
X220016Y77150D02*
X220849D01*
X180500Y202099D02*
Y200016D01*
X180917Y199600D01*
X181750D01*
X182166Y200016D01*
Y202099D01*
X182999Y199600D02*
X183832D01*
X183416D01*
Y202099D01*
X182999Y201683D01*
X161600Y180800D02*
X159101D01*
Y182050D01*
X159517Y182466D01*
X160350D01*
X160767Y182050D01*
Y180800D01*
Y181633D02*
X161600Y182466D01*
Y183299D02*
Y184132D01*
Y183716D01*
X159101D01*
X159517Y183299D01*
X189200Y172600D02*
X186701D01*
Y173850D01*
X187117Y174266D01*
X187950D01*
X188367Y173850D01*
Y172600D01*
Y173433D02*
X189200Y174266D01*
X187117Y175099D02*
X186701Y175516D01*
Y176349D01*
X187117Y176765D01*
X187534D01*
X187950Y176349D01*
Y175932D01*
Y176349D01*
X188367Y176765D01*
X188784D01*
X189200Y176349D01*
Y175516D01*
X188784Y175099D01*
X207800Y177100D02*
X205301D01*
Y178350D01*
X205717Y178766D01*
X206550D01*
X206967Y178350D01*
Y177100D01*
Y177933D02*
X207800Y178766D01*
Y180849D02*
X205301D01*
X206550Y179599D01*
Y181265D01*
D76*
X173000Y140599D02*
Y138516D01*
X173416Y138100D01*
X174250D01*
X174666Y138516D01*
Y140599D01*
X176749Y138100D02*
Y140599D01*
X175499Y139350D01*
X177165D01*
M02*
