M48
;Layer_Color=9474304
;FILE_FORMAT=2:5
INCH,LZ
;TYPE=PLATED
T1F00S00C0.01181
T2F00S00C0.01200
T3F00S00C0.01800
T4F00S00C0.02000
T5F00S00C0.03000
T6F00S00C0.03543
%
T01
X0166614Y0094803
X0169764
X0172913
Y0097953
Y0101102
X0169764
Y0097953
X0166614
Y0101102
Y0104252
X0169764
X0172913
Y0107402
X0169764
X0166614
X0163465
X0160315
Y0104252
X0163465
Y0101102
X0160315
X0176063Y0097953
X0179213
X0182362
X0185512
X0188661
Y0101102
X0191811
Y0097953
X0194961
Y0101102
X019811
X020126
Y0104252
Y0107402
X019811
X0194961
Y0104252
X019811
X0191811
Y0107402
X0188661
Y0104252
Y0094803
X0185512
X0182362
X0179213
X0176063
X0191811
X0194961
Y0110551
X019811
X020126
Y0113701
Y011685
Y012
X019811
X0194961
Y012315
Y0126299
X0191811
Y012315
Y012
Y011685
Y0113701
X0194961
X019811
Y011685
X0194961
X0188661
Y0113701
Y0110551
X0191811
X0188661Y012
Y012315
Y0126299
X0185512
Y012315
X0182362
Y0126299
X0179213
Y012315
X0176063
Y0126299
X0172913
X0169764
Y012315
X0172913
Y012
X0169764
Y011685
X0172913
Y0113701
X0169764
X0166614
Y011685
Y012
Y012315
Y0126299
X0163465Y012
X0160315
Y011685
X0163465
Y0113701
X0160315
Y0110551
X0163465
X0166614
X0169764
X0172913
T02
X0154991Y0041165
X0170787Y0047087
X018255Y0047904
X0192393Y0048237
X0204095Y0048583
X0214833Y0041165
X0210079Y0078071
X0204606Y0077638
X0197907Y0078423
X0192403Y0077402
X0180936Y0077464
X0174676Y0080535
X0164331Y0079331
X0164173Y0084252
X0168032Y0086339
X0165791Y0090828
X017363Y0062031
X0219443Y0097047
Y0100591
Y0104134
Y0107677
X014437Y0108189
Y0104252
X0135315Y0065197
X0100039Y0044094
X0119558Y0126858
X0115227Y0131582
X0142835Y0125157
X0140787Y0120346
X014437Y0118858
Y0115512
Y0112008
X0134912Y0156519
X0160197Y0149291
X0168504Y0141425
X0174252Y0141024
X0178071Y0131575
X0161811Y0127717
X0146181
X0189803Y0142165
X0193465
X0197008Y0142362
X0219443Y013248
Y0128937
Y0125394
Y012185
Y0118307
Y0114764
Y0111221
X022252Y0178532
X0194528Y0184016
X0175984Y0201024
T03
X0156102Y0056417
X0152629Y0072661
X0124563Y0060583
X0123389Y0048364
X0089016Y0031653
X0084912Y0105204
X0107609Y0097004
X0117196Y0141425
X0113819Y016437
X0089724Y015374
X0084244Y015469
X0141999Y0152189
X0189243Y0158094
X0184519Y0166756
X0203013Y0170625
X0197823Y0177154
X0211741Y0177639
X0216885Y0177483
X0232638Y0182992
T04
X0150748Y0093228
X0201102Y0125
X0201142Y0130354
T05
X0152Y0011297
Y0021297
X0162001
X0172001
X0182001
X0192
X0202
X0212
X0222001
X0232
Y0011297
X0222001
X0212
X0202
X0192
X0182001
X0172001
X0162001
X0142
Y0021297
X0132001
X0122001
Y0011297
X0132001
X0112001
Y0021297
X0102
X0092001
X0082
X0072
X0062001
X0052
X0042
X0032
X0022001
X0012
Y0011297
X0022001
X0032
X0042
X0052
X0062001
X0072
X0082
X0092001
X0102
T06
X0231496Y0084488
X012563Y009815
X0122Y0201297
X0112
X0102
X0092
X0082
X0072
X0062
X0052
X0042
X0032
X0022
X0012
Y0211297
X0022
X0032
X0042
X0052
X0062
X0072
X0082
X0092
X0102
X0112
X0122
X0132
Y0201297
X0142
Y0211297
X0152
Y0201297
X0162
Y0211297
M30
