G04 Layer_Color=8421504*
%FSLAX25Y25*%
%MOIN*%
G70*
G01*
G75*
%ADD10R,0.05709X0.02165*%
%ADD11R,0.05709X0.02165*%
%ADD12O,0.09843X0.02756*%
%ADD13R,0.05500X0.05500*%
%ADD14R,0.02165X0.05709*%
%ADD15R,0.02165X0.05709*%
%ADD16O,0.00984X0.08709*%
%ADD17R,0.02756X0.05118*%
%ADD18R,0.02362X0.01969*%
%ADD19R,0.01969X0.02362*%
%ADD20R,0.03937X0.03937*%
D10*
X116891Y47544D02*
D03*
Y40064D02*
D03*
X108426D02*
D03*
Y43804D02*
D03*
D11*
X108426Y47544D02*
D03*
D12*
X105581Y131858D02*
D03*
Y136858D02*
D03*
Y116858D02*
D03*
Y126858D02*
D03*
Y141858D02*
D03*
Y121858D02*
D03*
Y111858D02*
D03*
X86290Y141858D02*
D03*
Y131858D02*
D03*
Y136858D02*
D03*
Y121858D02*
D03*
Y126858D02*
D03*
Y111858D02*
D03*
Y116858D02*
D03*
X222520Y198158D02*
D03*
Y203158D02*
D03*
Y193158D02*
D03*
Y188158D02*
D03*
X203228Y203158D02*
D03*
Y193158D02*
D03*
Y198158D02*
D03*
Y188158D02*
D03*
D13*
X135387Y87690D02*
D03*
Y73690D02*
D03*
X114887Y87690D02*
D03*
Y73690D02*
D03*
D14*
X155975Y155634D02*
D03*
X178386Y154902D02*
D03*
X203219Y155634D02*
D03*
D15*
X155975Y147169D02*
D03*
X148495Y155634D02*
D03*
X152235D02*
D03*
X148495Y147169D02*
D03*
X178386Y146437D02*
D03*
X170905Y154902D02*
D03*
X174646D02*
D03*
X170905Y146437D02*
D03*
X203219Y147169D02*
D03*
X195739Y155634D02*
D03*
X199479D02*
D03*
X195739Y147169D02*
D03*
D16*
X208141Y70224D02*
D03*
X206172D02*
D03*
X210109D02*
D03*
X200267D02*
D03*
X202235D02*
D03*
X204204D02*
D03*
X196330D02*
D03*
X198298D02*
D03*
X192393D02*
D03*
X194361D02*
D03*
X188456D02*
D03*
X190424D02*
D03*
X186487D02*
D03*
X210109Y40559D02*
D03*
X206172D02*
D03*
X208141D02*
D03*
X202235D02*
D03*
X204204D02*
D03*
X190424D02*
D03*
X192393D02*
D03*
X186487D02*
D03*
X188456D02*
D03*
X198298D02*
D03*
X200267D02*
D03*
X194361D02*
D03*
X196330D02*
D03*
X182550Y70224D02*
D03*
X180581D02*
D03*
X184519D02*
D03*
X178613D02*
D03*
X174676D02*
D03*
X176645D02*
D03*
X170739D02*
D03*
X172707D02*
D03*
X166802D02*
D03*
X168771D02*
D03*
X164833D02*
D03*
X182550Y40559D02*
D03*
X184519D02*
D03*
X176645D02*
D03*
X178613D02*
D03*
X180581D02*
D03*
X164833D02*
D03*
X166802D02*
D03*
X172707D02*
D03*
X174676D02*
D03*
X168771D02*
D03*
X170739D02*
D03*
D17*
X179724Y193858D02*
D03*
X175984D02*
D03*
X179724Y184409D02*
D03*
X172244D02*
D03*
X175984D02*
D03*
X172244Y193858D02*
D03*
D18*
X86093Y149299D02*
D03*
X82156D02*
D03*
X150669Y87283D02*
D03*
X146732D02*
D03*
X236103Y198414D02*
D03*
X232166D02*
D03*
X235709Y203138D02*
D03*
X231772D02*
D03*
X215787Y97047D02*
D03*
X211850D02*
D03*
X151496Y119055D02*
D03*
X147559D02*
D03*
X179842Y113228D02*
D03*
X175906D02*
D03*
X179803Y105984D02*
D03*
X175866D02*
D03*
X183740Y109606D02*
D03*
X179803D02*
D03*
X183740Y102598D02*
D03*
X179803D02*
D03*
X151535Y111890D02*
D03*
X147598D02*
D03*
X151535Y115551D02*
D03*
X147598D02*
D03*
X151496Y107992D02*
D03*
X147559D02*
D03*
X151614Y104213D02*
D03*
X147677D02*
D03*
X215869Y111343D02*
D03*
X211932D02*
D03*
X215787Y107677D02*
D03*
X211850D02*
D03*
X215787Y100591D02*
D03*
X211850D02*
D03*
X215787Y104134D02*
D03*
X211850D02*
D03*
X215787Y125394D02*
D03*
X211850D02*
D03*
X215787Y121850D02*
D03*
X211850D02*
D03*
X215787Y132480D02*
D03*
X211850D02*
D03*
X215787Y128937D02*
D03*
X211850D02*
D03*
X215787Y114764D02*
D03*
X211850D02*
D03*
X215787Y118307D02*
D03*
X211850D02*
D03*
X156172Y162819D02*
D03*
X152235D02*
D03*
X178613Y161638D02*
D03*
X174676D02*
D03*
X203416Y162031D02*
D03*
X199479D02*
D03*
D19*
X123367Y43591D02*
D03*
Y39654D02*
D03*
X202244Y181091D02*
D03*
Y177154D02*
D03*
X187008Y184331D02*
D03*
Y180394D02*
D03*
X175984Y175433D02*
D03*
Y171496D02*
D03*
X164606Y184449D02*
D03*
Y180512D02*
D03*
X195158Y192902D02*
D03*
Y188965D02*
D03*
X197117Y138409D02*
D03*
Y134472D02*
D03*
X203740Y95315D02*
D03*
Y91378D02*
D03*
X199646Y95354D02*
D03*
Y91417D02*
D03*
X156172Y64000D02*
D03*
Y60063D02*
D03*
X157353Y83685D02*
D03*
Y79748D02*
D03*
X160897Y83685D02*
D03*
Y79748D02*
D03*
X163898Y137953D02*
D03*
Y134016D02*
D03*
X168543Y138031D02*
D03*
Y134095D02*
D03*
X174252Y137913D02*
D03*
Y133976D02*
D03*
X186417Y138268D02*
D03*
Y134331D02*
D03*
X182638Y138150D02*
D03*
Y134213D02*
D03*
X193574Y138409D02*
D03*
Y134472D02*
D03*
X190030Y138409D02*
D03*
Y134472D02*
D03*
X163976Y146260D02*
D03*
Y142323D02*
D03*
X185000Y150469D02*
D03*
Y146531D02*
D03*
X209322Y151008D02*
D03*
Y147071D02*
D03*
X189000Y150469D02*
D03*
Y146531D02*
D03*
D20*
X202059Y218390D02*
D03*
Y212091D02*
D03*
X209922Y218454D02*
D03*
Y212154D02*
D03*
M02*
