G04 Layer_Physical_Order=2*
G04 Layer_Color=16711680*
%FSLAX25Y25*%
%MOIN*%
G70*
G01*
G75*
%ADD21C,0.01000*%
%ADD22C,0.00600*%
%ADD23C,0.00500*%
%ADD61R,0.05906X0.05906*%
%ADD62C,0.04000*%
%ADD63C,0.05906*%
%ADD64C,0.01378*%
%ADD65C,0.06000*%
%ADD66R,0.06000X0.06000*%
%ADD67C,0.03600*%
%ADD68C,0.02400*%
%ADD69R,0.08425X0.10433*%
%ADD70R,0.07323X0.08110*%
%ADD71R,0.10827X0.05079*%
%ADD72R,0.05118X0.03150*%
%ADD73R,0.01811X0.06772*%
%ADD74R,0.03740X0.01811*%
%ADD75R,0.06732X0.10591*%
%ADD76R,0.04134X0.15748*%
%ADD77R,0.06299X0.03150*%
%ADD78R,0.03150X0.03150*%
G36*
X18805Y61181D02*
X17960D01*
Y159904D01*
X18805D01*
Y61181D01*
D02*
G37*
G36*
X243047Y988D02*
X847D01*
Y59346D01*
X19617D01*
X19969Y59416D01*
X20266Y59615D01*
X20372Y59721D01*
X20571Y60018D01*
X20641Y60370D01*
Y160292D01*
X20571Y160643D01*
X20372Y160941D01*
X19843Y161470D01*
X19545Y161669D01*
X19194Y161739D01*
X953D01*
Y222042D01*
X243047D01*
Y988D01*
D02*
G37*
%LPC*%
G36*
X183050Y50048D02*
Y48404D01*
X184694D01*
X184622Y48763D01*
X184136Y49490D01*
X183408Y49977D01*
X183050Y50048D01*
D02*
G37*
G36*
X191893Y50381D02*
X191534Y50310D01*
X190806Y49823D01*
X190320Y49096D01*
X190249Y48737D01*
X191893D01*
Y50381D01*
D02*
G37*
G36*
X182050Y50048D02*
X181692Y49977D01*
X180964Y49490D01*
X180478Y48763D01*
X180406Y48404D01*
X182050D01*
Y50048D01*
D02*
G37*
G36*
X170287Y49230D02*
X169929Y49159D01*
X169201Y48673D01*
X168715Y47945D01*
X168644Y47587D01*
X170287D01*
Y49230D01*
D02*
G37*
G36*
X171287D02*
Y47587D01*
X172931D01*
X172860Y47945D01*
X172373Y48673D01*
X171646Y49159D01*
X171287Y49230D01*
D02*
G37*
G36*
X192893Y50381D02*
Y48737D01*
X194536D01*
X194465Y49096D01*
X193979Y49823D01*
X193251Y50310D01*
X192893Y50381D01*
D02*
G37*
G36*
X155602Y59176D02*
X155371Y59145D01*
X154690Y58863D01*
X154105Y58414D01*
X153657Y57829D01*
X153374Y57148D01*
X153344Y56917D01*
X155602D01*
Y59176D01*
D02*
G37*
G36*
X156602D02*
Y56917D01*
X158861D01*
X158830Y57148D01*
X158548Y57829D01*
X158099Y58414D01*
X157514Y58863D01*
X156833Y59145D01*
X156602Y59176D01*
D02*
G37*
G36*
X200997Y56123D02*
X200997Y56123D01*
X168827D01*
X168827Y56123D01*
X168398Y56038D01*
X168034Y55794D01*
X155199Y42959D01*
X154991Y43000D01*
X154289Y42861D01*
X153693Y42463D01*
X153295Y41868D01*
X153156Y41165D01*
X153295Y40463D01*
X153693Y39867D01*
X154289Y39470D01*
X154991Y39330D01*
X155693Y39470D01*
X156289Y39867D01*
X156687Y40463D01*
X156826Y41165D01*
X156785Y41373D01*
X169292Y53880D01*
X200533D01*
X203278Y51134D01*
X203125Y50581D01*
X202508Y50169D01*
X202022Y49441D01*
X201951Y49083D01*
X204095D01*
Y48583D01*
X204594D01*
Y46439D01*
X204953Y46510D01*
X205681Y46997D01*
X206093Y47613D01*
X206646Y47766D01*
X213040Y41373D01*
X212998Y41165D01*
X213138Y40463D01*
X213536Y39867D01*
X214131Y39470D01*
X214833Y39330D01*
X215536Y39470D01*
X216131Y39867D01*
X216529Y40463D01*
X216669Y41165D01*
X216529Y41868D01*
X216131Y42463D01*
X215536Y42861D01*
X214833Y43000D01*
X214626Y42959D01*
X201790Y55794D01*
X201427Y56038D01*
X200997Y56123D01*
D02*
G37*
G36*
X155602Y55917D02*
X153344D01*
X153374Y55686D01*
X153657Y55005D01*
X154105Y54420D01*
X154690Y53971D01*
X155371Y53689D01*
X155602Y53659D01*
Y55917D01*
D02*
G37*
G36*
X158861D02*
X156602D01*
Y53659D01*
X156833Y53689D01*
X157514Y53971D01*
X158099Y54420D01*
X158548Y55005D01*
X158830Y55686D01*
X158861Y55917D01*
D02*
G37*
G36*
X203594Y48083D02*
X201951D01*
X202022Y47724D01*
X202508Y46997D01*
X203236Y46510D01*
X203594Y46439D01*
Y48083D01*
D02*
G37*
G36*
X99539Y46238D02*
X99181Y46167D01*
X98453Y45681D01*
X97967Y44953D01*
X97896Y44594D01*
X99539D01*
Y46238D01*
D02*
G37*
G36*
X100539D02*
Y44594D01*
X102183D01*
X102112Y44953D01*
X101626Y45681D01*
X100898Y46167D01*
X100539Y46238D01*
D02*
G37*
G36*
X170287Y46587D02*
X168644D01*
X168715Y46228D01*
X169201Y45500D01*
X169929Y45014D01*
X170287Y44943D01*
Y46587D01*
D02*
G37*
G36*
X84744Y157448D02*
Y154690D01*
Y151932D01*
X84975Y151962D01*
X85656Y152244D01*
X86241Y152693D01*
X86690Y153278D01*
X86804Y153555D01*
X87325Y153503D01*
X87464Y152804D01*
X87994Y152010D01*
X88788Y151479D01*
X88807Y151476D01*
Y34059D01*
X88079Y33914D01*
X87286Y33384D01*
X86755Y32590D01*
X86569Y31653D01*
X86755Y30717D01*
X87286Y29923D01*
X88079Y29393D01*
X89016Y29206D01*
X89952Y29393D01*
X90746Y29923D01*
X91277Y30717D01*
X91463Y31653D01*
X91277Y32590D01*
X90746Y33384D01*
X90642Y33453D01*
Y151476D01*
X90661Y151479D01*
X91455Y152010D01*
X91985Y152804D01*
X92171Y153740D01*
X91985Y154677D01*
X91455Y155471D01*
X90661Y156001D01*
X89724Y156187D01*
X88788Y156001D01*
X87994Y155471D01*
X87556Y154815D01*
X87039Y154910D01*
X86972Y155421D01*
X86690Y156102D01*
X86241Y156687D01*
X85656Y157136D01*
X84975Y157418D01*
X84744Y157448D01*
D02*
G37*
G36*
X99539Y43595D02*
X97896D01*
X97967Y43236D01*
X98453Y42508D01*
X99181Y42022D01*
X99539Y41951D01*
Y43595D01*
D02*
G37*
G36*
X102183D02*
X100539D01*
Y41951D01*
X100898Y42022D01*
X101626Y42508D01*
X102112Y43236D01*
X102183Y43595D01*
D02*
G37*
G36*
X124563Y63030D02*
X123626Y62844D01*
X122832Y62313D01*
X122302Y61519D01*
X122116Y60583D01*
X122302Y59646D01*
X122832Y58852D01*
X123441Y58446D01*
Y50854D01*
X123389Y50811D01*
X122452Y50625D01*
X121658Y50094D01*
X121128Y49300D01*
X120942Y48364D01*
X121128Y47428D01*
X121658Y46634D01*
X122452Y46103D01*
X123389Y45917D01*
X124325Y46103D01*
X125119Y46634D01*
X125649Y47428D01*
X125836Y48364D01*
X125649Y49300D01*
X125427Y49633D01*
X125599Y49890D01*
X125684Y50320D01*
Y58446D01*
X126293Y58852D01*
X126823Y59646D01*
X127010Y60583D01*
X126823Y61519D01*
X126293Y62313D01*
X125499Y62844D01*
X124563Y63030D01*
D02*
G37*
G36*
X191893Y47737D02*
X190249D01*
X190320Y47379D01*
X190806Y46651D01*
X191534Y46165D01*
X191893Y46094D01*
Y47737D01*
D02*
G37*
G36*
X194536D02*
X192893D01*
Y46094D01*
X193251Y46165D01*
X193979Y46651D01*
X194465Y47379D01*
X194536Y47737D01*
D02*
G37*
G36*
X172931Y46587D02*
X171287D01*
Y44943D01*
X171646Y45014D01*
X172373Y45500D01*
X172860Y46228D01*
X172931Y46587D01*
D02*
G37*
G36*
X182050Y47404D02*
X180406D01*
X180478Y47046D01*
X180964Y46318D01*
X181692Y45832D01*
X182050Y45761D01*
Y47404D01*
D02*
G37*
G36*
X184694D02*
X183050D01*
Y45761D01*
X183408Y45832D01*
X184136Y46318D01*
X184622Y47046D01*
X184694Y47404D01*
D02*
G37*
G36*
X134815Y64697D02*
X133171D01*
X133243Y64338D01*
X133729Y63611D01*
X134457Y63125D01*
X134815Y63053D01*
Y64697D01*
D02*
G37*
G36*
X191903Y79545D02*
X191545Y79474D01*
X190817Y78988D01*
X190331Y78260D01*
X190260Y77902D01*
X191903D01*
Y79545D01*
D02*
G37*
G36*
X192903D02*
Y77902D01*
X194547D01*
X194476Y78260D01*
X193989Y78988D01*
X193262Y79474D01*
X192903Y79545D01*
D02*
G37*
G36*
X204106Y79781D02*
X203748Y79710D01*
X203020Y79224D01*
X202534Y78496D01*
X202463Y78138D01*
X204106D01*
Y79781D01*
D02*
G37*
G36*
X212222Y77571D02*
X210579D01*
Y75927D01*
X210937Y75999D01*
X211665Y76485D01*
X212151Y77213D01*
X212222Y77571D01*
D02*
G37*
G36*
X163831Y78831D02*
X162187D01*
X162258Y78472D01*
X162745Y77745D01*
X163472Y77258D01*
X163831Y77187D01*
Y78831D01*
D02*
G37*
G36*
X166474D02*
X164831D01*
Y77187D01*
X165189Y77258D01*
X165917Y77745D01*
X166403Y78472D01*
X166474Y78831D01*
D02*
G37*
G36*
X163831Y81474D02*
X163472Y81403D01*
X162745Y80917D01*
X162258Y80189D01*
X162187Y79831D01*
X163831D01*
Y81474D01*
D02*
G37*
G36*
X164831D02*
Y79831D01*
X166474D01*
X166403Y80189D01*
X165917Y80917D01*
X165189Y81403D01*
X164831Y81474D01*
D02*
G37*
G36*
X235049Y88041D02*
X227943D01*
Y80935D01*
X235049D01*
Y88041D01*
D02*
G37*
G36*
X205106Y79781D02*
Y78138D01*
X206750D01*
X206679Y78496D01*
X206192Y79224D01*
X205465Y79710D01*
X205106Y79781D01*
D02*
G37*
G36*
X209579Y80215D02*
X209220Y80143D01*
X208493Y79657D01*
X208006Y78929D01*
X207935Y78571D01*
X209579D01*
Y80215D01*
D02*
G37*
G36*
X210579D02*
Y78571D01*
X212222D01*
X212151Y78929D01*
X211665Y79657D01*
X210937Y80143D01*
X210579Y80215D01*
D02*
G37*
G36*
X209579Y77571D02*
X207935D01*
X208006Y77213D01*
X208493Y76485D01*
X209220Y75999D01*
X209579Y75927D01*
Y77571D01*
D02*
G37*
G36*
X197907Y80258D02*
X197204Y80118D01*
X196609Y79721D01*
X196211Y79125D01*
X196072Y78423D01*
X196211Y77721D01*
X196609Y77125D01*
X196648Y77100D01*
X196685Y76556D01*
X188782Y68653D01*
X179130D01*
X178701Y68568D01*
X178337Y68325D01*
X178337Y68325D01*
X173837Y63825D01*
X173630Y63867D01*
X172927Y63727D01*
X172332Y63329D01*
X171934Y62734D01*
X171794Y62031D01*
X171934Y61329D01*
X172332Y60734D01*
X172927Y60336D01*
X173630Y60196D01*
X174332Y60336D01*
X174927Y60734D01*
X175325Y61329D01*
X175465Y62031D01*
X175424Y62239D01*
X179594Y66410D01*
X189246D01*
X189246Y66410D01*
X189676Y66495D01*
X190040Y66738D01*
X198700Y75399D01*
X198700Y75399D01*
X198943Y75763D01*
X199028Y76192D01*
X199028Y76192D01*
Y77007D01*
X199205Y77125D01*
X199602Y77721D01*
X199742Y78423D01*
X199602Y79125D01*
X199205Y79721D01*
X198609Y80118D01*
X197907Y80258D01*
D02*
G37*
G36*
X152129Y72161D02*
X149871D01*
X149901Y71930D01*
X150183Y71249D01*
X150632Y70664D01*
X151217Y70215D01*
X151898Y69933D01*
X152129Y69903D01*
Y72161D01*
D02*
G37*
G36*
X155387D02*
X153129D01*
Y69903D01*
X153360Y69933D01*
X154041Y70215D01*
X154626Y70664D01*
X155075Y71249D01*
X155357Y71930D01*
X155387Y72161D01*
D02*
G37*
G36*
X137459Y64697D02*
X135815D01*
Y63053D01*
X136173Y63125D01*
X136901Y63611D01*
X137387Y64338D01*
X137459Y64697D01*
D02*
G37*
G36*
X134815Y67340D02*
X134457Y67269D01*
X133729Y66783D01*
X133243Y66055D01*
X133171Y65697D01*
X134815D01*
Y67340D01*
D02*
G37*
G36*
X135815D02*
Y65697D01*
X137459D01*
X137387Y66055D01*
X136901Y66783D01*
X136173Y67269D01*
X135815Y67340D01*
D02*
G37*
G36*
X194547Y76902D02*
X192903D01*
Y75258D01*
X193262Y75330D01*
X193989Y75816D01*
X194476Y76543D01*
X194547Y76902D01*
D02*
G37*
G36*
X204106Y77138D02*
X202463D01*
X202534Y76779D01*
X203020Y76052D01*
X203748Y75565D01*
X204106Y75494D01*
Y77138D01*
D02*
G37*
G36*
X206750D02*
X205106D01*
Y75494D01*
X205465Y75565D01*
X206192Y76052D01*
X206679Y76779D01*
X206750Y77138D01*
D02*
G37*
G36*
X152129Y75420D02*
X151898Y75389D01*
X151217Y75107D01*
X150632Y74658D01*
X150183Y74073D01*
X149901Y73392D01*
X149871Y73161D01*
X152129D01*
Y75420D01*
D02*
G37*
G36*
X153129D02*
Y73161D01*
X155387D01*
X155357Y73392D01*
X155075Y74073D01*
X154626Y74658D01*
X154041Y75107D01*
X153360Y75389D01*
X153129Y75420D01*
D02*
G37*
G36*
X191903Y76902D02*
X190260D01*
X190331Y76543D01*
X190817Y75816D01*
X191545Y75330D01*
X191903Y75258D01*
Y76902D01*
D02*
G37*
G36*
X16001Y25297D02*
X12501D01*
Y21797D01*
X16001D01*
Y25297D01*
D02*
G37*
G36*
X162001Y14928D02*
X161061Y14804D01*
X160185Y14442D01*
X159433Y13864D01*
X158856Y13113D01*
X158493Y12237D01*
X158369Y11297D01*
X158493Y10357D01*
X158856Y9481D01*
X159433Y8729D01*
X160185Y8152D01*
X161061Y7790D01*
X162001Y7666D01*
X162940Y7790D01*
X163816Y8152D01*
X164568Y8729D01*
X165145Y9481D01*
X165508Y10357D01*
X165631Y11297D01*
X165508Y12237D01*
X165145Y13113D01*
X164568Y13864D01*
X163816Y14442D01*
X162940Y14804D01*
X162001Y14928D01*
D02*
G37*
G36*
X172001D02*
X171061Y14804D01*
X170185Y14442D01*
X169433Y13864D01*
X168856Y13113D01*
X168493Y12237D01*
X168369Y11297D01*
X168493Y10357D01*
X168856Y9481D01*
X169433Y8729D01*
X170185Y8152D01*
X171061Y7790D01*
X172001Y7666D01*
X172940Y7790D01*
X173816Y8152D01*
X174568Y8729D01*
X175145Y9481D01*
X175508Y10357D01*
X175631Y11297D01*
X175508Y12237D01*
X175145Y13113D01*
X174568Y13864D01*
X173816Y14442D01*
X172940Y14804D01*
X172001Y14928D01*
D02*
G37*
G36*
X182001D02*
X181061Y14804D01*
X180185Y14442D01*
X179433Y13864D01*
X178856Y13113D01*
X178493Y12237D01*
X178369Y11297D01*
X178493Y10357D01*
X178856Y9481D01*
X179433Y8729D01*
X180185Y8152D01*
X181061Y7790D01*
X182001Y7666D01*
X182940Y7790D01*
X183816Y8152D01*
X184568Y8729D01*
X185145Y9481D01*
X185508Y10357D01*
X185632Y11297D01*
X185508Y12237D01*
X185145Y13113D01*
X184568Y13864D01*
X183816Y14442D01*
X182940Y14804D01*
X182001Y14928D01*
D02*
G37*
G36*
X132001D02*
X131061Y14804D01*
X130185Y14442D01*
X129433Y13864D01*
X128856Y13113D01*
X128493Y12237D01*
X128369Y11297D01*
X128493Y10357D01*
X128856Y9481D01*
X129433Y8729D01*
X130185Y8152D01*
X131061Y7790D01*
X132001Y7666D01*
X132940Y7790D01*
X133816Y8152D01*
X134568Y8729D01*
X135145Y9481D01*
X135508Y10357D01*
X135632Y11297D01*
X135508Y12237D01*
X135145Y13113D01*
X134568Y13864D01*
X133816Y14442D01*
X132940Y14804D01*
X132001Y14928D01*
D02*
G37*
G36*
X142000D02*
X141061Y14804D01*
X140185Y14442D01*
X139433Y13864D01*
X138856Y13113D01*
X138493Y12237D01*
X138369Y11297D01*
X138493Y10357D01*
X138856Y9481D01*
X139433Y8729D01*
X140185Y8152D01*
X141061Y7790D01*
X142000Y7666D01*
X142940Y7790D01*
X143816Y8152D01*
X144568Y8729D01*
X145145Y9481D01*
X145508Y10357D01*
X145632Y11297D01*
X145508Y12237D01*
X145145Y13113D01*
X144568Y13864D01*
X143816Y14442D01*
X142940Y14804D01*
X142000Y14928D01*
D02*
G37*
G36*
X152000D02*
X151061Y14804D01*
X150185Y14442D01*
X149433Y13864D01*
X148856Y13113D01*
X148493Y12237D01*
X148369Y11297D01*
X148493Y10357D01*
X148856Y9481D01*
X149433Y8729D01*
X150185Y8152D01*
X151061Y7790D01*
X152000Y7666D01*
X152940Y7790D01*
X153816Y8152D01*
X154568Y8729D01*
X155145Y9481D01*
X155508Y10357D01*
X155631Y11297D01*
X155508Y12237D01*
X155145Y13113D01*
X154568Y13864D01*
X153816Y14442D01*
X152940Y14804D01*
X152000Y14928D01*
D02*
G37*
G36*
X222001D02*
X221061Y14804D01*
X220185Y14442D01*
X219433Y13864D01*
X218856Y13113D01*
X218493Y12237D01*
X218369Y11297D01*
X218493Y10357D01*
X218856Y9481D01*
X219433Y8729D01*
X220185Y8152D01*
X221061Y7790D01*
X222001Y7666D01*
X222940Y7790D01*
X223816Y8152D01*
X224568Y8729D01*
X225145Y9481D01*
X225508Y10357D01*
X225631Y11297D01*
X225508Y12237D01*
X225145Y13113D01*
X224568Y13864D01*
X223816Y14442D01*
X222940Y14804D01*
X222001Y14928D01*
D02*
G37*
G36*
X232000D02*
X231061Y14804D01*
X230185Y14442D01*
X229433Y13864D01*
X228856Y13113D01*
X228493Y12237D01*
X228369Y11297D01*
X228493Y10357D01*
X228856Y9481D01*
X229433Y8729D01*
X230185Y8152D01*
X231061Y7790D01*
X232000Y7666D01*
X232940Y7790D01*
X233816Y8152D01*
X234568Y8729D01*
X235145Y9481D01*
X235508Y10357D01*
X235631Y11297D01*
X235508Y12237D01*
X235145Y13113D01*
X234568Y13864D01*
X233816Y14442D01*
X232940Y14804D01*
X232000Y14928D01*
D02*
G37*
G36*
X11501Y15266D02*
X10956Y15194D01*
X9983Y14791D01*
X9148Y14150D01*
X8506Y13314D01*
X8103Y12341D01*
X8032Y11797D01*
X11501D01*
Y15266D01*
D02*
G37*
G36*
X192000Y14928D02*
X191061Y14804D01*
X190185Y14442D01*
X189433Y13864D01*
X188856Y13113D01*
X188493Y12237D01*
X188369Y11297D01*
X188493Y10357D01*
X188856Y9481D01*
X189433Y8729D01*
X190185Y8152D01*
X191061Y7790D01*
X192000Y7666D01*
X192940Y7790D01*
X193816Y8152D01*
X194568Y8729D01*
X195145Y9481D01*
X195508Y10357D01*
X195632Y11297D01*
X195508Y12237D01*
X195145Y13113D01*
X194568Y13864D01*
X193816Y14442D01*
X192940Y14804D01*
X192000Y14928D01*
D02*
G37*
G36*
X202000D02*
X201061Y14804D01*
X200185Y14442D01*
X199433Y13864D01*
X198856Y13113D01*
X198493Y12237D01*
X198369Y11297D01*
X198493Y10357D01*
X198856Y9481D01*
X199433Y8729D01*
X200185Y8152D01*
X201061Y7790D01*
X202000Y7666D01*
X202940Y7790D01*
X203816Y8152D01*
X204568Y8729D01*
X205145Y9481D01*
X205508Y10357D01*
X205631Y11297D01*
X205508Y12237D01*
X205145Y13113D01*
X204568Y13864D01*
X203816Y14442D01*
X202940Y14804D01*
X202000Y14928D01*
D02*
G37*
G36*
X212000D02*
X211061Y14804D01*
X210185Y14442D01*
X209433Y13864D01*
X208856Y13113D01*
X208493Y12237D01*
X208369Y11297D01*
X208493Y10357D01*
X208856Y9481D01*
X209433Y8729D01*
X210185Y8152D01*
X211061Y7790D01*
X212000Y7666D01*
X212940Y7790D01*
X213816Y8152D01*
X214568Y8729D01*
X215145Y9481D01*
X215508Y10357D01*
X215632Y11297D01*
X215508Y12237D01*
X215145Y13113D01*
X214568Y13864D01*
X213816Y14442D01*
X212940Y14804D01*
X212000Y14928D01*
D02*
G37*
G36*
X122001D02*
X121061Y14804D01*
X120185Y14442D01*
X119433Y13864D01*
X118856Y13113D01*
X118493Y12237D01*
X118369Y11297D01*
X118493Y10357D01*
X118856Y9481D01*
X119433Y8729D01*
X120185Y8152D01*
X121061Y7790D01*
X122001Y7666D01*
X122940Y7790D01*
X123816Y8152D01*
X124568Y8729D01*
X125145Y9481D01*
X125508Y10357D01*
X125631Y11297D01*
X125508Y12237D01*
X125145Y13113D01*
X124568Y13864D01*
X123816Y14442D01*
X122940Y14804D01*
X122001Y14928D01*
D02*
G37*
G36*
X32000D02*
X31061Y14804D01*
X30185Y14442D01*
X29433Y13864D01*
X28856Y13113D01*
X28493Y12237D01*
X28369Y11297D01*
X28493Y10357D01*
X28856Y9481D01*
X29433Y8729D01*
X30185Y8152D01*
X31061Y7790D01*
X32000Y7666D01*
X32940Y7790D01*
X33816Y8152D01*
X34568Y8729D01*
X35145Y9481D01*
X35508Y10357D01*
X35631Y11297D01*
X35508Y12237D01*
X35145Y13113D01*
X34568Y13864D01*
X33816Y14442D01*
X32940Y14804D01*
X32000Y14928D01*
D02*
G37*
G36*
X42000D02*
X41061Y14804D01*
X40185Y14442D01*
X39433Y13864D01*
X38856Y13113D01*
X38493Y12237D01*
X38369Y11297D01*
X38493Y10357D01*
X38856Y9481D01*
X39433Y8729D01*
X40185Y8152D01*
X41061Y7790D01*
X42000Y7666D01*
X42940Y7790D01*
X43816Y8152D01*
X44568Y8729D01*
X45145Y9481D01*
X45508Y10357D01*
X45632Y11297D01*
X45508Y12237D01*
X45145Y13113D01*
X44568Y13864D01*
X43816Y14442D01*
X42940Y14804D01*
X42000Y14928D01*
D02*
G37*
G36*
X52000D02*
X51061Y14804D01*
X50185Y14442D01*
X49433Y13864D01*
X48856Y13113D01*
X48493Y12237D01*
X48369Y11297D01*
X48493Y10357D01*
X48856Y9481D01*
X49433Y8729D01*
X50185Y8152D01*
X51061Y7790D01*
X52000Y7666D01*
X52940Y7790D01*
X53816Y8152D01*
X54568Y8729D01*
X55145Y9481D01*
X55508Y10357D01*
X55632Y11297D01*
X55508Y12237D01*
X55145Y13113D01*
X54568Y13864D01*
X53816Y14442D01*
X52940Y14804D01*
X52000Y14928D01*
D02*
G37*
G36*
X11501Y10797D02*
X8032D01*
X8103Y10253D01*
X8506Y9280D01*
X9148Y8444D01*
X9983Y7803D01*
X10956Y7400D01*
X11501Y7328D01*
Y10797D01*
D02*
G37*
G36*
X15969D02*
X12501D01*
Y7328D01*
X13045Y7400D01*
X14018Y7803D01*
X14853Y8444D01*
X15495Y9280D01*
X15898Y10253D01*
X15969Y10797D01*
D02*
G37*
G36*
X22001Y14928D02*
X21061Y14804D01*
X20185Y14442D01*
X19433Y13864D01*
X18856Y13113D01*
X18493Y12237D01*
X18369Y11297D01*
X18493Y10357D01*
X18856Y9481D01*
X19433Y8729D01*
X20185Y8152D01*
X21061Y7790D01*
X22001Y7666D01*
X22940Y7790D01*
X23816Y8152D01*
X24568Y8729D01*
X25145Y9481D01*
X25508Y10357D01*
X25631Y11297D01*
X25508Y12237D01*
X25145Y13113D01*
X24568Y13864D01*
X23816Y14442D01*
X22940Y14804D01*
X22001Y14928D01*
D02*
G37*
G36*
X92001D02*
X91061Y14804D01*
X90185Y14442D01*
X89433Y13864D01*
X88856Y13113D01*
X88493Y12237D01*
X88369Y11297D01*
X88493Y10357D01*
X88856Y9481D01*
X89433Y8729D01*
X90185Y8152D01*
X91061Y7790D01*
X92001Y7666D01*
X92940Y7790D01*
X93816Y8152D01*
X94568Y8729D01*
X95145Y9481D01*
X95508Y10357D01*
X95631Y11297D01*
X95508Y12237D01*
X95145Y13113D01*
X94568Y13864D01*
X93816Y14442D01*
X92940Y14804D01*
X92001Y14928D01*
D02*
G37*
G36*
X102000D02*
X101061Y14804D01*
X100185Y14442D01*
X99433Y13864D01*
X98856Y13113D01*
X98493Y12237D01*
X98369Y11297D01*
X98493Y10357D01*
X98856Y9481D01*
X99433Y8729D01*
X100185Y8152D01*
X101061Y7790D01*
X102000Y7666D01*
X102940Y7790D01*
X103816Y8152D01*
X104568Y8729D01*
X105145Y9481D01*
X105508Y10357D01*
X105631Y11297D01*
X105508Y12237D01*
X105145Y13113D01*
X104568Y13864D01*
X103816Y14442D01*
X102940Y14804D01*
X102000Y14928D01*
D02*
G37*
G36*
X112001D02*
X111061Y14804D01*
X110185Y14442D01*
X109433Y13864D01*
X108856Y13113D01*
X108493Y12237D01*
X108369Y11297D01*
X108493Y10357D01*
X108856Y9481D01*
X109433Y8729D01*
X110185Y8152D01*
X111061Y7790D01*
X112001Y7666D01*
X112940Y7790D01*
X113816Y8152D01*
X114568Y8729D01*
X115145Y9481D01*
X115508Y10357D01*
X115631Y11297D01*
X115508Y12237D01*
X115145Y13113D01*
X114568Y13864D01*
X113816Y14442D01*
X112940Y14804D01*
X112001Y14928D01*
D02*
G37*
G36*
X62001D02*
X61061Y14804D01*
X60185Y14442D01*
X59433Y13864D01*
X58856Y13113D01*
X58493Y12237D01*
X58369Y11297D01*
X58493Y10357D01*
X58856Y9481D01*
X59433Y8729D01*
X60185Y8152D01*
X61061Y7790D01*
X62001Y7666D01*
X62940Y7790D01*
X63816Y8152D01*
X64568Y8729D01*
X65145Y9481D01*
X65508Y10357D01*
X65632Y11297D01*
X65508Y12237D01*
X65145Y13113D01*
X64568Y13864D01*
X63816Y14442D01*
X62940Y14804D01*
X62001Y14928D01*
D02*
G37*
G36*
X72000D02*
X71061Y14804D01*
X70185Y14442D01*
X69433Y13864D01*
X68856Y13113D01*
X68493Y12237D01*
X68369Y11297D01*
X68493Y10357D01*
X68856Y9481D01*
X69433Y8729D01*
X70185Y8152D01*
X71061Y7790D01*
X72000Y7666D01*
X72940Y7790D01*
X73816Y8152D01*
X74568Y8729D01*
X75145Y9481D01*
X75508Y10357D01*
X75631Y11297D01*
X75508Y12237D01*
X75145Y13113D01*
X74568Y13864D01*
X73816Y14442D01*
X72940Y14804D01*
X72000Y14928D01*
D02*
G37*
G36*
X82000D02*
X81061Y14804D01*
X80185Y14442D01*
X79433Y13864D01*
X78856Y13113D01*
X78493Y12237D01*
X78369Y11297D01*
X78493Y10357D01*
X78856Y9481D01*
X79433Y8729D01*
X80185Y8152D01*
X81061Y7790D01*
X82000Y7666D01*
X82940Y7790D01*
X83816Y8152D01*
X84568Y8729D01*
X85145Y9481D01*
X85508Y10357D01*
X85632Y11297D01*
X85508Y12237D01*
X85145Y13113D01*
X84568Y13864D01*
X83816Y14442D01*
X82940Y14804D01*
X82000Y14928D01*
D02*
G37*
G36*
X12501Y15266D02*
Y11797D01*
X15969D01*
X15898Y12341D01*
X15495Y13314D01*
X14853Y14150D01*
X14018Y14791D01*
X13045Y15194D01*
X12501Y15266D01*
D02*
G37*
G36*
X162001Y24928D02*
X161061Y24804D01*
X160185Y24442D01*
X159433Y23865D01*
X158856Y23112D01*
X158493Y22237D01*
X158369Y21297D01*
X158493Y20357D01*
X158856Y19481D01*
X159433Y18729D01*
X160185Y18152D01*
X161061Y17790D01*
X162001Y17666D01*
X162940Y17790D01*
X163816Y18152D01*
X164568Y18729D01*
X165145Y19481D01*
X165508Y20357D01*
X165631Y21297D01*
X165508Y22237D01*
X165145Y23112D01*
X164568Y23865D01*
X163816Y24442D01*
X162940Y24804D01*
X162001Y24928D01*
D02*
G37*
G36*
X172001D02*
X171061Y24804D01*
X170185Y24442D01*
X169433Y23865D01*
X168856Y23112D01*
X168493Y22237D01*
X168369Y21297D01*
X168493Y20357D01*
X168856Y19481D01*
X169433Y18729D01*
X170185Y18152D01*
X171061Y17790D01*
X172001Y17666D01*
X172940Y17790D01*
X173816Y18152D01*
X174568Y18729D01*
X175145Y19481D01*
X175508Y20357D01*
X175631Y21297D01*
X175508Y22237D01*
X175145Y23112D01*
X174568Y23865D01*
X173816Y24442D01*
X172940Y24804D01*
X172001Y24928D01*
D02*
G37*
G36*
X182001D02*
X181061Y24804D01*
X180185Y24442D01*
X179433Y23865D01*
X178856Y23112D01*
X178493Y22237D01*
X178369Y21297D01*
X178493Y20357D01*
X178856Y19481D01*
X179433Y18729D01*
X180185Y18152D01*
X181061Y17790D01*
X182001Y17666D01*
X182940Y17790D01*
X183816Y18152D01*
X184568Y18729D01*
X185145Y19481D01*
X185508Y20357D01*
X185632Y21297D01*
X185508Y22237D01*
X185145Y23112D01*
X184568Y23865D01*
X183816Y24442D01*
X182940Y24804D01*
X182001Y24928D01*
D02*
G37*
G36*
X132001D02*
X131061Y24804D01*
X130185Y24442D01*
X129433Y23865D01*
X128856Y23112D01*
X128493Y22237D01*
X128369Y21297D01*
X128493Y20357D01*
X128856Y19481D01*
X129433Y18729D01*
X130185Y18152D01*
X131061Y17790D01*
X132001Y17666D01*
X132940Y17790D01*
X133816Y18152D01*
X134568Y18729D01*
X135145Y19481D01*
X135508Y20357D01*
X135632Y21297D01*
X135508Y22237D01*
X135145Y23112D01*
X134568Y23865D01*
X133816Y24442D01*
X132940Y24804D01*
X132001Y24928D01*
D02*
G37*
G36*
X142000D02*
X141061Y24804D01*
X140185Y24442D01*
X139433Y23865D01*
X138856Y23112D01*
X138493Y22237D01*
X138369Y21297D01*
X138493Y20357D01*
X138856Y19481D01*
X139433Y18729D01*
X140185Y18152D01*
X141061Y17790D01*
X142000Y17666D01*
X142940Y17790D01*
X143816Y18152D01*
X144568Y18729D01*
X145145Y19481D01*
X145508Y20357D01*
X145632Y21297D01*
X145508Y22237D01*
X145145Y23112D01*
X144568Y23865D01*
X143816Y24442D01*
X142940Y24804D01*
X142000Y24928D01*
D02*
G37*
G36*
X152000D02*
X151061Y24804D01*
X150185Y24442D01*
X149433Y23865D01*
X148856Y23112D01*
X148493Y22237D01*
X148369Y21297D01*
X148493Y20357D01*
X148856Y19481D01*
X149433Y18729D01*
X150185Y18152D01*
X151061Y17790D01*
X152000Y17666D01*
X152940Y17790D01*
X153816Y18152D01*
X154568Y18729D01*
X155145Y19481D01*
X155508Y20357D01*
X155631Y21297D01*
X155508Y22237D01*
X155145Y23112D01*
X154568Y23865D01*
X153816Y24442D01*
X152940Y24804D01*
X152000Y24928D01*
D02*
G37*
G36*
X222001D02*
X221061Y24804D01*
X220185Y24442D01*
X219433Y23865D01*
X218856Y23112D01*
X218493Y22237D01*
X218369Y21297D01*
X218493Y20357D01*
X218856Y19481D01*
X219433Y18729D01*
X220185Y18152D01*
X221061Y17790D01*
X222001Y17666D01*
X222940Y17790D01*
X223816Y18152D01*
X224568Y18729D01*
X225145Y19481D01*
X225508Y20357D01*
X225631Y21297D01*
X225508Y22237D01*
X225145Y23112D01*
X224568Y23865D01*
X223816Y24442D01*
X222940Y24804D01*
X222001Y24928D01*
D02*
G37*
G36*
X232000D02*
X231061Y24804D01*
X230185Y24442D01*
X229433Y23865D01*
X228856Y23112D01*
X228493Y22237D01*
X228369Y21297D01*
X228493Y20357D01*
X228856Y19481D01*
X229433Y18729D01*
X230185Y18152D01*
X231061Y17790D01*
X232000Y17666D01*
X232940Y17790D01*
X233816Y18152D01*
X234568Y18729D01*
X235145Y19481D01*
X235508Y20357D01*
X235631Y21297D01*
X235508Y22237D01*
X235145Y23112D01*
X234568Y23865D01*
X233816Y24442D01*
X232940Y24804D01*
X232000Y24928D01*
D02*
G37*
G36*
X11501Y25297D02*
X8000D01*
Y21797D01*
X11501D01*
Y25297D01*
D02*
G37*
G36*
X192000Y24928D02*
X191061Y24804D01*
X190185Y24442D01*
X189433Y23865D01*
X188856Y23112D01*
X188493Y22237D01*
X188369Y21297D01*
X188493Y20357D01*
X188856Y19481D01*
X189433Y18729D01*
X190185Y18152D01*
X191061Y17790D01*
X192000Y17666D01*
X192940Y17790D01*
X193816Y18152D01*
X194568Y18729D01*
X195145Y19481D01*
X195508Y20357D01*
X195632Y21297D01*
X195508Y22237D01*
X195145Y23112D01*
X194568Y23865D01*
X193816Y24442D01*
X192940Y24804D01*
X192000Y24928D01*
D02*
G37*
G36*
X202000D02*
X201061Y24804D01*
X200185Y24442D01*
X199433Y23865D01*
X198856Y23112D01*
X198493Y22237D01*
X198369Y21297D01*
X198493Y20357D01*
X198856Y19481D01*
X199433Y18729D01*
X200185Y18152D01*
X201061Y17790D01*
X202000Y17666D01*
X202940Y17790D01*
X203816Y18152D01*
X204568Y18729D01*
X205145Y19481D01*
X205508Y20357D01*
X205631Y21297D01*
X205508Y22237D01*
X205145Y23112D01*
X204568Y23865D01*
X203816Y24442D01*
X202940Y24804D01*
X202000Y24928D01*
D02*
G37*
G36*
X212000D02*
X211061Y24804D01*
X210185Y24442D01*
X209433Y23865D01*
X208856Y23112D01*
X208493Y22237D01*
X208369Y21297D01*
X208493Y20357D01*
X208856Y19481D01*
X209433Y18729D01*
X210185Y18152D01*
X211061Y17790D01*
X212000Y17666D01*
X212940Y17790D01*
X213816Y18152D01*
X214568Y18729D01*
X215145Y19481D01*
X215508Y20357D01*
X215632Y21297D01*
X215508Y22237D01*
X215145Y23112D01*
X214568Y23865D01*
X213816Y24442D01*
X212940Y24804D01*
X212000Y24928D01*
D02*
G37*
G36*
X122001D02*
X121061Y24804D01*
X120185Y24442D01*
X119433Y23865D01*
X118856Y23112D01*
X118493Y22237D01*
X118369Y21297D01*
X118493Y20357D01*
X118856Y19481D01*
X119433Y18729D01*
X120185Y18152D01*
X121061Y17790D01*
X122001Y17666D01*
X122940Y17790D01*
X123816Y18152D01*
X124568Y18729D01*
X125145Y19481D01*
X125508Y20357D01*
X125631Y21297D01*
X125508Y22237D01*
X125145Y23112D01*
X124568Y23865D01*
X123816Y24442D01*
X122940Y24804D01*
X122001Y24928D01*
D02*
G37*
G36*
X32000D02*
X31061Y24804D01*
X30185Y24442D01*
X29433Y23865D01*
X28856Y23112D01*
X28493Y22237D01*
X28369Y21297D01*
X28493Y20357D01*
X28856Y19481D01*
X29433Y18729D01*
X30185Y18152D01*
X31061Y17790D01*
X32000Y17666D01*
X32940Y17790D01*
X33816Y18152D01*
X34568Y18729D01*
X35145Y19481D01*
X35508Y20357D01*
X35631Y21297D01*
X35508Y22237D01*
X35145Y23112D01*
X34568Y23865D01*
X33816Y24442D01*
X32940Y24804D01*
X32000Y24928D01*
D02*
G37*
G36*
X42000D02*
X41061Y24804D01*
X40185Y24442D01*
X39433Y23865D01*
X38856Y23112D01*
X38493Y22237D01*
X38369Y21297D01*
X38493Y20357D01*
X38856Y19481D01*
X39433Y18729D01*
X40185Y18152D01*
X41061Y17790D01*
X42000Y17666D01*
X42940Y17790D01*
X43816Y18152D01*
X44568Y18729D01*
X45145Y19481D01*
X45508Y20357D01*
X45632Y21297D01*
X45508Y22237D01*
X45145Y23112D01*
X44568Y23865D01*
X43816Y24442D01*
X42940Y24804D01*
X42000Y24928D01*
D02*
G37*
G36*
X52000D02*
X51061Y24804D01*
X50185Y24442D01*
X49433Y23865D01*
X48856Y23112D01*
X48493Y22237D01*
X48369Y21297D01*
X48493Y20357D01*
X48856Y19481D01*
X49433Y18729D01*
X50185Y18152D01*
X51061Y17790D01*
X52000Y17666D01*
X52940Y17790D01*
X53816Y18152D01*
X54568Y18729D01*
X55145Y19481D01*
X55508Y20357D01*
X55632Y21297D01*
X55508Y22237D01*
X55145Y23112D01*
X54568Y23865D01*
X53816Y24442D01*
X52940Y24804D01*
X52000Y24928D01*
D02*
G37*
G36*
X11501Y20797D02*
X8000D01*
Y17297D01*
X11501D01*
Y20797D01*
D02*
G37*
G36*
X16001D02*
X12501D01*
Y17297D01*
X16001D01*
Y20797D01*
D02*
G37*
G36*
X22001Y24928D02*
X21061Y24804D01*
X20185Y24442D01*
X19433Y23865D01*
X18856Y23112D01*
X18493Y22237D01*
X18369Y21297D01*
X18493Y20357D01*
X18856Y19481D01*
X19433Y18729D01*
X20185Y18152D01*
X21061Y17790D01*
X22001Y17666D01*
X22940Y17790D01*
X23816Y18152D01*
X24568Y18729D01*
X25145Y19481D01*
X25508Y20357D01*
X25631Y21297D01*
X25508Y22237D01*
X25145Y23112D01*
X24568Y23865D01*
X23816Y24442D01*
X22940Y24804D01*
X22001Y24928D01*
D02*
G37*
G36*
X92001D02*
X91061Y24804D01*
X90185Y24442D01*
X89433Y23865D01*
X88856Y23112D01*
X88493Y22237D01*
X88369Y21297D01*
X88493Y20357D01*
X88856Y19481D01*
X89433Y18729D01*
X90185Y18152D01*
X91061Y17790D01*
X92001Y17666D01*
X92940Y17790D01*
X93816Y18152D01*
X94568Y18729D01*
X95145Y19481D01*
X95508Y20357D01*
X95631Y21297D01*
X95508Y22237D01*
X95145Y23112D01*
X94568Y23865D01*
X93816Y24442D01*
X92940Y24804D01*
X92001Y24928D01*
D02*
G37*
G36*
X102000D02*
X101061Y24804D01*
X100185Y24442D01*
X99433Y23865D01*
X98856Y23112D01*
X98493Y22237D01*
X98369Y21297D01*
X98493Y20357D01*
X98856Y19481D01*
X99433Y18729D01*
X100185Y18152D01*
X101061Y17790D01*
X102000Y17666D01*
X102940Y17790D01*
X103816Y18152D01*
X104568Y18729D01*
X105145Y19481D01*
X105508Y20357D01*
X105631Y21297D01*
X105508Y22237D01*
X105145Y23112D01*
X104568Y23865D01*
X103816Y24442D01*
X102940Y24804D01*
X102000Y24928D01*
D02*
G37*
G36*
X112001D02*
X111061Y24804D01*
X110185Y24442D01*
X109433Y23865D01*
X108856Y23112D01*
X108493Y22237D01*
X108369Y21297D01*
X108493Y20357D01*
X108856Y19481D01*
X109433Y18729D01*
X110185Y18152D01*
X111061Y17790D01*
X112001Y17666D01*
X112940Y17790D01*
X113816Y18152D01*
X114568Y18729D01*
X115145Y19481D01*
X115508Y20357D01*
X115631Y21297D01*
X115508Y22237D01*
X115145Y23112D01*
X114568Y23865D01*
X113816Y24442D01*
X112940Y24804D01*
X112001Y24928D01*
D02*
G37*
G36*
X62001D02*
X61061Y24804D01*
X60185Y24442D01*
X59433Y23865D01*
X58856Y23112D01*
X58493Y22237D01*
X58369Y21297D01*
X58493Y20357D01*
X58856Y19481D01*
X59433Y18729D01*
X60185Y18152D01*
X61061Y17790D01*
X62001Y17666D01*
X62940Y17790D01*
X63816Y18152D01*
X64568Y18729D01*
X65145Y19481D01*
X65508Y20357D01*
X65632Y21297D01*
X65508Y22237D01*
X65145Y23112D01*
X64568Y23865D01*
X63816Y24442D01*
X62940Y24804D01*
X62001Y24928D01*
D02*
G37*
G36*
X72000D02*
X71061Y24804D01*
X70185Y24442D01*
X69433Y23865D01*
X68856Y23112D01*
X68493Y22237D01*
X68369Y21297D01*
X68493Y20357D01*
X68856Y19481D01*
X69433Y18729D01*
X70185Y18152D01*
X71061Y17790D01*
X72000Y17666D01*
X72940Y17790D01*
X73816Y18152D01*
X74568Y18729D01*
X75145Y19481D01*
X75508Y20357D01*
X75631Y21297D01*
X75508Y22237D01*
X75145Y23112D01*
X74568Y23865D01*
X73816Y24442D01*
X72940Y24804D01*
X72000Y24928D01*
D02*
G37*
G36*
X82000D02*
X81061Y24804D01*
X80185Y24442D01*
X79433Y23865D01*
X78856Y23112D01*
X78493Y22237D01*
X78369Y21297D01*
X78493Y20357D01*
X78856Y19481D01*
X79433Y18729D01*
X80185Y18152D01*
X81061Y17790D01*
X82000Y17666D01*
X82940Y17790D01*
X83816Y18152D01*
X84568Y18729D01*
X85145Y19481D01*
X85508Y20357D01*
X85632Y21297D01*
X85508Y22237D01*
X85145Y23112D01*
X84568Y23865D01*
X83816Y24442D01*
X82940Y24804D01*
X82000Y24928D01*
D02*
G37*
G36*
X150248Y92728D02*
X147788D01*
X147825Y92445D01*
X148127Y91715D01*
X148608Y91089D01*
X149235Y90608D01*
X149965Y90306D01*
X150248Y90268D01*
Y92728D01*
D02*
G37*
G36*
X52000Y204880D02*
X51073Y204758D01*
X50209Y204400D01*
X49467Y203831D01*
X48897Y203089D01*
X48539Y202224D01*
X48417Y201297D01*
X48539Y200370D01*
X48897Y199505D01*
X49467Y198763D01*
X50209Y198194D01*
X51073Y197836D01*
X52000Y197714D01*
X52928Y197836D01*
X53792Y198194D01*
X54534Y198763D01*
X55104Y199505D01*
X55462Y200370D01*
X55584Y201297D01*
X55462Y202224D01*
X55104Y203089D01*
X54534Y203831D01*
X53792Y204400D01*
X52928Y204758D01*
X52000Y204880D01*
D02*
G37*
G36*
X62000D02*
X61073Y204758D01*
X60209Y204400D01*
X59467Y203831D01*
X58897Y203089D01*
X58539Y202224D01*
X58417Y201297D01*
X58539Y200370D01*
X58897Y199505D01*
X59467Y198763D01*
X60209Y198194D01*
X61073Y197836D01*
X62000Y197714D01*
X62928Y197836D01*
X63792Y198194D01*
X64534Y198763D01*
X65104Y199505D01*
X65462Y200370D01*
X65584Y201297D01*
X65462Y202224D01*
X65104Y203089D01*
X64534Y203831D01*
X63792Y204400D01*
X62928Y204758D01*
X62000Y204880D01*
D02*
G37*
G36*
X72000D02*
X71073Y204758D01*
X70209Y204400D01*
X69467Y203831D01*
X68897Y203089D01*
X68539Y202224D01*
X68417Y201297D01*
X68539Y200370D01*
X68897Y199505D01*
X69467Y198763D01*
X70209Y198194D01*
X71073Y197836D01*
X72000Y197714D01*
X72928Y197836D01*
X73792Y198194D01*
X74534Y198763D01*
X75104Y199505D01*
X75462Y200370D01*
X75584Y201297D01*
X75462Y202224D01*
X75104Y203089D01*
X74534Y203831D01*
X73792Y204400D01*
X72928Y204758D01*
X72000Y204880D01*
D02*
G37*
G36*
X22000D02*
X21073Y204758D01*
X20209Y204400D01*
X19467Y203831D01*
X18897Y203089D01*
X18539Y202224D01*
X18417Y201297D01*
X18539Y200370D01*
X18897Y199505D01*
X19467Y198763D01*
X20209Y198194D01*
X21073Y197836D01*
X22000Y197714D01*
X22928Y197836D01*
X23792Y198194D01*
X24534Y198763D01*
X25104Y199505D01*
X25462Y200370D01*
X25584Y201297D01*
X25462Y202224D01*
X25104Y203089D01*
X24534Y203831D01*
X23792Y204400D01*
X22928Y204758D01*
X22000Y204880D01*
D02*
G37*
G36*
X32000D02*
X31073Y204758D01*
X30209Y204400D01*
X29467Y203831D01*
X28897Y203089D01*
X28539Y202224D01*
X28417Y201297D01*
X28539Y200370D01*
X28897Y199505D01*
X29467Y198763D01*
X30209Y198194D01*
X31073Y197836D01*
X32000Y197714D01*
X32928Y197836D01*
X33792Y198194D01*
X34534Y198763D01*
X35104Y199505D01*
X35462Y200370D01*
X35584Y201297D01*
X35462Y202224D01*
X35104Y203089D01*
X34534Y203831D01*
X33792Y204400D01*
X32928Y204758D01*
X32000Y204880D01*
D02*
G37*
G36*
X42000D02*
X41073Y204758D01*
X40209Y204400D01*
X39467Y203831D01*
X38897Y203089D01*
X38539Y202224D01*
X38417Y201297D01*
X38539Y200370D01*
X38897Y199505D01*
X39467Y198763D01*
X40209Y198194D01*
X41073Y197836D01*
X42000Y197714D01*
X42928Y197836D01*
X43792Y198194D01*
X44534Y198763D01*
X45104Y199505D01*
X45462Y200370D01*
X45584Y201297D01*
X45462Y202224D01*
X45104Y203089D01*
X44534Y203831D01*
X43792Y204400D01*
X42928Y204758D01*
X42000Y204880D01*
D02*
G37*
G36*
X82000D02*
X81073Y204758D01*
X80209Y204400D01*
X79467Y203831D01*
X78897Y203089D01*
X78539Y202224D01*
X78417Y201297D01*
X78539Y200370D01*
X78897Y199505D01*
X79467Y198763D01*
X80209Y198194D01*
X81073Y197836D01*
X82000Y197714D01*
X82928Y197836D01*
X83792Y198194D01*
X84534Y198763D01*
X85104Y199505D01*
X85462Y200370D01*
X85584Y201297D01*
X85462Y202224D01*
X85104Y203089D01*
X84534Y203831D01*
X83792Y204400D01*
X82928Y204758D01*
X82000Y204880D01*
D02*
G37*
G36*
X122000D02*
X121073Y204758D01*
X120209Y204400D01*
X119467Y203831D01*
X118897Y203089D01*
X118539Y202224D01*
X118417Y201297D01*
X118539Y200370D01*
X118897Y199505D01*
X119467Y198763D01*
X120209Y198194D01*
X121073Y197836D01*
X122000Y197714D01*
X122928Y197836D01*
X123792Y198194D01*
X124534Y198763D01*
X125104Y199505D01*
X125462Y200370D01*
X125584Y201297D01*
X125462Y202224D01*
X125104Y203089D01*
X124534Y203831D01*
X123792Y204400D01*
X122928Y204758D01*
X122000Y204880D01*
D02*
G37*
G36*
X132000D02*
X131073Y204758D01*
X130209Y204400D01*
X129467Y203831D01*
X128897Y203089D01*
X128539Y202224D01*
X128417Y201297D01*
X128539Y200370D01*
X128897Y199505D01*
X129467Y198763D01*
X130209Y198194D01*
X131073Y197836D01*
X132000Y197714D01*
X132928Y197836D01*
X133792Y198194D01*
X134534Y198763D01*
X135104Y199505D01*
X135462Y200370D01*
X135584Y201297D01*
X135462Y202224D01*
X135104Y203089D01*
X134534Y203831D01*
X133792Y204400D01*
X132928Y204758D01*
X132000Y204880D01*
D02*
G37*
G36*
X152000D02*
X151073Y204758D01*
X150209Y204400D01*
X149467Y203831D01*
X148897Y203089D01*
X148539Y202224D01*
X148417Y201297D01*
X148539Y200370D01*
X148897Y199505D01*
X149467Y198763D01*
X150209Y198194D01*
X151073Y197836D01*
X152000Y197714D01*
X152928Y197836D01*
X153792Y198194D01*
X154534Y198763D01*
X155104Y199505D01*
X155462Y200370D01*
X155584Y201297D01*
X155462Y202224D01*
X155104Y203089D01*
X154534Y203831D01*
X153792Y204400D01*
X152928Y204758D01*
X152000Y204880D01*
D02*
G37*
G36*
X92000D02*
X91073Y204758D01*
X90209Y204400D01*
X89467Y203831D01*
X88897Y203089D01*
X88539Y202224D01*
X88417Y201297D01*
X88539Y200370D01*
X88897Y199505D01*
X89467Y198763D01*
X90209Y198194D01*
X91073Y197836D01*
X92000Y197714D01*
X92928Y197836D01*
X93792Y198194D01*
X94534Y198763D01*
X95104Y199505D01*
X95462Y200370D01*
X95584Y201297D01*
X95462Y202224D01*
X95104Y203089D01*
X94534Y203831D01*
X93792Y204400D01*
X92928Y204758D01*
X92000Y204880D01*
D02*
G37*
G36*
X102000D02*
X101073Y204758D01*
X100209Y204400D01*
X99467Y203831D01*
X98897Y203089D01*
X98539Y202224D01*
X98417Y201297D01*
X98539Y200370D01*
X98897Y199505D01*
X99467Y198763D01*
X100209Y198194D01*
X101073Y197836D01*
X102000Y197714D01*
X102928Y197836D01*
X103792Y198194D01*
X104534Y198763D01*
X105104Y199505D01*
X105462Y200370D01*
X105584Y201297D01*
X105462Y202224D01*
X105104Y203089D01*
X104534Y203831D01*
X103792Y204400D01*
X102928Y204758D01*
X102000Y204880D01*
D02*
G37*
G36*
X112000D02*
X111073Y204758D01*
X110209Y204400D01*
X109467Y203831D01*
X108897Y203089D01*
X108539Y202224D01*
X108417Y201297D01*
X108539Y200370D01*
X108897Y199505D01*
X109467Y198763D01*
X110209Y198194D01*
X111073Y197836D01*
X112000Y197714D01*
X112928Y197836D01*
X113792Y198194D01*
X114534Y198763D01*
X115104Y199505D01*
X115462Y200370D01*
X115584Y201297D01*
X115462Y202224D01*
X115104Y203089D01*
X114534Y203831D01*
X113792Y204400D01*
X112928Y204758D01*
X112000Y204880D01*
D02*
G37*
G36*
X222020Y178032D02*
X220376D01*
X220447Y177673D01*
X220934Y176946D01*
X221661Y176459D01*
X222020Y176388D01*
Y178032D01*
D02*
G37*
G36*
X224663D02*
X223020D01*
Y176388D01*
X223378Y176459D01*
X224106Y176946D01*
X224592Y177673D01*
X224663Y178032D01*
D02*
G37*
G36*
X222020Y180675D02*
X221661Y180604D01*
X220934Y180118D01*
X220447Y179390D01*
X220376Y179032D01*
X222020D01*
Y180675D01*
D02*
G37*
G36*
X187277Y166256D02*
X185019D01*
Y163997D01*
X185249Y164028D01*
X185931Y164310D01*
X186515Y164759D01*
X186964Y165344D01*
X187247Y166025D01*
X187277Y166256D01*
D02*
G37*
G36*
X184019Y169514D02*
X183788Y169484D01*
X183107Y169202D01*
X182522Y168753D01*
X182073Y168168D01*
X181791Y167487D01*
X181760Y167256D01*
X184019D01*
Y169514D01*
D02*
G37*
G36*
X185019D02*
Y167256D01*
X187277D01*
X187247Y167487D01*
X186964Y168168D01*
X186515Y168753D01*
X185931Y169202D01*
X185249Y169484D01*
X185019Y169514D01*
D02*
G37*
G36*
X223020Y180675D02*
Y179032D01*
X224663D01*
X224592Y179390D01*
X224106Y180118D01*
X223378Y180604D01*
X223020Y180675D01*
D02*
G37*
G36*
X195028Y186159D02*
Y184516D01*
X196671D01*
X196600Y184874D01*
X196114Y185602D01*
X195386Y186088D01*
X195028Y186159D01*
D02*
G37*
G36*
X11500Y200797D02*
X8079D01*
X8149Y200265D01*
X8548Y199303D01*
X9181Y198478D01*
X10007Y197844D01*
X10968Y197446D01*
X11500Y197376D01*
Y200797D01*
D02*
G37*
G36*
X15921D02*
X12500D01*
Y197376D01*
X13032Y197446D01*
X13994Y197844D01*
X14820Y198478D01*
X15453Y199303D01*
X15851Y200265D01*
X15921Y200797D01*
D02*
G37*
G36*
X194028Y183516D02*
X192384D01*
X192455Y183157D01*
X192941Y182430D01*
X193669Y181943D01*
X194028Y181872D01*
Y183516D01*
D02*
G37*
G36*
X196671D02*
X195028D01*
Y181872D01*
X195386Y181943D01*
X196114Y182430D01*
X196600Y183157D01*
X196671Y183516D01*
D02*
G37*
G36*
X194028Y186159D02*
X193669Y186088D01*
X192941Y185602D01*
X192455Y184874D01*
X192384Y184516D01*
X194028D01*
Y186159D01*
D02*
G37*
G36*
X92000Y214880D02*
X91073Y214758D01*
X90209Y214400D01*
X89467Y213831D01*
X88897Y213089D01*
X88539Y212224D01*
X88417Y211297D01*
X88539Y210369D01*
X88897Y209505D01*
X89467Y208763D01*
X90209Y208194D01*
X91073Y207836D01*
X92000Y207714D01*
X92928Y207836D01*
X93792Y208194D01*
X94534Y208763D01*
X95104Y209505D01*
X95462Y210369D01*
X95584Y211297D01*
X95462Y212224D01*
X95104Y213089D01*
X94534Y213831D01*
X93792Y214400D01*
X92928Y214758D01*
X92000Y214880D01*
D02*
G37*
G36*
X102000D02*
X101073Y214758D01*
X100209Y214400D01*
X99467Y213831D01*
X98897Y213089D01*
X98539Y212224D01*
X98417Y211297D01*
X98539Y210369D01*
X98897Y209505D01*
X99467Y208763D01*
X100209Y208194D01*
X101073Y207836D01*
X102000Y207714D01*
X102928Y207836D01*
X103792Y208194D01*
X104534Y208763D01*
X105104Y209505D01*
X105462Y210369D01*
X105584Y211297D01*
X105462Y212224D01*
X105104Y213089D01*
X104534Y213831D01*
X103792Y214400D01*
X102928Y214758D01*
X102000Y214880D01*
D02*
G37*
G36*
X112000D02*
X111073Y214758D01*
X110209Y214400D01*
X109467Y213831D01*
X108897Y213089D01*
X108539Y212224D01*
X108417Y211297D01*
X108539Y210369D01*
X108897Y209505D01*
X109467Y208763D01*
X110209Y208194D01*
X111073Y207836D01*
X112000Y207714D01*
X112928Y207836D01*
X113792Y208194D01*
X114534Y208763D01*
X115104Y209505D01*
X115462Y210369D01*
X115584Y211297D01*
X115462Y212224D01*
X115104Y213089D01*
X114534Y213831D01*
X113792Y214400D01*
X112928Y214758D01*
X112000Y214880D01*
D02*
G37*
G36*
X62000D02*
X61073Y214758D01*
X60209Y214400D01*
X59467Y213831D01*
X58897Y213089D01*
X58539Y212224D01*
X58417Y211297D01*
X58539Y210369D01*
X58897Y209505D01*
X59467Y208763D01*
X60209Y208194D01*
X61073Y207836D01*
X62000Y207714D01*
X62928Y207836D01*
X63792Y208194D01*
X64534Y208763D01*
X65104Y209505D01*
X65462Y210369D01*
X65584Y211297D01*
X65462Y212224D01*
X65104Y213089D01*
X64534Y213831D01*
X63792Y214400D01*
X62928Y214758D01*
X62000Y214880D01*
D02*
G37*
G36*
X72000D02*
X71073Y214758D01*
X70209Y214400D01*
X69467Y213831D01*
X68897Y213089D01*
X68539Y212224D01*
X68417Y211297D01*
X68539Y210369D01*
X68897Y209505D01*
X69467Y208763D01*
X70209Y208194D01*
X71073Y207836D01*
X72000Y207714D01*
X72928Y207836D01*
X73792Y208194D01*
X74534Y208763D01*
X75104Y209505D01*
X75462Y210369D01*
X75584Y211297D01*
X75462Y212224D01*
X75104Y213089D01*
X74534Y213831D01*
X73792Y214400D01*
X72928Y214758D01*
X72000Y214880D01*
D02*
G37*
G36*
X82000D02*
X81073Y214758D01*
X80209Y214400D01*
X79467Y213831D01*
X78897Y213089D01*
X78539Y212224D01*
X78417Y211297D01*
X78539Y210369D01*
X78897Y209505D01*
X79467Y208763D01*
X80209Y208194D01*
X81073Y207836D01*
X82000Y207714D01*
X82928Y207836D01*
X83792Y208194D01*
X84534Y208763D01*
X85104Y209505D01*
X85462Y210369D01*
X85584Y211297D01*
X85462Y212224D01*
X85104Y213089D01*
X84534Y213831D01*
X83792Y214400D01*
X82928Y214758D01*
X82000Y214880D01*
D02*
G37*
G36*
X122000D02*
X121073Y214758D01*
X120209Y214400D01*
X119467Y213831D01*
X118897Y213089D01*
X118539Y212224D01*
X118417Y211297D01*
X118539Y210369D01*
X118897Y209505D01*
X119467Y208763D01*
X120209Y208194D01*
X121073Y207836D01*
X122000Y207714D01*
X122928Y207836D01*
X123792Y208194D01*
X124534Y208763D01*
X125104Y209505D01*
X125462Y210369D01*
X125584Y211297D01*
X125462Y212224D01*
X125104Y213089D01*
X124534Y213831D01*
X123792Y214400D01*
X122928Y214758D01*
X122000Y214880D01*
D02*
G37*
G36*
X162000D02*
X161073Y214758D01*
X160209Y214400D01*
X159467Y213831D01*
X158897Y213089D01*
X158539Y212224D01*
X158417Y211297D01*
X158539Y210369D01*
X158897Y209505D01*
X159467Y208763D01*
X160209Y208194D01*
X161073Y207836D01*
X162000Y207714D01*
X162928Y207836D01*
X163792Y208194D01*
X164534Y208763D01*
X165104Y209505D01*
X165462Y210369D01*
X165584Y211297D01*
X165462Y212224D01*
X165104Y213089D01*
X164534Y213831D01*
X163792Y214400D01*
X162928Y214758D01*
X162000Y214880D01*
D02*
G37*
G36*
X11500Y215250D02*
X8048D01*
Y211797D01*
X11500D01*
Y215250D01*
D02*
G37*
G36*
X15953D02*
X12500D01*
Y211797D01*
X15953D01*
Y215250D01*
D02*
G37*
G36*
X132000Y214880D02*
X131073Y214758D01*
X130209Y214400D01*
X129467Y213831D01*
X128897Y213089D01*
X128539Y212224D01*
X128417Y211297D01*
X128539Y210369D01*
X128897Y209505D01*
X129467Y208763D01*
X130209Y208194D01*
X131073Y207836D01*
X132000Y207714D01*
X132928Y207836D01*
X133792Y208194D01*
X134534Y208763D01*
X135104Y209505D01*
X135462Y210369D01*
X135584Y211297D01*
X135462Y212224D01*
X135104Y213089D01*
X134534Y213831D01*
X133792Y214400D01*
X132928Y214758D01*
X132000Y214880D01*
D02*
G37*
G36*
X142000D02*
X141073Y214758D01*
X140209Y214400D01*
X139467Y213831D01*
X138897Y213089D01*
X138539Y212224D01*
X138417Y211297D01*
X138539Y210369D01*
X138897Y209505D01*
X138903Y209497D01*
X136477Y207071D01*
X136278Y206774D01*
X136208Y206422D01*
Y193057D01*
X106960Y163809D01*
X106761Y163511D01*
X106691Y163160D01*
Y99268D01*
X106673Y99264D01*
X105879Y98734D01*
X105348Y97940D01*
X105162Y97004D01*
X105348Y96067D01*
X105879Y95273D01*
X106673Y94743D01*
X107609Y94556D01*
X108545Y94743D01*
X109339Y95273D01*
X109870Y96067D01*
X110056Y97004D01*
X109870Y97940D01*
X109339Y98734D01*
X108545Y99264D01*
X108527Y99268D01*
Y162780D01*
X111047Y165301D01*
X111508Y165054D01*
X111372Y164370D01*
X111558Y163434D01*
X112089Y162640D01*
X112882Y162109D01*
X113819Y161923D01*
X114755Y162109D01*
X115549Y162640D01*
X116080Y163434D01*
X116083Y163452D01*
X147402D01*
X147753Y163522D01*
X148050Y163721D01*
X160565Y176236D01*
X195559D01*
X195562Y176217D01*
X196093Y175424D01*
X196887Y174893D01*
X197823Y174707D01*
X198442Y174830D01*
X198689Y174369D01*
X172833Y148513D01*
X172333D01*
X170761Y150084D01*
X170397Y150328D01*
X169968Y150413D01*
X169968Y150413D01*
X161612D01*
X161495Y150589D01*
X160899Y150987D01*
X160197Y151127D01*
X159494Y150987D01*
X158899Y150589D01*
X158501Y149994D01*
X158362Y149291D01*
X158501Y148589D01*
X158899Y147994D01*
X159494Y147596D01*
X160197Y147456D01*
X160899Y147596D01*
X161495Y147994D01*
X161612Y148170D01*
X169504D01*
X171789Y145884D01*
X171789Y145884D01*
X172153Y145641D01*
X172582Y145555D01*
X173012Y145641D01*
X173376Y145884D01*
X186460Y158968D01*
X186921Y158722D01*
X186796Y158094D01*
X186982Y157158D01*
X187513Y156364D01*
X188306Y155833D01*
X189243Y155647D01*
X190179Y155833D01*
X190973Y156364D01*
X191504Y157158D01*
X191690Y158094D01*
X191547Y158812D01*
X201491Y168756D01*
X202077Y168364D01*
X203013Y168178D01*
X203949Y168364D01*
X204743Y168895D01*
X205274Y169689D01*
X205460Y170625D01*
X205274Y171562D01*
X204743Y172355D01*
X203949Y172886D01*
X203013Y173072D01*
X202077Y172886D01*
X201283Y172355D01*
X200752Y171562D01*
X200660Y171097D01*
X189961Y160398D01*
X189243Y160541D01*
X188615Y160416D01*
X188369Y160877D01*
X208811Y181319D01*
X230869D01*
X230908Y181262D01*
X231701Y180731D01*
X232638Y180545D01*
X233574Y180731D01*
X234368Y181262D01*
X234898Y182056D01*
X235085Y182992D01*
X234898Y183929D01*
X234368Y184722D01*
X233574Y185253D01*
X232638Y185439D01*
X231701Y185253D01*
X230908Y184722D01*
X230377Y183929D01*
X230304Y183563D01*
X208347D01*
X208347Y183563D01*
X207917Y183477D01*
X207553Y183234D01*
X207553Y183234D01*
X200608Y176288D01*
X200147Y176535D01*
X200270Y177154D01*
X200084Y178090D01*
X199553Y178884D01*
X198759Y179415D01*
X197823Y179601D01*
X196887Y179415D01*
X196093Y178884D01*
X195562Y178090D01*
X195559Y178071D01*
X160185D01*
X159834Y178002D01*
X159537Y177803D01*
X147021Y165288D01*
X116083D01*
X116080Y165306D01*
X115549Y166100D01*
X114755Y166631D01*
X113819Y166817D01*
X113135Y166681D01*
X112888Y167142D01*
X137775Y192028D01*
X137974Y192326D01*
X138044Y192677D01*
Y200304D01*
X138539Y200370D01*
X138897Y199505D01*
X139467Y198763D01*
X140209Y198194D01*
X141073Y197836D01*
X142000Y197714D01*
X142928Y197836D01*
X143792Y198194D01*
X144534Y198763D01*
X145104Y199505D01*
X145462Y200370D01*
X145584Y201297D01*
X145462Y202224D01*
X145104Y203089D01*
X144534Y203831D01*
X143792Y204400D01*
X142928Y204758D01*
X142000Y204880D01*
X141073Y204758D01*
X140209Y204400D01*
X139467Y203831D01*
X138897Y203089D01*
X138539Y202224D01*
X138044Y202290D01*
Y206043D01*
X140201Y208200D01*
X140209Y208194D01*
X141073Y207836D01*
X142000Y207714D01*
X142928Y207836D01*
X143792Y208194D01*
X144534Y208763D01*
X145104Y209505D01*
X145462Y210369D01*
X145584Y211297D01*
X145462Y212224D01*
X145104Y213089D01*
X144534Y213831D01*
X143792Y214400D01*
X142928Y214758D01*
X142000Y214880D01*
D02*
G37*
G36*
X152000D02*
X151073Y214758D01*
X150209Y214400D01*
X149467Y213831D01*
X148897Y213089D01*
X148539Y212224D01*
X148417Y211297D01*
X148539Y210369D01*
X148897Y209505D01*
X149467Y208763D01*
X150209Y208194D01*
X151073Y207836D01*
X152000Y207714D01*
X152928Y207836D01*
X153792Y208194D01*
X154534Y208763D01*
X155104Y209505D01*
X155462Y210369D01*
X155584Y211297D01*
X155462Y212224D01*
X155104Y213089D01*
X154534Y213831D01*
X153792Y214400D01*
X152928Y214758D01*
X152000Y214880D01*
D02*
G37*
G36*
X175484Y203167D02*
X175126Y203096D01*
X174398Y202610D01*
X173912Y201882D01*
X173841Y201524D01*
X175484D01*
Y203167D01*
D02*
G37*
G36*
X176484D02*
Y201524D01*
X178128D01*
X178057Y201882D01*
X177570Y202610D01*
X176843Y203096D01*
X176484Y203167D01*
D02*
G37*
G36*
X11500Y205218D02*
X10968Y205148D01*
X10007Y204750D01*
X9181Y204116D01*
X8548Y203290D01*
X8149Y202329D01*
X8079Y201797D01*
X11500D01*
Y205218D01*
D02*
G37*
G36*
X162000Y204880D02*
X161073Y204758D01*
X160209Y204400D01*
X159467Y203831D01*
X158897Y203089D01*
X158539Y202224D01*
X158417Y201297D01*
X158539Y200370D01*
X158897Y199505D01*
X159467Y198763D01*
X160209Y198194D01*
X161073Y197836D01*
X162000Y197714D01*
X162928Y197836D01*
X163792Y198194D01*
X164534Y198763D01*
X165104Y199505D01*
X165462Y200370D01*
X165584Y201297D01*
X165462Y202224D01*
X165104Y203089D01*
X164534Y203831D01*
X163792Y204400D01*
X162928Y204758D01*
X162000Y204880D01*
D02*
G37*
G36*
X175484Y200524D02*
X173841D01*
X173912Y200165D01*
X174398Y199437D01*
X175126Y198951D01*
X175484Y198880D01*
Y200524D01*
D02*
G37*
G36*
X178128D02*
X176484D01*
Y198880D01*
X176843Y198951D01*
X177570Y199437D01*
X178057Y200165D01*
X178128Y200524D01*
D02*
G37*
G36*
X12500Y205218D02*
Y201797D01*
X15921D01*
X15851Y202329D01*
X15453Y203290D01*
X14820Y204116D01*
X13994Y204750D01*
X13032Y205148D01*
X12500Y205218D01*
D02*
G37*
G36*
X32000Y214880D02*
X31073Y214758D01*
X30209Y214400D01*
X29467Y213831D01*
X28897Y213089D01*
X28539Y212224D01*
X28417Y211297D01*
X28539Y210369D01*
X28897Y209505D01*
X29467Y208763D01*
X30209Y208194D01*
X31073Y207836D01*
X32000Y207714D01*
X32928Y207836D01*
X33792Y208194D01*
X34534Y208763D01*
X35104Y209505D01*
X35462Y210369D01*
X35584Y211297D01*
X35462Y212224D01*
X35104Y213089D01*
X34534Y213831D01*
X33792Y214400D01*
X32928Y214758D01*
X32000Y214880D01*
D02*
G37*
G36*
X42000D02*
X41073Y214758D01*
X40209Y214400D01*
X39467Y213831D01*
X38897Y213089D01*
X38539Y212224D01*
X38417Y211297D01*
X38539Y210369D01*
X38897Y209505D01*
X39467Y208763D01*
X40209Y208194D01*
X41073Y207836D01*
X42000Y207714D01*
X42928Y207836D01*
X43792Y208194D01*
X44534Y208763D01*
X45104Y209505D01*
X45462Y210369D01*
X45584Y211297D01*
X45462Y212224D01*
X45104Y213089D01*
X44534Y213831D01*
X43792Y214400D01*
X42928Y214758D01*
X42000Y214880D01*
D02*
G37*
G36*
X52000D02*
X51073Y214758D01*
X50209Y214400D01*
X49467Y213831D01*
X48897Y213089D01*
X48539Y212224D01*
X48417Y211297D01*
X48539Y210369D01*
X48897Y209505D01*
X49467Y208763D01*
X50209Y208194D01*
X51073Y207836D01*
X52000Y207714D01*
X52928Y207836D01*
X53792Y208194D01*
X54534Y208763D01*
X55104Y209505D01*
X55462Y210369D01*
X55584Y211297D01*
X55462Y212224D01*
X55104Y213089D01*
X54534Y213831D01*
X53792Y214400D01*
X52928Y214758D01*
X52000Y214880D01*
D02*
G37*
G36*
X11500Y210797D02*
X8048D01*
Y207344D01*
X11500D01*
Y210797D01*
D02*
G37*
G36*
X15953D02*
X12500D01*
Y207344D01*
X15953D01*
Y210797D01*
D02*
G37*
G36*
X22000Y214880D02*
X21073Y214758D01*
X20209Y214400D01*
X19467Y213831D01*
X18897Y213089D01*
X18539Y212224D01*
X18417Y211297D01*
X18539Y210369D01*
X18897Y209505D01*
X19467Y208763D01*
X20209Y208194D01*
X21073Y207836D01*
X22000Y207714D01*
X22928Y207836D01*
X23792Y208194D01*
X24534Y208763D01*
X25104Y209505D01*
X25462Y210369D01*
X25584Y211297D01*
X25462Y212224D01*
X25104Y213089D01*
X24534Y213831D01*
X23792Y214400D01*
X22928Y214758D01*
X22000Y214880D01*
D02*
G37*
G36*
X150248Y96188D02*
X149965Y96151D01*
X149235Y95849D01*
X148608Y95368D01*
X148127Y94741D01*
X147825Y94011D01*
X147788Y93728D01*
X150248D01*
Y96188D01*
D02*
G37*
G36*
X200602Y124500D02*
X198142D01*
X198180Y124217D01*
X198482Y123487D01*
X198963Y122860D01*
X199589Y122380D01*
X200319Y122077D01*
X200602Y122040D01*
Y124500D01*
D02*
G37*
G36*
X204062D02*
X201602D01*
Y122040D01*
X201886Y122077D01*
X202615Y122380D01*
X203242Y122860D01*
X203723Y123487D01*
X204025Y124217D01*
X204062Y124500D01*
D02*
G37*
G36*
X221587Y121350D02*
X217300D01*
X217371Y120992D01*
X217751Y120423D01*
X217820Y120079D01*
X217751Y119734D01*
X217371Y119166D01*
X217300Y118807D01*
X221587D01*
X221516Y119166D01*
X221136Y119734D01*
X221067Y120079D01*
X221136Y120423D01*
X221516Y120992D01*
X221587Y121350D01*
D02*
G37*
G36*
X144870Y121002D02*
Y119358D01*
X146514D01*
X146442Y119717D01*
X145956Y120444D01*
X145229Y120931D01*
X144870Y121002D01*
D02*
G37*
G36*
X151248Y96188D02*
Y93728D01*
X153708D01*
X153671Y94011D01*
X153368Y94741D01*
X152888Y95368D01*
X152261Y95849D01*
X151531Y96151D01*
X151248Y96188D01*
D02*
G37*
G36*
X115227Y133418D02*
X114525Y133278D01*
X113929Y132880D01*
X113532Y132285D01*
X113392Y131582D01*
X113532Y130880D01*
X113929Y130285D01*
X114525Y129887D01*
X115227Y129747D01*
X115929Y129887D01*
X116525Y130285D01*
X116779Y130665D01*
X138864D01*
X142161Y127368D01*
X142151Y127190D01*
X142034Y126788D01*
X141537Y126455D01*
X141141Y126416D01*
X140051Y127507D01*
X139753Y127706D01*
X139402Y127776D01*
X121110D01*
X120856Y128156D01*
X120260Y128553D01*
X119558Y128693D01*
X118856Y128553D01*
X118260Y128156D01*
X117862Y127560D01*
X117723Y126858D01*
X117862Y126156D01*
X118260Y125560D01*
X118856Y125162D01*
X119558Y125023D01*
X120260Y125162D01*
X120856Y125560D01*
X121110Y125940D01*
X139022D01*
X140454Y124509D01*
X140751Y124310D01*
X141102Y124240D01*
X141283D01*
X141537Y123860D01*
X142132Y123462D01*
X142835Y123322D01*
X143537Y123462D01*
X144132Y123860D01*
X144530Y124455D01*
X144670Y125157D01*
X144530Y125860D01*
X144483Y125930D01*
X144734Y126455D01*
X144852Y126467D01*
X144883Y126419D01*
X145479Y126021D01*
X146181Y125881D01*
X146883Y126021D01*
X147479Y126419D01*
X147877Y127014D01*
X148016Y127717D01*
X147877Y128419D01*
X147479Y129014D01*
X146883Y129412D01*
X146181Y129552D01*
X145479Y129412D01*
X144883Y129014D01*
X144629Y128634D01*
X143490D01*
X139893Y132231D01*
X139595Y132430D01*
X139244Y132500D01*
X116779D01*
X116525Y132880D01*
X115929Y133278D01*
X115227Y133418D01*
D02*
G37*
G36*
X153708Y92728D02*
X151248D01*
Y90268D01*
X151531Y90306D01*
X152261Y90608D01*
X152888Y91089D01*
X153368Y91715D01*
X153671Y92445D01*
X153708Y92728D01*
D02*
G37*
G36*
X221587Y131980D02*
X217300D01*
X217371Y131622D01*
X217751Y131053D01*
X217820Y130709D01*
X217751Y130364D01*
X217371Y129795D01*
X217300Y129437D01*
X221587D01*
X221516Y129795D01*
X221136Y130364D01*
X221067Y130709D01*
X221136Y131053D01*
X221516Y131622D01*
X221587Y131980D01*
D02*
G37*
G36*
Y124894D02*
X217300D01*
X217371Y124535D01*
X217751Y123967D01*
X217820Y123622D01*
X217751Y123277D01*
X217371Y122709D01*
X217300Y122350D01*
X221587D01*
X221516Y122709D01*
X221136Y123277D01*
X221067Y123622D01*
X221136Y123967D01*
X221516Y124535D01*
X221587Y124894D01*
D02*
G37*
G36*
X204102Y129854D02*
X198182D01*
X198219Y129571D01*
X198521Y128841D01*
X199002Y128215D01*
X199272Y128007D01*
Y127377D01*
X198963Y127140D01*
X198482Y126513D01*
X198180Y125783D01*
X198142Y125500D01*
X204062D01*
X204025Y125783D01*
X203723Y126513D01*
X203242Y127140D01*
X202972Y127347D01*
Y127977D01*
X203281Y128215D01*
X203762Y128841D01*
X204064Y129571D01*
X204102Y129854D01*
D02*
G37*
G36*
X221587Y128437D02*
X217300D01*
X217371Y128079D01*
X217751Y127510D01*
X217820Y127165D01*
X217751Y126821D01*
X217371Y126252D01*
X217300Y125894D01*
X221587D01*
X221516Y126252D01*
X221136Y126821D01*
X221067Y127165D01*
X221136Y127510D01*
X221516Y128079D01*
X221587Y128437D01*
D02*
G37*
G36*
X129183Y101702D02*
X122077D01*
Y94597D01*
X129183D01*
Y101702D01*
D02*
G37*
G36*
X221587Y103634D02*
X217300D01*
X217371Y103276D01*
X217751Y102707D01*
X217820Y102362D01*
X217751Y102017D01*
X217371Y101449D01*
X217300Y101091D01*
X221587D01*
X221516Y101449D01*
X221136Y102017D01*
X221067Y102362D01*
X221136Y102707D01*
X221516Y103276D01*
X221587Y103634D01*
D02*
G37*
G36*
X140787Y122181D02*
X140085Y122041D01*
X139490Y121643D01*
X139092Y121048D01*
X138952Y120346D01*
X139092Y119643D01*
X139490Y119048D01*
X139870Y118794D01*
Y91929D01*
X139940Y91578D01*
X140138Y91280D01*
X147816Y83603D01*
X148113Y83404D01*
X148465Y83334D01*
X162621D01*
X162875Y82954D01*
X163471Y82556D01*
X164173Y82417D01*
X164875Y82556D01*
X165471Y82954D01*
X165869Y83550D01*
X166008Y84252D01*
X165869Y84954D01*
X165471Y85550D01*
X164875Y85948D01*
X164173Y86087D01*
X163471Y85948D01*
X162875Y85550D01*
X162621Y85170D01*
X148845D01*
X141705Y92309D01*
Y103810D01*
X142205Y103860D01*
X142298Y103394D01*
X142784Y102666D01*
X143512Y102180D01*
X143870Y102108D01*
Y104252D01*
X144370D01*
Y104752D01*
X146514D01*
X146442Y105110D01*
X145956Y105838D01*
X145758Y105971D01*
Y106471D01*
X145956Y106603D01*
X146442Y107331D01*
X146514Y107689D01*
X144370D01*
Y108689D01*
X146514D01*
X146442Y109047D01*
X145956Y109775D01*
X145846Y109848D01*
Y110348D01*
X145956Y110422D01*
X146442Y111150D01*
X146514Y111508D01*
X144370D01*
Y112508D01*
X146514D01*
X146442Y112866D01*
X146081Y113408D01*
X145996Y113760D01*
X146081Y114112D01*
X146442Y114653D01*
X146514Y115012D01*
X144370D01*
Y116012D01*
X146514D01*
X146442Y116370D01*
X146153Y116803D01*
X145993Y117185D01*
X146153Y117567D01*
X146442Y118000D01*
X146514Y118358D01*
X144370D01*
Y118858D01*
X143870D01*
Y121002D01*
X143512Y120931D01*
X143074Y120638D01*
X142519Y120869D01*
X142483Y121048D01*
X142085Y121643D01*
X141490Y122041D01*
X140787Y122181D01*
D02*
G37*
G36*
X218943Y96547D02*
X217300D01*
X217371Y96189D01*
X217857Y95461D01*
X218585Y94975D01*
X218943Y94904D01*
Y96547D01*
D02*
G37*
G36*
X221587D02*
X219943D01*
Y94904D01*
X220302Y94975D01*
X221029Y95461D01*
X221516Y96189D01*
X221587Y96547D01*
D02*
G37*
G36*
Y100091D02*
X217300D01*
X217371Y99732D01*
X217751Y99164D01*
X217820Y98819D01*
X217751Y98474D01*
X217371Y97906D01*
X217300Y97547D01*
X221587D01*
X221516Y97906D01*
X221136Y98474D01*
X221067Y98819D01*
X221136Y99164D01*
X221516Y99732D01*
X221587Y100091D01*
D02*
G37*
G36*
Y110721D02*
X217300D01*
X217371Y110362D01*
X217751Y109794D01*
X217820Y109449D01*
X217751Y109104D01*
X217371Y108536D01*
X217300Y108177D01*
X221587D01*
X221516Y108536D01*
X221136Y109104D01*
X221067Y109449D01*
X221136Y109794D01*
X221516Y110362D01*
X221587Y110721D01*
D02*
G37*
G36*
Y114264D02*
X217300D01*
X217371Y113905D01*
X217857Y113178D01*
X217751Y112647D01*
X217371Y112079D01*
X217300Y111721D01*
X221587D01*
X221516Y112079D01*
X221136Y112647D01*
X221029Y113178D01*
X221516Y113905D01*
X221587Y114264D01*
D02*
G37*
G36*
Y117807D02*
X217300D01*
X217371Y117449D01*
X217751Y116880D01*
X217820Y116535D01*
X217751Y116191D01*
X217371Y115622D01*
X217300Y115264D01*
X221587D01*
X221516Y115622D01*
X221136Y116191D01*
X221067Y116535D01*
X221136Y116880D01*
X221516Y117449D01*
X221587Y117807D01*
D02*
G37*
G36*
X146514Y103752D02*
X144870D01*
Y102108D01*
X145229Y102180D01*
X145956Y102666D01*
X146442Y103394D01*
X146514Y103752D01*
D02*
G37*
G36*
X84912Y107651D02*
X83976Y107465D01*
X83182Y106935D01*
X82652Y106141D01*
X82465Y105204D01*
X82652Y104268D01*
X83182Y103474D01*
X83976Y102944D01*
X84912Y102757D01*
X85849Y102944D01*
X86643Y103474D01*
X87173Y104268D01*
X87359Y105204D01*
X87173Y106141D01*
X86643Y106935D01*
X85849Y107465D01*
X84912Y107651D01*
D02*
G37*
G36*
X221587Y107177D02*
X217300D01*
X217371Y106819D01*
X217751Y106250D01*
X217820Y105905D01*
X217751Y105561D01*
X217371Y104992D01*
X217300Y104634D01*
X221587D01*
X221516Y104992D01*
X221136Y105561D01*
X221067Y105905D01*
X221136Y106250D01*
X221516Y106819D01*
X221587Y107177D01*
D02*
G37*
G36*
X117696Y144183D02*
Y141925D01*
X119954D01*
X119924Y142156D01*
X119641Y142837D01*
X119193Y143422D01*
X118608Y143871D01*
X117927Y144153D01*
X117696Y144183D01*
D02*
G37*
G36*
X168004Y143569D02*
X167646Y143497D01*
X166918Y143011D01*
X166432Y142283D01*
X166360Y141925D01*
X168004D01*
Y143569D01*
D02*
G37*
G36*
X169004D02*
Y141925D01*
X170648D01*
X170576Y142283D01*
X170090Y143011D01*
X169362Y143497D01*
X169004Y143569D01*
D02*
G37*
G36*
X173752Y143167D02*
X173394Y143096D01*
X172666Y142610D01*
X172180Y141882D01*
X172108Y141524D01*
X173752D01*
Y143167D01*
D02*
G37*
G36*
X174752D02*
Y141524D01*
X176396D01*
X176324Y141882D01*
X175838Y142610D01*
X175110Y143096D01*
X174752Y143167D01*
D02*
G37*
G36*
X116696Y144183D02*
X116465Y144153D01*
X115784Y143871D01*
X115199Y143422D01*
X114750Y142837D01*
X114468Y142156D01*
X114437Y141925D01*
X116696D01*
Y144183D01*
D02*
G37*
G36*
X142499Y154947D02*
Y152689D01*
X144757D01*
X144727Y152920D01*
X144445Y153601D01*
X143996Y154186D01*
X143411Y154635D01*
X142730Y154917D01*
X142499Y154947D01*
D02*
G37*
G36*
X83744Y157448D02*
X83513Y157418D01*
X82832Y157136D01*
X82247Y156687D01*
X81798Y156102D01*
X81516Y155421D01*
X81486Y155190D01*
X83744D01*
Y157448D01*
D02*
G37*
G36*
X184019Y166256D02*
X181760D01*
X181791Y166025D01*
X182073Y165344D01*
X182522Y164759D01*
X183107Y164310D01*
X183788Y164028D01*
X184019Y163997D01*
Y166256D01*
D02*
G37*
G36*
X197508Y144506D02*
Y142862D01*
X199152D01*
X199080Y143221D01*
X198594Y143948D01*
X197866Y144434D01*
X197508Y144506D01*
D02*
G37*
G36*
X196508D02*
X196150Y144434D01*
X195490Y143994D01*
X195051Y143752D01*
X194323Y144238D01*
X193965Y144309D01*
Y142165D01*
Y140022D01*
X194323Y140093D01*
X195051Y140579D01*
X195182Y140776D01*
X195422D01*
X196150Y140290D01*
X196508Y140219D01*
Y142362D01*
Y144506D01*
D02*
G37*
G36*
X83744Y154190D02*
X81486D01*
X81516Y153959D01*
X81798Y153278D01*
X82247Y152693D01*
X82832Y152244D01*
X83513Y151962D01*
X83744Y151932D01*
Y154190D01*
D02*
G37*
G36*
X218943Y134624D02*
X218585Y134553D01*
X217857Y134066D01*
X217371Y133339D01*
X217300Y132980D01*
X218943D01*
Y134624D01*
D02*
G37*
G36*
X219943D02*
Y132980D01*
X221587D01*
X221516Y133339D01*
X221029Y134066D01*
X220302Y134553D01*
X219943Y134624D01*
D02*
G37*
G36*
X116696Y140925D02*
X114437D01*
X114468Y140694D01*
X114750Y140013D01*
X115199Y139428D01*
X115784Y138979D01*
X116465Y138697D01*
X116696Y138667D01*
Y140925D01*
D02*
G37*
G36*
X200642Y133314D02*
X200359Y133277D01*
X199629Y132975D01*
X199002Y132494D01*
X198521Y131867D01*
X198219Y131138D01*
X198182Y130854D01*
X200642D01*
Y133314D01*
D02*
G37*
G36*
X201642D02*
Y130854D01*
X204102D01*
X204064Y131138D01*
X203762Y131867D01*
X203281Y132494D01*
X202655Y132975D01*
X201925Y133277D01*
X201642Y133314D01*
D02*
G37*
G36*
X211741Y180086D02*
X210805Y179900D01*
X210011Y179369D01*
X209481Y178576D01*
X209295Y177639D01*
X209481Y176703D01*
X210011Y175909D01*
X210805Y175378D01*
X210824Y175375D01*
Y172358D01*
X180163Y141697D01*
X179964Y141400D01*
X179895Y141048D01*
Y132985D01*
X179395Y132834D01*
X179369Y132872D01*
X178773Y133270D01*
X178071Y133410D01*
X177369Y133270D01*
X176773Y132872D01*
X176519Y132492D01*
X159175D01*
X142668Y148999D01*
X142859Y149515D01*
X143411Y149743D01*
X143996Y150192D01*
X144445Y150777D01*
X144727Y151458D01*
X144757Y151689D01*
X141999D01*
Y152189D01*
X141499D01*
Y154947D01*
X141268Y154917D01*
X140587Y154635D01*
X140002Y154186D01*
X139676Y153761D01*
X139086Y153643D01*
X136658Y156071D01*
X136748Y156519D01*
X136608Y157222D01*
X136210Y157817D01*
X135615Y158215D01*
X134912Y158355D01*
X134210Y158215D01*
X133615Y157817D01*
X133217Y157222D01*
X133077Y156519D01*
X133217Y155817D01*
X133615Y155222D01*
X134210Y154824D01*
X134912Y154684D01*
X135361Y154773D01*
X138381Y151753D01*
Y151070D01*
X138451Y150719D01*
X138650Y150422D01*
X158146Y130926D01*
X158443Y130727D01*
X158577Y130700D01*
X158764Y130180D01*
X157107Y128523D01*
X156908Y128225D01*
X156838Y127874D01*
Y95893D01*
X156908Y95542D01*
X157107Y95244D01*
X166242Y86110D01*
X166336Y85636D01*
X166734Y85041D01*
X167329Y84643D01*
X168032Y84503D01*
X168734Y84643D01*
X169329Y85041D01*
X169727Y85636D01*
X169867Y86339D01*
X169727Y87041D01*
X169329Y87636D01*
X168734Y88034D01*
X168032Y88174D01*
X167329Y88034D01*
X167080Y87867D01*
X166337Y88611D01*
X166441Y89087D01*
X166510Y89144D01*
X167089Y89530D01*
X167487Y90126D01*
X167626Y90828D01*
X167487Y91531D01*
X167089Y92126D01*
X166912Y92244D01*
Y93448D01*
X167156Y93496D01*
X167614Y93803D01*
X167921Y94262D01*
X167934Y94327D01*
X168444D01*
X168457Y94262D01*
X168763Y93803D01*
X169222Y93496D01*
X169764Y93389D01*
X170305Y93496D01*
X170764Y93803D01*
X171071Y94262D01*
X171084Y94327D01*
X171593D01*
X171607Y94262D01*
X171913Y93803D01*
X172372Y93496D01*
X172913Y93389D01*
X173455Y93496D01*
X173914Y93803D01*
X174220Y94262D01*
X174233Y94327D01*
X174743D01*
X174756Y94262D01*
X175063Y93803D01*
X175522Y93496D01*
X176063Y93389D01*
X176604Y93496D01*
X177063Y93803D01*
X177370Y94262D01*
X177383Y94327D01*
X177893D01*
X177906Y94262D01*
X178212Y93803D01*
X178671Y93496D01*
X179213Y93389D01*
X179754Y93496D01*
X180213Y93803D01*
X180519Y94262D01*
X180533Y94327D01*
X181042D01*
X181055Y94262D01*
X181362Y93803D01*
X181821Y93496D01*
X182362Y93389D01*
X182904Y93496D01*
X183362Y93803D01*
X183669Y94262D01*
X183682Y94327D01*
X184192D01*
X184205Y94262D01*
X184512Y93803D01*
X184970Y93496D01*
X185512Y93389D01*
X186053Y93496D01*
X186512Y93803D01*
X186819Y94262D01*
X186832Y94327D01*
X187341D01*
X187355Y94262D01*
X187661Y93803D01*
X188120Y93496D01*
X188661Y93389D01*
X188794Y93415D01*
X189294Y93005D01*
Y85191D01*
X186146Y82043D01*
X175659D01*
X175378Y82231D01*
X174676Y82371D01*
X173974Y82231D01*
X173378Y81833D01*
X172980Y81238D01*
X172841Y80535D01*
X172980Y79833D01*
X173378Y79238D01*
X173974Y78840D01*
X174676Y78700D01*
X175378Y78840D01*
X175974Y79238D01*
X176372Y79833D01*
X176446Y80208D01*
X186526D01*
X186878Y80278D01*
X187175Y80477D01*
X190132Y83434D01*
X190665Y83259D01*
X190700Y83027D01*
X187107Y79434D01*
X187107Y79434D01*
X186055Y78382D01*
X182488D01*
X182234Y78762D01*
X181638Y79160D01*
X180936Y79300D01*
X180234Y79160D01*
X179638Y78762D01*
X179240Y78167D01*
X179101Y77464D01*
X179240Y76762D01*
X179638Y76167D01*
X180234Y75769D01*
X180936Y75629D01*
X181638Y75769D01*
X182234Y76167D01*
X182488Y76547D01*
X186435D01*
X186786Y76617D01*
X187084Y76815D01*
X188405Y78136D01*
X188405Y78137D01*
X192460Y82192D01*
X192659Y82489D01*
X192729Y82841D01*
Y93748D01*
X192811Y93803D01*
X193118Y94262D01*
X193131Y94327D01*
X193641D01*
X193654Y94262D01*
X193960Y93803D01*
X194419Y93496D01*
X194961Y93389D01*
X195502Y93496D01*
X195961Y93803D01*
X196267Y94262D01*
X196375Y94803D01*
X196267Y95345D01*
X195961Y95803D01*
X195502Y96110D01*
X195437Y96123D01*
Y96633D01*
X195502Y96646D01*
X195961Y96952D01*
X196267Y97411D01*
X196375Y97953D01*
X196267Y98494D01*
X195961Y98953D01*
X195898Y98995D01*
X195911Y99588D01*
X196249Y99814D01*
X196285Y99868D01*
X196785D01*
X196822Y99814D01*
X197413Y99419D01*
X197610Y99379D01*
Y101102D01*
X198610D01*
Y99379D01*
X198808Y99419D01*
X199399Y99814D01*
X199625Y100152D01*
X200217Y100165D01*
X200260Y100102D01*
X200718Y99796D01*
X201260Y99688D01*
X201801Y99796D01*
X202260Y100102D01*
X202567Y100561D01*
X202674Y101102D01*
X202567Y101644D01*
X202260Y102103D01*
X201801Y102409D01*
X201736Y102422D01*
Y102932D01*
X201801Y102945D01*
X202260Y103252D01*
X202567Y103711D01*
X202674Y104252D01*
X202567Y104793D01*
X202260Y105252D01*
X201801Y105559D01*
X201736Y105572D01*
Y106082D01*
X201801Y106095D01*
X202260Y106401D01*
X202567Y106860D01*
X202674Y107402D01*
X202567Y107943D01*
X202260Y108402D01*
X201801Y108709D01*
X201736Y108721D01*
Y109231D01*
X201801Y109244D01*
X202260Y109551D01*
X202567Y110010D01*
X202674Y110551D01*
X202567Y111092D01*
X202260Y111551D01*
X201801Y111858D01*
X201736Y111871D01*
Y112381D01*
X201801Y112394D01*
X202260Y112700D01*
X202567Y113159D01*
X202674Y113701D01*
X202567Y114242D01*
X202260Y114701D01*
X201801Y115008D01*
X201736Y115021D01*
Y115531D01*
X201801Y115543D01*
X202260Y115850D01*
X202567Y116309D01*
X202674Y116850D01*
X202567Y117392D01*
X202260Y117851D01*
X201801Y118157D01*
X201736Y118170D01*
Y118680D01*
X201801Y118693D01*
X202260Y119000D01*
X202567Y119459D01*
X202674Y120000D01*
X202567Y120541D01*
X202260Y121000D01*
X201801Y121307D01*
X201260Y121415D01*
X200718Y121307D01*
X200260Y121000D01*
X200217Y120937D01*
X199625Y120950D01*
X199399Y121289D01*
X198808Y121684D01*
X198610Y121723D01*
Y120000D01*
X197610D01*
Y121723D01*
X197413Y121684D01*
X196822Y121289D01*
X196785Y121235D01*
X196285D01*
X196249Y121289D01*
X195911Y121515D01*
X195898Y122107D01*
X195961Y122149D01*
X196267Y122608D01*
X196375Y123150D01*
X196267Y123691D01*
X195961Y124150D01*
X195502Y124457D01*
X195437Y124469D01*
Y124979D01*
X195502Y124992D01*
X195961Y125299D01*
X196267Y125758D01*
X196375Y126299D01*
X196267Y126840D01*
X195961Y127299D01*
X195502Y127606D01*
X194961Y127714D01*
X194419Y127606D01*
X193960Y127299D01*
X193654Y126840D01*
X193641Y126775D01*
X193131D01*
X193118Y126840D01*
X192811Y127299D01*
X192352Y127606D01*
X191811Y127714D01*
X191270Y127606D01*
X190811Y127299D01*
X190504Y126840D01*
X190491Y126775D01*
X189981D01*
X189968Y126840D01*
X189662Y127299D01*
X189203Y127606D01*
X188661Y127714D01*
X188120Y127606D01*
X187661Y127299D01*
X187619Y127236D01*
X187027Y127250D01*
X186801Y127588D01*
X186209Y127983D01*
X186012Y128022D01*
Y126299D01*
X185012D01*
Y128296D01*
X184894Y128393D01*
Y139384D01*
X187204Y141694D01*
X187683Y141549D01*
X187731Y141307D01*
X188217Y140579D01*
X188945Y140093D01*
X189303Y140022D01*
Y142165D01*
X190303D01*
Y140022D01*
X190662Y140093D01*
X191389Y140579D01*
X191878D01*
X192606Y140093D01*
X192965Y140022D01*
Y142165D01*
Y144309D01*
X192606Y144238D01*
X191956Y143803D01*
X191647Y143752D01*
X191621D01*
X191312Y143803D01*
X190662Y144238D01*
X190420Y144286D01*
X190275Y144764D01*
X217534Y172024D01*
X217733Y172321D01*
X217803Y172673D01*
Y175219D01*
X217822Y175223D01*
X218616Y175753D01*
X219146Y176547D01*
X219332Y177483D01*
X219146Y178420D01*
X218616Y179214D01*
X217822Y179744D01*
X216885Y179930D01*
X215949Y179744D01*
X215155Y179214D01*
X214624Y178420D01*
X214584Y178215D01*
X214074D01*
X214002Y178576D01*
X213472Y179369D01*
X212678Y179900D01*
X211741Y180086D01*
D02*
G37*
G36*
X168004Y140925D02*
X166360D01*
X166432Y140567D01*
X166918Y139839D01*
X167646Y139353D01*
X168004Y139281D01*
Y140925D01*
D02*
G37*
G36*
X170648D02*
X169004D01*
Y139281D01*
X169362Y139353D01*
X170090Y139839D01*
X170576Y140567D01*
X170648Y140925D01*
D02*
G37*
G36*
X199152Y141862D02*
X197508D01*
Y140219D01*
X197866Y140290D01*
X198594Y140776D01*
X199080Y141504D01*
X199152Y141862D01*
D02*
G37*
G36*
X119954Y140925D02*
X117696D01*
Y138667D01*
X117927Y138697D01*
X118608Y138979D01*
X119193Y139428D01*
X119641Y140013D01*
X119924Y140694D01*
X119954Y140925D01*
D02*
G37*
G36*
X173752Y140524D02*
X172108D01*
X172180Y140165D01*
X172666Y139437D01*
X173394Y138951D01*
X173752Y138880D01*
Y140524D01*
D02*
G37*
G36*
X176396D02*
X174752D01*
Y138880D01*
X175110Y138951D01*
X175838Y139437D01*
X176324Y140165D01*
X176396Y140524D01*
D02*
G37*
%LPD*%
G36*
X184205Y122608D02*
X184512Y122149D01*
X184970Y121843D01*
X185512Y121735D01*
X186053Y121843D01*
X186512Y122149D01*
X186554Y122213D01*
X187147Y122199D01*
X187373Y121861D01*
X187427Y121825D01*
Y121325D01*
X187373Y121289D01*
X186978Y120697D01*
X186938Y120500D01*
X188661D01*
Y119500D01*
X186938D01*
X186978Y119303D01*
X187373Y118711D01*
X187711Y118485D01*
X187724Y117893D01*
X187661Y117851D01*
X187355Y117392D01*
X187247Y116850D01*
X187355Y116309D01*
X187661Y115850D01*
X187724Y115808D01*
X187711Y115216D01*
X187373Y114989D01*
X186978Y114398D01*
X186938Y114201D01*
X188661D01*
Y113201D01*
X186938D01*
X186978Y113003D01*
X187373Y112412D01*
X187427Y112376D01*
Y111876D01*
X187373Y111840D01*
X186978Y111249D01*
X186938Y111051D01*
X188661D01*
Y110051D01*
X186938D01*
X186978Y109854D01*
X187359Y109283D01*
X187427Y109151D01*
Y108726D01*
X187373Y108690D01*
X186978Y108099D01*
X186938Y107902D01*
X188661D01*
Y106902D01*
X186938D01*
X186978Y106704D01*
X187373Y106113D01*
X187711Y105887D01*
X187724Y105295D01*
X187661Y105252D01*
X187355Y104793D01*
X187247Y104252D01*
X187355Y103711D01*
X187661Y103252D01*
X187724Y103209D01*
X187711Y102617D01*
X187373Y102391D01*
X186978Y101800D01*
X186938Y101602D01*
X188661D01*
Y100602D01*
X186938D01*
X186978Y100405D01*
X187373Y99814D01*
X187711Y99588D01*
X187724Y98995D01*
X187661Y98953D01*
X187355Y98494D01*
X187341Y98429D01*
X186832D01*
X186819Y98494D01*
X186512Y98953D01*
X186053Y99260D01*
X185512Y99367D01*
X184970Y99260D01*
X184512Y98953D01*
X184205Y98494D01*
X184192Y98429D01*
X183682D01*
X183669Y98494D01*
X183362Y98953D01*
X182904Y99260D01*
X182362Y99367D01*
X181821Y99260D01*
X181362Y98953D01*
X181055Y98494D01*
X181042Y98429D01*
X180533D01*
X180519Y98494D01*
X180213Y98953D01*
X179754Y99260D01*
X179213Y99367D01*
X178671Y99260D01*
X178212Y98953D01*
X177906Y98494D01*
X177893Y98429D01*
X177383D01*
X177370Y98494D01*
X177063Y98953D01*
X176604Y99260D01*
X176063Y99367D01*
X175522Y99260D01*
X175063Y98953D01*
X174756Y98494D01*
X174743Y98429D01*
X174233D01*
X174220Y98494D01*
X173914Y98953D01*
X173850Y98995D01*
X173864Y99588D01*
X174202Y99814D01*
X174597Y100405D01*
X174636Y100602D01*
X172913D01*
Y101602D01*
X174636D01*
X174597Y101800D01*
X174202Y102391D01*
X174148Y102427D01*
Y102927D01*
X174202Y102963D01*
X174597Y103554D01*
X174636Y103752D01*
X172913D01*
Y104752D01*
X174636D01*
X174597Y104949D01*
X174202Y105541D01*
X173864Y105767D01*
X173850Y106359D01*
X173914Y106401D01*
X174220Y106860D01*
X174328Y107402D01*
X174220Y107943D01*
X173914Y108402D01*
X173455Y108709D01*
X173389Y108721D01*
Y109231D01*
X173455Y109244D01*
X173914Y109551D01*
X174220Y110010D01*
X174328Y110551D01*
X174220Y111092D01*
X173914Y111551D01*
X173455Y111858D01*
X173389Y111871D01*
Y112381D01*
X173455Y112394D01*
X173914Y112700D01*
X174220Y113159D01*
X174328Y113701D01*
X174220Y114242D01*
X173914Y114701D01*
X173455Y115008D01*
X173389Y115021D01*
Y115531D01*
X173455Y115543D01*
X173914Y115850D01*
X174220Y116309D01*
X174328Y116850D01*
X174220Y117392D01*
X173914Y117851D01*
X173850Y117893D01*
X173864Y118485D01*
X174202Y118711D01*
X174597Y119303D01*
X174636Y119500D01*
X172913D01*
Y120500D01*
X174636D01*
X174597Y120697D01*
X174202Y121289D01*
X173864Y121515D01*
X173850Y122107D01*
X173914Y122149D01*
X174220Y122608D01*
X174233Y122674D01*
X174743D01*
X174756Y122608D01*
X175063Y122149D01*
X175522Y121843D01*
X176063Y121735D01*
X176604Y121843D01*
X177063Y122149D01*
X177370Y122608D01*
X177383Y122674D01*
X177893D01*
X177906Y122608D01*
X178212Y122149D01*
X178671Y121843D01*
X179213Y121735D01*
X179754Y121843D01*
X180213Y122149D01*
X180519Y122608D01*
X180533Y122674D01*
X181042D01*
X181055Y122608D01*
X181362Y122149D01*
X181821Y121843D01*
X182362Y121735D01*
X182904Y121843D01*
X183362Y122149D01*
X183669Y122608D01*
X183682Y122674D01*
X184192D01*
X184205Y122608D01*
D02*
G37*
G36*
X214624Y176547D02*
X215155Y175753D01*
X215949Y175223D01*
X215967Y175219D01*
Y173053D01*
X183327Y140413D01*
X183129Y140115D01*
X183059Y139764D01*
Y128058D01*
X182559Y127675D01*
X182362Y127714D01*
X182230Y127687D01*
X181730Y128098D01*
Y140668D01*
X212390Y171329D01*
X212589Y171627D01*
X212659Y171978D01*
Y175375D01*
X212678Y175378D01*
X213472Y175909D01*
X214002Y176703D01*
X214043Y176907D01*
X214553D01*
X214624Y176547D01*
D02*
G37*
G36*
X163965Y99379D02*
X164162Y99419D01*
X164733Y99800D01*
X164865Y99868D01*
X165214D01*
X165346Y99800D01*
X165380Y99778D01*
Y99278D01*
X165325Y99241D01*
X164930Y98650D01*
X164891Y98453D01*
X166614D01*
Y97453D01*
X164891D01*
X164930Y97255D01*
X165325Y96664D01*
X165664Y96438D01*
X165677Y95846D01*
X165614Y95803D01*
X165307Y95345D01*
X165281Y95214D01*
X164998Y94930D01*
X164755Y94567D01*
X164669Y94137D01*
X164669Y94137D01*
Y92244D01*
X164493Y92126D01*
X164107Y91547D01*
X164050Y91478D01*
X163573Y91374D01*
X158674Y96273D01*
Y100162D01*
X159174Y100313D01*
X159315Y100102D01*
X159774Y99796D01*
X160315Y99688D01*
X160856Y99796D01*
X161315Y100102D01*
X161357Y100165D01*
X161950Y100152D01*
X162176Y99814D01*
X162767Y99419D01*
X162965Y99379D01*
Y101102D01*
X163965D01*
Y99379D01*
D02*
G37*
G36*
X160068Y128182D02*
X159976Y127717D01*
X160116Y127014D01*
X160513Y126419D01*
X161109Y126021D01*
X161811Y125881D01*
X162513Y126021D01*
X163109Y126419D01*
X163363Y126799D01*
X164905D01*
X165222Y126412D01*
X165200Y126299D01*
X165307Y125758D01*
X165614Y125299D01*
X165677Y125257D01*
X165664Y124664D01*
X165325Y124438D01*
X164930Y123847D01*
X164891Y123650D01*
X166614D01*
Y122650D01*
X164891D01*
X164930Y122452D01*
X165325Y121861D01*
X165380Y121825D01*
Y121325D01*
X165325Y121289D01*
X165100Y120950D01*
X164507Y120937D01*
X164465Y121000D01*
X164006Y121307D01*
X163465Y121415D01*
X162923Y121307D01*
X162464Y121000D01*
X162158Y120541D01*
X162145Y120476D01*
X161635D01*
X161622Y120541D01*
X161315Y121000D01*
X160856Y121307D01*
X160315Y121415D01*
X159774Y121307D01*
X159315Y121000D01*
X159174Y120789D01*
X158674Y120941D01*
Y127494D01*
X159607Y128428D01*
X160068Y128182D01*
D02*
G37*
D21*
X124563Y50320D02*
Y60583D01*
X189246Y67532D02*
X197907Y76192D01*
X189243Y158094D02*
X202235Y171086D01*
X173630Y62031D02*
X179130Y67532D01*
X197907Y76192D02*
Y78423D01*
X123680Y49437D02*
X124563Y50320D01*
X179130Y67532D02*
X189246D01*
X123680Y49437D02*
X123731Y49385D01*
X165791Y90828D02*
Y94137D01*
X166575Y94921D01*
X172582Y146677D02*
X208347Y182441D01*
X232047D01*
X232441Y182047D01*
X200997Y55001D02*
X214833Y41165D01*
X154991D02*
X168827Y55001D01*
X200997D01*
X188738Y101105D02*
X191656D01*
X188622Y101221D02*
X188738Y101105D01*
X166575Y120118D02*
Y123268D01*
X169764Y126299D02*
X169764D01*
X166614Y123150D02*
X169764Y126299D01*
X166575Y120118D02*
X169724D01*
X169764Y120000D02*
X172913D01*
X169968Y149291D02*
X172582Y146677D01*
X160197Y149291D02*
X169968D01*
X191656Y101105D02*
X191772Y101221D01*
X160315Y104252D02*
X163465D01*
D22*
X180936Y77464D02*
X186435D01*
X139299Y151070D02*
Y152133D01*
X134912Y156519D02*
X139299Y152133D01*
X119558Y126858D02*
X139402D01*
X137126Y206422D02*
X142000Y211297D01*
X166408Y126584D02*
X166575Y126417D01*
X137126Y192677D02*
Y206422D01*
X107609Y97004D02*
Y163160D01*
X137126Y192677D01*
X113819Y164370D02*
X147402D01*
X160185Y177154D02*
X197823D01*
X147402Y164370D02*
X160185Y177154D01*
X89724Y32362D02*
Y153740D01*
X89016Y31653D02*
X89724Y32362D01*
X148465Y84252D02*
X164173D01*
X191587Y94803D02*
X191811D01*
X186435Y77464D02*
X187756Y78785D01*
X191811Y82841D02*
Y94803D01*
X187756Y78785D02*
X191811Y82841D01*
X139299Y151070D02*
X158794Y131575D01*
X167311Y86339D02*
X168032D01*
X157756Y95893D02*
X167311Y86339D01*
X139402Y126858D02*
X141102Y125157D01*
X142835D01*
X157756Y127874D02*
X160079Y130197D01*
X157756Y95893D02*
Y127874D01*
X160079Y130197D02*
X175315D01*
X179213Y126299D01*
X158794Y131575D02*
X178071D01*
X191811Y101102D02*
X194961D01*
X198110D01*
X191811D02*
Y104252D01*
Y107402D01*
X194961Y104252D02*
Y107402D01*
Y104252D02*
X198110D01*
X140787Y91929D02*
Y120346D01*
Y91929D02*
X148465Y84252D01*
D23*
X175267Y81126D02*
X186526D01*
X174676Y80535D02*
X175267Y81126D01*
X115227Y131582D02*
X139244D01*
X190211Y96353D02*
X191811Y97953D01*
X190211Y84811D02*
Y96353D01*
X186526Y81126D02*
X190211Y84811D01*
X211741Y171978D02*
Y177639D01*
X216885Y172673D02*
Y177483D01*
X139244Y131582D02*
X143110Y127717D01*
X146181D01*
X182362Y123150D02*
X183962Y124749D01*
X183976Y139764D02*
X216885Y172673D01*
X179213Y123150D02*
X180812Y124749D01*
Y141048D02*
X211741Y171978D01*
X183962Y124749D02*
Y126956D01*
X183976Y126970D01*
Y139764D01*
X180812Y124749D02*
Y141048D01*
X161811Y127717D02*
X165840D01*
X165972Y127849D01*
X170406D01*
X171363Y126892D01*
Y125657D02*
Y126892D01*
X174463Y124749D02*
X176063Y123150D01*
X171363Y125657D02*
X172271Y124749D01*
X174463D01*
D61*
X231496Y84488D02*
D03*
X125630Y98150D02*
D03*
X12000Y211297D02*
D03*
D62*
X201142Y130354D02*
D03*
X150748Y93228D02*
D03*
X201102Y125000D02*
D03*
D63*
X12000Y201297D02*
D03*
X22000Y211297D02*
D03*
Y201297D02*
D03*
X32000Y211297D02*
D03*
Y201297D02*
D03*
X42000Y211297D02*
D03*
Y201297D02*
D03*
X52000Y211297D02*
D03*
Y201297D02*
D03*
X62000Y211297D02*
D03*
Y201297D02*
D03*
X72000Y211297D02*
D03*
Y201297D02*
D03*
X82000Y211297D02*
D03*
Y201297D02*
D03*
X92000Y211297D02*
D03*
Y201297D02*
D03*
X102000Y211297D02*
D03*
Y201297D02*
D03*
X112000Y211297D02*
D03*
Y201297D02*
D03*
X122000Y211297D02*
D03*
Y201297D02*
D03*
X132000Y211297D02*
D03*
Y201297D02*
D03*
X142000Y211297D02*
D03*
Y201297D02*
D03*
X152000Y211297D02*
D03*
Y201297D02*
D03*
X162000Y211297D02*
D03*
Y201297D02*
D03*
D64*
X201260Y120000D02*
D03*
X194961Y123150D02*
D03*
X198110Y116850D02*
D03*
Y120000D02*
D03*
X194961Y126299D02*
D03*
X191811Y123150D02*
D03*
X194961Y120000D02*
D03*
X191811D02*
D03*
X201260Y113701D02*
D03*
Y116850D02*
D03*
Y110551D02*
D03*
X198110Y113701D02*
D03*
X194961D02*
D03*
Y116850D02*
D03*
X198110Y110551D02*
D03*
X194961D02*
D03*
X191811Y126299D02*
D03*
X188661D02*
D03*
Y123150D02*
D03*
X185512Y126299D02*
D03*
X182362D02*
D03*
X179213D02*
D03*
X185512Y123150D02*
D03*
X182362D02*
D03*
X191811Y116850D02*
D03*
X188661Y120000D02*
D03*
X191811Y110551D02*
D03*
Y113701D02*
D03*
X188661D02*
D03*
Y116850D02*
D03*
Y110551D02*
D03*
X201260Y104252D02*
D03*
Y107402D02*
D03*
X198110D02*
D03*
X194961Y104252D02*
D03*
Y107402D02*
D03*
X201260Y101102D02*
D03*
X198110D02*
D03*
Y104252D02*
D03*
X194961Y101102D02*
D03*
Y94803D02*
D03*
Y97953D02*
D03*
X191811Y107402D02*
D03*
X188661D02*
D03*
X191811Y101102D02*
D03*
Y104252D02*
D03*
X188661D02*
D03*
Y101102D02*
D03*
X185512Y97953D02*
D03*
X191811D02*
D03*
X188661D02*
D03*
X191811Y94803D02*
D03*
X188661D02*
D03*
X185512D02*
D03*
X182362Y97953D02*
D03*
Y94803D02*
D03*
X179213D02*
D03*
X176063Y126299D02*
D03*
X172913D02*
D03*
X176063Y123150D02*
D03*
X169764D02*
D03*
Y126299D02*
D03*
X179213Y123150D02*
D03*
X172913Y120000D02*
D03*
Y110551D02*
D03*
Y116850D02*
D03*
Y123150D02*
D03*
X169764Y120000D02*
D03*
X172913Y113701D02*
D03*
X169764D02*
D03*
X166614Y123150D02*
D03*
Y126299D02*
D03*
X169764Y116850D02*
D03*
X166614Y120000D02*
D03*
X163465D02*
D03*
X160315D02*
D03*
X163465Y116850D02*
D03*
X160315D02*
D03*
X166614Y113701D02*
D03*
Y116850D02*
D03*
X169764Y110551D02*
D03*
X166614D02*
D03*
X163465Y113701D02*
D03*
X160315D02*
D03*
X163465Y110551D02*
D03*
X160315D02*
D03*
X172913Y101102D02*
D03*
Y104252D02*
D03*
X179213Y97953D02*
D03*
X176063D02*
D03*
X172913Y107402D02*
D03*
X169764Y104252D02*
D03*
Y101102D02*
D03*
X172913Y97953D02*
D03*
X169764D02*
D03*
X176063Y94803D02*
D03*
X172913D02*
D03*
X169764D02*
D03*
Y107402D02*
D03*
X166614D02*
D03*
X163465D02*
D03*
X160315Y104252D02*
D03*
Y107402D02*
D03*
X166614Y101102D02*
D03*
Y104252D02*
D03*
Y94803D02*
D03*
Y97953D02*
D03*
X163465Y101102D02*
D03*
Y104252D02*
D03*
X160315Y101102D02*
D03*
D65*
X222001Y21297D02*
D03*
X232000D02*
D03*
X182001D02*
D03*
X212000D02*
D03*
X202000D02*
D03*
Y11297D02*
D03*
X192000Y21297D02*
D03*
X132001D02*
D03*
X142000D02*
D03*
X122001D02*
D03*
X162001D02*
D03*
X172001D02*
D03*
X152000D02*
D03*
X232000Y11297D02*
D03*
X212000D02*
D03*
X222001D02*
D03*
X182001D02*
D03*
X192000D02*
D03*
X172001D02*
D03*
X122001D02*
D03*
X132001D02*
D03*
X112001D02*
D03*
X152000D02*
D03*
X162001D02*
D03*
X142000D02*
D03*
X102000Y21297D02*
D03*
X112001D02*
D03*
X92001D02*
D03*
X72000D02*
D03*
X82000D02*
D03*
X62001D02*
D03*
X42000D02*
D03*
X52000D02*
D03*
X22001D02*
D03*
X32000D02*
D03*
X72000Y11297D02*
D03*
X82000D02*
D03*
X52000D02*
D03*
X62001D02*
D03*
X92001D02*
D03*
X102000D02*
D03*
X32000D02*
D03*
X42000D02*
D03*
X12000D02*
D03*
X22001D02*
D03*
D66*
X12000Y21297D02*
D03*
D67*
X216885Y177483D02*
D03*
X211741Y177639D02*
D03*
X203013Y170625D02*
D03*
X123389Y48364D02*
D03*
X84244Y154690D02*
D03*
X124563Y60583D02*
D03*
X84912Y105204D02*
D03*
X117196Y141425D02*
D03*
X184519Y166756D02*
D03*
X141999Y152189D02*
D03*
X189243Y158094D02*
D03*
X152629Y72661D02*
D03*
X107609Y97004D02*
D03*
X113819Y164370D02*
D03*
X197823Y177154D02*
D03*
X232638Y182992D02*
D03*
X89016Y31653D02*
D03*
X89724Y153740D02*
D03*
X156102Y56417D02*
D03*
D68*
X154991Y41165D02*
D03*
X214833Y41165D02*
D03*
X219443Y114764D02*
D03*
Y132480D02*
D03*
Y128937D02*
D03*
X197907Y78423D02*
D03*
X192403Y77402D02*
D03*
X219443Y100591D02*
D03*
Y97047D02*
D03*
Y107677D02*
D03*
Y104134D02*
D03*
X173630Y62031D02*
D03*
X219443Y125394D02*
D03*
X180936Y77464D02*
D03*
X219443Y111221D02*
D03*
Y118307D02*
D03*
Y121850D02*
D03*
X174676Y80535D02*
D03*
X134912Y156519D02*
D03*
X115227Y131582D02*
D03*
X119558Y126858D02*
D03*
X204606Y77638D02*
D03*
X210079Y78071D02*
D03*
X168032Y86339D02*
D03*
X164173Y84252D02*
D03*
X165791Y90828D02*
D03*
X222520Y178532D02*
D03*
X194528Y184016D02*
D03*
X135315Y65197D02*
D03*
X100039Y44094D02*
D03*
X204095Y48583D02*
D03*
X170787Y47087D02*
D03*
X182550Y47904D02*
D03*
X192393Y48237D02*
D03*
X164331Y79331D02*
D03*
X175984Y201024D02*
D03*
X161811Y127717D02*
D03*
X146181D02*
D03*
X142835Y125157D02*
D03*
X178071Y131575D02*
D03*
X160197Y149291D02*
D03*
X174252Y141024D02*
D03*
X168504Y141425D02*
D03*
X189803Y142165D02*
D03*
X193465D02*
D03*
X197008Y142362D02*
D03*
X140787Y120346D02*
D03*
X144370Y104252D02*
D03*
Y108189D02*
D03*
Y112008D02*
D03*
Y115512D02*
D03*
Y118858D02*
D03*
D69*
X195039Y115886D02*
D03*
D70*
X191260Y110709D02*
D03*
D71*
X167776Y102854D02*
D03*
D72*
X164961Y99646D02*
D03*
D73*
X198307Y123268D02*
D03*
D74*
X165453Y123386D02*
D03*
D75*
X200807Y128091D02*
D03*
D76*
X167657Y112244D02*
D03*
D77*
X194961Y102677D02*
D03*
D78*
X193386Y105827D02*
D03*
X190236Y121575D02*
D03*
M02*
