M48
;Layer_Color=9474304
;FILE_FORMAT=2:5
INCH,LZ
;TYPE=PLATED
T1F00S00C0.01000
T2F00S00C0.01200
T3F00S00C0.01800
T4F00S00C0.02000
T5F00S00C0.03543
T6F00S00C0.06300
%
T01
X0166614Y0094803
X0169764
X0172913
X0176063
X0179213
X0182362
X0185512
X0188661
X0191811
Y0097953
Y0101102
X0194961
Y0097953
Y0094803
X019811Y0101102
X020126
Y0104252
X019811
X0194961
X0191811
X0188661
Y0101102
Y0097953
X0185512
X0182362
X0179213
X0176063
X0172913
X0169764
Y0101102
X0172913
Y0104252
X0169764
X0166614
Y0101102
Y0097953
X0163465Y0101102
X0160315
Y0104252
X0163465
Y0107402
X0160315
X0166614
X0169764
X0172913
X0188661
X0191811
X0194961
X019811
X020126
Y0110551
X019811
X0194961
X0191811
X0188661
Y0113701
Y011685
X0191811
Y0113701
X0194961
X019811
Y011685
X0194961
Y012
X019811
X020126
Y011685
Y0113701
X0191811Y012
X0188661
Y012315
X0185512
Y0126299
X0188661
X0191811
Y012315
X0194961
Y0126299
X0182362
Y012315
X0179213
Y0126299
X0176063
Y012315
X0172913
X0169764
Y0126299
X0172913
Y012
X0169764
Y011685
Y0113701
X0172913
Y011685
Y0110551
X0169764
X0166614
X0163465
X0160315
Y0113701
X0163465
Y011685
X0160315
Y012
X0163465
X0166614
Y011685
Y0113701
Y012315
Y0126299
T02
X0154991Y0041165
X01707Y00482
X0176645Y0047745
X018255Y0047904
X0192393Y0048237
X0198298Y0048963
X0204095Y0048583
X02088Y00503
X0214833Y0041165
X0204204Y00621
X019808Y0062031
X01966Y00774
X0200135Y00772
X0202235Y00798
X01943Y0079748
X01907Y008
X0192393Y0077391
X01881Y00778
X01847Y008
X01828Y00773
X0179842Y00795
X01769Y00781
X01727Y00783
X01748Y0081
X0168032Y0086339
X0164173Y0084252
X0164331Y0079331
X0165791Y0090828
X01553Y0104134
X0155421Y0108003
X01984Y0097613
X02019Y00977
X0219443Y0097047
Y0100591
Y0104134
Y0107677
X02106Y00832
X02146Y00729
X017363Y0062031
X013375Y0075682
X014437Y0104252
Y0108189
X0100039Y0044094
X0119558Y0126858
X0115227Y0131582
X01277Y01347
X0142835Y0125157
X0140787Y0120346
X014437Y0118858
Y0115512
Y0112008
X0155532Y0111911
X0155521Y0115211
X0155511Y0118869
X0161811Y0127717
X0146181
X0160197Y0149291
X0168504Y0141425
X0174252Y0141024
X017852Y01365
X0178071Y0131575
X0186969Y0130591
X0191693
X0193465Y0142165
X0189803
X0197008Y0142362
X0219443Y013248
Y0128937
Y0125394
Y012185
Y0118307
Y0114764
Y0111221
X022252Y0178532
X0194528Y0184016
X01866Y0177154
X01727Y01703
X01606Y01802
X0175984Y0201024
X01803Y0201297
T03
X0156102Y0056417
X0152629Y0072661
X0124563Y0060583
X0123389Y0048364
X0089016Y0031653
X0084912Y0105204
X0107609Y0097004
X0117196Y0141425
X0113819Y016437
X0089724Y015374
X0084244Y015469
X0141999Y0152189
X0189243Y0158094
X0184519Y0166756
X0203013Y0170625
X0197823Y0177154
X0211741Y0177639
X0216885Y0177483
X0232638Y0182992
T04
X0150748Y0093228
X0201102Y0125
X0201142Y0130354
T05
X0152Y00113
Y00213
X0162
X0172
Y00113
X0182
X0192
X0202
X0212
X0222
X0232
Y00213
X0222
X0212
X0202
X0192
X0182
X0162Y00113
X02324Y00807
X012563Y009815
X0122Y00213
X0132
Y00113
X0142
Y00213
X0122Y00113
X0112
X0102
Y00213
X0092
X0082
Y00113
X0072
X0062
Y00213
X0072
X0052
X0042
Y00113
X0052
X0032
Y00213
X0022
X0012
Y00113
X0022
X0092
X0112Y00213
X0112Y0201297
X0102
X0092
X0082
X0072
X0062
X0052
X0042
X0032
X0022
X0012
Y0211297
X0022
X0032
X0042
X0052
X0062
X0072
X0082
X0092
X0102
X0112
X0122
Y0201297
X0132
Y0211297
X0142
Y0201297
X0152
Y0211297
X0162
Y0201297
X02359Y01743
Y015
T06
X023498Y010773
X005828Y007463
X005848Y015413
X023408Y012943
M30
