G04 Layer_Physical_Order=4*
G04 Layer_Color=16711680*
%FSLAX25Y25*%
%MOIN*%
G70*
G01*
G75*
%ADD23C,0.00600*%
%ADD24C,0.01000*%
%ADD62C,0.06000*%
%ADD63R,0.06000X0.06000*%
%ADD64C,0.02200*%
%ADD65C,0.04000*%
%ADD66C,0.05906*%
%ADD67R,0.05906X0.05906*%
%ADD68C,0.07500*%
%ADD69C,0.02400*%
%ADD70C,0.03600*%
%ADD72R,0.03150X0.03150*%
%ADD73R,0.06299X0.03150*%
%ADD74R,0.04134X0.15748*%
%ADD75R,0.06732X0.10591*%
%ADD76R,0.03740X0.01811*%
%ADD77R,0.01811X0.06772*%
%ADD78R,0.05118X0.03150*%
%ADD79R,0.10827X0.05079*%
%ADD80R,0.07323X0.08110*%
%ADD81R,0.08425X0.10433*%
D23*
X155669Y134700D02*
X158794Y131575D01*
X127700Y134700D02*
X155669D01*
X195069Y174400D02*
X197823Y177154D01*
X157431Y174400D02*
X195069D01*
X147402Y164370D02*
X157431Y174400D01*
X140787Y91929D02*
X148465Y84252D01*
X194961Y104252D02*
X198110D01*
X194961D02*
Y107402D01*
X191811Y104252D02*
Y107402D01*
Y101102D02*
Y104252D01*
X194961Y101102D02*
X198110D01*
X191811D02*
X194961D01*
X158794Y131575D02*
X178071D01*
X143110Y127717D02*
X146181D01*
X139244Y131582D02*
X143110Y127717D01*
X89016Y31653D02*
X89724Y32362D01*
Y153740D01*
X113819Y164370D02*
X147402D01*
X107609Y163160D02*
X137126Y192677D01*
X107609Y97004D02*
Y163160D01*
X137126Y192677D02*
Y206422D01*
X166408Y126584D02*
X166575Y126417D01*
X137126Y206422D02*
X142000Y211297D01*
X115227Y131582D02*
X139244D01*
X119558Y126858D02*
X139402D01*
X141102Y125157D01*
X148465Y84252D02*
X164173D01*
X141102Y125157D02*
X142835D01*
X140787Y91929D02*
Y120346D01*
D24*
X92500Y27700D02*
X101700Y36900D01*
X70000Y27700D02*
X92500D01*
X67000Y24700D02*
X70000Y27700D01*
X62000Y11300D02*
X67000Y16300D01*
Y24700D01*
X101700Y36900D02*
X160400D01*
Y43100D01*
X169700Y52400D01*
X206700D01*
X208800Y50300D01*
X214833Y41165D02*
Y49466D01*
X209299Y55001D02*
X214833Y49466D01*
X168827Y55001D02*
X209299D01*
X173630Y62031D02*
X198080D01*
X160315Y104252D02*
X163465D01*
X191656Y101105D02*
X191772Y101221D01*
X160197Y149291D02*
X169968D01*
X172582Y146677D01*
X169764Y120000D02*
X172913D01*
X166575Y120118D02*
X169724D01*
X166614Y123150D02*
X169764Y126299D01*
X169764D01*
X166575Y120118D02*
Y123268D01*
X188622Y101221D02*
X188738Y101105D01*
X191656D01*
X154991Y41165D02*
X168827Y55001D01*
X232047Y182441D02*
X232441Y182047D01*
X208347Y182441D02*
X232047D01*
X172582Y146677D02*
X208347Y182441D01*
X165791Y94137D02*
X166575Y94921D01*
X165791Y90828D02*
Y94137D01*
X123680Y49437D02*
X123731Y49385D01*
X123680Y49437D02*
X124563Y50320D01*
X189243Y158094D02*
X202235Y171086D01*
X124563Y50320D02*
Y60583D01*
D62*
X22000Y11300D02*
D03*
Y21300D02*
D03*
X112000Y11300D02*
D03*
X122000Y21300D02*
D03*
X112000D02*
D03*
X222000D02*
D03*
X232000Y11300D02*
D03*
X192000Y21300D02*
D03*
X122000Y11300D02*
D03*
X132000Y21300D02*
D03*
X102000Y11300D02*
D03*
X32000D02*
D03*
Y21300D02*
D03*
X162000Y11300D02*
D03*
Y21300D02*
D03*
X172000D02*
D03*
X182000D02*
D03*
X172000Y11300D02*
D03*
X182000D02*
D03*
X192000D02*
D03*
X202000D02*
D03*
Y21300D02*
D03*
X212000Y11300D02*
D03*
Y21300D02*
D03*
X222000Y11300D02*
D03*
X232000Y21300D02*
D03*
X152000Y11300D02*
D03*
Y21300D02*
D03*
X142000D02*
D03*
Y11300D02*
D03*
X52000D02*
D03*
X42000D02*
D03*
Y21300D02*
D03*
X52000D02*
D03*
X132000Y11300D02*
D03*
X92000D02*
D03*
X72000Y21300D02*
D03*
X102000D02*
D03*
X62000Y11300D02*
D03*
X72000D02*
D03*
X62000Y21300D02*
D03*
X82000D02*
D03*
Y11300D02*
D03*
X92000Y21300D02*
D03*
X12000Y11300D02*
D03*
D63*
Y21300D02*
D03*
D64*
X194961Y94803D02*
D03*
X166614Y126299D02*
D03*
X169764D02*
D03*
X172913D02*
D03*
X176063D02*
D03*
X179213D02*
D03*
X182362D02*
D03*
X185512D02*
D03*
X188661D02*
D03*
X191811D02*
D03*
X194961D02*
D03*
X166614Y123150D02*
D03*
X169764D02*
D03*
X172913D02*
D03*
X176063D02*
D03*
X179213D02*
D03*
X182362D02*
D03*
X185512D02*
D03*
X188661D02*
D03*
X191811D02*
D03*
X194961D02*
D03*
X160315Y120000D02*
D03*
X163465D02*
D03*
X166614D02*
D03*
X169764D02*
D03*
X172913D02*
D03*
X188661D02*
D03*
X191811D02*
D03*
X194961D02*
D03*
X198110D02*
D03*
X201260D02*
D03*
X160315Y116850D02*
D03*
X163465D02*
D03*
X166614D02*
D03*
X169764D02*
D03*
X172913D02*
D03*
X188661D02*
D03*
X191811D02*
D03*
X194961D02*
D03*
X198110D02*
D03*
X201260D02*
D03*
X160315Y113701D02*
D03*
X163465D02*
D03*
X166614D02*
D03*
X169764D02*
D03*
X172913D02*
D03*
X188661D02*
D03*
X191811D02*
D03*
X194961D02*
D03*
X198110D02*
D03*
X201260D02*
D03*
X160315Y110551D02*
D03*
X163465D02*
D03*
X166614D02*
D03*
X169764D02*
D03*
X172913D02*
D03*
X188661D02*
D03*
X191811D02*
D03*
X194961D02*
D03*
X198110D02*
D03*
X201260D02*
D03*
X160315Y107402D02*
D03*
X163465D02*
D03*
X166614D02*
D03*
X169764D02*
D03*
X172913D02*
D03*
X188661D02*
D03*
X191811D02*
D03*
X194961D02*
D03*
X198110D02*
D03*
X201260D02*
D03*
X160315Y104252D02*
D03*
X163465D02*
D03*
X166614D02*
D03*
X169764D02*
D03*
X172913D02*
D03*
X188661D02*
D03*
X191811D02*
D03*
X194961D02*
D03*
X198110D02*
D03*
X201260D02*
D03*
X160315Y101102D02*
D03*
X163465D02*
D03*
X166614D02*
D03*
X169764D02*
D03*
X172913D02*
D03*
X188661D02*
D03*
X191811D02*
D03*
X194961D02*
D03*
X198110D02*
D03*
X201260D02*
D03*
X166614Y97953D02*
D03*
X169764D02*
D03*
X172913D02*
D03*
X176063D02*
D03*
X179213D02*
D03*
X182362D02*
D03*
X185512D02*
D03*
X188661D02*
D03*
X191811D02*
D03*
X194961D02*
D03*
X166614Y94803D02*
D03*
X169764D02*
D03*
X172913D02*
D03*
X176063D02*
D03*
X179213D02*
D03*
X182362D02*
D03*
X185512D02*
D03*
X188661D02*
D03*
X191811D02*
D03*
D65*
X201102Y125000D02*
D03*
X150748Y93228D02*
D03*
X201142Y130354D02*
D03*
D66*
X162000Y201297D02*
D03*
Y211297D02*
D03*
X152000Y201297D02*
D03*
Y211297D02*
D03*
X142000Y201297D02*
D03*
Y211297D02*
D03*
X132000Y201297D02*
D03*
Y211297D02*
D03*
X122000Y201297D02*
D03*
Y211297D02*
D03*
X112000Y201297D02*
D03*
Y211297D02*
D03*
X102000Y201297D02*
D03*
Y211297D02*
D03*
X92000Y201297D02*
D03*
Y211297D02*
D03*
X82000Y201297D02*
D03*
Y211297D02*
D03*
X72000Y201297D02*
D03*
Y211297D02*
D03*
X62000Y201297D02*
D03*
Y211297D02*
D03*
X52000Y201297D02*
D03*
Y211297D02*
D03*
X42000Y201297D02*
D03*
Y211297D02*
D03*
X32000Y201297D02*
D03*
Y211297D02*
D03*
X22000Y201297D02*
D03*
Y211297D02*
D03*
X12000Y201297D02*
D03*
D67*
Y211297D02*
D03*
X125630Y98150D02*
D03*
X232400Y80700D02*
D03*
X235900Y174300D02*
D03*
Y150000D02*
D03*
D68*
X58280Y74630D02*
D03*
X234080Y129430D02*
D03*
X234980Y107730D02*
D03*
X58480Y154130D02*
D03*
D69*
X210600Y83200D02*
D03*
X219443Y132480D02*
D03*
Y125394D02*
D03*
X214600Y72900D02*
D03*
X204204Y62100D02*
D03*
X208800Y50300D02*
D03*
X172700Y78300D02*
D03*
X174800Y81000D02*
D03*
X176900Y78100D02*
D03*
X184700Y80000D02*
D03*
X127700Y134700D02*
D03*
X133750Y75682D02*
D03*
X178520Y136500D02*
D03*
X188100Y77800D02*
D03*
X192393Y77391D02*
D03*
X190700Y80000D02*
D03*
X196600Y77400D02*
D03*
X202235Y79800D02*
D03*
X194300Y79748D02*
D03*
X200135Y77200D02*
D03*
X198080Y62031D02*
D03*
X201900Y97700D02*
D03*
X198400Y97613D02*
D03*
X191693Y130591D02*
D03*
X186969D02*
D03*
X180300Y201297D02*
D03*
X160600Y180200D02*
D03*
X172700Y170300D02*
D03*
X186600Y177154D02*
D03*
X170700Y48200D02*
D03*
X176645Y47745D02*
D03*
X198298Y48963D02*
D03*
X144370Y104252D02*
D03*
X197008Y142362D02*
D03*
X193465Y142165D02*
D03*
X189803D02*
D03*
X168504Y141425D02*
D03*
X174252Y141024D02*
D03*
X160197Y149291D02*
D03*
X178071Y131575D02*
D03*
X146181Y127717D02*
D03*
X161811D02*
D03*
X175984Y201024D02*
D03*
X164331Y79331D02*
D03*
X192393Y48237D02*
D03*
X182550Y47904D02*
D03*
X204095Y48583D02*
D03*
X100039Y44094D02*
D03*
X194528Y184016D02*
D03*
X222520Y178532D02*
D03*
X165791Y90828D02*
D03*
X168032Y86339D02*
D03*
X119558Y126858D02*
D03*
X115227Y131582D02*
D03*
X219443Y121850D02*
D03*
Y118307D02*
D03*
Y111221D02*
D03*
X173630Y62031D02*
D03*
X219443Y104134D02*
D03*
Y107677D02*
D03*
Y97047D02*
D03*
Y100591D02*
D03*
Y128937D02*
D03*
Y114764D02*
D03*
X214833Y41165D02*
D03*
X154991Y41165D02*
D03*
X155421Y108003D02*
D03*
X182800Y77300D02*
D03*
X179842Y79500D02*
D03*
X164173Y84252D02*
D03*
X142835Y125157D02*
D03*
X144370Y108189D02*
D03*
Y112008D02*
D03*
X155511Y118869D02*
D03*
X140787Y120346D02*
D03*
X155521Y115211D02*
D03*
X155532Y111911D02*
D03*
X155300Y104134D02*
D03*
X144370Y118858D02*
D03*
Y115512D02*
D03*
D70*
X156102Y56417D02*
D03*
X89724Y153740D02*
D03*
X89016Y31653D02*
D03*
X232638Y182992D02*
D03*
X197823Y177154D02*
D03*
X113819Y164370D02*
D03*
X107609Y97004D02*
D03*
X152629Y72661D02*
D03*
X189243Y158094D02*
D03*
X141999Y152189D02*
D03*
X184519Y166756D02*
D03*
X117196Y141425D02*
D03*
X84912Y105204D02*
D03*
X124563Y60583D02*
D03*
X123389Y48364D02*
D03*
X203013Y170625D02*
D03*
X211741Y177639D02*
D03*
X216885Y177483D02*
D03*
X84244Y154690D02*
D03*
D72*
X190236Y121575D02*
D03*
X193386Y105827D02*
D03*
D73*
X194961Y102677D02*
D03*
D74*
X167657Y112244D02*
D03*
D75*
X200807Y128091D02*
D03*
D76*
X165453Y123386D02*
D03*
D77*
X198307Y123268D02*
D03*
D78*
X164961Y99646D02*
D03*
D79*
X167776Y102854D02*
D03*
D80*
X191260Y110709D02*
D03*
D81*
X195039Y115886D02*
D03*
M02*
