G04 Layer_Color=16711935*
%FSLAX25Y25*%
%MOIN*%
G70*
G01*
G75*
%ADD62C,0.02200*%
%ADD105C,0.08300*%
%ADD106R,0.06706X0.06706*%
%ADD107C,0.04800*%
%ADD108C,0.06706*%
%ADD109R,0.06400X0.06400*%
%ADD110C,0.06400*%
%ADD111C,0.03200*%
%ADD112C,0.04400*%
D62*
X191811Y94803D02*
D03*
X188661D02*
D03*
X185512D02*
D03*
X182362D02*
D03*
X179213D02*
D03*
X176063D02*
D03*
X172913D02*
D03*
X169764D02*
D03*
X166614D02*
D03*
X194961Y97953D02*
D03*
X191811D02*
D03*
X188661D02*
D03*
X185512D02*
D03*
X182362D02*
D03*
X179213D02*
D03*
X176063D02*
D03*
X172913D02*
D03*
X169764D02*
D03*
X166614D02*
D03*
X201260Y101102D02*
D03*
X198110D02*
D03*
X194961D02*
D03*
X191811D02*
D03*
X188661D02*
D03*
X172913D02*
D03*
X169764D02*
D03*
X166614D02*
D03*
X163465D02*
D03*
X160315D02*
D03*
X201260Y104252D02*
D03*
X198110D02*
D03*
X194961D02*
D03*
X191811D02*
D03*
X188661D02*
D03*
X172913D02*
D03*
X169764D02*
D03*
X166614D02*
D03*
X163465D02*
D03*
X160315D02*
D03*
X201260Y107402D02*
D03*
X198110D02*
D03*
X194961D02*
D03*
X191811D02*
D03*
X188661D02*
D03*
X172913D02*
D03*
X169764D02*
D03*
X166614D02*
D03*
X163465D02*
D03*
X160315D02*
D03*
X201260Y110551D02*
D03*
X198110D02*
D03*
X194961D02*
D03*
X191811D02*
D03*
X188661D02*
D03*
X172913D02*
D03*
X169764D02*
D03*
X166614D02*
D03*
X163465D02*
D03*
X160315D02*
D03*
X201260Y113701D02*
D03*
X198110D02*
D03*
X194961D02*
D03*
X191811D02*
D03*
X188661D02*
D03*
X172913D02*
D03*
X169764D02*
D03*
X166614D02*
D03*
X163465D02*
D03*
X160315D02*
D03*
X201260Y116850D02*
D03*
X198110D02*
D03*
X194961D02*
D03*
X191811D02*
D03*
X188661D02*
D03*
X172913D02*
D03*
X169764D02*
D03*
X166614D02*
D03*
X163465D02*
D03*
X160315D02*
D03*
X201260Y120000D02*
D03*
X198110D02*
D03*
X194961D02*
D03*
X191811D02*
D03*
X188661D02*
D03*
X172913D02*
D03*
X169764D02*
D03*
X166614D02*
D03*
X163465D02*
D03*
X160315D02*
D03*
X194961Y123150D02*
D03*
X191811D02*
D03*
X188661D02*
D03*
X185512D02*
D03*
X182362D02*
D03*
X179213D02*
D03*
X176063D02*
D03*
X172913D02*
D03*
X169764D02*
D03*
X166614D02*
D03*
X194961Y126299D02*
D03*
X191811D02*
D03*
X188661D02*
D03*
X185512D02*
D03*
X182362D02*
D03*
X179213D02*
D03*
X176063D02*
D03*
X172913D02*
D03*
X169764D02*
D03*
X166614D02*
D03*
X194961Y94803D02*
D03*
D105*
X58480Y154130D02*
D03*
X234980Y107730D02*
D03*
X234080Y129430D02*
D03*
X58280Y74630D02*
D03*
D106*
X235900Y150000D02*
D03*
Y174300D02*
D03*
X232400Y80700D02*
D03*
X125630Y98150D02*
D03*
X12000Y211297D02*
D03*
D107*
X201142Y130354D02*
D03*
X150748Y93228D02*
D03*
X201102Y125000D02*
D03*
D108*
X12000Y201297D02*
D03*
X22000Y211297D02*
D03*
Y201297D02*
D03*
X32000Y211297D02*
D03*
Y201297D02*
D03*
X42000Y211297D02*
D03*
Y201297D02*
D03*
X52000Y211297D02*
D03*
Y201297D02*
D03*
X62000Y211297D02*
D03*
Y201297D02*
D03*
X72000Y211297D02*
D03*
Y201297D02*
D03*
X82000Y211297D02*
D03*
Y201297D02*
D03*
X92000Y211297D02*
D03*
Y201297D02*
D03*
X102000Y211297D02*
D03*
Y201297D02*
D03*
X112000Y211297D02*
D03*
Y201297D02*
D03*
X122000Y211297D02*
D03*
Y201297D02*
D03*
X132000Y211297D02*
D03*
Y201297D02*
D03*
X142000Y211297D02*
D03*
Y201297D02*
D03*
X152000Y211297D02*
D03*
Y201297D02*
D03*
X162000Y211297D02*
D03*
Y201297D02*
D03*
D109*
X12000Y21300D02*
D03*
D110*
Y11300D02*
D03*
X92000Y21300D02*
D03*
X82000Y11300D02*
D03*
Y21300D02*
D03*
X62000D02*
D03*
X72000Y11300D02*
D03*
X62000D02*
D03*
X102000Y21300D02*
D03*
X72000D02*
D03*
X92000Y11300D02*
D03*
X132000D02*
D03*
X52000Y21300D02*
D03*
X42000D02*
D03*
Y11300D02*
D03*
X52000D02*
D03*
X142000D02*
D03*
Y21300D02*
D03*
X152000D02*
D03*
Y11300D02*
D03*
X232000Y21300D02*
D03*
X222000Y11300D02*
D03*
X212000Y21300D02*
D03*
Y11300D02*
D03*
X202000Y21300D02*
D03*
Y11300D02*
D03*
X192000D02*
D03*
X182000D02*
D03*
X172000D02*
D03*
X182000Y21300D02*
D03*
X172000D02*
D03*
X162000D02*
D03*
Y11300D02*
D03*
X32000Y21300D02*
D03*
Y11300D02*
D03*
X102000D02*
D03*
X132000Y21300D02*
D03*
X122000Y11300D02*
D03*
X192000Y21300D02*
D03*
X232000Y11300D02*
D03*
X222000Y21300D02*
D03*
X112000D02*
D03*
X122000D02*
D03*
X112000Y11300D02*
D03*
X22000Y21300D02*
D03*
Y11300D02*
D03*
D111*
X144370Y115512D02*
D03*
Y118858D02*
D03*
X155300Y104134D02*
D03*
X155532Y111911D02*
D03*
X155521Y115211D02*
D03*
X140787Y120346D02*
D03*
X155511Y118869D02*
D03*
X144370Y112008D02*
D03*
Y108189D02*
D03*
X142835Y125157D02*
D03*
X164173Y84252D02*
D03*
X179842Y79500D02*
D03*
X182800Y77300D02*
D03*
X155421Y108003D02*
D03*
X154991Y41165D02*
D03*
X214833Y41165D02*
D03*
X219443Y114764D02*
D03*
Y128937D02*
D03*
Y100591D02*
D03*
Y97047D02*
D03*
Y107677D02*
D03*
Y104134D02*
D03*
X173630Y62031D02*
D03*
X219443Y111221D02*
D03*
Y118307D02*
D03*
Y121850D02*
D03*
X115227Y131582D02*
D03*
X119558Y126858D02*
D03*
X168032Y86339D02*
D03*
X165791Y90828D02*
D03*
X222520Y178532D02*
D03*
X194528Y184016D02*
D03*
X100039Y44094D02*
D03*
X204095Y48583D02*
D03*
X182550Y47904D02*
D03*
X192393Y48237D02*
D03*
X164331Y79331D02*
D03*
X175984Y201024D02*
D03*
X161811Y127717D02*
D03*
X146181D02*
D03*
X178071Y131575D02*
D03*
X160197Y149291D02*
D03*
X174252Y141024D02*
D03*
X168504Y141425D02*
D03*
X189803Y142165D02*
D03*
X193465D02*
D03*
X197008Y142362D02*
D03*
X144370Y104252D02*
D03*
X198298Y48963D02*
D03*
X176645Y47745D02*
D03*
X170700Y48200D02*
D03*
X186600Y177154D02*
D03*
X172700Y170300D02*
D03*
X160600Y180200D02*
D03*
X180300Y201297D02*
D03*
X186969Y130591D02*
D03*
X191693D02*
D03*
X198400Y97613D02*
D03*
X201900Y97700D02*
D03*
X198080Y62031D02*
D03*
X200135Y77200D02*
D03*
X194300Y79748D02*
D03*
X202235Y79800D02*
D03*
X196600Y77400D02*
D03*
X190700Y80000D02*
D03*
X192393Y77391D02*
D03*
X188100Y77800D02*
D03*
X178520Y136500D02*
D03*
X133750Y75682D02*
D03*
X127700Y134700D02*
D03*
X184700Y80000D02*
D03*
X176900Y78100D02*
D03*
X174800Y81000D02*
D03*
X172700Y78300D02*
D03*
X208800Y50300D02*
D03*
X204204Y62100D02*
D03*
X214600Y72900D02*
D03*
X219443Y125394D02*
D03*
Y132480D02*
D03*
X210600Y83200D02*
D03*
D112*
X84244Y154690D02*
D03*
X216885Y177483D02*
D03*
X211741Y177639D02*
D03*
X203013Y170625D02*
D03*
X123389Y48364D02*
D03*
X124563Y60583D02*
D03*
X84912Y105204D02*
D03*
X117196Y141425D02*
D03*
X184519Y166756D02*
D03*
X141999Y152189D02*
D03*
X189243Y158094D02*
D03*
X152629Y72661D02*
D03*
X107609Y97004D02*
D03*
X113819Y164370D02*
D03*
X197823Y177154D02*
D03*
X232638Y182992D02*
D03*
X89016Y31653D02*
D03*
X89724Y153740D02*
D03*
X156102Y56417D02*
D03*
M02*
