G04 Layer_Color=16711935*
%FSLAX25Y25*%
%MOIN*%
G70*
G01*
G75*
%ADD64C,0.01378*%
%ADD96R,0.06706X0.06706*%
%ADD97C,0.04800*%
%ADD98C,0.06706*%
%ADD99C,0.06400*%
%ADD100R,0.06400X0.06400*%
%ADD101C,0.04400*%
%ADD102C,0.03200*%
D64*
X201260Y120000D02*
D03*
X194961Y123150D02*
D03*
X198110Y116850D02*
D03*
Y120000D02*
D03*
X194961Y126299D02*
D03*
X191811Y123150D02*
D03*
X194961Y120000D02*
D03*
X191811D02*
D03*
X201260Y113701D02*
D03*
Y116850D02*
D03*
Y110551D02*
D03*
X198110Y113701D02*
D03*
X194961D02*
D03*
Y116850D02*
D03*
X198110Y110551D02*
D03*
X194961D02*
D03*
X191811Y126299D02*
D03*
X188661D02*
D03*
Y123150D02*
D03*
X185512Y126299D02*
D03*
X182362D02*
D03*
X179213D02*
D03*
X185512Y123150D02*
D03*
X182362D02*
D03*
X191811Y116850D02*
D03*
X188661Y120000D02*
D03*
X191811Y110551D02*
D03*
Y113701D02*
D03*
X188661D02*
D03*
Y116850D02*
D03*
Y110551D02*
D03*
X201260Y104252D02*
D03*
Y107402D02*
D03*
X198110D02*
D03*
X194961Y104252D02*
D03*
Y107402D02*
D03*
X201260Y101102D02*
D03*
X198110D02*
D03*
Y104252D02*
D03*
X194961Y101102D02*
D03*
Y94803D02*
D03*
Y97953D02*
D03*
X191811Y107402D02*
D03*
X188661D02*
D03*
X191811Y101102D02*
D03*
Y104252D02*
D03*
X188661D02*
D03*
Y101102D02*
D03*
X185512Y97953D02*
D03*
X191811D02*
D03*
X188661D02*
D03*
X191811Y94803D02*
D03*
X188661D02*
D03*
X185512D02*
D03*
X182362Y97953D02*
D03*
Y94803D02*
D03*
X179213D02*
D03*
X176063Y126299D02*
D03*
X172913D02*
D03*
X176063Y123150D02*
D03*
X169764D02*
D03*
Y126299D02*
D03*
X179213Y123150D02*
D03*
X172913Y120000D02*
D03*
Y110551D02*
D03*
Y116850D02*
D03*
Y123150D02*
D03*
X169764Y120000D02*
D03*
X172913Y113701D02*
D03*
X169764D02*
D03*
X166614Y123150D02*
D03*
Y126299D02*
D03*
X169764Y116850D02*
D03*
X166614Y120000D02*
D03*
X163465D02*
D03*
X160315D02*
D03*
X163465Y116850D02*
D03*
X160315D02*
D03*
X166614Y113701D02*
D03*
Y116850D02*
D03*
X169764Y110551D02*
D03*
X166614D02*
D03*
X163465Y113701D02*
D03*
X160315D02*
D03*
X163465Y110551D02*
D03*
X160315D02*
D03*
X172913Y101102D02*
D03*
Y104252D02*
D03*
X179213Y97953D02*
D03*
X176063D02*
D03*
X172913Y107402D02*
D03*
X169764Y104252D02*
D03*
Y101102D02*
D03*
X172913Y97953D02*
D03*
X169764D02*
D03*
X176063Y94803D02*
D03*
X172913D02*
D03*
X169764D02*
D03*
Y107402D02*
D03*
X166614D02*
D03*
X163465D02*
D03*
X160315Y104252D02*
D03*
Y107402D02*
D03*
X166614Y101102D02*
D03*
Y104252D02*
D03*
Y94803D02*
D03*
Y97953D02*
D03*
X163465Y101102D02*
D03*
Y104252D02*
D03*
X160315Y101102D02*
D03*
D96*
X231496Y84488D02*
D03*
X125630Y98150D02*
D03*
X12000Y211297D02*
D03*
D97*
X201142Y130354D02*
D03*
X150748Y93228D02*
D03*
X201102Y125000D02*
D03*
D98*
X12000Y201297D02*
D03*
X22000Y211297D02*
D03*
Y201297D02*
D03*
X32000Y211297D02*
D03*
Y201297D02*
D03*
X42000Y211297D02*
D03*
Y201297D02*
D03*
X52000Y211297D02*
D03*
Y201297D02*
D03*
X62000Y211297D02*
D03*
Y201297D02*
D03*
X72000Y211297D02*
D03*
Y201297D02*
D03*
X82000Y211297D02*
D03*
Y201297D02*
D03*
X92000Y211297D02*
D03*
Y201297D02*
D03*
X102000Y211297D02*
D03*
Y201297D02*
D03*
X112000Y211297D02*
D03*
Y201297D02*
D03*
X122000Y211297D02*
D03*
Y201297D02*
D03*
X132000Y211297D02*
D03*
Y201297D02*
D03*
X142000Y211297D02*
D03*
Y201297D02*
D03*
X152000Y211297D02*
D03*
Y201297D02*
D03*
X162000Y211297D02*
D03*
Y201297D02*
D03*
D99*
X222001Y21297D02*
D03*
X232000D02*
D03*
X182001D02*
D03*
X212000D02*
D03*
X202000D02*
D03*
Y11297D02*
D03*
X192000Y21297D02*
D03*
X132001D02*
D03*
X142000D02*
D03*
X122001D02*
D03*
X162001D02*
D03*
X172001D02*
D03*
X152000D02*
D03*
X232000Y11297D02*
D03*
X212000D02*
D03*
X222001D02*
D03*
X182001D02*
D03*
X192000D02*
D03*
X172001D02*
D03*
X122001D02*
D03*
X132001D02*
D03*
X112001D02*
D03*
X152000D02*
D03*
X162001D02*
D03*
X142000D02*
D03*
X102000Y21297D02*
D03*
X112001D02*
D03*
X92001D02*
D03*
X72000D02*
D03*
X82000D02*
D03*
X62001D02*
D03*
X42000D02*
D03*
X52000D02*
D03*
X22001D02*
D03*
X32000D02*
D03*
X72000Y11297D02*
D03*
X82000D02*
D03*
X52000D02*
D03*
X62001D02*
D03*
X92001D02*
D03*
X102000D02*
D03*
X32000D02*
D03*
X42000D02*
D03*
X12000D02*
D03*
X22001D02*
D03*
D100*
X12000Y21297D02*
D03*
D101*
X216885Y177483D02*
D03*
X211741Y177639D02*
D03*
X203013Y170625D02*
D03*
X123389Y48364D02*
D03*
X84244Y154690D02*
D03*
X124563Y60583D02*
D03*
X84912Y105204D02*
D03*
X117196Y141425D02*
D03*
X184519Y166756D02*
D03*
X141999Y152189D02*
D03*
X189243Y158094D02*
D03*
X152629Y72661D02*
D03*
X107609Y97004D02*
D03*
X113819Y164370D02*
D03*
X197823Y177154D02*
D03*
X232638Y182992D02*
D03*
X89016Y31653D02*
D03*
X89724Y153740D02*
D03*
X156102Y56417D02*
D03*
D102*
X154991Y41165D02*
D03*
X214833Y41165D02*
D03*
X219443Y114764D02*
D03*
Y132480D02*
D03*
Y128937D02*
D03*
X197907Y78423D02*
D03*
X192403Y77402D02*
D03*
X219443Y100591D02*
D03*
Y97047D02*
D03*
Y107677D02*
D03*
Y104134D02*
D03*
X173630Y62031D02*
D03*
X219443Y125394D02*
D03*
X180936Y77464D02*
D03*
X219443Y111221D02*
D03*
Y118307D02*
D03*
Y121850D02*
D03*
X174676Y80535D02*
D03*
X134912Y156519D02*
D03*
X115227Y131582D02*
D03*
X119558Y126858D02*
D03*
X204606Y77638D02*
D03*
X210079Y78071D02*
D03*
X168032Y86339D02*
D03*
X164173Y84252D02*
D03*
X165791Y90828D02*
D03*
X222520Y178532D02*
D03*
X194528Y184016D02*
D03*
X135315Y65197D02*
D03*
X100039Y44094D02*
D03*
X204095Y48583D02*
D03*
X170787Y47087D02*
D03*
X182550Y47904D02*
D03*
X192393Y48237D02*
D03*
X164331Y79331D02*
D03*
X175984Y201024D02*
D03*
X161811Y127717D02*
D03*
X146181D02*
D03*
X142835Y125157D02*
D03*
X178071Y131575D02*
D03*
X160197Y149291D02*
D03*
X174252Y141024D02*
D03*
X168504Y141425D02*
D03*
X189803Y142165D02*
D03*
X193465D02*
D03*
X197008Y142362D02*
D03*
X140787Y120346D02*
D03*
X144370Y104252D02*
D03*
Y108189D02*
D03*
Y112008D02*
D03*
Y115512D02*
D03*
Y118858D02*
D03*
M02*
