G04 Layer_Physical_Order=1*
G04 Layer_Color=255*
%FSLAX25Y25*%
%MOIN*%
G70*
G01*
G75*
%ADD10R,0.05709X0.02165*%
%ADD11R,0.05709X0.02165*%
%ADD12O,0.09843X0.02756*%
%ADD13R,0.05500X0.05500*%
%ADD14R,0.02165X0.05709*%
%ADD15R,0.02165X0.05709*%
%ADD16O,0.00984X0.08709*%
%ADD17R,0.02756X0.05118*%
%ADD18R,0.02362X0.01969*%
%ADD19R,0.01969X0.02362*%
%ADD20R,0.03937X0.03937*%
%ADD21C,0.01000*%
%ADD22C,0.00600*%
%ADD23C,0.00500*%
%ADD24R,0.07756X0.05591*%
%ADD25R,0.03976X0.35197*%
%ADD26R,0.04016X0.45512*%
%ADD27R,0.12874X0.05000*%
%ADD28R,0.05551X0.02717*%
%ADD29R,0.04724X0.02598*%
%ADD30R,0.02008X0.02717*%
%ADD31R,0.02559X0.15197*%
%ADD32R,0.04095X0.02087*%
%ADD33R,0.02835X0.11969*%
%ADD34R,0.04331X0.12913*%
%ADD35R,0.08268X0.02701*%
%ADD36R,0.12677X0.01654*%
%ADD37R,0.02992X0.14370*%
%ADD38R,0.25197X0.01890*%
%ADD39R,0.11408X0.04622*%
%ADD40R,0.06299X0.10630*%
%ADD41R,0.04213X0.35079*%
%ADD42R,0.06811X0.01457*%
%ADD43R,0.18543X0.02795*%
%ADD44R,0.10158X0.06142*%
%ADD45R,0.04095X0.06535*%
%ADD46R,0.03622X0.02402*%
%ADD47R,0.02756X0.13819*%
%ADD48R,0.18307X0.02677*%
%ADD49R,0.02393X0.17126*%
%ADD50R,0.23378X0.03386*%
%ADD51R,0.04678X0.51260*%
%ADD52R,0.05118X0.09803*%
%ADD53R,0.03425X0.03189*%
%ADD54R,0.08828X0.10472*%
%ADD55R,0.07677X0.08189*%
%ADD56R,0.03386X0.06299*%
%ADD57R,0.03701X0.02874*%
%ADD58R,0.17874X0.04291*%
%ADD59R,0.01978X0.12811*%
%ADD60R,0.02126X0.22874*%
%ADD61R,0.05906X0.05906*%
%ADD62C,0.04000*%
%ADD63C,0.05906*%
%ADD64C,0.01378*%
%ADD65C,0.06000*%
%ADD66R,0.06000X0.06000*%
%ADD67C,0.03600*%
%ADD68C,0.02400*%
G36*
X243047Y988D02*
X847D01*
Y59346D01*
X19617D01*
X19969Y59416D01*
X20266Y59615D01*
X20372Y59721D01*
X20571Y60018D01*
X20641Y60370D01*
Y160292D01*
X20571Y160643D01*
X20372Y160941D01*
X19843Y161470D01*
X19545Y161669D01*
X19194Y161739D01*
X953D01*
Y222042D01*
X243047D01*
Y988D01*
D02*
G37*
%LPC*%
G36*
X92159Y111358D02*
X86790D01*
Y109433D01*
X89833D01*
X90761Y109618D01*
X91548Y110144D01*
X92074Y110930D01*
X92159Y111358D01*
D02*
G37*
G36*
X89833Y118875D02*
X82747D01*
X81975Y118721D01*
X81321Y118284D01*
X80884Y117630D01*
X80730Y116858D01*
X80884Y116086D01*
X81307Y115453D01*
X81319Y115413D01*
X81263Y114857D01*
X81155Y114785D01*
X56989Y90619D01*
X56790Y90321D01*
X56720Y89970D01*
Y15660D01*
X56790Y15308D01*
X56989Y15011D01*
X58869Y13130D01*
X58856Y13113D01*
X58493Y12237D01*
X58369Y11297D01*
X58493Y10357D01*
X58856Y9481D01*
X59433Y8729D01*
X60185Y8152D01*
X61061Y7790D01*
X62001Y7666D01*
X62940Y7790D01*
X63816Y8152D01*
X64568Y8729D01*
X65145Y9481D01*
X65508Y10357D01*
X65632Y11297D01*
X65508Y12237D01*
X65145Y13113D01*
X64568Y13864D01*
X63816Y14442D01*
X62940Y14804D01*
X62001Y14928D01*
X61061Y14804D01*
X60185Y14442D01*
X60167Y14428D01*
X58555Y16040D01*
Y19035D01*
X59065Y19208D01*
X59433Y18729D01*
X60185Y18152D01*
X61061Y17790D01*
X62001Y17666D01*
X62940Y17790D01*
X63816Y18152D01*
X64568Y18729D01*
X65145Y19481D01*
X65508Y20357D01*
X65632Y21297D01*
X65508Y22237D01*
X65246Y22868D01*
X76525Y34146D01*
X79399Y31272D01*
X79696Y31073D01*
X80047Y31003D01*
X86698D01*
X86755Y30717D01*
X87286Y29923D01*
X88079Y29393D01*
X89016Y29206D01*
X89952Y29393D01*
X90746Y29923D01*
X91277Y30717D01*
X91334Y31003D01*
X109358D01*
X109709Y31073D01*
X110007Y31272D01*
X112989Y34255D01*
X113188Y34552D01*
X113258Y34904D01*
Y37945D01*
X113436Y38381D01*
X113768Y38381D01*
X120345D01*
Y38666D01*
X121783D01*
Y37873D01*
X124951D01*
Y38666D01*
X147707D01*
X147707Y38666D01*
X148137Y38751D01*
X148501Y38994D01*
X149600Y40093D01*
X153542D01*
X153693Y39867D01*
X154289Y39470D01*
X154991Y39330D01*
X155693Y39470D01*
X156289Y39867D01*
X156440Y40093D01*
X163720D01*
Y36697D01*
X163805Y36270D01*
X164046Y35909D01*
X164407Y35668D01*
X164636Y35622D01*
X164837Y35108D01*
X164837Y35102D01*
X163019Y33284D01*
X142542D01*
X142113Y33198D01*
X141749Y32955D01*
X141749Y32955D01*
X140162Y31369D01*
X111428D01*
X110999Y31283D01*
X110635Y31040D01*
X110635Y31040D01*
X105821Y26226D01*
X105578Y25862D01*
X105493Y25433D01*
X105493Y25433D01*
Y23497D01*
X104983Y23324D01*
X104568Y23865D01*
X103816Y24442D01*
X102940Y24804D01*
X102000Y24928D01*
X101061Y24804D01*
X100185Y24442D01*
X99433Y23865D01*
X98856Y23112D01*
X98493Y22237D01*
X98369Y21297D01*
X98493Y20357D01*
X98856Y19481D01*
X99433Y18729D01*
X100185Y18152D01*
X101061Y17790D01*
X102000Y17666D01*
X102940Y17790D01*
X103816Y18152D01*
X104568Y18729D01*
X104983Y19270D01*
X105493Y19097D01*
Y16375D01*
X103634Y14517D01*
X102940Y14804D01*
X102000Y14928D01*
X101061Y14804D01*
X100185Y14442D01*
X99433Y13864D01*
X98856Y13113D01*
X98493Y12237D01*
X98369Y11297D01*
X98493Y10357D01*
X98856Y9481D01*
X99433Y8729D01*
X100185Y8152D01*
X101061Y7790D01*
X102000Y7666D01*
X102940Y7790D01*
X103816Y8152D01*
X104568Y8729D01*
X105145Y9481D01*
X105508Y10357D01*
X105631Y11297D01*
X105508Y12237D01*
X105220Y12931D01*
X107407Y15118D01*
X107407Y15118D01*
X107650Y15482D01*
X107736Y15911D01*
X107736Y15911D01*
Y24969D01*
X111893Y29126D01*
X119983D01*
X120179Y28655D01*
X115198Y23674D01*
X114689Y23707D01*
X114568Y23865D01*
X113816Y24442D01*
X112940Y24804D01*
X112001Y24928D01*
X111061Y24804D01*
X110185Y24442D01*
X109433Y23865D01*
X108856Y23112D01*
X108493Y22237D01*
X108369Y21297D01*
X108493Y20357D01*
X108856Y19481D01*
X109433Y18729D01*
X110185Y18152D01*
X111061Y17790D01*
X112001Y17666D01*
X112940Y17790D01*
X113816Y18152D01*
X114568Y18729D01*
X115145Y19481D01*
X115508Y20357D01*
X115577Y20880D01*
X122222Y27526D01*
X140178D01*
X140374Y27055D01*
X137107Y23788D01*
X136864Y23424D01*
X136779Y22995D01*
X136779Y22995D01*
Y15397D01*
X136779Y15397D01*
X136864Y14968D01*
X137107Y14604D01*
X138781Y12931D01*
X138493Y12237D01*
X138369Y11297D01*
X138493Y10357D01*
X138856Y9481D01*
X139433Y8729D01*
X140185Y8152D01*
X141061Y7790D01*
X142000Y7666D01*
X142940Y7790D01*
X143816Y8152D01*
X144568Y8729D01*
X145145Y9481D01*
X145508Y10357D01*
X145632Y11297D01*
X145508Y12237D01*
X145145Y13113D01*
X144568Y13864D01*
X143816Y14442D01*
X142940Y14804D01*
X142000Y14928D01*
X141061Y14804D01*
X140367Y14517D01*
X139022Y15861D01*
Y18499D01*
X139532Y18653D01*
X140185Y18152D01*
X141061Y17790D01*
X142000Y17666D01*
X142940Y17790D01*
X143816Y18152D01*
X144568Y18729D01*
X145145Y19481D01*
X145508Y20357D01*
X145632Y21297D01*
X145508Y22237D01*
X145268Y22816D01*
X148693Y26241D01*
X158422D01*
X158633Y25731D01*
X156136Y23234D01*
X155893Y22870D01*
X155862Y22714D01*
X155332Y22662D01*
X155145Y23112D01*
X154568Y23865D01*
X153816Y24442D01*
X152940Y24804D01*
X152000Y24928D01*
X151061Y24804D01*
X150185Y24442D01*
X149433Y23865D01*
X148856Y23112D01*
X148493Y22237D01*
X148369Y21297D01*
X148493Y20357D01*
X148781Y19663D01*
X147107Y17990D01*
X146864Y17626D01*
X146779Y17197D01*
X146779Y17197D01*
Y9599D01*
X146779Y9599D01*
X146864Y9170D01*
X147107Y8806D01*
X147493Y8420D01*
Y7197D01*
X147578Y6768D01*
X147821Y6404D01*
X148185Y6161D01*
X148614Y6075D01*
X173699D01*
X173699Y6075D01*
X174128Y6161D01*
X174492Y6404D01*
X178089Y10001D01*
X178690Y9881D01*
X178856Y9481D01*
X179433Y8729D01*
X180185Y8152D01*
X181061Y7790D01*
X182001Y7666D01*
X182940Y7790D01*
X183816Y8152D01*
X184568Y8729D01*
X185145Y9481D01*
X185508Y10357D01*
X185632Y11297D01*
X185508Y12237D01*
X185145Y13113D01*
X184568Y13864D01*
X183816Y14442D01*
X182940Y14804D01*
X182001Y14928D01*
X181061Y14804D01*
X180185Y14442D01*
X179532Y13941D01*
X179022Y14095D01*
Y18499D01*
X179532Y18653D01*
X180185Y18152D01*
X181061Y17790D01*
X182001Y17666D01*
X182940Y17790D01*
X183816Y18152D01*
X184568Y18729D01*
X185145Y19481D01*
X185508Y20357D01*
X185632Y21297D01*
X185508Y22237D01*
X185145Y23112D01*
X184568Y23865D01*
X183816Y24442D01*
X182940Y24804D01*
X182001Y24928D01*
X181920Y24995D01*
X181647Y25396D01*
X181703Y25676D01*
Y35336D01*
X181880Y35475D01*
X182213Y35650D01*
X182550Y35583D01*
X182887Y35650D01*
X183220Y35475D01*
X183397Y35336D01*
Y34577D01*
X183397Y34577D01*
X183482Y34148D01*
X183726Y33784D01*
X192128Y25382D01*
X191877Y24912D01*
X191061Y24804D01*
X190185Y24442D01*
X189433Y23865D01*
X188856Y23112D01*
X188493Y22237D01*
X188369Y21297D01*
X188493Y20357D01*
X188856Y19481D01*
X189433Y18729D01*
X190185Y18152D01*
X191061Y17790D01*
X192000Y17666D01*
X192940Y17790D01*
X193816Y18152D01*
X194568Y18729D01*
X195145Y19481D01*
X195508Y20357D01*
X195615Y21173D01*
X196085Y21424D01*
X196477Y21033D01*
Y15699D01*
X196477Y15699D01*
X196562Y15270D01*
X196805Y14906D01*
X198781Y12931D01*
X198493Y12237D01*
X198369Y11297D01*
X198493Y10357D01*
X198856Y9481D01*
X199433Y8729D01*
X200185Y8152D01*
X201061Y7790D01*
X202000Y7666D01*
X202940Y7790D01*
X203816Y8152D01*
X204568Y8729D01*
X205145Y9481D01*
X205508Y10357D01*
X205631Y11297D01*
X205508Y12237D01*
X205145Y13113D01*
X204568Y13864D01*
X203816Y14442D01*
X202940Y14804D01*
X202000Y14928D01*
X201061Y14804D01*
X200367Y14517D01*
X198720Y16164D01*
Y18821D01*
X199230Y18994D01*
X199433Y18729D01*
X200185Y18152D01*
X201061Y17790D01*
X202000Y17666D01*
X202940Y17790D01*
X203816Y18152D01*
X204568Y18729D01*
X205145Y19481D01*
X205508Y20357D01*
X205631Y21297D01*
X205508Y22237D01*
X205145Y23112D01*
X204568Y23865D01*
X203816Y24442D01*
X203555Y24550D01*
X203657Y25060D01*
X204144D01*
X206201Y23002D01*
Y15975D01*
X206201Y15975D01*
X206287Y15545D01*
X206530Y15181D01*
X208781Y12931D01*
X208493Y12237D01*
X208369Y11297D01*
X208493Y10357D01*
X208856Y9481D01*
X209433Y8729D01*
X210185Y8152D01*
X211061Y7790D01*
X212000Y7666D01*
X212940Y7790D01*
X213816Y8152D01*
X214568Y8729D01*
X215145Y9481D01*
X215508Y10357D01*
X215632Y11297D01*
X215508Y12237D01*
X215145Y13113D01*
X214568Y13864D01*
X213816Y14442D01*
X212940Y14804D01*
X212000Y14928D01*
X211061Y14804D01*
X210367Y14517D01*
X208444Y16439D01*
Y19197D01*
X208954Y19353D01*
X209433Y18729D01*
X210185Y18152D01*
X211061Y17790D01*
X212000Y17666D01*
X212940Y17790D01*
X213816Y18152D01*
X214469Y18653D01*
X214979Y18499D01*
Y17197D01*
X214979Y17197D01*
X215064Y16768D01*
X215307Y16404D01*
X218781Y12931D01*
X218493Y12237D01*
X218369Y11297D01*
X218493Y10357D01*
X218856Y9481D01*
X219433Y8729D01*
X220185Y8152D01*
X221061Y7790D01*
X222001Y7666D01*
X222940Y7790D01*
X223816Y8152D01*
X224568Y8729D01*
X225145Y9481D01*
X225508Y10357D01*
X225631Y11297D01*
X225508Y12237D01*
X225145Y13113D01*
X224568Y13864D01*
X223816Y14442D01*
X222940Y14804D01*
X222001Y14928D01*
X221061Y14804D01*
X220367Y14517D01*
X217222Y17661D01*
Y23823D01*
X217693Y24018D01*
X218781Y22931D01*
X218493Y22237D01*
X218369Y21297D01*
X218493Y20357D01*
X218856Y19481D01*
X219433Y18729D01*
X220185Y18152D01*
X221061Y17790D01*
X222001Y17666D01*
X222940Y17790D01*
X223816Y18152D01*
X224568Y18729D01*
X224628Y18808D01*
X225240Y18767D01*
X225307Y18667D01*
X229542Y14432D01*
X229509Y13923D01*
X229433Y13864D01*
X228856Y13113D01*
X228493Y12237D01*
X228369Y11297D01*
X228493Y10357D01*
X228856Y9481D01*
X229433Y8729D01*
X230185Y8152D01*
X231061Y7790D01*
X232000Y7666D01*
X232940Y7790D01*
X233816Y8152D01*
X234568Y8729D01*
X235145Y9481D01*
X235508Y10357D01*
X235631Y11297D01*
X235508Y12237D01*
X235145Y13113D01*
X234568Y13864D01*
X233816Y14442D01*
X232940Y14804D01*
X232251Y14895D01*
X227222Y19924D01*
Y23953D01*
X227374Y24071D01*
X227708Y24188D01*
X228835Y23062D01*
X228493Y22237D01*
X228369Y21297D01*
X228493Y20357D01*
X228856Y19481D01*
X229433Y18729D01*
X230185Y18152D01*
X231061Y17790D01*
X232000Y17666D01*
X232940Y17790D01*
X233816Y18152D01*
X234568Y18729D01*
X235145Y19481D01*
X235508Y20357D01*
X235631Y21297D01*
X235508Y22237D01*
X235145Y23112D01*
X234568Y23865D01*
X233816Y24442D01*
X232940Y24804D01*
X232000Y24928D01*
X231061Y24804D01*
X230498Y24571D01*
X219424Y35645D01*
X219060Y35888D01*
X218631Y35973D01*
X218631Y35973D01*
X211506D01*
X211180Y36483D01*
X211223Y36697D01*
Y40044D01*
X213418D01*
X213536Y39867D01*
X214131Y39470D01*
X214833Y39330D01*
X215536Y39470D01*
X216131Y39867D01*
X216529Y40463D01*
X216669Y41165D01*
X216529Y41868D01*
X216131Y42463D01*
X215536Y42861D01*
X214833Y43000D01*
X214131Y42861D01*
X213536Y42463D01*
X213418Y42287D01*
X211223D01*
Y44421D01*
X211138Y44847D01*
X210896Y45208D01*
X210535Y45450D01*
X210109Y45535D01*
X209683Y45450D01*
X209322Y45208D01*
X208928D01*
X208567Y45450D01*
X208141Y45535D01*
X207715Y45450D01*
X207353Y45208D01*
X206960D01*
X206598Y45450D01*
X206172Y45535D01*
X205835Y45467D01*
X205502Y45643D01*
X205325Y45782D01*
Y47240D01*
X205392Y47285D01*
X205790Y47880D01*
X205930Y48583D01*
X205790Y49285D01*
X205392Y49880D01*
X204797Y50278D01*
X204095Y50418D01*
X203392Y50278D01*
X202797Y49880D01*
X202399Y49285D01*
X202259Y48583D01*
X202399Y47880D01*
X202797Y47285D01*
X203082Y47094D01*
Y45782D01*
X202905Y45643D01*
X202572Y45467D01*
X202235Y45535D01*
X201809Y45450D01*
X201448Y45208D01*
X201054D01*
X200693Y45450D01*
X200267Y45535D01*
X199840Y45450D01*
X199788Y45415D01*
X199374Y45497D01*
X198880Y45827D01*
X198798Y45843D01*
Y40559D01*
X197798D01*
Y45843D01*
X197716Y45827D01*
X197222Y45497D01*
X196809Y45415D01*
X196756Y45450D01*
X196330Y45535D01*
X195903Y45450D01*
X195694Y45310D01*
X195345Y45245D01*
X194997Y45310D01*
X194787Y45450D01*
X194361Y45535D01*
X194024Y45467D01*
X193691Y45643D01*
X193514Y45782D01*
Y46822D01*
X193690Y46940D01*
X194088Y47535D01*
X194228Y48237D01*
X194088Y48940D01*
X193690Y49535D01*
X193095Y49933D01*
X192393Y50073D01*
X191690Y49933D01*
X191095Y49535D01*
X190697Y48940D01*
X190557Y48237D01*
X190697Y47535D01*
X191095Y46940D01*
X191271Y46822D01*
Y45782D01*
X191094Y45643D01*
X190761Y45467D01*
X190424Y45535D01*
X189998Y45450D01*
X189788Y45310D01*
X189440Y45245D01*
X189091Y45310D01*
X188882Y45450D01*
X188456Y45535D01*
X188029Y45450D01*
X187668Y45208D01*
X187274D01*
X186913Y45450D01*
X186487Y45535D01*
X186061Y45450D01*
X185852Y45310D01*
X185503Y45245D01*
X185154Y45310D01*
X184945Y45450D01*
X184519Y45535D01*
X184182Y45467D01*
X183848Y45643D01*
X183672Y45782D01*
Y46489D01*
X183848Y46607D01*
X184246Y47202D01*
X184385Y47904D01*
X184246Y48607D01*
X183848Y49202D01*
X183252Y49600D01*
X182550Y49740D01*
X181848Y49600D01*
X181252Y49202D01*
X180854Y48607D01*
X180715Y47904D01*
X180854Y47202D01*
X181252Y46607D01*
X181429Y46489D01*
Y45782D01*
X181252Y45643D01*
X180919Y45467D01*
X180581Y45535D01*
X180155Y45450D01*
X179946Y45310D01*
X179597Y45245D01*
X179249Y45310D01*
X179039Y45450D01*
X178613Y45535D01*
X178187Y45450D01*
X178134Y45415D01*
X177720Y45497D01*
X177227Y45827D01*
X177145Y45843D01*
Y40559D01*
X176145D01*
Y45843D01*
X176062Y45827D01*
X175569Y45497D01*
X175155Y45415D01*
X175102Y45450D01*
X174676Y45535D01*
X174250Y45450D01*
X174040Y45310D01*
X173692Y45245D01*
X173343Y45310D01*
X173134Y45450D01*
X172707Y45535D01*
X172487Y45491D01*
X172194Y45952D01*
X172483Y46384D01*
X172623Y47087D01*
X172483Y47789D01*
X172085Y48384D01*
X171490Y48782D01*
X170787Y48922D01*
X170085Y48782D01*
X169490Y48384D01*
X169092Y47789D01*
X168952Y47087D01*
X169092Y46384D01*
X169426Y45885D01*
X169329Y45701D01*
X169148Y45487D01*
X169107Y45467D01*
X168771Y45535D01*
X168344Y45450D01*
X168135Y45310D01*
X167786Y45245D01*
X167438Y45310D01*
X167228Y45450D01*
X166802Y45535D01*
X166376Y45450D01*
X166166Y45310D01*
X165818Y45245D01*
X165469Y45310D01*
X165260Y45450D01*
X164833Y45535D01*
X164407Y45450D01*
X164046Y45208D01*
X163805Y44847D01*
X163720Y44421D01*
Y42336D01*
X156373D01*
X156289Y42463D01*
X155693Y42861D01*
X154991Y43000D01*
X154289Y42861D01*
X153693Y42463D01*
X153609Y42336D01*
X149135D01*
X148706Y42251D01*
X148342Y42008D01*
X148342Y42008D01*
X147243Y40909D01*
X125373D01*
X125351Y41410D01*
X125351Y41410D01*
X125351Y41410D01*
Y43091D01*
X121383D01*
Y41410D01*
X121382Y41410D01*
X121383D01*
X121361Y40909D01*
X120345D01*
Y41746D01*
X113512Y41746D01*
X113283Y42104D01*
X113251Y42180D01*
X113188Y42495D01*
X112989Y42792D01*
X111881Y43901D01*
Y45486D01*
X111881Y45486D01*
Y45861D01*
X111881D01*
X111881Y45996D01*
Y49227D01*
X104972D01*
Y48342D01*
X104778Y48304D01*
X104414Y48061D01*
X104414Y48061D01*
X102257Y45904D01*
X102014Y45540D01*
X101950Y45216D01*
X101455D01*
X101337Y45392D01*
X100742Y45790D01*
X100039Y45930D01*
X99337Y45790D01*
X98742Y45392D01*
X98344Y44797D01*
X98204Y44094D01*
X98344Y43392D01*
X98742Y42797D01*
X99337Y42399D01*
X100039Y42259D01*
X100742Y42399D01*
X101337Y42797D01*
X101846Y42651D01*
X101929Y42572D01*
Y42214D01*
X101929Y42214D01*
X102014Y41785D01*
X102257Y41421D01*
X104408Y39271D01*
X104408Y39271D01*
X104772Y39028D01*
X104972Y38988D01*
Y38381D01*
X111423D01*
Y35284D01*
X108978Y32839D01*
X91110D01*
X90746Y33384D01*
X89952Y33914D01*
X89016Y34101D01*
X88079Y33914D01*
X87286Y33384D01*
X86921Y32839D01*
X80427D01*
X77173Y36093D01*
X76876Y36292D01*
X76525Y36362D01*
X76173Y36292D01*
X75876Y36093D01*
X64047Y24264D01*
X63816Y24442D01*
X62940Y24804D01*
X62001Y24928D01*
X61061Y24804D01*
X60185Y24442D01*
X59433Y23865D01*
X59065Y23386D01*
X58555Y23559D01*
Y89590D01*
X80031Y111066D01*
X80551Y110864D01*
X81033Y110144D01*
X81819Y109618D01*
X82747Y109433D01*
X85790D01*
Y111858D01*
X86290D01*
Y112358D01*
X92159D01*
X92074Y112786D01*
X91548Y113572D01*
X90761Y114098D01*
X89833Y114283D01*
X86239D01*
X85967Y114793D01*
X85999Y114841D01*
X89833D01*
X90605Y114995D01*
X91259Y115432D01*
X91697Y116086D01*
X91850Y116858D01*
X91697Y117630D01*
X91259Y118284D01*
X90605Y118721D01*
X89833Y118875D01*
D02*
G37*
G36*
X85412Y107963D02*
Y105704D01*
X87671D01*
X87640Y105935D01*
X87358Y106616D01*
X86909Y107201D01*
X86324Y107650D01*
X85643Y107932D01*
X85412Y107963D01*
D02*
G37*
G36*
X109125Y138875D02*
X102038D01*
X101267Y138721D01*
X100612Y138284D01*
X100175Y137630D01*
X100022Y136858D01*
X100175Y136086D01*
X100612Y135432D01*
X101267Y134995D01*
X102038Y134841D01*
X109125D01*
X109897Y134995D01*
X110551Y135432D01*
X110988Y136086D01*
X111142Y136858D01*
X110988Y137630D01*
X110551Y138284D01*
X109897Y138721D01*
X109125Y138875D01*
D02*
G37*
G36*
Y133875D02*
X102038D01*
X101267Y133721D01*
X100612Y133284D01*
X100175Y132630D01*
X100022Y131858D01*
X100175Y131086D01*
X100612Y130432D01*
X101267Y129995D01*
X102038Y129841D01*
X109125D01*
X109897Y129995D01*
X110551Y130432D01*
X110706Y130665D01*
X113675D01*
X113929Y130285D01*
X114525Y129887D01*
X115227Y129747D01*
X115929Y129887D01*
X116525Y130285D01*
X116923Y130880D01*
X117062Y131582D01*
X116923Y132285D01*
X116525Y132880D01*
X115929Y133278D01*
X115227Y133418D01*
X114525Y133278D01*
X113929Y132880D01*
X113675Y132500D01*
X111014D01*
X110988Y132630D01*
X110551Y133284D01*
X109897Y133721D01*
X109125Y133875D01*
D02*
G37*
G36*
Y128875D02*
X102038D01*
X101267Y128721D01*
X100612Y128284D01*
X100175Y127630D01*
X100022Y126858D01*
X100175Y126086D01*
X100612Y125432D01*
X101267Y124995D01*
X102038Y124841D01*
X109125D01*
X109897Y124995D01*
X110551Y125432D01*
X110891Y125940D01*
X118006D01*
X118260Y125560D01*
X118856Y125162D01*
X119558Y125023D01*
X120260Y125162D01*
X120856Y125560D01*
X121254Y126156D01*
X121393Y126858D01*
X121254Y127560D01*
X120856Y128156D01*
X120260Y128553D01*
X119558Y128693D01*
X118856Y128553D01*
X118260Y128156D01*
X118006Y127776D01*
X110891D01*
X110551Y128284D01*
X109897Y128721D01*
X109125Y128875D01*
D02*
G37*
G36*
X84412Y107963D02*
X84181Y107932D01*
X83500Y107650D01*
X82915Y107201D01*
X82467Y106616D01*
X82184Y105935D01*
X82154Y105704D01*
X84412D01*
Y107963D01*
D02*
G37*
G36*
X138737Y77040D02*
X132037D01*
Y70340D01*
X134193D01*
Y66612D01*
X134017Y66495D01*
X133619Y65899D01*
X133480Y65197D01*
X133619Y64495D01*
X134017Y63899D01*
X134613Y63501D01*
X135315Y63362D01*
X136017Y63501D01*
X136613Y63899D01*
X137011Y64495D01*
X137150Y65197D01*
X137011Y65899D01*
X136613Y66495D01*
X136436Y66612D01*
Y70340D01*
X138737D01*
Y77040D01*
D02*
G37*
G36*
X125063Y63341D02*
Y61083D01*
X127321D01*
X127291Y61314D01*
X127008Y61995D01*
X126560Y62580D01*
X125975Y63029D01*
X125294Y63311D01*
X125063Y63341D01*
D02*
G37*
G36*
X124063D02*
X123832Y63311D01*
X123151Y63029D01*
X122566Y62580D01*
X122117Y61995D01*
X121835Y61314D01*
X121804Y61083D01*
X124063D01*
Y63341D01*
D02*
G37*
G36*
X87671Y104704D02*
X85412D01*
Y102446D01*
X85643Y102477D01*
X86324Y102759D01*
X86909Y103208D01*
X87358Y103792D01*
X87640Y104473D01*
X87671Y104704D01*
D02*
G37*
G36*
X84412D02*
X82154D01*
X82184Y104473D01*
X82467Y103792D01*
X82915Y103208D01*
X83500Y102759D01*
X84181Y102477D01*
X84412Y102446D01*
Y104704D01*
D02*
G37*
G36*
X107609Y99450D02*
X106673Y99264D01*
X105879Y98734D01*
X105348Y97940D01*
X105162Y97004D01*
X105348Y96067D01*
X105879Y95273D01*
X106673Y94743D01*
X106691Y94739D01*
Y80101D01*
X106761Y79749D01*
X106960Y79452D01*
X111537Y74875D01*
Y70340D01*
X118237D01*
Y77040D01*
X111967D01*
X108527Y80481D01*
Y94739D01*
X108545Y94743D01*
X109339Y95273D01*
X109870Y96067D01*
X110056Y97004D01*
X109870Y97940D01*
X109339Y98734D01*
X108545Y99264D01*
X107609Y99450D01*
D02*
G37*
G36*
X180468Y154402D02*
X178886D01*
Y151047D01*
X180468D01*
Y154402D01*
D02*
G37*
G36*
X205597Y161531D02*
X203916D01*
Y160047D01*
X205597D01*
Y161531D01*
D02*
G37*
G36*
X180794Y161138D02*
X179113D01*
Y159653D01*
X180794D01*
Y161138D01*
D02*
G37*
G36*
X189743Y160853D02*
Y158594D01*
X192001D01*
X191971Y158825D01*
X191689Y159506D01*
X191240Y160091D01*
X190655Y160540D01*
X189974Y160822D01*
X189743Y160853D01*
D02*
G37*
G36*
X158353Y164803D02*
X156672D01*
Y163319D01*
X158353D01*
Y164803D01*
D02*
G37*
G36*
X205597Y164015D02*
X203916D01*
Y162531D01*
X205597D01*
Y164015D01*
D02*
G37*
G36*
X158353Y162319D02*
X156672D01*
Y160834D01*
X158353D01*
Y162319D01*
D02*
G37*
G36*
X188743Y160853D02*
X188512Y160822D01*
X187831Y160540D01*
X187246Y160091D01*
X186797Y159506D01*
X186515Y158825D01*
X186485Y158594D01*
X188743D01*
Y160853D01*
D02*
G37*
G36*
X192001Y157594D02*
X189743D01*
Y155336D01*
X189974Y155366D01*
X190655Y155649D01*
X191240Y156097D01*
X191689Y156682D01*
X191971Y157363D01*
X192001Y157594D01*
D02*
G37*
G36*
X188743D02*
X186485D01*
X186515Y157363D01*
X186797Y156682D01*
X187246Y156097D01*
X187831Y155649D01*
X188512Y155366D01*
X188743Y155336D01*
Y157594D01*
D02*
G37*
G36*
X158058Y155134D02*
X156475D01*
Y151779D01*
X158058D01*
Y155134D01*
D02*
G37*
G36*
X205302Y159488D02*
X203719D01*
Y156134D01*
X205302D01*
Y159488D01*
D02*
G37*
G36*
X158058Y159488D02*
X156475D01*
Y156134D01*
X158058D01*
Y159488D01*
D02*
G37*
G36*
X180468Y158756D02*
X178886D01*
Y155402D01*
X180468D01*
Y158756D01*
D02*
G37*
G36*
X127321Y60083D02*
X125063D01*
Y57824D01*
X125294Y57855D01*
X125975Y58137D01*
X126560Y58586D01*
X127008Y59171D01*
X127291Y59852D01*
X127321Y60083D01*
D02*
G37*
G36*
X122001Y14928D02*
X121061Y14804D01*
X120185Y14442D01*
X119433Y13864D01*
X118856Y13113D01*
X118493Y12237D01*
X118369Y11297D01*
X118493Y10357D01*
X118856Y9481D01*
X119433Y8729D01*
X120185Y8152D01*
X121061Y7790D01*
X122001Y7666D01*
X122940Y7790D01*
X123816Y8152D01*
X124568Y8729D01*
X125145Y9481D01*
X125508Y10357D01*
X125631Y11297D01*
X125508Y12237D01*
X125145Y13113D01*
X124568Y13864D01*
X123816Y14442D01*
X122940Y14804D01*
X122001Y14928D01*
D02*
G37*
G36*
X112001D02*
X111061Y14804D01*
X110185Y14442D01*
X109433Y13864D01*
X108856Y13113D01*
X108493Y12237D01*
X108369Y11297D01*
X108493Y10357D01*
X108856Y9481D01*
X109433Y8729D01*
X110185Y8152D01*
X111061Y7790D01*
X112001Y7666D01*
X112940Y7790D01*
X113816Y8152D01*
X114568Y8729D01*
X115145Y9481D01*
X115508Y10357D01*
X115631Y11297D01*
X115508Y12237D01*
X115145Y13113D01*
X114568Y13864D01*
X113816Y14442D01*
X112940Y14804D01*
X112001Y14928D01*
D02*
G37*
G36*
X92001D02*
X91061Y14804D01*
X90185Y14442D01*
X89433Y13864D01*
X88856Y13113D01*
X88493Y12237D01*
X88369Y11297D01*
X88493Y10357D01*
X88856Y9481D01*
X89433Y8729D01*
X90185Y8152D01*
X91061Y7790D01*
X92001Y7666D01*
X92940Y7790D01*
X93816Y8152D01*
X94568Y8729D01*
X95145Y9481D01*
X95508Y10357D01*
X95631Y11297D01*
X95508Y12237D01*
X95145Y13113D01*
X94568Y13864D01*
X93816Y14442D01*
X92940Y14804D01*
X92001Y14928D01*
D02*
G37*
G36*
X22001Y24928D02*
X21061Y24804D01*
X20185Y24442D01*
X19433Y23865D01*
X18856Y23112D01*
X18493Y22237D01*
X18369Y21297D01*
X18493Y20357D01*
X18856Y19481D01*
X19433Y18729D01*
X20185Y18152D01*
X21061Y17790D01*
X22001Y17666D01*
X22940Y17790D01*
X23816Y18152D01*
X24568Y18729D01*
X25145Y19481D01*
X25508Y20357D01*
X25631Y21297D01*
X25508Y22237D01*
X25145Y23112D01*
X24568Y23865D01*
X23816Y24442D01*
X22940Y24804D01*
X22001Y24928D01*
D02*
G37*
G36*
X192000Y14928D02*
X191061Y14804D01*
X190185Y14442D01*
X189433Y13864D01*
X188856Y13113D01*
X188493Y12237D01*
X188369Y11297D01*
X188493Y10357D01*
X188856Y9481D01*
X189433Y8729D01*
X190185Y8152D01*
X191061Y7790D01*
X192000Y7666D01*
X192940Y7790D01*
X193816Y8152D01*
X194568Y8729D01*
X195145Y9481D01*
X195508Y10357D01*
X195632Y11297D01*
X195508Y12237D01*
X195145Y13113D01*
X194568Y13864D01*
X193816Y14442D01*
X192940Y14804D01*
X192000Y14928D01*
D02*
G37*
G36*
X132001D02*
X131061Y14804D01*
X130185Y14442D01*
X129433Y13864D01*
X128856Y13113D01*
X128493Y12237D01*
X128369Y11297D01*
X128493Y10357D01*
X128856Y9481D01*
X129433Y8729D01*
X130185Y8152D01*
X131061Y7790D01*
X132001Y7666D01*
X132940Y7790D01*
X133816Y8152D01*
X134568Y8729D01*
X135145Y9481D01*
X135508Y10357D01*
X135632Y11297D01*
X135508Y12237D01*
X135145Y13113D01*
X134568Y13864D01*
X133816Y14442D01*
X132940Y14804D01*
X132001Y14928D01*
D02*
G37*
G36*
X82000D02*
X81061Y14804D01*
X80185Y14442D01*
X79433Y13864D01*
X78856Y13113D01*
X78493Y12237D01*
X78369Y11297D01*
X78493Y10357D01*
X78856Y9481D01*
X79433Y8729D01*
X80185Y8152D01*
X81061Y7790D01*
X82000Y7666D01*
X82940Y7790D01*
X83816Y8152D01*
X84568Y8729D01*
X85145Y9481D01*
X85508Y10357D01*
X85632Y11297D01*
X85508Y12237D01*
X85145Y13113D01*
X84568Y13864D01*
X83816Y14442D01*
X82940Y14804D01*
X82000Y14928D01*
D02*
G37*
G36*
X32000D02*
X31061Y14804D01*
X30185Y14442D01*
X29433Y13864D01*
X28856Y13113D01*
X28493Y12237D01*
X28369Y11297D01*
X28493Y10357D01*
X28856Y9481D01*
X29433Y8729D01*
X30185Y8152D01*
X31061Y7790D01*
X32000Y7666D01*
X32940Y7790D01*
X33816Y8152D01*
X34568Y8729D01*
X35145Y9481D01*
X35508Y10357D01*
X35631Y11297D01*
X35508Y12237D01*
X35145Y13113D01*
X34568Y13864D01*
X33816Y14442D01*
X32940Y14804D01*
X32000Y14928D01*
D02*
G37*
G36*
X22001D02*
X21061Y14804D01*
X20185Y14442D01*
X19433Y13864D01*
X18856Y13113D01*
X18493Y12237D01*
X18369Y11297D01*
X18493Y10357D01*
X18856Y9481D01*
X19433Y8729D01*
X20185Y8152D01*
X21061Y7790D01*
X22001Y7666D01*
X22940Y7790D01*
X23816Y8152D01*
X24568Y8729D01*
X25145Y9481D01*
X25508Y10357D01*
X25631Y11297D01*
X25508Y12237D01*
X25145Y13113D01*
X24568Y13864D01*
X23816Y14442D01*
X22940Y14804D01*
X22001Y14928D01*
D02*
G37*
G36*
X12000D02*
X11061Y14804D01*
X10185Y14442D01*
X9433Y13864D01*
X8856Y13113D01*
X8493Y12237D01*
X8369Y11297D01*
X8493Y10357D01*
X8856Y9481D01*
X9433Y8729D01*
X10185Y8152D01*
X11061Y7790D01*
X12000Y7666D01*
X12940Y7790D01*
X13816Y8152D01*
X14568Y8729D01*
X15145Y9481D01*
X15508Y10357D01*
X15631Y11297D01*
X15508Y12237D01*
X15145Y13113D01*
X14568Y13864D01*
X13816Y14442D01*
X12940Y14804D01*
X12000Y14928D01*
D02*
G37*
G36*
X72000D02*
X71061Y14804D01*
X70185Y14442D01*
X69433Y13864D01*
X68856Y13113D01*
X68493Y12237D01*
X68369Y11297D01*
X68493Y10357D01*
X68856Y9481D01*
X69433Y8729D01*
X70185Y8152D01*
X71061Y7790D01*
X72000Y7666D01*
X72940Y7790D01*
X73816Y8152D01*
X74568Y8729D01*
X75145Y9481D01*
X75508Y10357D01*
X75631Y11297D01*
X75508Y12237D01*
X75145Y13113D01*
X74568Y13864D01*
X73816Y14442D01*
X72940Y14804D01*
X72000Y14928D01*
D02*
G37*
G36*
X52000D02*
X51061Y14804D01*
X50185Y14442D01*
X49433Y13864D01*
X48856Y13113D01*
X48493Y12237D01*
X48369Y11297D01*
X48493Y10357D01*
X48856Y9481D01*
X49433Y8729D01*
X50185Y8152D01*
X51061Y7790D01*
X52000Y7666D01*
X52940Y7790D01*
X53816Y8152D01*
X54568Y8729D01*
X55145Y9481D01*
X55508Y10357D01*
X55632Y11297D01*
X55508Y12237D01*
X55145Y13113D01*
X54568Y13864D01*
X53816Y14442D01*
X52940Y14804D01*
X52000Y14928D01*
D02*
G37*
G36*
X42000D02*
X41061Y14804D01*
X40185Y14442D01*
X39433Y13864D01*
X38856Y13113D01*
X38493Y12237D01*
X38369Y11297D01*
X38493Y10357D01*
X38856Y9481D01*
X39433Y8729D01*
X40185Y8152D01*
X41061Y7790D01*
X42000Y7666D01*
X42940Y7790D01*
X43816Y8152D01*
X44568Y8729D01*
X45145Y9481D01*
X45508Y10357D01*
X45632Y11297D01*
X45508Y12237D01*
X45145Y13113D01*
X44568Y13864D01*
X43816Y14442D01*
X42940Y14804D01*
X42000Y14928D01*
D02*
G37*
G36*
X32000Y24928D02*
X31061Y24804D01*
X30185Y24442D01*
X29433Y23865D01*
X28856Y23112D01*
X28493Y22237D01*
X28369Y21297D01*
X28493Y20357D01*
X28856Y19481D01*
X29433Y18729D01*
X30185Y18152D01*
X31061Y17790D01*
X32000Y17666D01*
X32940Y17790D01*
X33816Y18152D01*
X34568Y18729D01*
X35145Y19481D01*
X35508Y20357D01*
X35631Y21297D01*
X35508Y22237D01*
X35145Y23112D01*
X34568Y23865D01*
X33816Y24442D01*
X32940Y24804D01*
X32000Y24928D01*
D02*
G37*
G36*
X116391Y47044D02*
X113036D01*
Y45461D01*
X116391D01*
Y47044D01*
D02*
G37*
G36*
X122889Y51122D02*
X122658Y51092D01*
X121976Y50810D01*
X121392Y50361D01*
X121105Y49988D01*
X120745Y49627D01*
X117391D01*
Y47544D01*
Y45461D01*
X120745D01*
Y46080D01*
X121255Y46295D01*
X121282Y46269D01*
X121382Y45772D01*
X121383D01*
X121383Y45772D01*
Y44091D01*
X125351D01*
Y45772D01*
X125351Y45772D01*
X125351D01*
X125275Y46282D01*
X125386Y46367D01*
X125834Y46952D01*
X126117Y47633D01*
X126147Y47864D01*
X123389D01*
Y48364D01*
X122889D01*
Y51122D01*
D02*
G37*
G36*
X15600Y24897D02*
X8400D01*
Y17697D01*
X15600D01*
Y24897D01*
D02*
G37*
G36*
X124063Y60083D02*
X121804D01*
X121835Y59852D01*
X122117Y59171D01*
X122566Y58586D01*
X123151Y58137D01*
X123832Y57855D01*
X124063Y57824D01*
Y60083D01*
D02*
G37*
G36*
X123889Y51122D02*
Y48864D01*
X126147D01*
X126117Y49095D01*
X125834Y49776D01*
X125386Y50361D01*
X124801Y50810D01*
X124120Y51092D01*
X123889Y51122D01*
D02*
G37*
G36*
X116391Y49627D02*
X113036D01*
Y48044D01*
X116391D01*
Y49627D01*
D02*
G37*
G36*
X132001Y24928D02*
X131061Y24804D01*
X130185Y24442D01*
X129433Y23865D01*
X128856Y23112D01*
X128493Y22237D01*
X128369Y21297D01*
X128493Y20357D01*
X128856Y19481D01*
X129433Y18729D01*
X130185Y18152D01*
X131061Y17790D01*
X132001Y17666D01*
X132940Y17790D01*
X133816Y18152D01*
X134568Y18729D01*
X135145Y19481D01*
X135508Y20357D01*
X135632Y21297D01*
X135508Y22237D01*
X135145Y23112D01*
X134568Y23865D01*
X133816Y24442D01*
X132940Y24804D01*
X132001Y24928D01*
D02*
G37*
G36*
X72000D02*
X71061Y24804D01*
X70185Y24442D01*
X69433Y23865D01*
X68856Y23112D01*
X68493Y22237D01*
X68369Y21297D01*
X68493Y20357D01*
X68856Y19481D01*
X69433Y18729D01*
X70185Y18152D01*
X71061Y17790D01*
X72000Y17666D01*
X72940Y17790D01*
X73816Y18152D01*
X74568Y18729D01*
X75145Y19481D01*
X75508Y20357D01*
X75631Y21297D01*
X75508Y22237D01*
X75145Y23112D01*
X74568Y23865D01*
X73816Y24442D01*
X72940Y24804D01*
X72000Y24928D01*
D02*
G37*
G36*
X52000D02*
X51061Y24804D01*
X50185Y24442D01*
X49433Y23865D01*
X48856Y23112D01*
X48493Y22237D01*
X48369Y21297D01*
X48493Y20357D01*
X48856Y19481D01*
X49433Y18729D01*
X50185Y18152D01*
X51061Y17790D01*
X52000Y17666D01*
X52940Y17790D01*
X53816Y18152D01*
X54568Y18729D01*
X55145Y19481D01*
X55508Y20357D01*
X55632Y21297D01*
X55508Y22237D01*
X55145Y23112D01*
X54568Y23865D01*
X53816Y24442D01*
X52940Y24804D01*
X52000Y24928D01*
D02*
G37*
G36*
X42000D02*
X41061Y24804D01*
X40185Y24442D01*
X39433Y23865D01*
X38856Y23112D01*
X38493Y22237D01*
X38369Y21297D01*
X38493Y20357D01*
X38856Y19481D01*
X39433Y18729D01*
X40185Y18152D01*
X41061Y17790D01*
X42000Y17666D01*
X42940Y17790D01*
X43816Y18152D01*
X44568Y18729D01*
X45145Y19481D01*
X45508Y20357D01*
X45632Y21297D01*
X45508Y22237D01*
X45145Y23112D01*
X44568Y23865D01*
X43816Y24442D01*
X42940Y24804D01*
X42000Y24928D01*
D02*
G37*
G36*
X122001D02*
X121061Y24804D01*
X120185Y24442D01*
X119433Y23865D01*
X118856Y23112D01*
X118493Y22237D01*
X118369Y21297D01*
X118493Y20357D01*
X118856Y19481D01*
X119433Y18729D01*
X120185Y18152D01*
X121061Y17790D01*
X122001Y17666D01*
X122940Y17790D01*
X123816Y18152D01*
X124568Y18729D01*
X125145Y19481D01*
X125508Y20357D01*
X125631Y21297D01*
X125508Y22237D01*
X125145Y23112D01*
X124568Y23865D01*
X123816Y24442D01*
X122940Y24804D01*
X122001Y24928D01*
D02*
G37*
G36*
X92001D02*
X91061Y24804D01*
X90185Y24442D01*
X89433Y23865D01*
X88856Y23112D01*
X88493Y22237D01*
X88369Y21297D01*
X88493Y20357D01*
X88856Y19481D01*
X89433Y18729D01*
X90185Y18152D01*
X91061Y17790D01*
X92001Y17666D01*
X92940Y17790D01*
X93816Y18152D01*
X94568Y18729D01*
X95145Y19481D01*
X95508Y20357D01*
X95631Y21297D01*
X95508Y22237D01*
X95145Y23112D01*
X94568Y23865D01*
X93816Y24442D01*
X92940Y24804D01*
X92001Y24928D01*
D02*
G37*
G36*
X82000D02*
X81061Y24804D01*
X80185Y24442D01*
X79433Y23865D01*
X78856Y23112D01*
X78493Y22237D01*
X78369Y21297D01*
X78493Y20357D01*
X78856Y19481D01*
X79433Y18729D01*
X80185Y18152D01*
X81061Y17790D01*
X82000Y17666D01*
X82940Y17790D01*
X83816Y18152D01*
X84568Y18729D01*
X85145Y19481D01*
X85508Y20357D01*
X85632Y21297D01*
X85508Y22237D01*
X85145Y23112D01*
X84568Y23865D01*
X83816Y24442D01*
X82940Y24804D01*
X82000Y24928D01*
D02*
G37*
G36*
X112000Y204880D02*
X111073Y204758D01*
X110209Y204400D01*
X109467Y203831D01*
X108897Y203089D01*
X108539Y202224D01*
X108417Y201297D01*
X108539Y200370D01*
X108897Y199505D01*
X109467Y198763D01*
X110209Y198194D01*
X111073Y197836D01*
X112000Y197714D01*
X112928Y197836D01*
X113792Y198194D01*
X114534Y198763D01*
X115104Y199505D01*
X115462Y200370D01*
X115584Y201297D01*
X115462Y202224D01*
X115104Y203089D01*
X114534Y203831D01*
X113792Y204400D01*
X112928Y204758D01*
X112000Y204880D01*
D02*
G37*
G36*
X92000D02*
X91073Y204758D01*
X90209Y204400D01*
X89467Y203831D01*
X88897Y203089D01*
X88539Y202224D01*
X88417Y201297D01*
X88539Y200370D01*
X88897Y199505D01*
X89467Y198763D01*
X90209Y198194D01*
X91073Y197836D01*
X92000Y197714D01*
X92928Y197836D01*
X93792Y198194D01*
X94534Y198763D01*
X95104Y199505D01*
X95462Y200370D01*
X95584Y201297D01*
X95462Y202224D01*
X95104Y203089D01*
X94534Y203831D01*
X93792Y204400D01*
X92928Y204758D01*
X92000Y204880D01*
D02*
G37*
G36*
X82000D02*
X81073Y204758D01*
X80209Y204400D01*
X79467Y203831D01*
X78897Y203089D01*
X78539Y202224D01*
X78417Y201297D01*
X78539Y200370D01*
X78897Y199505D01*
X79467Y198763D01*
X80209Y198194D01*
X81073Y197836D01*
X82000Y197714D01*
X82928Y197836D01*
X83792Y198194D01*
X84534Y198763D01*
X85104Y199505D01*
X85462Y200370D01*
X85584Y201297D01*
X85462Y202224D01*
X85104Y203089D01*
X84534Y203831D01*
X83792Y204400D01*
X82928Y204758D01*
X82000Y204880D01*
D02*
G37*
G36*
X162000D02*
X161073Y204758D01*
X160209Y204400D01*
X159467Y203831D01*
X158897Y203089D01*
X158539Y202224D01*
X158417Y201297D01*
X158539Y200370D01*
X158897Y199505D01*
X159467Y198763D01*
X160209Y198194D01*
X161073Y197836D01*
X162000Y197714D01*
X162928Y197836D01*
X163792Y198194D01*
X164534Y198763D01*
X165104Y199505D01*
X165462Y200370D01*
X165584Y201297D01*
X165462Y202224D01*
X165104Y203089D01*
X164534Y203831D01*
X163792Y204400D01*
X162928Y204758D01*
X162000Y204880D01*
D02*
G37*
G36*
X132000D02*
X131073Y204758D01*
X130209Y204400D01*
X129467Y203831D01*
X128897Y203089D01*
X128539Y202224D01*
X128417Y201297D01*
X128539Y200370D01*
X128897Y199505D01*
X129467Y198763D01*
X130209Y198194D01*
X131073Y197836D01*
X132000Y197714D01*
X132928Y197836D01*
X133792Y198194D01*
X134534Y198763D01*
X135104Y199505D01*
X135462Y200370D01*
X135584Y201297D01*
X135462Y202224D01*
X135104Y203089D01*
X134534Y203831D01*
X133792Y204400D01*
X132928Y204758D01*
X132000Y204880D01*
D02*
G37*
G36*
X122000D02*
X121073Y204758D01*
X120209Y204400D01*
X119467Y203831D01*
X118897Y203089D01*
X118539Y202224D01*
X118417Y201297D01*
X118539Y200370D01*
X118897Y199505D01*
X119467Y198763D01*
X120209Y198194D01*
X121073Y197836D01*
X122000Y197714D01*
X122928Y197836D01*
X123792Y198194D01*
X124534Y198763D01*
X125104Y199505D01*
X125462Y200370D01*
X125584Y201297D01*
X125462Y202224D01*
X125104Y203089D01*
X124534Y203831D01*
X123792Y204400D01*
X122928Y204758D01*
X122000Y204880D01*
D02*
G37*
G36*
X72000D02*
X71073Y204758D01*
X70209Y204400D01*
X69467Y203831D01*
X68897Y203089D01*
X68539Y202224D01*
X68417Y201297D01*
X68539Y200370D01*
X68897Y199505D01*
X69467Y198763D01*
X70209Y198194D01*
X71073Y197836D01*
X72000Y197714D01*
X72928Y197836D01*
X73792Y198194D01*
X74534Y198763D01*
X75104Y199505D01*
X75462Y200370D01*
X75584Y201297D01*
X75462Y202224D01*
X75104Y203089D01*
X74534Y203831D01*
X73792Y204400D01*
X72928Y204758D01*
X72000Y204880D01*
D02*
G37*
G36*
X42000D02*
X41073Y204758D01*
X40209Y204400D01*
X39467Y203831D01*
X38897Y203089D01*
X38539Y202224D01*
X38417Y201297D01*
X38539Y200370D01*
X38897Y199505D01*
X39467Y198763D01*
X40209Y198194D01*
X41073Y197836D01*
X42000Y197714D01*
X42928Y197836D01*
X43792Y198194D01*
X44534Y198763D01*
X45104Y199505D01*
X45462Y200370D01*
X45584Y201297D01*
X45462Y202224D01*
X45104Y203089D01*
X44534Y203831D01*
X43792Y204400D01*
X42928Y204758D01*
X42000Y204880D01*
D02*
G37*
G36*
X209422Y217953D02*
X206953D01*
Y215485D01*
X209422D01*
Y217953D01*
D02*
G37*
G36*
X32000Y204880D02*
X31073Y204758D01*
X30209Y204400D01*
X29467Y203831D01*
X28897Y203089D01*
X28539Y202224D01*
X28417Y201297D01*
X28539Y200370D01*
X28897Y199505D01*
X29467Y198763D01*
X30209Y198194D01*
X31073Y197836D01*
X32000Y197714D01*
X32928Y197836D01*
X33792Y198194D01*
X34534Y198763D01*
X35104Y199505D01*
X35462Y200370D01*
X35584Y201297D01*
X35462Y202224D01*
X35104Y203089D01*
X34534Y203831D01*
X33792Y204400D01*
X32928Y204758D01*
X32000Y204880D01*
D02*
G37*
G36*
X62000D02*
X61073Y204758D01*
X60209Y204400D01*
X59467Y203831D01*
X58897Y203089D01*
X58539Y202224D01*
X58417Y201297D01*
X58539Y200370D01*
X58897Y199505D01*
X59467Y198763D01*
X60209Y198194D01*
X61073Y197836D01*
X62000Y197714D01*
X62928Y197836D01*
X63792Y198194D01*
X64534Y198763D01*
X65104Y199505D01*
X65462Y200370D01*
X65584Y201297D01*
X65462Y202224D01*
X65104Y203089D01*
X64534Y203831D01*
X63792Y204400D01*
X62928Y204758D01*
X62000Y204880D01*
D02*
G37*
G36*
X22500Y215218D02*
Y211797D01*
X25921D01*
X25851Y212329D01*
X25453Y213290D01*
X24820Y214116D01*
X23994Y214750D01*
X23032Y215148D01*
X22500Y215218D01*
D02*
G37*
G36*
X52000Y204880D02*
X51073Y204758D01*
X50209Y204400D01*
X49467Y203831D01*
X48897Y203089D01*
X48539Y202224D01*
X48417Y201297D01*
X48539Y200370D01*
X48897Y199505D01*
X49467Y198763D01*
X50209Y198194D01*
X51073Y197836D01*
X52000Y197714D01*
X52928Y197836D01*
X53792Y198194D01*
X54534Y198763D01*
X55104Y199505D01*
X55462Y200370D01*
X55584Y201297D01*
X55462Y202224D01*
X55104Y203089D01*
X54534Y203831D01*
X53792Y204400D01*
X52928Y204758D01*
X52000Y204880D01*
D02*
G37*
G36*
Y214880D02*
X51073Y214758D01*
X50209Y214400D01*
X49467Y213831D01*
X48897Y213089D01*
X48539Y212224D01*
X48417Y211297D01*
X48539Y210369D01*
X48897Y209505D01*
X49467Y208763D01*
X50209Y208194D01*
X51073Y207836D01*
X52000Y207714D01*
X52928Y207836D01*
X53792Y208194D01*
X54534Y208763D01*
X55104Y209505D01*
X55462Y210369D01*
X55584Y211297D01*
X55462Y212224D01*
X55104Y213089D01*
X54534Y213831D01*
X53792Y214400D01*
X52928Y214758D01*
X52000Y214880D01*
D02*
G37*
G36*
X42000D02*
X41073Y214758D01*
X40209Y214400D01*
X39467Y213831D01*
X38897Y213089D01*
X38539Y212224D01*
X38417Y211297D01*
X38539Y210369D01*
X38897Y209505D01*
X39467Y208763D01*
X40209Y208194D01*
X41073Y207836D01*
X42000Y207714D01*
X42928Y207836D01*
X43792Y208194D01*
X44534Y208763D01*
X45104Y209505D01*
X45462Y210369D01*
X45584Y211297D01*
X45462Y212224D01*
X45104Y213089D01*
X44534Y213831D01*
X43792Y214400D01*
X42928Y214758D01*
X42000Y214880D01*
D02*
G37*
G36*
X32000D02*
X31073Y214758D01*
X30209Y214400D01*
X29467Y213831D01*
X28897Y213089D01*
X28539Y212224D01*
X28417Y211297D01*
X28539Y210369D01*
X28897Y209505D01*
X29467Y208763D01*
X30209Y208194D01*
X31073Y207836D01*
X32000Y207714D01*
X32928Y207836D01*
X33792Y208194D01*
X34534Y208763D01*
X35104Y209505D01*
X35462Y210369D01*
X35584Y211297D01*
X35462Y212224D01*
X35104Y213089D01*
X34534Y213831D01*
X33792Y214400D01*
X32928Y214758D01*
X32000Y214880D01*
D02*
G37*
G36*
X82000D02*
X81073Y214758D01*
X80209Y214400D01*
X79467Y213831D01*
X78897Y213089D01*
X78539Y212224D01*
X78417Y211297D01*
X78539Y210369D01*
X78897Y209505D01*
X79467Y208763D01*
X80209Y208194D01*
X81073Y207836D01*
X82000Y207714D01*
X82928Y207836D01*
X83792Y208194D01*
X84534Y208763D01*
X85104Y209505D01*
X85462Y210369D01*
X85584Y211297D01*
X85462Y212224D01*
X85104Y213089D01*
X84534Y213831D01*
X83792Y214400D01*
X82928Y214758D01*
X82000Y214880D01*
D02*
G37*
G36*
X72000D02*
X71073Y214758D01*
X70209Y214400D01*
X69467Y213831D01*
X68897Y213089D01*
X68539Y212224D01*
X68417Y211297D01*
X68539Y210369D01*
X68897Y209505D01*
X69467Y208763D01*
X70209Y208194D01*
X71073Y207836D01*
X72000Y207714D01*
X72928Y207836D01*
X73792Y208194D01*
X74534Y208763D01*
X75104Y209505D01*
X75462Y210369D01*
X75584Y211297D01*
X75462Y212224D01*
X75104Y213089D01*
X74534Y213831D01*
X73792Y214400D01*
X72928Y214758D01*
X72000Y214880D01*
D02*
G37*
G36*
X62000D02*
X61073Y214758D01*
X60209Y214400D01*
X59467Y213831D01*
X58897Y213089D01*
X58539Y212224D01*
X58417Y211297D01*
X58539Y210369D01*
X58897Y209505D01*
X59467Y208763D01*
X60209Y208194D01*
X61073Y207836D01*
X62000Y207714D01*
X62928Y207836D01*
X63792Y208194D01*
X64534Y208763D01*
X65104Y209505D01*
X65462Y210369D01*
X65584Y211297D01*
X65462Y212224D01*
X65104Y213089D01*
X64534Y213831D01*
X63792Y214400D01*
X62928Y214758D01*
X62000Y214880D01*
D02*
G37*
G36*
X25921Y210797D02*
X22500D01*
Y207376D01*
X23032Y207446D01*
X23994Y207844D01*
X24820Y208478D01*
X25453Y209303D01*
X25851Y210265D01*
X25921Y210797D01*
D02*
G37*
G36*
X15553Y214850D02*
X8448D01*
Y207744D01*
X15553D01*
Y214850D01*
D02*
G37*
G36*
X21500Y205218D02*
X20968Y205148D01*
X20007Y204750D01*
X19181Y204116D01*
X18548Y203290D01*
X18149Y202329D01*
X18079Y201797D01*
X21500D01*
Y205218D01*
D02*
G37*
G36*
Y215218D02*
X20968Y215148D01*
X20007Y214750D01*
X19181Y214116D01*
X18548Y213290D01*
X18149Y212329D01*
X18079Y211797D01*
X21500D01*
Y215218D01*
D02*
G37*
G36*
Y210797D02*
X18079D01*
X18149Y210265D01*
X18548Y209303D01*
X19181Y208478D01*
X20007Y207844D01*
X20968Y207446D01*
X21500Y207376D01*
Y210797D01*
D02*
G37*
G36*
X92000Y214880D02*
X91073Y214758D01*
X90209Y214400D01*
X89467Y213831D01*
X88897Y213089D01*
X88539Y212224D01*
X88417Y211297D01*
X88539Y210369D01*
X88897Y209505D01*
X89467Y208763D01*
X90209Y208194D01*
X91073Y207836D01*
X92000Y207714D01*
X92928Y207836D01*
X93792Y208194D01*
X94534Y208763D01*
X95104Y209505D01*
X95462Y210369D01*
X95584Y211297D01*
X95462Y212224D01*
X95104Y213089D01*
X94534Y213831D01*
X93792Y214400D01*
X92928Y214758D01*
X92000Y214880D01*
D02*
G37*
G36*
X22500Y205218D02*
Y201797D01*
X25921D01*
X25851Y202329D01*
X25453Y203290D01*
X24820Y204116D01*
X23994Y204750D01*
X23032Y205148D01*
X22500Y205218D01*
D02*
G37*
G36*
X12000Y204880D02*
X11073Y204758D01*
X10209Y204400D01*
X9467Y203831D01*
X8897Y203089D01*
X8539Y202224D01*
X8417Y201297D01*
X8539Y200370D01*
X8897Y199505D01*
X9467Y198763D01*
X10209Y198194D01*
X11073Y197836D01*
X12000Y197714D01*
X12928Y197836D01*
X13792Y198194D01*
X14534Y198763D01*
X15104Y199505D01*
X15462Y200370D01*
X15584Y201297D01*
X15462Y202224D01*
X15104Y203089D01*
X14534Y203831D01*
X13792Y204400D01*
X12928Y204758D01*
X12000Y204880D01*
D02*
G37*
G36*
X164106Y180012D02*
X162622D01*
Y178331D01*
X164106D01*
Y180012D01*
D02*
G37*
G36*
X188992Y179894D02*
X187508D01*
Y178213D01*
X188992D01*
Y179894D01*
D02*
G37*
G36*
X186508D02*
X185024D01*
Y178213D01*
X186508D01*
Y179894D01*
D02*
G37*
G36*
X175984Y202859D02*
X175282Y202719D01*
X174687Y202321D01*
X174289Y201726D01*
X174149Y201024D01*
X174289Y200321D01*
X174687Y199726D01*
X174863Y199608D01*
Y197017D01*
X170266D01*
Y194776D01*
X168736D01*
X168385Y194706D01*
X168087Y194507D01*
X144500Y170920D01*
X144301Y170622D01*
X144231Y170271D01*
Y162018D01*
X135399Y153186D01*
X135200Y152888D01*
X135131Y152537D01*
Y131963D01*
X123666Y120498D01*
X120989D01*
X120939Y121008D01*
X120951Y121010D01*
X121249Y121209D01*
X132111Y132071D01*
X132310Y132369D01*
X132380Y132720D01*
Y152690D01*
X134464Y154773D01*
X134912Y154684D01*
X135615Y154824D01*
X136210Y155222D01*
X136608Y155817D01*
X136748Y156519D01*
X136608Y157222D01*
X136210Y157817D01*
X135615Y158215D01*
X134912Y158355D01*
X134210Y158215D01*
X133615Y157817D01*
X133217Y157222D01*
X133077Y156519D01*
X133166Y156071D01*
X130814Y153719D01*
X130615Y153421D01*
X130545Y153070D01*
Y133100D01*
X120220Y122776D01*
X110891D01*
X110551Y123284D01*
X109897Y123721D01*
X109125Y123875D01*
X102038D01*
X101267Y123721D01*
X100612Y123284D01*
X100175Y122630D01*
X100022Y121858D01*
X100175Y121086D01*
X100612Y120432D01*
X101267Y119995D01*
X102038Y119841D01*
X106601D01*
X106796Y119370D01*
X106300Y118875D01*
X102038D01*
X101267Y118721D01*
X100612Y118284D01*
X100175Y117630D01*
X100022Y116858D01*
X100175Y116086D01*
X100612Y115432D01*
X101267Y114995D01*
X102038Y114841D01*
X109125D01*
X109897Y114995D01*
X110551Y115432D01*
X110988Y116086D01*
X111142Y116858D01*
X110988Y117630D01*
X110639Y118152D01*
X110833Y118662D01*
X124046D01*
X124397Y118732D01*
X124695Y118931D01*
X136697Y130934D01*
X136896Y131231D01*
X136966Y131582D01*
Y152157D01*
X145797Y160989D01*
X145996Y161286D01*
X146066Y161638D01*
Y169891D01*
X162472Y186296D01*
X162585Y186302D01*
X163022Y185922D01*
X163022Y185763D01*
Y182693D01*
X162622D01*
Y181012D01*
X166591D01*
Y182693D01*
X166191D01*
Y183492D01*
X170266D01*
Y181250D01*
X175067D01*
Y177214D01*
X174400D01*
Y176351D01*
X173189D01*
X172838Y176281D01*
X172540Y176082D01*
X168265Y171807D01*
X154794D01*
X154443Y171737D01*
X154145Y171538D01*
X151855Y169248D01*
X151841D01*
X151490Y169178D01*
X151192Y168979D01*
X147256Y165042D01*
X147057Y164745D01*
X146987Y164393D01*
Y159088D01*
X146812D01*
Y156372D01*
X146783Y156224D01*
X146812Y156076D01*
Y152801D01*
X144324D01*
X144260Y153125D01*
X143729Y153919D01*
X142935Y154449D01*
X141999Y154636D01*
X141062Y154449D01*
X140269Y153919D01*
X139738Y153125D01*
X139552Y152189D01*
X139738Y151252D01*
X140269Y150459D01*
X141062Y149928D01*
X141999Y149742D01*
X142935Y149928D01*
X143729Y150459D01*
X143796Y150558D01*
X146812D01*
Y143715D01*
X150178D01*
Y150586D01*
X150462Y150643D01*
X150826Y150886D01*
X151471Y151531D01*
X151471Y151531D01*
X151714Y151894D01*
X151770Y152179D01*
X153893D01*
Y151779D01*
X155475D01*
Y155634D01*
Y159488D01*
X153893D01*
Y159088D01*
X153357D01*
Y161234D01*
X153991D01*
Y160834D01*
X155672D01*
Y162819D01*
Y164803D01*
X153991D01*
Y164403D01*
X150454D01*
Y161234D01*
X151113D01*
Y159291D01*
X150603Y159088D01*
X150552D01*
Y159088D01*
X150178D01*
X150178Y159088D01*
X148822D01*
Y164013D01*
X152222Y167413D01*
X152235D01*
X152586Y167483D01*
X152884Y167682D01*
X155174Y169972D01*
X168646D01*
X168997Y170042D01*
X169294Y170241D01*
X173569Y174515D01*
X174400D01*
Y173677D01*
X174000D01*
Y171996D01*
X175984D01*
Y170996D01*
X174000D01*
Y169315D01*
X176174D01*
X176430Y168805D01*
X176302Y168634D01*
X171959D01*
X171608Y168564D01*
X171311Y168365D01*
X170090Y167145D01*
X169891Y166847D01*
X169821Y166496D01*
Y158356D01*
X169223D01*
Y151447D01*
X172453D01*
X172588Y151447D01*
X172963D01*
X173098Y151447D01*
X176303D01*
Y151047D01*
X177886D01*
Y154902D01*
Y158756D01*
X176303D01*
X176303Y158756D01*
Y158756D01*
X175797Y158766D01*
Y160053D01*
X176432D01*
Y159653D01*
X178113D01*
Y161638D01*
X178613D01*
Y162138D01*
X180794D01*
Y163622D01*
X178913D01*
X178718Y164093D01*
X180259Y165634D01*
X182381D01*
X182788Y165025D01*
X183582Y164495D01*
X184519Y164309D01*
X185455Y164495D01*
X186249Y165025D01*
X186779Y165819D01*
X186966Y166756D01*
X186779Y167692D01*
X186249Y168486D01*
X185455Y169017D01*
X184519Y169203D01*
X183582Y169017D01*
X182788Y168486D01*
X182381Y167877D01*
X179794D01*
X179794Y167877D01*
X179365Y167792D01*
X179001Y167549D01*
X179001Y167549D01*
X174674Y163222D01*
X172895D01*
Y160053D01*
X173554D01*
Y158717D01*
X173194Y158356D01*
X172588Y158356D01*
X172453Y158356D01*
X171657D01*
Y166116D01*
X172340Y166799D01*
X176929D01*
X177280Y166869D01*
X177578Y167068D01*
X180373Y169863D01*
X180572Y170161D01*
X180642Y170512D01*
Y181250D01*
X181702D01*
Y183413D01*
X185424D01*
Y182575D01*
X185024D01*
Y180894D01*
X188992D01*
Y182575D01*
X188592D01*
Y185728D01*
X189102Y185939D01*
X190028Y185013D01*
Y167809D01*
X190098Y167458D01*
X190297Y167160D01*
X194617Y162839D01*
Y159088D01*
X194056D01*
Y152179D01*
X193686Y151841D01*
X190584D01*
Y152250D01*
X187416D01*
Y151532D01*
X186584D01*
Y152250D01*
X183416D01*
Y148687D01*
X183416D01*
Y148313D01*
X183416D01*
Y147595D01*
X180610D01*
Y148465D01*
X180420Y148924D01*
X180069Y149069D01*
Y149891D01*
X176703D01*
Y149004D01*
X176509Y148924D01*
X176319Y148465D01*
Y144248D01*
X173016D01*
X172588Y144683D01*
Y149891D01*
X169223D01*
Y143637D01*
X168713Y143219D01*
X168504Y143260D01*
X168325Y143225D01*
X167815Y143504D01*
X167625Y143963D01*
X167165Y144153D01*
X165899D01*
X165807Y144291D01*
Y150433D01*
X165617Y150892D01*
X165157Y151083D01*
X160418D01*
X160197Y151127D01*
X159975Y151083D01*
X155000D01*
X154541Y150892D01*
X154429Y150623D01*
X154293D01*
Y143715D01*
X154824D01*
X154854Y143702D01*
Y143008D01*
X118040Y106194D01*
X113734D01*
X113305Y106109D01*
X113072Y105954D01*
X109557Y109469D01*
X109705Y109957D01*
X109897Y109995D01*
X110551Y110432D01*
X110988Y111086D01*
X111142Y111858D01*
X110988Y112630D01*
X110551Y113284D01*
X109897Y113721D01*
X109125Y113875D01*
X102038D01*
X101267Y113721D01*
X100612Y113284D01*
X100175Y112630D01*
X100022Y111858D01*
X100175Y111086D01*
X100612Y110432D01*
X101267Y109995D01*
X102038Y109841D01*
X106012D01*
X111362Y104492D01*
Y85102D01*
X111362Y85102D01*
X111447Y84672D01*
X111537Y84537D01*
Y84340D01*
X111669D01*
X111690Y84308D01*
X113375Y82623D01*
X113375Y82623D01*
X113739Y82380D01*
X114169Y82295D01*
X114169Y82295D01*
X147228D01*
Y65460D01*
X147228Y65460D01*
X147313Y65031D01*
X147556Y64667D01*
X149017Y63207D01*
X149017Y63207D01*
X149381Y62964D01*
X149810Y62878D01*
X149810Y62878D01*
X154588D01*
Y62354D01*
X154588Y62219D01*
X154588D01*
Y61844D01*
X154588Y61844D01*
Y58292D01*
X154372Y58148D01*
X153842Y57354D01*
X153655Y56417D01*
X153842Y55481D01*
X154372Y54687D01*
X155166Y54157D01*
X156102Y53970D01*
X157039Y54157D01*
X157833Y54687D01*
X158363Y55481D01*
X158549Y56417D01*
X158363Y57354D01*
X158013Y57878D01*
X157756Y58282D01*
Y60594D01*
X158141Y60910D01*
X158141Y60910D01*
X169155D01*
X169155Y60909D01*
X169519Y60666D01*
X169948Y60580D01*
X172561D01*
X172927Y60336D01*
X173630Y60196D01*
X174332Y60336D01*
X174927Y60734D01*
X175325Y61329D01*
X175465Y62031D01*
X175336Y62680D01*
X177438Y64782D01*
X177640Y65085D01*
X177757Y65174D01*
X178187Y65333D01*
X178613Y65249D01*
X179039Y65333D01*
X179400Y65575D01*
X179794D01*
X180155Y65333D01*
X180581Y65249D01*
X181008Y65333D01*
X181217Y65473D01*
X181566Y65538D01*
X181914Y65473D01*
X182124Y65333D01*
X182320Y65294D01*
X183293Y64321D01*
X183591Y64122D01*
X183942Y64052D01*
X191001D01*
X191352Y64122D01*
X191650Y64321D01*
X192623Y65294D01*
X192819Y65333D01*
X193180Y65575D01*
X193574D01*
X193935Y65333D01*
X194361Y65249D01*
X194787Y65333D01*
X194997Y65473D01*
X195345Y65538D01*
X195694Y65473D01*
X195903Y65333D01*
X196330Y65249D01*
X196756Y65333D01*
X197117Y65575D01*
X197511D01*
X197872Y65333D01*
X198298Y65249D01*
X198724Y65333D01*
X198934Y65473D01*
X199282Y65538D01*
X199631Y65473D01*
X199840Y65333D01*
X200267Y65249D01*
X200693Y65333D01*
X201054Y65575D01*
X201448D01*
X201809Y65333D01*
X202235Y65249D01*
X202661Y65333D01*
X203023Y65575D01*
X203416D01*
X203778Y65333D01*
X204204Y65249D01*
X204630Y65333D01*
X204839Y65473D01*
X205188Y65538D01*
X205537Y65473D01*
X205746Y65333D01*
X206172Y65249D01*
X206598Y65333D01*
X206960Y65575D01*
X207353D01*
X207715Y65333D01*
X208141Y65249D01*
X208567Y65333D01*
X208776Y65473D01*
X209125Y65538D01*
X209474Y65473D01*
X209683Y65333D01*
X210109Y65249D01*
X210535Y65333D01*
X210896Y65575D01*
X211138Y65936D01*
X211223Y66362D01*
Y70184D01*
X211231Y70224D01*
Y74488D01*
X211231Y74488D01*
X211200Y74641D01*
Y76655D01*
X211377Y76773D01*
X211774Y77369D01*
X211914Y78071D01*
X211774Y78773D01*
X211377Y79369D01*
X210781Y79766D01*
X210079Y79906D01*
X209376Y79766D01*
X208781Y79369D01*
X208383Y78773D01*
X208243Y78071D01*
X208383Y77369D01*
X208781Y76773D01*
X208957Y76655D01*
Y75468D01*
X208824Y75347D01*
X208447Y75139D01*
X208141Y75200D01*
X207715Y75115D01*
X207353Y74874D01*
X206960D01*
X206598Y75115D01*
X206172Y75200D01*
X205835Y75133D01*
X205502Y75308D01*
X205325Y75447D01*
Y75953D01*
X205904Y76340D01*
X206302Y76935D01*
X206442Y77638D01*
X206302Y78340D01*
X205904Y78935D01*
X205309Y79333D01*
X204606Y79473D01*
X203904Y79333D01*
X203663Y79172D01*
X203153Y79445D01*
Y81200D01*
X203083Y81551D01*
X202884Y81849D01*
X199821Y84912D01*
X200033Y85422D01*
X223820D01*
X225402Y83839D01*
X225700Y83640D01*
X226051Y83571D01*
X227943D01*
Y80935D01*
X235049D01*
Y88041D01*
X227943D01*
Y85406D01*
X226431D01*
X224849Y86988D01*
X224551Y87187D01*
X224200Y87257D01*
X200025D01*
X199111Y88171D01*
X199306Y88642D01*
X222001D01*
X222460Y88832D01*
X222650Y89291D01*
Y140551D01*
X222460Y141010D01*
X222001Y141201D01*
X217323D01*
X216864Y141010D01*
X216673Y140551D01*
Y134425D01*
X216313Y134065D01*
X214006D01*
X213760Y134472D01*
Y134646D01*
X213569Y135105D01*
X213110Y135295D01*
X210492D01*
Y140472D01*
X210302Y140932D01*
X209842Y141122D01*
X204341D01*
Y143715D01*
X204902D01*
Y146047D01*
X207737D01*
Y145290D01*
X210906D01*
Y148852D01*
X210906D01*
Y149227D01*
X210906D01*
Y152789D01*
X207737D01*
Y151925D01*
X205302D01*
Y155134D01*
X203219D01*
Y155634D01*
X202719D01*
Y159488D01*
X201137D01*
Y159088D01*
X200397D01*
Y160447D01*
X201235D01*
Y160047D01*
X202916D01*
Y162031D01*
Y164015D01*
X201235D01*
Y163616D01*
X197698D01*
Y160447D01*
X198562D01*
Y159088D01*
X197932D01*
X197796Y159088D01*
Y159088D01*
X197422D01*
X197422Y159088D01*
X196861D01*
Y163015D01*
X196775Y163445D01*
X196532Y163809D01*
X196168Y164052D01*
X195959Y164093D01*
X191863Y168189D01*
Y185393D01*
X191794Y185744D01*
X191595Y186042D01*
X188641Y188995D01*
X188343Y189194D01*
X187992Y189264D01*
X166161D01*
X165950Y189774D01*
X169116Y192941D01*
X170266D01*
Y190699D01*
X174943D01*
X174948Y190673D01*
X175191Y190309D01*
X175555Y190066D01*
X175984Y189981D01*
X176413Y190066D01*
X176777Y190309D01*
X176837Y190398D01*
X177347Y190299D01*
Y190299D01*
X179224D01*
Y193858D01*
Y197417D01*
X177347D01*
X177106Y197828D01*
Y199608D01*
X177282Y199726D01*
X177680Y200321D01*
X177820Y201024D01*
X177680Y201726D01*
X177282Y202321D01*
X176687Y202719D01*
X175984Y202859D01*
D02*
G37*
G36*
X209422Y221422D02*
X206953D01*
Y218953D01*
X209422D01*
Y221422D01*
D02*
G37*
G36*
X166591Y180012D02*
X165106D01*
Y178331D01*
X166591D01*
Y180012D01*
D02*
G37*
G36*
X206772Y190174D02*
X199685D01*
X198914Y190021D01*
X198259Y189584D01*
X197822Y188929D01*
X197669Y188158D01*
X197822Y187386D01*
X198259Y186732D01*
X198914Y186295D01*
X199685Y186141D01*
X201327D01*
Y182872D01*
X200660D01*
Y179445D01*
X200660Y179310D01*
Y178935D01*
X200660Y178800D01*
Y178071D01*
X200088D01*
X200084Y178090D01*
X199553Y178884D01*
X198759Y179415D01*
X197823Y179601D01*
X196887Y179415D01*
X196093Y178884D01*
X195562Y178090D01*
X195376Y177154D01*
X195562Y176217D01*
X196093Y175424D01*
X196887Y174893D01*
X197823Y174707D01*
X198759Y174893D01*
X199553Y175424D01*
X200084Y176217D01*
X200088Y176236D01*
X200660D01*
Y175373D01*
X203829D01*
Y178800D01*
X203829Y178935D01*
Y179310D01*
X203829Y179445D01*
Y182872D01*
X203162D01*
Y186141D01*
X206772D01*
X207544Y186295D01*
X208198Y186732D01*
X208635Y187386D01*
X208788Y188158D01*
X208635Y188929D01*
X208198Y189584D01*
X207544Y190021D01*
X206772Y190174D01*
D02*
G37*
G36*
X212890Y221422D02*
X210422D01*
Y218953D01*
X212890D01*
Y221422D01*
D02*
G37*
G36*
X205771Y170125D02*
X203513D01*
Y167867D01*
X203744Y167897D01*
X204425Y168179D01*
X205010Y168628D01*
X205459Y169213D01*
X205741Y169894D01*
X205771Y170125D01*
D02*
G37*
G36*
X202513D02*
X200255D01*
X200285Y169894D01*
X200567Y169213D01*
X201016Y168628D01*
X201601Y168179D01*
X202282Y167897D01*
X202513Y167867D01*
Y170125D01*
D02*
G37*
G36*
X226063Y190174D02*
X218977D01*
X218205Y190021D01*
X217551Y189584D01*
X217113Y188929D01*
X216960Y188158D01*
X217113Y187386D01*
X217551Y186732D01*
X218205Y186295D01*
X218977Y186141D01*
X221398D01*
Y179947D01*
X221222Y179830D01*
X220824Y179234D01*
X220685Y178532D01*
X220824Y177829D01*
X221222Y177234D01*
X221818Y176836D01*
X222520Y176697D01*
X223222Y176836D01*
X223818Y177234D01*
X224215Y177829D01*
X224355Y178532D01*
X224215Y179234D01*
X223818Y179830D01*
X223641Y179947D01*
Y186141D01*
X226063D01*
X226835Y186295D01*
X227489Y186732D01*
X227926Y187386D01*
X228080Y188158D01*
X227926Y188929D01*
X227489Y189584D01*
X226835Y190021D01*
X226063Y190174D01*
D02*
G37*
G36*
X203513Y173383D02*
Y171125D01*
X205771D01*
X205741Y171356D01*
X205459Y172037D01*
X205010Y172622D01*
X204425Y173071D01*
X203744Y173353D01*
X203513Y173383D01*
D02*
G37*
G36*
X202513D02*
X202282Y173353D01*
X201601Y173071D01*
X201016Y172622D01*
X200567Y172037D01*
X200285Y171356D01*
X200255Y171125D01*
X202513D01*
Y173383D01*
D02*
G37*
G36*
X182102Y193358D02*
X180224D01*
Y190299D01*
X182102D01*
Y193358D01*
D02*
G37*
G36*
X202729Y195582D02*
X199685D01*
X198757Y195398D01*
X197971Y194872D01*
X197652Y194395D01*
X197142Y194550D01*
Y195083D01*
X195658D01*
Y192902D01*
X195158D01*
Y192402D01*
X193173D01*
Y190721D01*
X193573D01*
Y188887D01*
X193491Y188764D01*
X193406Y188335D01*
X193406Y188335D01*
Y185431D01*
X193230Y185313D01*
X192832Y184718D01*
X192692Y184016D01*
X192832Y183313D01*
X193230Y182718D01*
X193825Y182320D01*
X194528Y182181D01*
X195230Y182320D01*
X195825Y182718D01*
X196223Y183313D01*
X196363Y184016D01*
X196223Y184718D01*
X195825Y185313D01*
X195649Y185431D01*
Y187184D01*
X196742D01*
Y190721D01*
X197142D01*
Y191766D01*
X197652Y191921D01*
X197971Y191443D01*
X198757Y190918D01*
X199685Y190733D01*
X202729D01*
Y193158D01*
Y195582D01*
D02*
G37*
G36*
X180224Y197417D02*
Y194358D01*
X182102D01*
Y197417D01*
X180224D01*
D02*
G37*
G36*
X205027Y217890D02*
X199090D01*
Y215877D01*
X165864D01*
X164742Y216999D01*
X164444Y217197D01*
X164093Y217267D01*
X107957D01*
X107606Y217197D01*
X107309Y216999D01*
X104312Y214002D01*
X103792Y214400D01*
X102928Y214758D01*
X102000Y214880D01*
X101073Y214758D01*
X100209Y214400D01*
X99467Y213831D01*
X98897Y213089D01*
X98539Y212224D01*
X98417Y211297D01*
X98539Y210369D01*
X98897Y209505D01*
X99467Y208763D01*
X100209Y208194D01*
X101073Y207836D01*
X102000Y207714D01*
X102928Y207836D01*
X103792Y208194D01*
X104534Y208763D01*
X105025Y209402D01*
X105464Y209309D01*
X105535Y209270D01*
Y206129D01*
X103800Y204394D01*
X103792Y204400D01*
X102928Y204758D01*
X102000Y204880D01*
X101073Y204758D01*
X100209Y204400D01*
X99467Y203831D01*
X98897Y203089D01*
X98539Y202224D01*
X98417Y201297D01*
X98539Y200370D01*
X98897Y199505D01*
X99467Y198763D01*
X100209Y198194D01*
X101073Y197836D01*
X102000Y197714D01*
X102928Y197836D01*
X103792Y198194D01*
X104534Y198763D01*
X105104Y199505D01*
X105462Y200370D01*
X105584Y201297D01*
X105462Y202224D01*
X105104Y203089D01*
X105098Y203097D01*
X107101Y205100D01*
X107300Y205398D01*
X107370Y205749D01*
Y212768D01*
X108739Y214136D01*
X109076Y214089D01*
X109269Y213574D01*
X108897Y213089D01*
X108539Y212224D01*
X108417Y211297D01*
X108539Y210369D01*
X108897Y209505D01*
X109467Y208763D01*
X110209Y208194D01*
X111073Y207836D01*
X112000Y207714D01*
X112928Y207836D01*
X113792Y208194D01*
X114534Y208763D01*
X115104Y209505D01*
X115462Y210369D01*
X115584Y211297D01*
X115462Y212224D01*
X115104Y213089D01*
X114618Y213722D01*
X114782Y214232D01*
X119219D01*
X119383Y213722D01*
X118897Y213089D01*
X118539Y212224D01*
X118417Y211297D01*
X118539Y210369D01*
X118897Y209505D01*
X119467Y208763D01*
X120209Y208194D01*
X121073Y207836D01*
X122000Y207714D01*
X122928Y207836D01*
X123792Y208194D01*
X124534Y208763D01*
X125104Y209505D01*
X125462Y210369D01*
X125584Y211297D01*
X125462Y212224D01*
X125104Y213089D01*
X124618Y213722D01*
X124782Y214232D01*
X129219D01*
X129383Y213722D01*
X128897Y213089D01*
X128539Y212224D01*
X128417Y211297D01*
X128539Y210369D01*
X128897Y209505D01*
X129467Y208763D01*
X130209Y208194D01*
X131073Y207836D01*
X132000Y207714D01*
X132928Y207836D01*
X133792Y208194D01*
X134534Y208763D01*
X135104Y209505D01*
X135462Y210369D01*
X135584Y211297D01*
X135462Y212224D01*
X135104Y213089D01*
X134618Y213722D01*
X134782Y214232D01*
X139219D01*
X139383Y213722D01*
X138897Y213089D01*
X138539Y212224D01*
X138417Y211297D01*
X138539Y210369D01*
X138897Y209505D01*
X139467Y208763D01*
X140209Y208194D01*
X141073Y207836D01*
X142000Y207714D01*
X142928Y207836D01*
X143792Y208194D01*
X144534Y208763D01*
X145104Y209505D01*
X145462Y210369D01*
X145584Y211297D01*
X145462Y212224D01*
X145104Y213089D01*
X144618Y213722D01*
X144782Y214232D01*
X149219D01*
X149383Y213722D01*
X148897Y213089D01*
X148539Y212224D01*
X148417Y211297D01*
X148539Y210369D01*
X148897Y209505D01*
X149467Y208763D01*
X150209Y208194D01*
X151073Y207836D01*
X151083Y207834D01*
Y207126D01*
X145953Y201996D01*
X145470Y202160D01*
X145462Y202224D01*
X145104Y203089D01*
X144534Y203831D01*
X143792Y204400D01*
X142928Y204758D01*
X142000Y204880D01*
X141073Y204758D01*
X140209Y204400D01*
X139467Y203831D01*
X138897Y203089D01*
X138539Y202224D01*
X138417Y201297D01*
X138539Y200370D01*
X138897Y199505D01*
X138903Y199497D01*
X126268Y186863D01*
X106890D01*
X106539Y186793D01*
X106241Y186594D01*
X75611Y155964D01*
X75412Y155666D01*
X75342Y155315D01*
Y130124D01*
X75412Y129772D01*
X75611Y129475D01*
X81155Y123931D01*
X81263Y123859D01*
X81319Y123302D01*
X81307Y123263D01*
X80884Y122630D01*
X80730Y121858D01*
X80884Y121086D01*
X81321Y120432D01*
X81975Y119995D01*
X82747Y119841D01*
X89833D01*
X90605Y119995D01*
X91259Y120432D01*
X91697Y121086D01*
X91850Y121858D01*
X91697Y122630D01*
X91259Y123284D01*
X90605Y123721D01*
X89833Y123875D01*
X85571D01*
X85076Y124370D01*
X85271Y124841D01*
X89833D01*
X90605Y124995D01*
X91259Y125432D01*
X91599Y125940D01*
X92252D01*
X92603Y126010D01*
X92901Y126209D01*
X96554Y129863D01*
X96753Y130161D01*
X96823Y130512D01*
Y139777D01*
X99650Y142604D01*
X100120Y142353D01*
X100022Y141858D01*
X100175Y141086D01*
X100612Y140432D01*
X101267Y139995D01*
X102038Y139841D01*
X109125D01*
X109897Y139995D01*
X110551Y140432D01*
X110891Y140940D01*
X114845D01*
X114935Y140489D01*
X115465Y139695D01*
X116259Y139164D01*
X117196Y138978D01*
X118132Y139164D01*
X118926Y139695D01*
X119457Y140489D01*
X119643Y141425D01*
X119457Y142361D01*
X118926Y143155D01*
X118132Y143686D01*
X117196Y143872D01*
X116259Y143686D01*
X115465Y143155D01*
X115212Y142776D01*
X110891D01*
X110551Y143284D01*
X109897Y143721D01*
X109125Y143875D01*
X102038D01*
X101543Y143776D01*
X101292Y144246D01*
X152649Y195604D01*
X152848Y195901D01*
X152918Y196252D01*
Y197834D01*
X152928Y197836D01*
X153792Y198194D01*
X154534Y198763D01*
X155104Y199505D01*
X155462Y200370D01*
X155584Y201297D01*
X155462Y202224D01*
X155104Y203089D01*
X154534Y203831D01*
X153792Y204400D01*
X152928Y204758D01*
X152136Y204862D01*
X151892Y205339D01*
X152649Y206097D01*
X152848Y206394D01*
X152918Y206746D01*
Y207834D01*
X152928Y207836D01*
X153792Y208194D01*
X154534Y208763D01*
X155104Y209505D01*
X155462Y210369D01*
X155584Y211297D01*
X155462Y212224D01*
X155104Y213089D01*
X154618Y213722D01*
X154782Y214232D01*
X159219D01*
X159383Y213722D01*
X158897Y213089D01*
X158539Y212224D01*
X158417Y211297D01*
X158539Y210369D01*
X158897Y209505D01*
X159467Y208763D01*
X160209Y208194D01*
X161073Y207836D01*
X162000Y207714D01*
X162928Y207836D01*
X163792Y208194D01*
X164534Y208763D01*
X165104Y209505D01*
X165462Y210369D01*
X165566Y211161D01*
X165857Y211347D01*
X166086Y211389D01*
X166304Y211243D01*
X166655Y211173D01*
X199490D01*
Y209522D01*
X201141D01*
Y205174D01*
X199685D01*
X198914Y205021D01*
X198259Y204584D01*
X197822Y203929D01*
X197669Y203158D01*
X197822Y202386D01*
X198259Y201732D01*
X198914Y201295D01*
X199685Y201141D01*
X206772D01*
X207347Y201255D01*
X207598Y200785D01*
X206952Y200139D01*
X206772Y200174D01*
X199685D01*
X198914Y200021D01*
X198259Y199584D01*
X197822Y198930D01*
X197669Y198158D01*
X197822Y197386D01*
X198259Y196732D01*
X198914Y196295D01*
X199685Y196141D01*
X206772D01*
X207544Y196295D01*
X208198Y196732D01*
X208635Y197386D01*
X208788Y198158D01*
X208635Y198930D01*
X208516Y199108D01*
X210891Y201482D01*
X211089Y201780D01*
X211159Y202131D01*
Y209586D01*
X212490D01*
Y214723D01*
X207353D01*
Y213970D01*
X206882Y213775D01*
X205049Y215608D01*
X205027Y215623D01*
Y217890D01*
D02*
G37*
G36*
X212890Y217953D02*
X210422D01*
Y215485D01*
X212890D01*
Y217953D01*
D02*
G37*
G36*
X25921Y200797D02*
X22500D01*
Y197376D01*
X23032Y197446D01*
X23994Y197844D01*
X24820Y198478D01*
X25453Y199303D01*
X25851Y200265D01*
X25921Y200797D01*
D02*
G37*
G36*
X21500D02*
X18079D01*
X18149Y200265D01*
X18548Y199303D01*
X19181Y198478D01*
X20007Y197844D01*
X20968Y197446D01*
X21500Y197376D01*
Y200797D01*
D02*
G37*
G36*
X206772Y195582D02*
X203729D01*
Y193658D01*
X209097D01*
X209012Y194086D01*
X208486Y194872D01*
X207700Y195398D01*
X206772Y195582D01*
D02*
G37*
G36*
X194658Y195083D02*
X193173D01*
Y193402D01*
X194658D01*
Y195083D01*
D02*
G37*
G36*
X209097Y192658D02*
X203729D01*
Y190733D01*
X206772D01*
X207700Y190918D01*
X208486Y191443D01*
X209012Y192230D01*
X209097Y192658D01*
D02*
G37*
G36*
X226063Y205174D02*
X218977D01*
X218205Y205021D01*
X217551Y204584D01*
X217113Y203929D01*
X216960Y203158D01*
X217113Y202386D01*
X217331Y202060D01*
X211041Y195770D01*
X210842Y195472D01*
X210772Y195121D01*
Y179878D01*
X210011Y179369D01*
X209481Y178576D01*
X209295Y177639D01*
X209481Y176703D01*
X210011Y175909D01*
X210805Y175378D01*
X211741Y175192D01*
X212678Y175378D01*
X213472Y175909D01*
X214002Y176703D01*
X214038Y176882D01*
X214558D01*
X214624Y176547D01*
X215155Y175753D01*
X215949Y175223D01*
X216885Y175036D01*
X217822Y175223D01*
X218616Y175753D01*
X219146Y176547D01*
X219332Y177483D01*
X219146Y178420D01*
X218616Y179214D01*
X217822Y179744D01*
X216885Y179930D01*
X215949Y179744D01*
X215933Y179733D01*
X214579Y181087D01*
Y195016D01*
X216742Y197179D01*
X217274Y197145D01*
X217551Y196732D01*
X218205Y196295D01*
X218977Y196141D01*
X226063D01*
X226835Y196295D01*
X227489Y196732D01*
X227926Y197386D01*
X227948Y197496D01*
X230384D01*
Y196829D01*
X233811D01*
X233947Y196829D01*
X234321D01*
X234457Y196829D01*
X234981D01*
Y195335D01*
X233925Y194279D01*
X233307D01*
X233307Y194279D01*
X233307Y194279D01*
X227693D01*
X227489Y194584D01*
X226835Y195021D01*
X226063Y195175D01*
X218977D01*
X218205Y195021D01*
X217551Y194584D01*
X217113Y193930D01*
X216960Y193158D01*
X217113Y192386D01*
X217551Y191732D01*
X218205Y191295D01*
X218977Y191141D01*
X226063D01*
X226835Y191295D01*
X227489Y191732D01*
X227693Y192036D01*
X231516D01*
Y185129D01*
X230908Y184722D01*
X230377Y183929D01*
X230191Y182992D01*
X230377Y182056D01*
X230908Y181262D01*
X231701Y180731D01*
X232638Y180545D01*
X233574Y180731D01*
X234368Y181262D01*
X234898Y182056D01*
X235085Y182992D01*
X234898Y183929D01*
X234368Y184722D01*
X233759Y185129D01*
Y192024D01*
X233772Y192036D01*
X234390D01*
X234390Y192036D01*
X234819Y192122D01*
X235183Y192365D01*
X236896Y194077D01*
X237139Y194441D01*
X237224Y194870D01*
X237224Y194870D01*
Y196829D01*
X237884D01*
Y199998D01*
X236830D01*
Y201554D01*
X237490D01*
Y204722D01*
X234063D01*
X233928Y204722D01*
X233553D01*
X233418Y204722D01*
X229991D01*
Y204056D01*
X227842D01*
X227489Y204584D01*
X226835Y205021D01*
X226063Y205174D01*
D02*
G37*
G36*
X201559Y221359D02*
X199090D01*
Y218890D01*
X201559D01*
Y221359D01*
D02*
G37*
G36*
X205027D02*
X202559D01*
Y218890D01*
X205027D01*
Y221359D01*
D02*
G37*
%LPD*%
G36*
X199490Y213008D02*
X167035D01*
X166473Y213570D01*
X166668Y214042D01*
X199490D01*
Y213008D01*
D02*
G37*
G36*
X141025Y125285D02*
X140999Y125157D01*
X141139Y124455D01*
X141537Y123860D01*
X142132Y123462D01*
X142835Y123322D01*
X143537Y123462D01*
X144016Y123782D01*
X164805D01*
X165224Y123272D01*
X165200Y123150D01*
X165228Y123005D01*
X164905Y122610D01*
X142134D01*
X141783Y122541D01*
X141486Y122342D01*
X141236Y122092D01*
X140787Y122181D01*
X140085Y122041D01*
X139490Y121643D01*
X139092Y121048D01*
X138952Y120346D01*
X139092Y119643D01*
X139490Y119048D01*
X140085Y118650D01*
X140787Y118510D01*
X141490Y118650D01*
X142048Y119023D01*
X142303Y118948D01*
X142543Y118816D01*
X142675Y118156D01*
X143072Y117561D01*
X143253Y117440D01*
Y116930D01*
X143072Y116809D01*
X142675Y116214D01*
X142535Y115512D01*
X142675Y114810D01*
X143072Y114214D01*
X143293Y114067D01*
Y113453D01*
X143072Y113306D01*
X142675Y112710D01*
X142535Y112008D01*
X142675Y111305D01*
X143072Y110710D01*
X143564Y110382D01*
X143607Y110175D01*
Y110022D01*
X143564Y109815D01*
X143072Y109487D01*
X142675Y108891D01*
X142535Y108189D01*
X142675Y107487D01*
X143072Y106891D01*
X143668Y106493D01*
X143733Y106481D01*
Y105961D01*
X143668Y105947D01*
X143072Y105550D01*
X142675Y104954D01*
X142535Y104252D01*
X142675Y103550D01*
X143072Y102954D01*
X143668Y102556D01*
X144370Y102417D01*
X145072Y102556D01*
X145126Y102593D01*
X145615Y102445D01*
X145643Y102375D01*
X146102Y102185D01*
X148495D01*
X148954Y102375D01*
X149059Y102628D01*
X149833Y102628D01*
X149968Y102628D01*
X153395D01*
Y104735D01*
X153594Y104934D01*
X158535D01*
X158935Y104424D01*
X158900Y104252D01*
X159008Y103711D01*
X159315Y103252D01*
X159774Y102945D01*
X159813Y102937D01*
Y102417D01*
X159774Y102409D01*
X159315Y102103D01*
X159008Y101644D01*
X158943Y101316D01*
X158787Y101161D01*
X141031D01*
X140601Y101075D01*
X140237Y100832D01*
X140237Y100832D01*
X133805Y94400D01*
X133295D01*
X129183Y98513D01*
Y101702D01*
X122077D01*
Y94597D01*
X129183D01*
Y94674D01*
X129654Y94870D01*
X132429Y92095D01*
Y91344D01*
X132317Y91177D01*
X132290Y91040D01*
X132037D01*
Y84538D01*
X118237D01*
Y91040D01*
X113605D01*
Y103437D01*
X113843Y103596D01*
X114198Y103951D01*
X118505D01*
X118505Y103951D01*
X118934Y104036D01*
X119298Y104280D01*
X140555Y125537D01*
X141025Y125285D01*
D02*
G37*
G36*
X187668Y115968D02*
Y115968D01*
X189243Y117543D01*
X187668Y115968D01*
D02*
G37*
G36*
X207441Y109331D02*
Y104606D01*
X202716D01*
Y104722D01*
X202578Y104861D01*
X203620Y105903D01*
Y107832D01*
X202323Y109129D01*
Y109724D01*
X207047D01*
X207441Y109331D01*
D02*
G37*
G36*
X148435Y201161D02*
X148539Y200370D01*
X148897Y199505D01*
X149467Y198763D01*
X150209Y198194D01*
X151073Y197836D01*
X151083Y197834D01*
Y196633D01*
X95257Y140806D01*
X95058Y140509D01*
X94988Y140157D01*
Y130892D01*
X92045Y127949D01*
X91452Y127995D01*
X91259Y128284D01*
X90605Y128721D01*
X89833Y128875D01*
X82747D01*
X81975Y128721D01*
X81321Y128284D01*
X80884Y127630D01*
X80851Y127466D01*
X80363Y127318D01*
X77178Y130504D01*
Y154935D01*
X78494Y156251D01*
X78890Y155926D01*
X78869Y155895D01*
X78799Y155544D01*
Y131858D01*
X78869Y131507D01*
X79068Y131209D01*
X79366Y131010D01*
X79717Y130940D01*
X80981D01*
X81321Y130432D01*
X81975Y129995D01*
X82747Y129841D01*
X89833D01*
X90605Y129995D01*
X91259Y130432D01*
X91697Y131086D01*
X91850Y131858D01*
X91697Y132630D01*
X91259Y133284D01*
X90605Y133721D01*
X89833Y133875D01*
X82747D01*
X81975Y133721D01*
X81321Y133284D01*
X81144Y133020D01*
X80634Y133175D01*
Y135541D01*
X81144Y135696D01*
X81321Y135432D01*
X81975Y134995D01*
X82747Y134841D01*
X89833D01*
X90605Y134995D01*
X91259Y135432D01*
X91697Y136086D01*
X91850Y136858D01*
X91697Y137630D01*
X91259Y138284D01*
X90605Y138721D01*
X89833Y138875D01*
X82747D01*
X81975Y138721D01*
X81321Y138284D01*
X81144Y138020D01*
X80634Y138175D01*
Y140541D01*
X81144Y140696D01*
X81321Y140432D01*
X81975Y139995D01*
X82747Y139841D01*
X89833D01*
X90605Y139995D01*
X91259Y140432D01*
X91697Y141086D01*
X91850Y141858D01*
X91697Y142630D01*
X91259Y143284D01*
X90605Y143721D01*
X89833Y143875D01*
X87208D01*
Y147715D01*
X87875D01*
Y150883D01*
X87875Y150883D01*
X87875D01*
X88167Y151256D01*
X88550Y151639D01*
X88788Y151479D01*
X89724Y151293D01*
X90661Y151479D01*
X91455Y152010D01*
X91985Y152804D01*
X92171Y153740D01*
X91985Y154677D01*
X91826Y154915D01*
X100364Y163452D01*
X111554D01*
X111558Y163434D01*
X112089Y162640D01*
X112882Y162109D01*
X113819Y161923D01*
X114755Y162109D01*
X115549Y162640D01*
X116080Y163434D01*
X116266Y164370D01*
X116080Y165306D01*
X115549Y166100D01*
X114755Y166631D01*
X113819Y166817D01*
X112882Y166631D01*
X112089Y166100D01*
X111558Y165306D01*
X111554Y165288D01*
X99983D01*
X99632Y165218D01*
X99335Y165019D01*
X90374Y156058D01*
X89724Y156187D01*
X88788Y156001D01*
X87994Y155471D01*
X87464Y154677D01*
X87277Y153740D01*
X87406Y153091D01*
X85641Y151326D01*
X85442Y151028D01*
X85414Y150883D01*
X84447D01*
X84312Y150883D01*
X83938D01*
X83802Y150883D01*
X83278D01*
Y151985D01*
X83699Y152351D01*
X84244Y152243D01*
X85180Y152429D01*
X85974Y152960D01*
X86505Y153753D01*
X86691Y154690D01*
X86505Y155626D01*
X85974Y156420D01*
X85180Y156951D01*
X84244Y157137D01*
X83308Y156951D01*
X82811Y156619D01*
X82486Y157015D01*
X108308Y182837D01*
X129907D01*
X130258Y182907D01*
X130556Y183106D01*
X146502Y199052D01*
X146701Y199350D01*
X146771Y199701D01*
Y200218D01*
X147958Y201406D01*
X148435Y201161D01*
D02*
G37*
G36*
X140209Y198194D02*
X141073Y197836D01*
X141865Y197731D01*
X142109Y197255D01*
X129527Y184672D01*
X127279D01*
X127127Y185182D01*
X127297Y185296D01*
X140201Y198200D01*
X140209Y198194D01*
D02*
G37*
G36*
X162392Y140542D02*
X162421D01*
Y139734D01*
X162313D01*
Y136172D01*
X162313Y136172D01*
Y135797D01*
X162313D01*
X162313Y135662D01*
Y132235D01*
X162618D01*
Y131323D01*
X162809Y130863D01*
X163268Y130673D01*
X164754D01*
X164773Y130578D01*
X164972Y130280D01*
X165491Y129761D01*
Y127115D01*
X165307Y126840D01*
X165200Y126299D01*
X165234Y126127D01*
X164834Y125617D01*
X162827D01*
X162672Y126127D01*
X163109Y126419D01*
X163507Y127014D01*
X163646Y127717D01*
X163507Y128419D01*
X163109Y129014D01*
X162513Y129412D01*
X161811Y129552D01*
X161109Y129412D01*
X160513Y129014D01*
X160259Y128634D01*
X147733D01*
X147479Y129014D01*
X146883Y129412D01*
X146181Y129552D01*
X145479Y129412D01*
X144883Y129014D01*
X144485Y128419D01*
X144346Y127717D01*
X144485Y127014D01*
X144883Y126419D01*
X145320Y126127D01*
X145165Y125617D01*
X144579D01*
X144530Y125860D01*
X144132Y126455D01*
X143537Y126853D01*
X142835Y126993D01*
X142707Y126967D01*
X142455Y127437D01*
X156768Y141750D01*
X157011Y142114D01*
X157097Y142543D01*
Y143642D01*
X162392D01*
Y140542D01*
D02*
G37*
G36*
X179460Y34953D02*
Y26141D01*
X177107Y23788D01*
X176864Y23424D01*
X176779Y22995D01*
X176779Y22995D01*
Y11863D01*
X176085Y11169D01*
X175615Y11421D01*
X175508Y12237D01*
X175145Y13113D01*
X174568Y13864D01*
X173816Y14442D01*
X172940Y14804D01*
X172001Y14928D01*
X171061Y14804D01*
X170185Y14442D01*
X169433Y13864D01*
X168856Y13113D01*
X168493Y12237D01*
X168369Y11297D01*
X168493Y10357D01*
X168856Y9481D01*
X169357Y8828D01*
X169202Y8319D01*
X164799D01*
X164644Y8828D01*
X165145Y9481D01*
X165508Y10357D01*
X165631Y11297D01*
X165508Y12237D01*
X165145Y13113D01*
X164568Y13864D01*
X163816Y14442D01*
X162940Y14804D01*
X162001Y14928D01*
X161061Y14804D01*
X160185Y14442D01*
X159433Y13864D01*
X158856Y13113D01*
X158493Y12237D01*
X158369Y11297D01*
X158493Y10357D01*
X158856Y9481D01*
X159357Y8828D01*
X159202Y8319D01*
X154799D01*
X154644Y8828D01*
X155145Y9481D01*
X155508Y10357D01*
X155631Y11297D01*
X155508Y12237D01*
X155220Y12931D01*
X157722Y15433D01*
X157722Y15433D01*
X157965Y15796D01*
X158051Y16226D01*
Y20093D01*
X158561Y20194D01*
X158856Y19481D01*
X159433Y18729D01*
X160185Y18152D01*
X161061Y17790D01*
X162001Y17666D01*
X162940Y17790D01*
X163816Y18152D01*
X164568Y18729D01*
X165145Y19481D01*
X165508Y20357D01*
X165631Y21297D01*
X165508Y22237D01*
X165145Y23112D01*
X164644Y23765D01*
X164799Y24275D01*
X167596D01*
X167596Y24275D01*
X168026Y24361D01*
X168390Y24604D01*
X178950Y35164D01*
X179460Y34953D01*
D02*
G37*
G36*
X206556Y211505D02*
X206854Y211307D01*
X207205Y211237D01*
X207353D01*
Y209586D01*
X209324D01*
Y202813D01*
X209229Y202756D01*
X208772Y203076D01*
X208788Y203158D01*
X208635Y203929D01*
X208198Y204584D01*
X207544Y205021D01*
X206772Y205174D01*
X202976D01*
Y209522D01*
X204627D01*
Y212768D01*
X205098Y212963D01*
X206556Y211505D01*
D02*
G37*
G36*
X155769Y81934D02*
X155769Y81529D01*
X155769Y81394D01*
Y80867D01*
X155349Y80784D01*
X154985Y80541D01*
X154985Y80541D01*
X151836Y77391D01*
X151593Y77027D01*
X151507Y76598D01*
X151507Y76598D01*
Y74798D01*
X150899Y74392D01*
X150368Y73598D01*
X150182Y72661D01*
X150368Y71725D01*
X150899Y70931D01*
X151692Y70401D01*
X152629Y70214D01*
X153565Y70401D01*
X154359Y70931D01*
X154890Y71725D01*
X155076Y72661D01*
X154890Y73598D01*
X154359Y74392D01*
X153750Y74798D01*
Y76134D01*
X155355Y77738D01*
X155769Y77967D01*
Y77967D01*
X155769Y77967D01*
X158937D01*
Y77967D01*
X159312D01*
X159312Y77967D01*
X162464D01*
X162481Y77967D01*
X162991Y78096D01*
X163033Y78033D01*
X163628Y77635D01*
X163712Y77618D01*
Y70224D01*
X163720Y70184D01*
Y66362D01*
X163805Y65936D01*
X163839Y65884D01*
X163908Y65539D01*
X164151Y65175D01*
X165349Y63977D01*
X165713Y63734D01*
X166069Y63663D01*
X166019Y63153D01*
X158605D01*
X157756Y64002D01*
Y65781D01*
X154588D01*
Y65121D01*
X150274D01*
X149471Y65925D01*
Y82295D01*
X155408D01*
X155769Y81934D01*
D02*
G37*
G36*
X161850Y99984D02*
X161903Y99856D01*
X162362Y99665D01*
X165762D01*
X165917Y99155D01*
X165614Y98953D01*
X165307Y98494D01*
X165200Y97953D01*
X165307Y97411D01*
X165614Y96952D01*
X166073Y96646D01*
X166113Y96638D01*
Y96118D01*
X166073Y96110D01*
X165614Y95803D01*
X165307Y95345D01*
X165200Y94803D01*
X165307Y94262D01*
X165614Y93803D01*
X166073Y93496D01*
X166614Y93389D01*
X167156Y93496D01*
X167614Y93803D01*
X167921Y94262D01*
X167929Y94302D01*
X168449D01*
X168457Y94262D01*
X168763Y93803D01*
X169222Y93496D01*
X169764Y93389D01*
X169936Y93423D01*
X170446Y93024D01*
Y88890D01*
X170285Y88649D01*
X170215Y88298D01*
Y87356D01*
X169742Y87069D01*
X169705Y87074D01*
X169329Y87636D01*
X168734Y88034D01*
X168032Y88174D01*
X167329Y88034D01*
X166734Y87636D01*
X166336Y87041D01*
X166196Y86339D01*
X166336Y85636D01*
X166734Y85041D01*
X167114Y84787D01*
Y83275D01*
X166643Y83080D01*
X165919Y83804D01*
X166008Y84252D01*
X165869Y84954D01*
X165471Y85550D01*
X164875Y85948D01*
X164173Y86087D01*
X163471Y85948D01*
X162939Y85592D01*
X162481Y85466D01*
X162481Y85466D01*
Y85466D01*
X162481Y85466D01*
X161020D01*
X160825Y85937D01*
X164425Y89537D01*
X164493Y89530D01*
X165089Y89133D01*
X165791Y88993D01*
X166493Y89133D01*
X167089Y89530D01*
X167487Y90126D01*
X167626Y90828D01*
X167487Y91531D01*
X167089Y92126D01*
X166493Y92524D01*
X165791Y92663D01*
X165089Y92524D01*
X164493Y92126D01*
X164375Y91950D01*
X164130D01*
X164130Y91950D01*
X163700Y91864D01*
X163337Y91621D01*
X163337Y91621D01*
X157181Y85466D01*
X155769D01*
Y84538D01*
X138737D01*
Y86162D01*
X144951D01*
Y85699D01*
X148378D01*
X148513Y85699D01*
X148888D01*
X149023Y85699D01*
X152450D01*
Y88868D01*
X151870D01*
Y90879D01*
X152059Y90957D01*
X152602Y91374D01*
X153019Y91917D01*
X153281Y92550D01*
X153370Y93228D01*
X153281Y93907D01*
X153019Y94540D01*
X152602Y95083D01*
X152059Y95499D01*
X151427Y95761D01*
X150748Y95851D01*
X150069Y95761D01*
X149437Y95499D01*
X148894Y95083D01*
X148477Y94540D01*
X148215Y93907D01*
X148126Y93228D01*
X148215Y92550D01*
X148477Y91917D01*
X148894Y91374D01*
X149437Y90957D01*
X149627Y90879D01*
Y89228D01*
X149266Y88868D01*
X148513Y88868D01*
X148378Y88868D01*
X144951D01*
Y88405D01*
X138737D01*
Y91040D01*
X134672D01*
Y92095D01*
X141495Y98918D01*
X159252D01*
X159252Y98918D01*
X159681Y99003D01*
X160045Y99246D01*
X160529Y99730D01*
X160856Y99796D01*
X161263Y100067D01*
X161402Y100083D01*
X161850Y99984D01*
D02*
G37*
G36*
X210069Y95463D02*
X213632D01*
Y95463D01*
X214006D01*
Y95463D01*
X214878D01*
X214994Y95289D01*
X215358Y95046D01*
X215787Y94961D01*
X216163Y95035D01*
X216264Y95014D01*
X216673Y94738D01*
Y93327D01*
X205749D01*
X205324Y93534D01*
Y96030D01*
X205446Y96130D01*
X210069D01*
Y95463D01*
D02*
G37*
%LPC*%
G36*
X172001Y24928D02*
X171061Y24804D01*
X170185Y24442D01*
X169433Y23865D01*
X168856Y23112D01*
X168493Y22237D01*
X168369Y21297D01*
X168493Y20357D01*
X168856Y19481D01*
X169433Y18729D01*
X170185Y18152D01*
X171061Y17790D01*
X172001Y17666D01*
X172940Y17790D01*
X173816Y18152D01*
X174568Y18729D01*
X175145Y19481D01*
X175508Y20357D01*
X175631Y21297D01*
X175508Y22237D01*
X175145Y23112D01*
X174568Y23865D01*
X173816Y24442D01*
X172940Y24804D01*
X172001Y24928D01*
D02*
G37*
%LPD*%
D10*
X116891Y47544D02*
D03*
Y40064D02*
D03*
X108426D02*
D03*
Y43804D02*
D03*
D11*
X108426Y47544D02*
D03*
D12*
X105581Y131858D02*
D03*
Y136858D02*
D03*
Y116858D02*
D03*
Y126858D02*
D03*
Y141858D02*
D03*
Y121858D02*
D03*
Y111858D02*
D03*
X86290Y141858D02*
D03*
Y131858D02*
D03*
Y136858D02*
D03*
Y121858D02*
D03*
Y126858D02*
D03*
Y111858D02*
D03*
Y116858D02*
D03*
X222520Y198158D02*
D03*
Y203158D02*
D03*
Y193158D02*
D03*
Y188158D02*
D03*
X203228Y203158D02*
D03*
Y193158D02*
D03*
Y198158D02*
D03*
Y188158D02*
D03*
D13*
X135387Y87690D02*
D03*
Y73690D02*
D03*
X114887Y87690D02*
D03*
Y73690D02*
D03*
D14*
X155975Y155634D02*
D03*
X178386Y154902D02*
D03*
X203219Y155634D02*
D03*
D15*
X155975Y147169D02*
D03*
X148495Y155634D02*
D03*
X152235D02*
D03*
X148495Y147169D02*
D03*
X178386Y146437D02*
D03*
X170905Y154902D02*
D03*
X174646D02*
D03*
X170905Y146437D02*
D03*
X203219Y147169D02*
D03*
X195739Y155634D02*
D03*
X199479D02*
D03*
X195739Y147169D02*
D03*
D16*
X208141Y70224D02*
D03*
X206172D02*
D03*
X210109D02*
D03*
X200267D02*
D03*
X202235D02*
D03*
X204204D02*
D03*
X196330D02*
D03*
X198298D02*
D03*
X192393D02*
D03*
X194361D02*
D03*
X188456D02*
D03*
X190424D02*
D03*
X186487D02*
D03*
X210109Y40559D02*
D03*
X206172D02*
D03*
X208141D02*
D03*
X202235D02*
D03*
X204204D02*
D03*
X190424D02*
D03*
X192393D02*
D03*
X186487D02*
D03*
X188456D02*
D03*
X198298D02*
D03*
X200267D02*
D03*
X194361D02*
D03*
X196330D02*
D03*
X182550Y70224D02*
D03*
X180581D02*
D03*
X184519D02*
D03*
X178613D02*
D03*
X174676D02*
D03*
X176645D02*
D03*
X170739D02*
D03*
X172707D02*
D03*
X166802D02*
D03*
X168771D02*
D03*
X164833D02*
D03*
X182550Y40559D02*
D03*
X184519D02*
D03*
X176645D02*
D03*
X178613D02*
D03*
X180581D02*
D03*
X164833D02*
D03*
X166802D02*
D03*
X172707D02*
D03*
X174676D02*
D03*
X168771D02*
D03*
X170739D02*
D03*
D17*
X179724Y193858D02*
D03*
X175984D02*
D03*
X179724Y184409D02*
D03*
X172244D02*
D03*
X175984D02*
D03*
X172244Y193858D02*
D03*
D18*
X86093Y149299D02*
D03*
X82156D02*
D03*
X150669Y87283D02*
D03*
X146732D02*
D03*
X236103Y198414D02*
D03*
X232166D02*
D03*
X235709Y203138D02*
D03*
X231772D02*
D03*
X215787Y97047D02*
D03*
X211850D02*
D03*
X151496Y119055D02*
D03*
X147559D02*
D03*
X179842Y113228D02*
D03*
X175906D02*
D03*
X179803Y105984D02*
D03*
X175866D02*
D03*
X183740Y109606D02*
D03*
X179803D02*
D03*
X183740Y102598D02*
D03*
X179803D02*
D03*
X151535Y111890D02*
D03*
X147598D02*
D03*
X151535Y115551D02*
D03*
X147598D02*
D03*
X151496Y107992D02*
D03*
X147559D02*
D03*
X151614Y104213D02*
D03*
X147677D02*
D03*
X215869Y111343D02*
D03*
X211932D02*
D03*
X215787Y107677D02*
D03*
X211850D02*
D03*
X215787Y100591D02*
D03*
X211850D02*
D03*
X215787Y104134D02*
D03*
X211850D02*
D03*
X215787Y125394D02*
D03*
X211850D02*
D03*
X215787Y121850D02*
D03*
X211850D02*
D03*
X215787Y132480D02*
D03*
X211850D02*
D03*
X215787Y128937D02*
D03*
X211850D02*
D03*
X215787Y114764D02*
D03*
X211850D02*
D03*
X215787Y118307D02*
D03*
X211850D02*
D03*
X156172Y162819D02*
D03*
X152235D02*
D03*
X178613Y161638D02*
D03*
X174676D02*
D03*
X203416Y162031D02*
D03*
X199479D02*
D03*
D19*
X123367Y43591D02*
D03*
Y39654D02*
D03*
X202244Y181091D02*
D03*
Y177154D02*
D03*
X187008Y184331D02*
D03*
Y180394D02*
D03*
X175984Y175433D02*
D03*
Y171496D02*
D03*
X164606Y184449D02*
D03*
Y180512D02*
D03*
X195158Y192902D02*
D03*
Y188965D02*
D03*
X197117Y138409D02*
D03*
Y134472D02*
D03*
X203740Y95315D02*
D03*
Y91378D02*
D03*
X199646Y95354D02*
D03*
Y91417D02*
D03*
X156172Y64000D02*
D03*
Y60063D02*
D03*
X157353Y83685D02*
D03*
Y79748D02*
D03*
X160897Y83685D02*
D03*
Y79748D02*
D03*
X163898Y137953D02*
D03*
Y134016D02*
D03*
X168543Y138031D02*
D03*
Y134095D02*
D03*
X174252Y137913D02*
D03*
Y133976D02*
D03*
X186417Y138268D02*
D03*
Y134331D02*
D03*
X182638Y138150D02*
D03*
Y134213D02*
D03*
X193574Y138409D02*
D03*
Y134472D02*
D03*
X190030Y138409D02*
D03*
Y134472D02*
D03*
X163976Y146260D02*
D03*
Y142323D02*
D03*
X185000Y150469D02*
D03*
Y146531D02*
D03*
X209322Y151008D02*
D03*
Y147071D02*
D03*
X189000Y150469D02*
D03*
Y146531D02*
D03*
D20*
X202059Y218390D02*
D03*
Y212091D02*
D03*
X209922Y218454D02*
D03*
Y212154D02*
D03*
D21*
X174676Y161638D02*
X179794Y166756D01*
X174676Y161638D02*
X174676Y161638D01*
X179794Y166756D02*
X184519D01*
X194232Y193158D02*
X203228D01*
X179724Y193858D02*
X180681Y192902D01*
X195158D01*
X166408Y152135D02*
Y162819D01*
X178416Y150512D02*
Y155240D01*
X147707Y39787D02*
X149135Y41215D01*
X164177D01*
X210716Y41165D02*
X214833D01*
X210109Y40559D02*
X210716Y41165D01*
X155975Y142543D02*
Y147169D01*
X148349Y65460D02*
Y83416D01*
X203219Y139393D02*
Y147169D01*
X214050Y202352D02*
Y218157D01*
X222520Y178532D02*
Y188158D01*
X172772Y61702D02*
X176645Y65575D01*
X105581Y111858D02*
X112483Y104956D01*
X105207Y47267D02*
X109814D01*
X156172Y64000D02*
X158141Y62031D01*
X157353Y84052D02*
X164130Y90828D01*
X155975Y155634D02*
Y161834D01*
X236103Y194870D02*
Y198414D01*
X235709Y198807D02*
Y203138D01*
X234390Y193158D02*
X236103Y194870D01*
X103050Y45111D02*
X105207Y47267D01*
X118278Y47267D02*
X123367D01*
Y43591D02*
Y47267D01*
Y48342D01*
X152629Y76598D02*
X155778Y79748D01*
X197907Y78423D02*
X198298Y78032D01*
Y70224D02*
Y78032D01*
X86290Y106582D02*
Y111858D01*
X112483Y85102D02*
Y104956D01*
X191605Y132504D02*
X193574Y134472D01*
X190030D02*
X191605Y132897D01*
X197117Y132110D02*
Y134472D01*
X82156Y148905D02*
Y152842D01*
X152235Y155634D02*
Y162425D01*
X178613Y155437D02*
Y161244D01*
X174676Y155240D02*
Y161638D01*
X195739Y155634D02*
Y163015D01*
X189243Y158094D02*
Y160063D01*
X203416Y162031D02*
Y169905D01*
X203219Y155634D02*
Y162228D01*
X209250Y193172D02*
Y197551D01*
X222520Y188158D02*
X223288Y187390D01*
X118278Y39787D02*
X147707D01*
X114169Y83416D02*
X148349D01*
X203219Y147169D02*
X209223D01*
X142508Y151679D02*
X150033D01*
X105201Y40064D02*
X108426D01*
X123402Y48543D02*
X124245Y49385D01*
X124128D02*
X124245D01*
X123389Y48645D02*
X124128Y49385D01*
X169948Y61702D02*
X172772D01*
X156172Y59275D02*
Y60063D01*
X158141Y62031D02*
X170739D01*
X149810Y64000D02*
X156172D01*
X148349Y65460D02*
X149810Y64000D01*
X155778Y79748D02*
X156959D01*
X148349Y83416D02*
X157353D01*
X164130Y90828D02*
X165791D01*
X84912Y105204D02*
X86290Y106582D01*
X113734Y105073D02*
X118505D01*
X194755Y129748D02*
X197117Y132110D01*
X155975Y147169D02*
X160503D01*
X82396Y152842D02*
X84244Y154690D01*
X147904Y156224D02*
X148495Y155634D01*
X155778Y162031D02*
X155975Y161834D01*
X156172Y162819D02*
Y164393D01*
X156959Y165181D01*
X164046D02*
X166408Y162819D01*
X156959Y165181D02*
X164046D01*
X203228Y193158D02*
X209236D01*
X209250Y197551D02*
X214050Y202352D01*
X235709Y198807D02*
X236103Y198414D01*
X202122Y218454D02*
X209922D01*
X210218Y218157D02*
X214050D01*
X103050Y42214D02*
X105201Y40064D01*
X123402Y48364D02*
Y48543D01*
X123367Y48342D02*
X123389Y48364D01*
X164944Y65968D02*
Y70114D01*
X169430Y64770D02*
X170739Y66079D01*
Y70224D01*
X166143Y64770D02*
X169430D01*
X164944Y65968D02*
X166143Y64770D01*
X176645Y65575D02*
Y70224D01*
X152629Y72661D02*
Y76598D01*
X112483Y85102D02*
X114169Y83416D01*
X157747Y79748D02*
X160897D01*
X157353D02*
X157747D01*
X157353Y80142D02*
X157747Y79748D01*
X157353Y83685D02*
X160897D01*
X157353Y83416D02*
Y83685D01*
X113050Y104389D02*
X113734Y105073D01*
X112483Y104956D02*
X113050Y104389D01*
X191605Y126505D02*
Y132504D01*
X117196Y141425D02*
X117983D01*
X195247Y146677D02*
X195739Y147169D01*
X189637Y146677D02*
X195247D01*
X209223Y147169D02*
X209322Y147071D01*
X82156Y152842D02*
X82396D01*
X141999Y152189D02*
X142508Y151679D01*
X150678Y152324D02*
Y154076D01*
X152235Y155634D01*
X150033Y151679D02*
X150678Y152324D01*
X178416Y155240D02*
X178613Y155437D01*
X203219Y162228D02*
X203416Y162031D01*
X209236Y193158D02*
X209250Y193172D01*
X202059Y218390D02*
X202122Y218454D01*
X209922D02*
X210218Y218157D01*
X204204Y70224D02*
Y77235D01*
X204606Y77638D01*
X210079Y74519D02*
X210109Y74488D01*
X210079Y74519D02*
Y78071D01*
X210109Y70224D02*
Y74488D01*
X133353Y90748D02*
X133550Y90945D01*
Y88659D02*
Y90945D01*
Y92559D01*
X178613Y161638D02*
X181353Y158898D01*
X190408D01*
X189243Y160063D02*
X190408Y158898D01*
X232638Y182992D02*
Y192489D01*
X233307Y193158D01*
X222520D02*
X233307D01*
X234390D01*
X106614Y15911D02*
Y25433D01*
X102000Y11297D02*
X106614Y15911D01*
X112001Y21297D02*
X114407D01*
X137900Y15397D02*
Y22995D01*
Y15397D02*
X142000Y11297D01*
Y21297D02*
X142163D01*
X106614Y25433D02*
X111428Y30247D01*
X114407Y21297D02*
X121757Y28647D01*
X142163Y21297D02*
X148228Y27362D01*
X137900Y22995D02*
X143867Y28962D01*
X121757Y28647D02*
X141290D01*
X143205Y30562D01*
X111428Y30247D02*
X140627D01*
X142542Y32162D01*
X180581Y25676D02*
Y40559D01*
X177901Y22995D02*
X180581Y25676D01*
X177901Y11399D02*
Y22995D01*
X173699Y7197D02*
X177901Y11399D01*
X148614Y7197D02*
X173699D01*
X148614D02*
Y8885D01*
X147900Y9599D02*
X148614Y8885D01*
X147900Y9599D02*
Y17197D01*
X152000Y21297D01*
X142542Y32162D02*
X163483D01*
X143205Y30562D02*
X164146D01*
X168771Y35187D01*
X143867Y28962D02*
X165256D01*
X148228Y27362D02*
X165919D01*
X174676Y36119D01*
X159885Y25397D02*
X167596D01*
X152000Y11297D02*
X156929Y16226D01*
Y22441D01*
X159885Y25397D01*
X163483Y32162D02*
X166802Y35481D01*
Y40559D01*
X168771Y35187D02*
Y40559D01*
X165256Y28962D02*
X172707Y36413D01*
Y40559D01*
X174676Y36119D02*
Y40559D01*
X167596Y25397D02*
X178613Y36413D01*
Y40559D01*
X207323Y15975D02*
X212000Y11297D01*
X194361Y35293D02*
X200273Y29381D01*
X194361Y35293D02*
Y40559D01*
X196330Y35588D02*
Y40559D01*
X207323Y15975D02*
Y23467D01*
X186487Y34871D02*
X197701Y23658D01*
X188456Y35166D02*
X197440Y26181D01*
X204608D01*
X207323Y23467D01*
X196330Y35588D02*
X200936Y30981D01*
X200267Y34537D02*
Y40559D01*
Y34537D02*
X202222Y32581D01*
X226100Y19460D02*
X232000Y13560D01*
Y11297D02*
Y13560D01*
X202235Y34852D02*
Y40559D01*
Y34852D02*
X218631D01*
X232000Y21482D01*
Y21297D02*
Y21482D01*
X202222Y32581D02*
X217537D01*
X226100Y24018D01*
Y19460D02*
Y24018D01*
X200936Y30981D02*
X212316D01*
X222001Y21297D01*
X200273Y29381D02*
X211496D01*
X216101Y24777D01*
Y17197D02*
X222001Y11297D01*
X216101Y17197D02*
Y24777D01*
X198833Y27781D02*
X208754D01*
X212000Y21297D02*
Y24535D01*
X208754Y27781D02*
X212000Y24535D01*
X190424Y36190D02*
Y40559D01*
Y36190D02*
X198833Y27781D01*
X188456Y35166D02*
Y40559D01*
X186487Y34871D02*
Y40559D01*
X184519Y34577D02*
Y40559D01*
X197701Y23658D02*
X199639D01*
X202000Y21297D01*
X197598Y15699D02*
X202000Y11297D01*
X197598Y15699D02*
Y21497D01*
X184519Y34577D02*
X197598Y21497D01*
X175984Y191102D02*
Y193858D01*
X194528Y188335D02*
X195158Y188965D01*
X194528Y184016D02*
Y188335D01*
X135315Y65197D02*
Y73618D01*
X135387Y73690D01*
X100039Y44094D02*
X102932D01*
X103050Y44213D01*
Y42214D02*
Y44213D01*
Y45111D01*
X204204Y40559D02*
Y48474D01*
X204095Y48583D02*
X204204Y48474D01*
X170739Y40559D02*
Y46030D01*
X182550Y40559D02*
Y47904D01*
X192393Y40559D02*
Y48237D01*
X156102Y56417D02*
Y59993D01*
X156172Y60063D01*
X164331Y79331D02*
X164833Y78828D01*
Y70224D02*
Y78828D01*
X175984Y193858D02*
Y201024D01*
X199479Y138409D02*
X199479Y138409D01*
X200096Y137793D01*
X159252Y100039D02*
X160315Y101102D01*
X215787Y96082D02*
Y97047D01*
X215787Y132480D02*
X215787Y132480D01*
X211063Y113976D02*
X211850Y114764D01*
X211457Y121457D02*
X211850Y121850D01*
X210276Y116732D02*
X211850Y118307D01*
X211850Y132283D02*
Y132480D01*
X215787Y132480D02*
X219443D01*
X210276Y123819D02*
X211850Y125394D01*
X135794Y87283D02*
X146732D01*
X135387Y87690D02*
X135794Y87283D01*
X118505Y105073D02*
X155975Y142543D01*
X155975Y142543D01*
X191605Y126505D02*
X191811Y126299D01*
X194961D02*
Y129542D01*
X194755Y129748D02*
X194961Y129542D01*
X133550Y92559D02*
X141031Y100039D01*
X159252D01*
X200096Y131401D02*
X201142Y130354D01*
X200096Y131401D02*
Y137793D01*
X174252Y137913D02*
Y138645D01*
X166408Y152135D02*
X168032Y150512D01*
X178416D01*
X174252Y137913D02*
Y141024D01*
Y137913D02*
X174252Y137913D01*
X125630Y98150D02*
X127960D01*
X133550Y92559D01*
X150748Y87362D02*
Y93228D01*
X150669Y87283D02*
X150748Y87362D01*
X144567Y119055D02*
X147559D01*
X144370Y118858D02*
X144567Y119055D01*
X144409Y115551D02*
X147598D01*
X144370Y115512D02*
X144409Y115551D01*
X144488Y111890D02*
X147598D01*
X144370Y112008D02*
X144488Y111890D01*
X144567Y107992D02*
X147559D01*
X144370Y108189D02*
X144567Y107992D01*
X144409Y104213D02*
X147677D01*
X144370Y104252D02*
X144409Y104213D01*
D22*
X168736Y193858D02*
X172244D01*
X145149Y170271D02*
X168736Y193858D01*
X179724Y184409D02*
X179803Y184331D01*
X187008D01*
X170739Y155437D02*
Y166496D01*
X176929Y167717D02*
X179724Y170512D01*
X171959Y167717D02*
X176929D01*
X170739Y166496D02*
X171959Y167717D01*
X173189Y175433D02*
X175984D01*
X168646Y170890D02*
X173189Y175433D01*
X154794Y170890D02*
X168646D01*
X165669Y188347D02*
X187992D01*
X164606Y187284D02*
X165669Y188347D01*
X164606Y184449D02*
Y187284D01*
Y184449D02*
X164646Y184409D01*
X172244D01*
X175984Y184409D02*
X175984Y184409D01*
X175984Y175433D02*
Y184409D01*
X179724Y170512D02*
Y184409D01*
X210242Y211028D02*
X210825Y211611D01*
X102000Y211297D02*
X102905D01*
X107957Y216350D01*
X164093D01*
X165484Y214959D01*
X204400D01*
X207205Y212154D01*
X209922D01*
X102000Y201297D02*
X106453Y205749D01*
Y213148D01*
X108455Y215150D01*
X163596D01*
X166655Y212091D01*
X202059D01*
X86290Y141858D02*
Y150677D01*
X107609Y80101D02*
Y97004D01*
X131463Y132720D02*
Y153070D01*
X136048Y131582D02*
Y152537D01*
X199479Y138409D02*
Y155634D01*
X202244Y181091D02*
Y187173D01*
X107609Y80101D02*
X114020Y73690D01*
X105581Y126858D02*
X119558D01*
X136048Y152537D02*
X145149Y161638D01*
X202636Y151008D02*
X209322D01*
X180581Y70224D02*
Y78173D01*
X105581Y116858D02*
X108304Y119580D01*
X124046D02*
X136048Y131582D01*
X120600Y121858D02*
X131463Y132720D01*
X147904Y164393D02*
X151841Y168331D01*
X184912Y150614D02*
X189637D01*
X196239Y150923D02*
X197722Y152407D01*
X189946Y150923D02*
X196239D01*
X112341Y34904D02*
Y42144D01*
X168771Y70224D02*
Y75023D01*
X184519Y70224D02*
Y77386D01*
X192393Y70224D02*
Y77391D01*
X200267Y70224D02*
Y79984D01*
X119558Y126858D02*
X119558Y126858D01*
X147904Y156224D02*
Y164393D01*
X145149Y161638D02*
Y170271D01*
X184912Y150614D02*
X184912Y150614D01*
X189637D02*
X189946Y150923D01*
X201237Y152407D02*
X202636Y151008D01*
X199479Y155634D02*
Y162425D01*
X202244Y187173D02*
X203228Y188158D01*
X202059Y204328D02*
Y212091D01*
X210242Y202131D02*
Y211028D01*
X108304Y119580D02*
X124046D01*
X105581Y121858D02*
X120600D01*
X105581Y141858D02*
X116763D01*
X108426Y43804D02*
X110680D01*
X183942Y64970D02*
X191001D01*
X180581Y78173D02*
X180936Y77819D01*
X178515Y146677D02*
X184912D01*
X131463Y153070D02*
X134912Y156519D01*
X203228Y198158D02*
X206269D01*
X109358Y31921D02*
X112341Y34904D01*
X110680Y43804D02*
X112341Y42144D01*
X182550Y66362D02*
X183942Y64970D01*
X182550Y66362D02*
Y70224D01*
X194361D02*
X194503Y70366D01*
X191001Y64970D02*
X192393Y66362D01*
Y70224D01*
X114020Y73690D02*
X114887D01*
X180936Y77464D02*
Y77819D01*
X192393Y77391D02*
X192403Y77402D01*
X85778Y132370D02*
X86290Y131858D01*
X166408Y130141D02*
Y131323D01*
X105542Y141819D02*
X105581Y141858D01*
X116763D02*
X117196Y141425D01*
X190030Y138409D02*
X190030Y138409D01*
X178416Y146775D02*
X178515Y146677D01*
X178416Y143331D02*
X179007D01*
X178416D02*
Y146775D01*
X170739Y155437D02*
X170936Y155240D01*
X197722Y152407D02*
Y153876D01*
X201237Y152407D02*
Y153876D01*
X199479Y155634D02*
X201237Y153876D01*
X197722Y153876D02*
X199479Y155634D01*
X151841Y168331D02*
X152235D01*
X154794Y170890D01*
X206269Y198158D02*
X210242Y202131D01*
X83568Y114136D02*
X86290Y116858D01*
X81803Y114136D02*
X83568D01*
X57638Y89970D02*
X81803Y114136D01*
X57638Y15660D02*
Y89970D01*
Y15660D02*
X62001Y11297D01*
X76525Y35444D02*
X80047Y31921D01*
X194503Y70366D02*
Y78739D01*
X178613Y70224D02*
Y76505D01*
X176969Y78150D02*
X178613Y76505D01*
X176969Y78150D02*
Y82180D01*
X172913Y86235D02*
X176969Y82180D01*
X175565Y86340D02*
X184519Y77386D01*
X188456Y70224D02*
Y79143D01*
X180866Y86732D02*
X188456Y79143D01*
X83568Y124580D02*
X86290Y121858D01*
X81803Y124580D02*
X83568D01*
X76260Y130124D02*
X81803Y124580D01*
X76260Y130124D02*
Y155315D01*
X106890Y185945D01*
X126648D01*
X142000Y201297D01*
X92252Y126858D02*
X95906Y130512D01*
X86290Y126858D02*
X92252D01*
X145853Y199701D02*
Y200598D01*
X152000Y206746D01*
Y211297D01*
X79717Y131858D02*
X86290D01*
X79717D02*
Y155544D01*
X107928Y183755D01*
X129907D01*
X145853Y199701D01*
X62378Y21297D02*
X76525Y35444D01*
X62001Y21297D02*
X62378D01*
X168032Y75762D02*
Y86339D01*
Y75762D02*
X168771Y75023D01*
X95906Y130512D02*
Y140157D01*
X152000Y196252D01*
Y201297D01*
X99983Y164370D02*
X113819D01*
X197823Y177154D02*
X202244D01*
X80047Y31921D02*
X109358D01*
X86290Y150677D02*
X99983Y164370D01*
X187992Y188347D02*
X190946Y185393D01*
Y167809D02*
Y185393D01*
Y167809D02*
X195739Y163015D01*
X164173Y84252D02*
X166802Y81623D01*
Y70224D02*
Y81623D01*
X190030Y138409D02*
X199479D01*
X186110Y135243D02*
Y135243D01*
X172913Y86235D02*
Y94803D01*
X176063Y86838D02*
Y94803D01*
X175565Y86340D02*
X176063Y86838D01*
X179213Y88386D02*
Y94803D01*
Y88386D02*
X180866Y86732D01*
X185512Y87730D02*
Y94803D01*
Y87730D02*
X194503Y78739D01*
X166408Y131323D02*
X168496Y133410D01*
X165621Y130929D02*
Y132607D01*
X163898Y134331D02*
X165621Y132607D01*
X163898Y138268D02*
X168307D01*
X168543Y138031D01*
X171314Y108952D02*
X172913Y110551D01*
X215787Y97047D02*
X215787Y97047D01*
X215787Y104134D02*
X215787Y104134D01*
X215787Y111221D02*
X215787Y111221D01*
X215787Y97047D02*
X219443D01*
X219443Y107677D02*
X219443Y107677D01*
X215787Y107677D02*
X219443D01*
X215787Y104134D02*
X219443D01*
X215787Y111221D02*
X219443D01*
X219443Y114764D02*
X219443Y114764D01*
X215787Y114764D02*
X219443D01*
Y118307D02*
X219443Y118307D01*
X215787Y118307D02*
X219443D01*
Y121850D02*
X219443Y121850D01*
X215787Y121850D02*
X219443D01*
X215787Y125394D02*
X219443D01*
X215787Y128937D02*
X219443D01*
X219443Y128937D01*
X219443Y100591D02*
X219443Y100591D01*
X215787Y100591D02*
X219443D01*
X174331Y105984D02*
X175866D01*
X172913Y107402D02*
X174331Y105984D01*
X172953Y107402D02*
X175827Y110276D01*
X172913Y107402D02*
X172953D01*
X179646Y110158D02*
X179842Y110354D01*
X168543Y134095D02*
X169685D01*
X171442Y135852D01*
X187062Y118450D02*
X188661Y116850D01*
X172913D02*
Y117203D01*
X178071Y130590D02*
X182362Y126299D01*
X178071Y130590D02*
Y131575D01*
X186969Y104252D02*
X188661D01*
X183740Y107480D02*
X186969Y104252D01*
X183740Y107480D02*
Y109606D01*
X185945Y104252D02*
X186969D01*
X183583Y101890D02*
X185945Y104252D01*
X201260Y106444D02*
Y107402D01*
X199710Y99552D02*
X203740Y95522D01*
Y95315D02*
Y95522D01*
X199646Y95354D02*
Y96368D01*
X201260Y101102D02*
X201391D01*
X205446Y97047D01*
X211850D01*
X173016Y143331D02*
X178416D01*
X171442Y135852D02*
Y141757D01*
X173016Y143331D01*
X171314Y106704D02*
X171353Y106743D01*
Y108060D01*
X171314Y108099D02*
X171353Y108060D01*
X186417Y134331D02*
X187062Y133686D01*
X173858Y133976D02*
X174500Y133335D01*
X172913Y117203D02*
X174500Y118790D01*
X171314Y105852D02*
Y106704D01*
X196511Y99503D02*
X199646Y96368D01*
X151496Y107992D02*
X152468Y108964D01*
X171314Y108099D02*
Y108964D01*
X171314Y112101D02*
X172913Y113701D01*
X151535Y111890D02*
Y112101D01*
X171303Y115311D02*
X172913Y113701D01*
X171364Y118400D02*
X172913Y116850D01*
X151575Y118400D02*
Y119409D01*
X165621Y130929D02*
X166408Y130141D01*
Y126505D02*
X166614Y126299D01*
X166408Y126505D02*
Y130141D01*
X188661Y91589D02*
X200267Y79984D01*
X188661Y91589D02*
Y94803D01*
X142835Y125157D02*
X143292Y124700D01*
X140787Y120346D02*
X142134Y121693D01*
D23*
X213662Y180707D02*
X216885Y177483D01*
X211689Y177691D02*
Y195121D01*
X213662Y180707D02*
Y195396D01*
X222933Y203138D02*
X231772D01*
X172707Y70224D02*
Y76677D01*
X196330Y70224D02*
Y76708D01*
X219726Y203158D02*
X222520D01*
X211689Y195121D02*
X219726Y203158D01*
X174676Y70224D02*
Y80535D01*
X186487Y70224D02*
Y78555D01*
X195748Y77289D02*
Y79778D01*
X190303Y70345D02*
Y79869D01*
X213662Y195396D02*
X216423Y198158D01*
X231772Y203138D02*
X232166D01*
X105857Y131582D02*
X115227D01*
X223169Y198414D02*
X232166D01*
X171133Y78252D02*
X172707Y76677D01*
X195748Y77289D02*
X196330Y76708D01*
X216423Y198158D02*
X222520D01*
X190303Y70345D02*
X190424Y70224D01*
X105581Y131858D02*
X105857Y131582D01*
X211689Y177691D02*
X211741Y177639D01*
X187047Y88479D02*
X195748Y79778D01*
X171133Y78252D02*
Y88298D01*
X182769Y87403D02*
X190303Y79869D01*
X187047Y88479D02*
Y91102D01*
X182769Y87403D02*
Y91207D01*
X176063Y97953D02*
X177663Y96353D01*
Y87380D02*
Y96353D01*
Y87380D02*
X186487Y78555D01*
X179213Y97953D02*
X180812Y96353D01*
Y94147D02*
Y96353D01*
Y94147D02*
X180827Y94132D01*
Y93150D02*
Y94132D01*
Y93150D02*
X182769Y91207D01*
X187047Y91102D02*
X187062Y91117D01*
Y95460D01*
X185512Y97010D02*
X187062Y95460D01*
X185512Y97010D02*
Y97953D01*
X188661Y96995D02*
Y97953D01*
X190197Y93239D02*
X190211Y93253D01*
X188661Y96995D02*
X190211Y95445D01*
Y93253D02*
Y95445D01*
X182362Y97953D02*
X183912Y99503D01*
X226051Y84488D02*
X231496D01*
X224200Y86339D02*
X226051Y84488D01*
X193361Y92623D02*
X199645Y86339D01*
X224200D01*
X182638Y129124D02*
Y134213D01*
X146614Y127717D02*
X161811D01*
X146260Y128071D02*
X146614Y127717D01*
X192913Y99503D02*
X193361Y99055D01*
Y92623D02*
Y99055D01*
X183912Y99503D02*
X192913D01*
X199710Y104894D02*
X201260Y106444D01*
X199710Y99552D02*
Y104894D01*
X190197Y93239D02*
X202235Y81200D01*
Y70224D02*
Y81200D01*
X187062Y118450D02*
Y133686D01*
X196511Y105802D02*
X198110Y107402D01*
X196511Y99503D02*
Y105802D01*
X151457Y104095D02*
X153214Y105852D01*
X171314D01*
X152468Y108964D02*
X171314D01*
X151535Y112101D02*
X171314D01*
X151775Y115311D02*
X171303D01*
X151535Y115551D02*
X151775Y115311D01*
X151575Y118400D02*
X171364D01*
X182638Y129124D02*
X183912Y127849D01*
Y121600D02*
X187062Y118450D01*
X183912Y121600D02*
Y127849D01*
X143292Y124700D02*
X171363D01*
X172913Y123150D01*
X142134Y121693D02*
X165894D01*
X168225Y121611D02*
X169764Y123150D01*
X171363Y96403D02*
X172913Y97953D01*
X171133Y88298D02*
X171363Y88529D01*
Y96403D01*
X165977Y121611D02*
X168225D01*
X165894Y121693D02*
X165977Y121611D01*
D24*
X205965Y137677D02*
D03*
D25*
X207658Y117283D02*
D03*
D26*
X219331Y117795D02*
D03*
D27*
X180768Y118445D02*
D03*
D28*
X186713Y117106D02*
D03*
D29*
X189331Y129291D02*
D03*
D30*
X191713Y126713D02*
D03*
D31*
X184075Y109173D02*
D03*
D32*
X187244Y104272D02*
D03*
D33*
X175709Y110591D02*
D03*
D34*
X173386Y112165D02*
D03*
D35*
X170542Y129972D02*
D03*
D36*
X187638Y134488D02*
D03*
D37*
X178465Y141279D02*
D03*
D38*
X175630Y134567D02*
D03*
D39*
X168972Y133634D02*
D03*
D40*
X203898Y115039D02*
D03*
D41*
X211004Y117106D02*
D03*
D42*
X204468Y104193D02*
D03*
D43*
X190532Y138327D02*
D03*
D44*
X160079Y147362D02*
D03*
D45*
X165118Y140236D02*
D03*
D46*
X168110Y138406D02*
D03*
D47*
X179842Y107618D02*
D03*
D48*
X171516Y101654D02*
D03*
D49*
X147299Y111398D02*
D03*
D50*
X210311Y90984D02*
D03*
D51*
X219662Y114921D02*
D03*
D52*
X201654Y127342D02*
D03*
D53*
X190374Y121555D02*
D03*
D54*
X194838Y115866D02*
D03*
D55*
X191437Y110669D02*
D03*
D56*
X193268Y104252D02*
D03*
D57*
X168071Y141043D02*
D03*
D58*
X190236Y141279D02*
D03*
D59*
X199484Y146390D02*
D03*
D60*
X200354Y143366D02*
D03*
D61*
X231496Y84488D02*
D03*
X125630Y98150D02*
D03*
X12000Y211297D02*
D03*
D62*
X201142Y130354D02*
D03*
X150748Y93228D02*
D03*
X201102Y125000D02*
D03*
D63*
X12000Y201297D02*
D03*
X22000Y211297D02*
D03*
Y201297D02*
D03*
X32000Y211297D02*
D03*
Y201297D02*
D03*
X42000Y211297D02*
D03*
Y201297D02*
D03*
X52000Y211297D02*
D03*
Y201297D02*
D03*
X62000Y211297D02*
D03*
Y201297D02*
D03*
X72000Y211297D02*
D03*
Y201297D02*
D03*
X82000Y211297D02*
D03*
Y201297D02*
D03*
X92000Y211297D02*
D03*
Y201297D02*
D03*
X102000Y211297D02*
D03*
Y201297D02*
D03*
X112000Y211297D02*
D03*
Y201297D02*
D03*
X122000Y211297D02*
D03*
Y201297D02*
D03*
X132000Y211297D02*
D03*
Y201297D02*
D03*
X142000Y211297D02*
D03*
Y201297D02*
D03*
X152000Y211297D02*
D03*
Y201297D02*
D03*
X162000Y211297D02*
D03*
Y201297D02*
D03*
D64*
X201260Y120000D02*
D03*
X194961Y123150D02*
D03*
X198110Y116850D02*
D03*
Y120000D02*
D03*
X194961Y126299D02*
D03*
X191811Y123150D02*
D03*
X194961Y120000D02*
D03*
X191811D02*
D03*
X201260Y113701D02*
D03*
Y116850D02*
D03*
Y110551D02*
D03*
X198110Y113701D02*
D03*
X194961D02*
D03*
Y116850D02*
D03*
X198110Y110551D02*
D03*
X194961D02*
D03*
X191811Y126299D02*
D03*
X188661D02*
D03*
Y123150D02*
D03*
X185512Y126299D02*
D03*
X182362D02*
D03*
X179213D02*
D03*
X185512Y123150D02*
D03*
X182362D02*
D03*
X191811Y116850D02*
D03*
X188661Y120000D02*
D03*
X191811Y110551D02*
D03*
Y113701D02*
D03*
X188661D02*
D03*
Y116850D02*
D03*
Y110551D02*
D03*
X201260Y104252D02*
D03*
Y107402D02*
D03*
X198110D02*
D03*
X194961Y104252D02*
D03*
Y107402D02*
D03*
X201260Y101102D02*
D03*
X198110D02*
D03*
Y104252D02*
D03*
X194961Y101102D02*
D03*
Y94803D02*
D03*
Y97953D02*
D03*
X191811Y107402D02*
D03*
X188661D02*
D03*
X191811Y101102D02*
D03*
Y104252D02*
D03*
X188661D02*
D03*
Y101102D02*
D03*
X185512Y97953D02*
D03*
X191811D02*
D03*
X188661D02*
D03*
X191811Y94803D02*
D03*
X188661D02*
D03*
X185512D02*
D03*
X182362Y97953D02*
D03*
Y94803D02*
D03*
X179213D02*
D03*
X176063Y126299D02*
D03*
X172913D02*
D03*
X176063Y123150D02*
D03*
X169764D02*
D03*
Y126299D02*
D03*
X179213Y123150D02*
D03*
X172913Y120000D02*
D03*
Y110551D02*
D03*
Y116850D02*
D03*
Y123150D02*
D03*
X169764Y120000D02*
D03*
X172913Y113701D02*
D03*
X169764D02*
D03*
X166614Y123150D02*
D03*
Y126299D02*
D03*
X169764Y116850D02*
D03*
X166614Y120000D02*
D03*
X163465D02*
D03*
X160315D02*
D03*
X163465Y116850D02*
D03*
X160315D02*
D03*
X166614Y113701D02*
D03*
Y116850D02*
D03*
X169764Y110551D02*
D03*
X166614D02*
D03*
X163465Y113701D02*
D03*
X160315D02*
D03*
X163465Y110551D02*
D03*
X160315D02*
D03*
X172913Y101102D02*
D03*
Y104252D02*
D03*
X179213Y97953D02*
D03*
X176063D02*
D03*
X172913Y107402D02*
D03*
X169764Y104252D02*
D03*
Y101102D02*
D03*
X172913Y97953D02*
D03*
X169764D02*
D03*
X176063Y94803D02*
D03*
X172913D02*
D03*
X169764D02*
D03*
Y107402D02*
D03*
X166614D02*
D03*
X163465D02*
D03*
X160315Y104252D02*
D03*
Y107402D02*
D03*
X166614Y101102D02*
D03*
Y104252D02*
D03*
Y94803D02*
D03*
Y97953D02*
D03*
X163465Y101102D02*
D03*
Y104252D02*
D03*
X160315Y101102D02*
D03*
D65*
X222001Y21297D02*
D03*
X232000D02*
D03*
X182001D02*
D03*
X212000D02*
D03*
X202000D02*
D03*
Y11297D02*
D03*
X192000Y21297D02*
D03*
X132001D02*
D03*
X142000D02*
D03*
X122001D02*
D03*
X162001D02*
D03*
X172001D02*
D03*
X152000D02*
D03*
X232000Y11297D02*
D03*
X212000D02*
D03*
X222001D02*
D03*
X182001D02*
D03*
X192000D02*
D03*
X172001D02*
D03*
X122001D02*
D03*
X132001D02*
D03*
X112001D02*
D03*
X152000D02*
D03*
X162001D02*
D03*
X142000D02*
D03*
X102000Y21297D02*
D03*
X112001D02*
D03*
X92001D02*
D03*
X72000D02*
D03*
X82000D02*
D03*
X62001D02*
D03*
X42000D02*
D03*
X52000D02*
D03*
X22001D02*
D03*
X32000D02*
D03*
X72000Y11297D02*
D03*
X82000D02*
D03*
X52000D02*
D03*
X62001D02*
D03*
X92001D02*
D03*
X102000D02*
D03*
X32000D02*
D03*
X42000D02*
D03*
X12000D02*
D03*
X22001D02*
D03*
D66*
X12000Y21297D02*
D03*
D67*
X216885Y177483D02*
D03*
X211741Y177639D02*
D03*
X203013Y170625D02*
D03*
X123389Y48364D02*
D03*
X84244Y154690D02*
D03*
X124563Y60583D02*
D03*
X84912Y105204D02*
D03*
X117196Y141425D02*
D03*
X184519Y166756D02*
D03*
X141999Y152189D02*
D03*
X189243Y158094D02*
D03*
X152629Y72661D02*
D03*
X107609Y97004D02*
D03*
X113819Y164370D02*
D03*
X197823Y177154D02*
D03*
X232638Y182992D02*
D03*
X89016Y31653D02*
D03*
X89724Y153740D02*
D03*
X156102Y56417D02*
D03*
D68*
X154991Y41165D02*
D03*
X214833Y41165D02*
D03*
X219443Y114764D02*
D03*
Y132480D02*
D03*
Y128937D02*
D03*
X197907Y78423D02*
D03*
X192403Y77402D02*
D03*
X219443Y100591D02*
D03*
Y97047D02*
D03*
Y107677D02*
D03*
Y104134D02*
D03*
X173630Y62031D02*
D03*
X219443Y125394D02*
D03*
X180936Y77464D02*
D03*
X219443Y111221D02*
D03*
Y118307D02*
D03*
Y121850D02*
D03*
X174676Y80535D02*
D03*
X134912Y156519D02*
D03*
X115227Y131582D02*
D03*
X119558Y126858D02*
D03*
X204606Y77638D02*
D03*
X210079Y78071D02*
D03*
X168032Y86339D02*
D03*
X164173Y84252D02*
D03*
X165791Y90828D02*
D03*
X222520Y178532D02*
D03*
X194528Y184016D02*
D03*
X135315Y65197D02*
D03*
X100039Y44094D02*
D03*
X204095Y48583D02*
D03*
X170787Y47087D02*
D03*
X182550Y47904D02*
D03*
X192393Y48237D02*
D03*
X164331Y79331D02*
D03*
X175984Y201024D02*
D03*
X161811Y127717D02*
D03*
X146181D02*
D03*
X142835Y125157D02*
D03*
X178071Y131575D02*
D03*
X160197Y149291D02*
D03*
X174252Y141024D02*
D03*
X168504Y141425D02*
D03*
X189803Y142165D02*
D03*
X193465D02*
D03*
X197008Y142362D02*
D03*
X140787Y120346D02*
D03*
X144370Y104252D02*
D03*
Y108189D02*
D03*
Y112008D02*
D03*
Y115512D02*
D03*
Y118858D02*
D03*
M02*
