G04 Layer_Physical_Order=1*
G04 Layer_Color=255*
%FSLAX25Y25*%
%MOIN*%
G70*
G01*
G75*
%ADD10O,0.09843X0.02756*%
%ADD11R,0.02600X0.03300*%
%ADD12R,0.01969X0.02362*%
%ADD13R,0.02362X0.01969*%
%ADD14R,0.03937X0.03937*%
%ADD15R,0.02756X0.05118*%
%ADD16R,0.02165X0.05709*%
%ADD17R,0.02165X0.05709*%
%ADD18O,0.00984X0.08709*%
%ADD19R,0.05709X0.02165*%
%ADD20R,0.05709X0.02165*%
%ADD21O,0.03937X0.01181*%
%ADD22R,0.03937X0.01181*%
%ADD23C,0.00600*%
%ADD24C,0.01000*%
%ADD25R,0.12874X0.05000*%
%ADD26R,0.04331X0.12913*%
%ADD27R,0.04095X0.02087*%
%ADD28R,0.02559X0.15197*%
%ADD29R,0.02126X0.22874*%
%ADD30R,0.01978X0.12811*%
%ADD31R,0.17874X0.04291*%
%ADD32R,0.03701X0.02874*%
%ADD33R,0.03386X0.06299*%
%ADD34R,0.07677X0.08189*%
%ADD35R,0.08828X0.10472*%
%ADD36R,0.03425X0.03189*%
%ADD37R,0.05118X0.09803*%
%ADD38R,0.04678X0.51260*%
%ADD39R,0.21734X0.05800*%
%ADD40R,0.02393X0.17126*%
%ADD41R,0.18307X0.02677*%
%ADD42R,0.02756X0.13819*%
%ADD43R,0.03622X0.02402*%
%ADD44R,0.04095X0.06535*%
%ADD45R,0.10158X0.06142*%
%ADD46R,0.18543X0.02795*%
%ADD47R,0.06811X0.01457*%
%ADD48R,0.04213X0.35079*%
%ADD49R,0.06299X0.10630*%
%ADD50R,0.11408X0.04622*%
%ADD51R,0.25197X0.01890*%
%ADD52R,0.02992X0.14370*%
%ADD53R,0.12677X0.01654*%
%ADD54R,0.08676X0.02223*%
%ADD55R,0.02835X0.11969*%
%ADD56R,0.02008X0.02717*%
%ADD57R,0.07017X0.03629*%
%ADD58R,0.05551X0.02717*%
%ADD59R,0.04016X0.45512*%
%ADD60R,0.03976X0.35197*%
%ADD61R,0.07756X0.05591*%
%ADD62C,0.06000*%
%ADD63R,0.06000X0.06000*%
%ADD64C,0.02200*%
%ADD65C,0.04000*%
%ADD66C,0.05906*%
%ADD67R,0.05906X0.05906*%
%ADD68C,0.07500*%
%ADD69C,0.02400*%
%ADD70C,0.03600*%
G36*
X207441Y109331D02*
Y104606D01*
X202716D01*
Y104722D01*
X202578Y104861D01*
X203620Y105903D01*
Y107832D01*
X202323Y109129D01*
Y109724D01*
X207047D01*
X207441Y109331D01*
D02*
G37*
G36*
X187668Y115968D02*
Y115968D01*
X189243Y117543D01*
X187668Y115968D01*
D02*
G37*
D10*
X106846Y111900D02*
D03*
Y116900D02*
D03*
Y121900D02*
D03*
Y126900D02*
D03*
Y131900D02*
D03*
Y136900D02*
D03*
Y141900D02*
D03*
X87554Y111900D02*
D03*
Y116900D02*
D03*
Y121900D02*
D03*
Y126900D02*
D03*
Y131900D02*
D03*
Y136900D02*
D03*
Y141900D02*
D03*
D11*
X127250Y87450D02*
D03*
X133550D02*
D03*
X127250Y81350D02*
D03*
X133550D02*
D03*
D12*
X189000Y146531D02*
D03*
Y150469D02*
D03*
X209322Y147071D02*
D03*
Y151008D02*
D03*
X185000Y146531D02*
D03*
Y150469D02*
D03*
X163976Y142323D02*
D03*
Y146260D02*
D03*
X190030Y134472D02*
D03*
Y138409D02*
D03*
X193574Y134472D02*
D03*
Y138409D02*
D03*
X182638Y134213D02*
D03*
Y138150D02*
D03*
X186417Y134331D02*
D03*
Y138268D02*
D03*
X174252Y133976D02*
D03*
Y137913D02*
D03*
X168543Y134095D02*
D03*
Y138031D02*
D03*
X163898Y134016D02*
D03*
Y137953D02*
D03*
X160897Y79748D02*
D03*
Y83685D02*
D03*
X157353Y79748D02*
D03*
Y83685D02*
D03*
X156172Y60063D02*
D03*
Y64000D02*
D03*
X200400Y90232D02*
D03*
Y94169D02*
D03*
X204095Y90332D02*
D03*
Y94269D02*
D03*
X197117Y134472D02*
D03*
Y138409D02*
D03*
X195158Y188965D02*
D03*
Y192902D02*
D03*
X164606Y180512D02*
D03*
Y184449D02*
D03*
X175984Y171496D02*
D03*
Y175433D02*
D03*
X187008Y180394D02*
D03*
Y184331D02*
D03*
X202244Y177154D02*
D03*
Y181091D02*
D03*
X123367Y39654D02*
D03*
Y43591D02*
D03*
D13*
X199479Y162031D02*
D03*
X203416D02*
D03*
X174676Y161638D02*
D03*
X178613D02*
D03*
X152235Y162819D02*
D03*
X156172D02*
D03*
X211850Y118307D02*
D03*
X215787D02*
D03*
X211850Y114764D02*
D03*
X215787D02*
D03*
X211850Y128937D02*
D03*
X215787D02*
D03*
X211850Y132480D02*
D03*
X215787D02*
D03*
X211850Y121850D02*
D03*
X215787D02*
D03*
X211850Y125394D02*
D03*
X215787D02*
D03*
X211850Y104134D02*
D03*
X215787D02*
D03*
X211850Y100591D02*
D03*
X215787D02*
D03*
X211850Y107677D02*
D03*
X215787D02*
D03*
X211932Y111343D02*
D03*
X215869D02*
D03*
X147677Y104213D02*
D03*
X151614D02*
D03*
X147559Y107992D02*
D03*
X151496D02*
D03*
X147598Y115551D02*
D03*
X151535D02*
D03*
X147598Y111890D02*
D03*
X151535D02*
D03*
X179803Y102598D02*
D03*
X183740D02*
D03*
X179803Y109606D02*
D03*
X183740D02*
D03*
X175866Y105984D02*
D03*
X179803D02*
D03*
X175906Y113228D02*
D03*
X179842D02*
D03*
X147559Y119055D02*
D03*
X151496D02*
D03*
X211850Y97047D02*
D03*
X215787D02*
D03*
X231772Y203138D02*
D03*
X235709D02*
D03*
X232166Y198414D02*
D03*
X236103D02*
D03*
X146732Y87283D02*
D03*
X150669D02*
D03*
X82156Y149299D02*
D03*
X86093D02*
D03*
D14*
X209922Y212154D02*
D03*
Y218454D02*
D03*
X202059Y212091D02*
D03*
Y218390D02*
D03*
D15*
X172244Y193858D02*
D03*
X175984Y184409D02*
D03*
X172244D02*
D03*
X179724D02*
D03*
X175984Y193858D02*
D03*
X179724D02*
D03*
D16*
X195739Y147169D02*
D03*
X199479Y155634D02*
D03*
X195739D02*
D03*
X203219Y147169D02*
D03*
X170905Y146437D02*
D03*
X174646Y154902D02*
D03*
X170905D02*
D03*
X178386Y146437D02*
D03*
X148495Y147169D02*
D03*
X152235Y155634D02*
D03*
X148495D02*
D03*
X155975Y147169D02*
D03*
D17*
X203219Y155634D02*
D03*
X178386Y154902D02*
D03*
X155975Y155634D02*
D03*
D18*
X170739Y40559D02*
D03*
X168771D02*
D03*
X174676D02*
D03*
X172707D02*
D03*
X166802D02*
D03*
X164833D02*
D03*
X180581D02*
D03*
X178613D02*
D03*
X176645D02*
D03*
X184519D02*
D03*
X182550D02*
D03*
X164833Y70224D02*
D03*
X168771D02*
D03*
X166802D02*
D03*
X172707D02*
D03*
X170739D02*
D03*
X176645D02*
D03*
X174676D02*
D03*
X178613D02*
D03*
X184519D02*
D03*
X180581D02*
D03*
X182550D02*
D03*
X196330Y40559D02*
D03*
X194361D02*
D03*
X200267D02*
D03*
X198298D02*
D03*
X188456D02*
D03*
X186487D02*
D03*
X192393D02*
D03*
X190424D02*
D03*
X204204D02*
D03*
X202235D02*
D03*
X208141D02*
D03*
X206172D02*
D03*
X210109D02*
D03*
X186487Y70224D02*
D03*
X190424D02*
D03*
X188456D02*
D03*
X194361D02*
D03*
X192393D02*
D03*
X198298D02*
D03*
X196330D02*
D03*
X204204D02*
D03*
X202235D02*
D03*
X200267D02*
D03*
X210109D02*
D03*
X206172D02*
D03*
X208141D02*
D03*
D19*
X108426Y43804D02*
D03*
Y40064D02*
D03*
X116891D02*
D03*
Y47544D02*
D03*
D20*
X108426Y47544D02*
D03*
D21*
X201740Y198277D02*
D03*
Y195718D02*
D03*
Y193159D02*
D03*
Y190600D02*
D03*
X223000Y198277D02*
D03*
Y195718D02*
D03*
Y193159D02*
D03*
D22*
Y190600D02*
D03*
D23*
X165621Y132110D02*
X166408Y131323D01*
X165621Y132110D02*
Y132607D01*
X72779Y31921D02*
X109358D01*
X72779D02*
X72890Y31810D01*
X62378Y21297D02*
X72890Y31810D01*
X126900Y206197D02*
X132000Y211297D01*
X126900Y196100D02*
Y206197D01*
X124200Y193400D02*
X126900Y196100D01*
X104600Y193400D02*
X124200D01*
X70000Y158800D02*
X104600Y193400D01*
X70000Y120100D02*
Y158800D01*
Y120100D02*
X73200Y116900D01*
X87554D01*
X81803Y124580D02*
X83568D01*
X76260Y130124D02*
X81803Y124580D01*
X166397Y216900D02*
X171206Y212091D01*
X110205Y216900D02*
X166397D01*
X106453Y213148D02*
X110205Y216900D01*
X171206Y212091D02*
X202059D01*
X172441Y214959D02*
X204400D01*
X168200Y219200D02*
X172441Y214959D01*
X109903Y219200D02*
X168200D01*
X102000Y211297D02*
X109903Y219200D01*
X147100Y206397D02*
X152000Y211297D01*
X147100Y199300D02*
Y206397D01*
X131555Y183755D02*
X147100Y199300D01*
X107928Y183755D02*
X131555D01*
X174800Y70700D02*
Y81000D01*
X172700Y77300D02*
Y78300D01*
Y77300D02*
X172707Y77293D01*
Y70224D02*
Y77293D01*
X174500Y70400D02*
X174800Y70700D01*
X176900Y77521D02*
Y78100D01*
X176800Y77421D02*
X176900Y77521D01*
X176800Y77421D02*
X178613Y75608D01*
X180581Y70224D02*
Y76610D01*
X184700Y80000D02*
X184900Y79800D01*
X105581Y121858D02*
X106846D01*
X127700Y128958D02*
Y134700D01*
X120642Y121900D02*
X127700Y128958D01*
X106846Y121900D02*
X120642D01*
X107609Y81400D02*
Y97004D01*
Y81400D02*
X108259Y80750D01*
X127450D01*
X178613Y70224D02*
Y75608D01*
X182800Y76900D02*
X184519Y75181D01*
Y70224D02*
Y75181D01*
X186487Y70224D02*
Y75913D01*
X188100Y77800D02*
X188500Y78200D01*
X190293Y70356D02*
Y79593D01*
X192393Y70224D02*
Y77391D01*
X190293Y79593D02*
X190700Y80000D01*
X196600Y70495D02*
Y77400D01*
X202235Y70224D02*
Y79800D01*
X193922Y79748D02*
X194300D01*
X194493Y70356D02*
Y79177D01*
X200135Y70356D02*
Y77200D01*
X188500Y73000D02*
Y78200D01*
X193922Y79748D02*
X194493Y79177D01*
X194361Y70224D02*
X194493Y70356D01*
X196330Y70224D02*
X196600Y70495D01*
X200135Y70356D02*
X200267Y70224D01*
X188456D02*
X188587Y70356D01*
X174500Y70400D02*
X174676Y70224D01*
X198400Y96169D02*
X200400Y94169D01*
X198400Y96169D02*
Y97613D01*
X204095Y94269D02*
Y95505D01*
X201900Y97700D02*
X204095Y95505D01*
X206753Y97047D02*
X211850D01*
X202698Y101102D02*
X206753Y97047D01*
X201260Y101102D02*
X202698D01*
X151496Y119055D02*
X151682Y118869D01*
X151535Y115551D02*
X151876Y115211D01*
X151535Y111890D02*
X155511D01*
X151496Y107992D02*
X155411D01*
X151614Y104213D02*
X151693Y104134D01*
X186417Y134331D02*
X187062Y133686D01*
X183740Y107480D02*
X186969Y104252D01*
X185945D02*
X186969D01*
X188661D01*
X183583Y101890D02*
X185945Y104252D01*
X171959Y167717D02*
X176929D01*
X170739Y166496D02*
X171959Y167717D01*
X176929D02*
X179724Y170512D01*
Y184409D01*
X166408Y126505D02*
Y130141D01*
Y126505D02*
X166614Y126299D01*
X151535Y111890D02*
Y112101D01*
X172913Y117203D02*
X174500Y118790D01*
X173858Y133976D02*
X174500Y133335D01*
X171442Y141757D02*
X173016Y143331D01*
X171442Y135852D02*
Y141757D01*
X173016Y143331D02*
X178416D01*
X183740Y107480D02*
Y109606D01*
X178071Y130590D02*
Y131575D01*
X172913Y116850D02*
Y117203D01*
X146260Y128071D02*
X146614Y127717D01*
X161811D01*
X169685Y134095D02*
X171442Y135852D01*
X168543Y134095D02*
X169685D01*
X179646Y110158D02*
X179842Y110354D01*
X172913Y107402D02*
X172953D01*
X175827Y110276D01*
X172913Y107402D02*
X174331Y105984D01*
X175866D01*
X215787Y100591D02*
X219443D01*
X219443Y100591D01*
X219443Y128937D02*
X219443Y128937D01*
X215787Y128937D02*
X219443D01*
X215787Y125394D02*
X219443D01*
X215787Y121850D02*
X219443D01*
X219443Y121850D01*
X215787Y118307D02*
X219443D01*
X219443Y118307D01*
X215787Y114764D02*
X219443D01*
X219443Y114764D01*
X215787Y111221D02*
X219443D01*
X215787Y104134D02*
X219443D01*
X215787Y107677D02*
X219443D01*
X219443Y107677D01*
X215787Y97047D02*
X219443D01*
X215787Y111221D02*
X215787Y111221D01*
X215787Y104134D02*
X215787Y104134D01*
Y97047D02*
X215787Y97047D01*
X168307Y138268D02*
X168543Y138031D01*
X163898Y138268D02*
X168307D01*
X163898Y134331D02*
X165621Y132607D01*
X166408Y131323D02*
X168496Y133410D01*
X186110Y135243D02*
Y135243D01*
X190030Y138409D02*
X199479D01*
X166802Y70224D02*
Y81623D01*
X190946Y167809D02*
X195739Y163015D01*
X190946Y167809D02*
Y185393D01*
X187992Y188347D02*
X190946Y185393D01*
X86290Y150677D02*
X99983Y164370D01*
X197823Y177154D02*
X202244D01*
X99983Y164370D02*
X113819D01*
X152000Y196252D02*
Y201297D01*
X95906Y140157D02*
X152000Y196252D01*
X95906Y130512D02*
Y140157D01*
X168032Y75762D02*
X168771Y75023D01*
X168032Y75762D02*
Y86339D01*
X62001Y21297D02*
X62378D01*
X79717Y155544D02*
X107928Y183755D01*
X79717Y131858D02*
Y155544D01*
Y131858D02*
X86290D01*
Y126858D02*
X92252D01*
X95906Y130512D01*
X126648Y185945D02*
X142000Y201297D01*
X106890Y185945D02*
X126648D01*
X76260Y155315D02*
X106890Y185945D01*
X76260Y130124D02*
Y155315D01*
X83568Y124580D02*
X86290Y121858D01*
X211689Y177691D02*
X211741Y177639D01*
X152235Y168331D02*
X154794Y170890D01*
X151841Y168331D02*
X152235D01*
X197722Y153876D02*
X199479Y155634D01*
X201237Y153876D01*
Y152407D02*
Y153876D01*
X197722Y152407D02*
Y153876D01*
X170739Y155437D02*
X170936Y155240D01*
X178416Y143331D02*
Y146775D01*
Y143331D02*
X179007D01*
X178416Y146775D02*
X178515Y146677D01*
X190030Y138409D02*
X190030Y138409D01*
X116763Y141858D02*
X117196Y141425D01*
X105542Y141819D02*
X105581Y141858D01*
Y131858D02*
X105857Y131582D01*
X85778Y132370D02*
X86290Y131858D01*
X192393Y66362D02*
Y70224D01*
X191001Y64970D02*
X192393Y66362D01*
X182550Y66362D02*
Y70224D01*
Y66362D02*
X183942Y64970D01*
X110680Y43804D02*
X112341Y42144D01*
X109358Y31921D02*
X112341Y34904D01*
X178515Y146677D02*
X184912D01*
X183942Y64970D02*
X191001D01*
X108426Y43804D02*
X110680D01*
X105581Y141858D02*
X116763D01*
X105857Y131582D02*
X115227D01*
X108304Y119580D02*
X124046D01*
X231772Y203138D02*
X232166D01*
X210242Y202131D02*
Y211028D01*
X202059Y204328D02*
Y212091D01*
X199479Y155634D02*
Y162425D01*
X201237Y152407D02*
X202636Y151008D01*
X189637Y150614D02*
X189946Y150923D01*
X184912Y150614D02*
X184912Y150614D01*
X145149Y161638D02*
Y170271D01*
X147904Y156224D02*
Y164393D01*
X119558Y126858D02*
X119558Y126858D01*
X168771Y70224D02*
Y75023D01*
X112341Y34904D02*
Y42144D01*
X189946Y150923D02*
X196239D01*
X197722Y152407D01*
X184912Y150614D02*
X189637D01*
X147904Y164393D02*
X151841Y168331D01*
X124046Y119580D02*
X136048Y131582D01*
X105581Y116858D02*
X108304Y119580D01*
X202636Y151008D02*
X209322D01*
X136048Y152537D02*
X145149Y161638D01*
X105581Y126858D02*
X119558D01*
X211689Y177691D02*
Y195121D01*
X199479Y138409D02*
Y155634D01*
X136048Y131582D02*
Y152537D01*
X86290Y141858D02*
Y150677D01*
X106453Y205749D02*
Y213148D01*
X102000Y201297D02*
X106453Y205749D01*
X207205Y212154D02*
X209922D01*
X204400Y214959D02*
X207205Y212154D01*
X210242Y211028D02*
X210825Y211611D01*
X213662Y180707D02*
X216885Y177483D01*
X175984Y175433D02*
Y184409D01*
X175984Y184409D01*
X164646D02*
X172244D01*
X164606Y184449D02*
X164646Y184409D01*
X164606Y184449D02*
Y187284D01*
X165669Y188347D01*
X187992D01*
X154794Y170890D02*
X168646D01*
X173189Y175433D01*
X175984D01*
X170739Y155437D02*
Y166496D01*
X179803Y184331D02*
X187008D01*
X179724Y184409D02*
X179803Y184331D01*
X145149Y170271D02*
X168736Y193858D01*
X172244D01*
X186969Y130591D02*
Y133593D01*
X187062Y133686D01*
X155411Y107992D02*
X155421Y108003D01*
X229470Y195718D02*
X232166Y198414D01*
X223000Y195718D02*
X229470D01*
X217280D02*
X223000D01*
X213662Y192100D02*
X217280Y195718D01*
X213662Y180707D02*
Y192100D01*
X227861Y203138D02*
X231772D01*
X223000Y198277D02*
X227861Y203138D01*
X222439Y197716D02*
X223000Y198277D01*
X214284Y197716D02*
X222439D01*
X211689Y195121D02*
X214284Y197716D01*
X203829Y195718D02*
X210242Y202131D01*
X201740Y195718D02*
X203829D01*
X201740Y198277D02*
Y204009D01*
X202059Y204328D01*
X201740Y190600D02*
X202244Y190096D01*
Y181091D02*
Y190096D01*
X179842Y77349D02*
X180581Y76610D01*
X184900Y77500D02*
Y79800D01*
Y77500D02*
X186487Y75913D01*
X182800Y76900D02*
Y77300D01*
X179842Y77349D02*
Y79500D01*
X164173Y84252D02*
X166802Y81623D01*
X142835Y125157D02*
X143292Y124700D01*
X151682Y118869D02*
X155511D01*
X151876Y115211D02*
X155521D01*
X155511Y111890D02*
X155532Y111911D01*
X151693Y104134D02*
X155300D01*
D24*
X208141Y80741D02*
X210600Y83200D01*
X208141Y70224D02*
Y80741D01*
X215787Y132480D02*
X219443D01*
X215787Y132480D02*
X215787Y132480D01*
X213012Y74488D02*
X214600Y72900D01*
X210109Y74488D02*
X213012D01*
X204204Y62100D02*
Y70224D01*
X210109D02*
Y74488D01*
X208141Y49641D02*
X208800Y50300D01*
X208141Y40559D02*
Y49641D01*
X180581Y36119D02*
Y40559D01*
X169862Y25400D02*
X180581Y36119D01*
X169200Y27000D02*
X178613Y36413D01*
X150500Y27000D02*
X169200D01*
X147300Y23800D02*
X150500Y27000D01*
X158100Y25400D02*
X169862D01*
X154000Y21300D02*
X158100Y25400D01*
X152000Y21300D02*
X154000D01*
X139335Y30247D02*
X142487Y33400D01*
X140347Y28647D02*
X143500Y31800D01*
X137600Y23500D02*
X144300Y30200D01*
X142163Y21297D02*
X149466Y28600D01*
X167157D01*
X174676Y36119D01*
X144300Y30200D02*
X166494D01*
X172707Y36413D01*
X143500Y31800D02*
X165384D01*
X142487Y33400D02*
X164721D01*
X166802Y35481D01*
X165384Y31800D02*
X168771Y35187D01*
X147300Y16000D02*
Y23800D01*
Y16000D02*
X152000Y11300D01*
X152000Y11297D02*
X152002Y11298D01*
X133550Y87450D02*
X133717Y87283D01*
X196100Y22996D02*
X197598Y21497D01*
Y15699D02*
Y21497D01*
X184519Y34577D02*
X193696Y25400D01*
X184519Y34577D02*
Y40559D01*
X197443Y26181D02*
X204608D01*
X195024Y28600D02*
X197443Y26181D01*
X195021Y28600D02*
X195024D01*
X188456Y35166D02*
X195021Y28600D01*
X197700Y23658D02*
X197701Y23658D01*
X197700Y23658D02*
Y23661D01*
X194361Y27000D02*
X197700Y23661D01*
X194358Y27000D02*
X194361D01*
X186487Y34871D02*
X194358Y27000D01*
X196100Y22996D02*
Y22998D01*
X193698Y25400D02*
X196100Y22998D01*
X193696Y25400D02*
X193698D01*
X137600Y15697D02*
Y23500D01*
Y15697D02*
X142000Y11297D01*
X121757Y28647D02*
X140347D01*
X111428Y30247D02*
X139335D01*
X148349Y65460D02*
Y84100D01*
X123384D02*
X148349D01*
X122700Y83416D02*
X123384Y84100D01*
X133750Y75682D02*
Y80750D01*
X114169Y83416D02*
X122700D01*
X126134Y86850D01*
X127450D01*
X198080Y62031D02*
X198298Y62249D01*
Y70224D01*
X172772Y61702D02*
X176645Y65575D01*
X160600Y180200D02*
X160912Y180512D01*
X164606D01*
X179724Y193858D02*
X180300Y194434D01*
Y201297D01*
X174788Y170300D02*
X175984Y171496D01*
X172700Y170300D02*
X174788D01*
X186600Y179986D02*
X187008Y180394D01*
X186600Y177154D02*
Y179986D01*
X176645Y40559D02*
Y47745D01*
X198298Y40559D02*
Y48963D01*
X144370Y104252D02*
X144409Y104213D01*
X147677D01*
X144567Y107992D02*
X147559D01*
X144409Y115551D02*
X147598D01*
X144567Y119055D02*
X147559D01*
X150669Y87283D02*
X150748Y87362D01*
Y93228D01*
X127960Y98150D02*
X133550Y92559D01*
X125630Y98150D02*
X127960D01*
X174252Y137913D02*
X174252Y137913D01*
X174252Y137913D02*
Y141024D01*
X168032Y150512D02*
X178416D01*
X166408Y152135D02*
X168032Y150512D01*
X174252Y137913D02*
Y138645D01*
X200096Y131401D02*
Y137793D01*
Y131401D02*
X201142Y130354D01*
X141031Y100039D02*
X159252D01*
X133550Y92559D02*
X141031Y100039D01*
X194755Y129748D02*
X194961Y129542D01*
Y126299D02*
Y129542D01*
X191605Y126505D02*
X191811Y126299D01*
X118505Y105073D02*
X155975Y142543D01*
X133717Y87283D02*
X146732D01*
X210276Y123819D02*
X211850Y125394D01*
Y132283D02*
Y132480D01*
X210276Y116732D02*
X211850Y118307D01*
X211457Y121457D02*
X211850Y121850D01*
X211063Y113976D02*
X211850Y114764D01*
X215787Y96082D02*
Y97047D01*
X159252Y100039D02*
X160315Y101102D01*
X199479Y138409D02*
X200096Y137793D01*
X199479Y138409D02*
X199479Y138409D01*
X175984Y193858D02*
Y201024D01*
X164833Y70224D02*
Y78828D01*
X164331Y79331D02*
X164833Y78828D01*
X156102Y59993D02*
X156172Y60063D01*
X156102Y56417D02*
Y59993D01*
X192393Y40559D02*
Y48237D01*
X182550Y40559D02*
Y47904D01*
X170739Y40559D02*
Y48200D01*
X204095Y48583D02*
X204204Y48474D01*
Y40559D02*
Y48474D01*
X103050Y44213D02*
Y45111D01*
Y42214D02*
Y44213D01*
X102932Y44094D02*
X103050Y44213D01*
X100039Y44094D02*
X102932D01*
X194528Y184016D02*
Y188335D01*
X195158Y188965D01*
X175984Y191102D02*
Y193858D01*
X197598Y15699D02*
X202000Y11297D01*
X199639Y23658D02*
X202000Y21297D01*
X197701Y23658D02*
X199639D01*
X186487Y34871D02*
Y40559D01*
X188456Y35166D02*
Y40559D01*
X190424Y36190D02*
X198833Y27781D01*
X190424Y36190D02*
Y40559D01*
X208754Y27781D02*
X212000Y24535D01*
Y21297D02*
Y24535D01*
X198833Y27781D02*
X208754D01*
X216101Y17197D02*
Y24777D01*
Y17197D02*
X222001Y11297D01*
X211496Y29381D02*
X216101Y24777D01*
X200273Y29381D02*
X211496D01*
X212316Y30981D02*
X222001Y21297D01*
X200936Y30981D02*
X212316D01*
X226100Y19460D02*
Y24018D01*
X217537Y32581D02*
X226100Y24018D01*
X202222Y32581D02*
X217537D01*
X232000Y21297D02*
Y21482D01*
X218631Y34852D02*
X232000Y21482D01*
X202235Y34852D02*
X218631D01*
X202235D02*
Y40559D01*
X232000Y11297D02*
Y13560D01*
X226100Y19460D02*
X232000Y13560D01*
X200267Y34537D02*
X202222Y32581D01*
X200267Y34537D02*
Y40559D01*
X196330Y35588D02*
X200936Y30981D01*
X204608Y26181D02*
X207323Y23467D01*
Y15975D02*
Y23467D01*
X196330Y35588D02*
Y40559D01*
X194361Y35293D02*
Y40559D01*
Y35293D02*
X200273Y29381D01*
X207323Y15975D02*
X212000Y11297D01*
X178613Y36413D02*
Y40559D01*
X174676Y36119D02*
Y40559D01*
X172707Y36413D02*
Y40559D01*
X168771Y35187D02*
Y40559D01*
X166802Y35481D02*
Y40559D01*
X114407Y21297D02*
X121757Y28647D01*
X106614Y25433D02*
X111428Y30247D01*
X142000Y21297D02*
X142163D01*
X112001D02*
X114407D01*
X102000Y11297D02*
X106614Y15911D01*
Y25433D01*
X233307Y193158D02*
X234390D01*
X222520D02*
X233307D01*
X232638Y192489D02*
X233307Y193158D01*
X232638Y182992D02*
Y192489D01*
X181353Y158898D02*
X189243D01*
X178613Y161638D02*
X181353Y158898D01*
X133550Y90945D02*
Y92559D01*
Y88659D02*
Y90945D01*
X133353Y90748D02*
X133550Y90945D01*
X209922Y218454D02*
X210218Y218157D01*
X202059Y218390D02*
X202122Y218454D01*
X203219Y162228D02*
X203416Y162031D01*
X178416Y155240D02*
X178613Y155437D01*
X150033Y151679D02*
X150678Y152324D01*
Y154076D02*
X152235Y155634D01*
X150678Y152324D02*
Y154076D01*
X141999Y152189D02*
X142508Y151679D01*
X82156Y152842D02*
X82396D01*
X209223Y147169D02*
X209322Y147071D01*
X189637Y146677D02*
X195247D01*
X195739Y147169D01*
X117196Y141425D02*
X117983D01*
X191605Y126505D02*
Y132504D01*
X112483Y104956D02*
X113050Y104389D01*
X113734Y105073D01*
X157353Y83416D02*
Y83685D01*
X160897D01*
X157353Y80142D02*
X157747Y79748D01*
X157353D02*
X157747D01*
X160897D01*
X112483Y85102D02*
X114169Y83416D01*
X152629Y72661D02*
Y76598D01*
X176645Y65575D02*
Y70224D01*
X164944Y65968D02*
X166143Y64770D01*
X169430D01*
X170739Y66079D02*
Y70224D01*
X169430Y64770D02*
X170739Y66079D01*
X164944Y65968D02*
Y70114D01*
X123367Y48342D02*
X123389Y48364D01*
X123402D02*
Y48543D01*
X103050Y42214D02*
X105201Y40064D01*
X210218Y218157D02*
X214050D01*
X202122Y218454D02*
X209922D01*
X235709Y198807D02*
X236103Y198414D01*
X156959Y165181D02*
X164046D01*
X166408Y162819D01*
X156172Y164393D02*
X156959Y165181D01*
X156172Y162819D02*
Y164393D01*
X155778Y162031D02*
X155975Y161834D01*
X147904Y156224D02*
X148495Y155634D01*
X155975Y147169D02*
X160503D01*
X194755Y129748D02*
X197117Y132110D01*
X113734Y105073D02*
X118505D01*
X84912Y105204D02*
X86290Y106582D01*
X164130Y90828D02*
X165791D01*
X148349Y83416D02*
X157353D01*
X155778Y79748D02*
X156959D01*
X148349Y65460D02*
X149810Y64000D01*
X156172D01*
X158141Y62031D02*
X170739D01*
X156172Y59275D02*
Y60063D01*
X169948Y61702D02*
X172772D01*
X123389Y48645D02*
X124128Y49385D01*
X124245D01*
X123402Y48543D02*
X124245Y49385D01*
X105201Y40064D02*
X108426D01*
X142508Y151679D02*
X150033D01*
X203219Y147169D02*
X209223D01*
X118278Y39787D02*
X147707D01*
X203219Y155634D02*
Y162228D01*
X203416Y162031D02*
Y169905D01*
X195739Y155634D02*
Y163015D01*
X174676Y155240D02*
Y161638D01*
X178613Y155437D02*
Y161244D01*
X152235Y155634D02*
Y162425D01*
X82156Y148905D02*
Y152842D01*
X197117Y132110D02*
Y134472D01*
X190030Y134472D02*
X191605Y132897D01*
Y132504D02*
X193574Y134472D01*
X112483Y85102D02*
Y104956D01*
X86290Y106582D02*
Y111858D01*
X152629Y76598D02*
X155778Y79748D01*
X123367Y47267D02*
Y48342D01*
Y43591D02*
Y47267D01*
X118278D02*
X123367D01*
X103050Y45111D02*
X105207Y47267D01*
X234390Y193158D02*
X236103Y194870D01*
X235709Y198807D02*
Y203138D01*
X236103Y194870D02*
Y198414D01*
X155975Y155634D02*
Y161834D01*
X157353Y84052D02*
X164130Y90828D01*
X156172Y64000D02*
X158141Y62031D01*
X105207Y47267D02*
X109814D01*
X214050Y201208D02*
Y218157D01*
X203219Y139393D02*
Y147169D01*
X155975Y142543D02*
Y147169D01*
X210109Y40559D02*
X210716Y41165D01*
X214833D01*
X149135Y41215D02*
X164177D01*
X147707Y39787D02*
X149135Y41215D01*
X178416Y150512D02*
Y155240D01*
X166408Y152135D02*
Y162819D01*
X180681Y192902D02*
X195158D01*
X179724Y193858D02*
X180681Y192902D01*
X179794Y166756D02*
X184519D01*
X174676Y161638D02*
X174676Y161638D01*
X179794Y166756D01*
X144488Y111890D02*
X147598D01*
X206000Y193158D02*
X214050Y201208D01*
X194232Y193158D02*
X206000D01*
X222520Y190120D02*
X223000Y190600D01*
X222520Y178532D02*
Y190120D01*
X99940Y96740D02*
X110320Y107120D01*
X105581Y111858D02*
X110320Y107120D01*
X112483Y104956D01*
X82396Y152842D02*
X84244Y154690D01*
X144370Y108189D02*
X144567Y107992D01*
X144370Y112008D02*
X144488Y111890D01*
X144370Y118858D02*
X144567Y119055D01*
X144370Y115512D02*
X144409Y115551D01*
X234080Y129430D02*
Y133820D01*
X222600Y145300D02*
X234080Y133820D01*
X222100Y144800D02*
X222600Y145300D01*
X214700Y144800D02*
X222100D01*
X206900Y137000D02*
X214700Y144800D01*
X206900Y136100D02*
Y137000D01*
X71460Y96740D02*
X99940D01*
X58800Y109400D02*
X71460Y96740D01*
X58800Y109400D02*
Y152110D01*
X57180Y153730D02*
X58800Y152110D01*
D25*
X180768Y118445D02*
D03*
D26*
X173386Y112165D02*
D03*
D27*
X187244Y104272D02*
D03*
D28*
X184075Y109173D02*
D03*
D29*
X200354Y143366D02*
D03*
D30*
X199484Y146390D02*
D03*
D31*
X190236Y141279D02*
D03*
D32*
X168071Y141043D02*
D03*
D33*
X193268Y104252D02*
D03*
D34*
X191437Y110669D02*
D03*
D35*
X194838Y115866D02*
D03*
D36*
X190374Y121555D02*
D03*
D37*
X201654Y127342D02*
D03*
D38*
X219662Y114921D02*
D03*
D39*
X211134Y88600D02*
D03*
D40*
X147299Y111398D02*
D03*
D41*
X171516Y101654D02*
D03*
D42*
X179842Y107618D02*
D03*
D43*
X168110Y138406D02*
D03*
D44*
X165118Y140236D02*
D03*
D45*
X160079Y147362D02*
D03*
D46*
X190532Y138327D02*
D03*
D47*
X204468Y104193D02*
D03*
D48*
X211004Y117106D02*
D03*
D49*
X203898Y115039D02*
D03*
D50*
X168972Y133634D02*
D03*
D51*
X175630Y134567D02*
D03*
D52*
X178465Y141279D02*
D03*
D53*
X187638Y134488D02*
D03*
D54*
X170338Y130211D02*
D03*
D55*
X175709Y110591D02*
D03*
D56*
X191713Y126713D02*
D03*
D57*
X189208Y129885D02*
D03*
D58*
X186713Y117106D02*
D03*
D59*
X219331Y117795D02*
D03*
D60*
X207658Y117283D02*
D03*
D61*
X205965Y137677D02*
D03*
D62*
X22000Y11300D02*
D03*
Y21300D02*
D03*
X112000Y11300D02*
D03*
X122000Y21300D02*
D03*
X112000D02*
D03*
X222000D02*
D03*
X232000Y11300D02*
D03*
X192000Y21300D02*
D03*
X122000Y11300D02*
D03*
X132000Y21300D02*
D03*
X102000Y11300D02*
D03*
X32000D02*
D03*
Y21300D02*
D03*
X162000Y11300D02*
D03*
Y21300D02*
D03*
X172000D02*
D03*
X182000D02*
D03*
X172000Y11300D02*
D03*
X182000D02*
D03*
X192000D02*
D03*
X202000D02*
D03*
Y21300D02*
D03*
X212000Y11300D02*
D03*
Y21300D02*
D03*
X222000Y11300D02*
D03*
X232000Y21300D02*
D03*
X152000Y11300D02*
D03*
Y21300D02*
D03*
X142000D02*
D03*
Y11300D02*
D03*
X52000D02*
D03*
X42000D02*
D03*
Y21300D02*
D03*
X52000D02*
D03*
X132000Y11300D02*
D03*
X92000D02*
D03*
X72000Y21300D02*
D03*
X102000D02*
D03*
X62000Y11300D02*
D03*
X72000D02*
D03*
X62000Y21300D02*
D03*
X82000D02*
D03*
Y11300D02*
D03*
X92000Y21300D02*
D03*
X12000Y11300D02*
D03*
D63*
Y21300D02*
D03*
D64*
X194961Y94803D02*
D03*
X166614Y126299D02*
D03*
X169764D02*
D03*
X172913D02*
D03*
X176063D02*
D03*
X179213D02*
D03*
X182362D02*
D03*
X185512D02*
D03*
X188661D02*
D03*
X191811D02*
D03*
X194961D02*
D03*
X166614Y123150D02*
D03*
X169764D02*
D03*
X172913D02*
D03*
X176063D02*
D03*
X179213D02*
D03*
X182362D02*
D03*
X185512D02*
D03*
X188661D02*
D03*
X191811D02*
D03*
X194961D02*
D03*
X160315Y120000D02*
D03*
X163465D02*
D03*
X166614D02*
D03*
X169764D02*
D03*
X172913D02*
D03*
X188661D02*
D03*
X191811D02*
D03*
X194961D02*
D03*
X198110D02*
D03*
X201260D02*
D03*
X160315Y116850D02*
D03*
X163465D02*
D03*
X166614D02*
D03*
X169764D02*
D03*
X172913D02*
D03*
X188661D02*
D03*
X191811D02*
D03*
X194961D02*
D03*
X198110D02*
D03*
X201260D02*
D03*
X160315Y113701D02*
D03*
X163465D02*
D03*
X166614D02*
D03*
X169764D02*
D03*
X172913D02*
D03*
X188661D02*
D03*
X191811D02*
D03*
X194961D02*
D03*
X198110D02*
D03*
X201260D02*
D03*
X160315Y110551D02*
D03*
X163465D02*
D03*
X166614D02*
D03*
X169764D02*
D03*
X172913D02*
D03*
X188661D02*
D03*
X191811D02*
D03*
X194961D02*
D03*
X198110D02*
D03*
X201260D02*
D03*
X160315Y107402D02*
D03*
X163465D02*
D03*
X166614D02*
D03*
X169764D02*
D03*
X172913D02*
D03*
X188661D02*
D03*
X191811D02*
D03*
X194961D02*
D03*
X198110D02*
D03*
X201260D02*
D03*
X160315Y104252D02*
D03*
X163465D02*
D03*
X166614D02*
D03*
X169764D02*
D03*
X172913D02*
D03*
X188661D02*
D03*
X191811D02*
D03*
X194961D02*
D03*
X198110D02*
D03*
X201260D02*
D03*
X160315Y101102D02*
D03*
X163465D02*
D03*
X166614D02*
D03*
X169764D02*
D03*
X172913D02*
D03*
X188661D02*
D03*
X191811D02*
D03*
X194961D02*
D03*
X198110D02*
D03*
X201260D02*
D03*
X166614Y97953D02*
D03*
X169764D02*
D03*
X172913D02*
D03*
X176063D02*
D03*
X179213D02*
D03*
X182362D02*
D03*
X185512D02*
D03*
X188661D02*
D03*
X191811D02*
D03*
X194961D02*
D03*
X166614Y94803D02*
D03*
X169764D02*
D03*
X172913D02*
D03*
X176063D02*
D03*
X179213D02*
D03*
X182362D02*
D03*
X185512D02*
D03*
X188661D02*
D03*
X191811D02*
D03*
D65*
X201102Y125000D02*
D03*
X150748Y93228D02*
D03*
X201142Y130354D02*
D03*
D66*
X162000Y201297D02*
D03*
Y211297D02*
D03*
X152000Y201297D02*
D03*
Y211297D02*
D03*
X142000Y201297D02*
D03*
Y211297D02*
D03*
X132000Y201297D02*
D03*
Y211297D02*
D03*
X122000Y201297D02*
D03*
Y211297D02*
D03*
X112000Y201297D02*
D03*
Y211297D02*
D03*
X102000Y201297D02*
D03*
Y211297D02*
D03*
X92000Y201297D02*
D03*
Y211297D02*
D03*
X82000Y201297D02*
D03*
Y211297D02*
D03*
X72000Y201297D02*
D03*
Y211297D02*
D03*
X62000Y201297D02*
D03*
Y211297D02*
D03*
X52000Y201297D02*
D03*
Y211297D02*
D03*
X42000Y201297D02*
D03*
Y211297D02*
D03*
X32000Y201297D02*
D03*
Y211297D02*
D03*
X22000Y201297D02*
D03*
Y211297D02*
D03*
X12000Y201297D02*
D03*
D67*
Y211297D02*
D03*
X125630Y98150D02*
D03*
X232400Y80700D02*
D03*
X235900Y174300D02*
D03*
Y150000D02*
D03*
D68*
X58280Y74630D02*
D03*
X234080Y129430D02*
D03*
X234980Y107730D02*
D03*
X58480Y154130D02*
D03*
D69*
X210600Y83200D02*
D03*
X219443Y132480D02*
D03*
Y125394D02*
D03*
X214600Y72900D02*
D03*
X204204Y62100D02*
D03*
X208800Y50300D02*
D03*
X172700Y78300D02*
D03*
X174800Y81000D02*
D03*
X176900Y78100D02*
D03*
X184700Y80000D02*
D03*
X127700Y134700D02*
D03*
X133750Y75682D02*
D03*
X178520Y136500D02*
D03*
X188100Y77800D02*
D03*
X192393Y77391D02*
D03*
X190700Y80000D02*
D03*
X196600Y77400D02*
D03*
X202235Y79800D02*
D03*
X194300Y79748D02*
D03*
X200135Y77200D02*
D03*
X198080Y62031D02*
D03*
X201900Y97700D02*
D03*
X198400Y97613D02*
D03*
X191693Y130591D02*
D03*
X186969D02*
D03*
X180300Y201297D02*
D03*
X160600Y180200D02*
D03*
X172700Y170300D02*
D03*
X186600Y177154D02*
D03*
X170700Y48200D02*
D03*
X176645Y47745D02*
D03*
X198298Y48963D02*
D03*
X144370Y104252D02*
D03*
X197008Y142362D02*
D03*
X193465Y142165D02*
D03*
X189803D02*
D03*
X168504Y141425D02*
D03*
X174252Y141024D02*
D03*
X160197Y149291D02*
D03*
X178071Y131575D02*
D03*
X146181Y127717D02*
D03*
X161811D02*
D03*
X175984Y201024D02*
D03*
X164331Y79331D02*
D03*
X192393Y48237D02*
D03*
X182550Y47904D02*
D03*
X204095Y48583D02*
D03*
X100039Y44094D02*
D03*
X194528Y184016D02*
D03*
X222520Y178532D02*
D03*
X165791Y90828D02*
D03*
X168032Y86339D02*
D03*
X119558Y126858D02*
D03*
X115227Y131582D02*
D03*
X219443Y121850D02*
D03*
Y118307D02*
D03*
Y111221D02*
D03*
X173630Y62031D02*
D03*
X219443Y104134D02*
D03*
Y107677D02*
D03*
Y97047D02*
D03*
Y100591D02*
D03*
Y128937D02*
D03*
Y114764D02*
D03*
X214833Y41165D02*
D03*
X154991Y41165D02*
D03*
X155421Y108003D02*
D03*
X182800Y77300D02*
D03*
X179842Y79500D02*
D03*
X164173Y84252D02*
D03*
X142835Y125157D02*
D03*
X144370Y108189D02*
D03*
Y112008D02*
D03*
X155511Y118869D02*
D03*
X140787Y120346D02*
D03*
X155521Y115211D02*
D03*
X155532Y111911D02*
D03*
X155300Y104134D02*
D03*
X144370Y118858D02*
D03*
Y115512D02*
D03*
D70*
X156102Y56417D02*
D03*
X89724Y153740D02*
D03*
X89016Y31653D02*
D03*
X232638Y182992D02*
D03*
X197823Y177154D02*
D03*
X113819Y164370D02*
D03*
X107609Y97004D02*
D03*
X152629Y72661D02*
D03*
X189243Y158094D02*
D03*
X141999Y152189D02*
D03*
X184519Y166756D02*
D03*
X117196Y141425D02*
D03*
X84912Y105204D02*
D03*
X124563Y60583D02*
D03*
X123389Y48364D02*
D03*
X203013Y170625D02*
D03*
X211741Y177639D02*
D03*
X216885Y177483D02*
D03*
X84244Y154690D02*
D03*
M02*
