G04 Layer_Color=65535*
%FSLAX25Y25*%
%MOIN*%
G70*
G01*
G75*
%ADD23C,0.00600*%
%ADD85C,0.00984*%
%ADD86C,0.00787*%
%ADD87C,0.00394*%
%ADD88C,0.02362*%
%ADD89C,0.00100*%
%ADD90C,0.00500*%
%ADD91C,0.00800*%
%ADD92C,0.00200*%
D23*
X233500Y58697D02*
Y62000D01*
X231000Y64500D02*
X233500Y62000D01*
X228500Y64500D02*
X231000D01*
X221000Y45000D02*
X231500D01*
X182000Y117000D02*
X184000D01*
X186000Y113228D02*
Y115000D01*
X184000Y117000D02*
X186000Y115000D01*
X175000Y100000D02*
X186000D01*
X188000Y153500D02*
X191000D01*
X191750Y152750D01*
Y150469D02*
Y152750D01*
X182500Y152500D02*
X183500Y153500D01*
X184912D01*
X182500Y150050D02*
Y152500D01*
X181800Y131500D02*
X182918D01*
X179213Y134087D02*
X181800Y131500D01*
X179213Y134087D02*
Y136500D01*
X195244Y132244D02*
X199094D01*
X201000Y134150D01*
Y136000D01*
Y135000D02*
Y140898D01*
X201102Y141000D01*
X215000D01*
X217500Y143500D01*
Y157500D01*
X214500D02*
X232638D01*
X212000Y160000D02*
X214500Y157500D01*
X212000Y160000D02*
Y173000D01*
X160782Y71965D02*
X160366Y71549D01*
Y70716D01*
X160782Y70299D01*
X162449D01*
X162865Y70716D01*
Y71549D01*
X162449Y71965D01*
X160782Y72798D02*
X160366Y73215D01*
Y74048D01*
X160782Y74464D01*
X161199D01*
X161615Y74048D01*
Y73631D01*
Y74048D01*
X162032Y74464D01*
X162449D01*
X162865Y74048D01*
Y73215D01*
X162449Y72798D01*
X162865Y76547D02*
X160366D01*
X161615Y75297D01*
Y76964D01*
D85*
X236392Y158071D02*
G03*
X236392Y158071I-492J0D01*
G01*
Y182371D02*
G03*
X236392Y182371I-492J0D01*
G01*
X221462Y187273D02*
G03*
X221462Y187273I-492J0D01*
G01*
X216262Y191093D02*
G03*
X216262Y191093I-492J0D01*
G01*
X232892Y72629D02*
G03*
X232892Y72629I-492J0D01*
G01*
X126122Y106220D02*
G03*
X126122Y106220I-492J0D01*
G01*
X213259Y68724D02*
G03*
X213259Y68724I-492J0D01*
G01*
X183760Y193858D02*
G03*
X183760Y193858I-492J0D01*
G01*
X124662Y78980D02*
G03*
X124662Y78980I-492J0D01*
G01*
X107338Y108357D02*
G03*
X107338Y108357I-492J0D01*
G01*
D86*
X213010Y189321D02*
G03*
X211730Y189321I-640J0D01*
G01*
X230388Y155512D02*
X241412D01*
X241412Y144488D02*
Y155512D01*
X230388Y144488D02*
X241412D01*
X230388Y144488D02*
Y155512D01*
Y179812D02*
X241412D01*
X241412Y168788D02*
Y179812D01*
X230388Y168788D02*
X241412D01*
X230388Y168788D02*
Y179812D01*
X213010Y189321D02*
X217744D01*
X206996D02*
X211730D01*
X206996D02*
Y199557D01*
X217744D01*
Y189321D02*
Y199557D01*
X226888Y75188D02*
X237912D01*
X226888Y75188D02*
Y86212D01*
X237912D01*
X237912Y75188D02*
Y86212D01*
X120118Y103661D02*
X131142D01*
X131142Y92638D02*
Y103661D01*
X120118Y92638D02*
X131142D01*
X120118Y92638D02*
Y103661D01*
X167000Y196297D02*
Y216297D01*
X7000Y196297D02*
Y216297D01*
Y196297D02*
X167000D01*
X7000Y216297D02*
X167000D01*
X116202Y49709D02*
Y49906D01*
X109115D02*
X116202D01*
Y37701D02*
Y37898D01*
X109115Y37701D02*
Y37898D01*
Y49709D02*
Y49906D01*
Y37701D02*
X116202D01*
X158141Y154945D02*
X158337D01*
Y147858D02*
Y154945D01*
X158141Y147858D02*
X158337D01*
X146133Y154945D02*
X146330D01*
X146133Y147858D02*
X146330D01*
X146133D02*
Y154945D01*
X211290Y46224D02*
Y64295D01*
X163652D02*
X211290D01*
X163652Y46224D02*
X211290D01*
X163652D02*
Y64295D01*
X180551Y154213D02*
X180748D01*
Y147126D02*
Y154213D01*
X180551Y147126D02*
X180748D01*
X168543Y154213D02*
X168740D01*
X168543Y147126D02*
X168740D01*
X168543D02*
Y154213D01*
X205385Y154945D02*
X205581D01*
Y147858D02*
Y154945D01*
X205385Y147858D02*
X205581D01*
X193377Y154945D02*
X193574D01*
X193377Y147858D02*
X193574D01*
X193377D02*
Y154945D01*
X182087Y188543D02*
Y189724D01*
X169882D02*
X182087D01*
X169882Y188543D02*
X182087D01*
X169882D02*
Y189724D01*
X203633Y214847D02*
Y215634D01*
X200484Y214847D02*
Y215634D01*
X211496Y214910D02*
Y215698D01*
X208347Y214910D02*
Y215698D01*
X94050Y144223D02*
X100350D01*
X94050Y109577D02*
X100350D01*
X94050D02*
Y144223D01*
X100350Y109577D02*
Y144223D01*
D87*
X107737Y49808D02*
G03*
X107737Y49808I-197J0D01*
G01*
X158436Y156519D02*
G03*
X158436Y156519I-197J0D01*
G01*
X180847Y155787D02*
G03*
X180847Y155787I-197J0D01*
G01*
X205680Y156519D02*
G03*
X205680Y156519I-197J0D01*
G01*
D88*
X208534Y60358D02*
G03*
X208534Y60358I-1181J0D01*
G01*
D89*
X7000Y26300D02*
X17000D01*
X7000Y6300D02*
Y26300D01*
Y6300D02*
X17000D01*
X237000D01*
Y26300D01*
X17000D02*
X237000D01*
D90*
X237266Y166599D02*
X236433D01*
X236850D01*
Y164516D01*
X236433Y164100D01*
X236017D01*
X235600Y164516D01*
X238099Y164100D02*
X238932D01*
X238516D01*
Y166599D01*
X238099Y166183D01*
X240182Y164100D02*
X241015D01*
X240598D01*
Y166599D01*
X240182Y166183D01*
X236866Y142199D02*
X236033D01*
X236450D01*
Y140117D01*
X236033Y139700D01*
X235616D01*
X235200Y140117D01*
X237699Y139700D02*
X238532D01*
X238116D01*
Y142199D01*
X237699Y141783D01*
X239782D02*
X240198Y142199D01*
X241031D01*
X241448Y141783D01*
Y140117D01*
X241031Y139700D01*
X240198D01*
X239782Y140117D01*
Y141783D01*
X182501Y154500D02*
X184583D01*
X185000Y154917D01*
Y155750D01*
X184583Y156166D01*
X182501D01*
X185000Y158249D02*
X182501D01*
X183750Y156999D01*
Y158665D01*
X126700Y77899D02*
Y76233D01*
X127033Y75900D01*
X127700D01*
X128033Y76233D01*
Y77899D01*
X128699Y77566D02*
X129033Y77899D01*
X129699D01*
X130032Y77566D01*
Y77233D01*
X129699Y76900D01*
X130032Y76566D01*
Y76233D01*
X129699Y75900D01*
X129033D01*
X128699Y76233D01*
Y76566D01*
X129033Y76900D01*
X128699Y77233D01*
Y77566D01*
X129033Y76900D02*
X129699D01*
X95700Y147999D02*
Y146333D01*
X96033Y146000D01*
X96700D01*
X97033Y146333D01*
Y147999D01*
X97699Y146333D02*
X98033Y146000D01*
X98699D01*
X99032Y146333D01*
Y147666D01*
X98699Y147999D01*
X98033D01*
X97699Y147666D01*
Y147333D01*
X98033Y147000D01*
X99032D01*
D91*
X207500Y176500D02*
X205001D01*
Y177750D01*
X205417Y178166D01*
X206250D01*
X206667Y177750D01*
Y176500D01*
Y177333D02*
X207500Y178166D01*
Y180249D02*
X205001D01*
X206250Y178999D01*
Y180665D01*
X188872Y188764D02*
X186373D01*
Y190014D01*
X186790Y190430D01*
X187623D01*
X188039Y190014D01*
Y188764D01*
Y189597D02*
X188872Y190430D01*
X186790Y191263D02*
X186373Y191680D01*
Y192513D01*
X186790Y192929D01*
X187206D01*
X187623Y192513D01*
Y192096D01*
Y192513D01*
X188039Y192929D01*
X188456D01*
X188872Y192513D01*
Y191680D01*
X188456Y191263D01*
X165500Y173500D02*
X163001D01*
Y174750D01*
X163417Y175166D01*
X164250D01*
X164667Y174750D01*
Y173500D01*
Y174333D02*
X165500Y175166D01*
Y175999D02*
Y176832D01*
Y176416D01*
X163001D01*
X163417Y175999D01*
X165001Y187500D02*
X167084D01*
X167500Y187917D01*
Y188750D01*
X167084Y189166D01*
X165001D01*
X167500Y189999D02*
Y190832D01*
Y190416D01*
X165001D01*
X165417Y189999D01*
X227170Y72811D02*
X226337D01*
X226753D01*
Y70728D01*
X226337Y70312D01*
X225921D01*
X225504Y70728D01*
X228003Y72395D02*
X228420Y72811D01*
X229253D01*
X229669Y72395D01*
Y71978D01*
X229253Y71561D01*
X229669Y71145D01*
Y70728D01*
X229253Y70312D01*
X228420D01*
X228003Y70728D01*
Y71145D01*
X228420Y71561D01*
X228003Y71978D01*
Y72395D01*
X228420Y71561D02*
X229253D01*
X121098Y108499D02*
X120265D01*
X120682D01*
Y106416D01*
X120265Y106000D01*
X119849D01*
X119432Y106416D01*
X121931D02*
X122348Y106000D01*
X123181D01*
X123597Y106416D01*
Y108083D01*
X123181Y108499D01*
X122348D01*
X121931Y108083D01*
Y107666D01*
X122348Y107250D01*
X123597D01*
X232166Y206000D02*
Y208499D01*
X233415D01*
X233832Y208083D01*
Y207250D01*
X233415Y206833D01*
X232166D01*
X232999D02*
X233832Y206000D01*
X236331Y208499D02*
X234665D01*
Y207250D01*
X235498Y207666D01*
X235914D01*
X236331Y207250D01*
Y206417D01*
X235914Y206000D01*
X235081D01*
X234665Y206417D01*
X232638Y192489D02*
Y194988D01*
X233887D01*
X234304Y194571D01*
Y193738D01*
X233887Y193322D01*
X232638D01*
X233471D02*
X234304Y192489D01*
X236803Y194988D02*
X235970Y194571D01*
X235137Y193738D01*
Y192905D01*
X235554Y192489D01*
X236387D01*
X236803Y192905D01*
Y193322D01*
X236387Y193738D01*
X235137D01*
X217500Y214000D02*
X215001D01*
Y215250D01*
X215417Y215666D01*
X216250D01*
X216667Y215250D01*
Y214000D01*
Y214833D02*
X217500Y215666D01*
X215001Y216499D02*
Y218165D01*
X215417D01*
X217084Y216499D01*
X217500D01*
X196500Y214000D02*
X194001D01*
Y215250D01*
X194417Y215666D01*
X195250D01*
X195667Y215250D01*
Y214000D01*
Y214833D02*
X196500Y215666D01*
X194417Y216499D02*
X194001Y216916D01*
Y217749D01*
X194417Y218165D01*
X194834D01*
X195250Y217749D01*
X195667Y218165D01*
X196083D01*
X196500Y217749D01*
Y216916D01*
X196083Y216499D01*
X195667D01*
X195250Y216916D01*
X194834Y216499D01*
X194417D01*
X195250Y216916D02*
Y217749D01*
X164500Y34499D02*
Y32416D01*
X164917Y32000D01*
X165750D01*
X166166Y32416D01*
Y34499D01*
X168665D02*
X167832Y34083D01*
X166999Y33250D01*
Y32416D01*
X167416Y32000D01*
X168249D01*
X168665Y32416D01*
Y32833D01*
X168249Y33250D01*
X166999D01*
X161001Y156519D02*
X163084D01*
X163500Y156936D01*
Y157769D01*
X163084Y158186D01*
X161001D01*
Y159019D02*
Y160685D01*
X161417D01*
X163084Y159019D01*
X163500D01*
X109937Y34999D02*
Y32917D01*
X110353Y32500D01*
X111186D01*
X111603Y32917D01*
Y34999D01*
X112436Y32500D02*
X113269D01*
X112853D01*
Y34999D01*
X112436Y34583D01*
X114519D02*
X114935Y34999D01*
X115768D01*
X116185Y34583D01*
Y32917D01*
X115768Y32500D01*
X114935D01*
X114519Y32917D01*
Y34583D01*
X224058Y129894D02*
X223642Y130310D01*
X222809D01*
X222392Y129894D01*
Y128228D01*
X222809Y127811D01*
X223642D01*
X224058Y128228D01*
X224891Y127811D02*
X225724D01*
X225308D01*
Y130310D01*
X224891Y129894D01*
X226974D02*
X227390Y130310D01*
X228223D01*
X228640Y129894D01*
Y128228D01*
X228223Y127811D01*
X227390D01*
X226974Y128228D01*
Y129894D01*
X224058Y133437D02*
X223642Y133853D01*
X222809D01*
X222392Y133437D01*
Y131771D01*
X222809Y131354D01*
X223642D01*
X224058Y131771D01*
X224891Y131354D02*
X225724D01*
X225308D01*
Y133853D01*
X224891Y133437D01*
X226974Y131354D02*
X227807D01*
X227390D01*
Y133853D01*
X226974Y133437D01*
X224058Y122807D02*
X223642Y123224D01*
X222809D01*
X222392Y122807D01*
Y121141D01*
X222809Y120724D01*
X223642D01*
X224058Y121141D01*
X224891Y120724D02*
X225724D01*
X225308D01*
Y123224D01*
X224891Y122807D01*
X228640Y120724D02*
X226974D01*
X228640Y122391D01*
Y122807D01*
X228223Y123224D01*
X227390D01*
X226974Y122807D01*
X224058Y126350D02*
X223642Y126767D01*
X222809D01*
X222392Y126350D01*
Y124684D01*
X222809Y124268D01*
X223642D01*
X224058Y124684D01*
X224891Y124268D02*
X225724D01*
X225308D01*
Y126767D01*
X224891Y126350D01*
X226974D02*
X227390Y126767D01*
X228223D01*
X228640Y126350D01*
Y125934D01*
X228223Y125517D01*
X227807D01*
X228223D01*
X228640Y125101D01*
Y124684D01*
X228223Y124268D01*
X227390D01*
X226974Y124684D01*
X224058Y105091D02*
X223642Y105507D01*
X222809D01*
X222392Y105091D01*
Y103424D01*
X222809Y103008D01*
X223642D01*
X224058Y103424D01*
X224891Y103008D02*
X225724D01*
X225308D01*
Y105507D01*
X224891Y105091D01*
X228223Y103008D02*
Y105507D01*
X226974Y104258D01*
X228640D01*
X224058Y101547D02*
X223642Y101964D01*
X222809D01*
X222392Y101547D01*
Y99881D01*
X222809Y99465D01*
X223642D01*
X224058Y99881D01*
X224891Y99465D02*
X225724D01*
X225308D01*
Y101964D01*
X224891Y101547D01*
X228640Y101964D02*
X226974D01*
Y100714D01*
X227807Y101131D01*
X228223D01*
X228640Y100714D01*
Y99881D01*
X228223Y99465D01*
X227390D01*
X226974Y99881D01*
X224058Y108634D02*
X223642Y109050D01*
X222809D01*
X222392Y108634D01*
Y106968D01*
X222809Y106551D01*
X223642D01*
X224058Y106968D01*
X224891Y106551D02*
X225724D01*
X225308D01*
Y109050D01*
X224891Y108634D01*
X228640Y109050D02*
X227807Y108634D01*
X226974Y107801D01*
Y106968D01*
X227390Y106551D01*
X228223D01*
X228640Y106968D01*
Y107384D01*
X228223Y107801D01*
X226974D01*
X224140Y112300D02*
X223723Y112717D01*
X222890D01*
X222474Y112300D01*
Y110634D01*
X222890Y110217D01*
X223723D01*
X224140Y110634D01*
X224973Y110217D02*
X225806D01*
X225390D01*
Y112717D01*
X224973Y112300D01*
X227056Y112717D02*
X228722D01*
Y112300D01*
X227056Y110634D01*
Y110217D01*
X134666Y105583D02*
X134250Y105999D01*
X133416D01*
X133000Y105583D01*
Y103917D01*
X133416Y103500D01*
X134250D01*
X134666Y103917D01*
X135499Y103500D02*
X136332D01*
X135916D01*
Y105999D01*
X135499Y105583D01*
X137582D02*
X137998Y105999D01*
X138831D01*
X139248Y105583D01*
Y105166D01*
X138831Y104750D01*
X139248Y104333D01*
Y103917D01*
X138831Y103500D01*
X137998D01*
X137582Y103917D01*
Y104333D01*
X137998Y104750D01*
X137582Y105166D01*
Y105583D01*
X137998Y104750D02*
X138831D01*
X134666Y116083D02*
X134250Y116499D01*
X133416D01*
X133000Y116083D01*
Y114417D01*
X133416Y114000D01*
X134250D01*
X134666Y114417D01*
X137165Y114000D02*
X135499D01*
X137165Y115666D01*
Y116083D01*
X136749Y116499D01*
X135916D01*
X135499Y116083D01*
X137998D02*
X138415Y116499D01*
X139248D01*
X139664Y116083D01*
Y114417D01*
X139248Y114000D01*
X138415D01*
X137998Y114417D01*
Y116083D01*
X134666Y112634D02*
X134250Y113050D01*
X133416D01*
X133000Y112634D01*
Y110968D01*
X133416Y110551D01*
X134250D01*
X134666Y110968D01*
X137165Y110551D02*
X135499D01*
X137165Y112217D01*
Y112634D01*
X136749Y113050D01*
X135916D01*
X135499Y112634D01*
X137998Y110551D02*
X138831D01*
X138415D01*
Y113050D01*
X137998Y112634D01*
X222917Y162166D02*
X222501Y161750D01*
Y160916D01*
X222917Y160500D01*
X224584D01*
X225000Y160916D01*
Y161750D01*
X224584Y162166D01*
X225000Y164665D02*
Y162999D01*
X223334Y164665D01*
X222917D01*
X222501Y164249D01*
Y163416D01*
X222917Y162999D01*
X225000Y167165D02*
Y165498D01*
X223334Y167165D01*
X222917D01*
X222501Y166748D01*
Y165915D01*
X222917Y165498D01*
X226917Y162166D02*
X226501Y161750D01*
Y160916D01*
X226917Y160500D01*
X228584D01*
X229000Y160916D01*
Y161750D01*
X228584Y162166D01*
X229000Y164665D02*
Y162999D01*
X227334Y164665D01*
X226917D01*
X226501Y164249D01*
Y163416D01*
X226917Y162999D01*
Y165498D02*
X226501Y165915D01*
Y166748D01*
X226917Y167165D01*
X227334D01*
X227750Y166748D01*
Y166331D01*
Y166748D01*
X228167Y167165D01*
X228584D01*
X229000Y166748D01*
Y165915D01*
X228584Y165498D01*
X226666Y49583D02*
X226250Y49999D01*
X225416D01*
X225000Y49583D01*
Y47916D01*
X225416Y47500D01*
X226250D01*
X226666Y47916D01*
X229165Y47500D02*
X227499D01*
X229165Y49166D01*
Y49583D01*
X228749Y49999D01*
X227916D01*
X227499Y49583D01*
X231248Y47500D02*
Y49999D01*
X229998Y48750D01*
X231664D01*
X226666Y57583D02*
X226250Y57999D01*
X225416D01*
X225000Y57583D01*
Y55917D01*
X225416Y55500D01*
X226250D01*
X226666Y55917D01*
X229165Y55500D02*
X227499D01*
X229165Y57166D01*
Y57583D01*
X228749Y57999D01*
X227916D01*
X227499Y57583D01*
X231664Y57999D02*
X229998D01*
Y56750D01*
X230831Y57166D01*
X231248D01*
X231664Y56750D01*
Y55917D01*
X231248Y55500D01*
X230415D01*
X229998Y55917D01*
X214917Y162166D02*
X214501Y161750D01*
Y160916D01*
X214917Y160500D01*
X216583D01*
X217000Y160916D01*
Y161750D01*
X216583Y162166D01*
X217000Y164665D02*
Y162999D01*
X215334Y164665D01*
X214917D01*
X214501Y164249D01*
Y163416D01*
X214917Y162999D01*
X214501Y167165D02*
X214917Y166331D01*
X215750Y165498D01*
X216583D01*
X217000Y165915D01*
Y166748D01*
X216583Y167165D01*
X216167D01*
X215750Y166748D01*
Y165498D01*
X218917Y162666D02*
X218501Y162250D01*
Y161416D01*
X218917Y161000D01*
X220584D01*
X221000Y161416D01*
Y162250D01*
X220584Y162666D01*
X221000Y165165D02*
Y163499D01*
X219334Y165165D01*
X218917D01*
X218501Y164749D01*
Y163916D01*
X218917Y163499D01*
X218501Y165998D02*
Y167665D01*
X218917D01*
X220584Y165998D01*
X221000D01*
X224166Y53583D02*
X223750Y53999D01*
X222917D01*
X222500Y53583D01*
Y51916D01*
X222917Y51500D01*
X223750D01*
X224166Y51916D01*
X226665Y51500D02*
X224999D01*
X226665Y53166D01*
Y53583D01*
X226249Y53999D01*
X225416D01*
X224999Y53583D01*
X227498D02*
X227915Y53999D01*
X228748D01*
X229165Y53583D01*
Y53166D01*
X228748Y52750D01*
X229165Y52333D01*
Y51916D01*
X228748Y51500D01*
X227915D01*
X227498Y51916D01*
Y52333D01*
X227915Y52750D01*
X227498Y53166D01*
Y53583D01*
X227915Y52750D02*
X228748D01*
X224166Y61583D02*
X223750Y61999D01*
X222917D01*
X222500Y61583D01*
Y59917D01*
X222917Y59500D01*
X223750D01*
X224166Y59917D01*
X226665Y59500D02*
X224999D01*
X226665Y61166D01*
Y61583D01*
X226249Y61999D01*
X225416D01*
X224999Y61583D01*
X227498Y59917D02*
X227915Y59500D01*
X228748D01*
X229165Y59917D01*
Y61583D01*
X228748Y61999D01*
X227915D01*
X227498Y61583D01*
Y61166D01*
X227915Y60750D01*
X229165D01*
X134666Y119583D02*
X134250Y119999D01*
X133416D01*
X133000Y119583D01*
Y117917D01*
X133416Y117500D01*
X134250D01*
X134666Y117917D01*
X135499Y119583D02*
X135916Y119999D01*
X136749D01*
X137165Y119583D01*
Y119166D01*
X136749Y118750D01*
X136332D01*
X136749D01*
X137165Y118333D01*
Y117917D01*
X136749Y117500D01*
X135916D01*
X135499Y117917D01*
X137998Y117500D02*
X138831D01*
X138415D01*
Y119999D01*
X137998Y119583D01*
X156845Y71965D02*
X156429Y71549D01*
Y70716D01*
X156845Y70299D01*
X158511D01*
X158928Y70716D01*
Y71549D01*
X158511Y71965D01*
X156845Y72798D02*
X156429Y73215D01*
Y74048D01*
X156845Y74464D01*
X157262D01*
X157678Y74048D01*
Y73631D01*
Y74048D01*
X158095Y74464D01*
X158511D01*
X158928Y74048D01*
Y73215D01*
X158511Y72798D01*
X156429Y76964D02*
Y75297D01*
X157678D01*
X157262Y76130D01*
Y76547D01*
X157678Y76964D01*
X158511D01*
X158928Y76547D01*
Y75714D01*
X158511Y75297D01*
X155271Y47166D02*
X154854Y46750D01*
Y45917D01*
X155271Y45500D01*
X156937D01*
X157353Y45917D01*
Y46750D01*
X156937Y47166D01*
X155271Y47999D02*
X154854Y48416D01*
Y49249D01*
X155271Y49665D01*
X155687D01*
X156104Y49249D01*
Y48832D01*
Y49249D01*
X156520Y49665D01*
X156937D01*
X157353Y49249D01*
Y48416D01*
X156937Y47999D01*
X154854Y52165D02*
X155271Y51331D01*
X156104Y50498D01*
X156937D01*
X157353Y50915D01*
Y51748D01*
X156937Y52165D01*
X156520D01*
X156104Y51748D01*
Y50498D01*
X224058Y98004D02*
X223642Y98421D01*
X222809D01*
X222392Y98004D01*
Y96338D01*
X222809Y95921D01*
X223642D01*
X224058Y96338D01*
X224891Y98004D02*
X225308Y98421D01*
X226141D01*
X226557Y98004D01*
Y97587D01*
X226141Y97171D01*
X225724D01*
X226141D01*
X226557Y96754D01*
Y96338D01*
X226141Y95921D01*
X225308D01*
X224891Y96338D01*
X227390Y98421D02*
X229057D01*
Y98004D01*
X227390Y96338D01*
Y95921D01*
X207217Y89466D02*
X206801Y89050D01*
Y88217D01*
X207217Y87800D01*
X208884D01*
X209300Y88217D01*
Y89050D01*
X208884Y89466D01*
X207217Y90299D02*
X206801Y90716D01*
Y91549D01*
X207217Y91965D01*
X207634D01*
X208050Y91549D01*
Y91132D01*
Y91549D01*
X208467Y91965D01*
X208884D01*
X209300Y91549D01*
Y90716D01*
X208884Y90299D01*
X207217Y92798D02*
X206801Y93215D01*
Y94048D01*
X207217Y94464D01*
X207634D01*
X208050Y94048D01*
X208467Y94464D01*
X208884D01*
X209300Y94048D01*
Y93215D01*
X208884Y92798D01*
X208467D01*
X208050Y93215D01*
X207634Y92798D01*
X207217D01*
X208050Y93215D02*
Y94048D01*
X211517Y89166D02*
X211101Y88750D01*
Y87916D01*
X211517Y87500D01*
X213183D01*
X213600Y87916D01*
Y88750D01*
X213183Y89166D01*
X211517Y89999D02*
X211101Y90416D01*
Y91249D01*
X211517Y91665D01*
X211934D01*
X212350Y91249D01*
Y90832D01*
Y91249D01*
X212767Y91665D01*
X213183D01*
X213600Y91249D01*
Y90416D01*
X213183Y89999D01*
Y92498D02*
X213600Y92915D01*
Y93748D01*
X213183Y94165D01*
X211517D01*
X211101Y93748D01*
Y92915D01*
X211517Y92498D01*
X211934D01*
X212350Y92915D01*
Y94165D01*
X230917Y162166D02*
X230501Y161750D01*
Y160916D01*
X230917Y160500D01*
X232583D01*
X233000Y160916D01*
Y161750D01*
X232583Y162166D01*
X233000Y164249D02*
X230501D01*
X231750Y162999D01*
Y164665D01*
X230917Y165498D02*
X230501Y165915D01*
Y166748D01*
X230917Y167165D01*
X232583D01*
X233000Y166748D01*
Y165915D01*
X232583Y165498D01*
X230917D01*
X146000Y81500D02*
Y83999D01*
X147250D01*
X147666Y83583D01*
Y82750D01*
X147250Y82333D01*
X146000D01*
X146833D02*
X147666Y81500D01*
X148499D02*
X149332D01*
X148916D01*
Y83999D01*
X148499Y83583D01*
X150582Y81500D02*
X151415D01*
X150998D01*
Y83999D01*
X150582Y83583D01*
X124563Y30000D02*
X122064D01*
Y31250D01*
X122480Y31666D01*
X123313D01*
X123730Y31250D01*
Y30000D01*
Y30833D02*
X124563Y31666D01*
Y32499D02*
Y33332D01*
Y32916D01*
X122064D01*
X122480Y32499D01*
X124563Y36248D02*
Y34582D01*
X122897Y36248D01*
X122480D01*
X122064Y35831D01*
Y34998D01*
X122480Y34582D01*
X71500Y148200D02*
Y150699D01*
X72750D01*
X73166Y150283D01*
Y149450D01*
X72750Y149033D01*
X71500D01*
X72333D02*
X73166Y148200D01*
X73999D02*
X74832D01*
X74416D01*
Y150699D01*
X73999Y150283D01*
X76082D02*
X76498Y150699D01*
X77331D01*
X77748Y150283D01*
Y149866D01*
X77331Y149450D01*
X76915D01*
X77331D01*
X77748Y149033D01*
Y148617D01*
X77331Y148200D01*
X76498D01*
X76082Y148617D01*
X220917Y171666D02*
X220501Y171250D01*
Y170416D01*
X220917Y170000D01*
X222584D01*
X223000Y170416D01*
Y171250D01*
X222584Y171666D01*
X223000Y172499D02*
Y173332D01*
Y172916D01*
X220501D01*
X220917Y172499D01*
X201145Y167083D02*
X200729Y167499D01*
X199896D01*
X199479Y167083D01*
Y165417D01*
X199896Y165000D01*
X200729D01*
X201145Y165417D01*
X203644Y165000D02*
X201978D01*
X203644Y166666D01*
Y167083D01*
X203228Y167499D01*
X202395D01*
X201978Y167083D01*
X214554Y149735D02*
X214970Y150152D01*
Y150985D01*
X214554Y151401D01*
X212888D01*
X212471Y150985D01*
Y150152D01*
X212888Y149735D01*
X214554Y148902D02*
X214970Y148486D01*
Y147653D01*
X214554Y147236D01*
X214137D01*
X213721Y147653D01*
Y148069D01*
Y147653D01*
X213304Y147236D01*
X212888D01*
X212471Y147653D01*
Y148486D01*
X212888Y148902D01*
X176312Y167083D02*
X175895Y167499D01*
X175062D01*
X174646Y167083D01*
Y165417D01*
X175062Y165000D01*
X175895D01*
X176312Y165417D01*
X178394Y165000D02*
Y167499D01*
X177145Y166250D01*
X178811D01*
X216417Y171166D02*
X216001Y170750D01*
Y169916D01*
X216417Y169500D01*
X218084D01*
X218500Y169916D01*
Y170750D01*
X218084Y171166D01*
X216001Y173665D02*
Y171999D01*
X217250D01*
X216834Y172832D01*
Y173249D01*
X217250Y173665D01*
X218084D01*
X218500Y173249D01*
Y172416D01*
X218084Y171999D01*
X163075Y152099D02*
X162658Y151683D01*
Y150850D01*
X163075Y150433D01*
X164741D01*
X165157Y150850D01*
Y151683D01*
X164741Y152099D01*
X162658Y154598D02*
X163075Y153765D01*
X163908Y152932D01*
X164741D01*
X165157Y153349D01*
Y154182D01*
X164741Y154598D01*
X164324D01*
X163908Y154182D01*
Y152932D01*
X154295Y167583D02*
X153878Y167999D01*
X153045D01*
X152629Y167583D01*
Y165917D01*
X153045Y165500D01*
X153878D01*
X154295Y165917D01*
X155128Y167999D02*
X156794D01*
Y167583D01*
X155128Y165917D01*
Y165500D01*
X224058Y119264D02*
X223642Y119680D01*
X222809D01*
X222392Y119264D01*
Y117598D01*
X222809Y117181D01*
X223642D01*
X224058Y117598D01*
X224891Y119264D02*
X225308Y119680D01*
X226141D01*
X226557Y119264D01*
Y118847D01*
X226141Y118431D01*
X226557Y118014D01*
Y117598D01*
X226141Y117181D01*
X225308D01*
X224891Y117598D01*
Y118014D01*
X225308Y118431D01*
X224891Y118847D01*
Y119264D01*
X225308Y118431D02*
X226141D01*
X224058Y115720D02*
X223642Y116137D01*
X222809D01*
X222392Y115720D01*
Y114054D01*
X222809Y113638D01*
X223642D01*
X224058Y114054D01*
X224891D02*
X225308Y113638D01*
X226141D01*
X226557Y114054D01*
Y115720D01*
X226141Y116137D01*
X225308D01*
X224891Y115720D01*
Y115304D01*
X225308Y114887D01*
X226557D01*
X172913Y171500D02*
X170414D01*
Y172750D01*
X170831Y173166D01*
X171664D01*
X172080Y172750D01*
Y171500D01*
Y172333D02*
X172913Y173166D01*
Y175665D02*
Y173999D01*
X171247Y175665D01*
X170831D01*
X170414Y175249D01*
Y174416D01*
X170831Y173999D01*
X208501Y154500D02*
X210583D01*
X211000Y154917D01*
Y155750D01*
X210583Y156166D01*
X208501D01*
X208917Y156999D02*
X208501Y157416D01*
Y158249D01*
X208917Y158665D01*
X209334D01*
X209750Y158249D01*
Y157832D01*
Y158249D01*
X210167Y158665D01*
X210583D01*
X211000Y158249D01*
Y157416D01*
X210583Y156999D01*
X217100Y204399D02*
Y202316D01*
X217516Y201900D01*
X218350D01*
X218766Y202316D01*
Y204399D01*
X221265D02*
X219599D01*
Y203150D01*
X220432Y203566D01*
X220849D01*
X221265Y203150D01*
Y202316D01*
X220849Y201900D01*
X220016D01*
X219599Y202316D01*
X194256Y198666D02*
X193840Y198250D01*
Y197416D01*
X194256Y197000D01*
X195922D01*
X196339Y197416D01*
Y198250D01*
X195922Y198666D01*
X196339Y200749D02*
X193840D01*
X195089Y199499D01*
Y201165D01*
X196339Y201998D02*
Y202831D01*
Y202415D01*
X193840D01*
X194256Y201998D01*
X224417Y146166D02*
X224001Y145750D01*
Y144916D01*
X224417Y144500D01*
X226083D01*
X226500Y144916D01*
Y145750D01*
X226083Y146166D01*
X224417Y146999D02*
X224001Y147416D01*
Y148249D01*
X224417Y148665D01*
X224834D01*
X225250Y148249D01*
Y147832D01*
Y148249D01*
X225667Y148665D01*
X226083D01*
X226500Y148249D01*
Y147416D01*
X226083Y146999D01*
X224417Y149498D02*
X224001Y149915D01*
Y150748D01*
X224417Y151164D01*
X226083D01*
X226500Y150748D01*
Y149915D01*
X226083Y149498D01*
X224417D01*
X134666Y109083D02*
X134250Y109499D01*
X133416D01*
X133000Y109083D01*
Y107416D01*
X133416Y107000D01*
X134250D01*
X134666Y107416D01*
X135499Y107000D02*
X136332D01*
X135916D01*
Y109499D01*
X135499Y109083D01*
X137582Y107416D02*
X137998Y107000D01*
X138831D01*
X139248Y107416D01*
Y109083D01*
X138831Y109499D01*
X137998D01*
X137582Y109083D01*
Y108666D01*
X137998Y108250D01*
X139248D01*
X159417Y133524D02*
X159001Y133108D01*
Y132274D01*
X159417Y131858D01*
X161083D01*
X161500Y132274D01*
Y133108D01*
X161083Y133524D01*
X159417Y134357D02*
X159001Y134774D01*
Y135607D01*
X159417Y136023D01*
X159834D01*
X160250Y135607D01*
Y135190D01*
Y135607D01*
X160667Y136023D01*
X161083D01*
X161500Y135607D01*
Y134774D01*
X161083Y134357D01*
X161500Y138523D02*
Y136856D01*
X159834Y138523D01*
X159417D01*
X159001Y138106D01*
Y137273D01*
X159417Y136856D01*
X157074Y133524D02*
X157490Y133108D01*
Y132274D01*
X157074Y131858D01*
X155408D01*
X154991Y132274D01*
Y133108D01*
X155408Y133524D01*
X157074Y134357D02*
X157490Y134774D01*
Y135607D01*
X157074Y136023D01*
X156657D01*
X156241Y135607D01*
Y135190D01*
Y135607D01*
X155824Y136023D01*
X155408D01*
X154991Y135607D01*
Y134774D01*
X155408Y134357D01*
X157074Y136856D02*
X157490Y137273D01*
Y138106D01*
X157074Y138523D01*
X156657D01*
X156241Y138106D01*
Y137689D01*
Y138106D01*
X155824Y138523D01*
X155408D01*
X154991Y138106D01*
Y137273D01*
X155408Y136856D01*
D92*
X222500Y64500D02*
X223000D01*
X222750D01*
Y66000D01*
X222500Y65750D01*
X176063Y116500D02*
X176563D01*
X176313D01*
Y117999D01*
X176063Y117750D01*
M02*
