G04 Layer_Color=8421504*
%FSLAX25Y25*%
%MOIN*%
G70*
G01*
G75*
%ADD10O,0.09843X0.02756*%
%ADD11R,0.02600X0.03300*%
%ADD12R,0.01969X0.02362*%
%ADD13R,0.02362X0.01969*%
%ADD14R,0.03937X0.03937*%
%ADD15R,0.02756X0.05118*%
%ADD16R,0.02165X0.05709*%
%ADD17R,0.02165X0.05709*%
%ADD18O,0.00984X0.08709*%
%ADD19R,0.05709X0.02165*%
%ADD20R,0.05709X0.02165*%
%ADD21O,0.03937X0.01181*%
%ADD22R,0.03937X0.01181*%
D10*
X106846Y111900D02*
D03*
Y116900D02*
D03*
Y121900D02*
D03*
Y126900D02*
D03*
Y131900D02*
D03*
Y136900D02*
D03*
Y141900D02*
D03*
X87554Y111900D02*
D03*
Y116900D02*
D03*
Y121900D02*
D03*
Y126900D02*
D03*
Y131900D02*
D03*
Y136900D02*
D03*
Y141900D02*
D03*
D11*
X127250Y87450D02*
D03*
X133550D02*
D03*
X127250Y81350D02*
D03*
X133550D02*
D03*
D12*
X189000Y146531D02*
D03*
Y150469D02*
D03*
X209322Y147071D02*
D03*
Y151008D02*
D03*
X185000Y146531D02*
D03*
Y150469D02*
D03*
X163976Y142323D02*
D03*
Y146260D02*
D03*
X190030Y134472D02*
D03*
Y138409D02*
D03*
X193574Y134472D02*
D03*
Y138409D02*
D03*
X182638Y134213D02*
D03*
Y138150D02*
D03*
X186417Y134331D02*
D03*
Y138268D02*
D03*
X174252Y133976D02*
D03*
Y137913D02*
D03*
X168543Y134095D02*
D03*
Y138031D02*
D03*
X163898Y134016D02*
D03*
Y137953D02*
D03*
X160897Y79748D02*
D03*
Y83685D02*
D03*
X157353Y79748D02*
D03*
Y83685D02*
D03*
X156172Y60063D02*
D03*
Y64000D02*
D03*
X200400Y90232D02*
D03*
Y94169D02*
D03*
X204095Y90332D02*
D03*
Y94269D02*
D03*
X197117Y134472D02*
D03*
Y138409D02*
D03*
X195158Y188965D02*
D03*
Y192902D02*
D03*
X164606Y180512D02*
D03*
Y184449D02*
D03*
X175984Y171496D02*
D03*
Y175433D02*
D03*
X187008Y180394D02*
D03*
Y184331D02*
D03*
X202244Y177154D02*
D03*
Y181091D02*
D03*
X123367Y39654D02*
D03*
Y43591D02*
D03*
D13*
X199479Y162031D02*
D03*
X203416D02*
D03*
X174676Y161638D02*
D03*
X178613D02*
D03*
X152235Y162819D02*
D03*
X156172D02*
D03*
X211850Y118307D02*
D03*
X215787D02*
D03*
X211850Y114764D02*
D03*
X215787D02*
D03*
X211850Y128937D02*
D03*
X215787D02*
D03*
X211850Y132480D02*
D03*
X215787D02*
D03*
X211850Y121850D02*
D03*
X215787D02*
D03*
X211850Y125394D02*
D03*
X215787D02*
D03*
X211850Y104134D02*
D03*
X215787D02*
D03*
X211850Y100591D02*
D03*
X215787D02*
D03*
X211850Y107677D02*
D03*
X215787D02*
D03*
X211932Y111343D02*
D03*
X215869D02*
D03*
X147677Y104213D02*
D03*
X151614D02*
D03*
X147559Y107992D02*
D03*
X151496D02*
D03*
X147598Y115551D02*
D03*
X151535D02*
D03*
X147598Y111890D02*
D03*
X151535D02*
D03*
X179803Y102598D02*
D03*
X183740D02*
D03*
X179803Y109606D02*
D03*
X183740D02*
D03*
X175866Y105984D02*
D03*
X179803D02*
D03*
X175906Y113228D02*
D03*
X179842D02*
D03*
X147559Y119055D02*
D03*
X151496D02*
D03*
X211850Y97047D02*
D03*
X215787D02*
D03*
X231772Y203138D02*
D03*
X235709D02*
D03*
X232166Y198414D02*
D03*
X236103D02*
D03*
X146732Y87283D02*
D03*
X150669D02*
D03*
X82156Y149299D02*
D03*
X86093D02*
D03*
D14*
X209922Y212154D02*
D03*
Y218454D02*
D03*
X202059Y212091D02*
D03*
Y218390D02*
D03*
D15*
X172244Y193858D02*
D03*
X175984Y184409D02*
D03*
X172244D02*
D03*
X179724D02*
D03*
X175984Y193858D02*
D03*
X179724D02*
D03*
D16*
X195739Y147169D02*
D03*
X199479Y155634D02*
D03*
X195739D02*
D03*
X203219Y147169D02*
D03*
X170905Y146437D02*
D03*
X174646Y154902D02*
D03*
X170905D02*
D03*
X178386Y146437D02*
D03*
X148495Y147169D02*
D03*
X152235Y155634D02*
D03*
X148495D02*
D03*
X155975Y147169D02*
D03*
D17*
X203219Y155634D02*
D03*
X178386Y154902D02*
D03*
X155975Y155634D02*
D03*
D18*
X170739Y40559D02*
D03*
X168771D02*
D03*
X174676D02*
D03*
X172707D02*
D03*
X166802D02*
D03*
X164833D02*
D03*
X180581D02*
D03*
X178613D02*
D03*
X176645D02*
D03*
X184519D02*
D03*
X182550D02*
D03*
X164833Y70224D02*
D03*
X168771D02*
D03*
X166802D02*
D03*
X172707D02*
D03*
X170739D02*
D03*
X176645D02*
D03*
X174676D02*
D03*
X178613D02*
D03*
X184519D02*
D03*
X180581D02*
D03*
X182550D02*
D03*
X196330Y40559D02*
D03*
X194361D02*
D03*
X200267D02*
D03*
X198298D02*
D03*
X188456D02*
D03*
X186487D02*
D03*
X192393D02*
D03*
X190424D02*
D03*
X204204D02*
D03*
X202235D02*
D03*
X208141D02*
D03*
X206172D02*
D03*
X210109D02*
D03*
X186487Y70224D02*
D03*
X190424D02*
D03*
X188456D02*
D03*
X194361D02*
D03*
X192393D02*
D03*
X198298D02*
D03*
X196330D02*
D03*
X204204D02*
D03*
X202235D02*
D03*
X200267D02*
D03*
X210109D02*
D03*
X206172D02*
D03*
X208141D02*
D03*
D19*
X108426Y43804D02*
D03*
Y40064D02*
D03*
X116891D02*
D03*
Y47544D02*
D03*
D20*
X108426Y47544D02*
D03*
D21*
X201740Y198277D02*
D03*
Y195718D02*
D03*
Y193159D02*
D03*
Y190600D02*
D03*
X223000Y198277D02*
D03*
Y195718D02*
D03*
Y193159D02*
D03*
D22*
Y190600D02*
D03*
M02*
