G04 Layer_Physical_Order=3*
G04 Layer_Color=16440176*
%FSLAX25Y25*%
%MOIN*%
G70*
G01*
G75*
%ADD23C,0.00600*%
%ADD63C,0.07500*%
%ADD64R,0.05906X0.05906*%
%ADD65C,0.04000*%
%ADD66C,0.05906*%
%ADD67R,0.06000X0.06000*%
%ADD68C,0.06000*%
%ADD69C,0.02400*%
%ADD70C,0.03600*%
%ADD74C,0.01000*%
G36*
X18805Y61181D02*
X17960D01*
Y159904D01*
X18805D01*
Y61181D01*
D02*
G37*
G36*
X243047Y988D02*
X847D01*
Y59346D01*
X19617D01*
X19969Y59416D01*
X20266Y59615D01*
X20372Y59721D01*
X20571Y60018D01*
X20641Y60370D01*
Y160292D01*
X20571Y160643D01*
X20372Y160941D01*
X19843Y161470D01*
X19545Y161669D01*
X19194Y161739D01*
X953D01*
Y222042D01*
X243047D01*
Y988D01*
D02*
G37*
%LPC*%
G36*
X134250Y77826D02*
Y76182D01*
X135894D01*
X135822Y76541D01*
X135336Y77268D01*
X134608Y77755D01*
X134250Y77826D01*
D02*
G37*
G36*
X235953Y84253D02*
X228847D01*
Y77147D01*
X235953D01*
Y84253D01*
D02*
G37*
G36*
X163831Y78831D02*
X162187D01*
X162258Y78472D01*
X162745Y77745D01*
X163472Y77258D01*
X163831Y77187D01*
Y78831D01*
D02*
G37*
G36*
X133250Y77826D02*
X132892Y77755D01*
X132164Y77268D01*
X131678Y76541D01*
X131606Y76182D01*
X133250D01*
Y77826D01*
D02*
G37*
G36*
X215100Y75044D02*
Y73400D01*
X216744D01*
X216672Y73758D01*
X216186Y74486D01*
X215458Y74972D01*
X215100Y75044D01*
D02*
G37*
G36*
X214100D02*
X213742Y74972D01*
X213014Y74486D01*
X212528Y73758D01*
X212456Y73400D01*
X214100D01*
Y75044D01*
D02*
G37*
G36*
X135894Y75182D02*
X134250D01*
Y73539D01*
X134608Y73610D01*
X135336Y74096D01*
X135822Y74824D01*
X135894Y75182D01*
D02*
G37*
G36*
X133250D02*
X131606D01*
X131678Y74824D01*
X132164Y74096D01*
X132892Y73610D01*
X133250Y73539D01*
Y75182D01*
D02*
G37*
G36*
X166474Y78831D02*
X164831D01*
Y77187D01*
X165189Y77258D01*
X165917Y77745D01*
X166403Y78472D01*
X166474Y78831D01*
D02*
G37*
G36*
X166614Y95925D02*
X166185Y95839D01*
X165821Y95596D01*
X165578Y95232D01*
X165493Y94803D01*
X165578Y94374D01*
X165821Y94010D01*
X166185Y93767D01*
X166614Y93682D01*
X167043Y93767D01*
X167407Y94010D01*
X167650Y94374D01*
X167736Y94803D01*
X167650Y95232D01*
X167407Y95596D01*
X167043Y95839D01*
X166614Y95925D01*
D02*
G37*
G36*
X153708Y92728D02*
X151248D01*
Y90268D01*
X151531Y90306D01*
X152261Y90608D01*
X152888Y91089D01*
X153368Y91715D01*
X153671Y92445D01*
X153708Y92728D01*
D02*
G37*
G36*
X172913Y95925D02*
X172484Y95839D01*
X172120Y95596D01*
X171877Y95232D01*
X171792Y94803D01*
X171877Y94374D01*
X172120Y94010D01*
X172484Y93767D01*
X172913Y93682D01*
X173343Y93767D01*
X173706Y94010D01*
X173950Y94374D01*
X174035Y94803D01*
X173950Y95232D01*
X173706Y95596D01*
X173343Y95839D01*
X172913Y95925D01*
D02*
G37*
G36*
X169764D02*
X169335Y95839D01*
X168971Y95596D01*
X168728Y95232D01*
X168642Y94803D01*
X168728Y94374D01*
X168971Y94010D01*
X169335Y93767D01*
X169764Y93682D01*
X170193Y93767D01*
X170557Y94010D01*
X170800Y94374D01*
X170885Y94803D01*
X170800Y95232D01*
X170557Y95596D01*
X170193Y95839D01*
X169764Y95925D01*
D02*
G37*
G36*
X150248Y92728D02*
X147788D01*
X147825Y92445D01*
X148127Y91715D01*
X148608Y91089D01*
X149235Y90608D01*
X149965Y90306D01*
X150248Y90268D01*
Y92728D01*
D02*
G37*
G36*
X164831Y81474D02*
Y79831D01*
X166474D01*
X166403Y80189D01*
X165917Y80917D01*
X165189Y81403D01*
X164831Y81474D01*
D02*
G37*
G36*
X163831D02*
X163472Y81403D01*
X162745Y80917D01*
X162258Y80189D01*
X162187Y79831D01*
X163831D01*
Y81474D01*
D02*
G37*
G36*
X164173Y86087D02*
X163471Y85948D01*
X162875Y85550D01*
X162478Y84954D01*
X162338Y84252D01*
X162478Y83550D01*
X162875Y82954D01*
X163471Y82556D01*
X164173Y82417D01*
X164875Y82556D01*
X165471Y82954D01*
X165869Y83550D01*
X166008Y84252D01*
X165869Y84954D01*
X165471Y85550D01*
X164875Y85948D01*
X164173Y86087D01*
D02*
G37*
G36*
X210600Y85035D02*
X209898Y84896D01*
X209302Y84498D01*
X208904Y83902D01*
X208765Y83200D01*
X208904Y82498D01*
X209302Y81902D01*
X209898Y81504D01*
X210600Y81365D01*
X211302Y81504D01*
X211898Y81902D01*
X212296Y82498D01*
X212435Y83200D01*
X212296Y83902D01*
X211898Y84498D01*
X211302Y84896D01*
X210600Y85035D01*
D02*
G37*
G36*
X153129Y75420D02*
Y73161D01*
X155387D01*
X155357Y73392D01*
X155075Y74073D01*
X154626Y74658D01*
X154041Y75107D01*
X153360Y75389D01*
X153129Y75420D01*
D02*
G37*
G36*
X124563Y63030D02*
X123626Y62844D01*
X122832Y62313D01*
X122302Y61519D01*
X122116Y60583D01*
X122302Y59646D01*
X122832Y58852D01*
X123626Y58322D01*
X124563Y58136D01*
X125499Y58322D01*
X126293Y58852D01*
X126823Y59646D01*
X127010Y60583D01*
X126823Y61519D01*
X126293Y62313D01*
X125499Y62844D01*
X124563Y63030D01*
D02*
G37*
G36*
X156602Y59176D02*
Y56917D01*
X158861D01*
X158830Y57148D01*
X158548Y57829D01*
X158099Y58414D01*
X157514Y58863D01*
X156833Y59145D01*
X156602Y59176D01*
D02*
G37*
G36*
X206347Y61600D02*
X204704D01*
Y59956D01*
X205062Y60028D01*
X205790Y60514D01*
X206276Y61242D01*
X206347Y61600D01*
D02*
G37*
G36*
X203704D02*
X202060D01*
X202131Y61242D01*
X202618Y60514D01*
X203345Y60028D01*
X203704Y59956D01*
Y61600D01*
D02*
G37*
G36*
X155602Y59176D02*
X155371Y59145D01*
X154690Y58863D01*
X154105Y58414D01*
X153657Y57829D01*
X153374Y57148D01*
X153344Y56917D01*
X155602D01*
Y59176D01*
D02*
G37*
G36*
X204594Y50726D02*
Y49083D01*
X206238D01*
X206167Y49441D01*
X205681Y50169D01*
X204953Y50655D01*
X204594Y50726D01*
D02*
G37*
G36*
X203594D02*
X203236Y50655D01*
X202508Y50169D01*
X202022Y49441D01*
X201951Y49083D01*
X203594D01*
Y50726D01*
D02*
G37*
G36*
X158861Y55917D02*
X156602D01*
Y53659D01*
X156833Y53689D01*
X157514Y53971D01*
X158099Y54420D01*
X158548Y55005D01*
X158830Y55686D01*
X158861Y55917D01*
D02*
G37*
G36*
X155602D02*
X153344D01*
X153374Y55686D01*
X153657Y55005D01*
X154105Y54420D01*
X154690Y53971D01*
X155371Y53689D01*
X155602Y53659D01*
Y55917D01*
D02*
G37*
G36*
X214100Y72400D02*
X212456D01*
X212528Y72042D01*
X213014Y71314D01*
X213742Y70828D01*
X214100Y70756D01*
Y72400D01*
D02*
G37*
G36*
X155387Y72161D02*
X153129D01*
Y69903D01*
X153360Y69933D01*
X154041Y70215D01*
X154626Y70664D01*
X155075Y71249D01*
X155357Y71930D01*
X155387Y72161D01*
D02*
G37*
G36*
X152129Y75420D02*
X151898Y75389D01*
X151217Y75107D01*
X150632Y74658D01*
X150183Y74073D01*
X149901Y73392D01*
X149871Y73161D01*
X152129D01*
Y75420D01*
D02*
G37*
G36*
X216744Y72400D02*
X215100D01*
Y70756D01*
X215458Y70828D01*
X216186Y71314D01*
X216672Y72042D01*
X216744Y72400D01*
D02*
G37*
G36*
X152129Y72161D02*
X149871D01*
X149901Y71930D01*
X150183Y71249D01*
X150632Y70664D01*
X151217Y70215D01*
X151898Y69933D01*
X152129Y69903D01*
Y72161D01*
D02*
G37*
G36*
X198080Y63867D02*
X197378Y63727D01*
X196783Y63329D01*
X196385Y62734D01*
X196245Y62031D01*
X196385Y61329D01*
X196783Y60734D01*
X197378Y60336D01*
X198080Y60196D01*
X198783Y60336D01*
X199378Y60734D01*
X199776Y61329D01*
X199916Y62031D01*
X199776Y62734D01*
X199378Y63329D01*
X198783Y63727D01*
X198080Y63867D01*
D02*
G37*
G36*
X173630D02*
X172927Y63727D01*
X172332Y63329D01*
X171934Y62734D01*
X171794Y62031D01*
X171934Y61329D01*
X172332Y60734D01*
X172927Y60336D01*
X173630Y60196D01*
X174332Y60336D01*
X174927Y60734D01*
X175325Y61329D01*
X175465Y62031D01*
X175325Y62734D01*
X174927Y63329D01*
X174332Y63727D01*
X173630Y63867D01*
D02*
G37*
G36*
X204704Y64244D02*
Y62600D01*
X206347D01*
X206276Y62958D01*
X205790Y63686D01*
X205062Y64172D01*
X204704Y64244D01*
D02*
G37*
G36*
X203704D02*
X203345Y64172D01*
X202618Y63686D01*
X202131Y62958D01*
X202060Y62600D01*
X203704D01*
Y64244D01*
D02*
G37*
G36*
X160315Y102224D02*
X159886Y102138D01*
X159522Y101895D01*
X159279Y101532D01*
X159193Y101102D01*
X159279Y100673D01*
X159522Y100309D01*
X159886Y100066D01*
X160315Y99981D01*
X160744Y100066D01*
X161108Y100309D01*
X161351Y100673D01*
X161436Y101102D01*
X161351Y101532D01*
X161108Y101895D01*
X160744Y102138D01*
X160315Y102224D01*
D02*
G37*
G36*
X188161Y100602D02*
X187232D01*
X187248Y100517D01*
X187580Y100021D01*
X188076Y99689D01*
X188161Y99672D01*
Y100602D01*
D02*
G37*
G36*
X221587Y103634D02*
X217300D01*
X217371Y103276D01*
X217751Y102707D01*
X217820Y102362D01*
X217751Y102017D01*
X217371Y101449D01*
X217300Y101091D01*
X221587D01*
X221516Y101449D01*
X221136Y102017D01*
X221067Y102362D01*
X221136Y102707D01*
X221516Y103276D01*
X221587Y103634D01*
D02*
G37*
G36*
X201260Y102224D02*
X200831Y102138D01*
X200467Y101895D01*
X200224Y101532D01*
X200138Y101102D01*
X200224Y100673D01*
X200467Y100309D01*
X200831Y100066D01*
X201260Y99981D01*
X201689Y100066D01*
X202053Y100309D01*
X202296Y100673D01*
X202381Y101102D01*
X202296Y101532D01*
X202053Y101895D01*
X201689Y102138D01*
X201260Y102224D01*
D02*
G37*
G36*
X174343Y100602D02*
X173413D01*
Y99672D01*
X173499Y99689D01*
X173995Y100021D01*
X174326Y100517D01*
X174343Y100602D01*
D02*
G37*
G36*
X221587Y100091D02*
X217300D01*
X217371Y99732D01*
X217857Y99004D01*
Y98633D01*
X217371Y97906D01*
X217300Y97547D01*
X221587D01*
X221516Y97906D01*
X221136Y98474D01*
X221067Y98819D01*
X221136Y99164D01*
X221516Y99732D01*
X221587Y100091D01*
D02*
G37*
G36*
X194961Y99074D02*
X194531Y98989D01*
X194168Y98746D01*
X193924Y98382D01*
X193839Y97953D01*
X193924Y97524D01*
X194168Y97160D01*
X194531Y96917D01*
X194961Y96831D01*
X195390Y96917D01*
X195754Y97160D01*
X195997Y97524D01*
X196082Y97953D01*
X195997Y98382D01*
X195754Y98746D01*
X195390Y98989D01*
X194961Y99074D01*
D02*
G37*
G36*
X162965Y100602D02*
X162035D01*
X162052Y100517D01*
X162383Y100021D01*
X162879Y99689D01*
X162965Y99672D01*
Y100602D01*
D02*
G37*
G36*
X191811Y99074D02*
X191382Y98989D01*
X191018Y98746D01*
X190775Y98382D01*
X190733Y98173D01*
X190238Y97677D01*
X189777Y97924D01*
X189783Y97953D01*
X189698Y98382D01*
X189454Y98746D01*
X189091Y98989D01*
X188661Y99074D01*
X188232Y98989D01*
X187868Y98746D01*
X187625Y98382D01*
X187540Y97953D01*
X187625Y97524D01*
X187868Y97160D01*
X188232Y96917D01*
X188661Y96831D01*
X188690Y96837D01*
X189125Y96460D01*
X189116Y96239D01*
X188697Y95918D01*
X188661Y95925D01*
X188232Y95839D01*
X187868Y95596D01*
X187625Y95232D01*
X187540Y94803D01*
X187625Y94374D01*
X187868Y94010D01*
X188232Y93767D01*
X188661Y93682D01*
X188794Y93708D01*
X189294Y93347D01*
Y85191D01*
X189120Y85018D01*
X176800D01*
X176449Y84948D01*
X176151Y84749D01*
X174151Y82749D01*
X174118Y82700D01*
X174098Y82696D01*
X173502Y82298D01*
X173104Y81702D01*
X172965Y81000D01*
X173049Y80576D01*
X172707Y80144D01*
X172667Y80129D01*
X171998Y79996D01*
X171402Y79598D01*
X171004Y79002D01*
X170865Y78300D01*
X171004Y77598D01*
X171402Y77002D01*
X171998Y76604D01*
X172700Y76465D01*
X173402Y76604D01*
X173998Y77002D01*
X174396Y77598D01*
X174535Y78300D01*
X174507Y78443D01*
X174819Y78727D01*
X175107Y78313D01*
X175065Y78100D01*
X175204Y77398D01*
X175602Y76802D01*
X176198Y76404D01*
X176900Y76265D01*
X177602Y76404D01*
X178198Y76802D01*
X178596Y77398D01*
X178643Y77637D01*
X179020Y77793D01*
X179184Y77796D01*
X179842Y77665D01*
X180545Y77804D01*
X180557Y77812D01*
X181007Y77512D01*
X180965Y77300D01*
X181104Y76598D01*
X181502Y76002D01*
X182098Y75604D01*
X182800Y75465D01*
X183502Y75604D01*
X184098Y76002D01*
X184496Y76598D01*
X184635Y77300D01*
X184559Y77683D01*
X184678Y78090D01*
X184925Y78210D01*
X185402Y78304D01*
X185969Y78683D01*
X185979Y78679D01*
X186119Y78609D01*
X186385Y78406D01*
X186265Y77800D01*
X186404Y77098D01*
X186802Y76502D01*
X187398Y76104D01*
X188100Y75965D01*
X188802Y76104D01*
X189398Y76502D01*
X189720Y76985D01*
X190183Y76954D01*
X190241Y76932D01*
X190320Y76533D01*
X190806Y75805D01*
X191534Y75319D01*
X191893Y75248D01*
Y77391D01*
X192893D01*
Y75248D01*
X193251Y75319D01*
X193979Y75805D01*
X194462Y76528D01*
X194487Y76538D01*
X194984Y76579D01*
X195302Y76102D01*
X195898Y75704D01*
X196600Y75565D01*
X197302Y75704D01*
X197898Y76102D01*
X198013Y76275D01*
X198601Y76255D01*
X198837Y75902D01*
X199433Y75504D01*
X200135Y75365D01*
X200837Y75504D01*
X201433Y75902D01*
X201831Y76498D01*
X201970Y77200D01*
X201907Y77520D01*
X202235Y77965D01*
X202937Y78104D01*
X203533Y78502D01*
X203931Y79098D01*
X204070Y79800D01*
X203931Y80502D01*
X203533Y81098D01*
X202937Y81496D01*
X202235Y81635D01*
X201533Y81496D01*
X200937Y81098D01*
X200539Y80502D01*
X200400Y79800D01*
X200464Y79480D01*
X200135Y79035D01*
X199433Y78896D01*
X198837Y78498D01*
X198722Y78325D01*
X198134Y78345D01*
X197898Y78698D01*
X197302Y79096D01*
X196600Y79235D01*
X196451Y79206D01*
X196098Y79559D01*
X196135Y79748D01*
X195996Y80450D01*
X195598Y81046D01*
X195002Y81443D01*
X194300Y81583D01*
X193598Y81443D01*
X193002Y81046D01*
X192862Y80836D01*
X192793Y80816D01*
X192284Y80870D01*
X191998Y81298D01*
X191402Y81696D01*
X191224Y81731D01*
X191113Y82204D01*
X191114Y82263D01*
X192460Y83609D01*
X192659Y83907D01*
X192729Y84258D01*
Y94196D01*
X192847Y94374D01*
X192933Y94803D01*
X192847Y95232D01*
X192604Y95596D01*
X192240Y95839D01*
X191811Y95925D01*
X191782Y95919D01*
X191536Y96380D01*
X192031Y96875D01*
X192240Y96917D01*
X192604Y97160D01*
X192847Y97524D01*
X192933Y97953D01*
X192847Y98382D01*
X192604Y98746D01*
X192240Y98989D01*
X191811Y99074D01*
D02*
G37*
G36*
X188161Y102532D02*
X188076Y102515D01*
X187580Y102184D01*
X187248Y101688D01*
X187232Y101602D01*
X188161D01*
Y102532D01*
D02*
G37*
G36*
X221587Y107177D02*
X217300D01*
X217371Y106819D01*
X217751Y106250D01*
X217820Y105905D01*
X217751Y105561D01*
X217371Y104992D01*
X217300Y104634D01*
X221587D01*
X221516Y104992D01*
X221136Y105561D01*
X221067Y105905D01*
X221136Y106250D01*
X221516Y106819D01*
X221587Y107177D01*
D02*
G37*
G36*
X234980Y112118D02*
X233844Y111968D01*
X232786Y111530D01*
X231877Y110833D01*
X231180Y109924D01*
X230742Y108866D01*
X230592Y107730D01*
X230742Y106594D01*
X231180Y105536D01*
X231877Y104628D01*
X232786Y103930D01*
X233844Y103492D01*
X234980Y103342D01*
X236116Y103492D01*
X237174Y103930D01*
X238083Y104628D01*
X238780Y105536D01*
X239218Y106594D01*
X239368Y107730D01*
X239218Y108866D01*
X238780Y109924D01*
X238083Y110833D01*
X237174Y111530D01*
X236116Y111968D01*
X234980Y112118D01*
D02*
G37*
G36*
X173413Y105682D02*
Y104752D01*
X174343D01*
X174326Y104837D01*
X173995Y105333D01*
X173499Y105665D01*
X173413Y105682D01*
D02*
G37*
G36*
X146514Y107689D02*
X142226D01*
X142298Y107331D01*
X142784Y106603D01*
X142982Y106471D01*
Y105971D01*
X142784Y105838D01*
X142298Y105110D01*
X142226Y104752D01*
X146514D01*
X146442Y105110D01*
X145956Y105838D01*
X145758Y105971D01*
Y106471D01*
X145956Y106603D01*
X146442Y107331D01*
X146514Y107689D01*
D02*
G37*
G36*
X201260Y105374D02*
X200831Y105288D01*
X200467Y105045D01*
X200224Y104681D01*
X200138Y104252D01*
X200224Y103823D01*
X200467Y103459D01*
X200831Y103216D01*
X201260Y103130D01*
X201689Y103216D01*
X202053Y103459D01*
X202296Y103823D01*
X202381Y104252D01*
X202296Y104681D01*
X202053Y105045D01*
X201689Y105288D01*
X201260Y105374D01*
D02*
G37*
G36*
X146514Y103752D02*
X144870D01*
Y102108D01*
X145229Y102180D01*
X145956Y102666D01*
X146442Y103394D01*
X146514Y103752D01*
D02*
G37*
G36*
X143870D02*
X142226D01*
X142298Y103394D01*
X142784Y102666D01*
X143512Y102180D01*
X143870Y102108D01*
Y103752D01*
D02*
G37*
G36*
X188661Y105374D02*
X188232Y105288D01*
X187868Y105045D01*
X187625Y104681D01*
X187540Y104252D01*
X187625Y103823D01*
X187868Y103459D01*
X188232Y103216D01*
X188661Y103130D01*
X189091Y103216D01*
X189454Y103459D01*
X189698Y103823D01*
X189783Y104252D01*
X189698Y104681D01*
X189454Y105045D01*
X189091Y105288D01*
X188661Y105374D01*
D02*
G37*
G36*
X84912Y107651D02*
X83976Y107465D01*
X83182Y106935D01*
X82652Y106141D01*
X82465Y105204D01*
X82652Y104268D01*
X83182Y103474D01*
X83976Y102944D01*
X84912Y102757D01*
X85849Y102944D01*
X86643Y103474D01*
X87173Y104268D01*
X87359Y105204D01*
X87173Y106141D01*
X86643Y106935D01*
X85849Y107465D01*
X84912Y107651D01*
D02*
G37*
G36*
X151248Y96188D02*
Y93728D01*
X153708D01*
X153671Y94011D01*
X153368Y94741D01*
X152888Y95368D01*
X152261Y95849D01*
X151531Y96151D01*
X151248Y96188D01*
D02*
G37*
G36*
X150248D02*
X149965Y96151D01*
X149235Y95849D01*
X148608Y95368D01*
X148127Y94741D01*
X147825Y94011D01*
X147788Y93728D01*
X150248D01*
Y96188D01*
D02*
G37*
G36*
X129183Y101702D02*
X122077D01*
Y94597D01*
X129183D01*
Y101702D01*
D02*
G37*
G36*
X107609Y99450D02*
X106673Y99264D01*
X105879Y98734D01*
X105348Y97940D01*
X105162Y97004D01*
X105348Y96067D01*
X105879Y95273D01*
X106673Y94743D01*
X107609Y94556D01*
X108545Y94743D01*
X109339Y95273D01*
X109870Y96067D01*
X110056Y97004D01*
X109870Y97940D01*
X109339Y98734D01*
X108545Y99264D01*
X107609Y99450D01*
D02*
G37*
G36*
X194961Y95925D02*
X194531Y95839D01*
X194168Y95596D01*
X193924Y95232D01*
X193839Y94803D01*
X193924Y94374D01*
X194168Y94010D01*
X194531Y93767D01*
X194961Y93682D01*
X195390Y93767D01*
X195754Y94010D01*
X195997Y94374D01*
X196082Y94803D01*
X195997Y95232D01*
X195754Y95596D01*
X195390Y95839D01*
X194961Y95925D01*
D02*
G37*
G36*
X179213D02*
X178783Y95839D01*
X178419Y95596D01*
X178176Y95232D01*
X178091Y94803D01*
X178176Y94374D01*
X178419Y94010D01*
X178783Y93767D01*
X179213Y93682D01*
X179642Y93767D01*
X180006Y94010D01*
X180249Y94374D01*
X180334Y94803D01*
X180249Y95232D01*
X180006Y95596D01*
X179642Y95839D01*
X179213Y95925D01*
D02*
G37*
G36*
X176063D02*
X175634Y95839D01*
X175270Y95596D01*
X175027Y95232D01*
X174941Y94803D01*
X175027Y94374D01*
X175270Y94010D01*
X175634Y93767D01*
X176063Y93682D01*
X176492Y93767D01*
X176856Y94010D01*
X177099Y94374D01*
X177184Y94803D01*
X177099Y95232D01*
X176856Y95596D01*
X176492Y95839D01*
X176063Y95925D01*
D02*
G37*
G36*
X185512D02*
X185083Y95839D01*
X184719Y95596D01*
X184476Y95232D01*
X184390Y94803D01*
X184476Y94374D01*
X184719Y94010D01*
X185083Y93767D01*
X185512Y93682D01*
X185941Y93767D01*
X186305Y94010D01*
X186548Y94374D01*
X186633Y94803D01*
X186548Y95232D01*
X186305Y95596D01*
X185941Y95839D01*
X185512Y95925D01*
D02*
G37*
G36*
X182362D02*
X181933Y95839D01*
X181569Y95596D01*
X181326Y95232D01*
X181241Y94803D01*
X181326Y94374D01*
X181569Y94010D01*
X181933Y93767D01*
X182362Y93682D01*
X182791Y93767D01*
X183155Y94010D01*
X183398Y94374D01*
X183484Y94803D01*
X183398Y95232D01*
X183155Y95596D01*
X182791Y95839D01*
X182362Y95925D01*
D02*
G37*
G36*
X218943Y96547D02*
X217300D01*
X217371Y96189D01*
X217857Y95461D01*
X218585Y94975D01*
X218943Y94904D01*
Y96547D01*
D02*
G37*
G36*
X179213Y99074D02*
X178783Y98989D01*
X178419Y98746D01*
X178176Y98382D01*
X178091Y97953D01*
X178176Y97524D01*
X178419Y97160D01*
X178783Y96917D01*
X179213Y96831D01*
X179642Y96917D01*
X180006Y97160D01*
X180249Y97524D01*
X180334Y97953D01*
X180249Y98382D01*
X180006Y98746D01*
X179642Y98989D01*
X179213Y99074D01*
D02*
G37*
G36*
X176063D02*
X175634Y98989D01*
X175270Y98746D01*
X175027Y98382D01*
X174941Y97953D01*
X175027Y97524D01*
X175270Y97160D01*
X175634Y96917D01*
X176063Y96831D01*
X176492Y96917D01*
X176856Y97160D01*
X177099Y97524D01*
X177184Y97953D01*
X177099Y98382D01*
X176856Y98746D01*
X176492Y98989D01*
X176063Y99074D01*
D02*
G37*
G36*
X185512D02*
X185083Y98989D01*
X184719Y98746D01*
X184476Y98382D01*
X184390Y97953D01*
X184476Y97524D01*
X184719Y97160D01*
X185083Y96917D01*
X185512Y96831D01*
X185941Y96917D01*
X186305Y97160D01*
X186548Y97524D01*
X186633Y97953D01*
X186548Y98382D01*
X186305Y98746D01*
X185941Y98989D01*
X185512Y99074D01*
D02*
G37*
G36*
X182362D02*
X181933Y98989D01*
X181569Y98746D01*
X181326Y98382D01*
X181241Y97953D01*
X181326Y97524D01*
X181569Y97160D01*
X181933Y96917D01*
X182362Y96831D01*
X182791Y96917D01*
X183155Y97160D01*
X183398Y97524D01*
X183484Y97953D01*
X183398Y98382D01*
X183155Y98746D01*
X182791Y98989D01*
X182362Y99074D01*
D02*
G37*
G36*
X172913D02*
X172484Y98989D01*
X172120Y98746D01*
X171877Y98382D01*
X171792Y97953D01*
X171877Y97524D01*
X172120Y97160D01*
X172484Y96917D01*
X172913Y96831D01*
X173343Y96917D01*
X173706Y97160D01*
X173950Y97524D01*
X174035Y97953D01*
X173950Y98382D01*
X173706Y98746D01*
X173343Y98989D01*
X172913Y99074D01*
D02*
G37*
G36*
X166114Y97453D02*
X165184D01*
X165201Y97368D01*
X165533Y96871D01*
X166029Y96540D01*
X166114Y96523D01*
Y97453D01*
D02*
G37*
G36*
X221587Y96547D02*
X219943D01*
Y94904D01*
X220302Y94975D01*
X221029Y95461D01*
X221516Y96189D01*
X221587Y96547D01*
D02*
G37*
G36*
X169764Y99074D02*
X169335Y98989D01*
X168971Y98746D01*
X168728Y98382D01*
X168642Y97953D01*
X168728Y97524D01*
X168971Y97160D01*
X169335Y96917D01*
X169764Y96831D01*
X170193Y96917D01*
X170557Y97160D01*
X170800Y97524D01*
X170885Y97953D01*
X170800Y98382D01*
X170557Y98746D01*
X170193Y98989D01*
X169764Y99074D01*
D02*
G37*
G36*
X168044Y97453D02*
X167114D01*
Y96523D01*
X167199Y96540D01*
X167696Y96871D01*
X168027Y97368D01*
X168044Y97453D01*
D02*
G37*
G36*
X192893Y50381D02*
Y48737D01*
X194536D01*
X194465Y49096D01*
X193979Y49823D01*
X193251Y50310D01*
X192893Y50381D01*
D02*
G37*
G36*
X12500Y15269D02*
Y11800D01*
X15969D01*
X15897Y12344D01*
X15494Y13317D01*
X14853Y14153D01*
X14017Y14794D01*
X13044Y15197D01*
X12500Y15269D01*
D02*
G37*
G36*
X11500D02*
X10956Y15197D01*
X9983Y14794D01*
X9147Y14153D01*
X8506Y13317D01*
X8103Y12344D01*
X8031Y11800D01*
X11500D01*
Y15269D01*
D02*
G37*
G36*
X16000Y20800D02*
X12500D01*
Y17300D01*
X16000D01*
Y20800D01*
D02*
G37*
G36*
X11500D02*
X8000D01*
Y17300D01*
X11500D01*
Y20800D01*
D02*
G37*
G36*
X232000Y14931D02*
X231060Y14807D01*
X230185Y14445D01*
X229433Y13868D01*
X228855Y13115D01*
X228493Y12240D01*
X228369Y11300D01*
X228493Y10360D01*
X228855Y9484D01*
X229433Y8732D01*
X230185Y8155D01*
X231060Y7793D01*
X232000Y7669D01*
X232940Y7793D01*
X233816Y8155D01*
X234567Y8732D01*
X235145Y9484D01*
X235507Y10360D01*
X235631Y11300D01*
X235507Y12240D01*
X235145Y13115D01*
X234567Y13868D01*
X233816Y14445D01*
X232940Y14807D01*
X232000Y14931D01*
D02*
G37*
G36*
X202000D02*
X201060Y14807D01*
X200184Y14445D01*
X199432Y13868D01*
X198855Y13115D01*
X198493Y12240D01*
X198369Y11300D01*
X198493Y10360D01*
X198855Y9484D01*
X199432Y8732D01*
X200184Y8155D01*
X201060Y7793D01*
X202000Y7669D01*
X202940Y7793D01*
X203816Y8155D01*
X204568Y8732D01*
X205145Y9484D01*
X205507Y10360D01*
X205631Y11300D01*
X205507Y12240D01*
X205145Y13115D01*
X204568Y13868D01*
X203816Y14445D01*
X202940Y14807D01*
X202000Y14931D01*
D02*
G37*
G36*
X192000D02*
X191060Y14807D01*
X190184Y14445D01*
X189432Y13868D01*
X188855Y13115D01*
X188493Y12240D01*
X188369Y11300D01*
X188493Y10360D01*
X188855Y9484D01*
X189432Y8732D01*
X190184Y8155D01*
X191060Y7793D01*
X192000Y7669D01*
X192940Y7793D01*
X193816Y8155D01*
X194568Y8732D01*
X195145Y9484D01*
X195507Y10360D01*
X195631Y11300D01*
X195507Y12240D01*
X195145Y13115D01*
X194568Y13868D01*
X193816Y14445D01*
X192940Y14807D01*
X192000Y14931D01*
D02*
G37*
G36*
X222000D02*
X221060Y14807D01*
X220184Y14445D01*
X219432Y13868D01*
X218855Y13115D01*
X218493Y12240D01*
X218369Y11300D01*
X218493Y10360D01*
X218855Y9484D01*
X219432Y8732D01*
X220184Y8155D01*
X221060Y7793D01*
X222000Y7669D01*
X222940Y7793D01*
X223815Y8155D01*
X224568Y8732D01*
X225145Y9484D01*
X225507Y10360D01*
X225631Y11300D01*
X225507Y12240D01*
X225145Y13115D01*
X224568Y13868D01*
X223815Y14445D01*
X222940Y14807D01*
X222000Y14931D01*
D02*
G37*
G36*
X212000D02*
X211060Y14807D01*
X210185Y14445D01*
X209433Y13868D01*
X208855Y13115D01*
X208493Y12240D01*
X208369Y11300D01*
X208493Y10360D01*
X208855Y9484D01*
X209433Y8732D01*
X210185Y8155D01*
X211060Y7793D01*
X212000Y7669D01*
X212940Y7793D01*
X213815Y8155D01*
X214567Y8732D01*
X215145Y9484D01*
X215507Y10360D01*
X215631Y11300D01*
X215507Y12240D01*
X215145Y13115D01*
X214567Y13868D01*
X213815Y14445D01*
X212940Y14807D01*
X212000Y14931D01*
D02*
G37*
G36*
X22000Y24931D02*
X21060Y24807D01*
X20185Y24445D01*
X19433Y23867D01*
X18855Y23115D01*
X18493Y22240D01*
X18369Y21300D01*
X18493Y20360D01*
X18855Y19485D01*
X19433Y18733D01*
X20185Y18155D01*
X21060Y17793D01*
X22000Y17669D01*
X22940Y17793D01*
X23816Y18155D01*
X24567Y18733D01*
X25145Y19485D01*
X25507Y20360D01*
X25631Y21300D01*
X25507Y22240D01*
X25145Y23115D01*
X24567Y23867D01*
X23816Y24445D01*
X22940Y24807D01*
X22000Y24931D01*
D02*
G37*
G36*
X92000D02*
X91060Y24807D01*
X90184Y24445D01*
X89432Y23867D01*
X88855Y23115D01*
X88493Y22240D01*
X88369Y21300D01*
X88493Y20360D01*
X88855Y19485D01*
X89432Y18733D01*
X90184Y18155D01*
X91060Y17793D01*
X92000Y17669D01*
X92940Y17793D01*
X93815Y18155D01*
X94568Y18733D01*
X95145Y19485D01*
X95507Y20360D01*
X95631Y21300D01*
X95507Y22240D01*
X95145Y23115D01*
X94568Y23867D01*
X93815Y24445D01*
X92940Y24807D01*
X92000Y24931D01*
D02*
G37*
G36*
X82000D02*
X81060Y24807D01*
X80185Y24445D01*
X79432Y23867D01*
X78855Y23115D01*
X78493Y22240D01*
X78369Y21300D01*
X78493Y20360D01*
X78855Y19485D01*
X79432Y18733D01*
X80185Y18155D01*
X81060Y17793D01*
X82000Y17669D01*
X82940Y17793D01*
X83815Y18155D01*
X84568Y18733D01*
X85145Y19485D01*
X85507Y20360D01*
X85631Y21300D01*
X85507Y22240D01*
X85145Y23115D01*
X84568Y23867D01*
X83815Y24445D01*
X82940Y24807D01*
X82000Y24931D01*
D02*
G37*
G36*
X112000D02*
X111060Y24807D01*
X110185Y24445D01*
X109432Y23867D01*
X108855Y23115D01*
X108493Y22240D01*
X108369Y21300D01*
X108493Y20360D01*
X108855Y19485D01*
X109432Y18733D01*
X110185Y18155D01*
X111060Y17793D01*
X112000Y17669D01*
X112940Y17793D01*
X113815Y18155D01*
X114568Y18733D01*
X115145Y19485D01*
X115507Y20360D01*
X115631Y21300D01*
X115507Y22240D01*
X115145Y23115D01*
X114568Y23867D01*
X113815Y24445D01*
X112940Y24807D01*
X112000Y24931D01*
D02*
G37*
G36*
X102000D02*
X101060Y24807D01*
X100185Y24445D01*
X99432Y23867D01*
X98855Y23115D01*
X98493Y22240D01*
X98369Y21300D01*
X98493Y20360D01*
X98855Y19485D01*
X99432Y18733D01*
X100185Y18155D01*
X101060Y17793D01*
X102000Y17669D01*
X102940Y17793D01*
X103815Y18155D01*
X104568Y18733D01*
X105145Y19485D01*
X105507Y20360D01*
X105631Y21300D01*
X105507Y22240D01*
X105145Y23115D01*
X104568Y23867D01*
X103815Y24445D01*
X102940Y24807D01*
X102000Y24931D01*
D02*
G37*
G36*
X72000D02*
X71060Y24807D01*
X70184Y24445D01*
X69432Y23867D01*
X68855Y23115D01*
X68493Y22240D01*
X68369Y21300D01*
X68493Y20360D01*
X68855Y19485D01*
X69432Y18733D01*
X70184Y18155D01*
X71060Y17793D01*
X72000Y17669D01*
X72940Y17793D01*
X73816Y18155D01*
X74568Y18733D01*
X75145Y19485D01*
X75507Y20360D01*
X75631Y21300D01*
X75507Y22240D01*
X75145Y23115D01*
X74568Y23867D01*
X73816Y24445D01*
X72940Y24807D01*
X72000Y24931D01*
D02*
G37*
G36*
X42000D02*
X41060Y24807D01*
X40185Y24445D01*
X39432Y23867D01*
X38855Y23115D01*
X38493Y22240D01*
X38369Y21300D01*
X38493Y20360D01*
X38855Y19485D01*
X39432Y18733D01*
X40185Y18155D01*
X41060Y17793D01*
X42000Y17669D01*
X42940Y17793D01*
X43815Y18155D01*
X44567Y18733D01*
X45145Y19485D01*
X45507Y20360D01*
X45631Y21300D01*
X45507Y22240D01*
X45145Y23115D01*
X44567Y23867D01*
X43815Y24445D01*
X42940Y24807D01*
X42000Y24931D01*
D02*
G37*
G36*
X32000D02*
X31060Y24807D01*
X30185Y24445D01*
X29432Y23867D01*
X28855Y23115D01*
X28493Y22240D01*
X28369Y21300D01*
X28493Y20360D01*
X28855Y19485D01*
X29432Y18733D01*
X30185Y18155D01*
X31060Y17793D01*
X32000Y17669D01*
X32940Y17793D01*
X33816Y18155D01*
X34567Y18733D01*
X35145Y19485D01*
X35507Y20360D01*
X35631Y21300D01*
X35507Y22240D01*
X35145Y23115D01*
X34567Y23867D01*
X33816Y24445D01*
X32940Y24807D01*
X32000Y24931D01*
D02*
G37*
G36*
X62000D02*
X61060Y24807D01*
X60185Y24445D01*
X59432Y23867D01*
X58855Y23115D01*
X58493Y22240D01*
X58369Y21300D01*
X58493Y20360D01*
X58855Y19485D01*
X59432Y18733D01*
X60185Y18155D01*
X61060Y17793D01*
X62000Y17669D01*
X62940Y17793D01*
X63815Y18155D01*
X64568Y18733D01*
X65145Y19485D01*
X65507Y20360D01*
X65631Y21300D01*
X65507Y22240D01*
X65145Y23115D01*
X64568Y23867D01*
X63815Y24445D01*
X62940Y24807D01*
X62000Y24931D01*
D02*
G37*
G36*
X52000D02*
X51060Y24807D01*
X50185Y24445D01*
X49433Y23867D01*
X48855Y23115D01*
X48493Y22240D01*
X48369Y21300D01*
X48493Y20360D01*
X48855Y19485D01*
X49433Y18733D01*
X50185Y18155D01*
X51060Y17793D01*
X52000Y17669D01*
X52940Y17793D01*
X53816Y18155D01*
X54568Y18733D01*
X55145Y19485D01*
X55507Y20360D01*
X55631Y21300D01*
X55507Y22240D01*
X55145Y23115D01*
X54568Y23867D01*
X53816Y24445D01*
X52940Y24807D01*
X52000Y24931D01*
D02*
G37*
G36*
X62000Y14931D02*
X61060Y14807D01*
X60185Y14445D01*
X59432Y13868D01*
X58855Y13115D01*
X58493Y12240D01*
X58369Y11300D01*
X58493Y10360D01*
X58855Y9484D01*
X59432Y8732D01*
X60185Y8155D01*
X61060Y7793D01*
X62000Y7669D01*
X62940Y7793D01*
X63815Y8155D01*
X64568Y8732D01*
X65145Y9484D01*
X65507Y10360D01*
X65631Y11300D01*
X65507Y12240D01*
X65145Y13115D01*
X64568Y13868D01*
X63815Y14445D01*
X62940Y14807D01*
X62000Y14931D01*
D02*
G37*
G36*
X52000D02*
X51060Y14807D01*
X50185Y14445D01*
X49433Y13868D01*
X48855Y13115D01*
X48493Y12240D01*
X48369Y11300D01*
X48493Y10360D01*
X48855Y9484D01*
X49433Y8732D01*
X50185Y8155D01*
X51060Y7793D01*
X52000Y7669D01*
X52940Y7793D01*
X53816Y8155D01*
X54568Y8732D01*
X55145Y9484D01*
X55507Y10360D01*
X55631Y11300D01*
X55507Y12240D01*
X55145Y13115D01*
X54568Y13868D01*
X53816Y14445D01*
X52940Y14807D01*
X52000Y14931D01*
D02*
G37*
G36*
X82000D02*
X81060Y14807D01*
X80185Y14445D01*
X79432Y13868D01*
X78855Y13115D01*
X78493Y12240D01*
X78369Y11300D01*
X78493Y10360D01*
X78855Y9484D01*
X79432Y8732D01*
X80185Y8155D01*
X81060Y7793D01*
X82000Y7669D01*
X82940Y7793D01*
X83815Y8155D01*
X84568Y8732D01*
X85145Y9484D01*
X85507Y10360D01*
X85631Y11300D01*
X85507Y12240D01*
X85145Y13115D01*
X84568Y13868D01*
X83815Y14445D01*
X82940Y14807D01*
X82000Y14931D01*
D02*
G37*
G36*
X72000D02*
X71060Y14807D01*
X70184Y14445D01*
X69432Y13868D01*
X68855Y13115D01*
X68493Y12240D01*
X68369Y11300D01*
X68493Y10360D01*
X68855Y9484D01*
X69432Y8732D01*
X70184Y8155D01*
X71060Y7793D01*
X72000Y7669D01*
X72940Y7793D01*
X73816Y8155D01*
X74568Y8732D01*
X75145Y9484D01*
X75507Y10360D01*
X75631Y11300D01*
X75507Y12240D01*
X75145Y13115D01*
X74568Y13868D01*
X73816Y14445D01*
X72940Y14807D01*
X72000Y14931D01*
D02*
G37*
G36*
X42000D02*
X41060Y14807D01*
X40185Y14445D01*
X39432Y13868D01*
X38855Y13115D01*
X38493Y12240D01*
X38369Y11300D01*
X38493Y10360D01*
X38855Y9484D01*
X39432Y8732D01*
X40185Y8155D01*
X41060Y7793D01*
X42000Y7669D01*
X42940Y7793D01*
X43815Y8155D01*
X44567Y8732D01*
X45145Y9484D01*
X45507Y10360D01*
X45631Y11300D01*
X45507Y12240D01*
X45145Y13115D01*
X44567Y13868D01*
X43815Y14445D01*
X42940Y14807D01*
X42000Y14931D01*
D02*
G37*
G36*
X15969Y10800D02*
X12500D01*
Y7331D01*
X13044Y7403D01*
X14017Y7806D01*
X14853Y8447D01*
X15494Y9283D01*
X15897Y10256D01*
X15969Y10800D01*
D02*
G37*
G36*
X11500D02*
X8031D01*
X8103Y10256D01*
X8506Y9283D01*
X9147Y8447D01*
X9983Y7806D01*
X10956Y7403D01*
X11500Y7331D01*
Y10800D01*
D02*
G37*
G36*
X32000Y14931D02*
X31060Y14807D01*
X30185Y14445D01*
X29432Y13868D01*
X28855Y13115D01*
X28493Y12240D01*
X28369Y11300D01*
X28493Y10360D01*
X28855Y9484D01*
X29432Y8732D01*
X30185Y8155D01*
X31060Y7793D01*
X32000Y7669D01*
X32940Y7793D01*
X33816Y8155D01*
X34567Y8732D01*
X35145Y9484D01*
X35507Y10360D01*
X35631Y11300D01*
X35507Y12240D01*
X35145Y13115D01*
X34567Y13868D01*
X33816Y14445D01*
X32940Y14807D01*
X32000Y14931D01*
D02*
G37*
G36*
X22000D02*
X21060Y14807D01*
X20185Y14445D01*
X19433Y13868D01*
X18855Y13115D01*
X18493Y12240D01*
X18369Y11300D01*
X18493Y10360D01*
X18855Y9484D01*
X19433Y8732D01*
X20185Y8155D01*
X21060Y7793D01*
X22000Y7669D01*
X22940Y7793D01*
X23816Y8155D01*
X24567Y8732D01*
X25145Y9484D01*
X25507Y10360D01*
X25631Y11300D01*
X25507Y12240D01*
X25145Y13115D01*
X24567Y13868D01*
X23816Y14445D01*
X22940Y14807D01*
X22000Y14931D01*
D02*
G37*
G36*
X92000D02*
X91060Y14807D01*
X90184Y14445D01*
X89432Y13868D01*
X88855Y13115D01*
X88493Y12240D01*
X88369Y11300D01*
X88493Y10360D01*
X88855Y9484D01*
X89432Y8732D01*
X90184Y8155D01*
X91060Y7793D01*
X92000Y7669D01*
X92940Y7793D01*
X93815Y8155D01*
X94568Y8732D01*
X95145Y9484D01*
X95507Y10360D01*
X95631Y11300D01*
X95507Y12240D01*
X95145Y13115D01*
X94568Y13868D01*
X93815Y14445D01*
X92940Y14807D01*
X92000Y14931D01*
D02*
G37*
G36*
X162000D02*
X161060Y14807D01*
X160185Y14445D01*
X159432Y13868D01*
X158855Y13115D01*
X158493Y12240D01*
X158369Y11300D01*
X158493Y10360D01*
X158855Y9484D01*
X159432Y8732D01*
X160185Y8155D01*
X161060Y7793D01*
X162000Y7669D01*
X162940Y7793D01*
X163815Y8155D01*
X164568Y8732D01*
X165145Y9484D01*
X165507Y10360D01*
X165631Y11300D01*
X165507Y12240D01*
X165145Y13115D01*
X164568Y13868D01*
X163815Y14445D01*
X162940Y14807D01*
X162000Y14931D01*
D02*
G37*
G36*
X152000D02*
X151060Y14807D01*
X150185Y14445D01*
X149432Y13868D01*
X148855Y13115D01*
X148493Y12240D01*
X148369Y11300D01*
X148493Y10360D01*
X148855Y9484D01*
X149432Y8732D01*
X150185Y8155D01*
X151060Y7793D01*
X152000Y7669D01*
X152940Y7793D01*
X153815Y8155D01*
X154568Y8732D01*
X155145Y9484D01*
X155507Y10360D01*
X155631Y11300D01*
X155507Y12240D01*
X155145Y13115D01*
X154568Y13868D01*
X153815Y14445D01*
X152940Y14807D01*
X152000Y14931D01*
D02*
G37*
G36*
X182000D02*
X181060Y14807D01*
X180184Y14445D01*
X179432Y13868D01*
X178855Y13115D01*
X178493Y12240D01*
X178369Y11300D01*
X178493Y10360D01*
X178855Y9484D01*
X179432Y8732D01*
X180184Y8155D01*
X181060Y7793D01*
X182000Y7669D01*
X182940Y7793D01*
X183816Y8155D01*
X184568Y8732D01*
X185145Y9484D01*
X185507Y10360D01*
X185631Y11300D01*
X185507Y12240D01*
X185145Y13115D01*
X184568Y13868D01*
X183816Y14445D01*
X182940Y14807D01*
X182000Y14931D01*
D02*
G37*
G36*
X172000D02*
X171060Y14807D01*
X170185Y14445D01*
X169432Y13868D01*
X168855Y13115D01*
X168493Y12240D01*
X168369Y11300D01*
X168493Y10360D01*
X168855Y9484D01*
X169432Y8732D01*
X170185Y8155D01*
X171060Y7793D01*
X172000Y7669D01*
X172940Y7793D01*
X173816Y8155D01*
X174568Y8732D01*
X175145Y9484D01*
X175507Y10360D01*
X175631Y11300D01*
X175507Y12240D01*
X175145Y13115D01*
X174568Y13868D01*
X173816Y14445D01*
X172940Y14807D01*
X172000Y14931D01*
D02*
G37*
G36*
X142000D02*
X141060Y14807D01*
X140184Y14445D01*
X139432Y13868D01*
X138855Y13115D01*
X138493Y12240D01*
X138369Y11300D01*
X138493Y10360D01*
X138855Y9484D01*
X139432Y8732D01*
X140184Y8155D01*
X141060Y7793D01*
X142000Y7669D01*
X142940Y7793D01*
X143816Y8155D01*
X144568Y8732D01*
X145145Y9484D01*
X145507Y10360D01*
X145631Y11300D01*
X145507Y12240D01*
X145145Y13115D01*
X144568Y13868D01*
X143816Y14445D01*
X142940Y14807D01*
X142000Y14931D01*
D02*
G37*
G36*
X112000D02*
X111060Y14807D01*
X110185Y14445D01*
X109432Y13868D01*
X108855Y13115D01*
X108493Y12240D01*
X108369Y11300D01*
X108493Y10360D01*
X108855Y9484D01*
X109432Y8732D01*
X110185Y8155D01*
X111060Y7793D01*
X112000Y7669D01*
X112940Y7793D01*
X113815Y8155D01*
X114568Y8732D01*
X115145Y9484D01*
X115507Y10360D01*
X115631Y11300D01*
X115507Y12240D01*
X115145Y13115D01*
X114568Y13868D01*
X113815Y14445D01*
X112940Y14807D01*
X112000Y14931D01*
D02*
G37*
G36*
X102000D02*
X101060Y14807D01*
X100185Y14445D01*
X99432Y13868D01*
X98855Y13115D01*
X98493Y12240D01*
X98369Y11300D01*
X98493Y10360D01*
X98855Y9484D01*
X99432Y8732D01*
X100185Y8155D01*
X101060Y7793D01*
X102000Y7669D01*
X102940Y7793D01*
X103815Y8155D01*
X104568Y8732D01*
X105145Y9484D01*
X105507Y10360D01*
X105631Y11300D01*
X105507Y12240D01*
X105145Y13115D01*
X104568Y13868D01*
X103815Y14445D01*
X102940Y14807D01*
X102000Y14931D01*
D02*
G37*
G36*
X132000D02*
X131060Y14807D01*
X130184Y14445D01*
X129432Y13868D01*
X128855Y13115D01*
X128493Y12240D01*
X128369Y11300D01*
X128493Y10360D01*
X128855Y9484D01*
X129432Y8732D01*
X130184Y8155D01*
X131060Y7793D01*
X132000Y7669D01*
X132940Y7793D01*
X133816Y8155D01*
X134568Y8732D01*
X135145Y9484D01*
X135507Y10360D01*
X135631Y11300D01*
X135507Y12240D01*
X135145Y13115D01*
X134568Y13868D01*
X133816Y14445D01*
X132940Y14807D01*
X132000Y14931D01*
D02*
G37*
G36*
X122000D02*
X121060Y14807D01*
X120185Y14445D01*
X119432Y13868D01*
X118855Y13115D01*
X118493Y12240D01*
X118369Y11300D01*
X118493Y10360D01*
X118855Y9484D01*
X119432Y8732D01*
X120185Y8155D01*
X121060Y7793D01*
X122000Y7669D01*
X122940Y7793D01*
X123816Y8155D01*
X124568Y8732D01*
X125145Y9484D01*
X125507Y10360D01*
X125631Y11300D01*
X125507Y12240D01*
X125145Y13115D01*
X124568Y13868D01*
X123816Y14445D01*
X122940Y14807D01*
X122000Y14931D01*
D02*
G37*
G36*
X170200Y47700D02*
X168556D01*
X168628Y47342D01*
X169114Y46614D01*
X169842Y46128D01*
X170200Y46056D01*
Y47700D01*
D02*
G37*
G36*
X123389Y50811D02*
X122452Y50625D01*
X121658Y50094D01*
X121128Y49300D01*
X120942Y48364D01*
X121128Y47428D01*
X121658Y46634D01*
X122452Y46103D01*
X123389Y45917D01*
X124325Y46103D01*
X125119Y46634D01*
X125649Y47428D01*
X125836Y48364D01*
X125649Y49300D01*
X125119Y50094D01*
X124325Y50625D01*
X123389Y50811D01*
D02*
G37*
G36*
X191893Y47737D02*
X190249D01*
X190320Y47379D01*
X190806Y46651D01*
X191534Y46165D01*
X191893Y46094D01*
Y47737D01*
D02*
G37*
G36*
X172844Y47700D02*
X171200D01*
Y46056D01*
X171558Y46128D01*
X172286Y46614D01*
X172772Y47342D01*
X172844Y47700D01*
D02*
G37*
G36*
X176645Y49580D02*
X175942Y49440D01*
X175347Y49042D01*
X174949Y48447D01*
X174809Y47745D01*
X174949Y47042D01*
X175347Y46447D01*
X175942Y46049D01*
X176645Y45909D01*
X177347Y46049D01*
X177942Y46447D01*
X178340Y47042D01*
X178480Y47745D01*
X178340Y48447D01*
X177942Y49042D01*
X177347Y49440D01*
X176645Y49580D01*
D02*
G37*
G36*
X100539Y46238D02*
Y44594D01*
X102183D01*
X102112Y44953D01*
X101626Y45681D01*
X100898Y46167D01*
X100539Y46238D01*
D02*
G37*
G36*
X99539D02*
X99181Y46167D01*
X98453Y45681D01*
X97967Y44953D01*
X97896Y44594D01*
X99539D01*
Y46238D01*
D02*
G37*
G36*
X184694Y47404D02*
X183050D01*
Y45761D01*
X183408Y45832D01*
X184136Y46318D01*
X184622Y47046D01*
X184694Y47404D01*
D02*
G37*
G36*
X182050D02*
X180406D01*
X180478Y47046D01*
X180964Y46318D01*
X181692Y45832D01*
X182050Y45761D01*
Y47404D01*
D02*
G37*
G36*
X194536Y47737D02*
X192893D01*
Y46094D01*
X193251Y46165D01*
X193979Y46651D01*
X194465Y47379D01*
X194536Y47737D01*
D02*
G37*
G36*
X170200Y50344D02*
X169842Y50272D01*
X169114Y49786D01*
X168628Y49058D01*
X168556Y48700D01*
X170200D01*
Y50344D01*
D02*
G37*
G36*
X208800Y52135D02*
X208098Y51996D01*
X207502Y51598D01*
X207104Y51002D01*
X206965Y50300D01*
X207104Y49598D01*
X207502Y49002D01*
X208098Y48604D01*
X208800Y48465D01*
X209502Y48604D01*
X210098Y49002D01*
X210496Y49598D01*
X210635Y50300D01*
X210496Y51002D01*
X210098Y51598D01*
X209502Y51996D01*
X208800Y52135D01*
D02*
G37*
G36*
X191893Y50381D02*
X191534Y50310D01*
X190806Y49823D01*
X190320Y49096D01*
X190249Y48737D01*
X191893D01*
Y50381D01*
D02*
G37*
G36*
X171200Y50344D02*
Y48700D01*
X172844D01*
X172772Y49058D01*
X172286Y49786D01*
X171558Y50272D01*
X171200Y50344D01*
D02*
G37*
G36*
X183050Y50048D02*
Y48404D01*
X184694D01*
X184622Y48763D01*
X184136Y49490D01*
X183408Y49977D01*
X183050Y50048D01*
D02*
G37*
G36*
X206238Y48083D02*
X204594D01*
Y46439D01*
X204953Y46510D01*
X205681Y46997D01*
X206167Y47724D01*
X206238Y48083D01*
D02*
G37*
G36*
X203594D02*
X201951D01*
X202022Y47724D01*
X202508Y46997D01*
X203236Y46510D01*
X203594Y46439D01*
Y48083D01*
D02*
G37*
G36*
X182050Y50048D02*
X181692Y49977D01*
X180964Y49490D01*
X180478Y48763D01*
X180406Y48404D01*
X182050D01*
Y50048D01*
D02*
G37*
G36*
X198298Y50798D02*
X197596Y50659D01*
X197000Y50261D01*
X196602Y49665D01*
X196463Y48963D01*
X196602Y48261D01*
X197000Y47665D01*
X197596Y47267D01*
X198298Y47128D01*
X199000Y47267D01*
X199596Y47665D01*
X199994Y48261D01*
X200133Y48963D01*
X199994Y49665D01*
X199596Y50261D01*
X199000Y50659D01*
X198298Y50798D01*
D02*
G37*
G36*
X182000Y24931D02*
X181060Y24807D01*
X180184Y24445D01*
X179432Y23867D01*
X178855Y23115D01*
X178493Y22240D01*
X178369Y21300D01*
X178493Y20360D01*
X178855Y19485D01*
X179432Y18733D01*
X180184Y18155D01*
X181060Y17793D01*
X182000Y17669D01*
X182940Y17793D01*
X183816Y18155D01*
X184568Y18733D01*
X185145Y19485D01*
X185507Y20360D01*
X185631Y21300D01*
X185507Y22240D01*
X185145Y23115D01*
X184568Y23867D01*
X183816Y24445D01*
X182940Y24807D01*
X182000Y24931D01*
D02*
G37*
G36*
X172000D02*
X171060Y24807D01*
X170185Y24445D01*
X169432Y23867D01*
X168855Y23115D01*
X168493Y22240D01*
X168369Y21300D01*
X168493Y20360D01*
X168855Y19485D01*
X169432Y18733D01*
X170185Y18155D01*
X171060Y17793D01*
X172000Y17669D01*
X172940Y17793D01*
X173816Y18155D01*
X174568Y18733D01*
X175145Y19485D01*
X175507Y20360D01*
X175631Y21300D01*
X175507Y22240D01*
X175145Y23115D01*
X174568Y23867D01*
X173816Y24445D01*
X172940Y24807D01*
X172000Y24931D01*
D02*
G37*
G36*
X202000D02*
X201060Y24807D01*
X200184Y24445D01*
X199432Y23867D01*
X198855Y23115D01*
X198493Y22240D01*
X198369Y21300D01*
X198493Y20360D01*
X198855Y19485D01*
X199432Y18733D01*
X200184Y18155D01*
X201060Y17793D01*
X202000Y17669D01*
X202940Y17793D01*
X203816Y18155D01*
X204568Y18733D01*
X205145Y19485D01*
X205507Y20360D01*
X205631Y21300D01*
X205507Y22240D01*
X205145Y23115D01*
X204568Y23867D01*
X203816Y24445D01*
X202940Y24807D01*
X202000Y24931D01*
D02*
G37*
G36*
X192000D02*
X191060Y24807D01*
X190184Y24445D01*
X189432Y23867D01*
X188855Y23115D01*
X188493Y22240D01*
X188369Y21300D01*
X188493Y20360D01*
X188855Y19485D01*
X189432Y18733D01*
X190184Y18155D01*
X191060Y17793D01*
X192000Y17669D01*
X192940Y17793D01*
X193816Y18155D01*
X194568Y18733D01*
X195145Y19485D01*
X195507Y20360D01*
X195631Y21300D01*
X195507Y22240D01*
X195145Y23115D01*
X194568Y23867D01*
X193816Y24445D01*
X192940Y24807D01*
X192000Y24931D01*
D02*
G37*
G36*
X162000D02*
X161060Y24807D01*
X160185Y24445D01*
X159432Y23867D01*
X158855Y23115D01*
X158493Y22240D01*
X158369Y21300D01*
X158493Y20360D01*
X158855Y19485D01*
X159432Y18733D01*
X160185Y18155D01*
X161060Y17793D01*
X162000Y17669D01*
X162940Y17793D01*
X163815Y18155D01*
X164568Y18733D01*
X165145Y19485D01*
X165507Y20360D01*
X165631Y21300D01*
X165507Y22240D01*
X165145Y23115D01*
X164568Y23867D01*
X163815Y24445D01*
X162940Y24807D01*
X162000Y24931D01*
D02*
G37*
G36*
X132000D02*
X131060Y24807D01*
X130184Y24445D01*
X129432Y23867D01*
X128855Y23115D01*
X128493Y22240D01*
X128369Y21300D01*
X128493Y20360D01*
X128855Y19485D01*
X129432Y18733D01*
X130184Y18155D01*
X131060Y17793D01*
X132000Y17669D01*
X132940Y17793D01*
X133816Y18155D01*
X134568Y18733D01*
X135145Y19485D01*
X135507Y20360D01*
X135631Y21300D01*
X135507Y22240D01*
X135145Y23115D01*
X134568Y23867D01*
X133816Y24445D01*
X132940Y24807D01*
X132000Y24931D01*
D02*
G37*
G36*
X122000D02*
X121060Y24807D01*
X120185Y24445D01*
X119432Y23867D01*
X118855Y23115D01*
X118493Y22240D01*
X118369Y21300D01*
X118493Y20360D01*
X118855Y19485D01*
X119432Y18733D01*
X120185Y18155D01*
X121060Y17793D01*
X122000Y17669D01*
X122940Y17793D01*
X123816Y18155D01*
X124568Y18733D01*
X125145Y19485D01*
X125507Y20360D01*
X125631Y21300D01*
X125507Y22240D01*
X125145Y23115D01*
X124568Y23867D01*
X123816Y24445D01*
X122940Y24807D01*
X122000Y24931D01*
D02*
G37*
G36*
X152000D02*
X151060Y24807D01*
X150185Y24445D01*
X149432Y23867D01*
X148855Y23115D01*
X148493Y22240D01*
X148369Y21300D01*
X148493Y20360D01*
X148855Y19485D01*
X149432Y18733D01*
X150185Y18155D01*
X151060Y17793D01*
X152000Y17669D01*
X152940Y17793D01*
X153815Y18155D01*
X154568Y18733D01*
X155145Y19485D01*
X155507Y20360D01*
X155631Y21300D01*
X155507Y22240D01*
X155145Y23115D01*
X154568Y23867D01*
X153815Y24445D01*
X152940Y24807D01*
X152000Y24931D01*
D02*
G37*
G36*
X142000D02*
X141060Y24807D01*
X140184Y24445D01*
X139432Y23867D01*
X138855Y23115D01*
X138493Y22240D01*
X138369Y21300D01*
X138493Y20360D01*
X138855Y19485D01*
X139432Y18733D01*
X140184Y18155D01*
X141060Y17793D01*
X142000Y17669D01*
X142940Y17793D01*
X143816Y18155D01*
X144568Y18733D01*
X145145Y19485D01*
X145507Y20360D01*
X145631Y21300D01*
X145507Y22240D01*
X145145Y23115D01*
X144568Y23867D01*
X143816Y24445D01*
X142940Y24807D01*
X142000Y24931D01*
D02*
G37*
G36*
X212000D02*
X211060Y24807D01*
X210185Y24445D01*
X209433Y23867D01*
X208855Y23115D01*
X208493Y22240D01*
X208369Y21300D01*
X208493Y20360D01*
X208855Y19485D01*
X209433Y18733D01*
X210185Y18155D01*
X211060Y17793D01*
X212000Y17669D01*
X212940Y17793D01*
X213815Y18155D01*
X214567Y18733D01*
X215145Y19485D01*
X215507Y20360D01*
X215631Y21300D01*
X215507Y22240D01*
X215145Y23115D01*
X214567Y23867D01*
X213815Y24445D01*
X212940Y24807D01*
X212000Y24931D01*
D02*
G37*
G36*
X154991Y43000D02*
X154289Y42861D01*
X153693Y42463D01*
X153295Y41868D01*
X153156Y41165D01*
X153295Y40463D01*
X153693Y39867D01*
X154289Y39470D01*
X154991Y39330D01*
X155693Y39470D01*
X156289Y39867D01*
X156687Y40463D01*
X156826Y41165D01*
X156687Y41868D01*
X156289Y42463D01*
X155693Y42861D01*
X154991Y43000D01*
D02*
G37*
G36*
X214833Y43000D02*
X214131Y42861D01*
X213536Y42463D01*
X213138Y41868D01*
X212998Y41165D01*
X213138Y40463D01*
X213536Y39867D01*
X214131Y39470D01*
X214833Y39330D01*
X215536Y39470D01*
X216131Y39867D01*
X216529Y40463D01*
X216669Y41165D01*
X216529Y41868D01*
X216131Y42463D01*
X215536Y42861D01*
X214833Y43000D01*
D02*
G37*
G36*
X102183Y43595D02*
X100539D01*
Y41951D01*
X100898Y42022D01*
X101626Y42508D01*
X102112Y43236D01*
X102183Y43595D01*
D02*
G37*
G36*
X99539D02*
X97896D01*
X97967Y43236D01*
X98453Y42508D01*
X99181Y42022D01*
X99539Y41951D01*
Y43595D01*
D02*
G37*
G36*
X89016Y34101D02*
X88079Y33914D01*
X87286Y33384D01*
X86755Y32590D01*
X86569Y31653D01*
X86755Y30717D01*
X87286Y29923D01*
X88079Y29393D01*
X89016Y29206D01*
X89952Y29393D01*
X90746Y29923D01*
X91277Y30717D01*
X91463Y31653D01*
X91277Y32590D01*
X90746Y33384D01*
X89952Y33914D01*
X89016Y34101D01*
D02*
G37*
G36*
X232000Y24931D02*
X231060Y24807D01*
X230185Y24445D01*
X229433Y23867D01*
X228855Y23115D01*
X228493Y22240D01*
X228369Y21300D01*
X228493Y20360D01*
X228855Y19485D01*
X229433Y18733D01*
X230185Y18155D01*
X231060Y17793D01*
X232000Y17669D01*
X232940Y17793D01*
X233816Y18155D01*
X234567Y18733D01*
X235145Y19485D01*
X235507Y20360D01*
X235631Y21300D01*
X235507Y22240D01*
X235145Y23115D01*
X234567Y23867D01*
X233816Y24445D01*
X232940Y24807D01*
X232000Y24931D01*
D02*
G37*
G36*
X222000D02*
X221060Y24807D01*
X220184Y24445D01*
X219432Y23867D01*
X218855Y23115D01*
X218493Y22240D01*
X218369Y21300D01*
X218493Y20360D01*
X218855Y19485D01*
X219432Y18733D01*
X220184Y18155D01*
X221060Y17793D01*
X222000Y17669D01*
X222940Y17793D01*
X223815Y18155D01*
X224568Y18733D01*
X225145Y19485D01*
X225507Y20360D01*
X225631Y21300D01*
X225507Y22240D01*
X225145Y23115D01*
X224568Y23867D01*
X223815Y24445D01*
X222940Y24807D01*
X222000Y24931D01*
D02*
G37*
G36*
X16000Y25300D02*
X12500D01*
Y21800D01*
X16000D01*
Y25300D01*
D02*
G37*
G36*
X11500D02*
X8000D01*
Y21800D01*
X11500D01*
Y25300D01*
D02*
G37*
G36*
X186600Y178989D02*
X185898Y178849D01*
X185302Y178452D01*
X184904Y177856D01*
X184765Y177154D01*
X184904Y176452D01*
X185302Y175856D01*
X185898Y175458D01*
X186600Y175319D01*
X187302Y175458D01*
X187898Y175856D01*
X188296Y176452D01*
X188435Y177154D01*
X188296Y177856D01*
X187898Y178452D01*
X187302Y178849D01*
X186600Y178989D01*
D02*
G37*
G36*
X197823Y179601D02*
X196887Y179415D01*
X196093Y178884D01*
X195562Y178090D01*
X195376Y177154D01*
X195562Y176217D01*
X196093Y175424D01*
X196887Y174893D01*
X197823Y174707D01*
X198759Y174893D01*
X199553Y175424D01*
X200084Y176217D01*
X200270Y177154D01*
X200084Y178090D01*
X199553Y178884D01*
X198759Y179415D01*
X197823Y179601D01*
D02*
G37*
G36*
X224663Y178032D02*
X223020D01*
Y176388D01*
X223378Y176459D01*
X224106Y176946D01*
X224592Y177673D01*
X224663Y178032D01*
D02*
G37*
G36*
X222020D02*
X220376D01*
X220447Y177673D01*
X220934Y176946D01*
X221661Y176459D01*
X222020Y176388D01*
Y178032D01*
D02*
G37*
G36*
X239453Y177853D02*
X232347D01*
Y170747D01*
X239453D01*
Y177853D01*
D02*
G37*
G36*
X185019Y169514D02*
Y167256D01*
X187277D01*
X187247Y167487D01*
X186964Y168168D01*
X186515Y168753D01*
X185931Y169202D01*
X185249Y169484D01*
X185019Y169514D01*
D02*
G37*
G36*
X184019D02*
X183788Y169484D01*
X183107Y169202D01*
X182522Y168753D01*
X182073Y168168D01*
X181791Y167487D01*
X181760Y167256D01*
X184019D01*
Y169514D01*
D02*
G37*
G36*
X172700Y172135D02*
X171998Y171996D01*
X171402Y171598D01*
X171004Y171002D01*
X170865Y170300D01*
X171004Y169598D01*
X171402Y169002D01*
X171998Y168604D01*
X172700Y168465D01*
X173402Y168604D01*
X173998Y169002D01*
X174396Y169598D01*
X174535Y170300D01*
X174396Y171002D01*
X173998Y171598D01*
X173402Y171996D01*
X172700Y172135D01*
D02*
G37*
G36*
X203013Y173072D02*
X202077Y172886D01*
X201283Y172355D01*
X200752Y171562D01*
X200566Y170625D01*
X200752Y169689D01*
X201283Y168895D01*
X202077Y168364D01*
X203013Y168178D01*
X203949Y168364D01*
X204743Y168895D01*
X205274Y169689D01*
X205460Y170625D01*
X205274Y171562D01*
X204743Y172355D01*
X203949Y172886D01*
X203013Y173072D01*
D02*
G37*
G36*
X160600Y182035D02*
X159898Y181896D01*
X159302Y181498D01*
X158904Y180902D01*
X158765Y180200D01*
X158904Y179498D01*
X159302Y178902D01*
X159898Y178504D01*
X160600Y178365D01*
X161302Y178504D01*
X161898Y178902D01*
X162296Y179498D01*
X162435Y180200D01*
X162296Y180902D01*
X161898Y181498D01*
X161302Y181896D01*
X160600Y182035D01*
D02*
G37*
G36*
X195028Y186159D02*
Y184516D01*
X196671D01*
X196600Y184874D01*
X196114Y185602D01*
X195386Y186088D01*
X195028Y186159D01*
D02*
G37*
G36*
X194028D02*
X193669Y186088D01*
X192941Y185602D01*
X192455Y184874D01*
X192384Y184516D01*
X194028D01*
Y186159D01*
D02*
G37*
G36*
X15921Y200797D02*
X12500D01*
Y197376D01*
X13032Y197446D01*
X13994Y197844D01*
X14820Y198478D01*
X15453Y199303D01*
X15851Y200265D01*
X15921Y200797D01*
D02*
G37*
G36*
X11500D02*
X8079D01*
X8149Y200265D01*
X8548Y199303D01*
X9181Y198478D01*
X10007Y197844D01*
X10968Y197446D01*
X11500Y197376D01*
Y200797D01*
D02*
G37*
G36*
X196671Y183516D02*
X195028D01*
Y181872D01*
X195386Y181943D01*
X196114Y182430D01*
X196600Y183157D01*
X196671Y183516D01*
D02*
G37*
G36*
X223020Y180675D02*
Y179032D01*
X224663D01*
X224592Y179390D01*
X224106Y180118D01*
X223378Y180604D01*
X223020Y180675D01*
D02*
G37*
G36*
X222020D02*
X221661Y180604D01*
X220934Y180118D01*
X220447Y179390D01*
X220376Y179032D01*
X222020D01*
Y180675D01*
D02*
G37*
G36*
X194028Y183516D02*
X192384D01*
X192455Y183157D01*
X192941Y182430D01*
X193669Y181943D01*
X194028Y181872D01*
Y183516D01*
D02*
G37*
G36*
X232638Y185439D02*
X231701Y185253D01*
X230908Y184722D01*
X230377Y183929D01*
X230191Y182992D01*
X230377Y182056D01*
X230908Y181262D01*
X231701Y180731D01*
X232638Y180545D01*
X233574Y180731D01*
X234368Y181262D01*
X234898Y182056D01*
X235085Y182992D01*
X234898Y183929D01*
X234368Y184722D01*
X233574Y185253D01*
X232638Y185439D01*
D02*
G37*
G36*
X160197Y151127D02*
X159494Y150987D01*
X158899Y150589D01*
X158501Y149994D01*
X158362Y149291D01*
X158501Y148589D01*
X158899Y147994D01*
X159494Y147596D01*
X160197Y147456D01*
X160899Y147596D01*
X161495Y147994D01*
X161892Y148589D01*
X162032Y149291D01*
X161892Y149994D01*
X161495Y150589D01*
X160899Y150987D01*
X160197Y151127D01*
D02*
G37*
G36*
X239453Y153553D02*
X232347D01*
Y146447D01*
X239453D01*
Y153553D01*
D02*
G37*
G36*
X144757Y151689D02*
X142499D01*
Y149431D01*
X142730Y149461D01*
X143411Y149743D01*
X143996Y150192D01*
X144445Y150777D01*
X144727Y151458D01*
X144757Y151689D01*
D02*
G37*
G36*
X141499D02*
X139241D01*
X139271Y151458D01*
X139553Y150777D01*
X140002Y150192D01*
X140587Y149743D01*
X141268Y149461D01*
X141499Y149431D01*
Y151689D01*
D02*
G37*
G36*
X196508Y144506D02*
X196150Y144434D01*
X195422Y143948D01*
X194800Y143919D01*
X194323Y144238D01*
X193965Y144309D01*
Y142165D01*
Y140022D01*
X194323Y140093D01*
X195051Y140579D01*
X195672Y140609D01*
X196150Y140290D01*
X196508Y140219D01*
Y142362D01*
Y144506D01*
D02*
G37*
G36*
X168004Y143569D02*
X167646Y143497D01*
X166918Y143011D01*
X166432Y142283D01*
X166360Y141925D01*
X168004D01*
Y143569D01*
D02*
G37*
G36*
X117696Y144183D02*
Y141925D01*
X119954D01*
X119924Y142156D01*
X119641Y142837D01*
X119193Y143422D01*
X118608Y143871D01*
X117927Y144153D01*
X117696Y144183D01*
D02*
G37*
G36*
X197508Y144506D02*
Y142862D01*
X199152D01*
X199080Y143221D01*
X198594Y143948D01*
X197866Y144434D01*
X197508Y144506D01*
D02*
G37*
G36*
X169004Y143569D02*
Y141925D01*
X170648D01*
X170576Y142283D01*
X170090Y143011D01*
X169362Y143497D01*
X169004Y143569D01*
D02*
G37*
G36*
X58480Y158518D02*
X57344Y158368D01*
X56286Y157930D01*
X55378Y157232D01*
X54680Y156324D01*
X54242Y155266D01*
X54093Y154130D01*
X54242Y152994D01*
X54680Y151936D01*
X55378Y151028D01*
X56286Y150330D01*
X57344Y149892D01*
X58480Y149742D01*
X59616Y149892D01*
X60674Y150330D01*
X61582Y151028D01*
X62280Y151936D01*
X62718Y152994D01*
X62867Y154130D01*
X62718Y155266D01*
X62280Y156324D01*
X61582Y157232D01*
X60674Y157930D01*
X59616Y158368D01*
X58480Y158518D01*
D02*
G37*
G36*
X113819Y166817D02*
X112882Y166631D01*
X112089Y166100D01*
X111558Y165306D01*
X111372Y164370D01*
X111558Y163434D01*
X112089Y162640D01*
X112882Y162109D01*
X113819Y161923D01*
X114755Y162109D01*
X115549Y162640D01*
X116080Y163434D01*
X116266Y164370D01*
X116080Y165306D01*
X115549Y166100D01*
X114755Y166631D01*
X113819Y166817D01*
D02*
G37*
G36*
X189243Y160541D02*
X188306Y160355D01*
X187513Y159825D01*
X186982Y159031D01*
X186796Y158094D01*
X186982Y157158D01*
X187513Y156364D01*
X188306Y155833D01*
X189243Y155647D01*
X190179Y155833D01*
X190973Y156364D01*
X191504Y157158D01*
X191690Y158094D01*
X191504Y159031D01*
X190973Y159825D01*
X190179Y160355D01*
X189243Y160541D01*
D02*
G37*
G36*
X187277Y166256D02*
X185019D01*
Y163997D01*
X185249Y164028D01*
X185931Y164310D01*
X186515Y164759D01*
X186964Y165344D01*
X187247Y166025D01*
X187277Y166256D01*
D02*
G37*
G36*
X184019D02*
X181760D01*
X181791Y166025D01*
X182073Y165344D01*
X182522Y164759D01*
X183107Y164310D01*
X183788Y164028D01*
X184019Y163997D01*
Y166256D01*
D02*
G37*
G36*
X83744Y157448D02*
X83513Y157418D01*
X82832Y157136D01*
X82247Y156687D01*
X81798Y156102D01*
X81516Y155421D01*
X81486Y155190D01*
X83744D01*
Y157448D01*
D02*
G37*
G36*
Y154190D02*
X81486D01*
X81516Y153959D01*
X81798Y153278D01*
X82247Y152693D01*
X82832Y152244D01*
X83513Y151962D01*
X83744Y151932D01*
Y154190D01*
D02*
G37*
G36*
X84744Y157448D02*
Y154690D01*
Y151932D01*
X84975Y151962D01*
X85656Y152244D01*
X86241Y152693D01*
X86690Y153278D01*
X86804Y153555D01*
X87325Y153503D01*
X87464Y152804D01*
X87994Y152010D01*
X88788Y151479D01*
X89724Y151293D01*
X90661Y151479D01*
X91455Y152010D01*
X91985Y152804D01*
X92171Y153740D01*
X91985Y154677D01*
X91455Y155471D01*
X90661Y156001D01*
X89724Y156187D01*
X88788Y156001D01*
X87994Y155471D01*
X87556Y154815D01*
X87039Y154910D01*
X86972Y155421D01*
X86690Y156102D01*
X86241Y156687D01*
X85656Y157136D01*
X84975Y157418D01*
X84744Y157448D01*
D02*
G37*
G36*
X142499Y154947D02*
Y152689D01*
X144757D01*
X144727Y152920D01*
X144445Y153601D01*
X143996Y154186D01*
X143411Y154635D01*
X142730Y154917D01*
X142499Y154947D01*
D02*
G37*
G36*
X141499D02*
X141268Y154917D01*
X140587Y154635D01*
X140002Y154186D01*
X139553Y153601D01*
X139271Y152920D01*
X139241Y152689D01*
X141499D01*
Y154947D01*
D02*
G37*
G36*
X22000Y204880D02*
X21073Y204758D01*
X20209Y204400D01*
X19467Y203831D01*
X18897Y203089D01*
X18539Y202224D01*
X18417Y201297D01*
X18539Y200370D01*
X18897Y199505D01*
X19467Y198763D01*
X20209Y198194D01*
X21073Y197836D01*
X22000Y197714D01*
X22928Y197836D01*
X23792Y198194D01*
X24534Y198763D01*
X25104Y199505D01*
X25462Y200370D01*
X25584Y201297D01*
X25462Y202224D01*
X25104Y203089D01*
X24534Y203831D01*
X23792Y204400D01*
X22928Y204758D01*
X22000Y204880D01*
D02*
G37*
G36*
X62000Y214880D02*
X61073Y214758D01*
X60209Y214400D01*
X59467Y213831D01*
X58897Y213089D01*
X58539Y212224D01*
X58417Y211297D01*
X58539Y210369D01*
X58897Y209505D01*
X59467Y208763D01*
X60209Y208194D01*
X61073Y207836D01*
X62000Y207714D01*
X62928Y207836D01*
X63792Y208194D01*
X64534Y208763D01*
X65104Y209505D01*
X65462Y210369D01*
X65584Y211297D01*
X65462Y212224D01*
X65104Y213089D01*
X64534Y213831D01*
X63792Y214400D01*
X62928Y214758D01*
X62000Y214880D01*
D02*
G37*
G36*
X52000D02*
X51073Y214758D01*
X50209Y214400D01*
X49467Y213831D01*
X48897Y213089D01*
X48539Y212224D01*
X48417Y211297D01*
X48539Y210369D01*
X48897Y209505D01*
X49467Y208763D01*
X50209Y208194D01*
X51073Y207836D01*
X52000Y207714D01*
X52928Y207836D01*
X53792Y208194D01*
X54534Y208763D01*
X55104Y209505D01*
X55462Y210369D01*
X55584Y211297D01*
X55462Y212224D01*
X55104Y213089D01*
X54534Y213831D01*
X53792Y214400D01*
X52928Y214758D01*
X52000Y214880D01*
D02*
G37*
G36*
X82000D02*
X81073Y214758D01*
X80209Y214400D01*
X79467Y213831D01*
X78897Y213089D01*
X78539Y212224D01*
X78417Y211297D01*
X78539Y210369D01*
X78897Y209505D01*
X79467Y208763D01*
X80209Y208194D01*
X81073Y207836D01*
X82000Y207714D01*
X82928Y207836D01*
X83792Y208194D01*
X84534Y208763D01*
X85104Y209505D01*
X85462Y210369D01*
X85584Y211297D01*
X85462Y212224D01*
X85104Y213089D01*
X84534Y213831D01*
X83792Y214400D01*
X82928Y214758D01*
X82000Y214880D01*
D02*
G37*
G36*
X72000D02*
X71073Y214758D01*
X70209Y214400D01*
X69467Y213831D01*
X68897Y213089D01*
X68539Y212224D01*
X68417Y211297D01*
X68539Y210369D01*
X68897Y209505D01*
X69467Y208763D01*
X70209Y208194D01*
X71073Y207836D01*
X72000Y207714D01*
X72928Y207836D01*
X73792Y208194D01*
X74534Y208763D01*
X75104Y209505D01*
X75462Y210369D01*
X75584Y211297D01*
X75462Y212224D01*
X75104Y213089D01*
X74534Y213831D01*
X73792Y214400D01*
X72928Y214758D01*
X72000Y214880D01*
D02*
G37*
G36*
X42000D02*
X41073Y214758D01*
X40209Y214400D01*
X39467Y213831D01*
X38897Y213089D01*
X38539Y212224D01*
X38417Y211297D01*
X38539Y210369D01*
X38897Y209505D01*
X39467Y208763D01*
X40209Y208194D01*
X41073Y207836D01*
X42000Y207714D01*
X42928Y207836D01*
X43792Y208194D01*
X44534Y208763D01*
X45104Y209505D01*
X45462Y210369D01*
X45584Y211297D01*
X45462Y212224D01*
X45104Y213089D01*
X44534Y213831D01*
X43792Y214400D01*
X42928Y214758D01*
X42000Y214880D01*
D02*
G37*
G36*
X15953Y210797D02*
X12500D01*
Y207344D01*
X15953D01*
Y210797D01*
D02*
G37*
G36*
X11500D02*
X8048D01*
Y207344D01*
X11500D01*
Y210797D01*
D02*
G37*
G36*
X32000Y214880D02*
X31073Y214758D01*
X30209Y214400D01*
X29467Y213831D01*
X28897Y213089D01*
X28539Y212224D01*
X28417Y211297D01*
X28539Y210369D01*
X28897Y209505D01*
X29467Y208763D01*
X30209Y208194D01*
X31073Y207836D01*
X32000Y207714D01*
X32928Y207836D01*
X33792Y208194D01*
X34534Y208763D01*
X35104Y209505D01*
X35462Y210369D01*
X35584Y211297D01*
X35462Y212224D01*
X35104Y213089D01*
X34534Y213831D01*
X33792Y214400D01*
X32928Y214758D01*
X32000Y214880D01*
D02*
G37*
G36*
X22000D02*
X21073Y214758D01*
X20209Y214400D01*
X19467Y213831D01*
X18897Y213089D01*
X18539Y212224D01*
X18417Y211297D01*
X18539Y210369D01*
X18897Y209505D01*
X19467Y208763D01*
X20209Y208194D01*
X21073Y207836D01*
X22000Y207714D01*
X22928Y207836D01*
X23792Y208194D01*
X24534Y208763D01*
X25104Y209505D01*
X25462Y210369D01*
X25584Y211297D01*
X25462Y212224D01*
X25104Y213089D01*
X24534Y213831D01*
X23792Y214400D01*
X22928Y214758D01*
X22000Y214880D01*
D02*
G37*
G36*
X92000D02*
X91073Y214758D01*
X90209Y214400D01*
X89467Y213831D01*
X88897Y213089D01*
X88539Y212224D01*
X88417Y211297D01*
X88539Y210369D01*
X88897Y209505D01*
X89467Y208763D01*
X90209Y208194D01*
X91073Y207836D01*
X92000Y207714D01*
X92928Y207836D01*
X93792Y208194D01*
X94534Y208763D01*
X95104Y209505D01*
X95462Y210369D01*
X95584Y211297D01*
X95462Y212224D01*
X95104Y213089D01*
X94534Y213831D01*
X93792Y214400D01*
X92928Y214758D01*
X92000Y214880D01*
D02*
G37*
G36*
X162000D02*
X161073Y214758D01*
X160209Y214400D01*
X159467Y213831D01*
X158897Y213089D01*
X158539Y212224D01*
X158417Y211297D01*
X158539Y210369D01*
X158897Y209505D01*
X159467Y208763D01*
X160209Y208194D01*
X161073Y207836D01*
X162000Y207714D01*
X162928Y207836D01*
X163792Y208194D01*
X164534Y208763D01*
X165104Y209505D01*
X165462Y210369D01*
X165584Y211297D01*
X165462Y212224D01*
X165104Y213089D01*
X164534Y213831D01*
X163792Y214400D01*
X162928Y214758D01*
X162000Y214880D01*
D02*
G37*
G36*
X152000D02*
X151073Y214758D01*
X150209Y214400D01*
X149467Y213831D01*
X148897Y213089D01*
X148539Y212224D01*
X148417Y211297D01*
X148539Y210369D01*
X148897Y209505D01*
X149467Y208763D01*
X150209Y208194D01*
X151073Y207836D01*
X152000Y207714D01*
X152928Y207836D01*
X153792Y208194D01*
X154534Y208763D01*
X155104Y209505D01*
X155462Y210369D01*
X155584Y211297D01*
X155462Y212224D01*
X155104Y213089D01*
X154534Y213831D01*
X153792Y214400D01*
X152928Y214758D01*
X152000Y214880D01*
D02*
G37*
G36*
X15953Y215250D02*
X12500D01*
Y211797D01*
X15953D01*
Y215250D01*
D02*
G37*
G36*
X11500D02*
X8048D01*
Y211797D01*
X11500D01*
Y215250D01*
D02*
G37*
G36*
X142000Y214880D02*
X141073Y214758D01*
X140209Y214400D01*
X139467Y213831D01*
X138897Y213089D01*
X138539Y212224D01*
X138417Y211297D01*
X138539Y210369D01*
X138897Y209505D01*
X139467Y208763D01*
X140209Y208194D01*
X141073Y207836D01*
X142000Y207714D01*
X142928Y207836D01*
X143792Y208194D01*
X144534Y208763D01*
X145104Y209505D01*
X145462Y210369D01*
X145584Y211297D01*
X145462Y212224D01*
X145104Y213089D01*
X144534Y213831D01*
X143792Y214400D01*
X142928Y214758D01*
X142000Y214880D01*
D02*
G37*
G36*
X112000D02*
X111073Y214758D01*
X110209Y214400D01*
X109467Y213831D01*
X108897Y213089D01*
X108539Y212224D01*
X108417Y211297D01*
X108539Y210369D01*
X108897Y209505D01*
X109467Y208763D01*
X110209Y208194D01*
X111073Y207836D01*
X112000Y207714D01*
X112928Y207836D01*
X113792Y208194D01*
X114534Y208763D01*
X115104Y209505D01*
X115462Y210369D01*
X115584Y211297D01*
X115462Y212224D01*
X115104Y213089D01*
X114534Y213831D01*
X113792Y214400D01*
X112928Y214758D01*
X112000Y214880D01*
D02*
G37*
G36*
X102000D02*
X101073Y214758D01*
X100209Y214400D01*
X99467Y213831D01*
X98897Y213089D01*
X98539Y212224D01*
X98417Y211297D01*
X98539Y210369D01*
X98897Y209505D01*
X99467Y208763D01*
X100209Y208194D01*
X101073Y207836D01*
X102000Y207714D01*
X102928Y207836D01*
X103792Y208194D01*
X104534Y208763D01*
X105104Y209505D01*
X105462Y210369D01*
X105584Y211297D01*
X105462Y212224D01*
X105104Y213089D01*
X104534Y213831D01*
X103792Y214400D01*
X102928Y214758D01*
X102000Y214880D01*
D02*
G37*
G36*
X132000D02*
X131073Y214758D01*
X130209Y214400D01*
X129467Y213831D01*
X128897Y213089D01*
X128539Y212224D01*
X128417Y211297D01*
X128539Y210369D01*
X128897Y209505D01*
X129467Y208763D01*
X130209Y208194D01*
X131073Y207836D01*
X132000Y207714D01*
X132928Y207836D01*
X133792Y208194D01*
X134534Y208763D01*
X135104Y209505D01*
X135462Y210369D01*
X135584Y211297D01*
X135462Y212224D01*
X135104Y213089D01*
X134534Y213831D01*
X133792Y214400D01*
X132928Y214758D01*
X132000Y214880D01*
D02*
G37*
G36*
X122000D02*
X121073Y214758D01*
X120209Y214400D01*
X119467Y213831D01*
X118897Y213089D01*
X118539Y212224D01*
X118417Y211297D01*
X118539Y210369D01*
X118897Y209505D01*
X119467Y208763D01*
X120209Y208194D01*
X121073Y207836D01*
X122000Y207714D01*
X122928Y207836D01*
X123792Y208194D01*
X124534Y208763D01*
X125104Y209505D01*
X125462Y210369D01*
X125584Y211297D01*
X125462Y212224D01*
X125104Y213089D01*
X124534Y213831D01*
X123792Y214400D01*
X122928Y214758D01*
X122000Y214880D01*
D02*
G37*
G36*
X92000Y204880D02*
X91073Y204758D01*
X90209Y204400D01*
X89467Y203831D01*
X88897Y203089D01*
X88539Y202224D01*
X88417Y201297D01*
X88539Y200370D01*
X88897Y199505D01*
X89467Y198763D01*
X90209Y198194D01*
X91073Y197836D01*
X92000Y197714D01*
X92928Y197836D01*
X93792Y198194D01*
X94534Y198763D01*
X95104Y199505D01*
X95462Y200370D01*
X95584Y201297D01*
X95462Y202224D01*
X95104Y203089D01*
X94534Y203831D01*
X93792Y204400D01*
X92928Y204758D01*
X92000Y204880D01*
D02*
G37*
G36*
X82000D02*
X81073Y204758D01*
X80209Y204400D01*
X79467Y203831D01*
X78897Y203089D01*
X78539Y202224D01*
X78417Y201297D01*
X78539Y200370D01*
X78897Y199505D01*
X79467Y198763D01*
X80209Y198194D01*
X81073Y197836D01*
X82000Y197714D01*
X82928Y197836D01*
X83792Y198194D01*
X84534Y198763D01*
X85104Y199505D01*
X85462Y200370D01*
X85584Y201297D01*
X85462Y202224D01*
X85104Y203089D01*
X84534Y203831D01*
X83792Y204400D01*
X82928Y204758D01*
X82000Y204880D01*
D02*
G37*
G36*
X112000D02*
X111073Y204758D01*
X110209Y204400D01*
X109467Y203831D01*
X108897Y203089D01*
X108539Y202224D01*
X108417Y201297D01*
X108539Y200370D01*
X108897Y199505D01*
X109467Y198763D01*
X110209Y198194D01*
X111073Y197836D01*
X112000Y197714D01*
X112928Y197836D01*
X113792Y198194D01*
X114534Y198763D01*
X115104Y199505D01*
X115462Y200370D01*
X115584Y201297D01*
X115462Y202224D01*
X115104Y203089D01*
X114534Y203831D01*
X113792Y204400D01*
X112928Y204758D01*
X112000Y204880D01*
D02*
G37*
G36*
X102000D02*
X101073Y204758D01*
X100209Y204400D01*
X99467Y203831D01*
X98897Y203089D01*
X98539Y202224D01*
X98417Y201297D01*
X98539Y200370D01*
X98897Y199505D01*
X99467Y198763D01*
X100209Y198194D01*
X101073Y197836D01*
X102000Y197714D01*
X102928Y197836D01*
X103792Y198194D01*
X104534Y198763D01*
X105104Y199505D01*
X105462Y200370D01*
X105584Y201297D01*
X105462Y202224D01*
X105104Y203089D01*
X104534Y203831D01*
X103792Y204400D01*
X102928Y204758D01*
X102000Y204880D01*
D02*
G37*
G36*
X72000D02*
X71073Y204758D01*
X70209Y204400D01*
X69467Y203831D01*
X68897Y203089D01*
X68539Y202224D01*
X68417Y201297D01*
X68539Y200370D01*
X68897Y199505D01*
X69467Y198763D01*
X70209Y198194D01*
X71073Y197836D01*
X72000Y197714D01*
X72928Y197836D01*
X73792Y198194D01*
X74534Y198763D01*
X75104Y199505D01*
X75462Y200370D01*
X75584Y201297D01*
X75462Y202224D01*
X75104Y203089D01*
X74534Y203831D01*
X73792Y204400D01*
X72928Y204758D01*
X72000Y204880D01*
D02*
G37*
G36*
X42000D02*
X41073Y204758D01*
X40209Y204400D01*
X39467Y203831D01*
X38897Y203089D01*
X38539Y202224D01*
X38417Y201297D01*
X38539Y200370D01*
X38897Y199505D01*
X39467Y198763D01*
X40209Y198194D01*
X41073Y197836D01*
X42000Y197714D01*
X42928Y197836D01*
X43792Y198194D01*
X44534Y198763D01*
X45104Y199505D01*
X45462Y200370D01*
X45584Y201297D01*
X45462Y202224D01*
X45104Y203089D01*
X44534Y203831D01*
X43792Y204400D01*
X42928Y204758D01*
X42000Y204880D01*
D02*
G37*
G36*
X32000D02*
X31073Y204758D01*
X30209Y204400D01*
X29467Y203831D01*
X28897Y203089D01*
X28539Y202224D01*
X28417Y201297D01*
X28539Y200370D01*
X28897Y199505D01*
X29467Y198763D01*
X30209Y198194D01*
X31073Y197836D01*
X32000Y197714D01*
X32928Y197836D01*
X33792Y198194D01*
X34534Y198763D01*
X35104Y199505D01*
X35462Y200370D01*
X35584Y201297D01*
X35462Y202224D01*
X35104Y203089D01*
X34534Y203831D01*
X33792Y204400D01*
X32928Y204758D01*
X32000Y204880D01*
D02*
G37*
G36*
X62000D02*
X61073Y204758D01*
X60209Y204400D01*
X59467Y203831D01*
X58897Y203089D01*
X58539Y202224D01*
X58417Y201297D01*
X58539Y200370D01*
X58897Y199505D01*
X59467Y198763D01*
X60209Y198194D01*
X61073Y197836D01*
X62000Y197714D01*
X62928Y197836D01*
X63792Y198194D01*
X64534Y198763D01*
X65104Y199505D01*
X65462Y200370D01*
X65584Y201297D01*
X65462Y202224D01*
X65104Y203089D01*
X64534Y203831D01*
X63792Y204400D01*
X62928Y204758D01*
X62000Y204880D01*
D02*
G37*
G36*
X52000D02*
X51073Y204758D01*
X50209Y204400D01*
X49467Y203831D01*
X48897Y203089D01*
X48539Y202224D01*
X48417Y201297D01*
X48539Y200370D01*
X48897Y199505D01*
X49467Y198763D01*
X50209Y198194D01*
X51073Y197836D01*
X52000Y197714D01*
X52928Y197836D01*
X53792Y198194D01*
X54534Y198763D01*
X55104Y199505D01*
X55462Y200370D01*
X55584Y201297D01*
X55462Y202224D01*
X55104Y203089D01*
X54534Y203831D01*
X53792Y204400D01*
X52928Y204758D01*
X52000Y204880D01*
D02*
G37*
G36*
X122000D02*
X121073Y204758D01*
X120209Y204400D01*
X119467Y203831D01*
X118897Y203089D01*
X118539Y202224D01*
X118417Y201297D01*
X118539Y200370D01*
X118897Y199505D01*
X119467Y198763D01*
X120209Y198194D01*
X121073Y197836D01*
X122000Y197714D01*
X122928Y197836D01*
X123792Y198194D01*
X124534Y198763D01*
X125104Y199505D01*
X125462Y200370D01*
X125584Y201297D01*
X125462Y202224D01*
X125104Y203089D01*
X124534Y203831D01*
X123792Y204400D01*
X122928Y204758D01*
X122000Y204880D01*
D02*
G37*
G36*
X175484Y203167D02*
X175126Y203096D01*
X174398Y202610D01*
X173912Y201882D01*
X173841Y201524D01*
X175484D01*
Y203167D01*
D02*
G37*
G36*
X176484D02*
Y201024D01*
Y198880D01*
X176843Y198951D01*
X177570Y199437D01*
X178057Y200165D01*
X178121Y200487D01*
X178423Y200554D01*
X178641Y200540D01*
X179002Y199999D01*
X179598Y199601D01*
X180300Y199462D01*
X181002Y199601D01*
X181598Y199999D01*
X181996Y200595D01*
X182135Y201297D01*
X181996Y201999D01*
X181598Y202595D01*
X181002Y202993D01*
X180300Y203132D01*
X179598Y202993D01*
X179002Y202595D01*
X178604Y201999D01*
X178574Y201845D01*
X178064D01*
X178057Y201882D01*
X177570Y202610D01*
X176843Y203096D01*
X176484Y203167D01*
D02*
G37*
G36*
X12500Y205218D02*
Y201797D01*
X15921D01*
X15851Y202329D01*
X15453Y203290D01*
X14820Y204116D01*
X13994Y204750D01*
X13032Y205148D01*
X12500Y205218D01*
D02*
G37*
G36*
X11500D02*
X10968Y205148D01*
X10007Y204750D01*
X9181Y204116D01*
X8548Y203290D01*
X8149Y202329D01*
X8079Y201797D01*
X11500D01*
Y205218D01*
D02*
G37*
G36*
X175484Y200524D02*
X173841D01*
X173912Y200165D01*
X174398Y199437D01*
X175126Y198951D01*
X175484Y198880D01*
Y200524D01*
D02*
G37*
G36*
X142000Y204880D02*
X141073Y204758D01*
X140209Y204400D01*
X139467Y203831D01*
X138897Y203089D01*
X138539Y202224D01*
X138417Y201297D01*
X138539Y200370D01*
X138897Y199505D01*
X139467Y198763D01*
X140209Y198194D01*
X141073Y197836D01*
X142000Y197714D01*
X142928Y197836D01*
X143792Y198194D01*
X144534Y198763D01*
X145104Y199505D01*
X145462Y200370D01*
X145584Y201297D01*
X145462Y202224D01*
X145104Y203089D01*
X144534Y203831D01*
X143792Y204400D01*
X142928Y204758D01*
X142000Y204880D01*
D02*
G37*
G36*
X132000D02*
X131073Y204758D01*
X130209Y204400D01*
X129467Y203831D01*
X128897Y203089D01*
X128539Y202224D01*
X128417Y201297D01*
X128539Y200370D01*
X128897Y199505D01*
X129467Y198763D01*
X130209Y198194D01*
X131073Y197836D01*
X132000Y197714D01*
X132928Y197836D01*
X133792Y198194D01*
X134534Y198763D01*
X135104Y199505D01*
X135462Y200370D01*
X135584Y201297D01*
X135462Y202224D01*
X135104Y203089D01*
X134534Y203831D01*
X133792Y204400D01*
X132928Y204758D01*
X132000Y204880D01*
D02*
G37*
G36*
X162000D02*
X161073Y204758D01*
X160209Y204400D01*
X159467Y203831D01*
X158897Y203089D01*
X158539Y202224D01*
X158417Y201297D01*
X158539Y200370D01*
X158897Y199505D01*
X159467Y198763D01*
X160209Y198194D01*
X161073Y197836D01*
X162000Y197714D01*
X162928Y197836D01*
X163792Y198194D01*
X164534Y198763D01*
X165104Y199505D01*
X165462Y200370D01*
X165584Y201297D01*
X165462Y202224D01*
X165104Y203089D01*
X164534Y203831D01*
X163792Y204400D01*
X162928Y204758D01*
X162000Y204880D01*
D02*
G37*
G36*
X152000D02*
X151073Y204758D01*
X150209Y204400D01*
X149467Y203831D01*
X148897Y203089D01*
X148539Y202224D01*
X148417Y201297D01*
X148539Y200370D01*
X148897Y199505D01*
X149467Y198763D01*
X150209Y198194D01*
X151073Y197836D01*
X152000Y197714D01*
X152928Y197836D01*
X153792Y198194D01*
X154534Y198763D01*
X155104Y199505D01*
X155462Y200370D01*
X155584Y201297D01*
X155462Y202224D01*
X155104Y203089D01*
X154534Y203831D01*
X153792Y204400D01*
X152928Y204758D01*
X152000Y204880D01*
D02*
G37*
G36*
X188661Y117972D02*
X188232Y117887D01*
X187868Y117643D01*
X187625Y117280D01*
X187540Y116850D01*
X187625Y116421D01*
X187868Y116057D01*
X188232Y115814D01*
X188661Y115729D01*
X189091Y115814D01*
X189454Y116057D01*
X189698Y116421D01*
X189783Y116850D01*
X189698Y117280D01*
X189454Y117643D01*
X189091Y117887D01*
X188661Y117972D01*
D02*
G37*
G36*
X172913D02*
X172484Y117887D01*
X172120Y117643D01*
X171877Y117280D01*
X171792Y116850D01*
X171877Y116421D01*
X172120Y116057D01*
X172484Y115814D01*
X172913Y115729D01*
X173343Y115814D01*
X173706Y116057D01*
X173950Y116421D01*
X174035Y116850D01*
X173950Y117280D01*
X173706Y117643D01*
X173343Y117887D01*
X172913Y117972D01*
D02*
G37*
G36*
X140787Y122181D02*
X140085Y122041D01*
X139490Y121643D01*
X139092Y121048D01*
X138952Y120346D01*
X139092Y119643D01*
X139490Y119048D01*
X140085Y118650D01*
X140787Y118510D01*
X141490Y118650D01*
X141639Y118750D01*
X142194Y118520D01*
X142298Y118000D01*
X142587Y117567D01*
X142784Y117098D01*
X142298Y116370D01*
X142226Y116012D01*
X146514D01*
X146442Y116370D01*
X145956Y117098D01*
X146153Y117567D01*
X146442Y118000D01*
X146514Y118358D01*
X144370D01*
Y118858D01*
X143870D01*
Y121002D01*
X143512Y120931D01*
X143074Y120638D01*
X142519Y120869D01*
X142483Y121048D01*
X142085Y121643D01*
X141490Y122041D01*
X140787Y122181D01*
D02*
G37*
G36*
X201260Y117972D02*
X200831Y117887D01*
X200467Y117643D01*
X200224Y117280D01*
X200138Y116850D01*
X200224Y116421D01*
X200467Y116057D01*
X200831Y115814D01*
X201260Y115729D01*
X201689Y115814D01*
X202053Y116057D01*
X202296Y116421D01*
X202381Y116850D01*
X202296Y117280D01*
X202053Y117643D01*
X201689Y117887D01*
X201260Y117972D01*
D02*
G37*
G36*
X163465D02*
X163035Y117887D01*
X162671Y117643D01*
X162428Y117280D01*
X162343Y116850D01*
X162428Y116421D01*
X162671Y116057D01*
X163035Y115814D01*
X163465Y115729D01*
X163894Y115814D01*
X164258Y116057D01*
X164501Y116421D01*
X164586Y116850D01*
X164501Y117280D01*
X164258Y117643D01*
X163894Y117887D01*
X163465Y117972D01*
D02*
G37*
G36*
X188161Y115131D02*
X188076Y115114D01*
X187580Y114782D01*
X187248Y114286D01*
X187232Y114201D01*
X188161D01*
Y115131D01*
D02*
G37*
G36*
X201260Y114822D02*
X200831Y114737D01*
X200467Y114494D01*
X200224Y114130D01*
X200138Y113701D01*
X200224Y113272D01*
X200467Y112908D01*
X200831Y112665D01*
X201260Y112579D01*
X201689Y112665D01*
X202053Y112908D01*
X202296Y113272D01*
X202381Y113701D01*
X202296Y114130D01*
X202053Y114494D01*
X201689Y114737D01*
X201260Y114822D01*
D02*
G37*
G36*
X160315Y117972D02*
X159886Y117887D01*
X159522Y117643D01*
X159279Y117280D01*
X159193Y116850D01*
X159279Y116421D01*
X159522Y116057D01*
X159886Y115814D01*
X160315Y115729D01*
X160744Y115814D01*
X161108Y116057D01*
X161351Y116421D01*
X161436Y116850D01*
X161351Y117280D01*
X161108Y117643D01*
X160744Y117887D01*
X160315Y117972D01*
D02*
G37*
G36*
X221587Y117807D02*
X217300D01*
X217371Y117449D01*
X217751Y116880D01*
X217820Y116535D01*
X217751Y116191D01*
X217371Y115622D01*
X217300Y115264D01*
X221587D01*
X221516Y115622D01*
X221136Y116191D01*
X221067Y116535D01*
X221136Y116880D01*
X221516Y117449D01*
X221587Y117807D01*
D02*
G37*
G36*
X168044Y122650D02*
X165184D01*
X165201Y122564D01*
X165533Y122068D01*
X165855Y121853D01*
X165859Y121843D01*
Y121306D01*
X165855Y121297D01*
X165533Y121081D01*
X165201Y120585D01*
X165184Y120500D01*
X166614D01*
Y119500D01*
X165184D01*
X165201Y119415D01*
X165533Y118919D01*
X165855Y118703D01*
X165859Y118694D01*
Y118157D01*
X165855Y118147D01*
X165533Y117932D01*
X165201Y117436D01*
X165184Y117350D01*
X166614D01*
Y116350D01*
X165184D01*
X165201Y116265D01*
X165533Y115769D01*
X165855Y115553D01*
X165859Y115544D01*
Y115007D01*
X165855Y114998D01*
X165533Y114782D01*
X165201Y114286D01*
X165184Y114201D01*
X166614D01*
Y113201D01*
X165184D01*
X165201Y113116D01*
X165533Y112619D01*
X165855Y112404D01*
X165859Y112395D01*
Y111857D01*
X165855Y111848D01*
X165533Y111633D01*
X165201Y111136D01*
X165184Y111051D01*
X166614D01*
Y110051D01*
X165184D01*
X165201Y109966D01*
X165533Y109470D01*
X165855Y109254D01*
X165859Y109245D01*
Y108708D01*
X165855Y108699D01*
X165533Y108483D01*
X165201Y107987D01*
X165184Y107902D01*
X166614D01*
Y106902D01*
X165184D01*
X165201Y106816D01*
X165533Y106320D01*
X165855Y106105D01*
X165859Y106095D01*
Y105558D01*
X165855Y105549D01*
X165533Y105333D01*
X165317Y105011D01*
X165308Y105007D01*
X164771D01*
X164762Y105011D01*
X164546Y105333D01*
X164050Y105665D01*
X163965Y105682D01*
Y104252D01*
X162965D01*
Y105682D01*
X162879Y105665D01*
X162383Y105333D01*
X162168Y105011D01*
X162158Y105007D01*
X161621D01*
X161612Y105011D01*
X161396Y105333D01*
X160900Y105665D01*
X160815Y105682D01*
Y104252D01*
Y102822D01*
X160900Y102839D01*
X161396Y103171D01*
X161612Y103493D01*
X161621Y103497D01*
X162158D01*
X162168Y103493D01*
X162383Y103171D01*
X162706Y102955D01*
X162709Y102946D01*
Y102409D01*
X162706Y102399D01*
X162383Y102184D01*
X162052Y101688D01*
X162035Y101602D01*
X163465D01*
Y101102D01*
X163965D01*
Y99672D01*
X164050Y99689D01*
X164546Y100021D01*
X164762Y100344D01*
X164771Y100347D01*
X165308D01*
X165317Y100344D01*
X165533Y100021D01*
X165855Y99805D01*
X165859Y99796D01*
Y99259D01*
X165855Y99250D01*
X165533Y99034D01*
X165201Y98538D01*
X165184Y98453D01*
X168044D01*
X168027Y98538D01*
X167696Y99034D01*
X167373Y99250D01*
X167369Y99259D01*
Y99796D01*
X167373Y99805D01*
X167696Y100021D01*
X167911Y100344D01*
X167920Y100347D01*
X168458D01*
X168467Y100344D01*
X168682Y100021D01*
X169178Y99689D01*
X169264Y99672D01*
Y101102D01*
X170264D01*
Y99672D01*
X170349Y99689D01*
X170845Y100021D01*
X171061Y100344D01*
X171070Y100347D01*
X171607D01*
X171616Y100344D01*
X171832Y100021D01*
X172328Y99689D01*
X172413Y99672D01*
Y101102D01*
X172913D01*
Y101602D01*
X174343D01*
X174326Y101688D01*
X173995Y102184D01*
X173672Y102399D01*
X173669Y102409D01*
Y102946D01*
X173672Y102955D01*
X173995Y103171D01*
X174326Y103667D01*
X174343Y103752D01*
X172913D01*
Y104252D01*
X172413D01*
Y105682D01*
X172328Y105665D01*
X171832Y105333D01*
X171616Y105011D01*
X171607Y105007D01*
X171070D01*
X171061Y105011D01*
X170845Y105333D01*
X170523Y105549D01*
X170519Y105558D01*
Y106095D01*
X170523Y106105D01*
X170845Y106320D01*
X171177Y106816D01*
X171194Y106902D01*
X169764D01*
Y107902D01*
X171194D01*
X171177Y107987D01*
X170845Y108483D01*
X170523Y108699D01*
X170519Y108708D01*
Y109245D01*
X170523Y109254D01*
X170845Y109470D01*
X171177Y109966D01*
X171194Y110051D01*
X169764D01*
Y111051D01*
X171194D01*
X171177Y111136D01*
X170845Y111633D01*
X170523Y111848D01*
X170519Y111857D01*
Y112395D01*
X170523Y112404D01*
X170845Y112619D01*
X171177Y113116D01*
X171194Y113201D01*
X169764D01*
Y114201D01*
X171194D01*
X171177Y114286D01*
X170845Y114782D01*
X170523Y114998D01*
X170519Y115007D01*
Y115544D01*
X170523Y115553D01*
X170845Y115769D01*
X171177Y116265D01*
X171194Y116350D01*
X169764D01*
Y117350D01*
X171194D01*
X171177Y117436D01*
X170845Y117932D01*
X170523Y118147D01*
X170519Y118157D01*
Y118694D01*
X170523Y118703D01*
X170845Y118919D01*
X171061Y119241D01*
X171070Y119245D01*
X171607D01*
X171616Y119241D01*
X171832Y118919D01*
X172328Y118587D01*
X172413Y118570D01*
Y120000D01*
Y121430D01*
X172328Y121413D01*
X171832Y121081D01*
X171616Y120759D01*
X171607Y120755D01*
X171070D01*
X171061Y120759D01*
X170845Y121081D01*
X170349Y121413D01*
X170264Y121430D01*
Y120000D01*
X169264D01*
Y121430D01*
X169178Y121413D01*
X168682Y121081D01*
X168467Y120759D01*
X168458Y120755D01*
X167920D01*
X167911Y120759D01*
X167696Y121081D01*
X167373Y121297D01*
X167369Y121306D01*
Y121843D01*
X167373Y121853D01*
X167696Y122068D01*
X168027Y122564D01*
X168044Y122650D01*
D02*
G37*
G36*
X144870Y121002D02*
Y119358D01*
X146514D01*
X146442Y119717D01*
X145956Y120444D01*
X145229Y120931D01*
X144870Y121002D01*
D02*
G37*
G36*
X201260Y121122D02*
X200831Y121036D01*
X200467Y120793D01*
X200224Y120429D01*
X200138Y120000D01*
X200224Y119571D01*
X200467Y119207D01*
X200831Y118964D01*
X201260Y118878D01*
X201689Y118964D01*
X202053Y119207D01*
X202296Y119571D01*
X202381Y120000D01*
X202296Y120429D01*
X202053Y120793D01*
X201689Y121036D01*
X201260Y121122D01*
D02*
G37*
G36*
X198610Y121430D02*
Y120500D01*
X199540D01*
X199523Y120585D01*
X199192Y121081D01*
X198696Y121413D01*
X198610Y121430D01*
D02*
G37*
G36*
X173413D02*
Y120500D01*
X174343D01*
X174326Y120585D01*
X173995Y121081D01*
X173499Y121413D01*
X173413Y121430D01*
D02*
G37*
G36*
X163465Y121122D02*
X163035Y121036D01*
X162671Y120793D01*
X162428Y120429D01*
X162343Y120000D01*
X162428Y119571D01*
X162671Y119207D01*
X163035Y118964D01*
X163465Y118878D01*
X163894Y118964D01*
X164258Y119207D01*
X164501Y119571D01*
X164586Y120000D01*
X164501Y120429D01*
X164258Y120793D01*
X163894Y121036D01*
X163465Y121122D01*
D02*
G37*
G36*
X188161Y119500D02*
X187232D01*
X187248Y119415D01*
X187580Y118919D01*
X188076Y118587D01*
X188161Y118570D01*
Y119500D01*
D02*
G37*
G36*
X174343D02*
X173413D01*
Y118570D01*
X173499Y118587D01*
X173995Y118919D01*
X174326Y119415D01*
X174343Y119500D01*
D02*
G37*
G36*
X160315Y121122D02*
X159886Y121036D01*
X159522Y120793D01*
X159279Y120429D01*
X159193Y120000D01*
X159279Y119571D01*
X159522Y119207D01*
X159886Y118964D01*
X160315Y118878D01*
X160744Y118964D01*
X161108Y119207D01*
X161351Y119571D01*
X161436Y120000D01*
X161351Y120429D01*
X161108Y120793D01*
X160744Y121036D01*
X160315Y121122D01*
D02*
G37*
G36*
X221587Y121350D02*
X217300D01*
X217371Y120992D01*
X217751Y120423D01*
X217820Y120079D01*
X217751Y119734D01*
X217371Y119166D01*
X217300Y118807D01*
X221587D01*
X221516Y119166D01*
X221136Y119734D01*
X221067Y120079D01*
X221136Y120423D01*
X221516Y120992D01*
X221587Y121350D01*
D02*
G37*
G36*
X201260Y108523D02*
X200831Y108438D01*
X200467Y108195D01*
X200224Y107831D01*
X200138Y107402D01*
X200224Y106972D01*
X200467Y106608D01*
X200831Y106365D01*
X201260Y106280D01*
X201689Y106365D01*
X202053Y106608D01*
X202296Y106972D01*
X202381Y107402D01*
X202296Y107831D01*
X202053Y108195D01*
X201689Y108438D01*
X201260Y108523D01*
D02*
G37*
G36*
X198110D02*
X197681Y108438D01*
X197317Y108195D01*
X197074Y107831D01*
X196989Y107402D01*
X197074Y106972D01*
X197317Y106608D01*
X197681Y106365D01*
X198110Y106280D01*
X198539Y106365D01*
X198903Y106608D01*
X199146Y106972D01*
X199232Y107402D01*
X199146Y107831D01*
X198903Y108195D01*
X198539Y108438D01*
X198110Y108523D01*
D02*
G37*
G36*
X146514Y111508D02*
X142226D01*
X142298Y111150D01*
X142784Y110422D01*
X142894Y110348D01*
Y109848D01*
X142784Y109775D01*
X142298Y109047D01*
X142226Y108689D01*
X146514D01*
X146442Y109047D01*
X145956Y109775D01*
X145846Y109848D01*
Y110348D01*
X145956Y110422D01*
X146442Y111150D01*
X146514Y111508D01*
D02*
G37*
G36*
X221587Y110721D02*
X217300D01*
X217371Y110362D01*
X217751Y109794D01*
X217820Y109449D01*
X217751Y109104D01*
X217371Y108536D01*
X217300Y108177D01*
X221587D01*
X221516Y108536D01*
X221136Y109104D01*
X221067Y109449D01*
X221136Y109794D01*
X221516Y110362D01*
X221587Y110721D01*
D02*
G37*
G36*
X172913Y108523D02*
X172484Y108438D01*
X172120Y108195D01*
X171877Y107831D01*
X171792Y107402D01*
X171877Y106972D01*
X172120Y106608D01*
X172484Y106365D01*
X172913Y106280D01*
X173343Y106365D01*
X173706Y106608D01*
X173950Y106972D01*
X174035Y107402D01*
X173950Y107831D01*
X173706Y108195D01*
X173343Y108438D01*
X172913Y108523D01*
D02*
G37*
G36*
X188161Y106902D02*
X187232D01*
X187248Y106816D01*
X187580Y106320D01*
X188076Y105989D01*
X188161Y105972D01*
Y106902D01*
D02*
G37*
G36*
X198610Y105682D02*
Y104752D01*
X199540D01*
X199523Y104837D01*
X199192Y105333D01*
X198696Y105665D01*
X198610Y105682D01*
D02*
G37*
G36*
X163465Y108523D02*
X163035Y108438D01*
X162671Y108195D01*
X162428Y107831D01*
X162343Y107402D01*
X162428Y106972D01*
X162671Y106608D01*
X163035Y106365D01*
X163465Y106280D01*
X163894Y106365D01*
X164258Y106608D01*
X164501Y106972D01*
X164586Y107402D01*
X164501Y107831D01*
X164258Y108195D01*
X163894Y108438D01*
X163465Y108523D01*
D02*
G37*
G36*
X160315D02*
X159886Y108438D01*
X159522Y108195D01*
X159279Y107831D01*
X159193Y107402D01*
X159279Y106972D01*
X159522Y106608D01*
X159886Y106365D01*
X160315Y106280D01*
X160744Y106365D01*
X161108Y106608D01*
X161351Y106972D01*
X161436Y107402D01*
X161351Y107831D01*
X161108Y108195D01*
X160744Y108438D01*
X160315Y108523D01*
D02*
G37*
G36*
X199540Y110051D02*
X198610D01*
Y109121D01*
X198696Y109138D01*
X199192Y109470D01*
X199523Y109966D01*
X199540Y110051D01*
D02*
G37*
G36*
X160315Y114822D02*
X159886Y114737D01*
X159522Y114494D01*
X159279Y114130D01*
X159193Y113701D01*
X159279Y113272D01*
X159522Y112908D01*
X159886Y112665D01*
X160315Y112579D01*
X160744Y112665D01*
X161108Y112908D01*
X161351Y113272D01*
X161436Y113701D01*
X161351Y114130D01*
X161108Y114494D01*
X160744Y114737D01*
X160315Y114822D01*
D02*
G37*
G36*
X146514Y115012D02*
X142226D01*
X142298Y114653D01*
X142659Y114112D01*
X142744Y113760D01*
X142659Y113408D01*
X142298Y112866D01*
X142226Y112508D01*
X146514D01*
X146442Y112866D01*
X146081Y113408D01*
X145996Y113760D01*
X146081Y114112D01*
X146442Y114653D01*
X146514Y115012D01*
D02*
G37*
G36*
X172913Y114822D02*
X172484Y114737D01*
X172120Y114494D01*
X171877Y114130D01*
X171792Y113701D01*
X171877Y113272D01*
X172120Y112908D01*
X172484Y112665D01*
X172913Y112579D01*
X173343Y112665D01*
X173706Y112908D01*
X173950Y113272D01*
X174035Y113701D01*
X173950Y114130D01*
X173706Y114494D01*
X173343Y114737D01*
X172913Y114822D01*
D02*
G37*
G36*
X163465D02*
X163035Y114737D01*
X162671Y114494D01*
X162428Y114130D01*
X162343Y113701D01*
X162428Y113272D01*
X162671Y112908D01*
X163035Y112665D01*
X163465Y112579D01*
X163894Y112665D01*
X164258Y112908D01*
X164501Y113272D01*
X164586Y113701D01*
X164501Y114130D01*
X164258Y114494D01*
X163894Y114737D01*
X163465Y114822D01*
D02*
G37*
G36*
X221587Y114264D02*
X217300D01*
X217371Y113905D01*
X217751Y113337D01*
X217820Y112992D01*
X217751Y112647D01*
X217371Y112079D01*
X217300Y111721D01*
X221587D01*
X221516Y112079D01*
X221136Y112647D01*
X221067Y112992D01*
X221136Y113337D01*
X221516Y113905D01*
X221587Y114264D01*
D02*
G37*
G36*
X163465Y111673D02*
X163035Y111587D01*
X162671Y111344D01*
X162428Y110980D01*
X162343Y110551D01*
X162428Y110122D01*
X162671Y109758D01*
X163035Y109515D01*
X163465Y109430D01*
X163894Y109515D01*
X164258Y109758D01*
X164501Y110122D01*
X164586Y110551D01*
X164501Y110980D01*
X164258Y111344D01*
X163894Y111587D01*
X163465Y111673D01*
D02*
G37*
G36*
X160315D02*
X159886Y111587D01*
X159522Y111344D01*
X159279Y110980D01*
X159193Y110551D01*
X159279Y110122D01*
X159522Y109758D01*
X159886Y109515D01*
X160315Y109430D01*
X160744Y109515D01*
X161108Y109758D01*
X161351Y110122D01*
X161436Y110551D01*
X161351Y110980D01*
X161108Y111344D01*
X160744Y111587D01*
X160315Y111673D01*
D02*
G37*
G36*
X201260D02*
X200831Y111587D01*
X200467Y111344D01*
X200224Y110980D01*
X200138Y110551D01*
X200224Y110122D01*
X200467Y109758D01*
X200831Y109515D01*
X201260Y109430D01*
X201689Y109515D01*
X202053Y109758D01*
X202296Y110122D01*
X202381Y110551D01*
X202296Y110980D01*
X202053Y111344D01*
X201689Y111587D01*
X201260Y111673D01*
D02*
G37*
G36*
X172913D02*
X172484Y111587D01*
X172120Y111344D01*
X171877Y110980D01*
X171792Y110551D01*
X171877Y110122D01*
X172120Y109758D01*
X172484Y109515D01*
X172913Y109430D01*
X173343Y109515D01*
X173706Y109758D01*
X173950Y110122D01*
X174035Y110551D01*
X173950Y110980D01*
X173706Y111344D01*
X173343Y111587D01*
X172913Y111673D01*
D02*
G37*
G36*
X169764Y124271D02*
X169335Y124186D01*
X168971Y123943D01*
X168728Y123579D01*
X168642Y123150D01*
X168728Y122720D01*
X168971Y122356D01*
X169335Y122113D01*
X169764Y122028D01*
X170193Y122113D01*
X170557Y122356D01*
X170800Y122720D01*
X170885Y123150D01*
X170800Y123579D01*
X170557Y123943D01*
X170193Y124186D01*
X169764Y124271D01*
D02*
G37*
G36*
X218943Y134624D02*
X218585Y134553D01*
X217857Y134066D01*
X217371Y133339D01*
X217300Y132980D01*
X218943D01*
Y134624D01*
D02*
G37*
G36*
X127700Y136535D02*
X126998Y136396D01*
X126402Y135998D01*
X126004Y135402D01*
X125865Y134700D01*
X126004Y133998D01*
X126402Y133402D01*
X126998Y133004D01*
X127700Y132865D01*
X128402Y133004D01*
X128998Y133402D01*
X129396Y133998D01*
X129535Y134700D01*
X129396Y135402D01*
X128998Y135998D01*
X128402Y136396D01*
X127700Y136535D01*
D02*
G37*
G36*
X116696Y140925D02*
X114437D01*
X114468Y140694D01*
X114750Y140013D01*
X115199Y139428D01*
X115784Y138979D01*
X116465Y138697D01*
X116696Y138667D01*
Y140925D01*
D02*
G37*
G36*
X219943Y134624D02*
Y132980D01*
X221587D01*
X221516Y133339D01*
X221029Y134066D01*
X220302Y134553D01*
X219943Y134624D01*
D02*
G37*
G36*
X201642Y133314D02*
Y130854D01*
X204102D01*
X204064Y131138D01*
X203762Y131867D01*
X203281Y132494D01*
X202655Y132975D01*
X201925Y133277D01*
X201642Y133314D01*
D02*
G37*
G36*
X221587Y131980D02*
X217300D01*
X217371Y131622D01*
X217751Y131053D01*
X217820Y130709D01*
X217751Y130364D01*
X217371Y129795D01*
X217300Y129437D01*
X221587D01*
X221516Y129795D01*
X221136Y130364D01*
X221067Y130709D01*
X221136Y131053D01*
X221516Y131622D01*
X221587Y131980D01*
D02*
G37*
G36*
X191693Y132426D02*
X190991Y132286D01*
X190395Y131888D01*
X189997Y131293D01*
X189858Y130591D01*
X189997Y129888D01*
X190395Y129293D01*
X190991Y128895D01*
X191693Y128755D01*
X192395Y128895D01*
X192991Y129293D01*
X193388Y129888D01*
X193528Y130591D01*
X193388Y131293D01*
X192991Y131888D01*
X192395Y132286D01*
X191693Y132426D01*
D02*
G37*
G36*
X200642Y133314D02*
X200359Y133277D01*
X199629Y132975D01*
X199002Y132494D01*
X198521Y131867D01*
X198219Y131138D01*
X198182Y130854D01*
X200642D01*
Y133314D01*
D02*
G37*
G36*
X115227Y133418D02*
X114525Y133278D01*
X113929Y132880D01*
X113532Y132285D01*
X113392Y131582D01*
X113532Y130880D01*
X113929Y130285D01*
X114525Y129887D01*
X115227Y129747D01*
X115929Y129887D01*
X116525Y130285D01*
X116923Y130880D01*
X117062Y131582D01*
X116923Y132285D01*
X116525Y132880D01*
X115929Y133278D01*
X115227Y133418D01*
D02*
G37*
G36*
X199152Y141862D02*
X197508D01*
Y140219D01*
X197866Y140290D01*
X198594Y140776D01*
X199080Y141504D01*
X199152Y141862D01*
D02*
G37*
G36*
X211741Y180086D02*
X210805Y179900D01*
X210011Y179369D01*
X209481Y178576D01*
X209295Y177639D01*
X209481Y176703D01*
X210011Y175909D01*
X210805Y175378D01*
X210824Y175375D01*
Y172358D01*
X180163Y141697D01*
X179964Y141400D01*
X179895Y141048D01*
Y138347D01*
X179395Y138080D01*
X179222Y138196D01*
X178520Y138335D01*
X177817Y138196D01*
X177222Y137798D01*
X176824Y137202D01*
X176684Y136500D01*
X176824Y135798D01*
X177222Y135202D01*
X177817Y134804D01*
X178520Y134665D01*
X179222Y134804D01*
X179395Y134920D01*
X179895Y134652D01*
Y132985D01*
X179395Y132834D01*
X179369Y132872D01*
X178773Y133270D01*
X178071Y133410D01*
X177369Y133270D01*
X176773Y132872D01*
X176375Y132277D01*
X176236Y131575D01*
X176310Y131202D01*
X176188Y131077D01*
X175857Y130917D01*
X175666Y131045D01*
X175315Y131114D01*
X160079D01*
X159728Y131045D01*
X159430Y130846D01*
X157107Y128523D01*
X156908Y128225D01*
X156838Y127874D01*
Y120748D01*
X156338Y120481D01*
X156213Y120564D01*
X155511Y120704D01*
X154808Y120564D01*
X154213Y120167D01*
X153815Y119571D01*
X153675Y118869D01*
X153815Y118167D01*
X154213Y117571D01*
X154576Y117329D01*
X154581Y116747D01*
X154224Y116508D01*
X153826Y115913D01*
X153686Y115211D01*
X153826Y114508D01*
X154224Y113913D01*
X154382Y113807D01*
Y113307D01*
X154234Y113208D01*
X153837Y112613D01*
X153697Y111911D01*
X153837Y111208D01*
X154234Y110613D01*
X154812Y110227D01*
X154825Y110148D01*
X154792Y109713D01*
X154719Y109698D01*
X154124Y109300D01*
X153726Y108705D01*
X153586Y108003D01*
X153726Y107300D01*
X154124Y106705D01*
X154654Y106351D01*
X154665Y106089D01*
X154602Y105830D01*
X154598Y105829D01*
X154002Y105432D01*
X153748Y105052D01*
X151693D01*
X151342Y104982D01*
X151044Y104783D01*
X120919Y74658D01*
X62664D01*
X62518Y75766D01*
X62080Y76824D01*
X61383Y77732D01*
X60474Y78430D01*
X59416Y78868D01*
X58280Y79018D01*
X57144Y78868D01*
X56086Y78430D01*
X55177Y77732D01*
X54480Y76824D01*
X54042Y75766D01*
X53892Y74630D01*
X54042Y73494D01*
X54480Y72436D01*
X55177Y71527D01*
X56086Y70830D01*
X57144Y70392D01*
X58280Y70243D01*
X59416Y70392D01*
X60474Y70830D01*
X61383Y71527D01*
X62080Y72436D01*
X62240Y72823D01*
X121299D01*
X121651Y72893D01*
X121948Y73092D01*
X152073Y103216D01*
X153748D01*
X154002Y102836D01*
X154598Y102438D01*
X155300Y102299D01*
X156002Y102438D01*
X156338Y102663D01*
X156838Y102395D01*
Y95893D01*
X156908Y95542D01*
X157107Y95244D01*
X166242Y86110D01*
X166336Y85636D01*
X166734Y85041D01*
X167329Y84643D01*
X168032Y84503D01*
X168734Y84643D01*
X169329Y85041D01*
X169727Y85636D01*
X169867Y86339D01*
X169727Y87041D01*
X169329Y87636D01*
X168734Y88034D01*
X168032Y88174D01*
X167329Y88034D01*
X167080Y87867D01*
X166337Y88611D01*
X166441Y89087D01*
X166510Y89144D01*
X167089Y89530D01*
X167487Y90126D01*
X167626Y90828D01*
X167487Y91531D01*
X167089Y92126D01*
X166493Y92524D01*
X165791Y92663D01*
X165089Y92524D01*
X164493Y92126D01*
X164107Y91547D01*
X164050Y91478D01*
X163573Y91374D01*
X158674Y96273D01*
Y103109D01*
X159174Y103260D01*
X159233Y103171D01*
X159730Y102839D01*
X159815Y102822D01*
Y104252D01*
Y105682D01*
X159730Y105665D01*
X159233Y105333D01*
X159174Y105244D01*
X158674Y105395D01*
Y127494D01*
X159607Y128428D01*
X160068Y128182D01*
X159976Y127717D01*
X160116Y127014D01*
X160513Y126419D01*
X161109Y126021D01*
X161811Y125881D01*
X162513Y126021D01*
X163109Y126419D01*
X163363Y126799D01*
X165082D01*
X165493Y126299D01*
X165578Y125870D01*
X165821Y125506D01*
X166185Y125263D01*
X166614Y125178D01*
X167043Y125263D01*
X167407Y125506D01*
X167650Y125870D01*
X167689Y126065D01*
X167979Y126213D01*
X168285Y126044D01*
X168351Y125714D01*
X168682Y125218D01*
X169178Y124886D01*
X169264Y124869D01*
Y126299D01*
X170264D01*
Y124869D01*
X170349Y124886D01*
X170658Y125093D01*
X170714Y125008D01*
X171623Y124100D01*
X171920Y123901D01*
X171843Y123407D01*
X171792Y123150D01*
X171877Y122720D01*
X172120Y122356D01*
X172484Y122113D01*
X172913Y122028D01*
X173343Y122113D01*
X173706Y122356D01*
X173950Y122720D01*
X174035Y123150D01*
X174029Y123179D01*
X174490Y123425D01*
X174985Y122930D01*
X175027Y122720D01*
X175270Y122356D01*
X175634Y122113D01*
X176063Y122028D01*
X176492Y122113D01*
X176856Y122356D01*
X177099Y122720D01*
X177184Y123150D01*
X177099Y123579D01*
X176856Y123943D01*
X176492Y124186D01*
X176283Y124227D01*
X175788Y124723D01*
X176034Y125183D01*
X176063Y125178D01*
X176492Y125263D01*
X176856Y125506D01*
X177099Y125870D01*
X177184Y126299D01*
X177179Y126328D01*
X177640Y126575D01*
X178135Y126079D01*
X178176Y125870D01*
X178419Y125506D01*
X178783Y125263D01*
X179213Y125178D01*
X179242Y125183D01*
X179488Y124723D01*
X178993Y124227D01*
X178783Y124186D01*
X178419Y123943D01*
X178176Y123579D01*
X178091Y123150D01*
X178176Y122720D01*
X178419Y122356D01*
X178783Y122113D01*
X179213Y122028D01*
X179642Y122113D01*
X180006Y122356D01*
X180249Y122720D01*
X180290Y122930D01*
X180786Y123425D01*
X181246Y123179D01*
X181241Y123150D01*
X181326Y122720D01*
X181569Y122356D01*
X181933Y122113D01*
X182362Y122028D01*
X182791Y122113D01*
X183155Y122356D01*
X183398Y122720D01*
X183440Y122930D01*
X183935Y123425D01*
X184396Y123179D01*
X184390Y123150D01*
X184476Y122720D01*
X184719Y122356D01*
X185083Y122113D01*
X185512Y122028D01*
X185941Y122113D01*
X186305Y122356D01*
X186548Y122720D01*
X186633Y123150D01*
X186548Y123579D01*
X186305Y123943D01*
X185941Y124186D01*
X185512Y124271D01*
X185483Y124266D01*
X185049Y124643D01*
X185057Y124864D01*
X185476Y125185D01*
X185512Y125178D01*
X185941Y125263D01*
X186305Y125506D01*
X186548Y125870D01*
X186633Y126299D01*
X186548Y126728D01*
X186305Y127092D01*
X185941Y127335D01*
X185512Y127421D01*
X185394Y127397D01*
X184894Y127765D01*
Y129555D01*
X185394Y129707D01*
X185671Y129293D01*
X186266Y128895D01*
X186969Y128755D01*
X187671Y128895D01*
X188266Y129293D01*
X188664Y129888D01*
X188804Y130591D01*
X188664Y131293D01*
X188266Y131888D01*
X187671Y132286D01*
X186969Y132426D01*
X186266Y132286D01*
X185671Y131888D01*
X185394Y131474D01*
X184894Y131626D01*
Y139384D01*
X187204Y141694D01*
X187683Y141549D01*
X187731Y141307D01*
X188217Y140579D01*
X188945Y140093D01*
X189303Y140022D01*
Y142165D01*
X190303D01*
Y140022D01*
X190662Y140093D01*
X191389Y140579D01*
X191878D01*
X192606Y140093D01*
X192965Y140022D01*
Y142165D01*
Y144309D01*
X192606Y144238D01*
X191956Y143803D01*
X191647Y143752D01*
X191621D01*
X191312Y143803D01*
X190662Y144238D01*
X190420Y144286D01*
X190275Y144764D01*
X217534Y172024D01*
X217733Y172321D01*
X217803Y172673D01*
Y175219D01*
X217822Y175223D01*
X218616Y175753D01*
X219146Y176547D01*
X219332Y177483D01*
X219146Y178420D01*
X218616Y179214D01*
X217822Y179744D01*
X216885Y179930D01*
X215949Y179744D01*
X215155Y179214D01*
X214624Y178420D01*
X214584Y178215D01*
X214074D01*
X214002Y178576D01*
X213472Y179369D01*
X212678Y179900D01*
X211741Y180086D01*
D02*
G37*
G36*
X174752Y143167D02*
Y141524D01*
X176396D01*
X176324Y141882D01*
X175838Y142610D01*
X175110Y143096D01*
X174752Y143167D01*
D02*
G37*
G36*
X173752D02*
X173394Y143096D01*
X172666Y142610D01*
X172180Y141882D01*
X172108Y141524D01*
X173752D01*
Y143167D01*
D02*
G37*
G36*
X170648Y140925D02*
X169004D01*
Y139281D01*
X169362Y139353D01*
X170090Y139839D01*
X170576Y140567D01*
X170648Y140925D01*
D02*
G37*
G36*
X173752Y140524D02*
X172108D01*
X172180Y140165D01*
X172666Y139437D01*
X173394Y138951D01*
X173752Y138880D01*
Y140524D01*
D02*
G37*
G36*
X119954Y140925D02*
X117696D01*
Y138667D01*
X117927Y138697D01*
X118608Y138979D01*
X119193Y139428D01*
X119641Y140013D01*
X119924Y140694D01*
X119954Y140925D01*
D02*
G37*
G36*
X168004D02*
X166360D01*
X166432Y140567D01*
X166918Y139839D01*
X167646Y139353D01*
X168004Y139281D01*
Y140925D01*
D02*
G37*
G36*
X176396Y140524D02*
X174752D01*
Y138880D01*
X175110Y138951D01*
X175838Y139437D01*
X176324Y140165D01*
X176396Y140524D01*
D02*
G37*
G36*
X116696Y144183D02*
X116465Y144153D01*
X115784Y143871D01*
X115199Y143422D01*
X114750Y142837D01*
X114468Y142156D01*
X114437Y141925D01*
X116696D01*
Y144183D01*
D02*
G37*
G36*
X167114Y124580D02*
Y123650D01*
X168044D01*
X168027Y123735D01*
X167696Y124231D01*
X167199Y124563D01*
X167114Y124580D01*
D02*
G37*
G36*
X166114D02*
X166029Y124563D01*
X165533Y124231D01*
X165201Y123735D01*
X165184Y123650D01*
X166114D01*
Y124580D01*
D02*
G37*
G36*
X192311D02*
Y123650D01*
X193241D01*
X193224Y123735D01*
X192893Y124231D01*
X192396Y124563D01*
X192311Y124580D01*
D02*
G37*
G36*
X188161D02*
X188076Y124563D01*
X187580Y124231D01*
X187248Y123735D01*
X187232Y123650D01*
X188161D01*
Y124580D01*
D02*
G37*
G36*
X142835Y126993D02*
X142132Y126853D01*
X141537Y126455D01*
X141139Y125860D01*
X140999Y125157D01*
X141139Y124455D01*
X141537Y123860D01*
X142132Y123462D01*
X142835Y123322D01*
X143537Y123462D01*
X144132Y123860D01*
X144530Y124455D01*
X144670Y125157D01*
X144530Y125860D01*
X144132Y126455D01*
X143537Y126853D01*
X142835Y126993D01*
D02*
G37*
G36*
X200602Y124500D02*
X198142D01*
X198180Y124217D01*
X198482Y123487D01*
X198963Y122860D01*
X199589Y122380D01*
X200319Y122077D01*
X200602Y122040D01*
Y124500D01*
D02*
G37*
G36*
X194961Y124271D02*
X194531Y124186D01*
X194168Y123943D01*
X193924Y123579D01*
X193839Y123150D01*
X193924Y122720D01*
X194168Y122356D01*
X194531Y122113D01*
X194961Y122028D01*
X195390Y122113D01*
X195754Y122356D01*
X195997Y122720D01*
X196082Y123150D01*
X195997Y123579D01*
X195754Y123943D01*
X195390Y124186D01*
X194961Y124271D01*
D02*
G37*
G36*
X221587Y124894D02*
X217300D01*
X217371Y124535D01*
X217751Y123967D01*
X217820Y123622D01*
X217751Y123277D01*
X217371Y122709D01*
X217300Y122350D01*
X221587D01*
X221516Y122709D01*
X221136Y123277D01*
X221067Y123622D01*
X221136Y123967D01*
X221516Y124535D01*
X221587Y124894D01*
D02*
G37*
G36*
X204062Y124500D02*
X201602D01*
Y122040D01*
X201886Y122077D01*
X202615Y122380D01*
X203242Y122860D01*
X203723Y123487D01*
X204025Y124217D01*
X204062Y124500D01*
D02*
G37*
G36*
X204102Y129854D02*
X198182D01*
X198219Y129571D01*
X198521Y128841D01*
X199002Y128215D01*
X199272Y128007D01*
Y127377D01*
X198963Y127140D01*
X198482Y126513D01*
X198180Y125783D01*
X198142Y125500D01*
X204062D01*
X204025Y125783D01*
X203723Y126513D01*
X203242Y127140D01*
X202972Y127347D01*
Y127977D01*
X203281Y128215D01*
X203762Y128841D01*
X204064Y129571D01*
X204102Y129854D01*
D02*
G37*
G36*
X194961Y127421D02*
X194531Y127335D01*
X194168Y127092D01*
X193924Y126728D01*
X193839Y126299D01*
X193924Y125870D01*
X194168Y125506D01*
X194531Y125263D01*
X194961Y125178D01*
X195390Y125263D01*
X195754Y125506D01*
X195997Y125870D01*
X196082Y126299D01*
X195997Y126728D01*
X195754Y127092D01*
X195390Y127335D01*
X194961Y127421D01*
D02*
G37*
G36*
X221587Y128437D02*
X217300D01*
X217371Y128079D01*
X217751Y127510D01*
X217820Y127165D01*
X217751Y126821D01*
X217371Y126252D01*
X217300Y125894D01*
X221587D01*
X221516Y126252D01*
X221136Y126821D01*
X221067Y127165D01*
X221136Y127510D01*
X221516Y128079D01*
X221587Y128437D01*
D02*
G37*
G36*
X146181Y129552D02*
X145479Y129412D01*
X144883Y129014D01*
X144485Y128419D01*
X144346Y127717D01*
X144485Y127014D01*
X144883Y126419D01*
X145479Y126021D01*
X146181Y125881D01*
X146883Y126021D01*
X147479Y126419D01*
X147877Y127014D01*
X148016Y127717D01*
X147877Y128419D01*
X147479Y129014D01*
X146883Y129412D01*
X146181Y129552D01*
D02*
G37*
G36*
X191811Y127421D02*
X191382Y127335D01*
X191018Y127092D01*
X190775Y126728D01*
X190690Y126299D01*
X190775Y125870D01*
X191018Y125506D01*
X191382Y125263D01*
X191811Y125178D01*
X192240Y125263D01*
X192604Y125506D01*
X192847Y125870D01*
X192933Y126299D01*
X192847Y126728D01*
X192604Y127092D01*
X192240Y127335D01*
X191811Y127421D01*
D02*
G37*
G36*
X119558Y128693D02*
X118856Y128553D01*
X118260Y128156D01*
X117862Y127560D01*
X117723Y126858D01*
X117862Y126156D01*
X118260Y125560D01*
X118856Y125162D01*
X119558Y125023D01*
X120260Y125162D01*
X120856Y125560D01*
X121254Y126156D01*
X121393Y126858D01*
X121254Y127560D01*
X120856Y128156D01*
X120260Y128553D01*
X119558Y128693D01*
D02*
G37*
G36*
X191311Y124580D02*
X191226Y124563D01*
X190730Y124231D01*
X190514Y123908D01*
X190505Y123905D01*
X189968D01*
X189958Y123908D01*
X189743Y124231D01*
X189247Y124563D01*
X189161Y124580D01*
Y123150D01*
X188661D01*
Y122650D01*
X187232D01*
X187248Y122564D01*
X187580Y122068D01*
X187903Y121853D01*
X187906Y121843D01*
Y121306D01*
X187903Y121297D01*
X187580Y121081D01*
X187248Y120585D01*
X187232Y120500D01*
X188661D01*
Y120000D01*
X189161D01*
Y118570D01*
X189247Y118587D01*
X189743Y118919D01*
X189958Y119241D01*
X189968Y119245D01*
X190505D01*
X190514Y119241D01*
X190730Y118919D01*
X191052Y118703D01*
X191056Y118694D01*
Y118157D01*
X191052Y118147D01*
X190730Y117932D01*
X190398Y117436D01*
X190381Y117350D01*
X191811D01*
Y116350D01*
X190381D01*
X190398Y116265D01*
X190730Y115769D01*
X191052Y115553D01*
X191056Y115544D01*
Y115007D01*
X191052Y114998D01*
X190730Y114782D01*
X190514Y114460D01*
X190505Y114456D01*
X189968D01*
X189958Y114460D01*
X189743Y114782D01*
X189247Y115114D01*
X189161Y115131D01*
Y113701D01*
X188661D01*
Y113201D01*
X187232D01*
X187248Y113116D01*
X187580Y112619D01*
X187903Y112404D01*
X187906Y112395D01*
Y111857D01*
X187903Y111848D01*
X187580Y111633D01*
X187248Y111136D01*
X187232Y111051D01*
X188661D01*
Y110051D01*
X187232D01*
X187248Y109966D01*
X187580Y109470D01*
X187903Y109254D01*
X187906Y109245D01*
Y108708D01*
X187903Y108699D01*
X187580Y108483D01*
X187248Y107987D01*
X187232Y107902D01*
X188661D01*
Y107402D01*
X189161D01*
Y105972D01*
X189247Y105989D01*
X189743Y106320D01*
X189958Y106643D01*
X189968Y106646D01*
X190505D01*
X190514Y106643D01*
X190730Y106320D01*
X191052Y106105D01*
X191056Y106095D01*
Y105558D01*
X191052Y105549D01*
X190730Y105333D01*
X190398Y104837D01*
X190381Y104752D01*
X191811D01*
Y103752D01*
X190381D01*
X190398Y103667D01*
X190730Y103171D01*
X191052Y102955D01*
X191056Y102946D01*
Y102409D01*
X191052Y102399D01*
X190730Y102184D01*
X190514Y101861D01*
X190505Y101857D01*
X189968D01*
X189958Y101861D01*
X189743Y102184D01*
X189247Y102515D01*
X189161Y102532D01*
Y101102D01*
Y99672D01*
X189247Y99689D01*
X189743Y100021D01*
X189958Y100344D01*
X189968Y100347D01*
X190505D01*
X190514Y100344D01*
X190730Y100021D01*
X191226Y99689D01*
X191311Y99672D01*
Y101102D01*
X192311D01*
Y99672D01*
X192396Y99689D01*
X192893Y100021D01*
X193108Y100344D01*
X193117Y100347D01*
X193654D01*
X193664Y100344D01*
X193879Y100021D01*
X194375Y99689D01*
X194461Y99672D01*
Y101102D01*
X195461D01*
Y99672D01*
X195546Y99689D01*
X196042Y100021D01*
X196258Y100344D01*
X196267Y100347D01*
X196804D01*
X196813Y100344D01*
X197029Y100021D01*
X197460Y99733D01*
X197516Y99420D01*
X197509Y99183D01*
X197102Y98911D01*
X196704Y98316D01*
X196565Y97613D01*
X196704Y96911D01*
X197102Y96316D01*
X197698Y95918D01*
X198400Y95778D01*
X199102Y95918D01*
X199698Y96316D01*
X199878Y96586D01*
X200480D01*
X200602Y96402D01*
X201198Y96004D01*
X201900Y95865D01*
X202602Y96004D01*
X203198Y96402D01*
X203596Y96998D01*
X203735Y97700D01*
X203596Y98402D01*
X203198Y98998D01*
X202602Y99396D01*
X201900Y99535D01*
X201198Y99396D01*
X200602Y98998D01*
X200422Y98728D01*
X199820D01*
X199698Y98911D01*
X199102Y99309D01*
X199044Y99321D01*
X198938Y99851D01*
X199192Y100021D01*
X199523Y100517D01*
X199540Y100602D01*
X198110D01*
Y101602D01*
X199540D01*
X199523Y101688D01*
X199192Y102184D01*
X198869Y102399D01*
X198865Y102409D01*
Y102946D01*
X198869Y102955D01*
X199192Y103171D01*
X199523Y103667D01*
X199540Y103752D01*
X198110D01*
Y104252D01*
X197610D01*
Y105682D01*
X197525Y105665D01*
X197029Y105333D01*
X196813Y105011D01*
X196804Y105007D01*
X196267D01*
X196258Y105011D01*
X196042Y105333D01*
X195719Y105549D01*
X195716Y105558D01*
Y106095D01*
X195719Y106105D01*
X196042Y106320D01*
X196374Y106816D01*
X196391Y106902D01*
X194961D01*
Y107902D01*
X196391D01*
X196374Y107987D01*
X196042Y108483D01*
X195719Y108699D01*
X195716Y108708D01*
Y109245D01*
X195719Y109254D01*
X196042Y109470D01*
X196258Y109792D01*
X196267Y109796D01*
X196804D01*
X196813Y109792D01*
X197029Y109470D01*
X197525Y109138D01*
X197610Y109121D01*
Y110551D01*
X198110D01*
Y111051D01*
X199540D01*
X199523Y111136D01*
X199192Y111633D01*
X198869Y111848D01*
X198865Y111857D01*
Y112395D01*
X198869Y112404D01*
X199192Y112619D01*
X199523Y113116D01*
X199540Y113201D01*
X198110D01*
Y114201D01*
X199540D01*
X199523Y114286D01*
X199192Y114782D01*
X198869Y114998D01*
X198865Y115007D01*
Y115544D01*
X198869Y115553D01*
X199192Y115769D01*
X199523Y116265D01*
X199540Y116350D01*
X198110D01*
Y117350D01*
X199540D01*
X199523Y117436D01*
X199192Y117932D01*
X198869Y118147D01*
X198865Y118157D01*
Y118694D01*
X198869Y118703D01*
X199192Y118919D01*
X199523Y119415D01*
X199540Y119500D01*
X198110D01*
Y120000D01*
X197610D01*
Y121430D01*
X197525Y121413D01*
X197029Y121081D01*
X196813Y120759D01*
X196804Y120755D01*
X196267D01*
X196258Y120759D01*
X196042Y121081D01*
X195546Y121413D01*
X195461Y121430D01*
Y120000D01*
X194461D01*
Y121430D01*
X194375Y121413D01*
X193879Y121081D01*
X193664Y120759D01*
X193654Y120755D01*
X193117D01*
X193108Y120759D01*
X192893Y121081D01*
X192570Y121297D01*
X192566Y121306D01*
Y121843D01*
X192570Y121853D01*
X192893Y122068D01*
X193224Y122564D01*
X193241Y122650D01*
X191811D01*
Y123150D01*
X191311D01*
Y124580D01*
D02*
G37*
G36*
X188661Y127421D02*
X188232Y127335D01*
X187868Y127092D01*
X187625Y126728D01*
X187540Y126299D01*
X187625Y125870D01*
X187868Y125506D01*
X188232Y125263D01*
X188661Y125178D01*
X189091Y125263D01*
X189454Y125506D01*
X189698Y125870D01*
X189783Y126299D01*
X189698Y126728D01*
X189454Y127092D01*
X189091Y127335D01*
X188661Y127421D01*
D02*
G37*
G36*
X234080Y133818D02*
X232944Y133668D01*
X231886Y133230D01*
X230978Y132533D01*
X230280Y131624D01*
X229842Y130566D01*
X229693Y129430D01*
X229842Y128294D01*
X230280Y127236D01*
X230978Y126328D01*
X231886Y125630D01*
X232944Y125192D01*
X234080Y125042D01*
X235216Y125192D01*
X236274Y125630D01*
X237182Y126328D01*
X237880Y127236D01*
X238318Y128294D01*
X238468Y129430D01*
X238318Y130566D01*
X237880Y131624D01*
X237182Y132533D01*
X236274Y133230D01*
X235216Y133668D01*
X234080Y133818D01*
D02*
G37*
%LPD*%
G36*
X214624Y176547D02*
X215155Y175753D01*
X215949Y175223D01*
X215967Y175219D01*
Y173053D01*
X183327Y140413D01*
X183129Y140115D01*
X183059Y139764D01*
Y127712D01*
X182559Y127382D01*
X182362Y127421D01*
X182230Y127394D01*
X181730Y127755D01*
Y140668D01*
X212390Y171329D01*
X212589Y171627D01*
X212659Y171978D01*
Y175375D01*
X212678Y175378D01*
X213472Y175909D01*
X214002Y176703D01*
X214043Y176907D01*
X214553D01*
X214624Y176547D01*
D02*
G37*
D23*
X151693Y104134D02*
X155300D01*
X171363Y125657D02*
X172271Y124749D01*
X171363Y125657D02*
Y126892D01*
X170406Y127849D02*
X171363Y126892D01*
X165972Y127849D02*
X170406D01*
X165840Y127717D02*
X165972Y127849D01*
X161811Y127717D02*
X165840D01*
X180812Y124749D02*
Y141048D01*
X183976Y126970D02*
Y139764D01*
X183962Y126956D02*
X183976Y126970D01*
X183962Y124749D02*
Y126956D01*
X172271Y124749D02*
X174463D01*
X179800Y79457D02*
X179842Y79500D01*
X121299Y73740D02*
X151693Y104134D01*
X58377Y73740D02*
X121299D01*
X174463Y124749D02*
X176063Y123150D01*
X183976Y139764D02*
X216885Y172673D01*
X182362Y123150D02*
X183962Y124749D01*
X216885Y172673D02*
Y177483D01*
X180812Y141048D02*
X211741Y171978D01*
X179213Y123150D02*
X180812Y124749D01*
X211741Y171978D02*
Y177639D01*
X175315Y130197D02*
X179213Y126299D01*
X160079Y130197D02*
X175315D01*
X157756Y127874D02*
X160079Y130197D01*
X157756Y95893D02*
X167311Y86339D01*
X168032D01*
X157756Y95893D02*
Y127874D01*
X190211Y96353D02*
X191811Y97953D01*
X191587Y94803D02*
X191811D01*
X189501Y84100D02*
X190211Y84811D01*
X190453Y82900D02*
X191811Y84258D01*
Y94803D01*
X176800Y84100D02*
X189501D01*
X179779Y79479D02*
X183200Y82900D01*
X190453D01*
X190211Y84811D02*
Y96353D01*
X174800Y82100D02*
X176800Y84100D01*
X174800Y81000D02*
Y82100D01*
D63*
X58280Y74630D02*
D03*
D64*
X12000Y211297D02*
D03*
D65*
X201142Y130354D02*
D03*
X150748Y93228D02*
D03*
X201102Y125000D02*
D03*
D66*
X12000Y201297D02*
D03*
D67*
X12000Y21300D02*
D03*
D68*
Y11300D02*
D03*
D69*
X144370Y115512D02*
D03*
Y118858D02*
D03*
X155300Y104134D02*
D03*
X144370Y112008D02*
D03*
Y108189D02*
D03*
X179842Y79500D02*
D03*
X219443Y114764D02*
D03*
Y128937D02*
D03*
Y100591D02*
D03*
Y97047D02*
D03*
Y107677D02*
D03*
Y104134D02*
D03*
Y111221D02*
D03*
Y118307D02*
D03*
Y121850D02*
D03*
X168032Y86339D02*
D03*
X222520Y178532D02*
D03*
X194528Y184016D02*
D03*
X100039Y44094D02*
D03*
X204095Y48583D02*
D03*
X182550Y47904D02*
D03*
X192393Y48237D02*
D03*
X164331Y79331D02*
D03*
X175984Y201024D02*
D03*
X161811Y127717D02*
D03*
X174252Y141024D02*
D03*
X168504Y141425D02*
D03*
X189803Y142165D02*
D03*
X193465D02*
D03*
X197008Y142362D02*
D03*
X144370Y104252D02*
D03*
X170700Y48200D02*
D03*
X192393Y77391D02*
D03*
X133750Y75682D02*
D03*
X174800Y81000D02*
D03*
X204204Y62100D02*
D03*
X214600Y72900D02*
D03*
X219443Y125394D02*
D03*
Y132480D02*
D03*
D70*
X84244Y154690D02*
D03*
X216885Y177483D02*
D03*
X211741Y177639D02*
D03*
X117196Y141425D02*
D03*
X184519Y166756D02*
D03*
X141999Y152189D02*
D03*
X152629Y72661D02*
D03*
X156102Y56417D02*
D03*
D74*
X191811Y94803D02*
D03*
Y97953D02*
D03*
X166614D02*
D03*
X198110Y101102D02*
D03*
X194961D02*
D03*
X191811D02*
D03*
X188661D02*
D03*
X172913D02*
D03*
X169764D02*
D03*
X163465D02*
D03*
X198110Y104252D02*
D03*
X191811D02*
D03*
X172913D02*
D03*
X163465D02*
D03*
X160315D02*
D03*
X194961Y107402D02*
D03*
X188661D02*
D03*
X169764D02*
D03*
X166614D02*
D03*
X198110Y110551D02*
D03*
X188661D02*
D03*
X169764D02*
D03*
X166614D02*
D03*
X198110Y113701D02*
D03*
X188661D02*
D03*
X169764D02*
D03*
X166614D02*
D03*
X198110Y116850D02*
D03*
X191811D02*
D03*
X169764D02*
D03*
X166614D02*
D03*
X198110Y120000D02*
D03*
X194961D02*
D03*
X188661D02*
D03*
X172913D02*
D03*
X169764D02*
D03*
X166614D02*
D03*
X191811Y123150D02*
D03*
X188661D02*
D03*
X182362D02*
D03*
X179213D02*
D03*
X176063D02*
D03*
X166614D02*
D03*
X179213Y126299D02*
D03*
X169764D02*
D03*
M02*
