G04 Layer_Physical_Order=2*
G04 Layer_Color=36540*
%FSLAX25Y25*%
%MOIN*%
G70*
G01*
G75*
%ADD23C,0.00600*%
%ADD24C,0.01000*%
%ADD63C,0.07500*%
%ADD64R,0.05906X0.05906*%
%ADD66C,0.05906*%
%ADD69C,0.02400*%
%ADD70C,0.03600*%
%ADD71R,0.04331X0.12913*%
%ADD72R,0.12874X0.17165*%
%ADD73R,0.05551X0.02717*%
%ADD74C,0.01000*%
G36*
X243047Y988D02*
X847D01*
Y59346D01*
X19617D01*
X19969Y59416D01*
X20266Y59615D01*
X20372Y59721D01*
X20571Y60018D01*
X20641Y60370D01*
Y160292D01*
X20571Y160643D01*
X20372Y160941D01*
X19843Y161470D01*
X19545Y161669D01*
X19194Y161739D01*
X953D01*
Y222042D01*
X243047D01*
Y988D01*
D02*
G37*
%LPC*%
G36*
X124063Y60083D02*
X121804D01*
X121835Y59852D01*
X122117Y59171D01*
X122566Y58586D01*
X123151Y58137D01*
X123832Y57855D01*
X124063Y57824D01*
Y60083D01*
D02*
G37*
G36*
X127321D02*
X125063D01*
Y57824D01*
X125294Y57855D01*
X125975Y58137D01*
X126560Y58586D01*
X127008Y59171D01*
X127291Y59852D01*
X127321Y60083D01*
D02*
G37*
G36*
X173630Y63867D02*
X172927Y63727D01*
X172332Y63329D01*
X171934Y62734D01*
X171794Y62031D01*
X171934Y61329D01*
X172332Y60734D01*
X172927Y60336D01*
X173630Y60196D01*
X174332Y60336D01*
X174927Y60734D01*
X175325Y61329D01*
X175465Y62031D01*
X175325Y62734D01*
X174927Y63329D01*
X174332Y63727D01*
X173630Y63867D01*
D02*
G37*
G36*
X197798Y51107D02*
X197440Y51035D01*
X196712Y50549D01*
X196226Y49821D01*
X196154Y49463D01*
X197798D01*
Y51107D01*
D02*
G37*
G36*
X198798D02*
Y49463D01*
X200442D01*
X200370Y49821D01*
X199884Y50549D01*
X199156Y51035D01*
X198798Y51107D01*
D02*
G37*
G36*
X156102Y58864D02*
X155166Y58678D01*
X154372Y58148D01*
X153842Y57354D01*
X153655Y56417D01*
X153842Y55481D01*
X154372Y54687D01*
X155166Y54157D01*
X156102Y53970D01*
X157039Y54157D01*
X157833Y54687D01*
X158363Y55481D01*
X158549Y56417D01*
X158363Y57354D01*
X157833Y58148D01*
X157039Y58678D01*
X156102Y58864D01*
D02*
G37*
G36*
X198080Y63867D02*
X197378Y63727D01*
X196783Y63329D01*
X196385Y62734D01*
X196245Y62031D01*
X196385Y61329D01*
X196783Y60734D01*
X197378Y60336D01*
X198080Y60196D01*
X198783Y60336D01*
X199378Y60734D01*
X199776Y61329D01*
X199916Y62031D01*
X199776Y62734D01*
X199378Y63329D01*
X198783Y63727D01*
X198080Y63867D01*
D02*
G37*
G36*
X152629Y75108D02*
X151692Y74922D01*
X150899Y74392D01*
X150368Y73598D01*
X150182Y72661D01*
X150368Y71725D01*
X150899Y70931D01*
X151692Y70401D01*
X152629Y70214D01*
X153565Y70401D01*
X154359Y70931D01*
X154890Y71725D01*
X155076Y72661D01*
X154890Y73598D01*
X154359Y74392D01*
X153565Y74922D01*
X152629Y75108D01*
D02*
G37*
G36*
X58280Y79018D02*
X57144Y78868D01*
X56086Y78430D01*
X55177Y77732D01*
X54480Y76824D01*
X54042Y75766D01*
X53892Y74630D01*
X54042Y73494D01*
X54480Y72436D01*
X55177Y71527D01*
X56086Y70830D01*
X57144Y70392D01*
X58280Y70243D01*
X59416Y70392D01*
X60474Y70830D01*
X61383Y71527D01*
X62080Y72436D01*
X62518Y73494D01*
X62668Y74630D01*
X62518Y75766D01*
X62080Y76824D01*
X61383Y77732D01*
X60474Y78430D01*
X59416Y78868D01*
X58280Y79018D01*
D02*
G37*
G36*
X214600Y74735D02*
X213898Y74596D01*
X213302Y74198D01*
X212904Y73602D01*
X212765Y72900D01*
X212904Y72198D01*
X213302Y71602D01*
X213898Y71204D01*
X214600Y71065D01*
X215302Y71204D01*
X215898Y71602D01*
X216296Y72198D01*
X216435Y72900D01*
X216296Y73602D01*
X215898Y74198D01*
X215302Y74596D01*
X214600Y74735D01*
D02*
G37*
G36*
X204204Y63935D02*
X203501Y63796D01*
X202906Y63398D01*
X202508Y62802D01*
X202368Y62100D01*
X202508Y61398D01*
X202906Y60802D01*
X203501Y60404D01*
X204204Y60265D01*
X204906Y60404D01*
X205501Y60802D01*
X205899Y61398D01*
X206039Y62100D01*
X205899Y62802D01*
X205501Y63398D01*
X204906Y63796D01*
X204204Y63935D01*
D02*
G37*
G36*
X124063Y63341D02*
X123832Y63311D01*
X123151Y63029D01*
X122566Y62580D01*
X122117Y61995D01*
X121835Y61314D01*
X121804Y61083D01*
X124063D01*
Y63341D01*
D02*
G37*
G36*
X125063D02*
Y61083D01*
X127321D01*
X127291Y61314D01*
X127008Y61995D01*
X126560Y62580D01*
X125975Y63029D01*
X125294Y63311D01*
X125063Y63341D01*
D02*
G37*
G36*
X170700Y50035D02*
X169998Y49896D01*
X169402Y49498D01*
X169004Y48902D01*
X168865Y48200D01*
X169004Y47498D01*
X169402Y46902D01*
X169998Y46504D01*
X170700Y46365D01*
X171402Y46504D01*
X171998Y46902D01*
X172396Y47498D01*
X172535Y48200D01*
X172396Y48902D01*
X171998Y49498D01*
X171402Y49896D01*
X170700Y50035D01*
D02*
G37*
G36*
X192393Y50073D02*
X191690Y49933D01*
X191095Y49535D01*
X190697Y48940D01*
X190557Y48237D01*
X190697Y47535D01*
X191095Y46940D01*
X191690Y46542D01*
X192393Y46402D01*
X193095Y46542D01*
X193690Y46940D01*
X194088Y47535D01*
X194228Y48237D01*
X194088Y48940D01*
X193690Y49535D01*
X193095Y49933D01*
X192393Y50073D01*
D02*
G37*
G36*
X204095Y50418D02*
X203392Y50278D01*
X202797Y49880D01*
X202399Y49285D01*
X202259Y48583D01*
X202399Y47880D01*
X202797Y47285D01*
X203392Y46887D01*
X204095Y46747D01*
X204797Y46887D01*
X205392Y47285D01*
X205790Y47880D01*
X205930Y48583D01*
X205790Y49285D01*
X205392Y49880D01*
X204797Y50278D01*
X204095Y50418D01*
D02*
G37*
G36*
X122889Y47864D02*
X120630D01*
X120661Y47633D01*
X120943Y46952D01*
X121392Y46367D01*
X121976Y45918D01*
X122658Y45636D01*
X122889Y45606D01*
Y47864D01*
D02*
G37*
G36*
X126147D02*
X123889D01*
Y45606D01*
X124120Y45636D01*
X124801Y45918D01*
X125386Y46367D01*
X125834Y46952D01*
X126117Y47633D01*
X126147Y47864D01*
D02*
G37*
G36*
X182550Y49740D02*
X181848Y49600D01*
X181252Y49202D01*
X180854Y48607D01*
X180715Y47904D01*
X180854Y47202D01*
X181252Y46607D01*
X181848Y46209D01*
X182550Y46069D01*
X183252Y46209D01*
X183848Y46607D01*
X184246Y47202D01*
X184385Y47904D01*
X184246Y48607D01*
X183848Y49202D01*
X183252Y49600D01*
X182550Y49740D01*
D02*
G37*
G36*
X197798Y48463D02*
X196154D01*
X196226Y48105D01*
X196712Y47377D01*
X197440Y46891D01*
X197798Y46819D01*
Y48463D01*
D02*
G37*
G36*
X208800Y52135D02*
X208098Y51996D01*
X207502Y51598D01*
X207104Y51002D01*
X206965Y50300D01*
X207104Y49598D01*
X207502Y49002D01*
X208098Y48604D01*
X208800Y48465D01*
X209502Y48604D01*
X210098Y49002D01*
X210496Y49598D01*
X210635Y50300D01*
X210496Y51002D01*
X210098Y51598D01*
X209502Y51996D01*
X208800Y52135D01*
D02*
G37*
G36*
X122889Y51122D02*
X122658Y51092D01*
X121976Y50810D01*
X121392Y50361D01*
X120943Y49776D01*
X120661Y49095D01*
X120630Y48864D01*
X122889D01*
Y51122D01*
D02*
G37*
G36*
X123889D02*
Y48864D01*
X126147D01*
X126117Y49095D01*
X125834Y49776D01*
X125386Y50361D01*
X124801Y50810D01*
X124120Y51092D01*
X123889Y51122D01*
D02*
G37*
G36*
X200442Y48463D02*
X198798D01*
Y46819D01*
X199156Y46891D01*
X199884Y47377D01*
X200370Y48105D01*
X200442Y48463D01*
D02*
G37*
G36*
X176145Y49888D02*
X175786Y49817D01*
X175058Y49331D01*
X174572Y48603D01*
X174501Y48245D01*
X176145D01*
Y49888D01*
D02*
G37*
G36*
X177145D02*
Y48245D01*
X178788D01*
X178717Y48603D01*
X178231Y49331D01*
X177503Y49817D01*
X177145Y49888D01*
D02*
G37*
G36*
X172913Y102224D02*
X172484Y102138D01*
X172120Y101895D01*
X171877Y101532D01*
X171792Y101102D01*
X171877Y100673D01*
X172120Y100309D01*
X172484Y100066D01*
X172913Y99981D01*
X173343Y100066D01*
X173706Y100309D01*
X173950Y100673D01*
X174035Y101102D01*
X173950Y101532D01*
X173706Y101895D01*
X173343Y102138D01*
X172913Y102224D01*
D02*
G37*
G36*
X84412Y104704D02*
X82154D01*
X82184Y104473D01*
X82467Y103792D01*
X82915Y103208D01*
X83500Y102759D01*
X84181Y102477D01*
X84412Y102446D01*
Y104704D01*
D02*
G37*
G36*
X87671D02*
X85412D01*
Y102446D01*
X85643Y102477D01*
X86324Y102759D01*
X86909Y103208D01*
X87358Y103792D01*
X87640Y104473D01*
X87671Y104704D01*
D02*
G37*
G36*
X163465Y102224D02*
X163035Y102138D01*
X162671Y101895D01*
X162428Y101532D01*
X162343Y101102D01*
X162428Y100673D01*
X162671Y100309D01*
X163035Y100066D01*
X163465Y99981D01*
X163894Y100066D01*
X164258Y100309D01*
X164501Y100673D01*
X164586Y101102D01*
X164501Y101532D01*
X164258Y101895D01*
X163894Y102138D01*
X163465Y102224D01*
D02*
G37*
G36*
X166614D02*
X166185Y102138D01*
X165821Y101895D01*
X165578Y101532D01*
X165493Y101102D01*
X165578Y100673D01*
X165821Y100309D01*
X166185Y100066D01*
X166614Y99981D01*
X167043Y100066D01*
X167407Y100309D01*
X167650Y100673D01*
X167736Y101102D01*
X167650Y101532D01*
X167407Y101895D01*
X167043Y102138D01*
X166614Y102224D01*
D02*
G37*
G36*
X169764D02*
X169335Y102138D01*
X168971Y101895D01*
X168728Y101532D01*
X168642Y101102D01*
X168728Y100673D01*
X168971Y100309D01*
X169335Y100066D01*
X169764Y99981D01*
X170193Y100066D01*
X170557Y100309D01*
X170800Y100673D01*
X170885Y101102D01*
X170800Y101532D01*
X170557Y101895D01*
X170193Y102138D01*
X169764Y102224D01*
D02*
G37*
G36*
X234480Y107230D02*
X230255D01*
X230352Y106490D01*
X230831Y105334D01*
X231592Y104342D01*
X232585Y103581D01*
X233740Y103102D01*
X234480Y103005D01*
Y107230D01*
D02*
G37*
G36*
X85412Y107963D02*
Y105704D01*
X87671D01*
X87640Y105935D01*
X87358Y106616D01*
X86909Y107201D01*
X86324Y107650D01*
X85643Y107932D01*
X85412Y107963D01*
D02*
G37*
G36*
X191811Y108523D02*
X191382Y108438D01*
X191018Y108195D01*
X190775Y107831D01*
X190690Y107402D01*
X190775Y106972D01*
X191018Y106608D01*
X191382Y106365D01*
X191811Y106280D01*
X192240Y106365D01*
X192604Y106608D01*
X192847Y106972D01*
X192933Y107402D01*
X192847Y107831D01*
X192604Y108195D01*
X192240Y108438D01*
X191811Y108523D01*
D02*
G37*
G36*
X234480Y112455D02*
X233740Y112358D01*
X232585Y111879D01*
X231592Y111118D01*
X230831Y110126D01*
X230352Y108970D01*
X230255Y108230D01*
X234480D01*
Y112455D01*
D02*
G37*
G36*
X239705Y107230D02*
X235480D01*
Y103005D01*
X236220Y103102D01*
X237375Y103581D01*
X238368Y104342D01*
X239129Y105334D01*
X239608Y106490D01*
X239705Y107230D01*
D02*
G37*
G36*
X191811Y105374D02*
X191382Y105288D01*
X191018Y105045D01*
X190775Y104681D01*
X190690Y104252D01*
X190775Y103823D01*
X191018Y103459D01*
X191382Y103216D01*
X191811Y103130D01*
X192240Y103216D01*
X192604Y103459D01*
X192847Y103823D01*
X192933Y104252D01*
X192847Y104681D01*
X192604Y105045D01*
X192240Y105288D01*
X191811Y105374D01*
D02*
G37*
G36*
X84412Y107963D02*
X84181Y107932D01*
X83500Y107650D01*
X82915Y107201D01*
X82467Y106616D01*
X82184Y105935D01*
X82154Y105704D01*
X84412D01*
Y107963D01*
D02*
G37*
G36*
X168032Y88174D02*
X167329Y88034D01*
X166734Y87636D01*
X166336Y87041D01*
X166196Y86339D01*
X166336Y85636D01*
X166734Y85041D01*
X167329Y84643D01*
X168032Y84503D01*
X168734Y84643D01*
X169329Y85041D01*
X169727Y85636D01*
X169867Y86339D01*
X169727Y87041D01*
X169329Y87636D01*
X168734Y88034D01*
X168032Y88174D01*
D02*
G37*
G36*
X165791Y92663D02*
X165089Y92524D01*
X164493Y92126D01*
X164095Y91531D01*
X163956Y90828D01*
X164095Y90126D01*
X164493Y89530D01*
X165089Y89133D01*
X165791Y88993D01*
X166493Y89133D01*
X167089Y89530D01*
X167487Y90126D01*
X167626Y90828D01*
X167487Y91531D01*
X167089Y92126D01*
X166493Y92524D01*
X165791Y92663D01*
D02*
G37*
G36*
X150748Y95851D02*
X150069Y95761D01*
X149437Y95499D01*
X148894Y95083D01*
X148477Y94540D01*
X148215Y93907D01*
X148126Y93228D01*
X148215Y92550D01*
X148477Y91917D01*
X148894Y91374D01*
X149437Y90957D01*
X150069Y90695D01*
X150748Y90606D01*
X151427Y90695D01*
X152059Y90957D01*
X152602Y91374D01*
X153019Y91917D01*
X153281Y92550D01*
X153370Y93228D01*
X153281Y93907D01*
X153019Y94540D01*
X152602Y95083D01*
X152059Y95499D01*
X151427Y95761D01*
X150748Y95851D01*
D02*
G37*
G36*
X133750Y77518D02*
X133048Y77378D01*
X132452Y76980D01*
X132054Y76385D01*
X131915Y75682D01*
X132054Y74980D01*
X132452Y74385D01*
X133048Y73987D01*
X133750Y73847D01*
X134452Y73987D01*
X135048Y74385D01*
X135446Y74980D01*
X135585Y75682D01*
X135446Y76385D01*
X135048Y76980D01*
X134452Y77378D01*
X133750Y77518D01*
D02*
G37*
G36*
X164331Y81166D02*
X163628Y81026D01*
X163033Y80628D01*
X162635Y80033D01*
X162496Y79331D01*
X162635Y78628D01*
X163033Y78033D01*
X163628Y77635D01*
X164331Y77495D01*
X165033Y77635D01*
X165628Y78033D01*
X166026Y78628D01*
X166166Y79331D01*
X166026Y80033D01*
X165628Y80628D01*
X165033Y81026D01*
X164331Y81166D01*
D02*
G37*
G36*
X164173Y86087D02*
X163471Y85948D01*
X162875Y85550D01*
X162478Y84954D01*
X162338Y84252D01*
X162478Y83550D01*
X162875Y82954D01*
X163471Y82556D01*
X164173Y82417D01*
X164875Y82556D01*
X165471Y82954D01*
X165869Y83550D01*
X166008Y84252D01*
X165869Y84954D01*
X165471Y85550D01*
X164875Y85948D01*
X164173Y86087D01*
D02*
G37*
G36*
X166614Y95925D02*
X166185Y95839D01*
X165821Y95596D01*
X165578Y95232D01*
X165493Y94803D01*
X165578Y94374D01*
X165821Y94010D01*
X166185Y93767D01*
X166614Y93682D01*
X167043Y93767D01*
X167407Y94010D01*
X167650Y94374D01*
X167736Y94803D01*
X167650Y95232D01*
X167407Y95596D01*
X167043Y95839D01*
X166614Y95925D01*
D02*
G37*
G36*
X178520Y138335D02*
X177817Y138196D01*
X177222Y137798D01*
X176824Y137202D01*
X176684Y136500D01*
X176824Y135798D01*
X177222Y135202D01*
X177817Y134804D01*
X178520Y134665D01*
X178968Y134754D01*
X180158Y133564D01*
X180456Y133365D01*
X180807Y133295D01*
X181720D01*
Y129124D01*
X181761Y128920D01*
X181297Y128662D01*
X179494Y130465D01*
X179766Y130872D01*
X179906Y131575D01*
X179766Y132277D01*
X179369Y132872D01*
X178773Y133270D01*
X178071Y133410D01*
X177369Y133270D01*
X176773Y132872D01*
X176375Y132277D01*
X176236Y131575D01*
X176375Y130872D01*
X176773Y130277D01*
X177369Y129879D01*
X177513Y129850D01*
X179475Y127889D01*
X179224Y127418D01*
X179213Y127421D01*
X178783Y127335D01*
X178419Y127092D01*
X178176Y126728D01*
X178091Y126299D01*
X178176Y125870D01*
X178419Y125506D01*
X178783Y125263D01*
X179213Y125178D01*
X179642Y125263D01*
X180006Y125506D01*
X180249Y125870D01*
X180334Y126299D01*
X180332Y126311D01*
X180802Y126562D01*
X181284Y126079D01*
X181326Y125870D01*
X181569Y125506D01*
X181933Y125263D01*
X182362Y125178D01*
X182716Y124790D01*
Y124659D01*
X182362Y124271D01*
X181933Y124186D01*
X181569Y123943D01*
X181326Y123579D01*
X181241Y123150D01*
X181326Y122720D01*
X181569Y122356D01*
X181933Y122113D01*
X181979Y122104D01*
X181929Y121594D01*
X179646D01*
X179596Y122104D01*
X179642Y122113D01*
X180006Y122356D01*
X180249Y122720D01*
X180334Y123150D01*
X180249Y123579D01*
X180006Y123943D01*
X179642Y124186D01*
X179213Y124271D01*
X178783Y124186D01*
X178419Y123943D01*
X178176Y123579D01*
X178091Y123150D01*
X178176Y122720D01*
X178419Y122356D01*
X178783Y122113D01*
X178829Y122104D01*
X178779Y121594D01*
X176497D01*
X176446Y122104D01*
X176492Y122113D01*
X176856Y122356D01*
X177099Y122720D01*
X177184Y123150D01*
X177099Y123579D01*
X176856Y123943D01*
X176492Y124186D01*
X176063Y124271D01*
X175634Y124186D01*
X175270Y123943D01*
X175027Y123579D01*
X174941Y123150D01*
X175027Y122720D01*
X175270Y122356D01*
X175634Y122113D01*
X175680Y122104D01*
X175629Y121594D01*
X174331D01*
X173872Y121404D01*
X173837Y121320D01*
X173343Y121036D01*
X172913Y121122D01*
X172484Y121036D01*
X172120Y120793D01*
X171877Y120429D01*
X171792Y120000D01*
X171813Y119892D01*
X171491Y119448D01*
X171163Y119446D01*
X170855Y119850D01*
X170885Y120000D01*
X170800Y120429D01*
X170557Y120793D01*
X170193Y121036D01*
X169764Y121122D01*
X169752Y121119D01*
X169501Y121589D01*
X169984Y122072D01*
X170193Y122113D01*
X170557Y122356D01*
X170800Y122720D01*
X170885Y123150D01*
X170883Y123161D01*
X171353Y123412D01*
X171836Y122930D01*
X171877Y122720D01*
X172120Y122356D01*
X172484Y122113D01*
X172913Y122028D01*
X173343Y122113D01*
X173706Y122356D01*
X173950Y122720D01*
X174035Y123150D01*
X173950Y123579D01*
X173706Y123943D01*
X173343Y124186D01*
X173133Y124227D01*
X172651Y124710D01*
X172902Y125180D01*
X172913Y125178D01*
X173343Y125263D01*
X173706Y125506D01*
X173950Y125870D01*
X174035Y126299D01*
X173950Y126728D01*
X173706Y127092D01*
X173343Y127335D01*
X172913Y127421D01*
X172484Y127335D01*
X172120Y127092D01*
X171877Y126728D01*
X171792Y126299D01*
X171808Y126219D01*
X171449Y125772D01*
X171177Y125767D01*
X170861Y126176D01*
X170885Y126299D01*
X170800Y126728D01*
X170557Y127092D01*
X170193Y127335D01*
X169764Y127421D01*
X169335Y127335D01*
X168971Y127092D01*
X168728Y126728D01*
X168642Y126299D01*
X168645Y126285D01*
X168300Y125842D01*
X168078D01*
X167733Y126285D01*
X167736Y126299D01*
X167650Y126728D01*
X167407Y127092D01*
X167043Y127335D01*
X166614Y127421D01*
X166185Y127335D01*
X165821Y127092D01*
X165578Y126728D01*
X165493Y126299D01*
X165527Y126127D01*
X165180Y125617D01*
X162827D01*
X162672Y126127D01*
X163109Y126419D01*
X163507Y127014D01*
X163646Y127717D01*
X163507Y128419D01*
X163109Y129014D01*
X162513Y129412D01*
X161811Y129552D01*
X161109Y129412D01*
X160513Y129014D01*
X160116Y128419D01*
X159976Y127717D01*
X160116Y127014D01*
X160513Y126419D01*
X160950Y126127D01*
X160795Y125617D01*
X147197D01*
X147042Y126127D01*
X147479Y126419D01*
X147877Y127014D01*
X148016Y127717D01*
X147877Y128419D01*
X147479Y129014D01*
X146883Y129412D01*
X146181Y129552D01*
X145479Y129412D01*
X144883Y129014D01*
X144485Y128419D01*
X144346Y127717D01*
X144485Y127014D01*
X144883Y126419D01*
X145320Y126127D01*
X145165Y125617D01*
X144579D01*
X144530Y125860D01*
X144132Y126455D01*
X143537Y126853D01*
X142835Y126993D01*
X142132Y126853D01*
X141537Y126455D01*
X141139Y125860D01*
X140999Y125157D01*
X141139Y124455D01*
X141537Y123860D01*
X142132Y123462D01*
X142835Y123322D01*
X143537Y123462D01*
X144016Y123782D01*
X165147D01*
X165517Y123272D01*
X165493Y123150D01*
X165498Y123121D01*
X165085Y122610D01*
X142134D01*
X141783Y122541D01*
X141486Y122342D01*
X141236Y122092D01*
X140787Y122181D01*
X140085Y122041D01*
X139490Y121643D01*
X139092Y121048D01*
X138952Y120346D01*
X139092Y119643D01*
X139490Y119048D01*
X140085Y118650D01*
X140787Y118510D01*
X141490Y118650D01*
X142048Y119023D01*
X142303Y118948D01*
X142543Y118816D01*
X142675Y118156D01*
X143072Y117561D01*
X143253Y117440D01*
Y116930D01*
X143072Y116809D01*
X142675Y116214D01*
X142535Y115512D01*
X142675Y114810D01*
X143072Y114214D01*
X143293Y114067D01*
Y113453D01*
X143072Y113306D01*
X142675Y112710D01*
X142535Y112008D01*
X142675Y111305D01*
X143072Y110710D01*
X143564Y110382D01*
X143607Y110175D01*
Y110022D01*
X143564Y109815D01*
X143072Y109487D01*
X142675Y108891D01*
X142535Y108189D01*
X142675Y107487D01*
X143072Y106891D01*
X143668Y106493D01*
X143733Y106481D01*
Y105961D01*
X143668Y105947D01*
X143072Y105550D01*
X142675Y104954D01*
X142535Y104252D01*
X142675Y103550D01*
X143072Y102954D01*
X143668Y102556D01*
X144370Y102417D01*
X145072Y102556D01*
X145668Y102954D01*
X146066Y103550D01*
X146205Y104252D01*
X146066Y104954D01*
X145668Y105550D01*
X145072Y105947D01*
X145007Y105961D01*
Y106481D01*
X145072Y106493D01*
X145668Y106891D01*
X146066Y107487D01*
X146205Y108189D01*
X146066Y108891D01*
X145668Y109487D01*
X145176Y109815D01*
X145133Y110022D01*
Y110175D01*
X145176Y110382D01*
X145668Y110710D01*
X146066Y111305D01*
X146205Y112008D01*
X146066Y112710D01*
X145668Y113306D01*
X145447Y113453D01*
Y114067D01*
X145668Y114214D01*
X146066Y114810D01*
X146205Y115512D01*
X146066Y116214D01*
X145668Y116809D01*
X145487Y116930D01*
Y117440D01*
X145668Y117561D01*
X146066Y118156D01*
X146205Y118858D01*
X146066Y119561D01*
X145668Y120156D01*
X145504Y120265D01*
X145659Y120775D01*
X154206D01*
X154360Y120265D01*
X154213Y120167D01*
X153815Y119571D01*
X153675Y118869D01*
X153815Y118167D01*
X154213Y117571D01*
X154565Y117336D01*
X154571Y116740D01*
X154224Y116508D01*
X153826Y115913D01*
X153686Y115211D01*
X153826Y114508D01*
X154224Y113913D01*
X154375Y113812D01*
Y113302D01*
X154234Y113208D01*
X153837Y112613D01*
X153697Y111911D01*
X153837Y111208D01*
X154234Y110613D01*
X154801Y110235D01*
X154817Y110110D01*
X154766Y109708D01*
X154719Y109698D01*
X154124Y109300D01*
X153726Y108705D01*
X153586Y108003D01*
X153726Y107300D01*
X154124Y106705D01*
X154643Y106358D01*
X154648Y106039D01*
X154592Y105825D01*
X154002Y105432D01*
X153604Y104836D01*
X153465Y104134D01*
X153604Y103431D01*
X154002Y102836D01*
X154598Y102438D01*
X155300Y102299D01*
X156002Y102438D01*
X156598Y102836D01*
X156996Y103431D01*
X157135Y104134D01*
X157103Y104296D01*
X157680Y104873D01*
X158841D01*
X159216Y104363D01*
X159193Y104252D01*
X159279Y103823D01*
X159522Y103459D01*
X159886Y103216D01*
X160315Y103130D01*
X160744Y103216D01*
X161108Y103459D01*
X161351Y103823D01*
X161436Y104252D01*
X161846Y104556D01*
X161934D01*
X162343Y104252D01*
X162428Y103823D01*
X162671Y103459D01*
X163035Y103216D01*
X163465Y103130D01*
X163894Y103216D01*
X164258Y103459D01*
X164501Y103823D01*
X164586Y104252D01*
X164995Y104556D01*
X165083D01*
X165493Y104252D01*
X165578Y103823D01*
X165821Y103459D01*
X166185Y103216D01*
X166614Y103130D01*
X167043Y103216D01*
X167407Y103459D01*
X167650Y103823D01*
X167736Y104252D01*
X168145Y104556D01*
X168233D01*
X168642Y104252D01*
X168728Y103823D01*
X168971Y103459D01*
X169335Y103216D01*
X169764Y103130D01*
X170193Y103216D01*
X170557Y103459D01*
X170800Y103823D01*
X170885Y104252D01*
X171254Y104617D01*
X171368Y104624D01*
X171792Y104252D01*
X171877Y103823D01*
X172120Y103459D01*
X172484Y103216D01*
X172913Y103130D01*
X173343Y103216D01*
X173358Y103226D01*
X173872Y103320D01*
X174331Y103130D01*
X187205D01*
X187664Y103320D01*
X188186Y103247D01*
X188232Y103216D01*
X188661Y103130D01*
X189091Y103216D01*
X189454Y103459D01*
X189698Y103823D01*
X189783Y104252D01*
X189698Y104681D01*
X189454Y105045D01*
X189091Y105288D01*
X188661Y105374D01*
X188383Y105318D01*
X187966Y105615D01*
Y106039D01*
X188383Y106335D01*
X188661Y106280D01*
X189091Y106365D01*
X189454Y106608D01*
X189698Y106972D01*
X189783Y107402D01*
X189698Y107831D01*
X189454Y108195D01*
X189091Y108438D01*
X188661Y108523D01*
X188383Y108468D01*
X187966Y108764D01*
Y109188D01*
X188383Y109485D01*
X188661Y109430D01*
X189091Y109515D01*
X189454Y109758D01*
X189698Y110122D01*
X189783Y110551D01*
X189698Y110980D01*
X189454Y111344D01*
X189091Y111587D01*
X188661Y111673D01*
X188383Y111617D01*
X187966Y111914D01*
Y112338D01*
X188383Y112635D01*
X188661Y112579D01*
X189091Y112665D01*
X189454Y112908D01*
X189698Y113272D01*
X189783Y113701D01*
X189698Y114130D01*
X189454Y114494D01*
X189313Y114589D01*
X189467Y115099D01*
X189488D01*
X189947Y115289D01*
X190138Y115748D01*
Y118465D01*
X189947Y118924D01*
X189894Y118946D01*
X189698Y119571D01*
X189783Y120000D01*
X189698Y120429D01*
X189454Y120793D01*
X189091Y121036D01*
X188661Y121122D01*
X188647Y121119D01*
X188204Y121464D01*
Y121686D01*
X188647Y122031D01*
X188661Y122028D01*
X189091Y122113D01*
X189454Y122356D01*
X189698Y122720D01*
X189783Y123150D01*
X189698Y123579D01*
X189454Y123943D01*
X189091Y124186D01*
X188661Y124271D01*
X188647Y124268D01*
X188204Y124613D01*
Y124836D01*
X188647Y125180D01*
X188661Y125178D01*
X189091Y125263D01*
X189454Y125506D01*
X189698Y125870D01*
X189783Y126299D01*
X189698Y126728D01*
X189454Y127092D01*
X189091Y127335D01*
X188661Y127421D01*
X188489Y127387D01*
X187979Y127733D01*
Y129101D01*
X188266Y129293D01*
X188664Y129888D01*
X188804Y130591D01*
X188664Y131293D01*
X188266Y131888D01*
X187671Y132286D01*
X186969Y132426D01*
X186266Y132286D01*
X186074Y132157D01*
X185492Y132382D01*
X185467Y132481D01*
X188305Y135319D01*
X205495D01*
X209079Y131735D01*
Y84163D01*
X208904Y83902D01*
X208765Y83200D01*
X208904Y82498D01*
X209152Y82128D01*
X208880Y81618D01*
X205664D01*
X194374Y92908D01*
X194407Y93404D01*
X194823Y93709D01*
X194961Y93682D01*
X195390Y93767D01*
X195754Y94010D01*
X195997Y94374D01*
X196082Y94803D01*
X195997Y95232D01*
X195754Y95596D01*
X195390Y95839D01*
X194961Y95925D01*
X194946Y95922D01*
X194504Y96267D01*
Y96489D01*
X194946Y96834D01*
X194961Y96831D01*
X195390Y96917D01*
X195754Y97160D01*
X195997Y97523D01*
X196540Y97641D01*
X196565Y97614D01*
X196567Y97603D01*
X196704Y96911D01*
X197102Y96316D01*
X197698Y95918D01*
X198400Y95778D01*
X199102Y95918D01*
X199698Y96316D01*
X199872Y96577D01*
X200486D01*
X200602Y96402D01*
X201198Y96004D01*
X201900Y95865D01*
X202602Y96004D01*
X203198Y96402D01*
X203596Y96998D01*
X203735Y97700D01*
X203639Y98184D01*
X203909Y98453D01*
X204108Y98751D01*
X204177Y99102D01*
Y105402D01*
X204108Y105753D01*
X203909Y106050D01*
X202338Y107622D01*
X202296Y107831D01*
X202053Y108195D01*
X201689Y108438D01*
X201260Y108523D01*
X200831Y108438D01*
X200467Y108195D01*
X200224Y107831D01*
X200138Y107402D01*
X200224Y106972D01*
X200467Y106608D01*
X200831Y106365D01*
X201040Y106324D01*
X201522Y105841D01*
X201271Y105371D01*
X201260Y105374D01*
X200831Y105288D01*
X200467Y105045D01*
X200224Y104681D01*
X200138Y104252D01*
X200224Y103823D01*
X200467Y103459D01*
X200831Y103216D01*
X201260Y103130D01*
X201689Y103216D01*
X201832Y103311D01*
X202342Y103044D01*
Y102311D01*
X201832Y102043D01*
X201689Y102138D01*
X201260Y102224D01*
X200831Y102138D01*
X200467Y101895D01*
X200224Y101532D01*
X200138Y101102D01*
X200224Y100673D01*
X200467Y100309D01*
X200831Y100066D01*
X201260Y99981D01*
X201487Y100026D01*
X201786Y99818D01*
X201703Y99496D01*
X201198Y99396D01*
X200602Y98998D01*
X200428Y98737D01*
X199814D01*
X199698Y98911D01*
X199102Y99309D01*
X198400Y99449D01*
X198314Y99432D01*
X198269Y99492D01*
X198486Y100056D01*
X198539Y100066D01*
X198903Y100309D01*
X199146Y100673D01*
X199232Y101102D01*
X199146Y101532D01*
X198903Y101895D01*
X198539Y102138D01*
X198110Y102224D01*
X198096Y102221D01*
X197653Y102566D01*
Y102788D01*
X198096Y103133D01*
X198110Y103130D01*
X198539Y103216D01*
X198903Y103459D01*
X199146Y103823D01*
X199232Y104252D01*
X199146Y104681D01*
X198903Y105045D01*
X198539Y105288D01*
X198110Y105374D01*
X198099Y105371D01*
X197848Y105841D01*
X198330Y106324D01*
X198539Y106365D01*
X198903Y106608D01*
X199146Y106972D01*
X199232Y107402D01*
X199146Y107831D01*
X198903Y108195D01*
X198539Y108438D01*
X198110Y108523D01*
X197681Y108438D01*
X197317Y108195D01*
X197074Y107831D01*
X197032Y107622D01*
X196550Y107139D01*
X196080Y107390D01*
X196082Y107402D01*
X195997Y107831D01*
X195754Y108195D01*
X195390Y108438D01*
X194961Y108523D01*
X194531Y108438D01*
X194168Y108195D01*
X193924Y107831D01*
X193839Y107402D01*
X193924Y106972D01*
X194168Y106608D01*
X194531Y106365D01*
X194961Y106280D01*
X195390Y105881D01*
X195383Y105715D01*
X194961Y105374D01*
X194531Y105288D01*
X194168Y105045D01*
X193924Y104681D01*
X193839Y104252D01*
X193924Y103823D01*
X194168Y103459D01*
X194531Y103216D01*
X194961Y103130D01*
X195314Y102742D01*
Y102612D01*
X194961Y102224D01*
X194531Y102138D01*
X194168Y101895D01*
X193924Y101532D01*
X193839Y101102D01*
X193924Y100673D01*
X194168Y100309D01*
X194531Y100066D01*
X194961Y99981D01*
X195362Y99625D01*
X195367Y99471D01*
X194961Y99074D01*
X194789Y99040D01*
X194479Y99049D01*
X194220Y99348D01*
X194209Y99406D01*
X194010Y99704D01*
X193562Y100152D01*
X193265Y100350D01*
X193247Y100354D01*
X192907Y100625D01*
X192898Y100930D01*
X192933Y101102D01*
X192847Y101532D01*
X192604Y101895D01*
X192240Y102138D01*
X191811Y102224D01*
X191382Y102138D01*
X191018Y101895D01*
X190775Y101532D01*
X190690Y101102D01*
X190692Y101088D01*
X190347Y100645D01*
X190125D01*
X189780Y101088D01*
X189783Y101102D01*
X189698Y101532D01*
X189454Y101895D01*
X189091Y102138D01*
X188661Y102224D01*
X188232Y102138D01*
X187868Y101895D01*
X187625Y101532D01*
X187540Y101102D01*
X187574Y100930D01*
X187227Y100420D01*
X183912D01*
X183561Y100350D01*
X183263Y100152D01*
X182142Y99031D01*
X181933Y98989D01*
X181569Y98746D01*
X181326Y98382D01*
X181241Y97953D01*
X181243Y97941D01*
X180773Y97690D01*
X180290Y98173D01*
X180249Y98382D01*
X180006Y98746D01*
X179642Y98989D01*
X179213Y99074D01*
X178783Y98989D01*
X178419Y98746D01*
X178176Y98382D01*
X178091Y97953D01*
X178093Y97941D01*
X177623Y97690D01*
X177141Y98173D01*
X177099Y98382D01*
X176856Y98746D01*
X176492Y98989D01*
X176063Y99074D01*
X175634Y98989D01*
X175270Y98746D01*
X175027Y98382D01*
X174941Y97953D01*
X175027Y97524D01*
X175270Y97160D01*
X175634Y96917D01*
X175843Y96875D01*
X176326Y96393D01*
X176074Y95922D01*
X176063Y95925D01*
X175634Y95839D01*
X175270Y95596D01*
X175027Y95232D01*
X174941Y94803D01*
X175027Y94374D01*
X175145Y94196D01*
Y86993D01*
X174674Y86798D01*
X173831Y87641D01*
Y94196D01*
X173950Y94374D01*
X174035Y94803D01*
X173950Y95232D01*
X173706Y95596D01*
X173343Y95839D01*
X172913Y95925D01*
X172902Y95922D01*
X172651Y96393D01*
X173133Y96875D01*
X173343Y96917D01*
X173706Y97160D01*
X173950Y97524D01*
X174035Y97953D01*
X173950Y98382D01*
X173706Y98746D01*
X173343Y98989D01*
X172913Y99074D01*
X172484Y98989D01*
X172120Y98746D01*
X171877Y98382D01*
X171836Y98173D01*
X171353Y97690D01*
X170883Y97941D01*
X170885Y97953D01*
X170800Y98382D01*
X170557Y98746D01*
X170193Y98989D01*
X169764Y99074D01*
X169335Y98989D01*
X168971Y98746D01*
X168728Y98382D01*
X168642Y97953D01*
X168728Y97524D01*
X168971Y97160D01*
X169335Y96917D01*
X169764Y96831D01*
X169844Y96847D01*
X170291Y96488D01*
X170297Y96216D01*
X169887Y95900D01*
X169764Y95925D01*
X169335Y95839D01*
X168971Y95596D01*
X168728Y95232D01*
X168642Y94803D01*
X168728Y94374D01*
X168971Y94010D01*
X169335Y93767D01*
X169764Y93682D01*
X169936Y93716D01*
X170446Y93369D01*
Y79637D01*
X170516Y79286D01*
X170714Y78988D01*
X170954Y78748D01*
X170865Y78300D01*
X171004Y77598D01*
X171402Y77002D01*
X171998Y76604D01*
X172700Y76465D01*
X173402Y76604D01*
X173998Y77002D01*
X174396Y77598D01*
X174535Y78300D01*
X174521Y78371D01*
X174818Y78669D01*
X175100Y78279D01*
X175065Y78100D01*
X175204Y77398D01*
X175602Y76802D01*
X176198Y76404D01*
X176900Y76265D01*
X177602Y76404D01*
X178198Y76802D01*
X178596Y77398D01*
X178641Y77628D01*
X179016Y77783D01*
X179194Y77794D01*
X179842Y77665D01*
X180545Y77804D01*
X180545Y77805D01*
X181004Y77498D01*
X180965Y77300D01*
X181104Y76598D01*
X181502Y76002D01*
X182098Y75604D01*
X182800Y75465D01*
X183502Y75604D01*
X184098Y76002D01*
X184496Y76598D01*
X184635Y77300D01*
X184561Y77672D01*
X184679Y78090D01*
X184934Y78211D01*
X185402Y78304D01*
X185950Y78671D01*
X186186Y78551D01*
X186383Y78393D01*
X186265Y77800D01*
X186404Y77098D01*
X186802Y76502D01*
X187398Y76104D01*
X188100Y75965D01*
X188802Y76104D01*
X189398Y76502D01*
X189796Y77098D01*
X189895Y77598D01*
X190397Y77894D01*
X190631Y77772D01*
X190619Y77701D01*
X190557Y77391D01*
X190697Y76689D01*
X191095Y76093D01*
X191690Y75696D01*
X192393Y75556D01*
X193095Y75696D01*
X193690Y76093D01*
X194088Y76689D01*
X194228Y77391D01*
X194218Y77441D01*
X194271Y77469D01*
X194346Y77459D01*
X194809Y77179D01*
X194904Y76698D01*
X195302Y76102D01*
X195898Y75704D01*
X196600Y75565D01*
X197302Y75704D01*
X197898Y76102D01*
X198006Y76264D01*
X198607Y76246D01*
X198837Y75902D01*
X199433Y75504D01*
X200135Y75365D01*
X200837Y75504D01*
X201433Y75902D01*
X201831Y76498D01*
X201970Y77200D01*
X201909Y77510D01*
X202235Y77965D01*
X202937Y78104D01*
X203533Y78502D01*
X203931Y79098D01*
X204070Y79800D01*
X204047Y79918D01*
X204517Y80170D01*
X204635Y80051D01*
X204933Y79852D01*
X205284Y79782D01*
X228847D01*
Y77147D01*
X235953D01*
Y84253D01*
X228847D01*
Y81618D01*
X212320D01*
X212048Y82128D01*
X212296Y82498D01*
X212435Y83200D01*
X212296Y83902D01*
X211898Y84498D01*
X211321Y84883D01*
Y131727D01*
X211331Y132210D01*
X211761Y132295D01*
X212124Y132538D01*
X212447Y132861D01*
X212690Y133224D01*
X212775Y133653D01*
X212690Y134083D01*
X212447Y134447D01*
X212083Y134690D01*
X211653Y134775D01*
X211224Y134690D01*
X210860Y134447D01*
X210538Y134124D01*
X209900Y134087D01*
X206752Y137234D01*
X206388Y137477D01*
X205959Y137562D01*
X205959Y137562D01*
X187841D01*
X187412Y137477D01*
X187048Y137234D01*
X187048Y137234D01*
X184038Y134224D01*
X183514Y134421D01*
X183486Y134564D01*
X183287Y134861D01*
X182989Y135060D01*
X182638Y135130D01*
X181187D01*
X180266Y136052D01*
X180355Y136500D01*
X180215Y137202D01*
X179817Y137798D01*
X179222Y138196D01*
X178520Y138335D01*
D02*
G37*
G36*
X166614Y99074D02*
X166185Y98989D01*
X165821Y98746D01*
X165578Y98382D01*
X165493Y97953D01*
X165578Y97524D01*
X165821Y97160D01*
X166185Y96917D01*
X166614Y96831D01*
X167043Y96917D01*
X167407Y97160D01*
X167650Y97524D01*
X167736Y97953D01*
X167650Y98382D01*
X167407Y98746D01*
X167043Y98989D01*
X166614Y99074D01*
D02*
G37*
G36*
X160315Y102224D02*
X159886Y102138D01*
X159522Y101895D01*
X159279Y101532D01*
X159193Y101102D01*
X159279Y100673D01*
X159522Y100309D01*
X159886Y100066D01*
X160315Y99981D01*
X160744Y100066D01*
X161108Y100309D01*
X161351Y100673D01*
X161436Y101102D01*
X161351Y101532D01*
X161108Y101895D01*
X160744Y102138D01*
X160315Y102224D01*
D02*
G37*
G36*
X107609Y99450D02*
X106673Y99264D01*
X105879Y98734D01*
X105348Y97940D01*
X105162Y97004D01*
X105348Y96067D01*
X105879Y95273D01*
X106673Y94743D01*
X107609Y94556D01*
X108545Y94743D01*
X109339Y95273D01*
X109870Y96067D01*
X110056Y97004D01*
X109870Y97940D01*
X109339Y98734D01*
X108545Y99264D01*
X107609Y99450D01*
D02*
G37*
G36*
X129183Y101702D02*
X122077D01*
Y94597D01*
X129183D01*
Y101702D01*
D02*
G37*
G36*
X219443Y134316D02*
X218741Y134176D01*
X218146Y133778D01*
X217748Y133183D01*
X217608Y132480D01*
X217748Y131778D01*
X218146Y131183D01*
X218396Y131015D01*
Y130402D01*
X218146Y130235D01*
X217748Y129639D01*
X217608Y128937D01*
X217748Y128235D01*
X218146Y127639D01*
X218396Y127472D01*
Y126859D01*
X218146Y126691D01*
X217748Y126096D01*
X217608Y125394D01*
X217748Y124691D01*
X218146Y124096D01*
X218396Y123929D01*
Y123315D01*
X218146Y123148D01*
X217748Y122553D01*
X217608Y121850D01*
X217748Y121148D01*
X218146Y120553D01*
X218396Y120385D01*
Y119772D01*
X218146Y119605D01*
X217748Y119009D01*
X217608Y118307D01*
X217748Y117605D01*
X218146Y117009D01*
X218396Y116842D01*
Y116229D01*
X218146Y116061D01*
X217748Y115466D01*
X217608Y114764D01*
X217748Y114061D01*
X218146Y113466D01*
X218396Y113299D01*
Y112685D01*
X218146Y112518D01*
X217748Y111923D01*
X217608Y111221D01*
X217748Y110518D01*
X218146Y109923D01*
X218396Y109756D01*
Y109142D01*
X218146Y108975D01*
X217748Y108379D01*
X217608Y107677D01*
X217748Y106975D01*
X218146Y106379D01*
X218396Y106212D01*
Y105599D01*
X218146Y105432D01*
X217748Y104836D01*
X217608Y104134D01*
X217748Y103431D01*
X218146Y102836D01*
X218396Y102669D01*
Y102056D01*
X218146Y101888D01*
X217748Y101293D01*
X217608Y100591D01*
X217748Y99888D01*
X218146Y99293D01*
X218396Y99126D01*
Y98512D01*
X218146Y98345D01*
X217748Y97750D01*
X217608Y97047D01*
X217748Y96345D01*
X218146Y95749D01*
X218741Y95352D01*
X219443Y95212D01*
X220146Y95352D01*
X220741Y95749D01*
X221139Y96345D01*
X221279Y97047D01*
X221139Y97750D01*
X220741Y98345D01*
X220491Y98512D01*
Y99126D01*
X220741Y99293D01*
X221139Y99888D01*
X221279Y100591D01*
X221139Y101293D01*
X220741Y101888D01*
X220491Y102056D01*
Y102669D01*
X220741Y102836D01*
X221139Y103431D01*
X221279Y104134D01*
X221139Y104836D01*
X220741Y105432D01*
X220491Y105599D01*
Y106212D01*
X220741Y106379D01*
X221139Y106975D01*
X221279Y107677D01*
X221139Y108379D01*
X220741Y108975D01*
X220491Y109142D01*
Y109756D01*
X220741Y109923D01*
X221139Y110518D01*
X221279Y111221D01*
X221139Y111923D01*
X220741Y112518D01*
X220491Y112685D01*
Y113299D01*
X220741Y113466D01*
X221139Y114061D01*
X221279Y114764D01*
X221139Y115466D01*
X220741Y116061D01*
X220491Y116229D01*
Y116842D01*
X220741Y117009D01*
X221139Y117605D01*
X221279Y118307D01*
X221139Y119009D01*
X220741Y119605D01*
X220491Y119772D01*
Y120385D01*
X220741Y120553D01*
X221139Y121148D01*
X221279Y121850D01*
X221139Y122553D01*
X220741Y123148D01*
X220491Y123315D01*
Y123929D01*
X220741Y124096D01*
X221139Y124691D01*
X221279Y125394D01*
X221139Y126096D01*
X220741Y126691D01*
X220491Y126859D01*
Y127472D01*
X220741Y127639D01*
X221139Y128235D01*
X221279Y128937D01*
X221139Y129639D01*
X220741Y130235D01*
X220491Y130402D01*
Y131015D01*
X220741Y131183D01*
X221139Y131778D01*
X221279Y132480D01*
X221139Y133183D01*
X220741Y133778D01*
X220146Y134176D01*
X219443Y134316D01*
D02*
G37*
G36*
X172000Y14931D02*
X171060Y14807D01*
X170185Y14445D01*
X169432Y13868D01*
X168855Y13115D01*
X168493Y12240D01*
X168369Y11300D01*
X168493Y10360D01*
X168855Y9484D01*
X169432Y8732D01*
X170185Y8155D01*
X171060Y7793D01*
X172000Y7669D01*
X172940Y7793D01*
X173816Y8155D01*
X174568Y8732D01*
X175145Y9484D01*
X175507Y10360D01*
X175631Y11300D01*
X175507Y12240D01*
X175145Y13115D01*
X174568Y13868D01*
X173816Y14445D01*
X172940Y14807D01*
X172000Y14931D01*
D02*
G37*
G36*
X182000D02*
X181060Y14807D01*
X180184Y14445D01*
X179432Y13868D01*
X178855Y13115D01*
X178493Y12240D01*
X178369Y11300D01*
X178493Y10360D01*
X178855Y9484D01*
X179432Y8732D01*
X180184Y8155D01*
X181060Y7793D01*
X182000Y7669D01*
X182940Y7793D01*
X183816Y8155D01*
X184568Y8732D01*
X185145Y9484D01*
X185507Y10360D01*
X185631Y11300D01*
X185507Y12240D01*
X185145Y13115D01*
X184568Y13868D01*
X183816Y14445D01*
X182940Y14807D01*
X182000Y14931D01*
D02*
G37*
G36*
X192000D02*
X191060Y14807D01*
X190184Y14445D01*
X189432Y13868D01*
X188855Y13115D01*
X188493Y12240D01*
X188369Y11300D01*
X188493Y10360D01*
X188855Y9484D01*
X189432Y8732D01*
X190184Y8155D01*
X191060Y7793D01*
X192000Y7669D01*
X192940Y7793D01*
X193816Y8155D01*
X194568Y8732D01*
X195145Y9484D01*
X195507Y10360D01*
X195631Y11300D01*
X195507Y12240D01*
X195145Y13115D01*
X194568Y13868D01*
X193816Y14445D01*
X192940Y14807D01*
X192000Y14931D01*
D02*
G37*
G36*
X142000D02*
X141060Y14807D01*
X140184Y14445D01*
X139432Y13868D01*
X138855Y13115D01*
X138493Y12240D01*
X138369Y11300D01*
X138493Y10360D01*
X138855Y9484D01*
X139432Y8732D01*
X140184Y8155D01*
X141060Y7793D01*
X142000Y7669D01*
X142940Y7793D01*
X143816Y8155D01*
X144568Y8732D01*
X145145Y9484D01*
X145507Y10360D01*
X145631Y11300D01*
X145507Y12240D01*
X145145Y13115D01*
X144568Y13868D01*
X143816Y14445D01*
X142940Y14807D01*
X142000Y14931D01*
D02*
G37*
G36*
X152000D02*
X151060Y14807D01*
X150185Y14445D01*
X149432Y13868D01*
X148855Y13115D01*
X148493Y12240D01*
X148369Y11300D01*
X148493Y10360D01*
X148855Y9484D01*
X149432Y8732D01*
X150185Y8155D01*
X151060Y7793D01*
X152000Y7669D01*
X152940Y7793D01*
X153815Y8155D01*
X154568Y8732D01*
X155145Y9484D01*
X155507Y10360D01*
X155631Y11300D01*
X155507Y12240D01*
X155145Y13115D01*
X154568Y13868D01*
X153815Y14445D01*
X152940Y14807D01*
X152000Y14931D01*
D02*
G37*
G36*
X162000D02*
X161060Y14807D01*
X160185Y14445D01*
X159432Y13868D01*
X158855Y13115D01*
X158493Y12240D01*
X158369Y11300D01*
X158493Y10360D01*
X158855Y9484D01*
X159432Y8732D01*
X160185Y8155D01*
X161060Y7793D01*
X162000Y7669D01*
X162940Y7793D01*
X163815Y8155D01*
X164568Y8732D01*
X165145Y9484D01*
X165507Y10360D01*
X165631Y11300D01*
X165507Y12240D01*
X165145Y13115D01*
X164568Y13868D01*
X163815Y14445D01*
X162940Y14807D01*
X162000Y14931D01*
D02*
G37*
G36*
X202000D02*
X201060Y14807D01*
X200184Y14445D01*
X199432Y13868D01*
X198855Y13115D01*
X198493Y12240D01*
X198369Y11300D01*
X198493Y10360D01*
X198855Y9484D01*
X199432Y8732D01*
X200184Y8155D01*
X201060Y7793D01*
X202000Y7669D01*
X202940Y7793D01*
X203816Y8155D01*
X204568Y8732D01*
X205145Y9484D01*
X205507Y10360D01*
X205631Y11300D01*
X205507Y12240D01*
X205145Y13115D01*
X204568Y13868D01*
X203816Y14445D01*
X202940Y14807D01*
X202000Y14931D01*
D02*
G37*
G36*
X22000Y24931D02*
X21060Y24807D01*
X20185Y24445D01*
X19433Y23867D01*
X18855Y23115D01*
X18493Y22240D01*
X18369Y21300D01*
X18493Y20360D01*
X18855Y19485D01*
X19433Y18733D01*
X20185Y18155D01*
X21060Y17793D01*
X22000Y17669D01*
X22940Y17793D01*
X23816Y18155D01*
X24567Y18733D01*
X25145Y19485D01*
X25507Y20360D01*
X25631Y21300D01*
X25507Y22240D01*
X25145Y23115D01*
X24567Y23867D01*
X23816Y24445D01*
X22940Y24807D01*
X22000Y24931D01*
D02*
G37*
G36*
X32000D02*
X31060Y24807D01*
X30185Y24445D01*
X29432Y23867D01*
X28855Y23115D01*
X28493Y22240D01*
X28369Y21300D01*
X28493Y20360D01*
X28855Y19485D01*
X29432Y18733D01*
X30185Y18155D01*
X31060Y17793D01*
X32000Y17669D01*
X32940Y17793D01*
X33816Y18155D01*
X34567Y18733D01*
X35145Y19485D01*
X35507Y20360D01*
X35631Y21300D01*
X35507Y22240D01*
X35145Y23115D01*
X34567Y23867D01*
X33816Y24445D01*
X32940Y24807D01*
X32000Y24931D01*
D02*
G37*
G36*
X42000D02*
X41060Y24807D01*
X40185Y24445D01*
X39432Y23867D01*
X38855Y23115D01*
X38493Y22240D01*
X38369Y21300D01*
X38493Y20360D01*
X38855Y19485D01*
X39432Y18733D01*
X40185Y18155D01*
X41060Y17793D01*
X42000Y17669D01*
X42940Y17793D01*
X43815Y18155D01*
X44567Y18733D01*
X45145Y19485D01*
X45507Y20360D01*
X45631Y21300D01*
X45507Y22240D01*
X45145Y23115D01*
X44567Y23867D01*
X43815Y24445D01*
X42940Y24807D01*
X42000Y24931D01*
D02*
G37*
G36*
X212000Y14931D02*
X211060Y14807D01*
X210185Y14445D01*
X209433Y13868D01*
X208855Y13115D01*
X208493Y12240D01*
X208369Y11300D01*
X208493Y10360D01*
X208855Y9484D01*
X209433Y8732D01*
X210185Y8155D01*
X211060Y7793D01*
X212000Y7669D01*
X212940Y7793D01*
X213815Y8155D01*
X214567Y8732D01*
X215145Y9484D01*
X215507Y10360D01*
X215631Y11300D01*
X215507Y12240D01*
X215145Y13115D01*
X214567Y13868D01*
X213815Y14445D01*
X212940Y14807D01*
X212000Y14931D01*
D02*
G37*
G36*
X222000D02*
X221060Y14807D01*
X220184Y14445D01*
X219432Y13868D01*
X218855Y13115D01*
X218493Y12240D01*
X218369Y11300D01*
X218493Y10360D01*
X218855Y9484D01*
X219432Y8732D01*
X220184Y8155D01*
X221060Y7793D01*
X222000Y7669D01*
X222940Y7793D01*
X223815Y8155D01*
X224568Y8732D01*
X225145Y9484D01*
X225507Y10360D01*
X225631Y11300D01*
X225507Y12240D01*
X225145Y13115D01*
X224568Y13868D01*
X223815Y14445D01*
X222940Y14807D01*
X222000Y14931D01*
D02*
G37*
G36*
X232000D02*
X231060Y14807D01*
X230185Y14445D01*
X229433Y13868D01*
X228855Y13115D01*
X228493Y12240D01*
X228369Y11300D01*
X228493Y10360D01*
X228855Y9484D01*
X229433Y8732D01*
X230185Y8155D01*
X231060Y7793D01*
X232000Y7669D01*
X232940Y7793D01*
X233816Y8155D01*
X234567Y8732D01*
X235145Y9484D01*
X235507Y10360D01*
X235631Y11300D01*
X235507Y12240D01*
X235145Y13115D01*
X234567Y13868D01*
X233816Y14445D01*
X232940Y14807D01*
X232000Y14931D01*
D02*
G37*
G36*
X42000D02*
X41060Y14807D01*
X40185Y14445D01*
X39432Y13868D01*
X38855Y13115D01*
X38493Y12240D01*
X38369Y11300D01*
X38493Y10360D01*
X38855Y9484D01*
X39432Y8732D01*
X40185Y8155D01*
X41060Y7793D01*
X42000Y7669D01*
X42940Y7793D01*
X43815Y8155D01*
X44567Y8732D01*
X45145Y9484D01*
X45507Y10360D01*
X45631Y11300D01*
X45507Y12240D01*
X45145Y13115D01*
X44567Y13868D01*
X43815Y14445D01*
X42940Y14807D01*
X42000Y14931D01*
D02*
G37*
G36*
X52000D02*
X51060Y14807D01*
X50185Y14445D01*
X49433Y13868D01*
X48855Y13115D01*
X48493Y12240D01*
X48369Y11300D01*
X48493Y10360D01*
X48855Y9484D01*
X49433Y8732D01*
X50185Y8155D01*
X51060Y7793D01*
X52000Y7669D01*
X52940Y7793D01*
X53816Y8155D01*
X54568Y8732D01*
X55145Y9484D01*
X55507Y10360D01*
X55631Y11300D01*
X55507Y12240D01*
X55145Y13115D01*
X54568Y13868D01*
X53816Y14445D01*
X52940Y14807D01*
X52000Y14931D01*
D02*
G37*
G36*
X62000D02*
X61060Y14807D01*
X60185Y14445D01*
X59432Y13868D01*
X58855Y13115D01*
X58493Y12240D01*
X58369Y11300D01*
X58493Y10360D01*
X58855Y9484D01*
X59432Y8732D01*
X60185Y8155D01*
X61060Y7793D01*
X62000Y7669D01*
X62940Y7793D01*
X63815Y8155D01*
X64568Y8732D01*
X65145Y9484D01*
X65507Y10360D01*
X65631Y11300D01*
X65507Y12240D01*
X65145Y13115D01*
X64568Y13868D01*
X63815Y14445D01*
X62940Y14807D01*
X62000Y14931D01*
D02*
G37*
G36*
X12000D02*
X11060Y14807D01*
X10185Y14445D01*
X9432Y13868D01*
X8855Y13115D01*
X8493Y12240D01*
X8369Y11300D01*
X8493Y10360D01*
X8855Y9484D01*
X9432Y8732D01*
X10185Y8155D01*
X11060Y7793D01*
X12000Y7669D01*
X12940Y7793D01*
X13815Y8155D01*
X14568Y8732D01*
X15145Y9484D01*
X15507Y10360D01*
X15631Y11300D01*
X15507Y12240D01*
X15145Y13115D01*
X14568Y13868D01*
X13815Y14445D01*
X12940Y14807D01*
X12000Y14931D01*
D02*
G37*
G36*
X22000D02*
X21060Y14807D01*
X20185Y14445D01*
X19433Y13868D01*
X18855Y13115D01*
X18493Y12240D01*
X18369Y11300D01*
X18493Y10360D01*
X18855Y9484D01*
X19433Y8732D01*
X20185Y8155D01*
X21060Y7793D01*
X22000Y7669D01*
X22940Y7793D01*
X23816Y8155D01*
X24567Y8732D01*
X25145Y9484D01*
X25507Y10360D01*
X25631Y11300D01*
X25507Y12240D01*
X25145Y13115D01*
X24567Y13868D01*
X23816Y14445D01*
X22940Y14807D01*
X22000Y14931D01*
D02*
G37*
G36*
X32000D02*
X31060Y14807D01*
X30185Y14445D01*
X29432Y13868D01*
X28855Y13115D01*
X28493Y12240D01*
X28369Y11300D01*
X28493Y10360D01*
X28855Y9484D01*
X29432Y8732D01*
X30185Y8155D01*
X31060Y7793D01*
X32000Y7669D01*
X32940Y7793D01*
X33816Y8155D01*
X34567Y8732D01*
X35145Y9484D01*
X35507Y10360D01*
X35631Y11300D01*
X35507Y12240D01*
X35145Y13115D01*
X34567Y13868D01*
X33816Y14445D01*
X32940Y14807D01*
X32000Y14931D01*
D02*
G37*
G36*
X72000D02*
X71060Y14807D01*
X70184Y14445D01*
X69432Y13868D01*
X68855Y13115D01*
X68493Y12240D01*
X68369Y11300D01*
X68493Y10360D01*
X68855Y9484D01*
X69432Y8732D01*
X70184Y8155D01*
X71060Y7793D01*
X72000Y7669D01*
X72940Y7793D01*
X73816Y8155D01*
X74568Y8732D01*
X75145Y9484D01*
X75507Y10360D01*
X75631Y11300D01*
X75507Y12240D01*
X75145Y13115D01*
X74568Y13868D01*
X73816Y14445D01*
X72940Y14807D01*
X72000Y14931D01*
D02*
G37*
G36*
X112000D02*
X111060Y14807D01*
X110185Y14445D01*
X109432Y13868D01*
X108855Y13115D01*
X108493Y12240D01*
X108369Y11300D01*
X108493Y10360D01*
X108855Y9484D01*
X109432Y8732D01*
X110185Y8155D01*
X111060Y7793D01*
X112000Y7669D01*
X112940Y7793D01*
X113815Y8155D01*
X114568Y8732D01*
X115145Y9484D01*
X115507Y10360D01*
X115631Y11300D01*
X115507Y12240D01*
X115145Y13115D01*
X114568Y13868D01*
X113815Y14445D01*
X112940Y14807D01*
X112000Y14931D01*
D02*
G37*
G36*
X122000D02*
X121060Y14807D01*
X120185Y14445D01*
X119432Y13868D01*
X118855Y13115D01*
X118493Y12240D01*
X118369Y11300D01*
X118493Y10360D01*
X118855Y9484D01*
X119432Y8732D01*
X120185Y8155D01*
X121060Y7793D01*
X122000Y7669D01*
X122940Y7793D01*
X123816Y8155D01*
X124568Y8732D01*
X125145Y9484D01*
X125507Y10360D01*
X125631Y11300D01*
X125507Y12240D01*
X125145Y13115D01*
X124568Y13868D01*
X123816Y14445D01*
X122940Y14807D01*
X122000Y14931D01*
D02*
G37*
G36*
X132000D02*
X131060Y14807D01*
X130184Y14445D01*
X129432Y13868D01*
X128855Y13115D01*
X128493Y12240D01*
X128369Y11300D01*
X128493Y10360D01*
X128855Y9484D01*
X129432Y8732D01*
X130184Y8155D01*
X131060Y7793D01*
X132000Y7669D01*
X132940Y7793D01*
X133816Y8155D01*
X134568Y8732D01*
X135145Y9484D01*
X135507Y10360D01*
X135631Y11300D01*
X135507Y12240D01*
X135145Y13115D01*
X134568Y13868D01*
X133816Y14445D01*
X132940Y14807D01*
X132000Y14931D01*
D02*
G37*
G36*
X82000D02*
X81060Y14807D01*
X80185Y14445D01*
X79432Y13868D01*
X78855Y13115D01*
X78493Y12240D01*
X78369Y11300D01*
X78493Y10360D01*
X78855Y9484D01*
X79432Y8732D01*
X80185Y8155D01*
X81060Y7793D01*
X82000Y7669D01*
X82940Y7793D01*
X83815Y8155D01*
X84568Y8732D01*
X85145Y9484D01*
X85507Y10360D01*
X85631Y11300D01*
X85507Y12240D01*
X85145Y13115D01*
X84568Y13868D01*
X83815Y14445D01*
X82940Y14807D01*
X82000Y14931D01*
D02*
G37*
G36*
X92000D02*
X91060Y14807D01*
X90184Y14445D01*
X89432Y13868D01*
X88855Y13115D01*
X88493Y12240D01*
X88369Y11300D01*
X88493Y10360D01*
X88855Y9484D01*
X89432Y8732D01*
X90184Y8155D01*
X91060Y7793D01*
X92000Y7669D01*
X92940Y7793D01*
X93815Y8155D01*
X94568Y8732D01*
X95145Y9484D01*
X95507Y10360D01*
X95631Y11300D01*
X95507Y12240D01*
X95145Y13115D01*
X94568Y13868D01*
X93815Y14445D01*
X92940Y14807D01*
X92000Y14931D01*
D02*
G37*
G36*
X102000D02*
X101060Y14807D01*
X100185Y14445D01*
X99432Y13868D01*
X98855Y13115D01*
X98493Y12240D01*
X98369Y11300D01*
X98493Y10360D01*
X98855Y9484D01*
X99432Y8732D01*
X100185Y8155D01*
X101060Y7793D01*
X102000Y7669D01*
X102940Y7793D01*
X103815Y8155D01*
X104568Y8732D01*
X105145Y9484D01*
X105507Y10360D01*
X105631Y11300D01*
X105507Y12240D01*
X105145Y13115D01*
X104568Y13868D01*
X103815Y14445D01*
X102940Y14807D01*
X102000Y14931D01*
D02*
G37*
G36*
X212000Y24931D02*
X211060Y24807D01*
X210185Y24445D01*
X209433Y23867D01*
X208855Y23115D01*
X208493Y22240D01*
X208369Y21300D01*
X208493Y20360D01*
X208855Y19485D01*
X209433Y18733D01*
X210185Y18155D01*
X211060Y17793D01*
X212000Y17669D01*
X212940Y17793D01*
X213815Y18155D01*
X214567Y18733D01*
X215145Y19485D01*
X215507Y20360D01*
X215631Y21300D01*
X215507Y22240D01*
X215145Y23115D01*
X214567Y23867D01*
X213815Y24445D01*
X212940Y24807D01*
X212000Y24931D01*
D02*
G37*
G36*
X222000D02*
X221060Y24807D01*
X220184Y24445D01*
X219432Y23867D01*
X218855Y23115D01*
X218493Y22240D01*
X218369Y21300D01*
X218493Y20360D01*
X218855Y19485D01*
X219432Y18733D01*
X220184Y18155D01*
X221060Y17793D01*
X222000Y17669D01*
X222940Y17793D01*
X223815Y18155D01*
X224568Y18733D01*
X225145Y19485D01*
X225507Y20360D01*
X225631Y21300D01*
X225507Y22240D01*
X225145Y23115D01*
X224568Y23867D01*
X223815Y24445D01*
X222940Y24807D01*
X222000Y24931D01*
D02*
G37*
G36*
X232000D02*
X231060Y24807D01*
X230185Y24445D01*
X229433Y23867D01*
X228855Y23115D01*
X228493Y22240D01*
X228369Y21300D01*
X228493Y20360D01*
X228855Y19485D01*
X229433Y18733D01*
X230185Y18155D01*
X231060Y17793D01*
X232000Y17669D01*
X232940Y17793D01*
X233816Y18155D01*
X234567Y18733D01*
X235145Y19485D01*
X235507Y20360D01*
X235631Y21300D01*
X235507Y22240D01*
X235145Y23115D01*
X234567Y23867D01*
X233816Y24445D01*
X232940Y24807D01*
X232000Y24931D01*
D02*
G37*
G36*
X182000D02*
X181060Y24807D01*
X180184Y24445D01*
X179432Y23867D01*
X178855Y23115D01*
X178493Y22240D01*
X178369Y21300D01*
X178493Y20360D01*
X178855Y19485D01*
X179432Y18733D01*
X180184Y18155D01*
X181060Y17793D01*
X182000Y17669D01*
X182940Y17793D01*
X183816Y18155D01*
X184568Y18733D01*
X185145Y19485D01*
X185507Y20360D01*
X185631Y21300D01*
X185507Y22240D01*
X185145Y23115D01*
X184568Y23867D01*
X183816Y24445D01*
X182940Y24807D01*
X182000Y24931D01*
D02*
G37*
G36*
X192000D02*
X191060Y24807D01*
X190184Y24445D01*
X189432Y23867D01*
X188855Y23115D01*
X188493Y22240D01*
X188369Y21300D01*
X188493Y20360D01*
X188855Y19485D01*
X189432Y18733D01*
X190184Y18155D01*
X191060Y17793D01*
X192000Y17669D01*
X192940Y17793D01*
X193816Y18155D01*
X194568Y18733D01*
X195145Y19485D01*
X195507Y20360D01*
X195631Y21300D01*
X195507Y22240D01*
X195145Y23115D01*
X194568Y23867D01*
X193816Y24445D01*
X192940Y24807D01*
X192000Y24931D01*
D02*
G37*
G36*
X202000D02*
X201060Y24807D01*
X200184Y24445D01*
X199432Y23867D01*
X198855Y23115D01*
X198493Y22240D01*
X198369Y21300D01*
X198493Y20360D01*
X198855Y19485D01*
X199432Y18733D01*
X200184Y18155D01*
X201060Y17793D01*
X202000Y17669D01*
X202940Y17793D01*
X203816Y18155D01*
X204568Y18733D01*
X205145Y19485D01*
X205507Y20360D01*
X205631Y21300D01*
X205507Y22240D01*
X205145Y23115D01*
X204568Y23867D01*
X203816Y24445D01*
X202940Y24807D01*
X202000Y24931D01*
D02*
G37*
G36*
X15600Y24900D02*
X8400D01*
Y17700D01*
X15600D01*
Y24900D01*
D02*
G37*
G36*
X100039Y45930D02*
X99337Y45790D01*
X98742Y45392D01*
X98344Y44797D01*
X98204Y44094D01*
X98344Y43392D01*
X98742Y42797D01*
X99337Y42399D01*
X100039Y42259D01*
X100742Y42399D01*
X101337Y42797D01*
X101735Y43392D01*
X101875Y44094D01*
X101735Y44797D01*
X101337Y45392D01*
X100742Y45790D01*
X100039Y45930D01*
D02*
G37*
G36*
X176145Y47245D02*
X174501D01*
X174572Y46886D01*
X175058Y46158D01*
X175786Y45672D01*
X176145Y45601D01*
Y47245D01*
D02*
G37*
G36*
X178788D02*
X177145D01*
Y45601D01*
X177503Y45672D01*
X178231Y46158D01*
X178717Y46886D01*
X178788Y47245D01*
D02*
G37*
G36*
X89016Y34101D02*
X88079Y33914D01*
X87286Y33384D01*
X86755Y32590D01*
X86569Y31653D01*
X86755Y30717D01*
X87286Y29923D01*
X88079Y29393D01*
X89016Y29206D01*
X89952Y29393D01*
X90746Y29923D01*
X91277Y30717D01*
X91463Y31653D01*
X91277Y32590D01*
X90746Y33384D01*
X89952Y33914D01*
X89016Y34101D01*
D02*
G37*
G36*
X214833Y43000D02*
X214131Y42861D01*
X213536Y42463D01*
X213138Y41868D01*
X212998Y41165D01*
X213138Y40463D01*
X213536Y39867D01*
X214131Y39470D01*
X214833Y39330D01*
X215536Y39470D01*
X216131Y39867D01*
X216529Y40463D01*
X216669Y41165D01*
X216529Y41868D01*
X216131Y42463D01*
X215536Y42861D01*
X214833Y43000D01*
D02*
G37*
G36*
X154991Y43000D02*
X154289Y42861D01*
X153693Y42463D01*
X153295Y41868D01*
X153156Y41165D01*
X153295Y40463D01*
X153693Y39867D01*
X154289Y39470D01*
X154991Y39330D01*
X155693Y39470D01*
X156289Y39867D01*
X156687Y40463D01*
X156826Y41165D01*
X156687Y41868D01*
X156289Y42463D01*
X155693Y42861D01*
X154991Y43000D01*
D02*
G37*
G36*
X82000Y24931D02*
X81060Y24807D01*
X80185Y24445D01*
X79432Y23867D01*
X78855Y23115D01*
X78493Y22240D01*
X78369Y21300D01*
X78493Y20360D01*
X78855Y19485D01*
X79432Y18733D01*
X80185Y18155D01*
X81060Y17793D01*
X82000Y17669D01*
X82940Y17793D01*
X83815Y18155D01*
X84568Y18733D01*
X85145Y19485D01*
X85507Y20360D01*
X85631Y21300D01*
X85507Y22240D01*
X85145Y23115D01*
X84568Y23867D01*
X83815Y24445D01*
X82940Y24807D01*
X82000Y24931D01*
D02*
G37*
G36*
X92000D02*
X91060Y24807D01*
X90184Y24445D01*
X89432Y23867D01*
X88855Y23115D01*
X88493Y22240D01*
X88369Y21300D01*
X88493Y20360D01*
X88855Y19485D01*
X89432Y18733D01*
X90184Y18155D01*
X91060Y17793D01*
X92000Y17669D01*
X92940Y17793D01*
X93815Y18155D01*
X94568Y18733D01*
X95145Y19485D01*
X95507Y20360D01*
X95631Y21300D01*
X95507Y22240D01*
X95145Y23115D01*
X94568Y23867D01*
X93815Y24445D01*
X92940Y24807D01*
X92000Y24931D01*
D02*
G37*
G36*
X102000D02*
X101060Y24807D01*
X100185Y24445D01*
X99432Y23867D01*
X98855Y23115D01*
X98493Y22240D01*
X98369Y21300D01*
X98493Y20360D01*
X98855Y19485D01*
X99432Y18733D01*
X100185Y18155D01*
X101060Y17793D01*
X102000Y17669D01*
X102940Y17793D01*
X103815Y18155D01*
X104568Y18733D01*
X105145Y19485D01*
X105507Y20360D01*
X105631Y21300D01*
X105507Y22240D01*
X105145Y23115D01*
X104568Y23867D01*
X103815Y24445D01*
X102940Y24807D01*
X102000Y24931D01*
D02*
G37*
G36*
X52000D02*
X51060Y24807D01*
X50185Y24445D01*
X49433Y23867D01*
X48855Y23115D01*
X48493Y22240D01*
X48369Y21300D01*
X48493Y20360D01*
X48855Y19485D01*
X49433Y18733D01*
X50185Y18155D01*
X51060Y17793D01*
X52000Y17669D01*
X52940Y17793D01*
X53816Y18155D01*
X54568Y18733D01*
X55145Y19485D01*
X55507Y20360D01*
X55631Y21300D01*
X55507Y22240D01*
X55145Y23115D01*
X54568Y23867D01*
X53816Y24445D01*
X52940Y24807D01*
X52000Y24931D01*
D02*
G37*
G36*
X62000D02*
X61060Y24807D01*
X60185Y24445D01*
X59432Y23867D01*
X58855Y23115D01*
X58493Y22240D01*
X58369Y21300D01*
X58493Y20360D01*
X58855Y19485D01*
X59432Y18733D01*
X60185Y18155D01*
X61060Y17793D01*
X62000Y17669D01*
X62940Y17793D01*
X63815Y18155D01*
X64568Y18733D01*
X65145Y19485D01*
X65507Y20360D01*
X65631Y21300D01*
X65507Y22240D01*
X65145Y23115D01*
X64568Y23867D01*
X63815Y24445D01*
X62940Y24807D01*
X62000Y24931D01*
D02*
G37*
G36*
X72000D02*
X71060Y24807D01*
X70184Y24445D01*
X69432Y23867D01*
X68855Y23115D01*
X68493Y22240D01*
X68369Y21300D01*
X68493Y20360D01*
X68855Y19485D01*
X69432Y18733D01*
X70184Y18155D01*
X71060Y17793D01*
X72000Y17669D01*
X72940Y17793D01*
X73816Y18155D01*
X74568Y18733D01*
X75145Y19485D01*
X75507Y20360D01*
X75631Y21300D01*
X75507Y22240D01*
X75145Y23115D01*
X74568Y23867D01*
X73816Y24445D01*
X72940Y24807D01*
X72000Y24931D01*
D02*
G37*
G36*
X112000D02*
X111060Y24807D01*
X110185Y24445D01*
X109432Y23867D01*
X108855Y23115D01*
X108493Y22240D01*
X108369Y21300D01*
X108493Y20360D01*
X108855Y19485D01*
X109432Y18733D01*
X110185Y18155D01*
X111060Y17793D01*
X112000Y17669D01*
X112940Y17793D01*
X113815Y18155D01*
X114568Y18733D01*
X115145Y19485D01*
X115507Y20360D01*
X115631Y21300D01*
X115507Y22240D01*
X115145Y23115D01*
X114568Y23867D01*
X113815Y24445D01*
X112940Y24807D01*
X112000Y24931D01*
D02*
G37*
G36*
X152000D02*
X151060Y24807D01*
X150185Y24445D01*
X149432Y23867D01*
X148855Y23115D01*
X148493Y22240D01*
X148369Y21300D01*
X148493Y20360D01*
X148855Y19485D01*
X149432Y18733D01*
X150185Y18155D01*
X151060Y17793D01*
X152000Y17669D01*
X152940Y17793D01*
X153815Y18155D01*
X154568Y18733D01*
X155145Y19485D01*
X155507Y20360D01*
X155631Y21300D01*
X155507Y22240D01*
X155145Y23115D01*
X154568Y23867D01*
X153815Y24445D01*
X152940Y24807D01*
X152000Y24931D01*
D02*
G37*
G36*
X162000D02*
X161060Y24807D01*
X160185Y24445D01*
X159432Y23867D01*
X158855Y23115D01*
X158493Y22240D01*
X158369Y21300D01*
X158493Y20360D01*
X158855Y19485D01*
X159432Y18733D01*
X160185Y18155D01*
X161060Y17793D01*
X162000Y17669D01*
X162940Y17793D01*
X163815Y18155D01*
X164568Y18733D01*
X165145Y19485D01*
X165507Y20360D01*
X165631Y21300D01*
X165507Y22240D01*
X165145Y23115D01*
X164568Y23867D01*
X163815Y24445D01*
X162940Y24807D01*
X162000Y24931D01*
D02*
G37*
G36*
X172000D02*
X171060Y24807D01*
X170185Y24445D01*
X169432Y23867D01*
X168855Y23115D01*
X168493Y22240D01*
X168369Y21300D01*
X168493Y20360D01*
X168855Y19485D01*
X169432Y18733D01*
X170185Y18155D01*
X171060Y17793D01*
X172000Y17669D01*
X172940Y17793D01*
X173816Y18155D01*
X174568Y18733D01*
X175145Y19485D01*
X175507Y20360D01*
X175631Y21300D01*
X175507Y22240D01*
X175145Y23115D01*
X174568Y23867D01*
X173816Y24445D01*
X172940Y24807D01*
X172000Y24931D01*
D02*
G37*
G36*
X122000D02*
X121060Y24807D01*
X120185Y24445D01*
X119432Y23867D01*
X118855Y23115D01*
X118493Y22240D01*
X118369Y21300D01*
X118493Y20360D01*
X118855Y19485D01*
X119432Y18733D01*
X120185Y18155D01*
X121060Y17793D01*
X122000Y17669D01*
X122940Y17793D01*
X123816Y18155D01*
X124568Y18733D01*
X125145Y19485D01*
X125507Y20360D01*
X125631Y21300D01*
X125507Y22240D01*
X125145Y23115D01*
X124568Y23867D01*
X123816Y24445D01*
X122940Y24807D01*
X122000Y24931D01*
D02*
G37*
G36*
X132000D02*
X131060Y24807D01*
X130184Y24445D01*
X129432Y23867D01*
X128855Y23115D01*
X128493Y22240D01*
X128369Y21300D01*
X128493Y20360D01*
X128855Y19485D01*
X129432Y18733D01*
X130184Y18155D01*
X131060Y17793D01*
X132000Y17669D01*
X132940Y17793D01*
X133816Y18155D01*
X134568Y18733D01*
X135145Y19485D01*
X135507Y20360D01*
X135631Y21300D01*
X135507Y22240D01*
X135145Y23115D01*
X134568Y23867D01*
X133816Y24445D01*
X132940Y24807D01*
X132000Y24931D01*
D02*
G37*
G36*
X142000D02*
X141060Y24807D01*
X140184Y24445D01*
X139432Y23867D01*
X138855Y23115D01*
X138493Y22240D01*
X138369Y21300D01*
X138493Y20360D01*
X138855Y19485D01*
X139432Y18733D01*
X140184Y18155D01*
X141060Y17793D01*
X142000Y17669D01*
X142940Y17793D01*
X143816Y18155D01*
X144568Y18733D01*
X145145Y19485D01*
X145507Y20360D01*
X145631Y21300D01*
X145507Y22240D01*
X145145Y23115D01*
X144568Y23867D01*
X143816Y24445D01*
X142940Y24807D01*
X142000Y24931D01*
D02*
G37*
G36*
X52000Y204880D02*
X51073Y204758D01*
X50209Y204400D01*
X49467Y203831D01*
X48897Y203089D01*
X48539Y202224D01*
X48417Y201297D01*
X48539Y200370D01*
X48897Y199505D01*
X49467Y198763D01*
X50209Y198194D01*
X51073Y197836D01*
X52000Y197714D01*
X52928Y197836D01*
X53792Y198194D01*
X54534Y198763D01*
X55104Y199505D01*
X55462Y200370D01*
X55584Y201297D01*
X55462Y202224D01*
X55104Y203089D01*
X54534Y203831D01*
X53792Y204400D01*
X52928Y204758D01*
X52000Y204880D01*
D02*
G37*
G36*
X62000D02*
X61073Y204758D01*
X60209Y204400D01*
X59467Y203831D01*
X58897Y203089D01*
X58539Y202224D01*
X58417Y201297D01*
X58539Y200370D01*
X58897Y199505D01*
X59467Y198763D01*
X60209Y198194D01*
X61073Y197836D01*
X62000Y197714D01*
X62928Y197836D01*
X63792Y198194D01*
X64534Y198763D01*
X65104Y199505D01*
X65462Y200370D01*
X65584Y201297D01*
X65462Y202224D01*
X65104Y203089D01*
X64534Y203831D01*
X63792Y204400D01*
X62928Y204758D01*
X62000Y204880D01*
D02*
G37*
G36*
X72000D02*
X71073Y204758D01*
X70209Y204400D01*
X69467Y203831D01*
X68897Y203089D01*
X68539Y202224D01*
X68417Y201297D01*
X68539Y200370D01*
X68897Y199505D01*
X69467Y198763D01*
X70209Y198194D01*
X71073Y197836D01*
X72000Y197714D01*
X72928Y197836D01*
X73792Y198194D01*
X74534Y198763D01*
X75104Y199505D01*
X75462Y200370D01*
X75584Y201297D01*
X75462Y202224D01*
X75104Y203089D01*
X74534Y203831D01*
X73792Y204400D01*
X72928Y204758D01*
X72000Y204880D01*
D02*
G37*
G36*
X12000D02*
X11073Y204758D01*
X10209Y204400D01*
X9467Y203831D01*
X8897Y203089D01*
X8539Y202224D01*
X8417Y201297D01*
X8539Y200370D01*
X8897Y199505D01*
X9467Y198763D01*
X10209Y198194D01*
X11073Y197836D01*
X12000Y197714D01*
X12928Y197836D01*
X13792Y198194D01*
X14534Y198763D01*
X15104Y199505D01*
X15462Y200370D01*
X15584Y201297D01*
X15462Y202224D01*
X15104Y203089D01*
X14534Y203831D01*
X13792Y204400D01*
X12928Y204758D01*
X12000Y204880D01*
D02*
G37*
G36*
X32000D02*
X31073Y204758D01*
X30209Y204400D01*
X29467Y203831D01*
X28897Y203089D01*
X28539Y202224D01*
X28417Y201297D01*
X28539Y200370D01*
X28897Y199505D01*
X29467Y198763D01*
X30209Y198194D01*
X31073Y197836D01*
X32000Y197714D01*
X32928Y197836D01*
X33792Y198194D01*
X34534Y198763D01*
X35104Y199505D01*
X35462Y200370D01*
X35584Y201297D01*
X35462Y202224D01*
X35104Y203089D01*
X34534Y203831D01*
X33792Y204400D01*
X32928Y204758D01*
X32000Y204880D01*
D02*
G37*
G36*
X42000D02*
X41073Y204758D01*
X40209Y204400D01*
X39467Y203831D01*
X38897Y203089D01*
X38539Y202224D01*
X38417Y201297D01*
X38539Y200370D01*
X38897Y199505D01*
X39467Y198763D01*
X40209Y198194D01*
X41073Y197836D01*
X42000Y197714D01*
X42928Y197836D01*
X43792Y198194D01*
X44534Y198763D01*
X45104Y199505D01*
X45462Y200370D01*
X45584Y201297D01*
X45462Y202224D01*
X45104Y203089D01*
X44534Y203831D01*
X43792Y204400D01*
X42928Y204758D01*
X42000Y204880D01*
D02*
G37*
G36*
X82000D02*
X81073Y204758D01*
X80209Y204400D01*
X79467Y203831D01*
X78897Y203089D01*
X78539Y202224D01*
X78417Y201297D01*
X78539Y200370D01*
X78897Y199505D01*
X79467Y198763D01*
X80209Y198194D01*
X81073Y197836D01*
X82000Y197714D01*
X82928Y197836D01*
X83792Y198194D01*
X84534Y198763D01*
X85104Y199505D01*
X85462Y200370D01*
X85584Y201297D01*
X85462Y202224D01*
X85104Y203089D01*
X84534Y203831D01*
X83792Y204400D01*
X82928Y204758D01*
X82000Y204880D01*
D02*
G37*
G36*
X122000D02*
X121073Y204758D01*
X120209Y204400D01*
X119467Y203831D01*
X118897Y203089D01*
X118539Y202224D01*
X118417Y201297D01*
X118539Y200370D01*
X118897Y199505D01*
X119467Y198763D01*
X120209Y198194D01*
X121073Y197836D01*
X122000Y197714D01*
X122928Y197836D01*
X123792Y198194D01*
X124534Y198763D01*
X125104Y199505D01*
X125462Y200370D01*
X125584Y201297D01*
X125462Y202224D01*
X125104Y203089D01*
X124534Y203831D01*
X123792Y204400D01*
X122928Y204758D01*
X122000Y204880D01*
D02*
G37*
G36*
X132000D02*
X131073Y204758D01*
X130209Y204400D01*
X129467Y203831D01*
X128897Y203089D01*
X128539Y202224D01*
X128417Y201297D01*
X128539Y200370D01*
X128897Y199505D01*
X129467Y198763D01*
X130209Y198194D01*
X131073Y197836D01*
X132000Y197714D01*
X132928Y197836D01*
X133792Y198194D01*
X134534Y198763D01*
X135104Y199505D01*
X135462Y200370D01*
X135584Y201297D01*
X135462Y202224D01*
X135104Y203089D01*
X134534Y203831D01*
X133792Y204400D01*
X132928Y204758D01*
X132000Y204880D01*
D02*
G37*
G36*
X142000D02*
X141073Y204758D01*
X140209Y204400D01*
X139467Y203831D01*
X138897Y203089D01*
X138539Y202224D01*
X138417Y201297D01*
X138539Y200370D01*
X138897Y199505D01*
X139467Y198763D01*
X140209Y198194D01*
X141073Y197836D01*
X142000Y197714D01*
X142928Y197836D01*
X143792Y198194D01*
X144534Y198763D01*
X145104Y199505D01*
X145462Y200370D01*
X145584Y201297D01*
X145462Y202224D01*
X145104Y203089D01*
X144534Y203831D01*
X143792Y204400D01*
X142928Y204758D01*
X142000Y204880D01*
D02*
G37*
G36*
X92000D02*
X91073Y204758D01*
X90209Y204400D01*
X89467Y203831D01*
X88897Y203089D01*
X88539Y202224D01*
X88417Y201297D01*
X88539Y200370D01*
X88897Y199505D01*
X89467Y198763D01*
X90209Y198194D01*
X91073Y197836D01*
X92000Y197714D01*
X92928Y197836D01*
X93792Y198194D01*
X94534Y198763D01*
X95104Y199505D01*
X95462Y200370D01*
X95584Y201297D01*
X95462Y202224D01*
X95104Y203089D01*
X94534Y203831D01*
X93792Y204400D01*
X92928Y204758D01*
X92000Y204880D01*
D02*
G37*
G36*
X102000D02*
X101073Y204758D01*
X100209Y204400D01*
X99467Y203831D01*
X98897Y203089D01*
X98539Y202224D01*
X98417Y201297D01*
X98539Y200370D01*
X98897Y199505D01*
X99467Y198763D01*
X100209Y198194D01*
X101073Y197836D01*
X102000Y197714D01*
X102928Y197836D01*
X103792Y198194D01*
X104534Y198763D01*
X105104Y199505D01*
X105462Y200370D01*
X105584Y201297D01*
X105462Y202224D01*
X105104Y203089D01*
X104534Y203831D01*
X103792Y204400D01*
X102928Y204758D01*
X102000Y204880D01*
D02*
G37*
G36*
X112000D02*
X111073Y204758D01*
X110209Y204400D01*
X109467Y203831D01*
X108897Y203089D01*
X108539Y202224D01*
X108417Y201297D01*
X108539Y200370D01*
X108897Y199505D01*
X109467Y198763D01*
X110209Y198194D01*
X111073Y197836D01*
X112000Y197714D01*
X112928Y197836D01*
X113792Y198194D01*
X114534Y198763D01*
X115104Y199505D01*
X115462Y200370D01*
X115584Y201297D01*
X115462Y202224D01*
X115104Y203089D01*
X114534Y203831D01*
X113792Y204400D01*
X112928Y204758D01*
X112000Y204880D01*
D02*
G37*
G36*
X186100Y179297D02*
X185742Y179226D01*
X185014Y178740D01*
X184528Y178012D01*
X184456Y177654D01*
X186100D01*
Y179297D01*
D02*
G37*
G36*
X187100D02*
Y177654D01*
X188744D01*
X188672Y178012D01*
X188186Y178740D01*
X187458Y179226D01*
X187100Y179297D01*
D02*
G37*
G36*
X160100Y179700D02*
X158456D01*
X158528Y179342D01*
X159014Y178614D01*
X159742Y178128D01*
X160100Y178056D01*
Y179700D01*
D02*
G37*
G36*
X186100Y176654D02*
X184456D01*
X184528Y176295D01*
X185014Y175568D01*
X185742Y175082D01*
X186100Y175010D01*
Y176654D01*
D02*
G37*
G36*
X188744D02*
X187100D01*
Y175010D01*
X187458Y175082D01*
X188186Y175568D01*
X188672Y176295D01*
X188744Y176654D01*
D02*
G37*
G36*
X222520Y180367D02*
X221818Y180227D01*
X221222Y179830D01*
X220824Y179234D01*
X220685Y178532D01*
X220824Y177829D01*
X221222Y177234D01*
X221818Y176836D01*
X222520Y176697D01*
X223222Y176836D01*
X223818Y177234D01*
X224215Y177829D01*
X224355Y178532D01*
X224215Y179234D01*
X223818Y179830D01*
X223222Y180227D01*
X222520Y180367D01*
D02*
G37*
G36*
X162744Y179700D02*
X161100D01*
Y178056D01*
X161458Y178128D01*
X162186Y178614D01*
X162672Y179342D01*
X162744Y179700D01*
D02*
G37*
G36*
X194528Y185851D02*
X193825Y185711D01*
X193230Y185313D01*
X192832Y184718D01*
X192692Y184016D01*
X192832Y183313D01*
X193230Y182718D01*
X193825Y182320D01*
X194528Y182181D01*
X195230Y182320D01*
X195825Y182718D01*
X196223Y183313D01*
X196363Y184016D01*
X196223Y184718D01*
X195825Y185313D01*
X195230Y185711D01*
X194528Y185851D01*
D02*
G37*
G36*
X21500Y200797D02*
X18079D01*
X18149Y200265D01*
X18548Y199303D01*
X19181Y198478D01*
X20007Y197844D01*
X20968Y197446D01*
X21500Y197376D01*
Y200797D01*
D02*
G37*
G36*
X25921D02*
X22500D01*
Y197376D01*
X23032Y197446D01*
X23994Y197844D01*
X24820Y198478D01*
X25453Y199303D01*
X25851Y200265D01*
X25921Y200797D01*
D02*
G37*
G36*
X232638Y185439D02*
X231701Y185253D01*
X230908Y184722D01*
X230377Y183929D01*
X230191Y182992D01*
X230377Y182056D01*
X230908Y181262D01*
X231701Y180731D01*
X232638Y180545D01*
X233574Y180731D01*
X234368Y181262D01*
X234898Y182056D01*
X235085Y182992D01*
X234898Y183929D01*
X234368Y184722D01*
X233574Y185253D01*
X232638Y185439D01*
D02*
G37*
G36*
X160100Y182344D02*
X159742Y182272D01*
X159014Y181786D01*
X158528Y181058D01*
X158456Y180700D01*
X160100D01*
Y182344D01*
D02*
G37*
G36*
X161100D02*
Y180700D01*
X162744D01*
X162672Y181058D01*
X162186Y181786D01*
X161458Y182272D01*
X161100Y182344D01*
D02*
G37*
G36*
X102000Y214880D02*
X101073Y214758D01*
X100209Y214400D01*
X99467Y213831D01*
X98897Y213089D01*
X98539Y212224D01*
X98417Y211297D01*
X98539Y210369D01*
X98897Y209505D01*
X99467Y208763D01*
X100209Y208194D01*
X101073Y207836D01*
X102000Y207714D01*
X102928Y207836D01*
X103792Y208194D01*
X104534Y208763D01*
X105104Y209505D01*
X105462Y210369D01*
X105584Y211297D01*
X105462Y212224D01*
X105104Y213089D01*
X104534Y213831D01*
X103792Y214400D01*
X102928Y214758D01*
X102000Y214880D01*
D02*
G37*
G36*
X112000D02*
X111073Y214758D01*
X110209Y214400D01*
X109467Y213831D01*
X108897Y213089D01*
X108539Y212224D01*
X108417Y211297D01*
X108539Y210369D01*
X108897Y209505D01*
X109467Y208763D01*
X110209Y208194D01*
X111073Y207836D01*
X112000Y207714D01*
X112928Y207836D01*
X113792Y208194D01*
X114534Y208763D01*
X115104Y209505D01*
X115462Y210369D01*
X115584Y211297D01*
X115462Y212224D01*
X115104Y213089D01*
X114534Y213831D01*
X113792Y214400D01*
X112928Y214758D01*
X112000Y214880D01*
D02*
G37*
G36*
X122000D02*
X121073Y214758D01*
X120209Y214400D01*
X119467Y213831D01*
X118897Y213089D01*
X118539Y212224D01*
X118417Y211297D01*
X118539Y210369D01*
X118897Y209505D01*
X119467Y208763D01*
X120209Y208194D01*
X121073Y207836D01*
X122000Y207714D01*
X122928Y207836D01*
X123792Y208194D01*
X124534Y208763D01*
X125104Y209505D01*
X125462Y210369D01*
X125584Y211297D01*
X125462Y212224D01*
X125104Y213089D01*
X124534Y213831D01*
X123792Y214400D01*
X122928Y214758D01*
X122000Y214880D01*
D02*
G37*
G36*
X72000D02*
X71073Y214758D01*
X70209Y214400D01*
X69467Y213831D01*
X68897Y213089D01*
X68539Y212224D01*
X68417Y211297D01*
X68539Y210369D01*
X68897Y209505D01*
X69467Y208763D01*
X70209Y208194D01*
X71073Y207836D01*
X72000Y207714D01*
X72928Y207836D01*
X73792Y208194D01*
X74534Y208763D01*
X75104Y209505D01*
X75462Y210369D01*
X75584Y211297D01*
X75462Y212224D01*
X75104Y213089D01*
X74534Y213831D01*
X73792Y214400D01*
X72928Y214758D01*
X72000Y214880D01*
D02*
G37*
G36*
X82000D02*
X81073Y214758D01*
X80209Y214400D01*
X79467Y213831D01*
X78897Y213089D01*
X78539Y212224D01*
X78417Y211297D01*
X78539Y210369D01*
X78897Y209505D01*
X79467Y208763D01*
X80209Y208194D01*
X81073Y207836D01*
X82000Y207714D01*
X82928Y207836D01*
X83792Y208194D01*
X84534Y208763D01*
X85104Y209505D01*
X85462Y210369D01*
X85584Y211297D01*
X85462Y212224D01*
X85104Y213089D01*
X84534Y213831D01*
X83792Y214400D01*
X82928Y214758D01*
X82000Y214880D01*
D02*
G37*
G36*
X92000D02*
X91073Y214758D01*
X90209Y214400D01*
X89467Y213831D01*
X88897Y213089D01*
X88539Y212224D01*
X88417Y211297D01*
X88539Y210369D01*
X88897Y209505D01*
X89467Y208763D01*
X90209Y208194D01*
X91073Y207836D01*
X92000Y207714D01*
X92928Y207836D01*
X93792Y208194D01*
X94534Y208763D01*
X95104Y209505D01*
X95462Y210369D01*
X95584Y211297D01*
X95462Y212224D01*
X95104Y213089D01*
X94534Y213831D01*
X93792Y214400D01*
X92928Y214758D01*
X92000Y214880D01*
D02*
G37*
G36*
X132000D02*
X131073Y214758D01*
X130209Y214400D01*
X129467Y213831D01*
X128897Y213089D01*
X128539Y212224D01*
X128417Y211297D01*
X128539Y210369D01*
X128897Y209505D01*
X129467Y208763D01*
X130209Y208194D01*
X131073Y207836D01*
X132000Y207714D01*
X132928Y207836D01*
X133792Y208194D01*
X134534Y208763D01*
X135104Y209505D01*
X135462Y210369D01*
X135584Y211297D01*
X135462Y212224D01*
X135104Y213089D01*
X134534Y213831D01*
X133792Y214400D01*
X132928Y214758D01*
X132000Y214880D01*
D02*
G37*
G36*
X15553Y214850D02*
X8448D01*
Y207744D01*
X15553D01*
Y214850D01*
D02*
G37*
G36*
X21500Y215218D02*
X20968Y215148D01*
X20007Y214750D01*
X19181Y214116D01*
X18548Y213290D01*
X18149Y212329D01*
X18079Y211797D01*
X21500D01*
Y215218D01*
D02*
G37*
G36*
X22500D02*
Y211797D01*
X25921D01*
X25851Y212329D01*
X25453Y213290D01*
X24820Y214116D01*
X23994Y214750D01*
X23032Y215148D01*
X22500Y215218D01*
D02*
G37*
G36*
X142000Y214880D02*
X141073Y214758D01*
X140209Y214400D01*
X139467Y213831D01*
X138897Y213089D01*
X138539Y212224D01*
X138417Y211297D01*
X138539Y210369D01*
X138897Y209505D01*
X139467Y208763D01*
X140209Y208194D01*
X141073Y207836D01*
X142000Y207714D01*
X142928Y207836D01*
X143792Y208194D01*
X144534Y208763D01*
X145104Y209505D01*
X145462Y210369D01*
X145584Y211297D01*
X145462Y212224D01*
X145104Y213089D01*
X144534Y213831D01*
X143792Y214400D01*
X142928Y214758D01*
X142000Y214880D01*
D02*
G37*
G36*
X152000D02*
X151073Y214758D01*
X150209Y214400D01*
X149467Y213831D01*
X148897Y213089D01*
X148539Y212224D01*
X148417Y211297D01*
X148539Y210369D01*
X148897Y209505D01*
X149467Y208763D01*
X150209Y208194D01*
X151073Y207836D01*
X152000Y207714D01*
X152928Y207836D01*
X153792Y208194D01*
X154534Y208763D01*
X155104Y209505D01*
X155462Y210369D01*
X155584Y211297D01*
X155462Y212224D01*
X155104Y213089D01*
X154534Y213831D01*
X153792Y214400D01*
X152928Y214758D01*
X152000Y214880D01*
D02*
G37*
G36*
X162000D02*
X161073Y214758D01*
X160209Y214400D01*
X159467Y213831D01*
X158897Y213089D01*
X158539Y212224D01*
X158417Y211297D01*
X158539Y210369D01*
X158897Y209505D01*
X159467Y208763D01*
X160209Y208194D01*
X161073Y207836D01*
X162000Y207714D01*
X162928Y207836D01*
X163792Y208194D01*
X164534Y208763D01*
X165104Y209505D01*
X165462Y210369D01*
X165584Y211297D01*
X165462Y212224D01*
X165104Y213089D01*
X164534Y213831D01*
X163792Y214400D01*
X162928Y214758D01*
X162000Y214880D01*
D02*
G37*
G36*
X179800Y203441D02*
X179442Y203369D01*
X178714Y202883D01*
X178228Y202155D01*
X178166Y201846D01*
X177904Y201781D01*
X177635Y201792D01*
X177282Y202321D01*
X176687Y202719D01*
X175984Y202859D01*
X175282Y202719D01*
X174687Y202321D01*
X174289Y201726D01*
X174149Y201024D01*
X174289Y200321D01*
X174687Y199726D01*
X175282Y199328D01*
X175984Y199188D01*
X176687Y199328D01*
X177282Y199726D01*
X177680Y200321D01*
X177705Y200450D01*
X178225D01*
X178228Y200439D01*
X178714Y199711D01*
X179442Y199225D01*
X179800Y199153D01*
Y201297D01*
Y203441D01*
D02*
G37*
G36*
X21500Y205218D02*
X20968Y205148D01*
X20007Y204750D01*
X19181Y204116D01*
X18548Y203290D01*
X18149Y202329D01*
X18079Y201797D01*
X21500D01*
Y205218D01*
D02*
G37*
G36*
X22500D02*
Y201797D01*
X25921D01*
X25851Y202329D01*
X25453Y203290D01*
X24820Y204116D01*
X23994Y204750D01*
X23032Y205148D01*
X22500Y205218D01*
D02*
G37*
G36*
X152000Y204880D02*
X151073Y204758D01*
X150209Y204400D01*
X149467Y203831D01*
X148897Y203089D01*
X148539Y202224D01*
X148417Y201297D01*
X148539Y200370D01*
X148897Y199505D01*
X149467Y198763D01*
X150209Y198194D01*
X151073Y197836D01*
X152000Y197714D01*
X152928Y197836D01*
X153792Y198194D01*
X154534Y198763D01*
X155104Y199505D01*
X155462Y200370D01*
X155584Y201297D01*
X155462Y202224D01*
X155104Y203089D01*
X154534Y203831D01*
X153792Y204400D01*
X152928Y204758D01*
X152000Y204880D01*
D02*
G37*
G36*
X162000D02*
X161073Y204758D01*
X160209Y204400D01*
X159467Y203831D01*
X158897Y203089D01*
X158539Y202224D01*
X158417Y201297D01*
X158539Y200370D01*
X158897Y199505D01*
X159467Y198763D01*
X160209Y198194D01*
X161073Y197836D01*
X162000Y197714D01*
X162928Y197836D01*
X163792Y198194D01*
X164534Y198763D01*
X165104Y199505D01*
X165462Y200370D01*
X165584Y201297D01*
X165462Y202224D01*
X165104Y203089D01*
X164534Y203831D01*
X163792Y204400D01*
X162928Y204758D01*
X162000Y204880D01*
D02*
G37*
G36*
X182444Y200797D02*
X180800D01*
Y199153D01*
X181158Y199225D01*
X181886Y199711D01*
X182372Y200439D01*
X182444Y200797D01*
D02*
G37*
G36*
X180800Y203441D02*
Y201797D01*
X182444D01*
X182372Y202155D01*
X181886Y202883D01*
X181158Y203369D01*
X180800Y203441D01*
D02*
G37*
G36*
X42000Y214880D02*
X41073Y214758D01*
X40209Y214400D01*
X39467Y213831D01*
X38897Y213089D01*
X38539Y212224D01*
X38417Y211297D01*
X38539Y210369D01*
X38897Y209505D01*
X39467Y208763D01*
X40209Y208194D01*
X41073Y207836D01*
X42000Y207714D01*
X42928Y207836D01*
X43792Y208194D01*
X44534Y208763D01*
X45104Y209505D01*
X45462Y210369D01*
X45584Y211297D01*
X45462Y212224D01*
X45104Y213089D01*
X44534Y213831D01*
X43792Y214400D01*
X42928Y214758D01*
X42000Y214880D01*
D02*
G37*
G36*
X52000D02*
X51073Y214758D01*
X50209Y214400D01*
X49467Y213831D01*
X48897Y213089D01*
X48539Y212224D01*
X48417Y211297D01*
X48539Y210369D01*
X48897Y209505D01*
X49467Y208763D01*
X50209Y208194D01*
X51073Y207836D01*
X52000Y207714D01*
X52928Y207836D01*
X53792Y208194D01*
X54534Y208763D01*
X55104Y209505D01*
X55462Y210369D01*
X55584Y211297D01*
X55462Y212224D01*
X55104Y213089D01*
X54534Y213831D01*
X53792Y214400D01*
X52928Y214758D01*
X52000Y214880D01*
D02*
G37*
G36*
X62000D02*
X61073Y214758D01*
X60209Y214400D01*
X59467Y213831D01*
X58897Y213089D01*
X58539Y212224D01*
X58417Y211297D01*
X58539Y210369D01*
X58897Y209505D01*
X59467Y208763D01*
X60209Y208194D01*
X61073Y207836D01*
X62000Y207714D01*
X62928Y207836D01*
X63792Y208194D01*
X64534Y208763D01*
X65104Y209505D01*
X65462Y210369D01*
X65584Y211297D01*
X65462Y212224D01*
X65104Y213089D01*
X64534Y213831D01*
X63792Y214400D01*
X62928Y214758D01*
X62000Y214880D01*
D02*
G37*
G36*
X21500Y210797D02*
X18079D01*
X18149Y210265D01*
X18548Y209303D01*
X19181Y208478D01*
X20007Y207844D01*
X20968Y207446D01*
X21500Y207376D01*
Y210797D01*
D02*
G37*
G36*
X25921D02*
X22500D01*
Y207376D01*
X23032Y207446D01*
X23994Y207844D01*
X24820Y208478D01*
X25453Y209303D01*
X25851Y210265D01*
X25921Y210797D01*
D02*
G37*
G36*
X32000Y214880D02*
X31073Y214758D01*
X30209Y214400D01*
X29467Y213831D01*
X28897Y213089D01*
X28539Y212224D01*
X28417Y211297D01*
X28539Y210369D01*
X28897Y209505D01*
X29467Y208763D01*
X30209Y208194D01*
X31073Y207836D01*
X32000Y207714D01*
X32928Y207836D01*
X33792Y208194D01*
X34534Y208763D01*
X35104Y209505D01*
X35462Y210369D01*
X35584Y211297D01*
X35462Y212224D01*
X35104Y213089D01*
X34534Y213831D01*
X33792Y214400D01*
X32928Y214758D01*
X32000Y214880D01*
D02*
G37*
G36*
X197823Y179601D02*
X196887Y179415D01*
X196093Y178884D01*
X195562Y178090D01*
X195376Y177154D01*
X195562Y176217D01*
X196093Y175424D01*
X196887Y174893D01*
X197823Y174707D01*
X198759Y174893D01*
X199553Y175424D01*
X200084Y176217D01*
X200270Y177154D01*
X200084Y178090D01*
X199553Y178884D01*
X198759Y179415D01*
X197823Y179601D01*
D02*
G37*
G36*
X201260Y121122D02*
X200831Y121036D01*
X200467Y120793D01*
X200224Y120429D01*
X200138Y120000D01*
X200224Y119571D01*
X200467Y119207D01*
X200831Y118964D01*
X201260Y118878D01*
X201689Y118964D01*
X202053Y119207D01*
X202296Y119571D01*
X202381Y120000D01*
X202296Y120429D01*
X202053Y120793D01*
X201689Y121036D01*
X201260Y121122D01*
D02*
G37*
G36*
X191811Y124271D02*
X191382Y124186D01*
X191018Y123943D01*
X190775Y123579D01*
X190690Y123150D01*
X190775Y122720D01*
X191018Y122356D01*
X191382Y122113D01*
X191811Y122028D01*
X192240Y122113D01*
X192604Y122356D01*
X192847Y122720D01*
X192933Y123150D01*
X192847Y123579D01*
X192604Y123943D01*
X192240Y124186D01*
X191811Y124271D01*
D02*
G37*
G36*
X194961D02*
X194531Y124186D01*
X194168Y123943D01*
X193924Y123579D01*
X193839Y123150D01*
X193924Y122720D01*
X194168Y122356D01*
X194531Y122113D01*
X194961Y122028D01*
X195390Y122113D01*
X195754Y122356D01*
X195997Y122720D01*
X196082Y123150D01*
X195997Y123579D01*
X195754Y123943D01*
X195390Y124186D01*
X194961Y124271D01*
D02*
G37*
G36*
X191811Y121122D02*
X191382Y121036D01*
X191018Y120793D01*
X190775Y120429D01*
X190690Y120000D01*
X190775Y119571D01*
X191018Y119207D01*
X191382Y118964D01*
X191811Y118878D01*
X192240Y118964D01*
X192604Y119207D01*
X192847Y119571D01*
X192933Y120000D01*
X192847Y120429D01*
X192604Y120793D01*
X192240Y121036D01*
X191811Y121122D01*
D02*
G37*
G36*
X194961D02*
X194531Y121036D01*
X194168Y120793D01*
X193924Y120429D01*
X193839Y120000D01*
X193924Y119571D01*
X194168Y119207D01*
X194531Y118964D01*
X194961Y118878D01*
X195390Y118964D01*
X195754Y119207D01*
X195997Y119571D01*
X196082Y120000D01*
X195997Y120429D01*
X195754Y120793D01*
X195390Y121036D01*
X194961Y121122D01*
D02*
G37*
G36*
X198110D02*
X197681Y121036D01*
X197317Y120793D01*
X197074Y120429D01*
X196989Y120000D01*
X197074Y119571D01*
X197317Y119207D01*
X197681Y118964D01*
X198110Y118878D01*
X198539Y118964D01*
X198903Y119207D01*
X199146Y119571D01*
X199232Y120000D01*
X199146Y120429D01*
X198903Y120793D01*
X198539Y121036D01*
X198110Y121122D01*
D02*
G37*
G36*
X201142Y132977D02*
X200463Y132887D01*
X199830Y132625D01*
X199287Y132209D01*
X198871Y131666D01*
X198609Y131033D01*
X198519Y130354D01*
X198609Y129676D01*
X198871Y129043D01*
X199287Y128500D01*
X199830Y128083D01*
X200125Y127961D01*
Y127409D01*
X199791Y127271D01*
X199248Y126854D01*
X198831Y126311D01*
X198569Y125679D01*
X198480Y125000D01*
X198569Y124321D01*
X198831Y123689D01*
X199248Y123146D01*
X199791Y122729D01*
X200424Y122467D01*
X201102Y122378D01*
X201781Y122467D01*
X202414Y122729D01*
X202957Y123146D01*
X203374Y123689D01*
X203635Y124321D01*
X203725Y125000D01*
X203635Y125679D01*
X203374Y126311D01*
X202957Y126854D01*
X202414Y127271D01*
X202119Y127393D01*
Y127945D01*
X202453Y128083D01*
X202996Y128500D01*
X203413Y129043D01*
X203675Y129676D01*
X203764Y130354D01*
X203675Y131033D01*
X203413Y131666D01*
X202996Y132209D01*
X202453Y132625D01*
X201820Y132887D01*
X201142Y132977D01*
D02*
G37*
G36*
X191811Y127421D02*
X191382Y127335D01*
X191018Y127092D01*
X190775Y126728D01*
X190690Y126299D01*
X190775Y125870D01*
X191018Y125506D01*
X191382Y125263D01*
X191811Y125178D01*
X192240Y125263D01*
X192604Y125506D01*
X192847Y125870D01*
X192933Y126299D01*
X192847Y126728D01*
X192604Y127092D01*
X192240Y127335D01*
X191811Y127421D01*
D02*
G37*
G36*
X194961D02*
X194531Y127335D01*
X194168Y127092D01*
X193924Y126728D01*
X193839Y126299D01*
X193924Y125870D01*
X194168Y125506D01*
X194531Y125263D01*
X194961Y125178D01*
X195390Y125263D01*
X195754Y125506D01*
X195997Y125870D01*
X196082Y126299D01*
X195997Y126728D01*
X195754Y127092D01*
X195390Y127335D01*
X194961Y127421D01*
D02*
G37*
G36*
X191693Y132426D02*
X190991Y132286D01*
X190395Y131888D01*
X189997Y131293D01*
X189858Y130591D01*
X189997Y129888D01*
X190395Y129293D01*
X190991Y128895D01*
X191693Y128755D01*
X192395Y128895D01*
X192991Y129293D01*
X193388Y129888D01*
X193528Y130591D01*
X193388Y131293D01*
X192991Y131888D01*
X192395Y132286D01*
X191693Y132426D01*
D02*
G37*
G36*
X119558Y128693D02*
X118856Y128553D01*
X118260Y128156D01*
X117862Y127560D01*
X117723Y126858D01*
X117862Y126156D01*
X118260Y125560D01*
X118856Y125162D01*
X119558Y125023D01*
X120260Y125162D01*
X120856Y125560D01*
X121254Y126156D01*
X121393Y126858D01*
X121254Y127560D01*
X120856Y128156D01*
X120260Y128553D01*
X119558Y128693D01*
D02*
G37*
G36*
X234080Y133818D02*
X232944Y133668D01*
X231886Y133230D01*
X230978Y132533D01*
X230280Y131624D01*
X229842Y130566D01*
X229693Y129430D01*
X229842Y128294D01*
X230280Y127236D01*
X230978Y126328D01*
X231886Y125630D01*
X232944Y125192D01*
X234080Y125042D01*
X235216Y125192D01*
X236274Y125630D01*
X237182Y126328D01*
X237880Y127236D01*
X238318Y128294D01*
X238468Y129430D01*
X238318Y130566D01*
X237880Y131624D01*
X237182Y132533D01*
X236274Y133230D01*
X235216Y133668D01*
X234080Y133818D01*
D02*
G37*
G36*
X176063Y127421D02*
X175634Y127335D01*
X175270Y127092D01*
X175027Y126728D01*
X174941Y126299D01*
X175027Y125870D01*
X175270Y125506D01*
X175634Y125263D01*
X176063Y125178D01*
X176492Y125263D01*
X176856Y125506D01*
X177099Y125870D01*
X177184Y126299D01*
X177099Y126728D01*
X176856Y127092D01*
X176492Y127335D01*
X176063Y127421D01*
D02*
G37*
G36*
X198110Y111673D02*
X197681Y111587D01*
X197317Y111344D01*
X197074Y110980D01*
X196989Y110551D01*
X197074Y110122D01*
X197317Y109758D01*
X197681Y109515D01*
X198110Y109430D01*
X198539Y109515D01*
X198903Y109758D01*
X199146Y110122D01*
X199232Y110551D01*
X199146Y110980D01*
X198903Y111344D01*
X198539Y111587D01*
X198110Y111673D01*
D02*
G37*
G36*
X201260D02*
X200831Y111587D01*
X200467Y111344D01*
X200224Y110980D01*
X200138Y110551D01*
X200224Y110122D01*
X200467Y109758D01*
X200831Y109515D01*
X201260Y109430D01*
X201689Y109515D01*
X202053Y109758D01*
X202296Y110122D01*
X202381Y110551D01*
X202296Y110980D01*
X202053Y111344D01*
X201689Y111587D01*
X201260Y111673D01*
D02*
G37*
G36*
X191811Y114822D02*
X191382Y114737D01*
X191018Y114494D01*
X190775Y114130D01*
X190690Y113701D01*
X190775Y113272D01*
X191018Y112908D01*
X191382Y112665D01*
X191811Y112579D01*
X192240Y112665D01*
X192604Y112908D01*
X192847Y113272D01*
X192933Y113701D01*
X192847Y114130D01*
X192604Y114494D01*
X192240Y114737D01*
X191811Y114822D01*
D02*
G37*
G36*
X235480Y112455D02*
Y108230D01*
X239705D01*
X239608Y108970D01*
X239129Y110126D01*
X238368Y111118D01*
X237375Y111879D01*
X236220Y112358D01*
X235480Y112455D01*
D02*
G37*
G36*
X191811Y111673D02*
X191382Y111587D01*
X191018Y111344D01*
X190775Y110980D01*
X190690Y110551D01*
X190775Y110122D01*
X191018Y109758D01*
X191382Y109515D01*
X191811Y109430D01*
X192240Y109515D01*
X192604Y109758D01*
X192847Y110122D01*
X192933Y110551D01*
X192847Y110980D01*
X192604Y111344D01*
X192240Y111587D01*
X191811Y111673D01*
D02*
G37*
G36*
X194961D02*
X194531Y111587D01*
X194168Y111344D01*
X193924Y110980D01*
X193839Y110551D01*
X193924Y110122D01*
X194168Y109758D01*
X194531Y109515D01*
X194961Y109430D01*
X195390Y109515D01*
X195754Y109758D01*
X195997Y110122D01*
X196082Y110551D01*
X195997Y110980D01*
X195754Y111344D01*
X195390Y111587D01*
X194961Y111673D01*
D02*
G37*
G36*
Y114822D02*
X194531Y114737D01*
X194168Y114494D01*
X193924Y114130D01*
X193839Y113701D01*
X193924Y113272D01*
X194168Y112908D01*
X194531Y112665D01*
X194961Y112579D01*
X195390Y112665D01*
X195754Y112908D01*
X195997Y113272D01*
X196082Y113701D01*
X195997Y114130D01*
X195754Y114494D01*
X195390Y114737D01*
X194961Y114822D01*
D02*
G37*
G36*
Y117972D02*
X194531Y117887D01*
X194168Y117643D01*
X193924Y117280D01*
X193839Y116850D01*
X193924Y116421D01*
X194168Y116057D01*
X194531Y115814D01*
X194961Y115729D01*
X195390Y115814D01*
X195754Y116057D01*
X195997Y116421D01*
X196082Y116850D01*
X195997Y117280D01*
X195754Y117643D01*
X195390Y117887D01*
X194961Y117972D01*
D02*
G37*
G36*
X198110D02*
X197681Y117887D01*
X197317Y117643D01*
X197074Y117280D01*
X196989Y116850D01*
X197074Y116421D01*
X197317Y116057D01*
X197681Y115814D01*
X198110Y115729D01*
X198539Y115814D01*
X198903Y116057D01*
X199146Y116421D01*
X199232Y116850D01*
X199146Y117280D01*
X198903Y117643D01*
X198539Y117887D01*
X198110Y117972D01*
D02*
G37*
G36*
X201260D02*
X200831Y117887D01*
X200467Y117643D01*
X200224Y117280D01*
X200138Y116850D01*
X200224Y116421D01*
X200467Y116057D01*
X200831Y115814D01*
X201260Y115729D01*
X201689Y115814D01*
X202053Y116057D01*
X202296Y116421D01*
X202381Y116850D01*
X202296Y117280D01*
X202053Y117643D01*
X201689Y117887D01*
X201260Y117972D01*
D02*
G37*
G36*
X198110Y114822D02*
X197681Y114737D01*
X197317Y114494D01*
X197074Y114130D01*
X196989Y113701D01*
X197074Y113272D01*
X197317Y112908D01*
X197681Y112665D01*
X198110Y112579D01*
X198539Y112665D01*
X198903Y112908D01*
X199146Y113272D01*
X199232Y113701D01*
X199146Y114130D01*
X198903Y114494D01*
X198539Y114737D01*
X198110Y114822D01*
D02*
G37*
G36*
X201260D02*
X200831Y114737D01*
X200467Y114494D01*
X200224Y114130D01*
X200138Y113701D01*
X200224Y113272D01*
X200467Y112908D01*
X200831Y112665D01*
X201260Y112579D01*
X201689Y112665D01*
X202053Y112908D01*
X202296Y113272D01*
X202381Y113701D01*
X202296Y114130D01*
X202053Y114494D01*
X201689Y114737D01*
X201260Y114822D01*
D02*
G37*
G36*
X191811Y117972D02*
X191382Y117887D01*
X191018Y117643D01*
X190775Y117280D01*
X190690Y116850D01*
X190775Y116421D01*
X191018Y116057D01*
X191382Y115814D01*
X191811Y115729D01*
X192240Y115814D01*
X192604Y116057D01*
X192847Y116421D01*
X192933Y116850D01*
X192847Y117280D01*
X192604Y117643D01*
X192240Y117887D01*
X191811Y117972D01*
D02*
G37*
G36*
X184519Y169203D02*
X183582Y169017D01*
X182788Y168486D01*
X182258Y167692D01*
X182071Y166756D01*
X182258Y165819D01*
X182788Y165025D01*
X183582Y164495D01*
X184519Y164309D01*
X185455Y164495D01*
X186249Y165025D01*
X186779Y165819D01*
X186966Y166756D01*
X186779Y167692D01*
X186249Y168486D01*
X185455Y169017D01*
X184519Y169203D01*
D02*
G37*
G36*
X202513Y170125D02*
X200255D01*
X200285Y169894D01*
X200567Y169213D01*
X201016Y168628D01*
X201601Y168179D01*
X202282Y167897D01*
X202513Y167867D01*
Y170125D01*
D02*
G37*
G36*
X205771D02*
X203513D01*
Y167867D01*
X203744Y167897D01*
X204425Y168179D01*
X205010Y168628D01*
X205459Y169213D01*
X205741Y169894D01*
X205771Y170125D01*
D02*
G37*
G36*
X188743Y160853D02*
X188512Y160822D01*
X187831Y160540D01*
X187246Y160091D01*
X186797Y159506D01*
X186515Y158825D01*
X186485Y158594D01*
X188743D01*
Y160853D01*
D02*
G37*
G36*
X189743D02*
Y158594D01*
X192001D01*
X191971Y158825D01*
X191689Y159506D01*
X191240Y160091D01*
X190655Y160540D01*
X189974Y160822D01*
X189743Y160853D01*
D02*
G37*
G36*
X113819Y166817D02*
X112882Y166631D01*
X112089Y166100D01*
X111558Y165306D01*
X111372Y164370D01*
X111558Y163434D01*
X112089Y162640D01*
X112882Y162109D01*
X113819Y161923D01*
X114755Y162109D01*
X115549Y162640D01*
X116080Y163434D01*
X116266Y164370D01*
X116080Y165306D01*
X115549Y166100D01*
X114755Y166631D01*
X113819Y166817D01*
D02*
G37*
G36*
X172200Y169800D02*
X170556D01*
X170628Y169442D01*
X171114Y168714D01*
X171842Y168228D01*
X172200Y168156D01*
Y169800D01*
D02*
G37*
G36*
X173200Y172444D02*
Y170800D01*
X174844D01*
X174772Y171158D01*
X174286Y171886D01*
X173558Y172372D01*
X173200Y172444D01*
D02*
G37*
G36*
X202513Y173383D02*
X202282Y173353D01*
X201601Y173071D01*
X201016Y172622D01*
X200567Y172037D01*
X200285Y171356D01*
X200255Y171125D01*
X202513D01*
Y173383D01*
D02*
G37*
G36*
X203513D02*
Y171125D01*
X205771D01*
X205741Y171356D01*
X205459Y172037D01*
X205010Y172622D01*
X204425Y173071D01*
X203744Y173353D01*
X203513Y173383D01*
D02*
G37*
G36*
X174844Y169800D02*
X173200D01*
Y168156D01*
X173558Y168228D01*
X174286Y168714D01*
X174772Y169442D01*
X174844Y169800D01*
D02*
G37*
G36*
X211741Y180086D02*
X210805Y179900D01*
X210011Y179369D01*
X209481Y178576D01*
X209295Y177639D01*
X209481Y176703D01*
X210011Y175909D01*
X210805Y175378D01*
X210824Y175375D01*
Y173758D01*
X210894Y173407D01*
X211093Y173110D01*
X232347Y151855D01*
Y146447D01*
X239453D01*
Y153553D01*
X233245D01*
X212659Y174139D01*
Y175375D01*
X212678Y175378D01*
X213472Y175909D01*
X214002Y176703D01*
X214038Y176882D01*
X214558D01*
X214624Y176547D01*
X215155Y175753D01*
X215949Y175223D01*
X216885Y175036D01*
X217822Y175223D01*
X217838Y175233D01*
X220120Y172951D01*
X220417Y172752D01*
X220768Y172682D01*
X232347D01*
Y170747D01*
X239453D01*
Y177853D01*
X232347D01*
Y174518D01*
X221149D01*
X219135Y176531D01*
X219146Y176547D01*
X219332Y177483D01*
X219146Y178420D01*
X218616Y179214D01*
X217822Y179744D01*
X216885Y179930D01*
X215949Y179744D01*
X215155Y179214D01*
X214624Y178420D01*
X214589Y178241D01*
X214069D01*
X214002Y178576D01*
X213472Y179369D01*
X212678Y179900D01*
X211741Y180086D01*
D02*
G37*
G36*
X172200Y172444D02*
X171842Y172372D01*
X171114Y171886D01*
X170628Y171158D01*
X170556Y170800D01*
X172200D01*
Y172444D01*
D02*
G37*
G36*
X174252Y142859D02*
X173550Y142719D01*
X172954Y142321D01*
X172556Y141726D01*
X172417Y141024D01*
X172556Y140321D01*
X172954Y139726D01*
X173550Y139328D01*
X174252Y139188D01*
X174954Y139328D01*
X175550Y139726D01*
X175947Y140321D01*
X176087Y141024D01*
X175947Y141726D01*
X175550Y142321D01*
X174954Y142719D01*
X174252Y142859D01*
D02*
G37*
G36*
X168504Y143260D02*
X167802Y143121D01*
X167206Y142723D01*
X166808Y142127D01*
X166669Y141425D01*
X166808Y140723D01*
X167206Y140127D01*
X167802Y139729D01*
X168504Y139590D01*
X169206Y139729D01*
X169802Y140127D01*
X170200Y140723D01*
X170339Y141425D01*
X170200Y142127D01*
X169802Y142723D01*
X169206Y143121D01*
X168504Y143260D01*
D02*
G37*
G36*
X197008Y144197D02*
X196306Y144058D01*
X195710Y143660D01*
X195477Y143311D01*
X194877Y143291D01*
X194762Y143463D01*
X194167Y143861D01*
X193465Y144001D01*
X192762Y143861D01*
X192167Y143463D01*
X191931Y143110D01*
X191337D01*
X191101Y143463D01*
X190506Y143861D01*
X189803Y144001D01*
X189101Y143861D01*
X188505Y143463D01*
X188108Y142868D01*
X187968Y142165D01*
X188108Y141463D01*
X188505Y140868D01*
X189101Y140470D01*
X189803Y140330D01*
X190506Y140470D01*
X191101Y140868D01*
X191337Y141221D01*
X191931D01*
X192167Y140868D01*
X192762Y140470D01*
X193465Y140330D01*
X194167Y140470D01*
X194762Y140868D01*
X194995Y141216D01*
X195595Y141236D01*
X195710Y141065D01*
X196306Y140667D01*
X197008Y140527D01*
X197710Y140667D01*
X198306Y141065D01*
X198703Y141660D01*
X198843Y142362D01*
X198703Y143064D01*
X198306Y143660D01*
X197710Y144058D01*
X197008Y144197D01*
D02*
G37*
G36*
X115227Y133418D02*
X114525Y133278D01*
X113929Y132880D01*
X113532Y132285D01*
X113392Y131582D01*
X113532Y130880D01*
X113929Y130285D01*
X114525Y129887D01*
X115227Y129747D01*
X115929Y129887D01*
X116525Y130285D01*
X116923Y130880D01*
X117062Y131582D01*
X116923Y132285D01*
X116525Y132880D01*
X115929Y133278D01*
X115227Y133418D01*
D02*
G37*
G36*
X127700Y136535D02*
X126998Y136396D01*
X126402Y135998D01*
X126004Y135402D01*
X125865Y134700D01*
X126004Y133998D01*
X126402Y133402D01*
X126998Y133004D01*
X127700Y132865D01*
X128402Y133004D01*
X128998Y133402D01*
X129396Y133998D01*
X129535Y134700D01*
X129396Y135402D01*
X128998Y135998D01*
X128402Y136396D01*
X127700Y136535D01*
D02*
G37*
G36*
X117196Y143872D02*
X116259Y143686D01*
X115465Y143155D01*
X114935Y142361D01*
X114749Y141425D01*
X114935Y140489D01*
X115465Y139695D01*
X116259Y139164D01*
X117196Y138978D01*
X118132Y139164D01*
X118926Y139695D01*
X119457Y140489D01*
X119643Y141425D01*
X119457Y142361D01*
X118926Y143155D01*
X118132Y143686D01*
X117196Y143872D01*
D02*
G37*
G36*
X160197Y151127D02*
X159494Y150987D01*
X158899Y150589D01*
X158501Y149994D01*
X158362Y149291D01*
X158501Y148589D01*
X158899Y147994D01*
X159494Y147596D01*
X160197Y147456D01*
X160899Y147596D01*
X161495Y147994D01*
X161892Y148589D01*
X162032Y149291D01*
X161892Y149994D01*
X161495Y150589D01*
X160899Y150987D01*
X160197Y151127D01*
D02*
G37*
G36*
X84244Y157137D02*
X83308Y156951D01*
X82514Y156420D01*
X81983Y155626D01*
X81797Y154690D01*
X81983Y153753D01*
X82514Y152960D01*
X83308Y152429D01*
X84244Y152243D01*
X85180Y152429D01*
X85974Y152960D01*
X86505Y153753D01*
X86691Y154690D01*
X86505Y155626D01*
X85974Y156420D01*
X85180Y156951D01*
X84244Y157137D01*
D02*
G37*
G36*
X188743Y157594D02*
X186485D01*
X186515Y157363D01*
X186797Y156682D01*
X187246Y156097D01*
X187831Y155649D01*
X188512Y155366D01*
X188743Y155336D01*
Y157594D01*
D02*
G37*
G36*
X192001D02*
X189743D01*
Y155336D01*
X189974Y155366D01*
X190655Y155649D01*
X191240Y156097D01*
X191689Y156682D01*
X191971Y157363D01*
X192001Y157594D01*
D02*
G37*
G36*
X141999Y154636D02*
X141062Y154449D01*
X140269Y153919D01*
X139738Y153125D01*
X139552Y152189D01*
X139738Y151252D01*
X140269Y150459D01*
X141062Y149928D01*
X141999Y149742D01*
X142935Y149928D01*
X143729Y150459D01*
X144260Y151252D01*
X144446Y152189D01*
X144260Y153125D01*
X143729Y153919D01*
X142935Y154449D01*
X141999Y154636D01*
D02*
G37*
G36*
X58480Y158518D02*
X57344Y158368D01*
X56286Y157930D01*
X55378Y157232D01*
X54680Y156324D01*
X54242Y155266D01*
X54093Y154130D01*
X54242Y152994D01*
X54680Y151936D01*
X55378Y151028D01*
X56286Y150330D01*
X57344Y149892D01*
X58480Y149742D01*
X59616Y149892D01*
X60674Y150330D01*
X61582Y151028D01*
X62280Y151936D01*
X62718Y152994D01*
X62867Y154130D01*
X62718Y155266D01*
X62280Y156324D01*
X61582Y157232D01*
X60674Y157930D01*
X59616Y158368D01*
X58480Y158518D01*
D02*
G37*
G36*
X89724Y156187D02*
X88788Y156001D01*
X87994Y155471D01*
X87464Y154677D01*
X87277Y153740D01*
X87464Y152804D01*
X87994Y152010D01*
X88788Y151479D01*
X89724Y151293D01*
X90661Y151479D01*
X91455Y152010D01*
X91985Y152804D01*
X92171Y153740D01*
X91985Y154677D01*
X91455Y155471D01*
X90661Y156001D01*
X89724Y156187D01*
D02*
G37*
%LPD*%
D23*
X142134Y121693D02*
X165894D01*
X155300Y104134D02*
X155643D01*
X157300Y105791D02*
X160952D01*
X155643Y104134D02*
X157300Y105791D01*
X155980Y118400D02*
X171364D01*
X143292Y124700D02*
X171363D01*
X160966Y105777D02*
X162813D01*
X160952Y105791D02*
X160966Y105777D01*
X156382Y108964D02*
X171314D01*
X155622Y115311D02*
X171303D01*
X164116Y105777D02*
X165963D01*
X164102Y105791D02*
X164116Y105777D01*
X162827Y105791D02*
X164102D01*
X162813Y105777D02*
X162827Y105791D01*
X155723Y112101D02*
X171314D01*
X155532Y111911D02*
X155723Y112101D01*
X155521Y115211D02*
X155622Y115311D01*
X140787Y120346D02*
X142134Y121693D01*
X155511Y118869D02*
X155980Y118400D01*
X183912Y121600D02*
Y127849D01*
X187062Y118450D02*
Y130591D01*
X171363Y79637D02*
Y96403D01*
X172913Y97953D01*
X182600Y77500D02*
X182800Y77300D01*
X176063Y86249D02*
X182600Y79712D01*
Y77500D02*
Y79712D01*
X220768Y173600D02*
X235900D01*
X216885Y177483D02*
X220768Y173600D01*
X211741Y173758D02*
X235500Y150000D01*
X211741Y173758D02*
Y177639D01*
X187047Y91102D02*
X187062Y91117D01*
X190197Y93239D02*
X190211Y93253D01*
X188661Y91589D02*
Y94803D01*
X185512Y97010D02*
Y97953D01*
X180827Y93150D02*
X184200Y89776D01*
X176063Y97953D02*
X177663Y96353D01*
X155421Y108003D02*
X156382Y108964D01*
X182638Y129124D02*
X183912Y127849D01*
X182638Y129124D02*
Y134213D01*
X183912Y121600D02*
X187062Y118450D01*
X188661Y116850D01*
X170415Y105777D02*
X171314D01*
X169126Y105791D02*
X170401D01*
X167266Y105777D02*
X169112D01*
X165977Y105791D02*
X167252D01*
X168225Y121611D02*
X169764Y123150D01*
X171363Y124700D02*
X172913Y123150D01*
X165977Y121611D02*
X168225D01*
X182362Y97953D02*
X183912Y99503D01*
X178071Y130590D02*
X182362Y126299D01*
X196511Y99503D02*
Y105802D01*
X198110Y107402D01*
X196511Y99503D02*
X198400Y97613D01*
X188661Y96995D02*
Y97953D01*
X187047Y89970D02*
Y91102D01*
X172913Y87261D02*
Y94803D01*
X190197Y93239D02*
X202235Y81200D01*
X179213Y89087D02*
Y94803D01*
Y89087D02*
X183000Y85299D01*
X193922Y79748D02*
X194300D01*
X202235Y79800D02*
Y81200D01*
X188661Y91589D02*
X200135Y80115D01*
Y77200D02*
Y80115D01*
X196600Y77400D02*
Y80418D01*
X188100Y77800D02*
Y80199D01*
X187047Y89970D02*
X196600Y80418D01*
X185512Y88158D02*
Y94803D01*
X180827Y93150D02*
Y94132D01*
X185512Y88158D02*
X193922Y79748D01*
X183000Y85299D02*
X188100Y80199D01*
X184200Y86500D02*
X190700Y80000D01*
X184200Y86500D02*
Y89776D01*
X192913Y99503D02*
X193361Y99055D01*
X183912Y99503D02*
X192913D01*
X193361Y92623D02*
Y99055D01*
X188661Y96995D02*
X190211Y95445D01*
Y93253D02*
Y95445D01*
X185512Y97010D02*
X187062Y95460D01*
Y91117D02*
Y95460D01*
X177663Y86624D02*
Y96353D01*
X179213Y97953D02*
X180812Y96353D01*
Y94147D02*
X180827Y94132D01*
X180812Y94147D02*
Y96353D01*
X180807Y134213D02*
X182638D01*
X178520Y136500D02*
X180807Y134213D01*
X177663Y86624D02*
X184287Y80000D01*
X184400D01*
X176063Y86249D02*
Y94803D01*
X176900Y78100D02*
Y83275D01*
X172913Y87261D02*
X176900Y83275D01*
X171363Y79637D02*
X172700Y78300D01*
X193361Y92623D02*
X205284Y80700D01*
X232400D01*
X201900Y97742D02*
X203260Y99102D01*
X201900Y97700D02*
Y97742D01*
X203260Y99102D02*
Y105402D01*
X201260Y107402D02*
X203260Y105402D01*
D24*
X185512Y126299D02*
Y128795D01*
X184038Y130269D02*
X185512Y128795D01*
X184038Y130269D02*
Y132638D01*
X187841Y136441D01*
X210200Y83600D02*
X210600Y83200D01*
X210200Y83600D02*
Y132200D01*
X187841Y136441D02*
X205959D01*
X210200Y132200D01*
D63*
X234980Y107730D02*
D03*
D64*
X235900Y150000D02*
D03*
Y174300D02*
D03*
X232400Y80700D02*
D03*
D66*
X22000Y211297D02*
D03*
Y201297D02*
D03*
D69*
X155300Y104134D02*
D03*
X155532Y111911D02*
D03*
X155521Y115211D02*
D03*
X140787Y120346D02*
D03*
X155511Y118869D02*
D03*
X142835Y125157D02*
D03*
X182800Y77300D02*
D03*
X155421Y108003D02*
D03*
X178071Y131575D02*
D03*
X198298Y48963D02*
D03*
X176645Y47745D02*
D03*
X186600Y177154D02*
D03*
X172700Y170300D02*
D03*
X160600Y180200D02*
D03*
X180300Y201297D02*
D03*
X186969Y130591D02*
D03*
X198400Y97613D02*
D03*
X201900Y97700D02*
D03*
X200135Y77200D02*
D03*
X194300Y79748D02*
D03*
X202235Y79800D02*
D03*
X196600Y77400D02*
D03*
X190700Y80000D02*
D03*
X188100Y77800D02*
D03*
X178520Y136500D02*
D03*
X184700Y80000D02*
D03*
X176900Y78100D02*
D03*
X172700Y78300D02*
D03*
X210600Y83200D02*
D03*
D70*
X216885Y177483D02*
D03*
X211741Y177639D02*
D03*
X203013Y170625D02*
D03*
X123389Y48364D02*
D03*
X124563Y60583D02*
D03*
X84912Y105204D02*
D03*
X189243Y158094D02*
D03*
D71*
X173386Y112165D02*
D03*
D72*
X180768Y112362D02*
D03*
D73*
X186713Y117106D02*
D03*
D74*
X188661Y94803D02*
D03*
X185512D02*
D03*
X179213D02*
D03*
X176063D02*
D03*
X172913D02*
D03*
X188661Y97953D02*
D03*
X185512D02*
D03*
X182362D02*
D03*
X179213D02*
D03*
X176063D02*
D03*
X172913D02*
D03*
X201260Y107402D02*
D03*
X198110D02*
D03*
X172913D02*
D03*
Y110551D02*
D03*
Y113701D02*
D03*
X188661Y116850D02*
D03*
X172913D02*
D03*
Y123150D02*
D03*
X169764D02*
D03*
X185512Y126299D02*
D03*
X182362D02*
D03*
M02*
